<svg width="360" height="104" viewBox="0 0 360 104" fill="none" xmlns="http://www.w3.org/2000/svg">
<g clip-path="url(#clip0_3586_6443)">
<g filter="url(#filter0_d_3586_6443)">
<path fill-rule="evenodd" clip-rule="evenodd" d="M29.2636 97.2479C33.7363 86.083 37.9783 72.7191 44.6636 68.545C48.6002 66.0881 62.2287 64.4184 62.2287 64.4184H70.6652C70.6652 64.4184 85.1829 62.7963 89.4656 66.8143C92.927 70.0654 104.75 94.1326 104.75 94.1326C104.75 94.1326 96.9246 102.372 89.4656 102.372C89.6827 112.363 89.7235 121.397 89.7235 121.397C89.7235 121.397 90.0153 122.734 90.4904 125.191C78.131 126.222 61.2785 126.263 46.8694 122.625C47.1749 119.041 47.3649 116.883 47.3853 116.659L52.2449 84.3319C52.2449 84.3319 49.1771 95.7343 46.978 102.935C43.5437 102.935 31.9513 100.187 29.2636 97.2411V97.2479Z" fill="#C36363"/>
<path fill-rule="evenodd" clip-rule="evenodd" d="M66.8576 70.1127H67.0137C69.6607 70.1127 71.8054 67.968 71.8054 65.321V50.2739H62.0591V65.321C62.0591 67.968 64.2038 70.1127 66.8508 70.1127H66.8576Z" fill="#EDBA8C"/>
<path opacity="0.25" fill-rule="evenodd" clip-rule="evenodd" d="M71.8121 63.9024C68.5679 64.2486 65.2693 64.0993 62.0658 63.4545V56.3755C65.2897 56.8981 68.5475 57.1628 71.8121 57.1764V63.9024Z" fill="#561C2F" stroke="#EDBA8C" stroke-width="0.347756" stroke-miterlimit="22.93"/>
<path fill-rule="evenodd" clip-rule="evenodd" d="M84.7959 10.2773C84.7959 10.2773 84.2393 5.4924 82.1353 3.3816C80.0245 1.27759 66.4638 -1.34904 59.6155 0.802487C57.464 3.06939 56.0862 7.54212 56.0862 7.54212L84.7959 10.2773Z" fill="#845E40"/>
<path fill-rule="evenodd" clip-rule="evenodd" d="M31.1842 18.8971C30.3902 27.6661 47.039 36.3333 68.371 38.2676C89.703 40.2019 107.635 34.6568 108.429 25.8946C109.223 17.1256 92.574 8.45846 71.242 6.52412C49.91 4.58979 31.9783 10.1349 31.1842 18.8971Z" fill="#F1D054"/>
<mask id="mask0_3586_6443" style="mask-type:luminance" maskUnits="userSpaceOnUse" x="31" y="6" width="78" height="33">
<path d="M31.1842 18.8971C30.3902 27.6661 47.039 36.3333 68.371 38.2676C89.703 40.2019 107.635 34.6568 108.429 25.8946C109.223 17.1256 92.574 8.45846 71.242 6.52412C49.91 4.58979 31.9783 10.1349 31.1842 18.8971Z" fill="white"/>
</mask>
<g mask="url(#mask0_3586_6443)">
<path opacity="0.3" fill-rule="evenodd" clip-rule="evenodd" d="M31.1842 18.8971C30.3902 27.6661 47.039 36.3333 68.371 38.2676C89.703 40.2019 107.635 34.6568 108.429 25.8946C109.223 17.1256 92.574 8.45846 71.242 6.52412C49.91 4.58979 31.9783 10.1349 31.1842 18.8971Z" fill="#CB2E45"/>
</g>
<path fill-rule="evenodd" clip-rule="evenodd" d="M64.0755 20.1191L54.9772 18.0586C52.5924 17.5143 50.0775 18.4282 48.6615 20.3856C44.2287 26.5309 35.782 41.1411 38.4547 60.6346C38.8232 63.3227 41.1896 65.3185 44.0387 65.4027C48.7666 65.5357 52.1315 65.6487 54.5083 65.7302C57.61 65.8479 60.3183 63.676 60.7224 60.7275C61.8613 52.4879 64.3895 36.5429 68.0801 27.4705C69.3657 24.3269 67.472 20.8863 64.0575 20.1231L64.0755 20.1191Z" fill="black"/>
<path fill-rule="evenodd" clip-rule="evenodd" d="M44.046 33.5232C45.5392 36.5638 48.3151 38.2538 50.2495 37.3036C52.1838 36.3534 52.5368 33.1227 51.0436 30.0821C49.5504 27.0414 46.7745 25.3514 44.8401 26.3016C42.9058 27.2518 42.5529 30.4825 44.046 33.5232Z" fill="#EDBA8C"/>
<path fill-rule="evenodd" clip-rule="evenodd" d="M70.6181 14.6621L80.5588 13.1008C83.1648 12.687 85.8055 13.8521 87.1883 16.0609C91.5159 22.9945 99.5528 39.3282 95.2701 60.1153C94.6795 62.9819 91.9887 64.9592 88.9163 64.8443C83.8182 64.6464 80.1886 64.5252 77.6247 64.4415C74.2779 64.3444 71.5198 61.8115 71.2976 58.609C70.6662 49.6589 69.0955 32.3157 65.7778 22.2852C64.621 18.8092 66.9073 15.2428 70.6372 14.6677L70.6181 14.6621Z" fill="black"/>
<path fill-rule="evenodd" clip-rule="evenodd" d="M49.5435 40.1137L51.4168 22.4739C52.2855 14.2886 59.6292 8.35665 67.8145 9.23219L74.9003 9.98556C83.0856 10.8543 89.0176 18.198 88.142 26.3833L86.2688 44.0231C85.4 52.2084 78.0563 58.1403 69.871 57.2648L62.7852 56.5114C54.5999 55.6427 48.668 48.299 49.5435 40.1137Z" fill="#EDBA8C"/>
<path fill-rule="evenodd" clip-rule="evenodd" d="M92.5332 38.4035C90.5106 41.1184 87.4768 42.279 85.7461 40.9962C84.0153 39.7134 84.2529 36.4692 86.2755 33.7543C88.298 31.0394 91.3319 29.8788 93.0626 31.1616C94.7865 32.4444 94.5558 35.6886 92.5332 38.4035Z" fill="#EDBA8C"/>
<path fill-rule="evenodd" clip-rule="evenodd" d="M92.3908 33.4758C89.7303 33.8084 88.7597 36.5911 88.0742 38.7969C87.9588 39.1702 87.3684 39.0141 87.4837 38.634C88.271 36.1092 89.4113 33.2383 92.3908 32.865C92.7777 32.8175 92.7777 33.4215 92.3908 33.4758Z" fill="#561C2F"/>
<path fill-rule="evenodd" clip-rule="evenodd" d="M90.9248 36.7607C90.3343 36.3603 89.7031 36.1024 89.0041 35.9734C88.6172 35.8987 88.7801 35.315 89.167 35.3829C89.9135 35.5187 90.6058 35.8105 91.2302 36.2313C91.5492 36.4485 91.2506 36.9779 90.9248 36.7539V36.7607Z" fill="#561C2F"/>
<path fill-rule="evenodd" clip-rule="evenodd" d="M48.8985 35.9735C49.0342 33.1636 47.9754 30.5913 45.9053 28.6909C45.6135 28.4262 46.0479 27.9918 46.3329 28.2633C48.5116 30.2723 49.6383 33.0211 49.5025 35.9803C49.4822 36.3739 48.8781 36.3739 48.8917 35.9803L48.8985 35.9735Z" fill="#561C2F"/>
<path fill-rule="evenodd" clip-rule="evenodd" d="M48.1724 31.9895C47.2901 32.0981 46.5299 32.546 45.9734 33.2248C45.7222 33.5302 45.2946 33.0958 45.5458 32.7972C46.2109 31.9827 47.134 31.5076 48.1724 31.3854C48.5593 31.3379 48.5593 31.9488 48.1724 31.9963V31.9895Z" fill="#561C2F"/>
<path fill-rule="evenodd" clip-rule="evenodd" d="M46.8693 122.618C46.9507 122.632 47.039 122.645 47.1272 122.659L47.1476 121.824C58.5703 93.7254 50.9484 66.4207 50.9484 66.4207L56.3373 65.1583C56.3373 65.1583 60.1924 75.5766 59.473 88.316C59.473 88.316 73.8278 87.9631 82.5289 88.6554C82.3728 76.6693 80.4589 64.0859 80.4589 64.0859L86.1058 64.9275C86.1058 64.9275 91.1758 97.4923 89.4654 102.365L89.7233 121.39L90.2391 123.955H90.2527C90.3749 124.58 90.5242 125.326 90.6803 126.168V126.182C93.5988 141.609 101.757 191.963 94.834 241.244C83.4045 242.079 81.8299 241.224 81.8299 241.224C81.8299 241.224 79.2983 178.68 72.0699 145.579L50.1339 239.839L36.9804 238.556C36.9804 238.556 44.7721 147.106 46.8693 122.611V122.618Z" fill="#1E4A47"/>
<mask id="mask1_3586_6443" style="mask-type:luminance" maskUnits="userSpaceOnUse" x="36" y="64" width="62" height="178">
<path d="M46.8693 122.618C46.9507 122.632 47.039 122.645 47.1272 122.659L47.1476 121.824C58.5703 93.7254 50.9484 66.4207 50.9484 66.4207L56.3373 65.1583C56.3373 65.1583 60.1924 75.5766 59.473 88.316C59.473 88.316 73.8278 87.9631 82.5289 88.6554C82.3728 76.6693 80.4589 64.0859 80.4589 64.0859L86.1058 64.9275C86.1058 64.9275 91.1758 97.4923 89.4654 102.365L89.7233 121.39L90.2391 123.955H90.2527C90.3749 124.58 90.5242 125.326 90.6803 126.168V126.182C93.5988 141.609 101.757 191.963 94.834 241.244C83.4045 242.079 81.8299 241.224 81.8299 241.224C81.8299 241.224 79.2983 178.68 72.0699 145.579L50.1339 239.839L36.9804 238.556C36.9804 238.556 44.7721 147.106 46.8693 122.611V122.618Z" fill="white"/>
</mask>
<g mask="url(#mask1_3586_6443)">
<path opacity="0.3" fill-rule="evenodd" clip-rule="evenodd" d="M46.8693 122.618C46.9507 122.632 47.039 122.645 47.1272 122.659L47.1476 121.824C58.5703 93.7254 50.9484 66.4207 50.9484 66.4207L56.3373 65.1583C56.3373 65.1583 60.1924 75.5766 59.473 88.316C59.473 88.316 73.8278 87.9631 82.5289 88.6554C82.3728 76.6693 80.4589 64.0859 80.4589 64.0859L86.1058 64.9275C86.1058 64.9275 91.1758 97.4923 89.4654 102.365L89.7233 121.39L90.2391 123.955H90.2527C90.3749 124.58 90.5242 125.326 90.6803 126.168V126.182C93.5988 141.609 101.757 191.963 94.834 241.244C83.4045 242.079 81.8299 241.224 81.8299 241.224C81.8299 241.224 79.2983 178.68 72.0699 145.579L50.1339 239.839L36.9804 238.556C36.9804 238.556 44.7721 147.106 46.8693 122.611V122.618Z" fill="#1E4A47"/>
</g>
<path fill-rule="evenodd" clip-rule="evenodd" d="M69.1852 34.5006C68.9952 32.417 68.9612 30.313 69.0834 28.2225C69.1445 27.1977 69.2395 26.1728 69.3753 25.1547C69.4703 24.4081 69.4703 23.4036 69.7757 22.7046C70.1897 21.7544 71.6218 21.6526 71.9069 22.7181C72.1376 23.5665 71.8051 24.5167 71.7168 25.3651C71.5743 26.8447 71.3707 28.3175 71.3028 29.7971C71.2689 30.5166 71.2689 31.2292 71.3164 31.9487C71.3435 32.3898 71.1942 33.245 71.5268 33.5844C71.71 33.7676 72.0222 33.8219 72.2394 33.6794C72.4091 33.5708 72.4906 33.3672 72.6331 33.2246C72.8774 32.9667 73.2914 32.9056 73.624 33.0346C74.3502 33.3264 74.262 33.9305 74.1195 34.5617C73.9091 35.4712 73.4611 36.3264 72.8028 36.9983C72.4566 37.3512 72.0358 37.6566 71.5472 37.7177C70.8074 37.8128 70.0879 37.3037 69.7214 36.6589C69.3481 36.0074 69.2599 35.2472 69.192 34.5006H69.1852Z" fill="#F1D054"/>
<path fill-rule="evenodd" clip-rule="evenodd" d="M75.8911 31.4802C75.7214 32.8037 76.2983 33.9711 77.1738 34.0796C78.0494 34.1882 78.8978 33.2041 79.0607 31.8806C79.2303 30.5571 78.6534 29.3897 77.7779 29.2811C76.9024 29.1725 76.054 30.1567 75.8911 31.4802Z" fill="#561C2F"/>
<path fill-rule="evenodd" clip-rule="evenodd" d="M65.8938 30.4961C65.9345 31.8332 65.249 32.9395 64.3667 32.9599C63.4843 32.987 62.7377 31.9214 62.697 30.5844C62.6563 29.2473 63.3418 28.141 64.2241 28.1206C65.1065 28.0935 65.853 29.1591 65.8938 30.4961Z" fill="#561C2F"/>
<path fill-rule="evenodd" clip-rule="evenodd" d="M81.7824 27.0281C80.9951 25.0598 79.0744 24.0621 77.0111 24.3133C76.2034 24.4083 76.2102 23.1459 77.0111 23.0509C79.6852 22.7319 82.02 24.2318 83.0041 26.6956C83.3096 27.4557 82.0811 27.7815 81.7824 27.0349V27.0281Z" fill="#561C2F"/>
<path fill-rule="evenodd" clip-rule="evenodd" d="M65.9685 22.9898C64.1292 22.2771 62.1813 22.8269 60.9596 24.3744C60.4573 25.0124 59.5682 24.1165 60.0637 23.4785C61.5297 21.612 64.0952 20.9197 66.3011 21.7681C67.0544 22.0599 66.7287 23.2816 65.9617 22.9898H65.9685Z" fill="#561C2F"/>
<path fill-rule="evenodd" clip-rule="evenodd" d="M31.6798 99.372L45.3491 104.673C45.0165 106.18 44.6839 107.686 44.3514 109.193C53.6498 109.539 62.9414 109.96 72.233 110.421C72.9931 112.973 73.6243 115.566 73.9773 118.206C60.5659 123.507 45.1523 123.541 31.7205 118.288C31.2318 118.098 30.7228 117.881 30.3834 117.48C29.9423 116.958 29.8608 116.225 29.8201 115.546C29.4807 110.096 30.1187 104.591 31.6934 99.3652L31.6798 99.372Z" fill="#EDBA8C"/>
<mask id="mask2_3586_6443" style="mask-type:luminance" maskUnits="userSpaceOnUse" x="29" y="99" width="45" height="24">
<path d="M31.6798 99.372L45.3491 104.673C45.0165 106.18 44.6839 107.686 44.3514 109.193C53.6498 109.539 62.9414 109.96 72.233 110.421C72.9931 112.973 73.6243 115.566 73.9773 118.206C60.5659 123.507 45.1523 123.541 31.7205 118.288C31.2318 118.098 30.7228 117.881 30.3834 117.48C29.9423 116.958 29.8608 116.225 29.8201 115.546C29.4807 110.096 30.1187 104.591 31.6934 99.3652L31.6798 99.372Z" fill="white"/>
</mask>
<g mask="url(#mask2_3586_6443)">
<path opacity="0.2" fill-rule="evenodd" clip-rule="evenodd" d="M31.6798 99.372L45.3491 104.673C45.0165 106.18 44.6839 107.686 44.3514 109.193C53.6498 109.539 62.9414 109.96 72.233 110.421C72.9931 112.973 73.6243 115.566 73.9773 118.206C60.5659 123.507 45.1523 123.541 31.7205 118.288C31.2318 118.098 30.7228 117.881 30.3834 117.48C29.9423 116.958 29.8608 116.225 29.8201 115.546C29.4807 110.096 30.1187 104.591 31.6934 99.3652L31.6798 99.372Z" fill="#CB2E45"/>
</g>
<path fill-rule="evenodd" clip-rule="evenodd" d="M72.4432 40.1134C69.8573 42.0071 66.4162 40.3374 66.1379 37.195C66.104 36.7877 66.7352 36.7945 66.7691 37.195C67.0067 39.9098 69.9658 41.1451 72.1242 39.5637C72.4567 39.3193 72.7689 39.8691 72.4432 40.1134Z" fill="#561C2F"/>
<path opacity="0.16" fill-rule="evenodd" clip-rule="evenodd" d="M88.2573 27.9511C87.8093 27.8358 87.3682 27.7204 86.927 27.605C80.8797 26.044 74.6762 24.9105 68.4592 24.32C64.1629 23.9128 59.8802 23.8042 55.6043 23.9399C53.9211 23.9196 52.2515 23.9196 50.609 23.9399C50.609 23.9399 52.2447 17.465 53.6632 15.456C65.0928 14.8452 77.1128 16.2297 87.6057 20.5124C88.1623 22.3585 88.3659 24.3404 88.1487 26.3765L88.2573 27.9444V27.9511Z" fill="#561C2F"/>
<path fill-rule="evenodd" clip-rule="evenodd" d="M49.489 13.2092L57.6132 9.01474C60.7353 8.96044 63.8641 8.94687 66.9862 8.99438C71.0517 9.05546 75.0561 9.19799 79.0877 9.67309L79.7053 9.91064L85.678 13.216L93.5647 18.1706C93.5647 18.1706 96.0352 19.942 96.0352 21.2316L96.8768 26.064C96.8768 26.064 74.1059 14.1798 45.6407 19.7724C29.2701 20.4511 49.5025 13.2092 49.5025 13.2092H49.489Z" fill="#E6A050"/>
<path fill-rule="evenodd" clip-rule="evenodd" d="M104.03 96.9965C106.338 102.738 107.662 108.881 107.926 115.064C107.953 115.654 107.96 116.292 107.641 116.795C107.37 117.229 106.901 117.494 106.447 117.724C99.4084 121.308 91.0466 120.568 83.1939 119.733C82.203 119.625 71.0313 118.145 71.0653 117.697C71.2485 115.193 71.6422 112.709 72.2327 110.265C76.3864 109.166 80.6352 109.078 84.9111 108.704C87.3544 108.494 89.8182 108.161 92.2547 107.971C92.1801 106.288 92.0986 104.605 92.024 102.922L104.03 96.9897V96.9965Z" fill="#EDBA8C"/>
<path opacity="0.15" fill-rule="evenodd" clip-rule="evenodd" d="M31.6796 99.3721L45.3489 104.673C45.0775 105.915 44.7992 107.157 44.5209 108.399C43.6589 108.474 42.797 108.508 41.935 108.514C37.9442 108.548 33.9465 108.223 30.0032 107.571C30.3154 104.795 30.8652 102.046 31.6729 99.3721H31.6796Z" fill="#561C2F"/>
<path opacity="0.15" fill-rule="evenodd" clip-rule="evenodd" d="M92.1668 106.119C92.1192 105.053 92.0717 103.987 92.0174 102.929L104.024 96.9966C104.838 99.0192 105.524 101.089 106.087 103.2C101.703 105.399 96.8974 106.661 92.1668 106.125V106.119Z" fill="#561C2F"/>
<path fill-rule="evenodd" clip-rule="evenodd" d="M47.2764 97.8315C43.6792 96.7863 35.2156 94.2683 31.5506 92.7548C30.5732 92.3475 29.4601 92.843 29.0869 93.8271C28.5099 95.3475 28.1502 96.6506 27.9398 97.5533C27.7498 98.3474 28.0959 99.1686 28.8018 99.5894C31.4963 101.191 38.6432 104.944 45.9868 104.578C46.8013 104.537 47.514 103.994 47.7379 103.207C48.118 101.863 48.3895 100.825 48.566 100.051C48.7967 99.0804 48.2266 98.1098 47.2696 97.8315H47.2764Z" fill="#CA4040"/>
<path fill-rule="evenodd" clip-rule="evenodd" d="M104.533 91.2274L106.08 94.3359C106.488 95.1504 106.352 96.1277 105.727 96.7929C103.766 98.8765 98.9267 103.078 91.298 103.668C90.246 103.75 89.289 103.057 89.0175 102.039C88.5695 100.349 88.2438 99.148 88.013 98.2996C87.7076 97.1933 88.3048 96.0463 89.3908 95.6662C92.4246 94.6006 98.2684 92.422 101.404 90.3722C102.49 89.6596 103.956 90.0668 104.533 91.2342V91.2274Z" fill="#CA4040"/>
<path opacity="0.3" fill-rule="evenodd" clip-rule="evenodd" d="M47.2764 97.8315C43.6792 96.7863 35.2156 94.2683 31.5506 92.7548C30.5732 92.3475 29.4601 92.843 29.0869 93.8271C28.5099 95.3475 28.1502 96.6506 27.9398 97.5533C27.7498 98.3474 28.0959 99.1686 28.8018 99.5894C31.4963 101.191 38.6432 104.944 45.9868 104.578C46.8013 104.537 47.514 103.994 47.7379 103.207C48.118 101.863 48.3895 100.825 48.566 100.051C48.7967 99.0804 48.2266 98.1098 47.2696 97.8315H47.2764Z" fill="#CB2E45"/>
<path opacity="0.3" fill-rule="evenodd" clip-rule="evenodd" d="M104.533 91.2274L106.08 94.3359C106.488 95.1504 106.352 96.1277 105.727 96.7929C103.766 98.8765 98.9267 103.078 91.298 103.668C90.246 103.75 89.289 103.057 89.0175 102.039C88.5695 100.349 88.2438 99.148 88.013 98.2996C87.7076 97.1933 88.3048 96.0463 89.3908 95.6662C92.4246 94.6006 98.2684 92.422 101.404 90.3722C102.49 89.6596 103.956 90.0668 104.533 91.2342V91.2274Z" fill="#CB2E45"/>
<path opacity="0.3" fill-rule="evenodd" clip-rule="evenodd" d="M69.1852 34.5006C68.9952 32.417 68.9612 30.313 69.0834 28.2225C69.1445 27.1977 69.2395 26.1728 69.3753 25.1547C69.4703 24.4081 69.4703 23.4036 69.7757 22.7046C70.1897 21.7544 71.6218 21.6526 71.9069 22.7181C72.1376 23.5665 71.8051 24.5167 71.7168 25.3651C71.5743 26.8447 71.3707 28.3175 71.3028 29.7971C71.2689 30.5166 71.2689 31.2292 71.3164 31.9487C71.3435 32.3898 71.1942 33.245 71.5268 33.5844C71.71 33.7676 72.0222 33.8219 72.2394 33.6794C72.4091 33.5708 72.4906 33.3672 72.6331 33.2246C72.8774 32.9667 73.2914 32.9056 73.624 33.0346C74.3502 33.3264 74.262 33.9305 74.1195 34.5617C73.9091 35.4712 73.4611 36.3264 72.8028 36.9983C72.4566 37.3512 72.0358 37.6566 71.5472 37.7177C70.8074 37.8128 70.0879 37.3037 69.7214 36.6589C69.3481 36.0074 69.2599 35.2472 69.192 34.5006H69.1852Z" fill="#CB2E45"/>
</g>
</g>
<path d="M168.304 15.6871C152.749 16.1081 136.962 26.0836 121.6 36.9484L151.939 53.4226C151.626 34.5145 156.408 27.8994 168.304 15.6871Z" fill="white"/>
<rect x="144.099" width="199.901" height="104" rx="16" fill="white"/>
<path d="M171.934 26.3679H165.818L164.806 29.2939H161.572L167.094 13.9159H170.68L176.202 29.2939H172.946L171.934 26.3679ZM171.098 23.9039L168.876 17.4799L166.654 23.9039H171.098ZM184.69 16.9299C185.614 16.9299 186.435 17.1353 187.154 17.5459C187.873 17.9419 188.43 18.5359 188.826 19.3279C189.237 20.1053 189.442 21.0439 189.442 22.1439V29.2939H186.362V22.5619C186.362 21.5939 186.12 20.8533 185.636 20.3399C185.152 19.8119 184.492 19.5479 183.656 19.5479C182.805 19.5479 182.131 19.8119 181.632 20.3399C181.148 20.8533 180.906 21.5939 180.906 22.5619V29.2939H177.826V13.0139H180.906V18.6239C181.302 18.0959 181.83 17.6853 182.49 17.3919C183.15 17.0839 183.883 16.9299 184.69 16.9299ZM197.343 29.4919C196.17 29.4919 195.114 29.2353 194.175 28.7219C193.236 28.1939 192.496 27.4533 191.953 26.4999C191.425 25.5466 191.161 24.4466 191.161 23.1999C191.161 21.9533 191.432 20.8533 191.975 19.8999C192.532 18.9466 193.288 18.2133 194.241 17.6999C195.194 17.1719 196.258 16.9079 197.431 16.9079C198.604 16.9079 199.668 17.1719 200.621 17.6999C201.574 18.2133 202.322 18.9466 202.865 19.8999C203.422 20.8533 203.701 21.9533 203.701 23.1999C203.701 24.4466 203.415 25.5466 202.843 26.4999C202.286 27.4533 201.523 28.1939 200.555 28.7219C199.602 29.2353 198.531 29.4919 197.343 29.4919ZM197.343 26.8079C197.9 26.8079 198.421 26.6759 198.905 26.4119C199.404 26.1333 199.8 25.7226 200.093 25.1799C200.386 24.6373 200.533 23.9773 200.533 23.1999C200.533 22.0413 200.225 21.1539 199.609 20.5379C199.008 19.9073 198.267 19.5919 197.387 19.5919C196.507 19.5919 195.766 19.9073 195.165 20.5379C194.578 21.1539 194.285 22.0413 194.285 23.1999C194.285 24.3586 194.571 25.2533 195.143 25.8839C195.73 26.4999 196.463 26.8079 197.343 26.8079ZM208.6 18.9979C208.996 18.3526 209.51 17.8466 210.14 17.4799C210.786 17.1133 211.519 16.9299 212.34 16.9299V20.1639H211.526C210.558 20.1639 209.825 20.3913 209.326 20.8459C208.842 21.3006 208.6 22.0926 208.6 23.2219V29.2939H205.52V17.1059H208.6V18.9979ZM213.183 23.1559C213.183 21.9239 213.425 20.8313 213.909 19.8779C214.407 18.9246 215.075 18.1913 215.911 17.6779C216.761 17.1646 217.707 16.9079 218.749 16.9079C219.658 16.9079 220.45 17.0913 221.125 17.4579C221.814 17.8246 222.364 18.2866 222.775 18.8439V17.1059H225.877V29.2939H222.775V27.5119C222.379 28.0839 221.829 28.5606 221.125 28.9419C220.435 29.3086 219.636 29.4919 218.727 29.4919C217.7 29.4919 216.761 29.2279 215.911 28.6999C215.075 28.1719 214.407 27.4313 213.909 26.4779C213.425 25.5099 213.183 24.4026 213.183 23.1559ZM222.775 23.1999C222.775 22.4519 222.628 21.8139 222.335 21.2859C222.041 20.7433 221.645 20.3326 221.147 20.0539C220.648 19.7606 220.113 19.6139 219.541 19.6139C218.969 19.6139 218.441 19.7533 217.957 20.0319C217.473 20.3106 217.077 20.7213 216.769 21.2639C216.475 21.7919 216.329 22.4226 216.329 23.1559C216.329 23.8893 216.475 24.5346 216.769 25.0919C217.077 25.6346 217.473 26.0526 217.957 26.3459C218.455 26.6393 218.983 26.7859 219.541 26.7859C220.113 26.7859 220.648 26.6466 221.147 26.3679C221.645 26.0746 222.041 25.6639 222.335 25.1359C222.628 24.5933 222.775 23.9479 222.775 23.1999ZM167.182 58.4919C166.185 58.4919 165.29 58.3159 164.498 57.9639C163.706 57.5973 163.075 57.1059 162.606 56.4899C162.151 55.8739 161.902 55.1919 161.858 54.4439H164.96C165.019 54.9133 165.246 55.3019 165.642 55.6099C166.053 55.9179 166.559 56.0719 167.16 56.0719C167.747 56.0719 168.201 55.9546 168.524 55.7199C168.861 55.4853 169.03 55.1846 169.03 54.8179C169.03 54.4219 168.825 54.1286 168.414 53.9379C168.018 53.7326 167.38 53.5126 166.5 53.2779C165.591 53.0579 164.843 52.8306 164.256 52.5959C163.684 52.3613 163.185 52.0019 162.76 51.5179C162.349 51.0339 162.144 50.3813 162.144 49.5599C162.144 48.8853 162.335 48.2693 162.716 47.7119C163.112 47.1546 163.669 46.7146 164.388 46.3919C165.121 46.0693 165.979 45.9079 166.962 45.9079C168.414 45.9079 169.573 46.2746 170.438 47.0079C171.303 47.7266 171.78 48.7019 171.868 49.9339H168.92C168.876 49.4499 168.671 49.0686 168.304 48.7899C167.952 48.4966 167.475 48.3499 166.874 48.3499C166.317 48.3499 165.884 48.4526 165.576 48.6579C165.283 48.8633 165.136 49.1493 165.136 49.5159C165.136 49.9266 165.341 50.2419 165.752 50.4619C166.163 50.6673 166.801 50.8799 167.666 51.0999C168.546 51.3199 169.272 51.5473 169.844 51.7819C170.416 52.0166 170.907 52.3833 171.318 52.8819C171.743 53.3659 171.963 54.0113 171.978 54.8179C171.978 55.5219 171.78 56.1526 171.384 56.7099C171.003 57.2673 170.445 57.7073 169.712 58.0299C168.993 58.3379 168.15 58.4919 167.182 58.4919ZM185.396 51.9359C185.396 52.3759 185.367 52.7719 185.308 53.1239H176.398C176.472 54.0039 176.78 54.6933 177.322 55.1919C177.865 55.6906 178.532 55.9399 179.324 55.9399C180.468 55.9399 181.282 55.4486 181.766 54.4659H185.088C184.736 55.6393 184.062 56.6073 183.064 57.3699C182.067 58.1179 180.842 58.4919 179.39 58.4919C178.217 58.4919 177.161 58.2353 176.222 57.7219C175.298 57.1939 174.572 56.4533 174.044 55.4999C173.531 54.5466 173.274 53.4466 173.274 52.1999C173.274 50.9386 173.531 49.8313 174.044 48.8779C174.558 47.9246 175.276 47.1913 176.2 46.6779C177.124 46.1646 178.188 45.9079 179.39 45.9079C180.549 45.9079 181.583 46.1573 182.492 46.6559C183.416 47.1546 184.128 47.8659 184.626 48.7899C185.14 49.6993 185.396 50.7479 185.396 51.9359ZM182.206 51.0559C182.192 50.2639 181.906 49.6333 181.348 49.1639C180.791 48.6799 180.109 48.4379 179.302 48.4379C178.54 48.4379 177.894 48.6726 177.366 49.1419C176.853 49.5966 176.538 50.2346 176.42 51.0559H182.206ZM190.284 42.0139V58.2939H187.204V42.0139H190.284ZM204.217 51.9359C204.217 52.3759 204.188 52.7719 204.129 53.1239H195.219C195.293 54.0039 195.601 54.6933 196.143 55.1919C196.686 55.6906 197.353 55.9399 198.145 55.9399C199.289 55.9399 200.103 55.4486 200.587 54.4659H203.909C203.557 55.6393 202.883 56.6073 201.885 57.3699C200.888 58.1179 199.663 58.4919 198.211 58.4919C197.038 58.4919 195.982 58.2353 195.043 57.7219C194.119 57.1939 193.393 56.4533 192.865 55.4999C192.352 54.5466 192.095 53.4466 192.095 52.1999C192.095 50.9386 192.352 49.8313 192.865 48.8779C193.379 47.9246 194.097 47.1913 195.021 46.6779C195.945 46.1646 197.009 45.9079 198.211 45.9079C199.37 45.9079 200.404 46.1573 201.313 46.6559C202.237 47.1546 202.949 47.8659 203.447 48.7899C203.961 49.6993 204.217 50.7479 204.217 51.9359ZM201.027 51.0559C201.013 50.2639 200.727 49.6333 200.169 49.1639C199.612 48.6799 198.93 48.4379 198.123 48.4379C197.361 48.4379 196.715 48.6726 196.187 49.1419C195.674 49.5966 195.359 50.2346 195.241 51.0559H201.027ZM205.234 52.1999C205.234 50.9386 205.49 49.8386 206.004 48.8999C206.517 47.9466 207.228 47.2133 208.138 46.6999C209.047 46.1719 210.088 45.9079 211.262 45.9079C212.772 45.9079 214.019 46.2893 215.002 47.0519C215.999 47.7999 216.666 48.8559 217.004 50.2199H213.682C213.506 49.6919 213.205 49.2813 212.78 48.9879C212.369 48.6799 211.856 48.5259 211.24 48.5259C210.36 48.5259 209.663 48.8486 209.15 49.4939C208.636 50.1246 208.38 51.0266 208.38 52.1999C208.38 53.3586 208.636 54.2606 209.15 54.9059C209.663 55.5366 210.36 55.8519 211.24 55.8519C212.486 55.8519 213.3 55.2946 213.682 54.1799H217.004C216.666 55.4999 215.999 56.5486 215.002 57.3259C214.004 58.1033 212.758 58.4919 211.262 58.4919C210.088 58.4919 209.047 58.2353 208.138 57.7219C207.228 57.1939 206.517 56.4606 206.004 55.5219C205.49 54.5686 205.234 53.4613 205.234 52.1999ZM218.028 52.1999C218.028 50.9386 218.285 49.8386 218.798 48.8999C219.311 47.9466 220.023 47.2133 220.932 46.6999C221.841 46.1719 222.883 45.9079 224.056 45.9079C225.567 45.9079 226.813 46.2893 227.796 47.0519C228.793 47.7999 229.461 48.8559 229.798 50.2199H226.476C226.3 49.6919 225.999 49.2813 225.574 48.9879C225.163 48.6799 224.65 48.5259 224.034 48.5259C223.154 48.5259 222.457 48.8486 221.944 49.4939C221.431 50.1246 221.174 51.0266 221.174 52.1999C221.174 53.3586 221.431 54.2606 221.944 54.9059C222.457 55.5366 223.154 55.8519 224.034 55.8519C225.281 55.8519 226.095 55.2946 226.476 54.1799H229.798C229.461 55.4999 228.793 56.5486 227.796 57.3259C226.799 58.1033 225.552 58.4919 224.056 58.4919C222.883 58.4919 221.841 58.2353 220.932 57.7219C220.023 57.1939 219.311 56.4606 218.798 55.5219C218.285 54.5686 218.028 53.4613 218.028 52.1999ZM233.176 44.6539C232.634 44.6539 232.179 44.4853 231.812 44.1479C231.46 43.7959 231.284 43.3633 231.284 42.8499C231.284 42.3366 231.46 41.9113 231.812 41.5739C232.179 41.2219 232.634 41.0459 233.176 41.0459C233.719 41.0459 234.166 41.2219 234.518 41.5739C234.885 41.9113 235.068 42.3366 235.068 42.8499C235.068 43.3633 234.885 43.7959 234.518 44.1479C234.166 44.4853 233.719 44.6539 233.176 44.6539ZM234.694 46.1059V58.2939H231.614V46.1059H234.694ZM242.709 58.4919C241.536 58.4919 240.48 58.2353 239.541 57.7219C238.603 57.1939 237.862 56.4533 237.319 55.4999C236.791 54.5466 236.527 53.4466 236.527 52.1999C236.527 50.9533 236.799 49.8533 237.341 48.8999C237.899 47.9466 238.654 47.2133 239.607 46.6999C240.561 46.1719 241.624 45.9079 242.797 45.9079C243.971 45.9079 245.034 46.1719 245.987 46.6999C246.941 47.2133 247.689 47.9466 248.231 48.8999C248.789 49.8533 249.067 50.9533 249.067 52.1999C249.067 53.4466 248.781 54.5466 248.209 55.4999C247.652 56.4533 246.889 57.1939 245.921 57.7219C244.968 58.2353 243.897 58.4919 242.709 58.4919ZM242.709 55.8079C243.267 55.8079 243.787 55.6759 244.271 55.4119C244.77 55.1333 245.166 54.7226 245.459 54.1799C245.753 53.6373 245.899 52.9773 245.899 52.1999C245.899 51.0413 245.591 50.1539 244.975 49.5379C244.374 48.9073 243.633 48.5919 242.753 48.5919C241.873 48.5919 241.133 48.9073 240.531 49.5379C239.945 50.1539 239.651 51.0413 239.651 52.1999C239.651 53.3586 239.937 54.2533 240.509 54.8839C241.096 55.4999 241.829 55.8079 242.709 55.8079ZM257.641 45.9299C259.093 45.9299 260.266 46.3919 261.161 47.3159C262.055 48.2253 262.503 49.5013 262.503 51.1439V58.2939H259.423V51.5619C259.423 50.5939 259.181 49.8533 258.697 49.3399C258.213 48.8119 257.553 48.5479 256.717 48.5479C255.866 48.5479 255.191 48.8119 254.693 49.3399C254.209 49.8533 253.967 50.5939 253.967 51.5619V58.2939H250.887V46.1059H253.967V47.6239C254.377 47.0959 254.898 46.6853 255.529 46.3919C256.174 46.0839 256.878 45.9299 257.641 45.9299ZM264.2 52.1559C264.2 50.9239 264.442 49.8313 264.926 48.8779C265.424 47.9246 266.092 47.1913 266.928 46.6779C267.778 46.1646 268.724 45.9079 269.766 45.9079C270.675 45.9079 271.467 46.0913 272.142 46.4579C272.831 46.8246 273.381 47.2866 273.792 47.8439V46.1059H276.894V58.2939H273.792V56.5119C273.396 57.0839 272.846 57.5606 272.142 57.9419C271.452 58.3086 270.653 58.4919 269.744 58.4919C268.717 58.4919 267.778 58.2279 266.928 57.6999C266.092 57.1719 265.424 56.4313 264.926 55.4779C264.442 54.5099 264.2 53.4026 264.2 52.1559ZM273.792 52.1999C273.792 51.4519 273.645 50.8139 273.352 50.2859C273.058 49.7433 272.662 49.3326 272.164 49.0539C271.665 48.7606 271.13 48.6139 270.558 48.6139C269.986 48.6139 269.458 48.7533 268.974 49.0319C268.49 49.3106 268.094 49.7213 267.786 50.2639C267.492 50.7919 267.346 51.4226 267.346 52.1559C267.346 52.8893 267.492 53.5346 267.786 54.0919C268.094 54.6346 268.49 55.0526 268.974 55.3459C269.472 55.6393 270 55.7859 270.558 55.7859C271.13 55.7859 271.665 55.6466 272.164 55.3679C272.662 55.0746 273.058 54.6639 273.352 54.1359C273.645 53.5933 273.792 52.9479 273.792 52.1999ZM161.726 81.1559C161.726 79.9239 161.968 78.8313 162.452 77.8779C162.951 76.9246 163.625 76.1913 164.476 75.6779C165.327 75.1646 166.273 74.9079 167.314 74.9079C168.106 74.9079 168.861 75.0839 169.58 75.4359C170.299 75.7733 170.871 76.2279 171.296 76.7999V71.0139H174.42V87.2939H171.296V85.4899C170.915 86.0913 170.379 86.5753 169.69 86.9419C169.001 87.3086 168.201 87.4919 167.292 87.4919C166.265 87.4919 165.327 87.2279 164.476 86.6999C163.625 86.1719 162.951 85.4313 162.452 84.4779C161.968 83.5099 161.726 82.4026 161.726 81.1559ZM171.318 81.1999C171.318 80.4519 171.171 79.8139 170.878 79.2859C170.585 78.7433 170.189 78.3326 169.69 78.0539C169.191 77.7606 168.656 77.6139 168.084 77.6139C167.512 77.6139 166.984 77.7533 166.5 78.0319C166.016 78.3106 165.62 78.7213 165.312 79.2639C165.019 79.7919 164.872 80.4226 164.872 81.1559C164.872 81.8893 165.019 82.5346 165.312 83.0919C165.62 83.6346 166.016 84.0526 166.5 84.3459C166.999 84.6393 167.527 84.7859 168.084 84.7859C168.656 84.7859 169.191 84.6466 169.69 84.3679C170.189 84.0746 170.585 83.6639 170.878 83.1359C171.171 82.5933 171.318 81.9479 171.318 81.1999ZM188.318 80.9359C188.318 81.3759 188.289 81.7719 188.23 82.1239H179.32C179.393 83.0039 179.701 83.6933 180.244 84.1919C180.787 84.6906 181.454 84.9399 182.246 84.9399C183.39 84.9399 184.204 84.4486 184.688 83.4659H188.01C187.658 84.6393 186.983 85.6073 185.986 86.3699C184.989 87.1179 183.764 87.4919 182.312 87.4919C181.139 87.4919 180.083 87.2353 179.144 86.7219C178.22 86.1939 177.494 85.4533 176.966 84.4999C176.453 83.5466 176.196 82.4466 176.196 81.1999C176.196 79.9386 176.453 78.8313 176.966 77.8779C177.479 76.9246 178.198 76.1913 179.122 75.6779C180.046 75.1646 181.109 74.9079 182.312 74.9079C183.471 74.9079 184.505 75.1573 185.414 75.6559C186.338 76.1546 187.049 76.8659 187.548 77.7899C188.061 78.6993 188.318 79.7479 188.318 80.9359ZM185.128 80.0559C185.113 79.2639 184.827 78.6333 184.27 78.1639C183.713 77.6799 183.031 77.4379 182.224 77.4379C181.461 77.4379 180.816 77.6726 180.288 78.1419C179.775 78.5966 179.459 79.2346 179.342 80.0559H185.128ZM193.206 76.8659C193.602 76.3086 194.145 75.8466 194.834 75.4799C195.538 75.0986 196.338 74.9079 197.232 74.9079C198.274 74.9079 199.212 75.1646 200.048 75.6779C200.899 76.1913 201.566 76.9246 202.05 77.8779C202.549 78.8166 202.798 79.9093 202.798 81.1559C202.798 82.4026 202.549 83.5099 202.05 84.4779C201.566 85.4313 200.899 86.1719 200.048 86.6999C199.212 87.2279 198.274 87.4919 197.232 87.4919C196.338 87.4919 195.546 87.3086 194.856 86.9419C194.182 86.5753 193.632 86.1133 193.206 85.5559V93.1019H190.126V75.1059H193.206V76.8659ZM199.652 81.1559C199.652 80.4226 199.498 79.7919 199.19 79.2639C198.897 78.7213 198.501 78.3106 198.002 78.0319C197.518 77.7533 196.99 77.6139 196.418 77.6139C195.861 77.6139 195.333 77.7606 194.834 78.0539C194.35 78.3326 193.954 78.7433 193.646 79.2859C193.353 79.8286 193.206 80.4666 193.206 81.1999C193.206 81.9333 193.353 82.5713 193.646 83.1139C193.954 83.6566 194.35 84.0746 194.834 84.3679C195.333 84.6466 195.861 84.7859 196.418 84.7859C196.99 84.7859 197.518 84.6393 198.002 84.3459C198.501 84.0526 198.897 83.6346 199.19 83.0919C199.498 82.5493 199.652 81.9039 199.652 81.1559ZM203.804 81.1559C203.804 79.9239 204.046 78.8313 204.53 77.8779C205.029 76.9246 205.696 76.1913 206.532 75.6779C207.383 75.1646 208.329 74.9079 209.37 74.9079C210.28 74.9079 211.072 75.0913 211.746 75.4579C212.436 75.8246 212.986 76.2866 213.396 76.8439V75.1059H216.498V87.2939H213.396V85.5119C213 86.0839 212.45 86.5606 211.746 86.9419C211.057 87.3086 210.258 87.4919 209.348 87.4919C208.322 87.4919 207.383 87.2279 206.532 86.6999C205.696 86.1719 205.029 85.4313 204.53 84.4779C204.046 83.5099 203.804 82.4026 203.804 81.1559ZM213.396 81.1999C213.396 80.4519 213.25 79.8139 212.956 79.2859C212.663 78.7433 212.267 78.3326 211.768 78.0539C211.27 77.7606 210.734 77.6139 210.162 77.6139C209.59 77.6139 209.062 77.7533 208.578 78.0319C208.094 78.3106 207.698 78.7213 207.39 79.2639C207.097 79.7919 206.95 80.4226 206.95 81.1559C206.95 81.8893 207.097 82.5346 207.39 83.0919C207.698 83.6346 208.094 84.0526 208.578 84.3459C209.077 84.6393 209.605 84.7859 210.162 84.7859C210.734 84.7859 211.27 84.6466 211.768 84.3679C212.267 84.0746 212.663 83.6639 212.956 83.1359C213.25 82.5933 213.396 81.9479 213.396 81.1999ZM222.147 76.9979C222.543 76.3526 223.056 75.8466 223.687 75.4799C224.332 75.1133 225.065 74.9299 225.887 74.9299V78.1639H225.073C224.105 78.1639 223.371 78.3913 222.873 78.8459C222.389 79.3006 222.147 80.0926 222.147 81.2219V87.2939H219.067V75.1059H222.147V76.9979ZM231.107 77.6359V83.5319C231.107 83.9426 231.202 84.2433 231.393 84.4339C231.598 84.6099 231.936 84.6979 232.405 84.6979H233.835V87.2939H231.899C229.303 87.2939 228.005 86.0326 228.005 83.5099V77.6359H226.553V75.1059H228.005V72.0919H231.107V75.1059H233.835V77.6359H231.107ZM234.818 81.1559C234.818 79.9239 235.06 78.8313 235.544 77.8779C236.043 76.9246 236.71 76.1913 237.546 75.6779C238.397 75.1646 239.343 74.9079 240.384 74.9079C241.294 74.9079 242.086 75.0913 242.76 75.4579C243.45 75.8246 244 76.2866 244.41 76.8439V75.1059H247.512V87.2939H244.41V85.5119C244.014 86.0839 243.464 86.5606 242.76 86.9419C242.071 87.3086 241.272 87.4919 240.362 87.4919C239.336 87.4919 238.397 87.2279 237.546 86.6999C236.71 86.1719 236.043 85.4313 235.544 84.4779C235.06 83.5099 234.818 82.4026 234.818 81.1559ZM244.41 81.1999C244.41 80.4519 244.264 79.8139 243.97 79.2859C243.677 78.7433 243.281 78.3326 242.782 78.0539C242.284 77.7606 241.748 77.6139 241.176 77.6139C240.604 77.6139 240.076 77.7533 239.592 78.0319C239.108 78.3106 238.712 78.7213 238.404 79.2639C238.111 79.7919 237.964 80.4226 237.964 81.1559C237.964 81.8893 238.111 82.5346 238.404 83.0919C238.712 83.6346 239.108 84.0526 239.592 84.3459C240.091 84.6393 240.619 84.7859 241.176 84.7859C241.748 84.7859 242.284 84.6466 242.782 84.3679C243.281 84.0746 243.677 83.6639 243.97 83.1359C244.264 82.5933 244.41 81.9479 244.41 81.1999ZM265.217 74.9299C266.713 74.9299 267.915 75.3919 268.825 76.3159C269.749 77.2253 270.211 78.5013 270.211 80.1439V87.2939H267.131V80.5619C267.131 79.6086 266.889 78.8826 266.405 78.3839C265.921 77.8706 265.261 77.6139 264.425 77.6139C263.589 77.6139 262.921 77.8706 262.423 78.3839C261.939 78.8826 261.697 79.6086 261.697 80.5619V87.2939H258.617V80.5619C258.617 79.6086 258.375 78.8826 257.891 78.3839C257.407 77.8706 256.747 77.6139 255.911 77.6139C255.06 77.6139 254.385 77.8706 253.887 78.3839C253.403 78.8826 253.161 79.6086 253.161 80.5619V87.2939H250.081V75.1059H253.161V76.5799C253.557 76.0666 254.063 75.6633 254.679 75.3699C255.309 75.0766 255.999 74.9299 256.747 74.9299C257.7 74.9299 258.551 75.1353 259.299 75.5459C260.047 75.9419 260.626 76.5139 261.037 77.2619C261.433 76.5579 262.005 75.9933 262.753 75.5679C263.515 75.1426 264.337 74.9299 265.217 74.9299ZM284.023 80.9359C284.023 81.3759 283.994 81.7719 283.935 82.1239H275.025C275.099 83.0039 275.407 83.6933 275.949 84.1919C276.492 84.6906 277.159 84.9399 277.951 84.9399C279.095 84.9399 279.909 84.4486 280.393 83.4659H283.715C283.363 84.6393 282.689 85.6073 281.691 86.3699C280.694 87.1179 279.469 87.4919 278.017 87.4919C276.844 87.4919 275.788 87.2353 274.849 86.7219C273.925 86.1939 273.199 85.4533 272.671 84.4999C272.158 83.5466 271.901 82.4466 271.901 81.1999C271.901 79.9386 272.158 78.8313 272.671 77.8779C273.185 76.9246 273.903 76.1913 274.827 75.6779C275.751 75.1646 276.815 74.9079 278.017 74.9079C279.176 74.9079 280.21 75.1573 281.119 75.6559C282.043 76.1546 282.755 76.8659 283.253 77.7899C283.767 78.6993 284.023 79.7479 284.023 80.9359ZM280.833 80.0559C280.819 79.2639 280.533 78.6333 279.975 78.1639C279.418 77.6799 278.736 77.4379 277.929 77.4379C277.167 77.4379 276.521 77.6726 275.993 78.1419C275.48 78.5966 275.165 79.2346 275.047 80.0559H280.833ZM292.585 74.9299C294.037 74.9299 295.211 75.3919 296.105 76.3159C297 77.2253 297.447 78.5013 297.447 80.1439V87.2939H294.367V80.5619C294.367 79.5939 294.125 78.8533 293.641 78.3399C293.157 77.8119 292.497 77.5479 291.661 77.5479C290.811 77.5479 290.136 77.8119 289.637 78.3399C289.153 78.8533 288.911 79.5939 288.911 80.5619V87.2939H285.831V75.1059H288.911V76.6239C289.322 76.0959 289.843 75.6853 290.473 75.3919C291.119 75.0839 291.823 74.9299 292.585 74.9299ZM303.522 77.6359V83.5319C303.522 83.9426 303.618 84.2433 303.808 84.4339C304.014 84.6099 304.351 84.6979 304.82 84.6979H306.25V87.2939H304.314C301.718 87.2939 300.42 86.0326 300.42 83.5099V77.6359H298.968V75.1059H300.42V72.0919H303.522V75.1059H306.25V77.6359H303.522ZM313.438 87.4919C312.264 87.4919 311.208 87.2353 310.27 86.7219C309.331 86.1939 308.59 85.4533 308.048 84.4999C307.52 83.5466 307.256 82.4466 307.256 81.1999C307.256 79.9533 307.527 78.8533 308.07 77.8999C308.627 76.9466 309.382 76.2133 310.336 75.6999C311.289 75.1719 312.352 74.9079 313.526 74.9079C314.699 74.9079 315.762 75.1719 316.716 75.6999C317.669 76.2133 318.417 76.9466 318.96 77.8999C319.517 78.8533 319.796 79.9533 319.796 81.1999C319.796 82.4466 319.51 83.5466 318.938 84.4999C318.38 85.4533 317.618 86.1939 316.65 86.7219C315.696 87.2353 314.626 87.4919 313.438 87.4919ZM313.438 84.8079C313.995 84.8079 314.516 84.6759 315 84.4119C315.498 84.1333 315.894 83.7226 316.188 83.1799C316.481 82.6373 316.628 81.9773 316.628 81.1999C316.628 80.0413 316.32 79.1539 315.704 78.5379C315.102 77.9073 314.362 77.5919 313.482 77.5919C312.602 77.5919 311.861 77.9073 311.26 78.5379C310.673 79.1539 310.38 80.0413 310.38 81.1999C310.38 82.3586 310.666 83.2533 311.238 83.8839C311.824 84.4999 312.558 84.8079 313.438 84.8079Z" fill="#8F3B06"/>
<defs>
<filter id="filter0_d_3586_6443" x="12.8809" y="0" width="106.238" height="257.697" filterUnits="userSpaceOnUse" color-interpolation-filters="sRGB">
<feFlood flood-opacity="0" result="BackgroundImageFix"/>
<feColorMatrix in="SourceAlpha" type="matrix" values="0 0 0 0 0 0 0 0 0 0 0 0 0 0 0 0 0 0 127 0" result="hardAlpha"/>
<feOffset dy="3.11898"/>
<feGaussianBlur stdDeviation="1.55949"/>
<feComposite in2="hardAlpha" operator="out"/>
<feColorMatrix type="matrix" values="0 0 0 0 0 0 0 0 0 0 0 0 0 0 0 0 0 0 0.25 0"/>
<feBlend mode="normal" in2="BackgroundImageFix" result="effect1_dropShadow_3586_6443"/>
<feBlend mode="normal" in="SourceGraphic" in2="effect1_dropShadow_3586_6443" result="shape"/>
</filter>
<clipPath id="clip0_3586_6443">
<rect width="100" height="104" fill="white" transform="matrix(-1 0 0 1 116 0)"/>
</clipPath>
</defs>
</svg>
