<svg width="33" height="37" viewBox="0 0 33 37" fill="none" xmlns="http://www.w3.org/2000/svg">
<path d="M14.0001 36.6667C9.52786 32.8611 6.18758 29.3264 3.97925 26.0625C1.77091 22.7986 0.666748 19.7778 0.666748 17C0.666748 12.8333 2.00703 9.51389 4.68758 7.04167C7.36814 4.56944 10.4723 3.33333 14.0001 3.33333H14.8334C15.1112 3.33333 15.389 3.36111 15.6667 3.41667V6.79167C15.389 6.73611 15.1181 6.70139 14.8542 6.6875C14.5904 6.67361 14.3056 6.66667 14.0001 6.66667C11.1945 6.66667 8.82647 7.63195 6.89591 9.5625C4.96536 11.4931 4.00008 13.9722 4.00008 17C4.00008 18.9722 4.81953 21.2292 6.45842 23.7708C8.0973 26.3125 10.6112 29.1389 14.0001 32.25C17.389 29.1389 19.9029 26.3125 21.5417 23.7708C23.1806 21.2292 24.0001 18.9722 24.0001 17V16.6667H27.3334V17C27.3334 19.7778 26.2292 22.7986 24.0209 26.0625C21.8126 29.3264 18.4723 32.8611 14.0001 36.6667ZM14.0001 20C14.9167 20 15.7015 19.6736 16.3542 19.0208C17.007 18.3681 17.3334 17.5833 17.3334 16.6667C17.3334 15.75 17.007 14.9653 16.3542 14.3125C15.7015 13.6597 14.9167 13.3333 14.0001 13.3333C13.0834 13.3333 12.2987 13.6597 11.6459 14.3125C10.9931 14.9653 10.6667 15.75 10.6667 16.6667C10.6667 17.5833 10.9931 18.3681 11.6459 19.0208C12.2987 19.6736 13.0834 20 14.0001 20ZM24.0001 13.3333H27.3334V8.33333H32.3334V5H27.3334V0H24.0001V5H19.0001V8.33333H24.0001V13.3333Z" fill="#146AAE"/>
</svg>
