<svg width="360" height="131" viewBox="0 0 360 131" fill="none" xmlns="http://www.w3.org/2000/svg">
<g clip-path="url(#clip0_3090_1056)">
<g filter="url(#filter0_d_3090_1056)">
<path fill-rule="evenodd" clip-rule="evenodd" d="M29.2634 97.2479C33.7361 86.083 37.9781 72.7191 44.6634 68.545C48.5999 66.0881 62.2285 64.4184 62.2285 64.4184H70.665C70.665 64.4184 85.1827 62.7963 89.4653 66.8143C92.9268 70.0654 104.75 94.1326 104.75 94.1326C104.75 94.1326 96.9244 102.372 89.4653 102.372C89.6825 112.363 89.7233 121.397 89.7233 121.397C89.7233 121.397 90.0151 122.734 90.4902 125.191C78.1308 126.222 61.2783 126.263 46.8692 122.625C47.1746 119.041 47.3647 116.883 47.385 116.659L52.2446 84.3319C52.2446 84.3319 49.1768 95.7343 46.9778 102.936C43.5435 102.936 31.9511 100.187 29.2634 97.2411V97.2479Z" fill="#F1D054"/>
<path fill-rule="evenodd" clip-rule="evenodd" d="M66.8576 70.1128H67.0137C69.6607 70.1128 71.8054 67.968 71.8054 65.321V50.2739H62.0591V65.321C62.0591 67.968 64.2038 70.1128 66.8508 70.1128H66.8576Z" fill="#EDBA8C"/>
<path opacity="0.25" fill-rule="evenodd" clip-rule="evenodd" d="M71.812 63.9027C68.5678 64.2488 65.2692 64.0995 62.0657 63.4547V56.3757C65.2896 56.8983 68.5474 57.163 71.812 57.1766V63.9027Z" fill="#561C2F" stroke="#EDBA8C" stroke-width="0.347756" stroke-miterlimit="22.93"/>
<path fill-rule="evenodd" clip-rule="evenodd" d="M84.7959 10.2773C84.7959 10.2773 84.2394 5.4924 82.1353 3.3816C80.0245 1.27759 66.4638 -1.34904 59.6156 0.802487C57.4641 3.06939 56.0863 7.54212 56.0863 7.54212L84.7959 10.2773Z" fill="#F1D054"/>
<path fill-rule="evenodd" clip-rule="evenodd" d="M31.184 18.8971C30.3899 27.6661 47.0388 36.3333 68.3708 38.2676C89.7028 40.2019 107.634 34.6568 108.429 25.8946C109.223 17.1256 92.5738 8.45846 71.2418 6.52412C49.9098 4.58978 31.9781 10.1349 31.184 18.8971Z" fill="#F1D054"/>
<mask id="mask0_3090_1056" style="mask-type:luminance" maskUnits="userSpaceOnUse" x="31" y="6" width="78" height="33">
<path d="M31.184 18.8971C30.3899 27.6661 47.0388 36.3333 68.3708 38.2676C89.7028 40.2019 107.634 34.6568 108.429 25.8946C109.223 17.1256 92.5738 8.45846 71.2418 6.52412C49.9098 4.58978 31.9781 10.1349 31.184 18.8971Z" fill="white"/>
</mask>
<g mask="url(#mask0_3090_1056)">
<path opacity="0.3" fill-rule="evenodd" clip-rule="evenodd" d="M31.184 18.8971C30.3899 27.6661 47.0388 36.3333 68.3708 38.2676C89.7028 40.2019 107.634 34.6568 108.429 25.8946C109.223 17.1256 92.5738 8.45846 71.2418 6.52412C49.9098 4.58978 31.9781 10.1349 31.184 18.8971Z" fill="#CB2E45"/>
</g>
<path fill-rule="evenodd" clip-rule="evenodd" d="M44.0459 33.5234C45.5391 36.5641 48.315 38.2541 50.2493 37.3039C52.1837 36.3537 52.5366 33.123 51.0434 30.0823C49.5503 27.0417 46.7743 25.3517 44.84 26.3019C42.9056 27.2521 42.5527 30.4828 44.0459 33.5234Z" fill="#EDBA8C"/>
<path fill-rule="evenodd" clip-rule="evenodd" d="M49.5433 40.1135L51.4166 22.4737C52.2853 14.2884 59.629 8.35641 67.8143 9.23195L74.9001 9.98532C83.0854 10.8541 89.0174 18.1978 88.1418 26.3831L86.2686 44.0229C85.3998 52.2082 78.0561 58.1401 69.8708 57.2646L62.7851 56.5112C54.5998 55.6425 48.6678 48.2988 49.5433 40.1135Z" fill="#EDBA8C"/>
<path fill-rule="evenodd" clip-rule="evenodd" d="M92.5332 38.4033C90.5106 41.1181 87.4768 42.2787 85.7461 40.9959C84.0153 39.7132 84.2529 36.4689 86.2755 33.7541C88.298 31.0392 91.3319 29.8786 93.0626 31.1614C94.7865 32.4441 94.5558 35.6884 92.5332 38.4033Z" fill="#EDBA8C"/>
<path fill-rule="evenodd" clip-rule="evenodd" d="M92.391 33.4758C89.7304 33.8084 88.7599 36.5911 88.0744 38.7969C87.959 39.1702 87.3685 39.0141 87.4839 38.634C88.2712 36.1092 89.4114 33.2383 92.391 32.865C92.7779 32.8175 92.7779 33.4215 92.391 33.4758Z" fill="#561C2F"/>
<path fill-rule="evenodd" clip-rule="evenodd" d="M90.9248 36.7607C90.3343 36.3603 89.7031 36.1024 89.004 35.9734C88.6171 35.8987 88.78 35.315 89.1669 35.3829C89.9135 35.5187 90.6058 35.8105 91.2302 36.2313C91.5492 36.4485 91.2505 36.9779 90.9248 36.7539V36.7607Z" fill="#561C2F"/>
<path fill-rule="evenodd" clip-rule="evenodd" d="M48.8986 35.9735C49.0344 33.1636 47.9756 30.5913 45.9055 28.6909C45.6137 28.4262 46.048 27.9918 46.3331 28.2633C48.5118 30.2723 49.6384 33.0211 49.5027 35.9803C49.4823 36.3739 48.8783 36.3739 48.8918 35.9803L48.8986 35.9735Z" fill="#561C2F"/>
<path fill-rule="evenodd" clip-rule="evenodd" d="M48.1725 31.9893C47.2902 32.0979 46.53 32.5458 45.9735 33.2245C45.7223 33.5299 45.2947 33.0956 45.5459 32.7969C46.211 31.9825 47.1341 31.5074 48.1725 31.3852C48.5594 31.3377 48.5594 31.9485 48.1725 31.996V31.9893Z" fill="#561C2F"/>
<path fill-rule="evenodd" clip-rule="evenodd" d="M88.1827 24.3266C86.3433 31.202 85.0674 40.3579 85.0674 40.3579C85.0674 40.3579 82.4339 39.7131 80.2485 38.5321C78.063 37.3512 71.4863 33.2042 62.5001 35.22C54.1383 37.0933 52.5773 37.0593 52.5773 37.0593C52.5773 37.0593 51.2538 25.1682 51.7085 19.9761C49.1362 30.3943 37.2519 59.1447 65.9208 61.7985C93.9042 63.8482 88.2777 39.4009 88.1894 24.3334L88.1827 24.3266Z" fill="#CB2E45"/>
<mask id="mask1_3090_1056" style="mask-type:luminance" maskUnits="userSpaceOnUse" x="47" y="19" width="42" height="43">
<path d="M88.1827 24.3266C86.3433 31.202 85.0674 40.3579 85.0674 40.3579C85.0674 40.3579 82.4339 39.7131 80.2485 38.5321C78.063 37.3512 71.4863 33.2042 62.5001 35.22C54.1383 37.0933 52.5773 37.0593 52.5773 37.0593C52.5773 37.0593 51.2538 25.1682 51.7085 19.9761C49.1362 30.3943 37.2519 59.1447 65.9208 61.7985C93.9042 63.8482 88.2777 39.4009 88.1894 24.3334L88.1827 24.3266Z" fill="white"/>
</mask>
<g mask="url(#mask1_3090_1056)">
<path opacity="0.3" fill-rule="evenodd" clip-rule="evenodd" d="M88.1827 24.3266C86.3433 31.202 85.0674 40.3579 85.0674 40.3579C85.0674 40.3579 82.4339 39.7131 80.2485 38.5321C78.063 37.3512 71.4863 33.2042 62.5001 35.22C54.1383 37.0933 52.5773 37.0593 52.5773 37.0593C52.5773 37.0593 51.2538 25.1682 51.7085 19.9761C49.1362 30.3943 37.2519 59.1447 65.9208 61.7985C93.9042 63.8482 88.2777 39.4009 88.1894 24.3334L88.1827 24.3266Z" fill="#561C2F"/>
</g>
<path fill-rule="evenodd" clip-rule="evenodd" d="M46.8692 122.618C46.9506 122.632 47.0389 122.645 47.1271 122.659L47.1474 121.824C58.5702 93.7254 50.9483 66.4207 50.9483 66.4207L56.3372 65.1583C56.3372 65.1583 60.1923 75.5766 59.4729 88.316C59.4729 88.316 73.8277 87.9631 82.5288 88.6554C82.3727 76.6693 80.4588 64.0859 80.4588 64.0859L86.1057 64.9275C86.1057 64.9275 91.1757 97.4923 89.4653 102.365L89.7232 121.39L90.239 123.955H90.2526C90.3748 124.58 90.5241 125.326 90.6802 126.168V126.182C93.5987 141.609 101.757 191.963 94.8339 241.244C83.4044 242.079 81.8298 241.224 81.8298 241.224C81.8298 241.224 79.2982 178.68 72.0698 145.579L50.1338 239.839L36.9803 238.556C36.9803 238.556 44.7719 147.106 46.8692 122.611V122.618Z" fill="#561C2F"/>
<mask id="mask2_3090_1056" style="mask-type:luminance" maskUnits="userSpaceOnUse" x="36" y="64" width="62" height="178">
<path d="M46.8692 122.618C46.9506 122.632 47.0389 122.645 47.1271 122.659L47.1474 121.824C58.5702 93.7254 50.9483 66.4207 50.9483 66.4207L56.3372 65.1583C56.3372 65.1583 60.1923 75.5766 59.4729 88.316C59.4729 88.316 73.8277 87.9631 82.5288 88.6554C82.3727 76.6693 80.4588 64.0859 80.4588 64.0859L86.1057 64.9275C86.1057 64.9275 91.1757 97.4923 89.4653 102.365L89.7232 121.39L90.239 123.955H90.2526C90.3748 124.58 90.5241 125.326 90.6802 126.168V126.182C93.5987 141.609 101.757 191.963 94.8339 241.244C83.4044 242.079 81.8298 241.224 81.8298 241.224C81.8298 241.224 79.2982 178.68 72.0698 145.579L50.1338 239.839L36.9803 238.556C36.9803 238.556 44.7719 147.106 46.8692 122.611V122.618Z" fill="white"/>
</mask>
<g mask="url(#mask2_3090_1056)">
<path opacity="0.3" fill-rule="evenodd" clip-rule="evenodd" d="M46.8692 122.618C46.9506 122.632 47.0389 122.645 47.1271 122.659L47.1474 121.824C58.5702 93.7254 50.9483 66.4207 50.9483 66.4207L56.3372 65.1583C56.3372 65.1583 60.1923 75.5766 59.4729 88.316C59.4729 88.316 73.8277 87.9631 82.5288 88.6554C82.3727 76.6693 80.4588 64.0859 80.4588 64.0859L86.1057 64.9275C86.1057 64.9275 91.1757 97.4923 89.4653 102.365L89.7232 121.39L90.239 123.955H90.2526C90.3748 124.58 90.5241 125.326 90.6802 126.168V126.182C93.5987 141.609 101.757 191.963 94.8339 241.244C83.4044 242.079 81.8298 241.224 81.8298 241.224C81.8298 241.224 79.2982 178.68 72.0698 145.579L50.1338 239.839L36.9803 238.556C36.9803 238.556 44.7719 147.106 46.8692 122.611V122.618Z" fill="#561C2F"/>
</g>
<path fill-rule="evenodd" clip-rule="evenodd" d="M69.1854 34.5006C68.9953 32.417 68.9614 30.313 69.0836 28.2225C69.1447 27.1977 69.2397 26.1728 69.3754 25.1547C69.4704 24.4081 69.4704 23.4036 69.7759 22.7046C70.1899 21.7544 71.622 21.6526 71.907 22.7181C72.1378 23.5665 71.8052 24.5167 71.717 25.3651C71.5745 26.8447 71.3708 28.3175 71.303 29.7971C71.269 30.5166 71.269 31.2292 71.3165 31.9487C71.3437 32.3898 71.1944 33.245 71.5269 33.5844C71.7102 33.7676 72.0224 33.8219 72.2396 33.6794C72.4093 33.5708 72.4907 33.3672 72.6332 33.2246C72.8776 32.9667 73.2916 32.9057 73.6242 33.0346C74.3504 33.3265 74.2622 33.9305 74.1196 34.5617C73.9092 35.4712 73.4613 36.3264 72.8029 36.9983C72.4568 37.3512 72.036 37.6567 71.5473 37.7177C70.8075 37.8128 70.0881 37.3037 69.7216 36.6589C69.3483 36.0074 69.26 35.2472 69.1922 34.5006H69.1854Z" fill="#F1D054"/>
<path fill-rule="evenodd" clip-rule="evenodd" d="M75.8911 31.4804C75.7214 32.8039 76.2983 33.9713 77.1739 34.0799C78.0494 34.1885 78.8978 33.2044 79.0607 31.8809C79.2304 30.5574 78.6535 29.39 77.7779 29.2814C76.9024 29.1728 76.054 30.1569 75.8911 31.4804Z" fill="#561C2F"/>
<path fill-rule="evenodd" clip-rule="evenodd" d="M65.8935 30.4964C65.9343 31.8334 65.2488 32.9397 64.3664 32.9601C63.4841 32.9873 62.7375 31.9217 62.6968 30.5846C62.6561 29.2475 63.3416 28.1412 64.2239 28.1209C65.1062 28.0937 65.8528 29.1593 65.8935 30.4964Z" fill="#561C2F"/>
<path fill-rule="evenodd" clip-rule="evenodd" d="M81.7824 27.0279C80.9951 25.0596 79.0743 24.0619 77.0111 24.313C76.2034 24.408 76.2102 23.1456 77.0111 23.0506C79.6852 22.7316 82.02 24.2316 83.0041 26.6953C83.3095 27.4555 82.081 27.7813 81.7824 27.0347V27.0279Z" fill="#561C2F"/>
<path fill-rule="evenodd" clip-rule="evenodd" d="M65.9685 22.9895C64.1292 22.2769 62.1813 22.8267 60.9596 24.3741C60.4574 25.0121 59.5682 24.1162 60.0637 23.4782C61.5297 21.6118 64.0953 20.9195 66.3011 21.7679C67.0545 22.0597 66.7287 23.2814 65.9617 22.9895H65.9685Z" fill="#561C2F"/>
<path fill-rule="evenodd" clip-rule="evenodd" d="M31.6796 99.3723L45.3489 104.673C45.0163 106.18 44.6837 107.687 44.3512 109.193C53.6495 109.539 62.9411 109.96 72.2328 110.422C72.9929 112.974 73.6241 115.566 73.9771 118.207C60.5656 123.507 45.152 123.541 31.7203 118.288C31.2316 118.098 30.7226 117.881 30.3832 117.48C29.942 116.958 29.8606 116.225 29.8199 115.546C29.4805 110.096 30.1185 104.592 31.6931 99.3655L31.6796 99.3723Z" fill="#EDBA8C"/>
<mask id="mask3_3090_1056" style="mask-type:luminance" maskUnits="userSpaceOnUse" x="29" y="99" width="45" height="24">
<path d="M31.6796 99.3723L45.3489 104.673C45.0163 106.18 44.6837 107.687 44.3512 109.193C53.6495 109.539 62.9411 109.96 72.2328 110.422C72.9929 112.974 73.6241 115.566 73.9771 118.207C60.5656 123.507 45.152 123.541 31.7203 118.288C31.2316 118.098 30.7226 117.881 30.3832 117.48C29.942 116.958 29.8606 116.225 29.8199 115.546C29.4805 110.096 30.1185 104.592 31.6931 99.3655L31.6796 99.3723Z" fill="white"/>
</mask>
<g mask="url(#mask3_3090_1056)">
<path opacity="0.2" fill-rule="evenodd" clip-rule="evenodd" d="M31.6796 99.3723L45.3489 104.673C45.0163 106.18 44.6837 107.687 44.3512 109.193C53.6495 109.539 62.9411 109.96 72.2328 110.422C72.9929 112.974 73.6241 115.566 73.9771 118.207C60.5656 123.507 45.152 123.541 31.7203 118.288C31.2316 118.098 30.7226 117.881 30.3832 117.48C29.942 116.958 29.8606 116.225 29.8199 115.546C29.4805 110.096 30.1185 104.592 31.6931 99.3655L31.6796 99.3723Z" fill="#CB2E45"/>
</g>
<path fill-rule="evenodd" clip-rule="evenodd" d="M72.4429 40.1134C69.857 42.0071 66.416 40.3374 66.1377 37.195C66.1037 36.7877 66.7349 36.7945 66.7689 37.195C67.0064 39.9098 69.9656 41.1451 72.1239 39.5637C72.4565 39.3193 72.7687 39.8691 72.4429 40.1134Z" fill="#EDBA8C"/>
<path opacity="0.16" fill-rule="evenodd" clip-rule="evenodd" d="M88.2576 27.9511C87.8096 27.8358 87.3685 27.7204 86.9273 27.605C80.8799 26.044 74.6765 24.9105 68.4595 24.32C64.1632 23.9128 59.8805 23.8042 55.6046 23.9399C53.9214 23.9196 52.2518 23.9196 50.6093 23.9399C50.6093 23.9399 52.245 17.465 53.6635 15.456C65.093 14.8452 77.1131 16.2297 87.606 20.5124C88.1625 22.3585 88.3662 24.3404 88.149 26.3765L88.2576 27.9444V27.9511Z" fill="#561C2F"/>
<path fill-rule="evenodd" clip-rule="evenodd" d="M49.4891 13.2094L57.6133 9.01498C60.7354 8.96069 63.8643 8.94711 66.9864 8.99462C71.0519 9.05571 75.0563 9.19824 79.0878 9.67334L79.7055 9.91089L85.6782 13.2162L93.5648 18.1708C93.5648 18.1708 96.0353 19.9423 96.0353 21.2318L96.877 26.0643C96.877 26.0643 74.1061 14.18 45.6408 19.7726C29.2702 20.4513 49.5027 13.2094 49.5027 13.2094H49.4891Z" fill="#F1D054"/>
<mask id="mask4_3090_1056" style="mask-type:luminance" maskUnits="userSpaceOnUse" x="39" y="8" width="58" height="19">
<path d="M49.4891 13.2094L57.6133 9.01498C60.7354 8.96069 63.8643 8.94711 66.9864 8.99462C71.0519 9.05571 75.0563 9.19824 79.0878 9.67334L79.7055 9.91089L85.6782 13.2162L93.5648 18.1708C93.5648 18.1708 96.0353 19.9423 96.0353 21.2318L96.877 26.0643C96.877 26.0643 74.1061 14.18 45.6408 19.7726C29.2702 20.4513 49.5027 13.2094 49.5027 13.2094H49.4891Z" fill="white"/>
</mask>
<g mask="url(#mask4_3090_1056)">
<path opacity="0.3" fill-rule="evenodd" clip-rule="evenodd" d="M49.4891 13.2094L57.6133 9.01498C60.7354 8.96069 63.8643 8.94711 66.9864 8.99462C71.0519 9.05571 75.0563 9.19824 79.0878 9.67334L79.7055 9.91089L85.6782 13.2162L93.5648 18.1708C93.5648 18.1708 96.0353 19.9423 96.0353 21.2318L96.877 26.0643C96.877 26.0643 74.1061 14.18 45.6408 19.7726C29.2702 20.4513 49.5027 13.2094 49.5027 13.2094H49.4891Z" fill="#CB2E45"/>
</g>
<path fill-rule="evenodd" clip-rule="evenodd" d="M104.03 96.9965C106.338 102.738 107.661 108.881 107.926 115.064C107.953 115.654 107.96 116.292 107.641 116.795C107.37 117.229 106.901 117.494 106.447 117.724C99.4083 121.308 91.0465 120.568 83.1938 119.733C82.2029 119.625 71.0313 118.145 71.0652 117.697C71.2484 115.193 71.6421 112.709 72.2326 110.265C76.3863 109.166 80.6351 109.078 84.911 108.704C87.3543 108.494 89.8181 108.161 92.2547 107.971C92.18 106.288 92.0986 104.605 92.0239 102.922L104.03 96.9897V96.9965Z" fill="#EDBA8C"/>
<path opacity="0.15" fill-rule="evenodd" clip-rule="evenodd" d="M31.6798 99.3721L45.3491 104.673C45.0776 105.915 44.7994 107.157 44.5211 108.399C43.6591 108.474 42.7971 108.508 41.9352 108.514C37.9443 108.548 33.9467 108.223 30.0034 107.571C30.3156 104.795 30.8653 102.046 31.673 99.3721H31.6798Z" fill="#561C2F"/>
<path opacity="0.15" fill-rule="evenodd" clip-rule="evenodd" d="M92.1667 106.119C92.1192 105.053 92.0717 103.988 92.0174 102.929L104.024 96.9968C104.838 99.0194 105.524 101.089 106.087 103.2C101.703 105.399 96.8974 106.662 92.1667 106.126V106.119Z" fill="#561C2F"/>
<path fill-rule="evenodd" clip-rule="evenodd" d="M47.2764 97.8315C43.6793 96.7863 35.2157 94.2683 31.5506 92.7548C30.5733 92.3475 29.4602 92.843 29.0869 93.8271C28.51 95.3475 28.1503 96.6506 27.9399 97.5533C27.7498 98.3474 28.096 99.1686 28.8018 99.5894C31.4963 101.191 38.6432 104.944 45.9869 104.578C46.8013 104.537 47.514 103.994 47.738 103.207C48.1181 101.863 48.3895 100.825 48.566 100.051C48.7968 99.0804 48.2266 98.1098 47.2697 97.8315H47.2764Z" fill="#F1D054"/>
<path fill-rule="evenodd" clip-rule="evenodd" d="M104.533 91.2277L106.08 94.3362C106.487 95.1506 106.352 96.128 105.727 96.7931C103.766 98.8768 98.9266 103.078 91.2978 103.669C90.2458 103.75 89.2888 103.058 89.0174 102.04C88.5694 100.35 88.2436 99.1483 88.0129 98.2999C87.7074 97.1936 88.3047 96.0465 89.3907 95.6665C92.4245 94.6009 98.2682 92.4222 101.404 90.3725C102.49 89.6598 103.956 90.0671 104.533 91.2345V91.2277Z" fill="#F1D054"/>
<path opacity="0.3" fill-rule="evenodd" clip-rule="evenodd" d="M47.2764 97.8315C43.6793 96.7863 35.2157 94.2683 31.5506 92.7548C30.5733 92.3475 29.4602 92.843 29.0869 93.8271C28.51 95.3475 28.1503 96.6506 27.9399 97.5533C27.7498 98.3474 28.096 99.1686 28.8018 99.5894C31.4963 101.191 38.6432 104.944 45.9869 104.578C46.8013 104.537 47.514 103.994 47.738 103.207C48.1181 101.863 48.3895 100.825 48.566 100.051C48.7968 99.0804 48.2266 98.1098 47.2697 97.8315H47.2764Z" fill="#CB2E45"/>
<path opacity="0.3" fill-rule="evenodd" clip-rule="evenodd" d="M104.533 91.2277L106.08 94.3362C106.487 95.1506 106.352 96.128 105.727 96.7931C103.766 98.8768 98.9266 103.078 91.2978 103.669C90.2458 103.75 89.2888 103.058 89.0174 102.04C88.5694 100.35 88.2436 99.1483 88.0129 98.2999C87.7074 97.1936 88.3047 96.0465 89.3907 95.6665C92.4245 94.6009 98.2682 92.4222 101.404 90.3725C102.49 89.6598 103.956 90.0671 104.533 91.2345V91.2277Z" fill="#CB2E45"/>
<path opacity="0.3" fill-rule="evenodd" clip-rule="evenodd" d="M69.1854 34.5006C68.9953 32.417 68.9614 30.313 69.0836 28.2225C69.1447 27.1977 69.2397 26.1728 69.3754 25.1547C69.4704 24.4081 69.4704 23.4036 69.7759 22.7046C70.1899 21.7544 71.622 21.6526 71.907 22.7181C72.1378 23.5665 71.8052 24.5167 71.717 25.3651C71.5745 26.8447 71.3708 28.3175 71.303 29.7971C71.269 30.5166 71.269 31.2292 71.3165 31.9487C71.3437 32.3898 71.1944 33.245 71.5269 33.5844C71.7102 33.7676 72.0224 33.8219 72.2396 33.6794C72.4093 33.5708 72.4907 33.3672 72.6332 33.2246C72.8776 32.9667 73.2916 32.9057 73.6242 33.0346C74.3504 33.3265 74.2622 33.9305 74.1196 34.5617C73.9092 35.4712 73.4613 36.3264 72.8029 36.9983C72.4568 37.3512 72.036 37.6567 71.5473 37.7177C70.8075 37.8128 70.0881 37.3037 69.7216 36.6589C69.3483 36.0074 69.26 35.2472 69.1922 34.5006H69.1854Z" fill="#CB2E45"/>
</g>
</g>
<path d="M168.304 18.8548C152.748 19.3607 136.962 31.3505 121.6 44.4092L151.939 64.2098C151.626 41.4838 156.408 33.533 168.304 18.8548Z" fill="white"/>
<rect x="144.099" width="199.901" height="125" rx="16" fill="white"/>
<path d="M172.928 39.1903H166.256L165.152 42.3823H161.624L167.648 25.6063H171.56L177.584 42.3823H174.032L172.928 39.1903ZM172.016 36.5023L169.592 29.4943L167.168 36.5023H172.016ZM186.844 28.8943C187.852 28.8943 188.748 29.1183 189.532 29.5663C190.316 29.9983 190.924 30.6463 191.356 31.5103C191.804 32.3583 192.028 33.3823 192.028 34.5823V42.3823H188.668V35.0383C188.668 33.9823 188.404 33.1743 187.876 32.6143C187.348 32.0383 186.628 31.7503 185.716 31.7503C184.788 31.7503 184.052 32.0383 183.508 32.6143C182.98 33.1743 182.716 33.9823 182.716 35.0383V42.3823H179.356V24.6223H182.716V30.7423C183.148 30.1663 183.724 29.7183 184.444 29.3983C185.164 29.0623 185.964 28.8943 186.844 28.8943ZM200.647 42.5983C199.367 42.5983 198.215 42.3183 197.191 41.7583C196.167 41.1823 195.359 40.3743 194.767 39.3343C194.191 38.2943 193.903 37.0943 193.903 35.7343C193.903 34.3743 194.199 33.1743 194.791 32.1343C195.399 31.0943 196.223 30.2943 197.263 29.7343C198.303 29.1583 199.463 28.8703 200.743 28.8703C202.023 28.8703 203.183 29.1583 204.223 29.7343C205.263 30.2943 206.079 31.0943 206.671 32.1343C207.279 33.1743 207.583 34.3743 207.583 35.7343C207.583 37.0943 207.271 38.2943 206.647 39.3343C206.039 40.3743 205.207 41.1823 204.151 41.7583C203.111 42.3183 201.943 42.5983 200.647 42.5983ZM200.647 39.6703C201.255 39.6703 201.823 39.5263 202.351 39.2383C202.895 38.9343 203.327 38.4863 203.647 37.8943C203.967 37.3023 204.127 36.5823 204.127 35.7343C204.127 34.4703 203.791 33.5023 203.119 32.8303C202.463 32.1423 201.655 31.7983 200.695 31.7983C199.735 31.7983 198.927 32.1423 198.271 32.8303C197.631 33.5023 197.311 34.4703 197.311 35.7343C197.311 36.9983 197.623 37.9743 198.247 38.6623C198.887 39.3343 199.687 39.6703 200.647 39.6703ZM212.928 31.1503C213.36 30.4463 213.92 29.8943 214.608 29.4943C215.312 29.0943 216.112 28.8943 217.008 28.8943V32.4223H216.12C215.064 32.4223 214.264 32.6703 213.72 33.1663C213.192 33.6623 212.928 34.5263 212.928 35.7583V42.3823H209.568V29.0863H212.928V31.1503ZM217.927 35.6863C217.927 34.3423 218.191 33.1503 218.719 32.1103C219.263 31.0703 219.991 30.2703 220.903 29.7103C221.831 29.1503 222.863 28.8703 223.999 28.8703C224.991 28.8703 225.855 29.0703 226.591 29.4703C227.343 29.8703 227.943 30.3743 228.391 30.9823V29.0863H231.775V42.3823H228.391V40.4383C227.959 41.0623 227.359 41.5823 226.591 41.9983C225.839 42.3983 224.967 42.5983 223.975 42.5983C222.855 42.5983 221.831 42.3103 220.903 41.7343C219.991 41.1583 219.263 40.3503 218.719 39.3103C218.191 38.2543 217.927 37.0463 217.927 35.6863ZM228.391 35.7343C228.391 34.9183 228.231 34.2223 227.911 33.6463C227.591 33.0543 227.159 32.6063 226.615 32.3023C226.071 31.9823 225.487 31.8223 224.863 31.8223C224.239 31.8223 223.663 31.9743 223.135 32.2783C222.607 32.5823 222.175 33.0303 221.839 33.6223C221.519 34.1983 221.359 34.8863 221.359 35.6863C221.359 36.4863 221.519 37.1903 221.839 37.7983C222.175 38.3903 222.607 38.8463 223.135 39.1663C223.679 39.4863 224.255 39.6463 224.863 39.6463C225.487 39.6463 226.071 39.4943 226.615 39.1903C227.159 38.8703 227.591 38.4223 227.911 37.8463C228.231 37.2543 228.391 36.5503 228.391 35.7343ZM161.792 66.7103C161.792 65.3823 162.064 64.2063 162.608 63.1823C163.168 62.1423 163.92 61.3343 164.864 60.7583C165.808 60.1823 166.848 59.8943 167.984 59.8943C168.928 59.8943 169.76 60.0783 170.48 60.4463C171.216 60.7983 171.808 61.2543 172.256 61.8143V60.0863H175.64V79.7183H172.256V71.5583C171.808 72.1343 171.208 72.6143 170.456 72.9983C169.704 73.3823 168.856 73.5743 167.912 73.5743C166.792 73.5743 165.76 73.2863 164.816 72.7103C163.888 72.1183 163.152 71.3023 162.608 70.2623C162.064 69.2223 161.792 68.0383 161.792 66.7103ZM172.256 66.7343C172.256 65.9183 172.088 65.2143 171.752 64.6223C171.416 64.0303 170.976 63.5823 170.432 63.2783C169.904 62.9743 169.336 62.8223 168.728 62.8223C168.136 62.8223 167.568 62.9743 167.024 63.2783C166.496 63.5823 166.064 64.0303 165.728 64.6223C165.392 65.1983 165.224 65.8943 165.224 66.7103C165.224 67.5263 165.392 68.2383 165.728 68.8463C166.064 69.4383 166.496 69.8863 167.024 70.1903C167.568 70.4943 168.136 70.6463 168.728 70.6463C169.336 70.6463 169.904 70.4943 170.432 70.1903C170.976 69.8863 171.416 69.4383 171.752 68.8463C172.088 68.2543 172.256 67.5503 172.256 66.7343ZM190.994 60.0863V73.3823H187.61V71.7023C187.178 72.2783 186.61 72.7343 185.906 73.0703C185.218 73.3903 184.466 73.5503 183.65 73.5503C182.61 73.5503 181.69 73.3343 180.89 72.9023C180.09 72.4543 179.458 71.8063 178.994 70.9583C178.546 70.0943 178.322 69.0703 178.322 67.8863V60.0863H181.682V67.4063C181.682 68.4623 181.946 69.2783 182.474 69.8543C183.002 70.4143 183.722 70.6943 184.634 70.6943C185.562 70.6943 186.29 70.4143 186.818 69.8543C187.346 69.2783 187.61 68.4623 187.61 67.4063V60.0863H190.994ZM206.189 66.4463C206.189 66.9263 206.157 67.3583 206.093 67.7423H196.373C196.453 68.7023 196.789 69.4543 197.381 69.9983C197.973 70.5423 198.701 70.8143 199.565 70.8143C200.813 70.8143 201.701 70.2783 202.229 69.2063H205.853C205.469 70.4863 204.733 71.5423 203.645 72.3743C202.557 73.1903 201.221 73.5983 199.637 73.5983C198.357 73.5983 197.205 73.3183 196.181 72.7583C195.173 72.1823 194.381 71.3743 193.805 70.3343C193.245 69.2943 192.965 68.0943 192.965 66.7343C192.965 65.3583 193.245 64.1503 193.805 63.1103C194.365 62.0703 195.149 61.2703 196.157 60.7103C197.165 60.1503 198.325 59.8703 199.637 59.8703C200.901 59.8703 202.029 60.1423 203.021 60.6863C204.029 61.2303 204.805 62.0063 205.349 63.0143C205.909 64.0063 206.189 65.1503 206.189 66.4463ZM202.709 65.4863C202.693 64.6223 202.381 63.9343 201.773 63.4223C201.165 62.8943 200.421 62.6303 199.541 62.6303C198.709 62.6303 198.005 62.8863 197.429 63.3983C196.869 63.8943 196.525 64.5903 196.397 65.4863H202.709ZM211.521 62.1503C211.953 61.4463 212.513 60.8943 213.201 60.4943C213.905 60.0943 214.705 59.8943 215.601 59.8943V63.4223H214.713C213.657 63.4223 212.857 63.6703 212.313 64.1663C211.785 64.6623 211.521 65.5263 211.521 66.7583V73.3823H208.161V60.0863H211.521V62.1503ZM229.744 66.4463C229.744 66.9263 229.712 67.3583 229.648 67.7423H219.928C220.008 68.7023 220.344 69.4543 220.936 69.9983C221.528 70.5423 222.256 70.8143 223.12 70.8143C224.368 70.8143 225.256 70.2783 225.784 69.2063H229.408C229.024 70.4863 228.288 71.5423 227.2 72.3743C226.112 73.1903 224.776 73.5983 223.192 73.5983C221.912 73.5983 220.76 73.3183 219.736 72.7583C218.728 72.1823 217.936 71.3743 217.36 70.3343C216.8 69.2943 216.52 68.0943 216.52 66.7343C216.52 65.3583 216.8 64.1503 217.36 63.1103C217.92 62.0703 218.704 61.2703 219.712 60.7103C220.72 60.1503 221.88 59.8703 223.192 59.8703C224.456 59.8703 225.584 60.1423 226.576 60.6863C227.584 61.2303 228.36 62.0063 228.904 63.0143C229.464 64.0063 229.744 65.1503 229.744 66.4463ZM226.264 65.4863C226.248 64.6223 225.936 63.9343 225.328 63.4223C224.72 62.8943 223.976 62.6303 223.096 62.6303C222.264 62.6303 221.56 62.8863 220.984 63.3983C220.424 63.8943 220.08 64.5903 219.952 65.4863H226.264ZM248.229 59.8943C249.861 59.8943 251.173 60.3983 252.165 61.4063C253.173 62.3983 253.677 63.7903 253.677 65.5823V73.3823H250.317V66.0383C250.317 64.9983 250.053 64.2063 249.525 63.6623C248.997 63.1023 248.277 62.8223 247.365 62.8223C246.453 62.8223 245.725 63.1023 245.181 63.6623C244.653 64.2063 244.389 64.9983 244.389 66.0383V73.3823H241.029V66.0383C241.029 64.9983 240.765 64.2063 240.237 63.6623C239.709 63.1023 238.989 62.8223 238.077 62.8223C237.149 62.8223 236.413 63.1023 235.869 63.6623C235.341 64.2063 235.077 64.9983 235.077 66.0383V73.3823H231.717V60.0863H235.077V61.6943C235.509 61.1343 236.061 60.6943 236.733 60.3743C237.421 60.0543 238.173 59.8943 238.989 59.8943C240.029 59.8943 240.957 60.1183 241.773 60.5663C242.589 60.9983 243.221 61.6223 243.669 62.4383C244.101 61.6703 244.725 61.0543 245.541 60.5903C246.373 60.1263 247.269 59.8943 248.229 59.8943ZM262.289 73.5983C261.009 73.5983 259.857 73.3183 258.833 72.7583C257.809 72.1823 257.001 71.3743 256.409 70.3343C255.833 69.2943 255.545 68.0943 255.545 66.7343C255.545 65.3743 255.841 64.1743 256.433 63.1343C257.041 62.0943 257.865 61.2943 258.905 60.7343C259.945 60.1583 261.105 59.8703 262.385 59.8703C263.665 59.8703 264.825 60.1583 265.865 60.7343C266.905 61.2943 267.721 62.0943 268.313 63.1343C268.921 64.1743 269.225 65.3743 269.225 66.7343C269.225 68.0943 268.913 69.2943 268.289 70.3343C267.681 71.3743 266.849 72.1823 265.793 72.7583C264.753 73.3183 263.585 73.5983 262.289 73.5983ZM262.289 70.6703C262.897 70.6703 263.465 70.5263 263.993 70.2383C264.537 69.9343 264.969 69.4863 265.289 68.8943C265.609 68.3023 265.769 67.5823 265.769 66.7343C265.769 65.4703 265.433 64.5023 264.761 63.8303C264.105 63.1423 263.297 62.7983 262.337 62.7983C261.377 62.7983 260.569 63.1423 259.913 63.8303C259.273 64.5023 258.953 65.4703 258.953 66.7343C258.953 67.9983 259.265 68.9743 259.889 69.6623C260.529 70.3343 261.329 70.6703 262.289 70.6703ZM276.298 73.5983C275.21 73.5983 274.234 73.4063 273.37 73.0223C272.506 72.6223 271.818 72.0863 271.306 71.4143C270.81 70.7423 270.538 69.9983 270.49 69.1823H273.874C273.938 69.6943 274.186 70.1183 274.618 70.4543C275.066 70.7903 275.618 70.9583 276.274 70.9583C276.914 70.9583 277.41 70.8303 277.762 70.5743C278.13 70.3183 278.314 69.9903 278.314 69.5903C278.314 69.1583 278.09 68.8383 277.642 68.6303C277.21 68.4063 276.514 68.1663 275.554 67.9103C274.562 67.6703 273.746 67.4223 273.106 67.1663C272.482 66.9103 271.938 66.5183 271.474 65.9903C271.026 65.4623 270.802 64.7503 270.802 63.8543C270.802 63.1183 271.01 62.4463 271.426 61.8383C271.858 61.2303 272.466 60.7503 273.25 60.3983C274.05 60.0463 274.986 59.8703 276.058 59.8703C277.642 59.8703 278.906 60.2703 279.85 61.0703C280.794 61.8543 281.314 62.9183 281.41 64.2623H278.194C278.146 63.7343 277.922 63.3183 277.522 63.0143C277.138 62.6943 276.618 62.5343 275.962 62.5343C275.354 62.5343 274.882 62.6463 274.546 62.8703C274.226 63.0943 274.066 63.4063 274.066 63.8063C274.066 64.2543 274.29 64.5983 274.738 64.8383C275.186 65.0623 275.882 65.2943 276.826 65.5343C277.786 65.7743 278.578 66.0223 279.202 66.2783C279.826 66.5343 280.362 66.9343 280.81 67.4783C281.274 68.0063 281.514 68.7103 281.53 69.5903C281.53 70.3583 281.314 71.0463 280.882 71.6543C280.466 72.2623 279.858 72.7423 279.058 73.0943C278.274 73.4303 277.354 73.5983 276.298 73.5983ZM161.792 97.7343C161.792 96.3583 162.072 95.1583 162.632 94.1343C163.192 93.0943 163.968 92.2943 164.96 91.7343C165.952 91.1583 167.088 90.8703 168.368 90.8703C170.016 90.8703 171.376 91.2863 172.448 92.1183C173.536 92.9343 174.264 94.0863 174.632 95.5743H171.008C170.816 94.9983 170.488 94.5503 170.024 94.2303C169.576 93.8943 169.016 93.7263 168.344 93.7263C167.384 93.7263 166.624 94.0783 166.064 94.7823C165.504 95.4703 165.224 96.4543 165.224 97.7343C165.224 98.9983 165.504 99.9823 166.064 100.686C166.624 101.374 167.384 101.718 168.344 101.718C169.704 101.718 170.592 101.11 171.008 99.8943H174.632C174.264 101.334 173.536 102.478 172.448 103.326C171.36 104.174 170 104.598 168.368 104.598C167.088 104.598 165.952 104.318 164.96 103.758C163.968 103.182 163.192 102.382 162.632 101.358C162.072 100.318 161.792 99.1103 161.792 97.7343ZM182.518 104.598C181.238 104.598 180.086 104.318 179.062 103.758C178.038 103.182 177.23 102.374 176.638 101.334C176.062 100.294 175.774 99.0943 175.774 97.7343C175.774 96.3743 176.07 95.1743 176.662 94.1343C177.27 93.0943 178.094 92.2943 179.134 91.7343C180.174 91.1583 181.334 90.8703 182.614 90.8703C183.894 90.8703 185.054 91.1583 186.094 91.7343C187.134 92.2943 187.95 93.0943 188.542 94.1343C189.15 95.1743 189.454 96.3743 189.454 97.7343C189.454 99.0943 189.142 100.294 188.518 101.334C187.91 102.374 187.078 103.182 186.022 103.758C184.982 104.318 183.814 104.598 182.518 104.598ZM182.518 101.67C183.126 101.67 183.694 101.526 184.222 101.238C184.766 100.934 185.198 100.486 185.518 99.8943C185.838 99.3023 185.998 98.5823 185.998 97.7343C185.998 96.4703 185.662 95.5023 184.99 94.8303C184.334 94.1423 183.526 93.7983 182.566 93.7983C181.606 93.7983 180.798 94.1423 180.142 94.8303C179.502 95.5023 179.182 96.4703 179.182 97.7343C179.182 98.9983 179.494 99.9743 180.118 100.662C180.758 101.334 181.558 101.67 182.518 101.67ZM198.806 90.8943C200.39 90.8943 201.67 91.3983 202.646 92.4063C203.622 93.3983 204.11 94.7903 204.11 96.5823V104.382H200.75V97.0383C200.75 95.9823 200.486 95.1743 199.958 94.6143C199.43 94.0383 198.71 93.7503 197.798 93.7503C196.87 93.7503 196.134 94.0383 195.59 94.6143C195.062 95.1743 194.798 95.9823 194.798 97.0383V104.382H191.438V91.0863H194.798V92.7423C195.246 92.1663 195.814 91.7183 196.502 91.3983C197.206 91.0623 197.974 90.8943 198.806 90.8943ZM212.729 104.598C211.449 104.598 210.297 104.318 209.273 103.758C208.249 103.182 207.441 102.374 206.849 101.334C206.273 100.294 205.985 99.0943 205.985 97.7343C205.985 96.3743 206.281 95.1743 206.873 94.1343C207.481 93.0943 208.305 92.2943 209.345 91.7343C210.385 91.1583 211.545 90.8703 212.825 90.8703C214.105 90.8703 215.265 91.1583 216.305 91.7343C217.345 92.2943 218.161 93.0943 218.753 94.1343C219.361 95.1743 219.665 96.3743 219.665 97.7343C219.665 99.0943 219.353 100.294 218.729 101.334C218.121 102.374 217.289 103.182 216.233 103.758C215.193 104.318 214.025 104.598 212.729 104.598ZM212.729 101.67C213.337 101.67 213.905 101.526 214.433 101.238C214.977 100.934 215.409 100.486 215.729 99.8943C216.049 99.3023 216.209 98.5823 216.209 97.7343C216.209 96.4703 215.873 95.5023 215.201 94.8303C214.545 94.1423 213.737 93.7983 212.777 93.7983C211.817 93.7983 211.009 94.1423 210.353 94.8303C209.713 95.5023 209.393 96.4703 209.393 97.7343C209.393 98.9983 209.705 99.9743 210.329 100.662C210.969 101.334 211.769 101.67 212.729 101.67ZM220.786 97.7343C220.786 96.3583 221.066 95.1583 221.626 94.1343C222.186 93.0943 222.962 92.2943 223.954 91.7343C224.946 91.1583 226.082 90.8703 227.362 90.8703C229.01 90.8703 230.37 91.2863 231.442 92.1183C232.53 92.9343 233.258 94.0863 233.626 95.5743H230.002C229.81 94.9983 229.482 94.5503 229.018 94.2303C228.57 93.8943 228.01 93.7263 227.338 93.7263C226.378 93.7263 225.618 94.0783 225.058 94.7823C224.498 95.4703 224.218 96.4543 224.218 97.7343C224.218 98.9983 224.498 99.9823 225.058 100.686C225.618 101.374 226.378 101.718 227.338 101.718C228.698 101.718 229.586 101.11 230.002 99.8943H233.626C233.258 101.334 232.53 102.478 231.442 103.326C230.354 104.174 228.994 104.598 227.362 104.598C226.082 104.598 224.946 104.318 223.954 103.758C222.962 103.182 222.186 102.382 221.626 101.358C221.066 100.318 220.786 99.1103 220.786 97.7343ZM247.968 97.4463C247.968 97.9263 247.936 98.3583 247.872 98.7423H238.152C238.232 99.7023 238.568 100.454 239.16 100.998C239.752 101.542 240.48 101.814 241.344 101.814C242.592 101.814 243.48 101.278 244.008 100.206H247.632C247.248 101.486 246.512 102.542 245.424 103.374C244.336 104.19 243 104.598 241.416 104.598C240.136 104.598 238.984 104.318 237.96 103.758C236.952 103.182 236.16 102.374 235.584 101.334C235.024 100.294 234.744 99.0943 234.744 97.7343C234.744 96.3583 235.024 95.1503 235.584 94.1103C236.144 93.0703 236.928 92.2703 237.936 91.7103C238.944 91.1503 240.104 90.8703 241.416 90.8703C242.68 90.8703 243.808 91.1423 244.8 91.6863C245.808 92.2303 246.584 93.0063 247.128 94.0143C247.688 95.0063 247.968 96.1503 247.968 97.4463ZM244.488 96.4863C244.472 95.6223 244.16 94.9343 243.552 94.4223C242.944 93.8943 242.2 93.6303 241.32 93.6303C240.488 93.6303 239.784 93.8863 239.208 94.3983C238.648 94.8943 238.304 95.5903 238.176 96.4863H244.488ZM253.3 93.1503C253.732 92.4463 254.292 91.8943 254.98 91.4943C255.684 91.0943 256.484 90.8943 257.38 90.8943V94.4223H256.492C255.436 94.4223 254.636 94.6703 254.092 95.1663C253.564 95.6623 253.3 96.5263 253.3 97.7583V104.382H249.94V91.0863H253.3V93.1503ZM263.075 93.8463V100.278C263.075 100.726 263.179 101.054 263.387 101.262C263.611 101.454 263.979 101.55 264.491 101.55H266.051V104.382H263.939C261.107 104.382 259.691 103.006 259.691 100.254V93.8463H258.107V91.0863H259.691V87.7983H263.075V91.0863H266.051V93.8463H263.075ZM280.348 97.4463C280.348 97.9263 280.316 98.3583 280.252 98.7423H270.532C270.612 99.7023 270.948 100.454 271.54 100.998C272.132 101.542 272.86 101.814 273.724 101.814C274.972 101.814 275.86 101.278 276.388 100.206H280.012C279.628 101.486 278.892 102.542 277.804 103.374C276.716 104.19 275.38 104.598 273.796 104.598C272.516 104.598 271.364 104.318 270.34 103.758C269.332 103.182 268.54 102.374 267.964 101.334C267.404 100.294 267.124 99.0943 267.124 97.7343C267.124 96.3583 267.404 95.1503 267.964 94.1103C268.524 93.0703 269.308 92.2703 270.316 91.7103C271.324 91.1503 272.484 90.8703 273.796 90.8703C275.06 90.8703 276.188 91.1423 277.18 91.6863C278.188 92.2303 278.964 93.0063 279.508 94.0143C280.068 95.0063 280.348 96.1503 280.348 97.4463ZM276.868 96.4863C276.852 95.6223 276.54 94.9343 275.932 94.4223C275.324 93.8943 274.58 93.6303 273.7 93.6303C272.868 93.6303 272.164 93.8863 271.588 94.3983C271.028 94.8943 270.684 95.5903 270.556 96.4863H276.868Z" fill="#8F3B06"/>
<defs>
<filter id="filter0_d_3090_1056" x="12.881" y="0" width="106.238" height="257.697" filterUnits="userSpaceOnUse" color-interpolation-filters="sRGB">
<feFlood flood-opacity="0" result="BackgroundImageFix"/>
<feColorMatrix in="SourceAlpha" type="matrix" values="0 0 0 0 0 0 0 0 0 0 0 0 0 0 0 0 0 0 127 0" result="hardAlpha"/>
<feOffset dy="3.11898"/>
<feGaussianBlur stdDeviation="1.55949"/>
<feComposite in2="hardAlpha" operator="out"/>
<feColorMatrix type="matrix" values="0 0 0 0 0 0 0 0 0 0 0 0 0 0 0 0 0 0 0.25 0"/>
<feBlend mode="normal" in2="BackgroundImageFix" result="effect1_dropShadow_3090_1056"/>
<feBlend mode="normal" in="SourceGraphic" in2="effect1_dropShadow_3090_1056" result="shape"/>
</filter>
<clipPath id="clip0_3090_1056">
<rect width="100" height="104" fill="white" transform="matrix(-1 0 0 1 116 0)"/>
</clipPath>
</defs>
</svg>
