<svg width="691" height="542" viewBox="0 0 691 542" fill="none" xmlns="http://www.w3.org/2000/svg">
<g filter="url(#filter0_b_3187_1235)">
<rect x="0.650391" width="581.904" height="541.455" rx="34.4832" fill="white" fill-opacity="0.9"/>
<mask id="mask0_3187_1235" style="mask-type:alpha" maskUnits="userSpaceOnUse" x="265" y="34" width="53" height="53">
<rect x="265.74" y="34.4833" width="51.7248" height="51.7248" fill="#D9D9D9"/>
</mask>
<g mask="url(#mask0_3187_1235)">
<path d="M274.361 77.5873C273.176 77.5873 272.161 77.1653 271.317 76.3211C270.473 75.477 270.051 74.4623 270.051 73.2769V47.4145C270.051 46.2292 270.473 45.2144 271.317 44.3703C272.161 43.5262 273.176 43.1041 274.361 43.1041H300.224C301.409 43.1041 302.424 43.5262 303.268 44.3703C304.112 45.2144 304.534 46.2292 304.534 47.4145V57.1129L313.155 48.4921V72.1993L304.534 63.5785V73.2769C304.534 74.4623 304.112 75.477 303.268 76.3211C302.424 77.1653 301.409 77.5873 300.224 77.5873H274.361ZM274.361 73.2769H300.224V47.4145H274.361V73.2769Z" fill="#007AFF"/>
</g>
<path d="M112.134 145.76H107.285L116.114 120.681H121.723L130.564 145.76H125.715L119.016 125.824H118.821L112.134 145.76ZM112.294 135.927H125.519V139.576H112.294V135.927ZM138.104 120.681V145.76H133.671V120.681H138.104ZM147.095 120.681V145.76H142.662V120.681H147.095ZM159.858 146.127C158.021 146.127 156.429 145.723 155.082 144.915C153.735 144.107 152.69 142.976 151.948 141.523C151.213 140.07 150.845 138.372 150.845 136.429C150.845 134.486 151.213 132.784 151.948 131.323C152.69 129.861 153.735 128.727 155.082 127.918C156.429 127.11 158.021 126.706 159.858 126.706C161.695 126.706 163.287 127.11 164.634 127.918C165.981 128.727 167.022 129.861 167.756 131.323C168.499 132.784 168.871 134.486 168.871 136.429C168.871 138.372 168.499 140.07 167.756 141.523C167.022 142.976 165.981 144.107 164.634 144.915C163.287 145.723 161.695 146.127 159.858 146.127ZM159.883 142.576C160.879 142.576 161.711 142.303 162.381 141.756C163.05 141.201 163.548 140.458 163.875 139.527C164.209 138.596 164.377 137.56 164.377 136.417C164.377 135.266 164.209 134.225 163.875 133.294C163.548 132.355 163.05 131.608 162.381 131.053C161.711 130.498 160.879 130.221 159.883 130.221C158.862 130.221 158.013 130.498 157.336 131.053C156.666 131.608 156.164 132.355 155.829 133.294C155.503 134.225 155.34 135.266 155.34 136.417C155.34 137.56 155.503 138.596 155.829 139.527C156.164 140.458 156.666 141.201 157.336 141.756C158.013 142.303 158.862 142.576 159.883 142.576ZM175.976 145.76L170.662 126.951H175.18L178.486 140.176H178.658L182.038 126.951H186.507L189.887 140.103H190.071L193.328 126.951H197.859L192.532 145.76H187.915L184.389 133.049H184.132L180.605 145.76H175.976ZM209.703 120.681H215.263L222.708 138.854H223.002L230.447 120.681H236.006V145.76H231.647V128.531H231.414L224.483 145.687H221.226L214.295 128.494H214.063V145.76H209.703V120.681ZM240.758 145.76V126.951H245.191V145.76H240.758ZM242.986 124.281C242.284 124.281 241.68 124.049 241.174 123.583C240.668 123.11 240.415 122.543 240.415 121.881C240.415 121.212 240.668 120.645 241.174 120.179C241.68 119.706 242.284 119.469 242.986 119.469C243.697 119.469 244.301 119.706 244.799 120.179C245.305 120.645 245.558 121.212 245.558 121.881C245.558 122.543 245.305 123.11 244.799 123.583C244.301 124.049 243.697 124.281 242.986 124.281ZM271.411 129.143H266.831C266.701 128.392 266.46 127.727 266.109 127.147C265.758 126.559 265.321 126.061 264.799 125.653C264.276 125.245 263.68 124.939 263.011 124.735C262.349 124.522 261.635 124.416 260.868 124.416C259.504 124.416 258.296 124.759 257.243 125.445C256.19 126.122 255.365 127.118 254.77 128.433C254.174 129.739 253.876 131.335 253.876 133.221C253.876 135.139 254.174 136.756 254.77 138.07C255.374 139.376 256.198 140.364 257.243 141.033C258.296 141.695 259.5 142.025 260.856 142.025C261.607 142.025 262.309 141.927 262.962 141.731C263.623 141.527 264.215 141.229 264.737 140.837C265.268 140.445 265.713 139.964 266.072 139.392C266.439 138.821 266.693 138.168 266.831 137.433L271.411 137.458C271.24 138.649 270.868 139.768 270.297 140.813C269.733 141.858 268.995 142.78 268.08 143.58C267.166 144.372 266.097 144.993 264.872 145.442C263.647 145.882 262.288 146.103 260.794 146.103C258.59 146.103 256.623 145.593 254.892 144.572C253.161 143.552 251.798 142.078 250.802 140.152C249.806 138.225 249.308 135.915 249.308 133.221C249.308 130.519 249.81 128.208 250.814 126.29C251.818 124.363 253.186 122.89 254.916 121.869C256.647 120.849 258.606 120.338 260.794 120.338C262.19 120.338 263.488 120.534 264.688 120.926C265.888 121.318 266.958 121.894 267.897 122.653C268.835 123.404 269.607 124.326 270.211 125.42C270.823 126.506 271.223 127.747 271.411 129.143ZM280.788 146.14C279.596 146.14 278.523 145.927 277.567 145.503C276.62 145.07 275.869 144.433 275.314 143.593C274.767 142.752 274.494 141.715 274.494 140.482C274.494 139.421 274.69 138.543 275.082 137.849C275.474 137.156 276.008 136.6 276.686 136.184C277.363 135.768 278.127 135.453 278.976 135.241C279.833 135.021 280.719 134.862 281.633 134.764C282.735 134.649 283.629 134.547 284.315 134.457C285 134.359 285.498 134.213 285.809 134.017C286.127 133.813 286.286 133.498 286.286 133.074V133C286.286 132.078 286.013 131.363 285.466 130.857C284.919 130.351 284.131 130.098 283.102 130.098C282.017 130.098 281.155 130.335 280.519 130.808C279.89 131.282 279.466 131.841 279.245 132.486L275.106 131.898C275.433 130.755 275.971 129.8 276.723 129.033C277.474 128.257 278.392 127.678 279.478 127.294C280.564 126.902 281.764 126.706 283.078 126.706C283.984 126.706 284.886 126.812 285.784 127.024C286.682 127.237 287.503 127.588 288.246 128.078C288.988 128.559 289.584 129.216 290.033 130.049C290.491 130.882 290.719 131.923 290.719 133.172V145.76H286.458V143.176H286.311C286.041 143.699 285.662 144.189 285.172 144.646C284.69 145.095 284.082 145.458 283.347 145.736C282.621 146.005 281.768 146.14 280.788 146.14ZM281.939 142.882C282.829 142.882 283.6 142.707 284.253 142.356C284.907 141.997 285.409 141.523 285.76 140.935C286.119 140.348 286.298 139.707 286.298 139.013V136.796C286.16 136.911 285.923 137.017 285.588 137.115C285.262 137.213 284.894 137.298 284.486 137.372C284.078 137.445 283.674 137.511 283.274 137.568C282.874 137.625 282.527 137.674 282.233 137.715C281.572 137.805 280.98 137.951 280.457 138.156C279.935 138.36 279.523 138.645 279.221 139.013C278.919 139.372 278.768 139.837 278.768 140.409C278.768 141.225 279.066 141.841 279.661 142.258C280.257 142.674 281.017 142.882 281.939 142.882ZM303.381 146.127C301.503 146.127 299.891 145.715 298.544 144.891C297.205 144.066 296.172 142.927 295.446 141.474C294.727 140.013 294.368 138.331 294.368 136.429C294.368 134.519 294.736 132.833 295.47 131.372C296.205 129.902 297.242 128.759 298.581 127.943C299.928 127.118 301.52 126.706 303.356 126.706C304.883 126.706 306.234 126.988 307.41 127.551C308.593 128.106 309.536 128.894 310.238 129.914C310.94 130.927 311.34 132.11 311.438 133.466H307.201C307.03 132.559 306.622 131.804 305.977 131.2C305.34 130.588 304.487 130.282 303.418 130.282C302.511 130.282 301.716 130.527 301.03 131.016C300.344 131.498 299.809 132.192 299.426 133.098C299.05 134.004 298.862 135.09 298.862 136.356C298.862 137.637 299.05 138.739 299.426 139.662C299.801 140.576 300.328 141.282 301.005 141.78C301.691 142.27 302.495 142.515 303.418 142.515C304.071 142.515 304.654 142.393 305.169 142.148C305.691 141.895 306.128 141.531 306.479 141.058C306.83 140.584 307.071 140.009 307.201 139.331H311.438C311.332 140.662 310.94 141.841 310.263 142.87C309.585 143.891 308.663 144.691 307.495 145.27C306.328 145.842 304.956 146.127 303.381 146.127ZM320.491 146.14C319.299 146.14 318.225 145.927 317.27 145.503C316.323 145.07 315.572 144.433 315.017 143.593C314.47 142.752 314.197 141.715 314.197 140.482C314.197 139.421 314.393 138.543 314.784 137.849C315.176 137.156 315.711 136.6 316.389 136.184C317.066 135.768 317.83 135.453 318.679 135.241C319.536 135.021 320.421 134.862 321.336 134.764C322.438 134.649 323.332 134.547 324.018 134.457C324.703 134.359 325.201 134.213 325.511 134.017C325.83 133.813 325.989 133.498 325.989 133.074V133C325.989 132.078 325.716 131.363 325.169 130.857C324.622 130.351 323.834 130.098 322.805 130.098C321.719 130.098 320.858 130.335 320.221 130.808C319.593 131.282 319.168 131.841 318.948 132.486L314.809 131.898C315.136 130.755 315.674 129.8 316.425 129.033C317.176 128.257 318.095 127.678 319.181 127.294C320.266 126.902 321.466 126.706 322.781 126.706C323.687 126.706 324.589 126.812 325.487 127.024C326.385 127.237 327.205 127.588 327.948 128.078C328.691 128.559 329.287 129.216 329.736 130.049C330.193 130.882 330.422 131.923 330.422 133.172V145.76H326.161V143.176H326.014C325.744 143.699 325.365 144.189 324.875 144.646C324.393 145.095 323.785 145.458 323.05 145.736C322.324 146.005 321.471 146.14 320.491 146.14ZM321.642 142.882C322.532 142.882 323.303 142.707 323.956 142.356C324.609 141.997 325.111 141.523 325.463 140.935C325.822 140.348 326.001 139.707 326.001 139.013V136.796C325.863 136.911 325.626 137.017 325.291 137.115C324.965 137.213 324.597 137.298 324.189 137.372C323.781 137.445 323.377 137.511 322.977 137.568C322.577 137.625 322.23 137.674 321.936 137.715C321.275 137.805 320.683 137.951 320.16 138.156C319.638 138.36 319.226 138.645 318.923 139.013C318.621 139.372 318.47 139.837 318.47 140.409C318.47 141.225 318.768 141.841 319.364 142.258C319.96 142.674 320.719 142.882 321.642 142.882ZM343.084 146.127C341.247 146.127 339.655 145.723 338.308 144.915C336.961 144.107 335.916 142.976 335.173 141.523C334.438 140.07 334.071 138.372 334.071 136.429C334.071 134.486 334.438 132.784 335.173 131.323C335.916 129.861 336.961 128.727 338.308 127.918C339.655 127.11 341.247 126.706 343.084 126.706C344.921 126.706 346.512 127.11 347.859 127.918C349.206 128.727 350.247 129.861 350.982 131.323C351.725 132.784 352.096 134.486 352.096 136.429C352.096 138.372 351.725 140.07 350.982 141.523C350.247 142.976 349.206 144.107 347.859 144.915C346.512 145.723 344.921 146.127 343.084 146.127ZM343.108 142.576C344.104 142.576 344.937 142.303 345.606 141.756C346.276 141.201 346.774 140.458 347.1 139.527C347.435 138.596 347.602 137.56 347.602 136.417C347.602 135.266 347.435 134.225 347.1 133.294C346.774 132.355 346.276 131.608 345.606 131.053C344.937 130.498 344.104 130.221 343.108 130.221C342.088 130.221 341.239 130.498 340.561 131.053C339.892 131.608 339.39 132.355 339.055 133.294C338.728 134.225 338.565 135.266 338.565 136.417C338.565 137.56 338.728 138.596 339.055 139.527C339.39 140.458 339.892 141.201 340.561 141.756C341.239 142.303 342.088 142.576 343.108 142.576ZM373.804 126.951V130.38H362.992V126.951H373.804ZM365.661 122.445H370.094V140.103C370.094 140.699 370.184 141.156 370.364 141.474C370.551 141.784 370.796 141.997 371.098 142.111C371.4 142.225 371.735 142.282 372.102 142.282C372.38 142.282 372.633 142.262 372.862 142.221C373.098 142.18 373.278 142.144 373.4 142.111L374.147 145.576C373.911 145.658 373.572 145.748 373.131 145.846C372.698 145.944 372.168 146.001 371.539 146.017C370.429 146.05 369.429 145.882 368.539 145.515C367.649 145.14 366.943 144.56 366.42 143.776C365.906 142.993 365.653 142.013 365.661 140.837V122.445ZM385.514 146.127C383.677 146.127 382.085 145.723 380.738 144.915C379.391 144.107 378.347 142.976 377.604 141.523C376.869 140.07 376.502 138.372 376.502 136.429C376.502 134.486 376.869 132.784 377.604 131.323C378.347 129.861 379.391 128.727 380.738 127.918C382.085 127.11 383.677 126.706 385.514 126.706C387.351 126.706 388.943 127.11 390.29 127.918C391.637 128.727 392.678 129.861 393.413 131.323C394.155 132.784 394.527 134.486 394.527 136.429C394.527 138.372 394.155 140.07 393.413 141.523C392.678 142.976 391.637 144.107 390.29 144.915C388.943 145.723 387.351 146.127 385.514 146.127ZM385.539 142.576C386.535 142.576 387.367 142.303 388.037 141.756C388.706 141.201 389.204 140.458 389.531 139.527C389.865 138.596 390.033 137.56 390.033 136.417C390.033 135.266 389.865 134.225 389.531 133.294C389.204 132.355 388.706 131.608 388.037 131.053C387.367 130.498 386.535 130.221 385.539 130.221C384.518 130.221 383.669 130.498 382.992 131.053C382.322 131.608 381.82 132.355 381.485 133.294C381.159 134.225 380.996 135.266 380.996 136.417C380.996 137.56 381.159 138.596 381.485 139.527C381.82 140.458 382.322 141.201 382.992 141.756C383.669 142.303 384.518 142.576 385.539 142.576ZM416.235 126.951V130.38H405.422V126.951H416.235ZM408.092 122.445H412.525V140.103C412.525 140.699 412.614 141.156 412.794 141.474C412.982 141.784 413.227 141.997 413.529 142.111C413.831 142.225 414.165 142.282 414.533 142.282C414.81 142.282 415.063 142.262 415.292 142.221C415.529 142.18 415.708 142.144 415.831 142.111L416.578 145.576C416.341 145.658 416.002 145.748 415.561 145.846C415.129 145.944 414.598 146.001 413.97 146.017C412.859 146.05 411.859 145.882 410.969 145.515C410.08 145.14 409.373 144.56 408.851 143.776C408.337 142.993 408.084 142.013 408.092 140.837V122.445ZM425.355 146.14C424.163 146.14 423.089 145.927 422.134 145.503C421.187 145.07 420.436 144.433 419.881 143.593C419.334 142.752 419.061 141.715 419.061 140.482C419.061 139.421 419.257 138.543 419.648 137.849C420.04 137.156 420.575 136.6 421.253 136.184C421.93 135.768 422.693 135.453 423.542 135.241C424.4 135.021 425.285 134.862 426.2 134.764C427.302 134.649 428.196 134.547 428.881 134.457C429.567 134.359 430.065 134.213 430.375 134.017C430.694 133.813 430.853 133.498 430.853 133.074V133C430.853 132.078 430.579 131.363 430.033 130.857C429.486 130.351 428.698 130.098 427.669 130.098C426.583 130.098 425.722 130.335 425.085 130.808C424.457 131.282 424.032 131.841 423.812 132.486L419.673 131.898C419.999 130.755 420.538 129.8 421.289 129.033C422.04 128.257 422.959 127.678 424.044 127.294C425.13 126.902 426.33 126.706 427.645 126.706C428.551 126.706 429.453 126.812 430.351 127.024C431.249 127.237 432.069 127.588 432.812 128.078C433.555 128.559 434.151 129.216 434.6 130.049C435.057 130.882 435.286 131.923 435.286 133.172V145.76H431.024V143.176H430.877C430.608 143.699 430.228 144.189 429.739 144.646C429.257 145.095 428.649 145.458 427.914 145.736C427.187 146.005 426.334 146.14 425.355 146.14ZM426.506 142.882C427.396 142.882 428.167 142.707 428.82 142.356C429.473 141.997 429.975 141.523 430.326 140.935C430.686 140.348 430.865 139.707 430.865 139.013V136.796C430.726 136.911 430.49 137.017 430.155 137.115C429.828 137.213 429.461 137.298 429.053 137.372C428.645 137.445 428.241 137.511 427.841 137.568C427.441 137.625 427.094 137.674 426.8 137.715C426.138 137.805 425.547 137.951 425.024 138.156C424.502 138.36 424.089 138.645 423.787 139.013C423.485 139.372 423.334 139.837 423.334 140.409C423.334 141.225 423.632 141.841 424.228 142.258C424.824 142.674 425.583 142.882 426.506 142.882ZM443.784 139.858L443.772 134.506H444.482L451.242 126.951H456.421L448.107 136.209H447.188L443.784 139.858ZM439.743 145.76V120.681H444.176V145.76H439.743ZM451.548 145.76L445.425 137.2L448.413 134.078L456.85 145.76H451.548ZM466.928 146.127C465.042 146.127 463.414 145.736 462.042 144.952C460.679 144.16 459.63 143.042 458.895 141.597C458.16 140.143 457.793 138.433 457.793 136.466C457.793 134.531 458.16 132.833 458.895 131.372C459.638 129.902 460.675 128.759 462.005 127.943C463.336 127.118 464.899 126.706 466.695 126.706C467.855 126.706 468.949 126.894 469.977 127.269C471.014 127.637 471.928 128.208 472.72 128.984C473.52 129.759 474.149 130.747 474.606 131.947C475.063 133.139 475.292 134.56 475.292 136.209V137.568H459.875V134.58H471.043C471.034 133.731 470.851 132.976 470.492 132.315C470.132 131.645 469.63 131.119 468.985 130.735C468.349 130.351 467.606 130.159 466.757 130.159C465.851 130.159 465.055 130.38 464.369 130.821C463.683 131.253 463.148 131.825 462.765 132.535C462.389 133.237 462.197 134.008 462.189 134.849V137.458C462.189 138.552 462.389 139.49 462.789 140.274C463.189 141.05 463.748 141.646 464.467 142.062C465.185 142.47 466.026 142.674 466.989 142.674C467.634 142.674 468.218 142.584 468.74 142.405C469.263 142.217 469.716 141.944 470.1 141.584C470.483 141.225 470.773 140.78 470.969 140.25L475.108 140.715C474.847 141.809 474.349 142.764 473.614 143.58C472.888 144.389 471.957 145.017 470.822 145.466C469.687 145.907 468.389 146.127 466.928 146.127ZM71.5913 204.813V178.951H75.9507V182.061H76.2079C76.4364 181.604 76.7589 181.118 77.1753 180.604C77.5916 180.082 78.1549 179.637 78.8651 179.269C79.5754 178.894 80.4815 178.706 81.5836 178.706C83.0367 178.706 84.347 179.078 85.5144 179.82C86.69 180.555 87.6206 181.645 88.3064 183.09C89.0003 184.527 89.3472 186.29 89.3472 188.38C89.3472 190.445 89.0084 192.201 88.3309 193.646C87.6533 195.091 86.7308 196.193 85.5634 196.952C84.396 197.711 83.0735 198.091 81.5959 198.091C80.5183 198.091 79.6243 197.911 78.9141 197.552C78.2039 197.193 77.6324 196.76 77.1997 196.254C76.7752 195.74 76.4446 195.254 76.2079 194.797H76.0242V204.813H71.5913ZM75.9385 188.356C75.9385 189.572 76.1099 190.637 76.4528 191.552C76.8038 192.466 77.3059 193.18 77.959 193.695C78.6202 194.201 79.4203 194.454 80.3591 194.454C81.3387 194.454 82.1592 194.193 82.8204 193.67C83.4817 193.139 83.9796 192.417 84.3144 191.503C84.6572 190.58 84.8287 189.531 84.8287 188.356C84.8287 187.188 84.6613 186.151 84.3266 185.245C83.9919 184.339 83.4939 183.629 82.8327 183.114C82.1714 182.6 81.3469 182.343 80.3591 182.343C79.4121 182.343 78.608 182.592 77.9467 183.09C77.2855 183.588 76.7834 184.286 76.4405 185.184C76.1058 186.082 75.9385 187.139 75.9385 188.356ZM93.1433 197.76V178.951H97.5762V197.76H93.1433ZM95.372 176.281C94.6699 176.281 94.0658 176.049 93.5597 175.583C93.0535 175.11 92.8005 174.543 92.8005 173.881C92.8005 173.212 93.0535 172.645 93.5597 172.179C94.0658 171.706 94.6699 171.469 95.372 171.469C96.0822 171.469 96.6863 171.706 97.1843 172.179C97.6905 172.645 97.9435 173.212 97.9435 173.881C97.9435 174.543 97.6905 175.11 97.1843 175.583C96.6863 176.049 96.0822 176.281 95.372 176.281ZM110.339 198.127C108.461 198.127 106.849 197.715 105.502 196.891C104.163 196.066 103.131 194.927 102.404 193.474C101.686 192.013 101.326 190.331 101.326 188.429C101.326 186.519 101.694 184.833 102.428 183.372C103.163 181.902 104.2 180.759 105.539 179.943C106.886 179.118 108.478 178.706 110.315 178.706C111.841 178.706 113.192 178.988 114.368 179.551C115.551 180.106 116.494 180.894 117.196 181.914C117.899 182.927 118.299 184.11 118.397 185.466H114.16C113.988 184.559 113.58 183.804 112.935 183.2C112.298 182.588 111.445 182.282 110.376 182.282C109.47 182.282 108.674 182.527 107.988 183.016C107.302 183.498 106.767 184.192 106.384 185.098C106.008 186.004 105.82 187.09 105.82 188.356C105.82 189.637 106.008 190.739 106.384 191.662C106.759 192.576 107.286 193.282 107.963 193.78C108.649 194.27 109.453 194.515 110.376 194.515C111.029 194.515 111.613 194.393 112.127 194.148C112.649 193.895 113.086 193.531 113.437 193.058C113.788 192.584 114.029 192.009 114.16 191.331H118.397C118.29 192.662 117.899 193.841 117.221 194.87C116.543 195.891 115.621 196.691 114.453 197.27C113.286 197.842 111.915 198.127 110.339 198.127ZM131.429 178.951V182.38H120.616V178.951H131.429ZM123.286 174.445H127.718V192.103C127.718 192.699 127.808 193.156 127.988 193.474C128.176 193.784 128.42 193.997 128.722 194.111C129.025 194.225 129.359 194.282 129.727 194.282C130.004 194.282 130.257 194.262 130.486 194.221C130.723 194.18 130.902 194.144 131.025 194.111L131.772 197.576C131.535 197.658 131.196 197.748 130.755 197.846C130.323 197.944 129.792 198.001 129.163 198.017C128.053 198.05 127.053 197.882 126.163 197.515C125.273 197.14 124.567 196.56 124.045 195.776C123.53 194.993 123.277 194.013 123.286 192.837V174.445ZM147.124 189.849V178.951H151.557V197.76H147.259V194.417H147.063C146.639 195.47 145.941 196.331 144.969 197.001C144.006 197.67 142.818 198.005 141.406 198.005C140.173 198.005 139.083 197.731 138.136 197.184C137.197 196.629 136.463 195.825 135.932 194.772C135.401 193.711 135.136 192.429 135.136 190.927V178.951H139.569V190.241C139.569 191.433 139.895 192.38 140.549 193.082C141.202 193.784 142.059 194.135 143.12 194.135C143.773 194.135 144.406 193.976 145.018 193.658C145.63 193.339 146.132 192.866 146.524 192.237C146.924 191.601 147.124 190.805 147.124 189.849ZM156.116 197.76V178.951H160.414V182.086H160.61C160.953 181 161.54 180.163 162.373 179.576C163.214 178.98 164.173 178.682 165.251 178.682C165.496 178.682 165.769 178.694 166.071 178.718C166.381 178.735 166.638 178.763 166.843 178.804V182.882C166.655 182.816 166.357 182.759 165.949 182.71C165.549 182.653 165.161 182.625 164.785 182.625C163.977 182.625 163.251 182.8 162.606 183.151C161.969 183.494 161.467 183.972 161.099 184.584C160.732 185.196 160.548 185.902 160.548 186.702V197.76H156.116ZM177.34 198.127C175.454 198.127 173.826 197.736 172.454 196.952C171.091 196.16 170.042 195.042 169.307 193.597C168.572 192.143 168.205 190.433 168.205 188.466C168.205 186.531 168.572 184.833 169.307 183.372C170.05 181.902 171.087 180.759 172.417 179.943C173.748 179.118 175.311 178.706 177.107 178.706C178.267 178.706 179.36 178.894 180.389 179.269C181.426 179.637 182.34 180.208 183.132 180.984C183.932 181.759 184.561 182.747 185.018 183.947C185.475 185.139 185.704 186.56 185.704 188.209V189.568H170.287V186.58H181.454C181.446 185.731 181.263 184.976 180.903 184.315C180.544 183.645 180.042 183.119 179.397 182.735C178.76 182.351 178.018 182.159 177.169 182.159C176.262 182.159 175.466 182.38 174.781 182.821C174.095 183.253 173.56 183.825 173.177 184.535C172.801 185.237 172.609 186.008 172.601 186.849V189.458C172.601 190.552 172.801 191.49 173.201 192.274C173.601 193.05 174.16 193.646 174.879 194.062C175.597 194.47 176.438 194.674 177.401 194.674C178.046 194.674 178.63 194.584 179.152 194.405C179.675 194.217 180.128 193.944 180.512 193.584C180.895 193.225 181.185 192.78 181.381 192.25L185.52 192.715C185.259 193.809 184.761 194.764 184.026 195.58C183.299 196.389 182.369 197.017 181.234 197.466C180.099 197.907 178.801 198.127 177.34 198.127ZM204.32 183.923L200.279 184.363C200.164 183.955 199.964 183.572 199.679 183.212C199.401 182.853 199.026 182.563 198.552 182.343C198.079 182.123 197.499 182.012 196.813 182.012C195.891 182.012 195.115 182.212 194.487 182.612C193.866 183.012 193.56 183.531 193.568 184.168C193.56 184.715 193.76 185.159 194.168 185.502C194.585 185.845 195.27 186.127 196.226 186.347L199.434 187.033C201.214 187.417 202.536 188.025 203.401 188.858C204.275 189.69 204.716 190.78 204.724 192.127C204.716 193.311 204.369 194.356 203.683 195.262C203.005 196.16 202.063 196.862 200.854 197.368C199.646 197.874 198.258 198.127 196.691 198.127C194.389 198.127 192.536 197.646 191.131 196.682C189.727 195.711 188.891 194.36 188.621 192.629L192.944 192.213C193.14 193.062 193.556 193.703 194.193 194.135C194.83 194.568 195.658 194.784 196.679 194.784C197.732 194.784 198.577 194.568 199.213 194.135C199.858 193.703 200.181 193.168 200.181 192.531C200.181 191.992 199.973 191.547 199.556 191.196C199.148 190.845 198.511 190.576 197.646 190.388L194.438 189.715C192.634 189.339 191.299 188.707 190.433 187.817C189.568 186.919 189.14 185.784 189.148 184.412C189.14 183.253 189.454 182.249 190.091 181.4C190.735 180.543 191.629 179.882 192.772 179.416C193.923 178.943 195.25 178.706 196.752 178.706C198.956 178.706 200.691 179.175 201.956 180.114C203.23 181.053 204.018 182.323 204.32 183.923ZM222.345 198.14C221.153 198.14 220.08 197.927 219.125 197.503C218.178 197.07 217.426 196.433 216.871 195.593C216.324 194.752 216.051 193.715 216.051 192.482C216.051 191.421 216.247 190.543 216.639 189.849C217.031 189.156 217.565 188.6 218.243 188.184C218.92 187.768 219.684 187.453 220.533 187.241C221.39 187.021 222.276 186.862 223.19 186.764C224.292 186.649 225.186 186.547 225.872 186.457C226.558 186.359 227.055 186.213 227.366 186.017C227.684 185.813 227.843 185.498 227.843 185.074V185C227.843 184.078 227.57 183.363 227.023 182.857C226.476 182.351 225.688 182.098 224.659 182.098C223.574 182.098 222.712 182.335 222.076 182.808C221.447 183.282 221.023 183.841 220.802 184.486L216.663 183.898C216.99 182.755 217.529 181.8 218.28 181.033C219.031 180.257 219.949 179.678 221.035 179.294C222.121 178.902 223.321 178.706 224.635 178.706C225.541 178.706 226.443 178.812 227.341 179.024C228.239 179.237 229.06 179.588 229.803 180.078C230.545 180.559 231.141 181.216 231.59 182.049C232.048 182.882 232.276 183.923 232.276 185.172V197.76H228.015V195.176H227.868C227.598 195.699 227.219 196.189 226.729 196.646C226.247 197.095 225.639 197.458 224.904 197.736C224.178 198.005 223.325 198.14 222.345 198.14ZM223.496 194.882C224.386 194.882 225.157 194.707 225.811 194.356C226.464 193.997 226.966 193.523 227.317 192.935C227.676 192.348 227.856 191.707 227.856 191.013V188.796C227.717 188.911 227.48 189.017 227.145 189.115C226.819 189.213 226.451 189.298 226.043 189.372C225.635 189.445 225.231 189.511 224.831 189.568C224.431 189.625 224.084 189.674 223.79 189.715C223.129 189.805 222.537 189.951 222.014 190.156C221.492 190.36 221.08 190.645 220.778 191.013C220.476 191.372 220.325 191.837 220.325 192.409C220.325 193.225 220.623 193.841 221.219 194.258C221.814 194.674 222.574 194.882 223.496 194.882ZM241.166 186.739V197.76H236.733V178.951H240.97V182.147H241.191C241.624 181.094 242.313 180.257 243.26 179.637C244.215 179.016 245.395 178.706 246.799 178.706C248.097 178.706 249.228 178.984 250.191 179.539C251.163 180.094 251.914 180.898 252.444 181.951C252.983 183.004 253.249 184.282 253.24 185.784V197.76H248.808V186.47C248.808 185.213 248.481 184.229 247.828 183.519C247.183 182.808 246.289 182.453 245.146 182.453C244.371 182.453 243.681 182.625 243.077 182.968C242.481 183.302 242.011 183.788 241.668 184.425C241.334 185.061 241.166 185.833 241.166 186.739ZM264.727 198.091C263.249 198.091 261.926 197.711 260.759 196.952C259.592 196.193 258.669 195.091 257.992 193.646C257.314 192.201 256.975 190.445 256.975 188.38C256.975 186.29 257.318 184.527 258.004 183.09C258.698 181.645 259.632 180.555 260.808 179.82C261.984 179.078 263.294 178.706 264.739 178.706C265.841 178.706 266.747 178.894 267.457 179.269C268.168 179.637 268.731 180.082 269.147 180.604C269.564 181.118 269.886 181.604 270.115 182.061H270.298V172.681H274.743V197.76H270.384V194.797H270.115C269.886 195.254 269.555 195.74 269.123 196.254C268.69 196.76 268.119 197.193 267.408 197.552C266.698 197.911 265.804 198.091 264.727 198.091ZM265.963 194.454C266.902 194.454 267.702 194.201 268.364 193.695C269.025 193.18 269.527 192.466 269.87 191.552C270.213 190.637 270.384 189.572 270.384 188.356C270.384 187.139 270.213 186.082 269.87 185.184C269.535 184.286 269.037 183.588 268.376 183.09C267.723 182.592 266.919 182.343 265.963 182.343C264.976 182.343 264.151 182.6 263.49 183.114C262.829 183.629 262.331 184.339 261.996 185.245C261.661 186.151 261.494 187.188 261.494 188.356C261.494 189.531 261.661 190.58 261.996 191.503C262.339 192.417 262.841 193.139 263.502 193.67C264.171 194.193 264.992 194.454 265.963 194.454ZM288.02 197.76V178.951H292.319V182.086H292.515C292.857 181 293.445 180.163 294.278 179.576C295.119 178.98 296.078 178.682 297.156 178.682C297.401 178.682 297.674 178.694 297.976 178.718C298.286 178.735 298.543 178.763 298.748 178.804V182.882C298.56 182.816 298.262 182.759 297.854 182.71C297.454 182.653 297.066 182.625 296.69 182.625C295.882 182.625 295.156 182.8 294.511 183.151C293.874 183.494 293.372 183.972 293.004 184.584C292.637 185.196 292.453 185.902 292.453 186.702V197.76H288.02ZM309.245 198.127C307.359 198.127 305.73 197.736 304.359 196.952C302.996 196.16 301.947 195.042 301.212 193.597C300.477 192.143 300.11 190.433 300.11 188.466C300.11 186.531 300.477 184.833 301.212 183.372C301.955 181.902 302.992 180.759 304.322 179.943C305.653 179.118 307.216 178.706 309.012 178.706C310.172 178.706 311.265 178.894 312.294 179.269C313.331 179.637 314.245 180.208 315.037 180.984C315.837 181.759 316.466 182.747 316.923 183.947C317.38 185.139 317.609 186.56 317.609 188.209V189.568H302.192V186.58H313.359C313.351 185.731 313.168 184.976 312.808 184.315C312.449 183.645 311.947 183.119 311.302 182.735C310.665 182.351 309.923 182.159 309.074 182.159C308.167 182.159 307.371 182.38 306.686 182.821C306 183.253 305.465 183.825 305.081 184.535C304.706 185.237 304.514 186.008 304.506 186.849V189.458C304.506 190.552 304.706 191.49 305.106 192.274C305.506 193.05 306.065 193.646 306.784 194.062C307.502 194.47 308.343 194.674 309.306 194.674C309.951 194.674 310.535 194.584 311.057 194.405C311.58 194.217 312.033 193.944 312.417 193.584C312.8 193.225 313.09 192.78 313.286 192.25L317.425 192.715C317.164 193.809 316.666 194.764 315.931 195.58C315.204 196.389 314.274 197.017 313.139 197.466C312.004 197.907 310.706 198.127 309.245 198.127ZM329.563 198.127C327.686 198.127 326.073 197.715 324.726 196.891C323.387 196.066 322.355 194.927 321.628 193.474C320.91 192.013 320.551 190.331 320.551 188.429C320.551 186.519 320.918 184.833 321.653 183.372C322.387 181.902 323.424 180.759 324.763 179.943C326.11 179.118 327.702 178.706 329.539 178.706C331.065 178.706 332.416 178.988 333.592 179.551C334.776 180.106 335.719 180.894 336.421 181.914C337.123 182.927 337.523 184.11 337.621 185.466H333.384C333.212 184.559 332.804 183.804 332.159 183.2C331.522 182.588 330.669 182.282 329.6 182.282C328.694 182.282 327.898 182.527 327.212 183.016C326.526 183.498 325.992 184.192 325.608 185.098C325.232 186.004 325.045 187.09 325.045 188.356C325.045 189.637 325.232 190.739 325.608 191.662C325.983 192.576 326.51 193.282 327.188 193.78C327.873 194.27 328.677 194.515 329.6 194.515C330.253 194.515 330.837 194.393 331.351 194.148C331.874 193.895 332.31 193.531 332.661 193.058C333.012 192.584 333.253 192.009 333.384 191.331H337.621C337.515 192.662 337.123 193.841 336.445 194.87C335.768 195.891 334.845 196.691 333.678 197.27C332.51 197.842 331.139 198.127 329.563 198.127ZM349.465 198.127C347.628 198.127 346.036 197.723 344.689 196.915C343.342 196.107 342.297 194.976 341.555 193.523C340.82 192.07 340.452 190.372 340.452 188.429C340.452 186.486 340.82 184.784 341.555 183.323C342.297 181.861 343.342 180.727 344.689 179.918C346.036 179.11 347.628 178.706 349.465 178.706C351.302 178.706 352.894 179.11 354.241 179.918C355.588 180.727 356.629 181.861 357.363 183.323C358.106 184.784 358.478 186.486 358.478 188.429C358.478 190.372 358.106 192.07 357.363 193.523C356.629 194.976 355.588 196.107 354.241 196.915C352.894 197.723 351.302 198.127 349.465 198.127ZM349.49 194.576C350.486 194.576 351.318 194.303 351.988 193.756C352.657 193.201 353.155 192.458 353.482 191.527C353.816 190.596 353.984 189.56 353.984 188.417C353.984 187.266 353.816 186.225 353.482 185.294C353.155 184.355 352.657 183.608 351.988 183.053C351.318 182.498 350.486 182.221 349.49 182.221C348.469 182.221 347.62 182.498 346.943 183.053C346.273 183.608 345.771 184.355 345.436 185.294C345.11 186.225 344.947 187.266 344.947 188.417C344.947 189.56 345.11 190.596 345.436 191.527C345.771 192.458 346.273 193.201 346.943 193.756C347.62 194.303 348.469 194.576 349.49 194.576ZM362.24 197.76V178.951H366.538V182.086H366.734C367.077 181 367.665 180.163 368.498 179.576C369.338 178.98 370.298 178.682 371.375 178.682C371.62 178.682 371.894 178.694 372.196 178.718C372.506 178.735 372.763 178.763 372.967 178.804V182.882C372.779 182.816 372.481 182.759 372.073 182.71C371.673 182.653 371.285 182.625 370.91 182.625C370.102 182.625 369.375 182.8 368.73 183.151C368.094 183.494 367.591 183.972 367.224 184.584C366.857 185.196 366.673 185.902 366.673 186.702V197.76H362.24ZM382.118 198.091C380.64 198.091 379.317 197.711 378.15 196.952C376.983 196.193 376.06 195.091 375.383 193.646C374.705 192.201 374.366 190.445 374.366 188.38C374.366 186.29 374.709 184.527 375.395 183.09C376.089 181.645 377.024 180.555 378.199 179.82C379.375 179.078 380.685 178.706 382.13 178.706C383.232 178.706 384.138 178.894 384.848 179.269C385.559 179.637 386.122 180.082 386.538 180.604C386.955 181.118 387.277 181.604 387.506 182.061H387.689V172.681H392.134V197.76H387.775V194.797H387.506C387.277 195.254 386.946 195.74 386.514 196.254C386.081 196.76 385.51 197.193 384.799 197.552C384.089 197.911 383.195 198.091 382.118 198.091ZM383.354 194.454C384.293 194.454 385.093 194.201 385.755 193.695C386.416 193.18 386.918 192.466 387.261 191.552C387.604 190.637 387.775 189.572 387.775 188.356C387.775 187.139 387.604 186.082 387.261 185.184C386.926 184.286 386.428 183.588 385.767 183.09C385.114 182.592 384.31 182.343 383.354 182.343C382.367 182.343 381.542 182.6 380.881 183.114C380.22 183.629 379.722 184.339 379.387 185.245C379.052 186.151 378.885 187.188 378.885 188.356C378.885 189.531 379.052 190.58 379.387 191.503C379.73 192.417 380.232 193.139 380.893 193.67C381.562 194.193 382.383 194.454 383.354 194.454ZM422.212 178.951L415.514 197.76H410.616L403.918 178.951H408.644L412.967 192.923H413.163L417.498 178.951H422.212ZM425.28 197.76V178.951H429.713V197.76H425.28ZM427.508 176.281C426.806 176.281 426.202 176.049 425.696 175.583C425.19 175.11 424.937 174.543 424.937 173.881C424.937 173.212 425.19 172.645 425.696 172.179C426.202 171.706 426.806 171.469 427.508 171.469C428.219 171.469 428.823 171.706 429.321 172.179C429.827 172.645 430.08 173.212 430.08 173.881C430.08 174.543 429.827 175.11 429.321 175.583C428.823 176.049 428.219 176.281 427.508 176.281ZM441.251 198.091C439.773 198.091 438.451 197.711 437.283 196.952C436.116 196.193 435.193 195.091 434.516 193.646C433.838 192.201 433.5 190.445 433.5 188.38C433.5 186.29 433.842 184.527 434.528 183.09C435.222 181.645 436.157 180.555 437.332 179.82C438.508 179.078 439.818 178.706 441.263 178.706C442.365 178.706 443.271 178.894 443.982 179.269C444.692 179.637 445.255 180.082 445.672 180.604C446.088 181.118 446.41 181.604 446.639 182.061H446.823V172.681H451.268V197.76H446.908V194.797H446.639C446.41 195.254 446.08 195.74 445.647 196.254C445.214 196.76 444.643 197.193 443.933 197.552C443.222 197.911 442.329 198.091 441.251 198.091ZM442.488 194.454C443.427 194.454 444.227 194.201 444.888 193.695C445.549 193.18 446.051 192.466 446.394 191.552C446.737 190.637 446.908 189.572 446.908 188.356C446.908 187.139 446.737 186.082 446.394 185.184C446.059 184.286 445.561 183.588 444.9 183.09C444.247 182.592 443.443 182.343 442.488 182.343C441.5 182.343 440.675 182.6 440.014 183.114C439.353 183.629 438.855 184.339 438.52 185.245C438.185 186.151 438.018 187.188 438.018 188.356C438.018 189.531 438.185 190.58 438.52 191.503C438.863 192.417 439.365 193.139 440.026 193.67C440.696 194.193 441.516 194.454 442.488 194.454ZM464.318 198.127C462.432 198.127 460.804 197.736 459.432 196.952C458.069 196.16 457.02 195.042 456.285 193.597C455.551 192.143 455.183 190.433 455.183 188.466C455.183 186.531 455.551 184.833 456.285 183.372C457.028 181.902 458.065 180.759 459.396 179.943C460.726 179.118 462.29 178.706 464.086 178.706C465.245 178.706 466.339 178.894 467.367 179.269C468.404 179.637 469.318 180.208 470.11 180.984C470.91 181.759 471.539 182.747 471.996 183.947C472.453 185.139 472.682 186.56 472.682 188.209V189.568H457.265V186.58H468.433C468.425 185.731 468.241 184.976 467.882 184.315C467.522 183.645 467.02 183.119 466.375 182.735C465.739 182.351 464.996 182.159 464.147 182.159C463.241 182.159 462.445 182.38 461.759 182.821C461.073 183.253 460.538 183.825 460.155 184.535C459.779 185.237 459.587 186.008 459.579 186.849V189.458C459.579 190.552 459.779 191.49 460.179 192.274C460.579 193.05 461.139 193.646 461.857 194.062C462.575 194.47 463.416 194.674 464.379 194.674C465.024 194.674 465.608 194.584 466.131 194.405C466.653 194.217 467.106 193.944 467.49 193.584C467.874 193.225 468.163 192.78 468.359 192.25L472.498 192.715C472.237 193.809 471.739 194.764 471.004 195.58C470.278 196.389 469.347 197.017 468.212 197.466C467.078 197.907 465.78 198.127 464.318 198.127ZM484.637 198.127C482.8 198.127 481.208 197.723 479.861 196.915C478.514 196.107 477.469 194.976 476.726 193.523C475.991 192.07 475.624 190.372 475.624 188.429C475.624 186.486 475.991 184.784 476.726 183.323C477.469 181.861 478.514 180.727 479.861 179.918C481.208 179.11 482.8 178.706 484.637 178.706C486.473 178.706 488.065 179.11 489.412 179.918C490.759 180.727 491.8 181.861 492.535 183.323C493.278 184.784 493.649 186.486 493.649 188.429C493.649 190.372 493.278 192.07 492.535 193.523C491.8 194.976 490.759 196.107 489.412 196.915C488.065 197.723 486.473 198.127 484.637 198.127ZM484.661 194.576C485.657 194.576 486.49 194.303 487.159 193.756C487.829 193.201 488.326 192.458 488.653 191.527C488.988 190.596 489.155 189.56 489.155 188.417C489.155 187.266 488.988 186.225 488.653 185.294C488.326 184.355 487.829 183.608 487.159 183.053C486.49 182.498 485.657 182.221 484.661 182.221C483.641 182.221 482.792 182.498 482.114 183.053C481.445 183.608 480.942 184.355 480.608 185.294C480.281 186.225 480.118 187.266 480.118 188.417C480.118 189.56 480.281 190.596 480.608 191.527C480.942 192.458 481.445 193.201 482.114 193.756C482.792 194.303 483.641 194.576 484.661 194.576ZM501.649 190.388V190.07C501.657 188.592 501.795 187.417 502.065 186.543C502.342 185.67 502.734 184.968 503.24 184.437C503.747 183.898 504.363 183.404 505.09 182.955C505.588 182.645 506.032 182.306 506.424 181.939C506.824 181.563 507.139 181.147 507.367 180.69C507.596 180.225 507.71 179.706 507.71 179.135C507.71 178.49 507.559 177.931 507.257 177.457C506.955 176.984 506.547 176.616 506.032 176.355C505.526 176.094 504.959 175.963 504.33 175.963C503.751 175.963 503.2 176.09 502.677 176.343C502.163 176.588 501.734 176.963 501.391 177.469C501.057 177.967 500.869 178.6 500.828 179.367H496.469C496.51 177.816 496.885 176.518 497.595 175.473C498.314 174.428 499.261 173.645 500.436 173.122C501.62 172.6 502.926 172.338 504.355 172.338C505.914 172.338 507.286 172.612 508.469 173.159C509.661 173.706 510.588 174.485 511.249 175.498C511.918 176.502 512.253 177.694 512.253 179.073C512.253 180.004 512.102 180.837 511.8 181.572C511.506 182.306 511.086 182.959 510.539 183.531C509.992 184.102 509.343 184.612 508.592 185.061C507.93 185.47 507.388 185.894 506.963 186.335C506.547 186.776 506.237 187.294 506.032 187.89C505.836 188.478 505.734 189.205 505.726 190.07V190.388H501.649ZM503.779 198.029C503.045 198.029 502.412 197.768 501.881 197.246C501.351 196.723 501.085 196.086 501.085 195.335C501.085 194.601 501.351 193.972 501.881 193.45C502.412 192.927 503.045 192.666 503.779 192.666C504.506 192.666 505.134 192.927 505.665 193.45C506.204 193.972 506.473 194.601 506.473 195.335C506.473 195.833 506.347 196.286 506.094 196.695C505.849 197.103 505.522 197.429 505.114 197.674C504.714 197.911 504.269 198.029 503.779 198.029Z" fill="black"/>
<rect x="0.650391" y="246.243" width="581.904" height="1.0776" fill="#3C3C43" fill-opacity="0.29"/>
<path d="M157.348 306.873H154.164L163.373 281.794H166.507L175.716 306.873H172.532L165.038 285.762H164.842L157.348 306.873ZM158.523 297.076H171.357V299.77H158.523V297.076ZM182.12 281.794V306.873H179.23V281.794H182.12ZM190.303 281.794V306.873H187.413V281.794H190.303ZM203.238 307.265C201.54 307.265 200.05 306.861 198.768 306.052C197.494 305.244 196.499 304.113 195.78 302.66C195.07 301.207 194.715 299.509 194.715 297.566C194.715 295.607 195.07 293.897 195.78 292.435C196.499 290.974 197.494 289.839 198.768 289.031C200.05 288.223 201.54 287.819 203.238 287.819C204.936 287.819 206.421 288.223 207.695 289.031C208.977 289.839 209.973 290.974 210.683 292.435C211.401 293.897 211.76 295.607 211.76 297.566C211.76 299.509 211.401 301.207 210.683 302.66C209.973 304.113 208.977 305.244 207.695 306.052C206.421 306.861 204.936 307.265 203.238 307.265ZM203.238 304.669C204.527 304.669 205.589 304.338 206.421 303.677C207.254 303.015 207.87 302.146 208.27 301.068C208.671 299.991 208.871 298.823 208.871 297.566C208.871 296.309 208.671 295.138 208.27 294.052C207.87 292.966 207.254 292.088 206.421 291.419C205.589 290.75 204.527 290.415 203.238 290.415C201.948 290.415 200.886 290.75 200.054 291.419C199.221 292.088 198.605 292.966 198.205 294.052C197.805 295.138 197.605 296.309 197.605 297.566C197.605 298.823 197.805 299.991 198.205 301.068C198.605 302.146 199.221 303.015 200.054 303.677C200.886 304.338 201.948 304.669 203.238 304.669ZM219.793 306.873L214.063 288.064H217.099L221.165 302.464H221.361L225.377 288.064H228.463L232.431 302.415H232.627L236.692 288.064H239.729L233.998 306.873H231.157L227.043 292.423H226.749L222.634 306.873H219.793ZM258.783 307.314C257.591 307.314 256.509 307.089 255.538 306.64C254.566 306.183 253.795 305.526 253.224 304.669C252.652 303.803 252.366 302.758 252.366 301.534C252.366 300.456 252.579 299.583 253.003 298.913C253.428 298.236 253.995 297.705 254.705 297.321C255.415 296.938 256.199 296.652 257.056 296.464C257.922 296.268 258.791 296.113 259.665 295.999C260.808 295.852 261.734 295.742 262.444 295.668C263.163 295.587 263.685 295.452 264.012 295.264C264.347 295.076 264.514 294.75 264.514 294.284V294.187C264.514 292.978 264.183 292.039 263.522 291.37C262.869 290.701 261.877 290.366 260.546 290.366C259.167 290.366 258.085 290.668 257.301 291.272C256.518 291.876 255.967 292.521 255.648 293.207L252.905 292.227C253.395 291.084 254.048 290.194 254.864 289.558C255.689 288.913 256.587 288.464 257.558 288.211C258.538 287.949 259.501 287.819 260.448 287.819C261.052 287.819 261.746 287.892 262.53 288.039C263.322 288.178 264.085 288.468 264.82 288.909C265.563 289.35 266.179 290.015 266.669 290.905C267.159 291.795 267.404 292.986 267.404 294.48V306.873H264.514V304.326H264.367C264.171 304.734 263.844 305.171 263.387 305.636C262.93 306.101 262.322 306.497 261.563 306.824C260.803 307.15 259.877 307.314 258.783 307.314ZM259.224 304.718C260.367 304.718 261.33 304.493 262.114 304.044C262.906 303.595 263.502 303.015 263.902 302.305C264.31 301.595 264.514 300.848 264.514 300.064V297.419C264.391 297.566 264.122 297.701 263.706 297.823C263.297 297.938 262.824 298.04 262.285 298.13C261.755 298.211 261.236 298.285 260.73 298.35C260.232 298.407 259.828 298.456 259.518 298.497C258.767 298.595 258.065 298.754 257.411 298.974C256.767 299.187 256.244 299.509 255.844 299.942C255.452 300.366 255.256 300.946 255.256 301.681C255.256 302.685 255.628 303.444 256.371 303.958C257.122 304.465 258.073 304.718 259.224 304.718ZM275.568 281.794V306.873H272.678V281.794H275.568ZM283.751 281.794V306.873H280.862V281.794H283.751ZM306.923 288.064V290.513H297.176V288.064H306.923ZM300.016 283.557H302.906V301.485C302.906 302.301 303.025 302.913 303.262 303.322C303.506 303.722 303.817 303.991 304.192 304.13C304.576 304.26 304.98 304.326 305.404 304.326C305.723 304.326 305.984 304.309 306.188 304.277C306.392 304.236 306.556 304.203 306.678 304.179L307.266 306.775C307.07 306.848 306.796 306.922 306.445 306.995C306.094 307.077 305.649 307.118 305.111 307.118C304.294 307.118 303.494 306.942 302.71 306.591C301.935 306.24 301.29 305.705 300.776 304.987C300.27 304.269 300.016 303.362 300.016 302.269V283.557ZM314.564 295.558V306.873H311.674V281.794H314.564V291.003H314.809C315.25 290.031 315.911 289.26 316.793 288.688C317.683 288.109 318.866 287.819 320.344 287.819C321.626 287.819 322.748 288.076 323.711 288.59C324.675 289.096 325.422 289.876 325.952 290.929C326.491 291.974 326.761 293.305 326.761 294.921V306.873H323.871V295.117C323.871 293.623 323.483 292.468 322.707 291.652C321.94 290.827 320.875 290.415 319.511 290.415C318.564 290.415 317.715 290.615 316.964 291.015C316.221 291.415 315.633 291.999 315.201 292.766C314.776 293.533 314.564 294.464 314.564 295.558ZM339.934 307.265C338.121 307.265 336.558 306.865 335.244 306.065C333.937 305.256 332.929 304.13 332.219 302.685C331.517 301.232 331.166 299.542 331.166 297.615C331.166 295.689 331.517 293.991 332.219 292.521C332.929 291.044 333.917 289.892 335.182 289.068C336.456 288.235 337.942 287.819 339.64 287.819C340.619 287.819 341.587 287.982 342.542 288.309C343.497 288.635 344.366 289.166 345.15 289.901C345.934 290.627 346.558 291.59 347.024 292.791C347.489 293.991 347.722 295.468 347.722 297.223V298.448H333.223V295.95H344.783C344.783 294.889 344.571 293.942 344.146 293.109C343.73 292.276 343.134 291.619 342.358 291.137C341.591 290.656 340.685 290.415 339.64 290.415C338.489 290.415 337.493 290.701 336.652 291.272C335.819 291.835 335.178 292.57 334.729 293.476C334.28 294.382 334.056 295.354 334.056 296.391V298.056C334.056 299.477 334.301 300.681 334.79 301.668C335.288 302.648 335.978 303.395 336.86 303.909C337.742 304.416 338.766 304.669 339.934 304.669C340.693 304.669 341.379 304.562 341.991 304.35C342.611 304.13 343.146 303.803 343.595 303.371C344.044 302.93 344.391 302.383 344.636 301.73L347.428 302.513C347.134 303.46 346.64 304.293 345.946 305.011C345.252 305.722 344.395 306.277 343.375 306.677C342.354 307.069 341.207 307.265 339.934 307.265ZM369.996 288.064V290.513H360.249V288.064H369.996ZM363.09 283.557H365.98V301.485C365.98 302.301 366.098 302.913 366.335 303.322C366.58 303.722 366.89 303.991 367.265 304.13C367.649 304.26 368.053 304.326 368.478 304.326C368.796 304.326 369.057 304.309 369.261 304.277C369.466 304.236 369.629 304.203 369.751 304.179L370.339 306.775C370.143 306.848 369.87 306.922 369.519 306.995C369.168 307.077 368.723 307.118 368.184 307.118C367.367 307.118 366.567 306.942 365.784 306.591C365.008 306.24 364.363 305.705 363.849 304.987C363.343 304.269 363.09 303.362 363.09 302.269V283.557ZM374.343 306.873V288.064H377.233V306.873H374.343ZM375.813 284.929C375.249 284.929 374.764 284.737 374.356 284.353C373.956 283.97 373.756 283.508 373.756 282.97C373.756 282.431 373.956 281.97 374.356 281.586C374.764 281.202 375.249 281.01 375.813 281.01C376.376 281.01 376.858 281.202 377.258 281.586C377.666 281.97 377.87 282.431 377.87 282.97C377.87 283.508 377.666 283.97 377.258 284.353C376.858 284.737 376.376 284.929 375.813 284.929ZM382.526 306.873V288.064H385.318V291.003H385.563C385.955 289.999 386.588 289.219 387.461 288.664C388.335 288.101 389.384 287.819 390.608 287.819C391.849 287.819 392.882 288.101 393.706 288.664C394.539 289.219 395.188 289.999 395.653 291.003H395.849C396.331 290.031 397.054 289.26 398.017 288.688C398.98 288.109 400.135 287.819 401.482 287.819C403.164 287.819 404.54 288.345 405.609 289.399C406.678 290.443 407.213 292.072 407.213 294.284V306.873H404.323V294.284C404.323 292.897 403.944 291.905 403.184 291.309C402.425 290.713 401.531 290.415 400.503 290.415C399.18 290.415 398.156 290.815 397.429 291.615C396.702 292.407 396.339 293.411 396.339 294.627V306.873H393.4V293.991C393.4 292.921 393.053 292.06 392.359 291.407C391.666 290.746 390.772 290.415 389.678 290.415C388.927 290.415 388.225 290.615 387.571 291.015C386.927 291.415 386.404 291.97 386.004 292.68C385.612 293.382 385.416 294.195 385.416 295.117V306.873H382.526ZM420.383 307.265C418.571 307.265 417.007 306.865 415.693 306.065C414.387 305.256 413.379 304.13 412.669 302.685C411.966 301.232 411.615 299.542 411.615 297.615C411.615 295.689 411.966 293.991 412.669 292.521C413.379 291.044 414.367 289.892 415.632 289.068C416.905 288.235 418.391 287.819 420.089 287.819C421.069 287.819 422.036 287.982 422.991 288.309C423.947 288.635 424.816 289.166 425.6 289.901C426.383 290.627 427.008 291.59 427.473 292.791C427.939 293.991 428.171 295.468 428.171 297.223V298.448H413.673V295.95H425.232C425.232 294.889 425.02 293.942 424.596 293.109C424.179 292.276 423.583 291.619 422.808 291.137C422.04 290.656 421.134 290.415 420.089 290.415C418.938 290.415 417.942 290.701 417.101 291.272C416.269 291.835 415.628 292.57 415.179 293.476C414.73 294.382 414.505 295.354 414.505 296.391V298.056C414.505 299.477 414.75 300.681 415.24 301.668C415.738 302.648 416.428 303.395 417.31 303.909C418.191 304.416 419.216 304.669 420.383 304.669C421.142 304.669 421.828 304.562 422.44 304.35C423.061 304.13 423.596 303.803 424.045 303.371C424.494 302.93 424.84 302.383 425.085 301.73L427.877 302.513C427.583 303.46 427.09 304.293 426.396 305.011C425.702 305.722 424.845 306.277 423.824 306.677C422.804 307.069 421.657 307.265 420.383 307.265Z" fill="#007AFF"/>
<rect x="0.650391" y="342.425" width="581.904" height="1.0776" fill="#3C3C43" fill-opacity="0.29"/>
<path d="M81.8653 403.054H78.6814L87.89 377.976H91.0249L100.233 403.054H97.0496L89.5554 381.943H89.3595L81.8653 403.054ZM83.0408 393.258H95.8741V395.952H83.0408V393.258ZM106.638 377.976V403.054H103.748V377.976H106.638ZM114.821 377.976V403.054H111.931V377.976H114.821ZM127.755 403.446C126.057 403.446 124.567 403.042 123.286 402.234C122.012 401.426 121.016 400.295 120.298 398.842C119.587 397.389 119.232 395.691 119.232 393.748C119.232 391.789 119.587 390.078 120.298 388.617C121.016 387.156 122.012 386.021 123.286 385.213C124.567 384.404 126.057 384 127.755 384C129.453 384 130.939 384.404 132.212 385.213C133.494 386.021 134.49 387.156 135.2 388.617C135.919 390.078 136.278 391.789 136.278 393.748C136.278 395.691 135.919 397.389 135.2 398.842C134.49 400.295 133.494 401.426 132.212 402.234C130.939 403.042 129.453 403.446 127.755 403.446ZM127.755 400.85C129.045 400.85 130.106 400.52 130.939 399.858C131.772 399.197 132.388 398.328 132.788 397.25C133.188 396.172 133.388 395.005 133.388 393.748C133.388 392.491 133.188 391.319 132.788 390.233C132.388 389.148 131.772 388.27 130.939 387.601C130.106 386.931 129.045 386.596 127.755 386.596C126.465 386.596 125.404 386.931 124.571 387.601C123.739 388.27 123.122 389.148 122.722 390.233C122.322 391.319 122.122 392.491 122.122 393.748C122.122 395.005 122.322 396.172 122.722 397.25C123.122 398.328 123.739 399.197 124.571 399.858C125.404 400.52 126.465 400.85 127.755 400.85ZM144.311 403.054L138.58 384.245H141.617L145.682 398.646H145.878L149.895 384.245H152.981L156.948 398.597H157.144L161.21 384.245H164.247L158.516 403.054H155.675L151.56 388.605H151.266L147.152 403.054H144.311ZM182.713 403.054L175.855 377.976H178.941L184.182 398.401H184.427L189.766 377.976H193.195L198.534 398.401H198.779L204.02 377.976H207.106L200.248 403.054H197.113L191.578 383.07H191.382L185.848 403.054H182.713ZM213.388 391.74V403.054H210.498V377.976H213.388V387.184H213.632C214.073 386.213 214.735 385.441 215.616 384.87C216.506 384.29 217.69 384 219.167 384C220.449 384 221.572 384.258 222.535 384.772C223.498 385.278 224.245 386.058 224.776 387.111C225.315 388.156 225.584 389.486 225.584 391.103V403.054H222.694V391.299C222.694 389.805 222.306 388.65 221.531 387.833C220.763 387.009 219.698 386.596 218.335 386.596C217.388 386.596 216.539 386.796 215.788 387.196C215.045 387.596 214.457 388.18 214.024 388.948C213.6 389.715 213.388 390.646 213.388 391.74ZM230.871 403.054V384.245H233.761V403.054H230.871ZM232.34 381.11C231.777 381.11 231.291 380.919 230.883 380.535C230.483 380.151 230.283 379.69 230.283 379.151C230.283 378.612 230.483 378.151 230.883 377.767C231.291 377.384 231.777 377.192 232.34 377.192C232.904 377.192 233.385 377.384 233.785 377.767C234.194 378.151 234.398 378.612 234.398 379.151C234.398 379.69 234.194 380.151 233.785 380.535C233.385 380.919 232.904 381.11 232.34 381.11ZM241.944 377.976V403.054H239.054V377.976H241.944ZM255.123 403.446C253.311 403.446 251.747 403.046 250.433 402.246C249.127 401.438 248.119 400.311 247.408 398.866C246.706 397.413 246.355 395.723 246.355 393.797C246.355 391.87 246.706 390.172 247.408 388.703C248.119 387.225 249.107 386.074 250.372 385.249C251.645 384.417 253.131 384 254.829 384C255.809 384 256.776 384.164 257.731 384.49C258.687 384.817 259.556 385.347 260.34 386.082C261.123 386.809 261.748 387.772 262.213 388.972C262.679 390.172 262.911 391.65 262.911 393.405V394.629H248.413V392.131H259.972C259.972 391.07 259.76 390.123 259.336 389.29C258.919 388.458 258.323 387.801 257.548 387.319C256.78 386.837 255.874 386.596 254.829 386.596C253.678 386.596 252.682 386.882 251.841 387.454C251.009 388.017 250.368 388.752 249.919 389.658C249.47 390.564 249.245 391.535 249.245 392.572V394.238C249.245 395.658 249.49 396.862 249.98 397.85C250.478 398.83 251.168 399.577 252.049 400.091C252.931 400.597 253.956 400.85 255.123 400.85C255.882 400.85 256.568 400.744 257.18 400.532C257.801 400.311 258.335 399.985 258.784 399.552C259.233 399.111 259.58 398.564 259.825 397.911L262.617 398.695C262.323 399.642 261.83 400.475 261.136 401.193C260.442 401.903 259.585 402.458 258.564 402.858C257.544 403.25 256.397 403.446 255.123 403.446ZM293.855 377.976H296.892V394.58C296.892 396.295 296.488 397.826 295.68 399.173C294.88 400.511 293.749 401.569 292.288 402.344C290.827 403.111 289.112 403.495 287.145 403.495C285.178 403.495 283.463 403.111 282.002 402.344C280.541 401.569 279.406 400.511 278.598 399.173C277.798 397.826 277.398 396.295 277.398 394.58V377.976H280.434V394.336C280.434 395.56 280.704 396.65 281.243 397.605C281.781 398.552 282.549 399.299 283.545 399.846C284.549 400.385 285.749 400.654 287.145 400.654C288.541 400.654 289.741 400.385 290.745 399.846C291.749 399.299 292.517 398.552 293.047 397.605C293.586 396.65 293.855 395.56 293.855 394.336V377.976ZM315.888 388.458L313.292 389.192C313.129 388.76 312.888 388.339 312.57 387.931C312.259 387.515 311.835 387.172 311.296 386.903C310.757 386.633 310.067 386.498 309.227 386.498C308.075 386.498 307.116 386.764 306.349 387.294C305.59 387.817 305.21 388.482 305.21 389.29C305.21 390.009 305.471 390.576 305.994 390.993C306.516 391.409 307.333 391.756 308.443 392.033L311.235 392.719C312.917 393.127 314.17 393.752 314.994 394.593C315.819 395.425 316.231 396.499 316.231 397.813C316.231 398.891 315.921 399.854 315.3 400.703C314.688 401.552 313.831 402.222 312.729 402.711C311.627 403.201 310.345 403.446 308.884 403.446C306.965 403.446 305.377 403.03 304.12 402.197C302.863 401.364 302.067 400.148 301.732 398.548L304.475 397.862C304.737 398.875 305.23 399.634 305.957 400.14C306.692 400.646 307.651 400.899 308.835 400.899C310.182 400.899 311.251 400.613 312.043 400.042C312.843 399.462 313.243 398.768 313.243 397.96C313.243 397.307 313.014 396.76 312.557 396.319C312.1 395.87 311.398 395.536 310.451 395.315L307.316 394.58C305.594 394.172 304.328 393.54 303.52 392.682C302.72 391.817 302.32 390.735 302.32 389.437C302.32 388.376 302.618 387.437 303.214 386.621C303.818 385.805 304.639 385.164 305.675 384.698C306.72 384.233 307.904 384 309.227 384C311.088 384 312.549 384.409 313.61 385.225C314.68 386.041 315.439 387.119 315.888 388.458ZM320.581 403.054V384.245H323.471V403.054H320.581ZM322.051 381.11C321.487 381.11 321.002 380.919 320.593 380.535C320.193 380.151 319.993 379.69 319.993 379.151C319.993 378.612 320.193 378.151 320.593 377.767C321.002 377.384 321.487 377.192 322.051 377.192C322.614 377.192 323.096 377.384 323.496 377.767C323.904 378.151 324.108 378.612 324.108 379.151C324.108 379.69 323.904 380.151 323.496 380.535C323.096 380.919 322.614 381.11 322.051 381.11ZM331.654 391.74V403.054H328.764V384.245H331.556V387.184H331.801C332.242 386.229 332.911 385.462 333.809 384.882C334.707 384.294 335.867 384 337.287 384C338.561 384 339.675 384.262 340.63 384.784C341.585 385.298 342.328 386.082 342.859 387.135C343.389 388.18 343.655 389.503 343.655 391.103V403.054H340.765V391.299C340.765 389.821 340.381 388.67 339.614 387.845C338.846 387.013 337.793 386.596 336.454 386.596C335.532 386.596 334.707 386.796 333.981 387.196C333.262 387.596 332.695 388.18 332.279 388.948C331.862 389.715 331.654 390.646 331.654 391.74ZM356.528 410.5C355.132 410.5 353.932 410.32 352.928 409.961C351.923 409.61 351.087 409.144 350.417 408.565C349.756 407.993 349.229 407.381 348.838 406.728L351.14 405.112C351.401 405.454 351.732 405.846 352.132 406.287C352.532 406.736 353.079 407.124 353.772 407.45C354.475 407.785 355.393 407.953 356.528 407.953C358.046 407.953 359.299 407.585 360.287 406.85C361.275 406.116 361.769 404.965 361.769 403.397V399.577H361.524C361.312 399.919 361.01 400.344 360.618 400.85C360.234 401.348 359.679 401.793 358.952 402.185C358.234 402.569 357.262 402.76 356.038 402.76C354.519 402.76 353.156 402.401 351.948 401.683C350.748 400.964 349.797 399.919 349.095 398.548C348.401 397.177 348.054 395.511 348.054 393.552C348.054 391.625 348.393 389.948 349.07 388.519C349.748 387.082 350.691 385.972 351.899 385.188C353.107 384.396 354.503 384 356.087 384C357.311 384 358.283 384.204 359.001 384.613C359.728 385.013 360.283 385.47 360.667 385.984C361.059 386.49 361.361 386.907 361.573 387.233H361.867V384.245H364.659V403.593C364.659 405.21 364.291 406.524 363.557 407.536C362.83 408.557 361.85 409.304 360.618 409.777C359.393 410.259 358.03 410.5 356.528 410.5ZM356.43 400.164C357.589 400.164 358.569 399.899 359.369 399.368C360.169 398.838 360.777 398.075 361.193 397.079C361.61 396.083 361.818 394.891 361.818 393.503C361.818 392.148 361.614 390.952 361.205 389.915C360.797 388.878 360.193 388.066 359.393 387.478C358.593 386.89 357.605 386.596 356.43 386.596C355.205 386.596 354.185 386.907 353.368 387.527C352.56 388.148 351.952 388.98 351.544 390.025C351.144 391.07 350.944 392.229 350.944 393.503C350.944 394.809 351.148 395.964 351.556 396.968C351.972 397.964 352.585 398.748 353.393 399.319C354.209 399.883 355.222 400.164 356.43 400.164ZM387.827 384.245V386.694H378.08V384.245H387.827ZM380.921 379.739H383.811V397.666C383.811 398.483 383.929 399.095 384.166 399.503C384.411 399.903 384.721 400.173 385.096 400.311C385.48 400.442 385.884 400.507 386.309 400.507C386.627 400.507 386.888 400.491 387.092 400.458C387.296 400.417 387.46 400.385 387.582 400.36L388.17 402.956C387.974 403.03 387.701 403.103 387.349 403.177C386.998 403.258 386.554 403.299 386.015 403.299C385.198 403.299 384.398 403.124 383.615 402.773C382.839 402.422 382.194 401.887 381.68 401.169C381.174 400.45 380.921 399.544 380.921 398.45V379.739ZM395.468 391.74V403.054H392.578V377.976H395.468V387.184H395.713C396.154 386.213 396.815 385.441 397.697 384.87C398.587 384.29 399.77 384 401.248 384C402.53 384 403.652 384.258 404.616 384.772C405.579 385.278 406.326 386.058 406.857 387.111C407.395 388.156 407.665 389.486 407.665 391.103V403.054H404.775V391.299C404.775 389.805 404.387 388.65 403.611 387.833C402.844 387.009 401.779 386.596 400.415 386.596C399.468 386.596 398.619 386.796 397.868 387.196C397.125 387.596 396.538 388.18 396.105 388.948C395.68 389.715 395.468 390.646 395.468 391.74ZM420.838 403.446C419.025 403.446 417.462 403.046 416.148 402.246C414.842 401.438 413.833 400.311 413.123 398.866C412.421 397.413 412.07 395.723 412.07 393.797C412.07 391.87 412.421 390.172 413.123 388.703C413.833 387.225 414.821 386.074 416.086 385.249C417.36 384.417 418.846 384 420.544 384C421.523 384 422.491 384.164 423.446 384.49C424.401 384.817 425.271 385.347 426.054 386.082C426.838 386.809 427.463 387.772 427.928 388.972C428.393 390.172 428.626 391.65 428.626 393.405V394.629H414.127V392.131H425.687C425.687 391.07 425.475 390.123 425.05 389.29C424.634 388.458 424.038 387.801 423.262 387.319C422.495 386.837 421.589 386.596 420.544 386.596C419.393 386.596 418.397 386.882 417.556 387.454C416.723 388.017 416.082 388.752 415.633 389.658C415.184 390.564 414.96 391.535 414.96 392.572V394.238C414.96 395.658 415.205 396.862 415.695 397.85C416.193 398.83 416.882 399.577 417.764 400.091C418.646 400.597 419.67 400.85 420.838 400.85C421.597 400.85 422.283 400.744 422.895 400.532C423.515 400.311 424.05 399.985 424.499 399.552C424.948 399.111 425.295 398.564 425.54 397.911L428.332 398.695C428.038 399.642 427.544 400.475 426.85 401.193C426.156 401.903 425.299 402.458 424.279 402.858C423.258 403.25 422.111 403.446 420.838 403.446ZM444.141 403.054H440.957L450.166 377.976H453.3L462.509 403.054H459.325L451.831 381.943H451.635L444.141 403.054ZM445.316 393.258H458.15V395.952H445.316V393.258ZM466.023 410.108V384.245H468.815V387.233H469.158C469.371 386.907 469.664 386.49 470.04 385.984C470.424 385.47 470.971 385.013 471.681 384.613C472.399 384.204 473.371 384 474.595 384C476.179 384 477.575 384.396 478.783 385.188C479.991 385.98 480.934 387.103 481.612 388.556C482.29 390.009 482.628 391.723 482.628 393.699C482.628 395.691 482.29 397.417 481.612 398.879C480.934 400.332 479.996 401.458 478.795 402.258C477.595 403.05 476.212 403.446 474.644 403.446C473.436 403.446 472.469 403.246 471.742 402.846C471.016 402.438 470.456 401.977 470.064 401.462C469.673 400.94 469.371 400.507 469.158 400.164H468.913V410.108H466.023ZM468.864 393.65C468.864 395.07 469.073 396.323 469.489 397.409C469.905 398.487 470.513 399.332 471.314 399.944C472.114 400.548 473.093 400.85 474.252 400.85C475.461 400.85 476.469 400.532 477.277 399.895C478.093 399.25 478.706 398.385 479.114 397.299C479.53 396.205 479.738 394.989 479.738 393.65C479.738 392.327 479.534 391.135 479.126 390.074C478.726 389.005 478.118 388.16 477.302 387.539C476.493 386.911 475.477 386.596 474.252 386.596C473.077 386.596 472.089 386.894 471.289 387.49C470.489 388.078 469.885 388.903 469.477 389.964C469.069 391.017 468.864 392.246 468.864 393.65ZM487.037 410.108V384.245H489.829V387.233H490.171C490.384 386.907 490.678 386.49 491.053 385.984C491.437 385.47 491.984 385.013 492.694 384.613C493.412 384.204 494.384 384 495.608 384C497.192 384 498.588 384.396 499.796 385.188C501.005 385.98 501.948 387.103 502.625 388.556C503.303 390.009 503.641 391.723 503.641 393.699C503.641 395.691 503.303 397.417 502.625 398.879C501.948 400.332 501.009 401.458 499.809 402.258C498.609 403.05 497.225 403.446 495.657 403.446C494.449 403.446 493.482 403.246 492.755 402.846C492.029 402.438 491.47 401.977 491.078 401.462C490.686 400.94 490.384 400.507 490.171 400.164H489.927V410.108H487.037ZM489.878 393.65C489.878 395.07 490.086 396.323 490.502 397.409C490.918 398.487 491.527 399.332 492.327 399.944C493.127 400.548 494.106 400.85 495.266 400.85C496.474 400.85 497.482 400.532 498.29 399.895C499.107 399.25 499.719 398.385 500.127 397.299C500.543 396.205 500.752 394.989 500.752 393.65C500.752 392.327 500.547 391.135 500.139 390.074C499.739 389.005 499.131 388.16 498.315 387.539C497.507 386.911 496.49 386.596 495.266 386.596C494.09 386.596 493.102 386.894 492.302 387.49C491.502 388.078 490.898 388.903 490.49 389.964C490.082 391.017 489.878 392.246 489.878 393.65Z" fill="#007AFF"/>
<rect x="0.650391" y="438.606" width="581.904" height="1.0776" fill="#3C3C43" fill-opacity="0.29"/>
<path d="M211.254 499.236H203.515V474.157H211.597C214.029 474.157 216.111 474.659 217.842 475.663C219.573 476.659 220.899 478.092 221.822 479.962C222.744 481.823 223.205 484.052 223.205 486.648C223.205 489.26 222.74 491.509 221.809 493.395C220.879 495.273 219.524 496.717 217.744 497.73C215.964 498.734 213.801 499.236 211.254 499.236ZM206.552 496.542H211.058C213.131 496.542 214.85 496.142 216.213 495.342C217.577 494.542 218.593 493.403 219.262 491.925C219.932 490.448 220.266 488.689 220.266 486.648C220.266 484.623 219.936 482.88 219.275 481.419C218.613 479.949 217.625 478.823 216.311 478.039C214.997 477.247 213.36 476.851 211.401 476.851H206.552V496.542ZM235.549 499.628C233.851 499.628 232.361 499.224 231.079 498.416C229.806 497.607 228.81 496.477 228.091 495.024C227.381 493.57 227.026 491.872 227.026 489.929C227.026 487.97 227.381 486.26 228.091 484.799C228.81 483.337 229.806 482.203 231.079 481.394C232.361 480.586 233.851 480.182 235.549 480.182C237.247 480.182 238.733 480.586 240.006 481.394C241.288 482.203 242.284 483.337 242.994 484.799C243.712 486.26 244.072 487.97 244.072 489.929C244.072 491.872 243.712 493.57 242.994 495.024C242.284 496.477 241.288 497.607 240.006 498.416C238.733 499.224 237.247 499.628 235.549 499.628ZM235.549 497.032C236.839 497.032 237.9 496.701 238.733 496.04C239.565 495.379 240.182 494.509 240.582 493.432C240.982 492.354 241.182 491.187 241.182 489.929C241.182 488.672 240.982 487.501 240.582 486.415C240.182 485.329 239.565 484.452 238.733 483.782C237.9 483.113 236.839 482.778 235.549 482.778C234.259 482.778 233.198 483.113 232.365 483.782C231.532 484.452 230.916 485.329 230.516 486.415C230.116 487.501 229.916 488.672 229.916 489.929C229.916 491.187 230.116 492.354 230.516 493.432C230.916 494.509 231.532 495.379 232.365 496.04C233.198 496.701 234.259 497.032 235.549 497.032ZM251.373 487.921V499.236H248.483V480.427H251.275V483.366H251.52C251.961 482.411 252.63 481.643 253.528 481.064C254.426 480.476 255.585 480.182 257.006 480.182C258.279 480.182 259.394 480.443 260.349 480.966C261.304 481.48 262.047 482.264 262.578 483.317C263.108 484.362 263.373 485.684 263.373 487.284V499.236H260.484V487.48C260.484 486.003 260.1 484.852 259.332 484.027C258.565 483.194 257.512 482.778 256.173 482.778C255.251 482.778 254.426 482.978 253.7 483.378C252.981 483.778 252.414 484.362 251.997 485.129C251.581 485.897 251.373 486.827 251.373 487.921ZM271.201 474.157V476.361C271.201 477.031 271.079 477.745 270.834 478.504C270.597 479.255 270.246 479.986 269.781 480.696C269.324 481.398 268.769 482.011 268.116 482.533L266.548 481.26C267.062 480.525 267.507 479.762 267.883 478.97C268.267 478.17 268.458 477.317 268.458 476.41V474.157H271.201ZM283.704 480.427V482.876H273.957V480.427H283.704ZM276.798 475.921H279.687V493.848C279.687 494.664 279.806 495.277 280.043 495.685C280.287 496.085 280.598 496.354 280.973 496.493C281.357 496.624 281.761 496.689 282.186 496.689C282.504 496.689 282.765 496.673 282.969 496.64C283.173 496.599 283.337 496.566 283.459 496.542L284.047 499.138C283.851 499.211 283.577 499.285 283.226 499.358C282.875 499.44 282.43 499.481 281.892 499.481C281.075 499.481 280.275 499.305 279.492 498.954C278.716 498.603 278.071 498.069 277.557 497.35C277.051 496.632 276.798 495.726 276.798 494.632V475.921ZM299.17 499.236H295.986L305.195 474.157H308.33L317.538 499.236H314.354L306.86 478.125H306.664L299.17 499.236ZM300.346 489.44H313.179V492.134H300.346V489.44ZM323.943 474.157V499.236H321.053V474.157H323.943ZM332.126 474.157V499.236H329.236V474.157H332.126ZM345.06 499.628C343.362 499.628 341.872 499.224 340.59 498.416C339.317 497.607 338.321 496.477 337.602 495.024C336.892 493.57 336.537 491.872 336.537 489.929C336.537 487.97 336.892 486.26 337.602 484.799C338.321 483.337 339.317 482.203 340.59 481.394C341.872 480.586 343.362 480.182 345.06 480.182C346.758 480.182 348.244 480.586 349.517 481.394C350.799 482.203 351.795 483.337 352.505 484.799C353.223 486.26 353.583 487.97 353.583 489.929C353.583 491.872 353.223 493.57 352.505 495.024C351.795 496.477 350.799 497.607 349.517 498.416C348.244 499.224 346.758 499.628 345.06 499.628ZM345.06 497.032C346.35 497.032 347.411 496.701 348.244 496.04C349.076 495.379 349.693 494.509 350.093 493.432C350.493 492.354 350.693 491.187 350.693 489.929C350.693 488.672 350.493 487.501 350.093 486.415C349.693 485.329 349.076 484.452 348.244 483.782C347.411 483.113 346.35 482.778 345.06 482.778C343.77 482.778 342.709 483.113 341.876 483.782C341.043 484.452 340.427 485.329 340.027 486.415C339.627 487.501 339.427 488.672 339.427 489.929C339.427 491.187 339.627 492.354 340.027 493.432C340.427 494.509 341.043 495.379 341.876 496.04C342.709 496.701 343.77 497.032 345.06 497.032ZM361.616 499.236L355.885 480.427H358.922L362.987 494.828H363.183L367.2 480.427H370.285L374.253 494.779H374.449L378.514 480.427H381.551L375.82 499.236H372.979L368.865 484.786H368.571L364.457 499.236H361.616Z" fill="#007AFF"/>
</g>
<mask id="mask1_3187_1235" style="mask-type:alpha" maskUnits="userSpaceOnUse" x="601" y="250" width="90" height="90">
<rect x="601.82" y="250.292" width="88.8889" height="88.8889" fill="#D9D9D9"/>
</mask>
<g mask="url(#mask1_3187_1235)">
<path d="M628.225 298.441L653.328 319.181L646.94 324.367L611.079 294.737L646.94 265.107L653.328 270.292L628.225 291.033H682.802V298.441H628.225Z" fill="#EB600A"/>
</g>
<defs>
<filter id="filter0_b_3187_1235" x="-7.97041" y="-8.6208" width="599.145" height="558.696" filterUnits="userSpaceOnUse" color-interpolation-filters="sRGB">
<feFlood flood-opacity="0" result="BackgroundImageFix"/>
<feGaussianBlur in="BackgroundImageFix" stdDeviation="4.3104"/>
<feComposite in2="SourceAlpha" operator="in" result="effect1_backgroundBlur_3187_1235"/>
<feBlend mode="normal" in="SourceGraphic" in2="effect1_backgroundBlur_3187_1235" result="shape"/>
</filter>
</defs>
</svg>
