<svg width="360" height="125" viewBox="0 0 360 125" fill="none" xmlns="http://www.w3.org/2000/svg">
<g clip-path="url(#clip0_2424_17887)">
<g filter="url(#filter0_d_2424_17887)">
<path fill-rule="evenodd" clip-rule="evenodd" d="M29.2634 97.2479C33.7361 86.083 37.9781 72.7191 44.6634 68.545C48.5999 66.0881 62.2285 64.4184 62.2285 64.4184H70.665C70.665 64.4184 85.1827 62.7963 89.4653 66.8143C92.9268 70.0654 104.75 94.1326 104.75 94.1326C104.75 94.1326 96.9244 102.372 89.4653 102.372C89.6825 112.363 89.7233 121.397 89.7233 121.397C89.7233 121.397 90.0151 122.734 90.4902 125.191C78.1308 126.222 61.2783 126.263 46.8692 122.625C47.1746 119.041 47.3647 116.883 47.385 116.659L52.2446 84.3319C52.2446 84.3319 49.1768 95.7343 46.9778 102.936C43.5435 102.936 31.9511 100.187 29.2634 97.2411V97.2479Z" fill="#F1D054"/>
<path fill-rule="evenodd" clip-rule="evenodd" d="M66.8578 70.1128H67.0139C69.6609 70.1128 71.8057 67.968 71.8057 65.321V50.2739H62.0593V65.321C62.0593 67.968 64.2041 70.1128 66.851 70.1128H66.8578Z" fill="#EDBA8C"/>
<path opacity="0.25" fill-rule="evenodd" clip-rule="evenodd" d="M71.812 63.9027C68.5678 64.2488 65.2692 64.0995 62.0657 63.4547V56.3757C65.2896 56.8983 68.5474 57.163 71.812 57.1766V63.9027Z" fill="#561C2F" stroke="#EDBA8C" stroke-width="0.347756" stroke-miterlimit="22.93"/>
<path fill-rule="evenodd" clip-rule="evenodd" d="M84.7959 10.2773C84.7959 10.2773 84.2394 5.4924 82.1353 3.3816C80.0245 1.27759 66.4638 -1.34904 59.6156 0.802487C57.4641 3.06939 56.0863 7.54212 56.0863 7.54212L84.7959 10.2773Z" fill="#F1D054"/>
<path fill-rule="evenodd" clip-rule="evenodd" d="M31.1843 18.8971C30.3902 27.6661 47.039 36.3333 68.371 38.2676C89.7031 40.2019 107.635 34.6568 108.429 25.8946C109.223 17.1256 92.574 8.45846 71.242 6.52412C49.91 4.58978 31.9784 10.1349 31.1843 18.8971Z" fill="#F1D054"/>
<mask id="mask0_2424_17887" style="mask-type:luminance" maskUnits="userSpaceOnUse" x="31" y="6" width="78" height="33">
<path d="M31.1843 18.8971C30.3902 27.6661 47.039 36.3333 68.371 38.2676C89.7031 40.2019 107.635 34.6568 108.429 25.8946C109.223 17.1256 92.574 8.45846 71.242 6.52412C49.91 4.58978 31.9784 10.1349 31.1843 18.8971Z" fill="white"/>
</mask>
<g mask="url(#mask0_2424_17887)">
<path opacity="0.3" fill-rule="evenodd" clip-rule="evenodd" d="M31.1843 18.8971C30.3902 27.6661 47.039 36.3333 68.371 38.2676C89.7031 40.2019 107.635 34.6568 108.429 25.8946C109.223 17.1256 92.574 8.45846 71.242 6.52412C49.91 4.58978 31.9784 10.1349 31.1843 18.8971Z" fill="#CB2E45"/>
</g>
<path fill-rule="evenodd" clip-rule="evenodd" d="M44.0456 33.5234C45.5388 36.5641 48.3147 38.2541 50.2491 37.3039C52.1834 36.3537 52.5364 33.123 51.0432 30.0823C49.55 27.0417 46.7741 25.3517 44.8397 26.3019C42.9054 27.2521 42.5525 30.4828 44.0456 33.5234Z" fill="#EDBA8C"/>
<path fill-rule="evenodd" clip-rule="evenodd" d="M49.5433 40.1135L51.4166 22.4737C52.2853 14.2884 59.629 8.35641 67.8143 9.23195L74.9001 9.98532C83.0854 10.8541 89.0174 18.1978 88.1418 26.3831L86.2686 44.0229C85.3998 52.2082 78.0561 58.1401 69.8708 57.2646L62.7851 56.5112C54.5998 55.6425 48.6678 48.2988 49.5433 40.1135Z" fill="#EDBA8C"/>
<path fill-rule="evenodd" clip-rule="evenodd" d="M92.5332 38.4033C90.5106 41.1181 87.4768 42.2787 85.7461 40.9959C84.0153 39.7132 84.2529 36.4689 86.2755 33.7541C88.298 31.0392 91.3319 29.8786 93.0626 31.1614C94.7865 32.4441 94.5558 35.6884 92.5332 38.4033Z" fill="#EDBA8C"/>
<path fill-rule="evenodd" clip-rule="evenodd" d="M92.391 33.4758C89.7304 33.8084 88.7599 36.5911 88.0744 38.7969C87.959 39.1702 87.3685 39.0141 87.4839 38.634C88.2712 36.1092 89.4114 33.2383 92.391 32.865C92.7779 32.8175 92.7779 33.4215 92.391 33.4758Z" fill="#561C2F"/>
<path fill-rule="evenodd" clip-rule="evenodd" d="M90.9245 36.7607C90.334 36.3603 89.7028 36.1024 89.0037 35.9734C88.6169 35.8987 88.7798 35.315 89.1666 35.3829C89.9132 35.5187 90.6055 35.8105 91.2299 36.2313C91.5489 36.4485 91.2503 36.9779 90.9245 36.7539V36.7607Z" fill="#561C2F"/>
<path fill-rule="evenodd" clip-rule="evenodd" d="M48.8986 35.9735C49.0344 33.1636 47.9756 30.5913 45.9055 28.6909C45.6137 28.4262 46.048 27.9918 46.3331 28.2633C48.5118 30.2723 49.6384 33.0211 49.5027 35.9803C49.4823 36.3739 48.8783 36.3739 48.8918 35.9803L48.8986 35.9735Z" fill="#561C2F"/>
<path fill-rule="evenodd" clip-rule="evenodd" d="M48.1723 31.9893C47.2899 32.0979 46.5298 32.5458 45.9732 33.2245C45.7221 33.5299 45.2945 33.0956 45.5456 32.7969C46.2108 31.9825 47.1338 31.5074 48.1723 31.3852C48.5591 31.3377 48.5591 31.9485 48.1723 31.996V31.9893Z" fill="#561C2F"/>
<path fill-rule="evenodd" clip-rule="evenodd" d="M88.1829 24.3266C86.3436 31.202 85.0676 40.3579 85.0676 40.3579C85.0676 40.3579 82.4342 39.7131 80.2487 38.5321C78.0633 37.3512 71.4865 33.2042 62.5003 35.22C54.1386 37.0933 52.5775 37.0593 52.5775 37.0593C52.5775 37.0593 51.254 25.1682 51.7088 19.9761C49.1364 30.3943 37.2522 59.1447 65.9211 61.7985C93.9045 63.8482 88.2779 39.4009 88.1897 24.3334L88.1829 24.3266Z" fill="#CB2E45"/>
<mask id="mask1_2424_17887" style="mask-type:luminance" maskUnits="userSpaceOnUse" x="47" y="19" width="42" height="43">
<path d="M88.1829 24.3266C86.3436 31.202 85.0676 40.3579 85.0676 40.3579C85.0676 40.3579 82.4342 39.7131 80.2487 38.5321C78.0633 37.3512 71.4865 33.2042 62.5003 35.22C54.1386 37.0933 52.5775 37.0593 52.5775 37.0593C52.5775 37.0593 51.254 25.1682 51.7088 19.9761C49.1364 30.3943 37.2522 59.1447 65.9211 61.7985C93.9045 63.8482 88.2779 39.4009 88.1897 24.3334L88.1829 24.3266Z" fill="white"/>
</mask>
<g mask="url(#mask1_2424_17887)">
<path opacity="0.3" fill-rule="evenodd" clip-rule="evenodd" d="M88.1829 24.3266C86.3436 31.202 85.0676 40.3579 85.0676 40.3579C85.0676 40.3579 82.4342 39.7131 80.2487 38.5321C78.0633 37.3512 71.4865 33.2042 62.5003 35.22C54.1386 37.0933 52.5775 37.0593 52.5775 37.0593C52.5775 37.0593 51.254 25.1682 51.7088 19.9761C49.1364 30.3943 37.2522 59.1447 65.9211 61.7985C93.9045 63.8482 88.2779 39.4009 88.1897 24.3334L88.1829 24.3266Z" fill="#561C2F"/>
</g>
<path fill-rule="evenodd" clip-rule="evenodd" d="M46.8694 122.618C46.9509 122.632 47.0391 122.645 47.1273 122.659L47.1477 121.824C58.5705 93.7254 50.9485 66.4207 50.9485 66.4207L56.3375 65.1583C56.3375 65.1583 60.1926 75.5766 59.4732 88.316C59.4732 88.316 73.828 87.9631 82.5291 88.6554C82.373 76.6693 80.459 64.0859 80.459 64.0859L86.1059 64.9275C86.1059 64.9275 91.1759 97.4923 89.4655 102.365L89.7235 121.39L90.2393 123.955H90.2529C90.375 124.58 90.5243 125.326 90.6804 126.168V126.182C93.5989 141.609 101.757 191.963 94.8342 241.244C83.4046 242.079 81.83 241.224 81.83 241.224C81.83 241.224 79.2984 178.68 72.0701 145.579L50.134 239.839L36.9805 238.556C36.9805 238.556 44.7722 147.106 46.8694 122.611V122.618Z" fill="#561C2F"/>
<mask id="mask2_2424_17887" style="mask-type:luminance" maskUnits="userSpaceOnUse" x="36" y="64" width="62" height="178">
<path d="M46.8694 122.618C46.9509 122.632 47.0391 122.645 47.1273 122.659L47.1477 121.824C58.5705 93.7254 50.9485 66.4207 50.9485 66.4207L56.3375 65.1583C56.3375 65.1583 60.1926 75.5766 59.4732 88.316C59.4732 88.316 73.828 87.9631 82.5291 88.6554C82.373 76.6693 80.459 64.0859 80.459 64.0859L86.1059 64.9275C86.1059 64.9275 91.1759 97.4923 89.4655 102.365L89.7235 121.39L90.2393 123.955H90.2529C90.375 124.58 90.5243 125.326 90.6804 126.168V126.182C93.5989 141.609 101.757 191.963 94.8342 241.244C83.4046 242.079 81.83 241.224 81.83 241.224C81.83 241.224 79.2984 178.68 72.0701 145.579L50.134 239.839L36.9805 238.556C36.9805 238.556 44.7722 147.106 46.8694 122.611V122.618Z" fill="white"/>
</mask>
<g mask="url(#mask2_2424_17887)">
<path opacity="0.3" fill-rule="evenodd" clip-rule="evenodd" d="M46.8694 122.618C46.9509 122.632 47.0391 122.645 47.1273 122.659L47.1477 121.824C58.5705 93.7254 50.9485 66.4207 50.9485 66.4207L56.3375 65.1583C56.3375 65.1583 60.1926 75.5766 59.4732 88.316C59.4732 88.316 73.828 87.9631 82.5291 88.6554C82.373 76.6693 80.459 64.0859 80.459 64.0859L86.1059 64.9275C86.1059 64.9275 91.1759 97.4923 89.4655 102.365L89.7235 121.39L90.2393 123.955H90.2529C90.375 124.58 90.5243 125.326 90.6804 126.168V126.182C93.5989 141.609 101.757 191.963 94.8342 241.244C83.4046 242.079 81.83 241.224 81.83 241.224C81.83 241.224 79.2984 178.68 72.0701 145.579L50.134 239.839L36.9805 238.556C36.9805 238.556 44.7722 147.106 46.8694 122.611V122.618Z" fill="#561C2F"/>
</g>
<path fill-rule="evenodd" clip-rule="evenodd" d="M69.1851 34.5006C68.9951 32.417 68.9612 30.313 69.0833 28.2225C69.1444 27.1977 69.2394 26.1728 69.3752 25.1547C69.4702 24.4081 69.4702 23.4036 69.7756 22.7046C70.1896 21.7544 71.6217 21.6526 71.9068 22.7181C72.1375 23.5665 71.805 24.5167 71.7167 25.3651C71.5742 26.8447 71.3706 28.3175 71.3027 29.7971C71.2688 30.5166 71.2688 31.2292 71.3163 31.9487C71.3434 32.3898 71.1941 33.245 71.5267 33.5844C71.71 33.7676 72.0222 33.8219 72.2393 33.6794C72.409 33.5708 72.4905 33.3672 72.633 33.2246C72.8773 32.9667 73.2914 32.9057 73.6239 33.0346C74.3501 33.3265 74.2619 33.9305 74.1194 34.5617C73.909 35.4712 73.461 36.3264 72.8027 36.9983C72.4565 37.3512 72.0357 37.6567 71.5471 37.7177C70.8073 37.8128 70.0878 37.3037 69.7213 36.6589C69.348 36.0074 69.2598 35.2472 69.1919 34.5006H69.1851Z" fill="#F1D054"/>
<path fill-rule="evenodd" clip-rule="evenodd" d="M75.8911 31.4804C75.7214 32.8039 76.2983 33.9713 77.1739 34.0799C78.0494 34.1885 78.8978 33.2044 79.0607 31.8809C79.2304 30.5574 78.6535 29.39 77.7779 29.2814C76.9024 29.1728 76.054 30.1569 75.8911 31.4804Z" fill="#561C2F"/>
<path fill-rule="evenodd" clip-rule="evenodd" d="M65.8938 30.4964C65.9345 31.8334 65.249 32.9397 64.3667 32.9601C63.4843 32.9873 62.7378 31.9217 62.697 30.5846C62.6563 29.2475 63.3418 28.1412 64.2241 28.1209C65.1065 28.0937 65.8531 29.1593 65.8938 30.4964Z" fill="#561C2F"/>
<path fill-rule="evenodd" clip-rule="evenodd" d="M81.7822 27.0279C80.9949 25.0596 79.0741 24.0619 77.0108 24.313C76.2031 24.408 76.2099 23.1456 77.0108 23.0506C79.6849 22.7316 82.0197 24.2316 83.0039 26.6953C83.3093 27.4555 82.0808 27.7813 81.7822 27.0347V27.0279Z" fill="#561C2F"/>
<path fill-rule="evenodd" clip-rule="evenodd" d="M65.9685 22.9895C64.1292 22.2769 62.1813 22.8267 60.9596 24.3741C60.4574 25.0121 59.5682 24.1162 60.0637 23.4782C61.5297 21.6118 64.0953 20.9195 66.3011 21.7679C67.0545 22.0597 66.7287 23.2814 65.9617 22.9895H65.9685Z" fill="#561C2F"/>
<path fill-rule="evenodd" clip-rule="evenodd" d="M31.6796 99.3723L45.3489 104.673C45.0163 106.18 44.6837 107.687 44.3512 109.193C53.6495 109.539 62.9411 109.96 72.2328 110.422C72.9929 112.974 73.6241 115.566 73.9771 118.207C60.5656 123.507 45.152 123.541 31.7203 118.288C31.2316 118.098 30.7226 117.881 30.3832 117.48C29.942 116.958 29.8606 116.225 29.8199 115.546C29.4805 110.096 30.1185 104.592 31.6931 99.3655L31.6796 99.3723Z" fill="#EDBA8C"/>
<mask id="mask3_2424_17887" style="mask-type:luminance" maskUnits="userSpaceOnUse" x="29" y="99" width="45" height="24">
<path d="M31.6796 99.3723L45.3489 104.673C45.0163 106.18 44.6837 107.687 44.3512 109.193C53.6495 109.539 62.9411 109.96 72.2328 110.422C72.9929 112.974 73.6241 115.566 73.9771 118.207C60.5656 123.507 45.152 123.541 31.7203 118.288C31.2316 118.098 30.7226 117.881 30.3832 117.48C29.942 116.958 29.8606 116.225 29.8199 115.546C29.4805 110.096 30.1185 104.592 31.6931 99.3655L31.6796 99.3723Z" fill="white"/>
</mask>
<g mask="url(#mask3_2424_17887)">
<path opacity="0.2" fill-rule="evenodd" clip-rule="evenodd" d="M31.6796 99.3723L45.3489 104.673C45.0163 106.18 44.6837 107.687 44.3512 109.193C53.6495 109.539 62.9411 109.96 72.2328 110.422C72.9929 112.974 73.6241 115.566 73.9771 118.207C60.5656 123.507 45.152 123.541 31.7203 118.288C31.2316 118.098 30.7226 117.881 30.3832 117.48C29.942 116.958 29.8606 116.225 29.8199 115.546C29.4805 110.096 30.1185 104.592 31.6931 99.3655L31.6796 99.3723Z" fill="#CB2E45"/>
</g>
<path fill-rule="evenodd" clip-rule="evenodd" d="M72.4429 40.1134C69.857 42.0071 66.416 40.3374 66.1377 37.195C66.1037 36.7877 66.7349 36.7945 66.7689 37.195C67.0064 39.9098 69.9656 41.1451 72.1239 39.5637C72.4565 39.3193 72.7687 39.8691 72.4429 40.1134Z" fill="#EDBA8C"/>
<path opacity="0.16" fill-rule="evenodd" clip-rule="evenodd" d="M88.2573 27.9511C87.8094 27.8358 87.3682 27.7204 86.927 27.605C80.8797 26.044 74.6762 24.9105 68.4592 24.32C64.1629 23.9128 59.8803 23.8042 55.6044 23.9399C53.9211 23.9196 52.2515 23.9196 50.609 23.9399C50.609 23.9399 52.2447 17.465 53.6632 15.456C65.0928 14.8452 77.1128 16.2297 87.6058 20.5124C88.1623 22.3585 88.3659 24.3404 88.1487 26.3765L88.2573 27.9444V27.9511Z" fill="#561C2F"/>
<path fill-rule="evenodd" clip-rule="evenodd" d="M49.4891 13.2094L57.6133 9.01498C60.7354 8.96069 63.8643 8.94711 66.9864 8.99462C71.0519 9.05571 75.0563 9.19824 79.0878 9.67334L79.7055 9.91089L85.6782 13.2162L93.5648 18.1708C93.5648 18.1708 96.0353 19.9423 96.0353 21.2318L96.877 26.0643C96.877 26.0643 74.1061 14.18 45.6408 19.7726C29.2702 20.4513 49.5027 13.2094 49.5027 13.2094H49.4891Z" fill="#F1D054"/>
<mask id="mask4_2424_17887" style="mask-type:luminance" maskUnits="userSpaceOnUse" x="39" y="8" width="58" height="19">
<path d="M49.4891 13.2094L57.6133 9.01498C60.7354 8.96069 63.8643 8.94711 66.9864 8.99462C71.0519 9.05571 75.0563 9.19824 79.0878 9.67334L79.7055 9.91089L85.6782 13.2162L93.5648 18.1708C93.5648 18.1708 96.0353 19.9423 96.0353 21.2318L96.877 26.0643C96.877 26.0643 74.1061 14.18 45.6408 19.7726C29.2702 20.4513 49.5027 13.2094 49.5027 13.2094H49.4891Z" fill="white"/>
</mask>
<g mask="url(#mask4_2424_17887)">
<path opacity="0.3" fill-rule="evenodd" clip-rule="evenodd" d="M49.4891 13.2094L57.6133 9.01498C60.7354 8.96069 63.8643 8.94711 66.9864 8.99462C71.0519 9.05571 75.0563 9.19824 79.0878 9.67334L79.7055 9.91089L85.6782 13.2162L93.5648 18.1708C93.5648 18.1708 96.0353 19.9423 96.0353 21.2318L96.877 26.0643C96.877 26.0643 74.1061 14.18 45.6408 19.7726C29.2702 20.4513 49.5027 13.2094 49.5027 13.2094H49.4891Z" fill="#CB2E45"/>
</g>
<path fill-rule="evenodd" clip-rule="evenodd" d="M104.03 96.9965C106.338 102.738 107.661 108.881 107.926 115.064C107.953 115.654 107.96 116.292 107.641 116.795C107.37 117.229 106.901 117.494 106.447 117.724C99.4083 121.308 91.0465 120.568 83.1938 119.733C82.2029 119.625 71.0313 118.145 71.0652 117.697C71.2484 115.193 71.6421 112.709 72.2326 110.265C76.3863 109.166 80.6351 109.078 84.911 108.704C87.3543 108.494 89.8181 108.161 92.2547 107.971C92.18 106.288 92.0986 104.605 92.0239 102.922L104.03 96.9897V96.9965Z" fill="#EDBA8C"/>
<path opacity="0.15" fill-rule="evenodd" clip-rule="evenodd" d="M31.6798 99.3721L45.3491 104.673C45.0776 105.915 44.7994 107.157 44.5211 108.399C43.6591 108.474 42.7971 108.508 41.9352 108.514C37.9443 108.548 33.9467 108.223 30.0034 107.571C30.3156 104.795 30.8653 102.046 31.673 99.3721H31.6798Z" fill="#561C2F"/>
<path opacity="0.15" fill-rule="evenodd" clip-rule="evenodd" d="M92.167 106.119C92.1195 105.053 92.0719 103.988 92.0176 102.929L104.024 96.9968C104.839 99.0194 105.524 101.089 106.087 103.2C101.703 105.399 96.8976 106.662 92.167 106.126V106.119Z" fill="#561C2F"/>
<path fill-rule="evenodd" clip-rule="evenodd" d="M47.2764 97.8315C43.6793 96.7863 35.2157 94.2683 31.5506 92.7548C30.5733 92.3475 29.4602 92.843 29.0869 93.8271C28.51 95.3475 28.1503 96.6506 27.9399 97.5533C27.7498 98.3474 28.096 99.1686 28.8018 99.5894C31.4963 101.191 38.6432 104.944 45.9869 104.578C46.8013 104.537 47.514 103.994 47.738 103.207C48.1181 101.863 48.3895 100.825 48.566 100.051C48.7968 99.0804 48.2266 98.1098 47.2697 97.8315H47.2764Z" fill="#F1D054"/>
<path fill-rule="evenodd" clip-rule="evenodd" d="M104.533 91.2277L106.08 94.3362C106.487 95.1506 106.351 96.128 105.727 96.7931C103.766 98.8768 98.9263 103.078 91.2976 103.669C90.2456 103.75 89.2886 103.058 89.0171 102.04C88.5692 100.35 88.2434 99.1483 88.0126 98.2999C87.7072 97.1936 88.3045 96.0465 89.3904 95.6665C92.4243 94.6009 98.268 92.4222 101.404 90.3725C102.49 89.6598 103.956 90.0671 104.533 91.2345V91.2277Z" fill="#F1D054"/>
<path opacity="0.3" fill-rule="evenodd" clip-rule="evenodd" d="M47.2764 97.8315C43.6793 96.7863 35.2157 94.2683 31.5506 92.7548C30.5733 92.3475 29.4602 92.843 29.0869 93.8271C28.51 95.3475 28.1503 96.6506 27.9399 97.5533C27.7498 98.3474 28.096 99.1686 28.8018 99.5894C31.4963 101.191 38.6432 104.944 45.9869 104.578C46.8013 104.537 47.514 103.994 47.738 103.207C48.1181 101.863 48.3895 100.825 48.566 100.051C48.7968 99.0804 48.2266 98.1098 47.2697 97.8315H47.2764Z" fill="#CB2E45"/>
<path opacity="0.3" fill-rule="evenodd" clip-rule="evenodd" d="M104.533 91.2277L106.08 94.3362C106.487 95.1506 106.351 96.128 105.727 96.7931C103.766 98.8768 98.9263 103.078 91.2976 103.669C90.2456 103.75 89.2886 103.058 89.0171 102.04C88.5692 100.35 88.2434 99.1483 88.0126 98.2999C87.7072 97.1936 88.3045 96.0465 89.3904 95.6665C92.4243 94.6009 98.268 92.4222 101.404 90.3725C102.49 89.6598 103.956 90.0671 104.533 91.2345V91.2277Z" fill="#CB2E45"/>
<path opacity="0.3" fill-rule="evenodd" clip-rule="evenodd" d="M69.1851 34.5006C68.9951 32.417 68.9612 30.313 69.0833 28.2225C69.1444 27.1977 69.2394 26.1728 69.3752 25.1547C69.4702 24.4081 69.4702 23.4036 69.7756 22.7046C70.1896 21.7544 71.6217 21.6526 71.9068 22.7181C72.1375 23.5665 71.805 24.5167 71.7167 25.3651C71.5742 26.8447 71.3706 28.3175 71.3027 29.7971C71.2688 30.5166 71.2688 31.2292 71.3163 31.9487C71.3434 32.3898 71.1941 33.245 71.5267 33.5844C71.71 33.7676 72.0222 33.8219 72.2393 33.6794C72.409 33.5708 72.4905 33.3672 72.633 33.2246C72.8773 32.9667 73.2914 32.9057 73.6239 33.0346C74.3501 33.3265 74.2619 33.9305 74.1194 34.5617C73.909 35.4712 73.461 36.3264 72.8027 36.9983C72.4565 37.3512 72.0357 37.6567 71.5471 37.7177C70.8073 37.8128 70.0878 37.3037 69.7213 36.6589C69.348 36.0074 69.2598 35.2472 69.1919 34.5006H69.1851Z" fill="#CB2E45"/>
</g>
</g>
<path d="M168.304 18.8548C152.749 19.3607 136.962 31.3505 121.6 44.4092L151.939 64.2098C151.627 41.4838 156.408 33.533 168.304 18.8548Z" fill="white"/>
<rect x="144.098" width="199.902" height="125" rx="16" fill="white"/>
<path d="M166.015 28.3423V32.5423H171.655V35.2063H166.015V39.6463H172.375V42.3823H162.655V25.6063H172.375V28.3423H166.015ZM180.036 42.5983C178.948 42.5983 177.972 42.4063 177.108 42.0223C176.244 41.6223 175.556 41.0863 175.044 40.4143C174.548 39.7423 174.276 38.9983 174.228 38.1823H177.612C177.676 38.6943 177.924 39.1183 178.356 39.4543C178.804 39.7903 179.356 39.9583 180.012 39.9583C180.652 39.9583 181.148 39.8303 181.5 39.5743C181.868 39.3183 182.052 38.9903 182.052 38.5903C182.052 38.1583 181.828 37.8383 181.38 37.6303C180.948 37.4063 180.252 37.1663 179.292 36.9103C178.3 36.6703 177.484 36.4223 176.844 36.1663C176.22 35.9103 175.676 35.5183 175.212 34.9903C174.764 34.4623 174.54 33.7503 174.54 32.8543C174.54 32.1183 174.748 31.4463 175.164 30.8383C175.596 30.2303 176.204 29.7503 176.988 29.3983C177.788 29.0463 178.724 28.8703 179.796 28.8703C181.38 28.8703 182.644 29.2703 183.588 30.0703C184.532 30.8543 185.052 31.9183 185.148 33.2623H181.932C181.884 32.7343 181.66 32.3183 181.26 32.0143C180.876 31.6943 180.356 31.5343 179.7 31.5343C179.092 31.5343 178.62 31.6463 178.284 31.8703C177.964 32.0943 177.804 32.4063 177.804 32.8063C177.804 33.2543 178.028 33.5983 178.476 33.8383C178.924 34.0623 179.62 34.2943 180.564 34.5343C181.524 34.7743 182.316 35.0223 182.94 35.2783C183.564 35.5343 184.1 35.9343 184.548 36.4783C185.012 37.0063 185.252 37.7103 185.268 38.5903C185.268 39.3583 185.052 40.0463 184.62 40.6543C184.204 41.2623 183.596 41.7423 182.796 42.0943C182.012 42.4303 181.092 42.5983 180.036 42.5983ZM186.683 35.7343C186.683 34.3583 186.963 33.1583 187.523 32.1343C188.083 31.0943 188.859 30.2943 189.851 29.7343C190.843 29.1583 191.979 28.8703 193.259 28.8703C194.907 28.8703 196.267 29.2863 197.339 30.1183C198.427 30.9343 199.155 32.0863 199.523 33.5743H195.899C195.707 32.9983 195.379 32.5503 194.915 32.2303C194.467 31.8943 193.907 31.7263 193.235 31.7263C192.275 31.7263 191.515 32.0783 190.955 32.7823C190.395 33.4703 190.115 34.4543 190.115 35.7343C190.115 36.9983 190.395 37.9823 190.955 38.6863C191.515 39.3743 192.275 39.7183 193.235 39.7183C194.595 39.7183 195.483 39.1103 195.899 37.8943H199.523C199.155 39.3343 198.427 40.4783 197.339 41.3263C196.251 42.1743 194.891 42.5983 193.259 42.5983C191.979 42.5983 190.843 42.3183 189.851 41.7583C188.859 41.1823 188.083 40.3823 187.523 39.3583C186.963 38.3183 186.683 37.1103 186.683 35.7343ZM204.864 31.1503C205.296 30.4463 205.856 29.8943 206.544 29.4943C207.248 29.0943 208.048 28.8943 208.944 28.8943V32.4223H208.056C207 32.4223 206.2 32.6703 205.656 33.1663C205.128 33.6623 204.864 34.5263 204.864 35.7583V42.3823H201.504V29.0863H204.864V31.1503ZM212.431 27.5023C211.839 27.5023 211.343 27.3183 210.943 26.9503C210.559 26.5663 210.367 26.0943 210.367 25.5343C210.367 24.9743 210.559 24.5103 210.943 24.1423C211.343 23.7583 211.839 23.5663 212.431 23.5663C213.023 23.5663 213.511 23.7583 213.895 24.1423C214.295 24.5103 214.495 24.9743 214.495 25.5343C214.495 26.0943 214.295 26.5663 213.895 26.9503C213.511 27.3183 213.023 27.5023 212.431 27.5023ZM214.087 29.0863V42.3823H210.727V29.0863H214.087ZM220.287 31.0303C220.719 30.3903 221.311 29.8703 222.063 29.4703C222.831 29.0703 223.703 28.8703 224.679 28.8703C225.815 28.8703 226.839 29.1503 227.751 29.7103C228.679 30.2703 229.407 31.0703 229.935 32.1103C230.479 33.1343 230.751 34.3263 230.751 35.6863C230.751 37.0463 230.479 38.2543 229.935 39.3103C229.407 40.3503 228.679 41.1583 227.751 41.7343C226.839 42.3103 225.815 42.5983 224.679 42.5983C223.687 42.5983 222.815 42.4063 222.063 42.0223C221.327 41.6223 220.735 41.1103 220.287 40.4863V42.3823H216.927V24.6223H220.287V31.0303ZM227.319 35.6863C227.319 34.8863 227.151 34.1983 226.815 33.6223C226.495 33.0303 226.063 32.5823 225.519 32.2783C224.991 31.9743 224.415 31.8223 223.791 31.8223C223.183 31.8223 222.607 31.9823 222.063 32.3023C221.535 32.6063 221.103 33.0543 220.767 33.6463C220.447 34.2383 220.287 34.9343 220.287 35.7343C220.287 36.5343 220.447 37.2303 220.767 37.8223C221.103 38.4143 221.535 38.8703 222.063 39.1903C222.607 39.4943 223.183 39.6463 223.791 39.6463C224.415 39.6463 224.991 39.4863 225.519 39.1663C226.063 38.8463 226.495 38.3903 226.815 37.7983C227.151 37.2063 227.319 36.5023 227.319 35.6863ZM245.073 35.4463C245.073 35.9263 245.041 36.3583 244.977 36.7423H235.257C235.337 37.7023 235.673 38.4543 236.265 38.9983C236.857 39.5423 237.585 39.8143 238.449 39.8143C239.697 39.8143 240.585 39.2783 241.113 38.2063H244.737C244.353 39.4863 243.617 40.5423 242.529 41.3743C241.441 42.1903 240.105 42.5983 238.521 42.5983C237.241 42.5983 236.089 42.3183 235.065 41.7583C234.057 41.1823 233.265 40.3743 232.689 39.3343C232.129 38.2943 231.849 37.0943 231.849 35.7343C231.849 34.3583 232.129 33.1503 232.689 32.1103C233.249 31.0703 234.033 30.2703 235.041 29.7103C236.049 29.1503 237.209 28.8703 238.521 28.8703C239.785 28.8703 240.913 29.1423 241.905 29.6863C242.913 30.2303 243.689 31.0063 244.233 32.0143C244.793 33.0063 245.073 34.1503 245.073 35.4463ZM241.593 34.4863C241.577 33.6223 241.265 32.9343 240.657 32.4223C240.049 31.8943 239.305 31.6303 238.425 31.6303C237.593 31.6303 236.889 31.8863 236.313 32.3983C235.753 32.8943 235.409 33.5903 235.281 34.4863H241.593ZM256.196 31.8463V38.2783C256.196 38.7263 256.3 39.0543 256.508 39.2623C256.732 39.4543 257.1 39.5503 257.612 39.5503H259.172V42.3823H257.06C254.228 42.3823 252.812 41.0063 252.812 38.2543V31.8463H251.228V29.0863H252.812V25.7983H256.196V29.0863H259.172V31.8463H256.196ZM273.66 29.0863V42.3823H270.276V40.7023C269.844 41.2783 269.276 41.7343 268.572 42.0703C267.884 42.3903 267.132 42.5503 266.316 42.5503C265.276 42.5503 264.356 42.3343 263.556 41.9023C262.756 41.4543 262.124 40.8063 261.66 39.9583C261.212 39.0943 260.988 38.0703 260.988 36.8863V29.0863H264.348V36.4063C264.348 37.4623 264.612 38.2783 265.14 38.8543C265.668 39.4143 266.388 39.6943 267.3 39.6943C268.228 39.6943 268.956 39.4143 269.484 38.8543C270.012 38.2783 270.276 37.4623 270.276 36.4063V29.0863H273.66ZM170.023 59.8943C171.607 59.8943 172.887 60.3983 173.863 61.4063C174.839 62.3983 175.327 63.7903 175.327 65.5823V73.3823H171.967V66.0383C171.967 64.9823 171.703 64.1743 171.175 63.6143C170.647 63.0383 169.927 62.7503 169.015 62.7503C168.087 62.7503 167.351 63.0383 166.807 63.6143C166.279 64.1743 166.015 64.9823 166.015 66.0383V73.3823H162.655V60.0863H166.015V61.7423C166.463 61.1663 167.031 60.7183 167.719 60.3983C168.423 60.0623 169.191 59.8943 170.023 59.8943ZM190.594 60.0863V73.3823H187.21V71.7023C186.778 72.2783 186.21 72.7343 185.506 73.0703C184.818 73.3903 184.066 73.5503 183.25 73.5503C182.21 73.5503 181.29 73.3343 180.49 72.9023C179.69 72.4543 179.058 71.8063 178.594 70.9583C178.146 70.0943 177.922 69.0703 177.922 67.8863V60.0863H181.282V67.4063C181.282 68.4623 181.546 69.2783 182.074 69.8543C182.602 70.4143 183.322 70.6943 184.234 70.6943C185.162 70.6943 185.89 70.4143 186.418 69.8543C186.946 69.2783 187.21 68.4623 187.21 67.4063V60.0863H190.594ZM186.946 56.6303L181.426 59.1503V56.7503L186.946 53.8943V56.6303ZM209.941 59.8943C211.573 59.8943 212.885 60.3983 213.877 61.4063C214.885 62.3983 215.389 63.7903 215.389 65.5823V73.3823H212.029V66.0383C212.029 64.9983 211.765 64.2063 211.237 63.6623C210.709 63.1023 209.989 62.8223 209.077 62.8223C208.165 62.8223 207.437 63.1023 206.893 63.6623C206.365 64.2063 206.101 64.9983 206.101 66.0383V73.3823H202.741V66.0383C202.741 64.9983 202.477 64.2063 201.949 63.6623C201.421 63.1023 200.701 62.8223 199.789 62.8223C198.861 62.8223 198.125 63.1023 197.581 63.6623C197.053 64.2063 196.789 64.9983 196.789 66.0383V73.3823H193.429V60.0863H196.789V61.6943C197.221 61.1343 197.773 60.6943 198.445 60.3743C199.133 60.0543 199.885 59.8943 200.701 59.8943C201.741 59.8943 202.669 60.1183 203.485 60.5663C204.301 60.9983 204.933 61.6223 205.381 62.4383C205.813 61.6703 206.437 61.0543 207.253 60.5903C208.085 60.1263 208.981 59.8943 209.941 59.8943ZM230.458 66.4463C230.458 66.9263 230.426 67.3583 230.362 67.7423H220.642C220.722 68.7023 221.058 69.4543 221.65 69.9983C222.242 70.5423 222.97 70.8143 223.834 70.8143C225.082 70.8143 225.97 70.2783 226.498 69.2063H230.122C229.738 70.4863 229.002 71.5423 227.914 72.3743C226.826 73.1903 225.49 73.5983 223.906 73.5983C222.626 73.5983 221.474 73.3183 220.45 72.7583C219.442 72.1823 218.65 71.3743 218.074 70.3343C217.514 69.2943 217.234 68.0943 217.234 66.7343C217.234 65.3583 217.514 64.1503 218.074 63.1103C218.634 62.0703 219.418 61.2703 220.426 60.7103C221.434 60.1503 222.594 59.8703 223.906 59.8703C225.17 59.8703 226.298 60.1423 227.29 60.6863C228.298 61.2303 229.074 62.0063 229.618 63.0143C230.178 64.0063 230.458 65.1503 230.458 66.4463ZM226.978 65.4863C226.962 64.6223 226.65 63.9343 226.042 63.4223C225.434 62.8943 224.69 62.6303 223.81 62.6303C222.978 62.6303 222.274 62.8863 221.698 63.3983C221.138 63.8943 220.794 64.5903 220.666 65.4863H226.978ZM235.79 62.1503C236.222 61.4463 236.782 60.8943 237.47 60.4943C238.174 60.0943 238.974 59.8943 239.87 59.8943V63.4223H238.982C237.926 63.4223 237.126 63.6703 236.582 64.1663C236.054 64.6623 235.79 65.5263 235.79 66.7583V73.3823H232.43V60.0863H235.79V62.1503ZM247.557 73.5983C246.277 73.5983 245.125 73.3183 244.101 72.7583C243.077 72.1823 242.269 71.3743 241.677 70.3343C241.101 69.2943 240.813 68.0943 240.813 66.7343C240.813 65.3743 241.109 64.1743 241.701 63.1343C242.309 62.0943 243.133 61.2943 244.173 60.7343C245.213 60.1583 246.373 59.8703 247.653 59.8703C248.933 59.8703 250.093 60.1583 251.133 60.7343C252.173 61.2943 252.989 62.0943 253.581 63.1343C254.189 64.1743 254.493 65.3743 254.493 66.7343C254.493 68.0943 254.181 69.2943 253.557 70.3343C252.949 71.3743 252.117 72.1823 251.061 72.7583C250.021 73.3183 248.853 73.5983 247.557 73.5983ZM247.557 70.6703C248.165 70.6703 248.733 70.5263 249.261 70.2383C249.805 69.9343 250.237 69.4863 250.557 68.8943C250.877 68.3023 251.037 67.5823 251.037 66.7343C251.037 65.4703 250.701 64.5023 250.029 63.8303C249.373 63.1423 248.565 62.7983 247.605 62.7983C246.645 62.7983 245.837 63.1423 245.181 63.8303C244.541 64.5023 244.221 65.4703 244.221 66.7343C244.221 67.9983 244.533 68.9743 245.157 69.6623C245.797 70.3343 246.597 70.6703 247.557 70.6703ZM260.853 66.6863C260.853 65.3423 261.117 64.1503 261.645 63.1103C262.189 62.0703 262.925 61.2703 263.853 60.7103C264.781 60.1503 265.813 59.8703 266.949 59.8703C267.813 59.8703 268.637 60.0623 269.421 60.4463C270.205 60.8143 270.829 61.3103 271.293 61.9343V55.6223H274.701V73.3823H271.293V71.4143C270.877 72.0703 270.293 72.5983 269.541 72.9983C268.789 73.3983 267.917 73.5983 266.925 73.5983C265.805 73.5983 264.781 73.3103 263.853 72.7343C262.925 72.1583 262.189 71.3503 261.645 70.3103C261.117 69.2543 260.853 68.0463 260.853 66.6863ZM271.317 66.7343C271.317 65.9183 271.157 65.2223 270.837 64.6463C270.517 64.0543 270.085 63.6063 269.541 63.3023C268.997 62.9823 268.413 62.8223 267.789 62.8223C267.165 62.8223 266.589 62.9743 266.061 63.2783C265.533 63.5823 265.101 64.0303 264.765 64.6223C264.445 65.1983 264.285 65.8863 264.285 66.6863C264.285 67.4863 264.445 68.1903 264.765 68.7983C265.101 69.3903 265.533 69.8463 266.061 70.1663C266.605 70.4863 267.181 70.6463 267.789 70.6463C268.413 70.6463 268.997 70.4943 269.541 70.1903C270.085 69.8703 270.517 69.4223 270.837 68.8463C271.157 68.2543 271.317 67.5503 271.317 66.7343ZM289.863 66.4463C289.863 66.9263 289.831 67.3583 289.767 67.7423H280.047C280.127 68.7023 280.463 69.4543 281.055 69.9983C281.647 70.5423 282.375 70.8143 283.239 70.8143C284.487 70.8143 285.375 70.2783 285.903 69.2063H289.527C289.143 70.4863 288.407 71.5423 287.319 72.3743C286.231 73.1903 284.895 73.5983 283.311 73.5983C282.031 73.5983 280.879 73.3183 279.855 72.7583C278.847 72.1823 278.055 71.3743 277.479 70.3343C276.919 69.2943 276.639 68.0943 276.639 66.7343C276.639 65.3583 276.919 64.1503 277.479 63.1103C278.039 62.0703 278.823 61.2703 279.831 60.7103C280.839 60.1503 281.999 59.8703 283.311 59.8703C284.575 59.8703 285.703 60.1423 286.695 60.6863C287.703 61.2303 288.479 62.0063 289.023 63.0143C289.583 64.0063 289.863 65.1503 289.863 66.4463ZM286.383 65.4863C286.367 64.6223 286.055 63.9343 285.447 63.4223C284.839 62.8943 284.095 62.6303 283.215 62.6303C282.383 62.6303 281.679 62.8863 281.103 63.3983C280.543 63.8943 280.199 64.5903 280.071 65.4863H286.383ZM161.791 97.7343C161.791 96.3583 162.071 95.1583 162.631 94.1343C163.191 93.0943 163.967 92.2943 164.959 91.7343C165.951 91.1583 167.087 90.8703 168.367 90.8703C170.015 90.8703 171.375 91.2863 172.447 92.1183C173.535 92.9343 174.263 94.0863 174.631 95.5743H171.007C170.815 94.9983 170.487 94.5503 170.023 94.2303C169.575 93.8943 169.015 93.7263 168.343 93.7263C167.383 93.7263 166.623 94.0783 166.063 94.7823C165.503 95.4703 165.223 96.4543 165.223 97.7343C165.223 98.9983 165.503 99.9823 166.063 100.686C166.623 101.374 167.383 101.718 168.343 101.718C169.703 101.718 170.591 101.11 171.007 99.8943H174.631C174.263 101.334 173.535 102.478 172.447 103.326C171.359 104.174 169.999 104.598 168.367 104.598C167.087 104.598 165.951 104.318 164.959 103.758C163.967 103.182 163.191 102.382 162.631 101.358C162.071 100.318 161.791 99.1103 161.791 97.7343ZM188.973 97.4463C188.973 97.9263 188.941 98.3583 188.877 98.7423H179.157C179.237 99.7023 179.573 100.454 180.165 100.998C180.757 101.542 181.485 101.814 182.349 101.814C183.597 101.814 184.485 101.278 185.013 100.206H188.637C188.253 101.486 187.517 102.542 186.429 103.374C185.341 104.19 184.005 104.598 182.421 104.598C181.141 104.598 179.989 104.318 178.965 103.758C177.957 103.182 177.165 102.374 176.589 101.334C176.029 100.294 175.749 99.0943 175.749 97.7343C175.749 96.3583 176.029 95.1503 176.589 94.1103C177.149 93.0703 177.933 92.2703 178.941 91.7103C179.949 91.1503 181.109 90.8703 182.421 90.8703C183.685 90.8703 184.813 91.1423 185.805 91.6863C186.813 92.2303 187.589 93.0063 188.133 94.0143C188.693 95.0063 188.973 96.1503 188.973 97.4463ZM185.493 96.4863C185.477 95.6223 185.165 94.9343 184.557 94.4223C183.949 93.8943 183.205 93.6303 182.325 93.6303C181.493 93.6303 180.789 93.8863 180.213 94.3983C179.653 94.8943 179.309 95.5903 179.181 96.4863H185.493ZM194.305 86.6223V104.382H190.945V86.6223H194.305ZM209.697 91.0863V104.382H206.313V102.702C205.881 103.278 205.313 103.734 204.609 104.07C203.921 104.39 203.169 104.55 202.353 104.55C201.313 104.55 200.393 104.334 199.593 103.902C198.793 103.454 198.161 102.806 197.697 101.958C197.249 101.094 197.025 100.07 197.025 98.8863V91.0863H200.385V98.4063C200.385 99.4623 200.649 100.278 201.177 100.854C201.705 101.414 202.425 101.694 203.337 101.694C204.265 101.694 204.993 101.414 205.521 100.854C206.049 100.278 206.313 99.4623 206.313 98.4063V91.0863H209.697ZM215.892 86.6223V104.382H212.532V86.6223H215.892ZM217.868 97.6863C217.868 96.3423 218.132 95.1503 218.66 94.1103C219.204 93.0703 219.932 92.2703 220.844 91.7103C221.772 91.1503 222.804 90.8703 223.94 90.8703C224.932 90.8703 225.796 91.0703 226.532 91.4703C227.284 91.8703 227.884 92.3743 228.332 92.9823V91.0863H231.716V104.382H228.332V102.438C227.9 103.062 227.3 103.582 226.532 103.998C225.78 104.398 224.908 104.598 223.916 104.598C222.796 104.598 221.772 104.31 220.844 103.734C219.932 103.158 219.204 102.35 218.66 101.31C218.132 100.254 217.868 99.0463 217.868 97.6863ZM228.332 97.7343C228.332 96.9183 228.172 96.2223 227.852 95.6463C227.532 95.0543 227.1 94.6063 226.556 94.3023C226.012 93.9823 225.428 93.8223 224.804 93.8223C224.18 93.8223 223.604 93.9743 223.076 94.2783C222.548 94.5823 222.116 95.0303 221.78 95.6223C221.46 96.1983 221.3 96.8863 221.3 97.6863C221.3 98.4863 221.46 99.1903 221.78 99.7983C222.116 100.39 222.548 100.846 223.076 101.166C223.62 101.486 224.196 101.646 224.804 101.646C225.428 101.646 226.012 101.494 226.556 101.19C227.1 100.87 227.532 100.422 227.852 99.8463C228.172 99.2543 228.332 98.5503 228.332 97.7343ZM237.877 93.1503C238.309 92.4463 238.869 91.8943 239.557 91.4943C240.261 91.0943 241.061 90.8943 241.957 90.8943V94.4223H241.069C240.013 94.4223 239.213 94.6703 238.669 95.1663C238.141 95.6623 237.877 96.5263 237.877 97.7583V104.382H234.517V91.0863H237.877V93.1503Z" fill="#8F3B06"/>
<defs>
<filter id="filter0_d_2424_17887" x="12.881" y="0" width="106.238" height="257.697" filterUnits="userSpaceOnUse" color-interpolation-filters="sRGB">
<feFlood flood-opacity="0" result="BackgroundImageFix"/>
<feColorMatrix in="SourceAlpha" type="matrix" values="0 0 0 0 0 0 0 0 0 0 0 0 0 0 0 0 0 0 127 0" result="hardAlpha"/>
<feOffset dy="3.11898"/>
<feGaussianBlur stdDeviation="1.55949"/>
<feComposite in2="hardAlpha" operator="out"/>
<feColorMatrix type="matrix" values="0 0 0 0 0 0 0 0 0 0 0 0 0 0 0 0 0 0 0.25 0"/>
<feBlend mode="normal" in2="BackgroundImageFix" result="effect1_dropShadow_2424_17887"/>
<feBlend mode="normal" in="SourceGraphic" in2="effect1_dropShadow_2424_17887" result="shape"/>
</filter>
<clipPath id="clip0_2424_17887">
<rect width="100" height="104" fill="white" transform="matrix(-1 0 0 1 116 0)"/>
</clipPath>
</defs>
</svg>
