<svg width="56" height="56" viewBox="0 0 56 56" fill="none" xmlns="http://www.w3.org/2000/svg">
<mask id="mask0_2725_6359" style="mask-type:alpha" maskUnits="userSpaceOnUse" x="0" y="0" width="56" height="56">
<rect width="56" height="56" fill="#D9D9D9"/>
</mask>
<g mask="url(#mask0_2725_6359)">
<path d="M24.7332 38.7332L41.1832 22.2832L37.9165 19.0165L24.7332 32.1998L18.0832 25.5498L14.8165 28.8165L24.7332 38.7332ZM27.9998 51.3332C24.7721 51.3332 21.7387 50.7207 18.8998 49.4957C16.0609 48.2707 13.5915 46.6082 11.4915 44.5082C9.3915 42.4082 7.729 39.9387 6.504 37.0998C5.279 34.261 4.6665 31.2276 4.6665 27.9998C4.6665 24.7721 5.279 21.7387 6.504 18.8998C7.729 16.0609 9.3915 13.5915 11.4915 11.4915C13.5915 9.3915 16.0609 7.729 18.8998 6.504C21.7387 5.279 24.7721 4.6665 27.9998 4.6665C31.2276 4.6665 34.261 5.279 37.0998 6.504C39.9387 7.729 42.4082 9.3915 44.5082 11.4915C46.6082 13.5915 48.2707 16.0609 49.4957 18.8998C50.7207 21.7387 51.3332 24.7721 51.3332 27.9998C51.3332 31.2276 50.7207 34.261 49.4957 37.0998C48.2707 39.9387 46.6082 42.4082 44.5082 44.5082C42.4082 46.6082 39.9387 48.2707 37.0998 49.4957C34.261 50.7207 31.2276 51.3332 27.9998 51.3332ZM27.9998 46.6665C33.211 46.6665 37.6248 44.8582 41.2415 41.2415C44.8582 37.6248 46.6665 33.211 46.6665 27.9998C46.6665 22.7887 44.8582 18.3748 41.2415 14.7582C37.6248 11.1415 33.211 9.33317 27.9998 9.33317C22.7887 9.33317 18.3748 11.1415 14.7582 14.7582C11.1415 18.3748 9.33317 22.7887 9.33317 27.9998C9.33317 33.211 11.1415 37.6248 14.7582 41.2415C18.3748 44.8582 22.7887 46.6665 27.9998 46.6665Z" fill="#22C55E"/>
</g>
</svg>
