<svg width="360" height="125" viewBox="0 0 360 125" fill="none" xmlns="http://www.w3.org/2000/svg">
<g clip-path="url(#clip0_3089_4937)">
<g filter="url(#filter0_d_3089_4937)">
<path fill-rule="evenodd" clip-rule="evenodd" d="M29.2634 97.2479C33.7361 86.083 37.9781 72.7191 44.6634 68.545C48.5999 66.0881 62.2285 64.4184 62.2285 64.4184H70.665C70.665 64.4184 85.1827 62.7963 89.4653 66.8143C92.9268 70.0654 104.75 94.1326 104.75 94.1326C104.75 94.1326 96.9244 102.372 89.4653 102.372C89.6825 112.363 89.7233 121.397 89.7233 121.397C89.7233 121.397 90.0151 122.734 90.4902 125.191C78.1308 126.222 61.2783 126.263 46.8692 122.625C47.1746 119.041 47.3647 116.883 47.385 116.659L52.2446 84.3319C52.2446 84.3319 49.1768 95.7343 46.9778 102.936C43.5435 102.936 31.9511 100.187 29.2634 97.2411V97.2479Z" fill="#F1D054"/>
<path fill-rule="evenodd" clip-rule="evenodd" d="M66.8578 70.1128H67.0139C69.6609 70.1128 71.8057 67.968 71.8057 65.321V50.2739H62.0593V65.321C62.0593 67.968 64.2041 70.1128 66.851 70.1128H66.8578Z" fill="#EDBA8C"/>
<path opacity="0.25" fill-rule="evenodd" clip-rule="evenodd" d="M71.8115 63.9027C68.5673 64.2488 65.2687 64.0995 62.0652 63.4547V56.3757C65.2891 56.8983 68.5469 57.163 71.8115 57.1766V63.9027Z" fill="#561C2F" stroke="#EDBA8C" stroke-width="0.347756" stroke-miterlimit="22.93"/>
<path fill-rule="evenodd" clip-rule="evenodd" d="M84.7959 10.2773C84.7959 10.2773 84.2394 5.4924 82.1353 3.3816C80.0245 1.27759 66.4638 -1.34904 59.6156 0.802487C57.4641 3.06939 56.0863 7.54212 56.0863 7.54212L84.7959 10.2773Z" fill="#F1D054"/>
<path fill-rule="evenodd" clip-rule="evenodd" d="M31.1843 18.8971C30.3902 27.6661 47.039 36.3333 68.371 38.2676C89.7031 40.2019 107.635 34.6568 108.429 25.8946C109.223 17.1256 92.574 8.45846 71.242 6.52412C49.91 4.58978 31.9784 10.1349 31.1843 18.8971Z" fill="#F1D054"/>
<mask id="mask0_3089_4937" style="mask-type:luminance" maskUnits="userSpaceOnUse" x="31" y="6" width="78" height="33">
<path d="M31.1843 18.8971C30.3902 27.6661 47.039 36.3333 68.371 38.2676C89.7031 40.2019 107.635 34.6568 108.429 25.8946C109.223 17.1256 92.574 8.45846 71.242 6.52412C49.91 4.58978 31.9784 10.1349 31.1843 18.8971Z" fill="white"/>
</mask>
<g mask="url(#mask0_3089_4937)">
<path opacity="0.3" fill-rule="evenodd" clip-rule="evenodd" d="M31.1843 18.8971C30.3902 27.6661 47.039 36.3333 68.371 38.2676C89.7031 40.2019 107.635 34.6568 108.429 25.8946C109.223 17.1256 92.574 8.45846 71.242 6.52412C49.91 4.58978 31.9784 10.1349 31.1843 18.8971Z" fill="#CB2E45"/>
</g>
<path fill-rule="evenodd" clip-rule="evenodd" d="M44.0461 33.5234C45.5393 36.5641 48.3152 38.2541 50.2496 37.3039C52.1839 36.3537 52.5368 33.123 51.0437 30.0823C49.5505 27.0417 46.7746 25.3517 44.8402 26.3019C42.9059 27.2521 42.5529 30.4828 44.0461 33.5234Z" fill="#EDBA8C"/>
<path fill-rule="evenodd" clip-rule="evenodd" d="M49.5433 40.1135L51.4166 22.4737C52.2853 14.2884 59.629 8.35641 67.8143 9.23195L74.9001 9.98532C83.0854 10.8541 89.0174 18.1978 88.1418 26.3831L86.2686 44.0229C85.3998 52.2082 78.0561 58.1401 69.8708 57.2646L62.7851 56.5112C54.5998 55.6425 48.6678 48.2988 49.5433 40.1135Z" fill="#EDBA8C"/>
<path fill-rule="evenodd" clip-rule="evenodd" d="M92.5327 38.4033C90.5102 41.1181 87.4763 42.2787 85.7456 40.9959C84.0149 39.7132 84.2524 36.4689 86.275 33.7541C88.2975 31.0392 91.3314 29.8786 93.0621 31.1614C94.7861 32.4441 94.5553 35.6884 92.5327 38.4033Z" fill="#EDBA8C"/>
<path fill-rule="evenodd" clip-rule="evenodd" d="M92.3905 33.4758C89.73 33.8084 88.7594 36.5911 88.0739 38.7969C87.9585 39.1702 87.368 39.0141 87.4834 38.634C88.2707 36.1092 89.411 33.2383 92.3905 32.865C92.7774 32.8175 92.7774 33.4215 92.3905 33.4758Z" fill="#561C2F"/>
<path fill-rule="evenodd" clip-rule="evenodd" d="M90.9245 36.7607C90.334 36.3603 89.7028 36.1024 89.0037 35.9734C88.6169 35.8987 88.7798 35.315 89.1666 35.3829C89.9132 35.5187 90.6055 35.8105 91.2299 36.2313C91.5489 36.4485 91.2503 36.9779 90.9245 36.7539V36.7607Z" fill="#561C2F"/>
<path fill-rule="evenodd" clip-rule="evenodd" d="M48.8986 35.9735C49.0344 33.1636 47.9756 30.5913 45.9055 28.6909C45.6137 28.4262 46.048 27.9918 46.3331 28.2633C48.5118 30.2723 49.6384 33.0211 49.5027 35.9803C49.4823 36.3739 48.8783 36.3739 48.8918 35.9803L48.8986 35.9735Z" fill="#561C2F"/>
<path fill-rule="evenodd" clip-rule="evenodd" d="M48.1727 31.9893C47.2904 32.0979 46.5303 32.5458 45.9737 33.2245C45.7226 33.5299 45.295 33.0956 45.5461 32.7969C46.2113 31.9825 47.1343 31.5074 48.1727 31.3852C48.5596 31.3377 48.5596 31.9485 48.1727 31.996V31.9893Z" fill="#561C2F"/>
<path fill-rule="evenodd" clip-rule="evenodd" d="M88.1829 24.3266C86.3436 31.202 85.0676 40.3579 85.0676 40.3579C85.0676 40.3579 82.4342 39.7131 80.2487 38.5321C78.0633 37.3512 71.4865 33.2042 62.5003 35.22C54.1386 37.0933 52.5775 37.0593 52.5775 37.0593C52.5775 37.0593 51.254 25.1682 51.7088 19.9761C49.1364 30.3943 37.2522 59.1447 65.9211 61.7985C93.9045 63.8482 88.2779 39.4009 88.1897 24.3334L88.1829 24.3266Z" fill="#CB2E45"/>
<mask id="mask1_3089_4937" style="mask-type:luminance" maskUnits="userSpaceOnUse" x="47" y="19" width="42" height="43">
<path d="M88.1829 24.3266C86.3436 31.202 85.0676 40.3579 85.0676 40.3579C85.0676 40.3579 82.4342 39.7131 80.2487 38.5321C78.0633 37.3512 71.4865 33.2042 62.5003 35.22C54.1386 37.0933 52.5775 37.0593 52.5775 37.0593C52.5775 37.0593 51.254 25.1682 51.7088 19.9761C49.1364 30.3943 37.2522 59.1447 65.9211 61.7985C93.9045 63.8482 88.2779 39.4009 88.1897 24.3334L88.1829 24.3266Z" fill="white"/>
</mask>
<g mask="url(#mask1_3089_4937)">
<path opacity="0.3" fill-rule="evenodd" clip-rule="evenodd" d="M88.1829 24.3266C86.3436 31.202 85.0676 40.3579 85.0676 40.3579C85.0676 40.3579 82.4342 39.7131 80.2487 38.5321C78.0633 37.3512 71.4865 33.2042 62.5003 35.22C54.1386 37.0933 52.5775 37.0593 52.5775 37.0593C52.5775 37.0593 51.254 25.1682 51.7088 19.9761C49.1364 30.3943 37.2522 59.1447 65.9211 61.7985C93.9045 63.8482 88.2779 39.4009 88.1897 24.3334L88.1829 24.3266Z" fill="#561C2F"/>
</g>
<path fill-rule="evenodd" clip-rule="evenodd" d="M46.8694 122.618C46.9509 122.632 47.0391 122.645 47.1273 122.659L47.1477 121.824C58.5705 93.7254 50.9485 66.4207 50.9485 66.4207L56.3375 65.1583C56.3375 65.1583 60.1926 75.5766 59.4732 88.316C59.4732 88.316 73.828 87.9631 82.5291 88.6554C82.373 76.6693 80.459 64.0859 80.459 64.0859L86.1059 64.9275C86.1059 64.9275 91.1759 97.4923 89.4655 102.365L89.7235 121.39L90.2393 123.955H90.2529C90.375 124.58 90.5243 125.326 90.6804 126.168V126.182C93.5989 141.609 101.757 191.963 94.8342 241.244C83.4046 242.079 81.83 241.224 81.83 241.224C81.83 241.224 79.2984 178.68 72.0701 145.579L50.134 239.839L36.9805 238.556C36.9805 238.556 44.7722 147.106 46.8694 122.611V122.618Z" fill="#561C2F"/>
<mask id="mask2_3089_4937" style="mask-type:luminance" maskUnits="userSpaceOnUse" x="36" y="64" width="62" height="178">
<path d="M46.8694 122.618C46.9509 122.632 47.0391 122.645 47.1273 122.659L47.1477 121.824C58.5705 93.7254 50.9485 66.4207 50.9485 66.4207L56.3375 65.1583C56.3375 65.1583 60.1926 75.5766 59.4732 88.316C59.4732 88.316 73.828 87.9631 82.5291 88.6554C82.373 76.6693 80.459 64.0859 80.459 64.0859L86.1059 64.9275C86.1059 64.9275 91.1759 97.4923 89.4655 102.365L89.7235 121.39L90.2393 123.955H90.2529C90.375 124.58 90.5243 125.326 90.6804 126.168V126.182C93.5989 141.609 101.757 191.963 94.8342 241.244C83.4046 242.079 81.83 241.224 81.83 241.224C81.83 241.224 79.2984 178.68 72.0701 145.579L50.134 239.839L36.9805 238.556C36.9805 238.556 44.7722 147.106 46.8694 122.611V122.618Z" fill="white"/>
</mask>
<g mask="url(#mask2_3089_4937)">
<path opacity="0.3" fill-rule="evenodd" clip-rule="evenodd" d="M46.8694 122.618C46.9509 122.632 47.0391 122.645 47.1273 122.659L47.1477 121.824C58.5705 93.7254 50.9485 66.4207 50.9485 66.4207L56.3375 65.1583C56.3375 65.1583 60.1926 75.5766 59.4732 88.316C59.4732 88.316 73.828 87.9631 82.5291 88.6554C82.373 76.6693 80.459 64.0859 80.459 64.0859L86.1059 64.9275C86.1059 64.9275 91.1759 97.4923 89.4655 102.365L89.7235 121.39L90.2393 123.955H90.2529C90.375 124.58 90.5243 125.326 90.6804 126.168V126.182C93.5989 141.609 101.757 191.963 94.8342 241.244C83.4046 242.079 81.83 241.224 81.83 241.224C81.83 241.224 79.2984 178.68 72.0701 145.579L50.134 239.839L36.9805 238.556C36.9805 238.556 44.7722 147.106 46.8694 122.611V122.618Z" fill="#561C2F"/>
</g>
<path fill-rule="evenodd" clip-rule="evenodd" d="M69.1851 34.5006C68.9951 32.417 68.9612 30.313 69.0833 28.2225C69.1444 27.1977 69.2394 26.1728 69.3752 25.1547C69.4702 24.4081 69.4702 23.4036 69.7756 22.7046C70.1896 21.7544 71.6217 21.6526 71.9068 22.7181C72.1375 23.5665 71.805 24.5167 71.7167 25.3651C71.5742 26.8447 71.3706 28.3175 71.3027 29.7971C71.2688 30.5166 71.2688 31.2292 71.3163 31.9487C71.3434 32.3898 71.1941 33.245 71.5267 33.5844C71.71 33.7676 72.0222 33.8219 72.2393 33.6794C72.409 33.5708 72.4905 33.3672 72.633 33.2246C72.8773 32.9667 73.2914 32.9057 73.6239 33.0346C74.3501 33.3265 74.2619 33.9305 74.1194 34.5617C73.909 35.4712 73.461 36.3264 72.8027 36.9983C72.4565 37.3512 72.0357 37.6567 71.5471 37.7177C70.8073 37.8128 70.0878 37.3037 69.7213 36.6589C69.348 36.0074 69.2598 35.2472 69.1919 34.5006H69.1851Z" fill="#F1D054"/>
<path fill-rule="evenodd" clip-rule="evenodd" d="M75.8906 31.4804C75.721 32.8039 76.2979 33.9713 77.1734 34.0799C78.0489 34.1885 78.8973 33.2044 79.0602 31.8809C79.2299 30.5574 78.653 29.39 77.7775 29.2814C76.9019 29.1728 76.0535 30.1569 75.8906 31.4804Z" fill="#561C2F"/>
<path fill-rule="evenodd" clip-rule="evenodd" d="M65.8938 30.4964C65.9345 31.8334 65.249 32.9397 64.3667 32.9601C63.4843 32.9873 62.7378 31.9217 62.697 30.5846C62.6563 29.2475 63.3418 28.1412 64.2241 28.1209C65.1065 28.0937 65.8531 29.1593 65.8938 30.4964Z" fill="#561C2F"/>
<path fill-rule="evenodd" clip-rule="evenodd" d="M81.7827 27.0279C80.9953 25.0596 79.0746 24.0619 77.0113 24.313C76.2036 24.408 76.2104 23.1456 77.0113 23.0506C79.6854 22.7316 82.0202 24.2316 83.0043 26.6953C83.3098 27.4555 82.0813 27.7813 81.7827 27.0347V27.0279Z" fill="#561C2F"/>
<path fill-rule="evenodd" clip-rule="evenodd" d="M65.969 22.9895C64.1297 22.2769 62.1818 22.8267 60.9601 24.3741C60.4578 25.0121 59.5687 24.1162 60.0642 23.4782C61.5302 21.6118 64.0958 20.9195 66.3016 21.7679C67.0549 22.0597 66.7292 23.2814 65.9622 22.9895H65.969Z" fill="#561C2F"/>
<path fill-rule="evenodd" clip-rule="evenodd" d="M31.68 99.3723L45.3494 104.673C45.0168 106.18 44.6842 107.687 44.3516 109.193C53.65 109.539 62.9416 109.96 72.2332 110.422C72.9934 112.974 73.6246 115.566 73.9775 118.207C60.5661 123.507 45.1525 123.541 31.7208 118.288C31.2321 118.098 30.7231 117.881 30.3837 117.48C29.9425 116.958 29.8611 116.225 29.8204 115.546C29.481 110.096 30.119 104.592 31.6936 99.3655L31.68 99.3723Z" fill="#EDBA8C"/>
<mask id="mask3_3089_4937" style="mask-type:luminance" maskUnits="userSpaceOnUse" x="29" y="99" width="45" height="24">
<path d="M31.68 99.3723L45.3494 104.673C45.0168 106.18 44.6842 107.687 44.3516 109.193C53.65 109.539 62.9416 109.96 72.2332 110.422C72.9934 112.974 73.6246 115.566 73.9775 118.207C60.5661 123.507 45.1525 123.541 31.7208 118.288C31.2321 118.098 30.7231 117.881 30.3837 117.48C29.9425 116.958 29.8611 116.225 29.8204 115.546C29.481 110.096 30.119 104.592 31.6936 99.3655L31.68 99.3723Z" fill="white"/>
</mask>
<g mask="url(#mask3_3089_4937)">
<path opacity="0.2" fill-rule="evenodd" clip-rule="evenodd" d="M31.68 99.3723L45.3494 104.673C45.0168 106.18 44.6842 107.687 44.3516 109.193C53.65 109.539 62.9416 109.96 72.2332 110.422C72.9934 112.974 73.6246 115.566 73.9775 118.207C60.5661 123.507 45.1525 123.541 31.7208 118.288C31.2321 118.098 30.7231 117.881 30.3837 117.48C29.9425 116.958 29.8611 116.225 29.8204 115.546C29.481 110.096 30.119 104.592 31.6936 99.3655L31.68 99.3723Z" fill="#CB2E45"/>
</g>
<path fill-rule="evenodd" clip-rule="evenodd" d="M72.4434 40.1134C69.8575 42.0071 66.4164 40.3374 66.1382 37.195C66.1042 36.7877 66.7354 36.7945 66.7694 37.195C67.0069 39.9098 69.9661 41.1451 72.1244 39.5637C72.457 39.3193 72.7692 39.8691 72.4434 40.1134Z" fill="#EDBA8C"/>
<path opacity="0.16" fill-rule="evenodd" clip-rule="evenodd" d="M88.2578 27.9511C87.8099 27.8358 87.3687 27.7204 86.9275 27.605C80.8802 26.044 74.6767 24.9105 68.4597 24.32C64.1634 23.9128 59.8807 23.8042 55.6048 23.9399C53.9216 23.9196 52.252 23.9196 50.6095 23.9399C50.6095 23.9399 52.2452 17.465 53.6637 15.456C65.0933 14.8452 77.1133 16.2297 87.6062 20.5124C88.1628 22.3585 88.3664 24.3404 88.1492 26.3765L88.2578 27.9444V27.9511Z" fill="#561C2F"/>
<path fill-rule="evenodd" clip-rule="evenodd" d="M49.4891 13.2094L57.6133 9.01498C60.7354 8.96069 63.8643 8.94711 66.9864 8.99462C71.0519 9.05571 75.0563 9.19824 79.0878 9.67334L79.7055 9.91089L85.6782 13.2162L93.5648 18.1708C93.5648 18.1708 96.0353 19.9423 96.0353 21.2318L96.877 26.0643C96.877 26.0643 74.1061 14.18 45.6408 19.7726C29.2702 20.4513 49.5027 13.2094 49.5027 13.2094H49.4891Z" fill="#F1D054"/>
<mask id="mask4_3089_4937" style="mask-type:luminance" maskUnits="userSpaceOnUse" x="39" y="8" width="58" height="19">
<path d="M49.4891 13.2094L57.6133 9.01498C60.7354 8.96069 63.8643 8.94711 66.9864 8.99462C71.0519 9.05571 75.0563 9.19824 79.0878 9.67334L79.7055 9.91089L85.6782 13.2162L93.5648 18.1708C93.5648 18.1708 96.0353 19.9423 96.0353 21.2318L96.877 26.0643C96.877 26.0643 74.1061 14.18 45.6408 19.7726C29.2702 20.4513 49.5027 13.2094 49.5027 13.2094H49.4891Z" fill="white"/>
</mask>
<g mask="url(#mask4_3089_4937)">
<path opacity="0.3" fill-rule="evenodd" clip-rule="evenodd" d="M49.4891 13.2094L57.6133 9.01498C60.7354 8.96069 63.8643 8.94711 66.9864 8.99462C71.0519 9.05571 75.0563 9.19824 79.0878 9.67334L79.7055 9.91089L85.6782 13.2162L93.5648 18.1708C93.5648 18.1708 96.0353 19.9423 96.0353 21.2318L96.877 26.0643C96.877 26.0643 74.1061 14.18 45.6408 19.7726C29.2702 20.4513 49.5027 13.2094 49.5027 13.2094H49.4891Z" fill="#CB2E45"/>
</g>
<path fill-rule="evenodd" clip-rule="evenodd" d="M104.03 96.9965C106.338 102.738 107.661 108.881 107.926 115.064C107.953 115.654 107.96 116.292 107.641 116.795C107.369 117.229 106.901 117.494 106.446 117.724C99.4078 121.308 91.0461 120.568 83.1933 119.733C82.2024 119.625 71.0308 118.145 71.0647 117.697C71.248 115.193 71.6416 112.709 72.2321 110.265C76.3858 109.166 80.6346 109.078 84.9105 108.704C87.3539 108.494 89.8176 108.161 92.2542 107.971C92.1795 106.288 92.0981 104.605 92.0234 102.922L104.03 96.9897V96.9965Z" fill="#EDBA8C"/>
<path opacity="0.15" fill-rule="evenodd" clip-rule="evenodd" d="M31.6793 99.3721L45.3486 104.673C45.0771 105.915 44.7989 107.157 44.5206 108.399C43.6586 108.474 42.7967 108.508 41.9347 108.514C37.9439 108.548 33.9462 108.223 30.0029 107.571C30.3151 104.795 30.8649 102.046 31.6725 99.3721H31.6793Z" fill="#561C2F"/>
<path opacity="0.15" fill-rule="evenodd" clip-rule="evenodd" d="M92.1665 106.119C92.119 105.053 92.0715 103.988 92.0172 102.929L104.024 96.9968C104.838 99.0194 105.524 101.089 106.087 103.2C101.702 105.399 96.8971 106.662 92.1665 106.126V106.119Z" fill="#561C2F"/>
<path fill-rule="evenodd" clip-rule="evenodd" d="M47.2764 97.8315C43.6793 96.7863 35.2157 94.2683 31.5506 92.7548C30.5733 92.3475 29.4602 92.843 29.0869 93.8271C28.51 95.3475 28.1503 96.6506 27.9399 97.5533C27.7498 98.3474 28.096 99.1686 28.8018 99.5894C31.4963 101.191 38.6432 104.944 45.9869 104.578C46.8013 104.537 47.514 103.994 47.738 103.207C48.1181 101.863 48.3895 100.825 48.566 100.051C48.7968 99.0804 48.2266 98.1098 47.2697 97.8315H47.2764Z" fill="#F1D054"/>
<path fill-rule="evenodd" clip-rule="evenodd" d="M104.533 91.2277L106.08 94.3362C106.488 95.1506 106.352 96.128 105.728 96.7931C103.766 98.8768 98.9268 103.078 91.2981 103.669C90.2461 103.75 89.2891 103.058 89.0176 102.04C88.5697 100.35 88.2439 99.1483 88.0131 98.2999C87.7077 97.1936 88.305 96.0465 89.3909 95.6665C92.4247 94.6009 98.2685 92.4222 101.404 90.3725C102.49 89.6598 103.956 90.0671 104.533 91.2345V91.2277Z" fill="#F1D054"/>
<path opacity="0.3" fill-rule="evenodd" clip-rule="evenodd" d="M47.2764 97.8315C43.6793 96.7863 35.2157 94.2683 31.5506 92.7548C30.5733 92.3475 29.4602 92.843 29.0869 93.8271C28.51 95.3475 28.1503 96.6506 27.9399 97.5533C27.7498 98.3474 28.096 99.1686 28.8018 99.5894C31.4963 101.191 38.6432 104.944 45.9869 104.578C46.8013 104.537 47.514 103.994 47.738 103.207C48.1181 101.863 48.3895 100.825 48.566 100.051C48.7968 99.0804 48.2266 98.1098 47.2697 97.8315H47.2764Z" fill="#CB2E45"/>
<path opacity="0.3" fill-rule="evenodd" clip-rule="evenodd" d="M104.533 91.2277L106.08 94.3362C106.488 95.1506 106.352 96.128 105.728 96.7931C103.766 98.8768 98.9268 103.078 91.2981 103.669C90.2461 103.75 89.2891 103.058 89.0176 102.04C88.5697 100.35 88.2439 99.1483 88.0131 98.2999C87.7077 97.1936 88.305 96.0465 89.3909 95.6665C92.4247 94.6009 98.2685 92.4222 101.404 90.3725C102.49 89.6598 103.956 90.0671 104.533 91.2345V91.2277Z" fill="#CB2E45"/>
<path opacity="0.3" fill-rule="evenodd" clip-rule="evenodd" d="M69.1851 34.5006C68.9951 32.417 68.9612 30.313 69.0833 28.2225C69.1444 27.1977 69.2394 26.1728 69.3752 25.1547C69.4702 24.4081 69.4702 23.4036 69.7756 22.7046C70.1896 21.7544 71.6217 21.6526 71.9068 22.7181C72.1375 23.5665 71.805 24.5167 71.7167 25.3651C71.5742 26.8447 71.3706 28.3175 71.3027 29.7971C71.2688 30.5166 71.2688 31.2292 71.3163 31.9487C71.3434 32.3898 71.1941 33.245 71.5267 33.5844C71.71 33.7676 72.0222 33.8219 72.2393 33.6794C72.409 33.5708 72.4905 33.3672 72.633 33.2246C72.8773 32.9667 73.2914 32.9057 73.6239 33.0346C74.3501 33.3265 74.2619 33.9305 74.1194 34.5617C73.909 35.4712 73.461 36.3264 72.8027 36.9983C72.4565 37.3512 72.0357 37.6567 71.5471 37.7177C70.8073 37.8128 70.0878 37.3037 69.7213 36.6589C69.348 36.0074 69.2598 35.2472 69.1919 34.5006H69.1851Z" fill="#CB2E45"/>
</g>
</g>
<path d="M168.304 18.8548C152.749 19.3607 136.962 31.3505 121.6 44.4092L151.939 64.2098C151.627 41.4838 156.408 33.533 168.304 18.8548Z" fill="white"/>
<rect x="144.099" width="199.902" height="125" rx="16" fill="white"/>
<path d="M174.871 30.8143C174.871 31.7103 174.655 32.5503 174.223 33.3343C173.807 34.1183 173.143 34.7503 172.231 35.2303C171.335 35.7103 170.199 35.9503 168.823 35.9503H166.015V42.3823H162.655V25.6303H168.823C170.119 25.6303 171.223 25.8543 172.135 26.3023C173.047 26.7503 173.727 27.3663 174.175 28.1503C174.639 28.9343 174.871 29.8223 174.871 30.8143ZM168.679 33.2383C169.607 33.2383 170.295 33.0303 170.743 32.6143C171.191 32.1823 171.415 31.5823 171.415 30.8143C171.415 29.1823 170.503 28.3663 168.679 28.3663H166.015V33.2383H168.679ZM182.681 42.5983C181.401 42.5983 180.249 42.3183 179.225 41.7583C178.201 41.1823 177.393 40.3743 176.801 39.3343C176.225 38.2943 175.937 37.0943 175.937 35.7343C175.937 34.3743 176.233 33.1743 176.825 32.1343C177.433 31.0943 178.257 30.2943 179.297 29.7343C180.337 29.1583 181.497 28.8703 182.777 28.8703C184.057 28.8703 185.217 29.1583 186.257 29.7343C187.297 30.2943 188.113 31.0943 188.705 32.1343C189.313 33.1743 189.617 34.3743 189.617 35.7343C189.617 37.0943 189.305 38.2943 188.681 39.3343C188.073 40.3743 187.241 41.1823 186.185 41.7583C185.145 42.3183 183.977 42.5983 182.681 42.5983ZM182.681 39.6703C183.289 39.6703 183.857 39.5263 184.385 39.2383C184.929 38.9343 185.361 38.4863 185.681 37.8943C186.001 37.3023 186.161 36.5823 186.161 35.7343C186.161 34.4703 185.825 33.5023 185.153 32.8303C184.497 32.1423 183.689 31.7983 182.729 31.7983C181.769 31.7983 180.961 32.1423 180.305 32.8303C179.665 33.5023 179.345 34.4703 179.345 35.7343C179.345 36.9983 179.657 37.9743 180.281 38.6623C180.921 39.3343 181.721 39.6703 182.681 39.6703ZM194.961 31.1503C195.393 30.4463 195.953 29.8943 196.641 29.4943C197.345 29.0943 198.145 28.8943 199.041 28.8943V32.4223H198.153C197.097 32.4223 196.297 32.6703 195.753 33.1663C195.225 33.6623 194.961 34.5263 194.961 35.7583V42.3823H191.601V29.0863H194.961V31.1503ZM212.159 31.8463H209.831V42.3823H206.423V31.8463H204.911V29.0863H206.423V28.4143C206.423 26.7823 206.887 25.5823 207.815 24.8143C208.743 24.0463 210.143 23.6863 212.015 23.7343V26.5663C211.199 26.5503 210.631 26.6863 210.311 26.9743C209.991 27.2623 209.831 27.7823 209.831 28.5343V29.0863H212.159V31.8463ZM212.993 35.6863C212.993 34.3423 213.257 33.1503 213.785 32.1103C214.329 31.0703 215.057 30.2703 215.969 29.7103C216.897 29.1503 217.929 28.8703 219.065 28.8703C220.057 28.8703 220.921 29.0703 221.657 29.4703C222.409 29.8703 223.009 30.3743 223.457 30.9823V29.0863H226.841V42.3823H223.457V40.4383C223.025 41.0623 222.425 41.5823 221.657 41.9983C220.905 42.3983 220.033 42.5983 219.041 42.5983C217.921 42.5983 216.897 42.3103 215.969 41.7343C215.057 41.1583 214.329 40.3503 213.785 39.3103C213.257 38.2543 212.993 37.0463 212.993 35.6863ZM223.457 35.7343C223.457 34.9183 223.297 34.2223 222.977 33.6463C222.657 33.0543 222.225 32.6063 221.681 32.3023C221.137 31.9823 220.553 31.8223 219.929 31.8223C219.305 31.8223 218.729 31.9743 218.201 32.2783C217.673 32.5823 217.241 33.0303 216.905 33.6223C216.585 34.1983 216.425 34.8863 216.425 35.6863C216.425 36.4863 216.585 37.1903 216.905 37.7983C217.241 38.3903 217.673 38.8463 218.201 39.1663C218.745 39.4863 219.321 39.6463 219.929 39.6463C220.553 39.6463 221.137 39.4943 221.681 39.1903C222.225 38.8703 222.657 38.4223 222.977 37.8463C223.297 37.2543 223.457 36.5503 223.457 35.7343ZM235.186 39.2863L238.546 29.0863H242.122L237.202 42.3823H233.122L228.226 29.0863H231.826L235.186 39.2863ZM249.433 42.5983C248.153 42.5983 247.001 42.3183 245.977 41.7583C244.953 41.1823 244.145 40.3743 243.553 39.3343C242.977 38.2943 242.689 37.0943 242.689 35.7343C242.689 34.3743 242.985 33.1743 243.577 32.1343C244.185 31.0943 245.009 30.2943 246.049 29.7343C247.089 29.1583 248.249 28.8703 249.529 28.8703C250.809 28.8703 251.969 29.1583 253.009 29.7343C254.049 30.2943 254.865 31.0943 255.457 32.1343C256.065 33.1743 256.369 34.3743 256.369 35.7343C256.369 37.0943 256.057 38.2943 255.433 39.3343C254.825 40.3743 253.993 41.1823 252.937 41.7583C251.897 42.3183 250.729 42.5983 249.433 42.5983ZM249.433 39.6703C250.041 39.6703 250.609 39.5263 251.137 39.2383C251.681 38.9343 252.113 38.4863 252.433 37.8943C252.753 37.3023 252.913 36.5823 252.913 35.7343C252.913 34.4703 252.577 33.5023 251.905 32.8303C251.249 32.1423 250.441 31.7983 249.481 31.7983C248.521 31.7983 247.713 32.1423 247.057 32.8303C246.417 33.5023 246.097 34.4703 246.097 35.7343C246.097 36.9983 246.409 37.9743 247.033 38.6623C247.673 39.3343 248.473 39.6703 249.433 39.6703ZM261.714 31.1503C262.146 30.4463 262.706 29.8943 263.394 29.4943C264.098 29.0943 264.898 28.8943 265.794 28.8943V32.4223H264.906C263.85 32.4223 263.05 32.6703 262.506 33.1663C261.978 33.6623 261.714 34.5263 261.714 35.7583V42.3823H258.354V29.0863H261.714V31.1503ZM166.015 62.1503C166.447 61.4463 167.007 60.8943 167.695 60.4943C168.399 60.0943 169.199 59.8943 170.095 59.8943V63.4223H169.207C168.151 63.4223 167.351 63.6703 166.807 64.1663C166.279 64.6623 166.015 65.5263 166.015 66.7583V73.3823H162.655V60.0863H166.015V62.1503ZM184.238 66.4463C184.238 66.9263 184.206 67.3583 184.142 67.7423H174.422C174.502 68.7023 174.838 69.4543 175.43 69.9983C176.022 70.5423 176.75 70.8143 177.614 70.8143C178.862 70.8143 179.75 70.2783 180.278 69.2063H183.902C183.518 70.4863 182.782 71.5423 181.694 72.3743C180.606 73.1903 179.27 73.5983 177.686 73.5983C176.406 73.5983 175.254 73.3183 174.23 72.7583C173.222 72.1823 172.43 71.3743 171.854 70.3343C171.294 69.2943 171.014 68.0943 171.014 66.7343C171.014 65.3583 171.294 64.1503 171.854 63.1103C172.414 62.0703 173.198 61.2703 174.206 60.7103C175.214 60.1503 176.374 59.8703 177.686 59.8703C178.95 59.8703 180.078 60.1423 181.07 60.6863C182.078 61.2303 182.854 62.0063 183.398 63.0143C183.958 64.0063 184.238 65.1503 184.238 66.4463ZM180.758 65.4863C180.742 64.6223 180.43 63.9343 179.822 63.4223C179.214 62.8943 178.47 62.6303 177.59 62.6303C176.758 62.6303 176.054 62.8863 175.478 63.3983C174.918 63.8943 174.574 64.5903 174.446 65.4863H180.758ZM189.571 62.0063C190.003 61.3983 190.595 60.8943 191.347 60.4943C192.115 60.0783 192.987 59.8703 193.963 59.8703C195.099 59.8703 196.123 60.1503 197.035 60.7103C197.963 61.2703 198.691 62.0703 199.219 63.1103C199.763 64.1343 200.035 65.3263 200.035 66.6863C200.035 68.0463 199.763 69.2543 199.219 70.3103C198.691 71.3503 197.963 72.1583 197.035 72.7343C196.123 73.3103 195.099 73.5983 193.963 73.5983C192.987 73.5983 192.123 73.3983 191.371 72.9983C190.635 72.5983 190.035 72.0943 189.571 71.4863V79.7183H186.211V60.0863H189.571V62.0063ZM196.603 66.6863C196.603 65.8863 196.435 65.1983 196.099 64.6223C195.779 64.0303 195.347 63.5823 194.803 63.2783C194.275 62.9743 193.699 62.8223 193.075 62.8223C192.467 62.8223 191.891 62.9823 191.347 63.3023C190.819 63.6063 190.387 64.0543 190.051 64.6463C189.731 65.2383 189.571 65.9343 189.571 66.7343C189.571 67.5343 189.731 68.2303 190.051 68.8223C190.387 69.4143 190.819 69.8703 191.347 70.1903C191.891 70.4943 192.467 70.6463 193.075 70.6463C193.699 70.6463 194.275 70.4863 194.803 70.1663C195.347 69.8463 195.779 69.3903 196.099 68.7983C196.435 68.2063 196.603 67.5023 196.603 66.6863ZM203.7 58.5023C203.108 58.5023 202.612 58.3183 202.212 57.9503C201.828 57.5663 201.636 57.0943 201.636 56.5343C201.636 55.9743 201.828 55.5103 202.212 55.1423C202.612 54.7583 203.108 54.5663 203.7 54.5663C204.292 54.5663 204.78 54.7583 205.164 55.1423C205.564 55.5103 205.764 55.9743 205.764 56.5343C205.764 57.0943 205.564 57.5663 205.164 57.9503C204.78 58.3183 204.292 58.5023 203.7 58.5023ZM205.356 60.0863V73.3823H201.996V60.0863H205.356ZM212.108 62.8463V69.2783C212.108 69.7263 212.212 70.0543 212.42 70.2623C212.644 70.4543 213.012 70.5503 213.524 70.5503H215.084V73.3823H212.972C210.14 73.3823 208.724 72.0063 208.724 69.2543V62.8463H207.14V60.0863H208.724V56.7983H212.108V60.0863H215.084V62.8463H212.108ZM216.157 66.6863C216.157 65.3423 216.421 64.1503 216.949 63.1103C217.493 62.0703 218.221 61.2703 219.133 60.7103C220.061 60.1503 221.093 59.8703 222.229 59.8703C223.221 59.8703 224.085 60.0703 224.821 60.4703C225.573 60.8703 226.173 61.3743 226.621 61.9823V60.0863H230.005V73.3823H226.621V71.4383C226.189 72.0623 225.589 72.5823 224.821 72.9983C224.069 73.3983 223.197 73.5983 222.205 73.5983C221.085 73.5983 220.061 73.3103 219.133 72.7343C218.221 72.1583 217.493 71.3503 216.949 70.3103C216.421 69.2543 216.157 68.0463 216.157 66.6863ZM226.621 66.7343C226.621 65.9183 226.461 65.2223 226.141 64.6463C225.821 64.0543 225.389 63.6063 224.845 63.3023C224.301 62.9823 223.717 62.8223 223.093 62.8223C222.469 62.8223 221.893 62.9743 221.365 63.2783C220.837 63.5823 220.405 64.0303 220.069 64.6223C219.749 65.1983 219.589 65.8863 219.589 66.6863C219.589 67.4863 219.749 68.1903 220.069 68.7983C220.405 69.3903 220.837 69.8463 221.365 70.1663C221.909 70.4863 222.485 70.6463 223.093 70.6463C223.717 70.6463 224.301 70.4943 224.845 70.1903C225.389 69.8703 225.821 69.4223 226.141 68.8463C226.461 68.2543 226.621 67.5503 226.621 66.7343ZM241.405 55.6223V73.3823H238.045V55.6223H241.405ZM243.381 66.6863C243.381 65.3423 243.645 64.1503 244.173 63.1103C244.717 62.0703 245.445 61.2703 246.357 60.7103C247.285 60.1503 248.317 59.8703 249.453 59.8703C250.445 59.8703 251.309 60.0703 252.045 60.4703C252.797 60.8703 253.397 61.3743 253.845 61.9823V60.0863H257.229V73.3823H253.845V71.4383C253.413 72.0623 252.813 72.5823 252.045 72.9983C251.293 73.3983 250.421 73.5983 249.429 73.5983C248.309 73.5983 247.285 73.3103 246.357 72.7343C245.445 72.1583 244.717 71.3503 244.173 70.3103C243.645 69.2543 243.381 68.0463 243.381 66.6863ZM253.845 66.7343C253.845 65.9183 253.685 65.2223 253.365 64.6463C253.045 64.0543 252.613 63.6063 252.069 63.3023C251.525 62.9823 250.941 62.8223 250.317 62.8223C249.693 62.8223 249.117 62.9743 248.589 63.2783C248.061 63.5823 247.629 64.0303 247.293 64.6223C246.973 65.1983 246.813 65.8863 246.813 66.6863C246.813 67.4863 246.973 68.1903 247.293 68.7983C247.629 69.3903 248.061 69.8463 248.589 70.1663C249.133 70.4863 249.709 70.6463 250.317 70.6463C250.941 70.6463 251.525 70.4943 252.069 70.1903C252.613 69.8703 253.045 69.4223 253.365 68.8463C253.685 68.2543 253.845 67.5503 253.845 66.7343ZM161.791 97.7343C161.791 96.3583 162.071 95.1583 162.631 94.1343C163.191 93.0943 163.967 92.2943 164.959 91.7343C165.951 91.1583 167.087 90.8703 168.367 90.8703C170.015 90.8703 171.375 91.2863 172.447 92.1183C173.535 92.9343 174.263 94.0863 174.631 95.5743H171.007C170.815 94.9983 170.487 94.5503 170.023 94.2303C169.575 93.8943 169.015 93.7263 168.343 93.7263C167.383 93.7263 166.623 94.0783 166.063 94.7823C165.503 95.4703 165.223 96.4543 165.223 97.7343C165.223 98.9983 165.503 99.9823 166.063 100.686C166.623 101.374 167.383 101.718 168.343 101.718C169.703 101.718 170.591 101.11 171.007 99.8943H174.631C174.263 101.334 173.535 102.478 172.447 103.326C171.359 104.174 169.999 104.598 168.367 104.598C167.087 104.598 165.951 104.318 164.959 103.758C163.967 103.182 163.191 102.382 162.631 101.358C162.071 100.318 161.791 99.1103 161.791 97.7343ZM182.517 104.598C181.237 104.598 180.085 104.318 179.061 103.758C178.037 103.182 177.229 102.374 176.637 101.334C176.061 100.294 175.773 99.0943 175.773 97.7343C175.773 96.3743 176.069 95.1743 176.661 94.1343C177.269 93.0943 178.093 92.2943 179.133 91.7343C180.173 91.1583 181.333 90.8703 182.613 90.8703C183.893 90.8703 185.053 91.1583 186.093 91.7343C187.133 92.2943 187.949 93.0943 188.541 94.1343C189.149 95.1743 189.453 96.3743 189.453 97.7343C189.453 99.0943 189.141 100.294 188.517 101.334C187.909 102.374 187.077 103.182 186.021 103.758C184.981 104.318 183.813 104.598 182.517 104.598ZM182.517 101.67C183.125 101.67 183.693 101.526 184.221 101.238C184.765 100.934 185.197 100.486 185.517 99.8943C185.837 99.3023 185.997 98.5823 185.997 97.7343C185.997 96.4703 185.661 95.5023 184.989 94.8303C184.333 94.1423 183.525 93.7983 182.565 93.7983C181.605 93.7983 180.797 94.1423 180.141 94.8303C179.501 95.5023 179.181 96.4703 179.181 97.7343C179.181 98.9983 179.493 99.9743 180.117 100.662C180.757 101.334 181.557 101.67 182.517 101.67ZM198.805 90.8943C200.389 90.8943 201.669 91.3983 202.645 92.4063C203.621 93.3983 204.109 94.7903 204.109 96.5823V104.382H200.749V97.0383C200.749 95.9823 200.485 95.1743 199.957 94.6143C199.429 94.0383 198.709 93.7503 197.797 93.7503C196.869 93.7503 196.133 94.0383 195.589 94.6143C195.061 95.1743 194.797 95.9823 194.797 97.0383V104.382H191.437V91.0863H194.797V92.7423C195.245 92.1663 195.813 91.7183 196.501 91.3983C197.205 91.0623 197.973 90.8943 198.805 90.8943ZM210.736 93.8463V100.278C210.736 100.726 210.84 101.054 211.048 101.262C211.272 101.454 211.64 101.55 212.152 101.55H213.712V104.382H211.6C208.768 104.382 207.352 103.006 207.352 100.254V93.8463H205.768V91.0863H207.352V87.7983H210.736V91.0863H213.712V93.8463H210.736ZM219.009 93.1503C219.441 92.4463 220.001 91.8943 220.689 91.4943C221.393 91.0943 222.193 90.8943 223.089 90.8943V94.4223H222.201C221.145 94.4223 220.345 94.6703 219.801 95.1663C219.273 95.6623 219.009 96.5263 219.009 97.7583V104.382H215.649V91.0863H219.009V93.1503ZM224.008 97.6863C224.008 96.3423 224.272 95.1503 224.8 94.1103C225.344 93.0703 226.072 92.2703 226.984 91.7103C227.912 91.1503 228.944 90.8703 230.08 90.8703C231.072 90.8703 231.936 91.0703 232.672 91.4703C233.424 91.8703 234.024 92.3743 234.472 92.9823V91.0863H237.856V104.382H234.472V102.438C234.04 103.062 233.44 103.582 232.672 103.998C231.92 104.398 231.048 104.598 230.056 104.598C228.936 104.598 227.912 104.31 226.984 103.734C226.072 103.158 225.344 102.35 224.8 101.31C224.272 100.254 224.008 99.0463 224.008 97.6863ZM234.472 97.7343C234.472 96.9183 234.312 96.2223 233.992 95.6463C233.672 95.0543 233.24 94.6063 232.696 94.3023C232.152 93.9823 231.568 93.8223 230.944 93.8223C230.32 93.8223 229.744 93.9743 229.216 94.2783C228.688 94.5823 228.256 95.0303 227.92 95.6223C227.6 96.1983 227.44 96.8863 227.44 97.6863C227.44 98.4863 227.6 99.1903 227.92 99.7983C228.256 100.39 228.688 100.846 229.216 101.166C229.76 101.486 230.336 101.646 230.944 101.646C231.568 101.646 232.152 101.494 232.696 101.19C233.24 100.87 233.672 100.422 233.992 99.8463C234.312 99.2543 234.472 98.5503 234.472 97.7343ZM245.746 104.598C244.658 104.598 243.682 104.406 242.818 104.022C241.954 103.622 241.266 103.086 240.754 102.414C240.258 101.742 239.986 100.998 239.938 100.182H243.322C243.386 100.694 243.634 101.118 244.066 101.454C244.514 101.79 245.066 101.958 245.722 101.958C246.362 101.958 246.858 101.83 247.21 101.574C247.578 101.318 247.762 100.99 247.762 100.59C247.762 100.158 247.538 99.8383 247.09 99.6303C246.658 99.4063 245.962 99.1663 245.002 98.9103C244.01 98.6703 243.194 98.4223 242.554 98.1663C241.93 97.9103 241.386 97.5183 240.922 96.9903C240.474 96.4623 240.25 95.7503 240.25 94.8543C240.25 94.1183 240.458 93.4463 240.874 92.8383C241.306 92.2303 241.914 91.7503 242.698 91.3983C243.498 91.0463 244.434 90.8703 245.506 90.8703C247.09 90.8703 248.354 91.2703 249.298 92.0703C250.242 92.8543 250.762 93.9183 250.858 95.2623H247.642C247.594 94.7343 247.37 94.3183 246.97 94.0143C246.586 93.6943 246.066 93.5343 245.41 93.5343C244.802 93.5343 244.33 93.6463 243.994 93.8703C243.674 94.0943 243.514 94.4063 243.514 94.8063C243.514 95.2543 243.738 95.5983 244.186 95.8383C244.634 96.0623 245.33 96.2943 246.274 96.5343C247.234 96.7743 248.026 97.0223 248.65 97.2783C249.274 97.5343 249.81 97.9343 250.258 98.4783C250.722 99.0063 250.962 99.7103 250.978 100.59C250.978 101.358 250.762 102.046 250.33 102.654C249.914 103.262 249.306 103.742 248.506 104.094C247.722 104.43 246.802 104.598 245.746 104.598ZM265.616 97.4463C265.616 97.9263 265.584 98.3583 265.52 98.7423H255.8C255.88 99.7023 256.216 100.454 256.808 100.998C257.4 101.542 258.128 101.814 258.992 101.814C260.24 101.814 261.128 101.278 261.656 100.206H265.28C264.896 101.486 264.16 102.542 263.072 103.374C261.984 104.19 260.648 104.598 259.064 104.598C257.784 104.598 256.632 104.318 255.608 103.758C254.6 103.182 253.808 102.374 253.232 101.334C252.672 100.294 252.392 99.0943 252.392 97.7343C252.392 96.3583 252.672 95.1503 253.232 94.1103C253.792 93.0703 254.576 92.2703 255.584 91.7103C256.592 91.1503 257.752 90.8703 259.064 90.8703C260.328 90.8703 261.456 91.1423 262.448 91.6863C263.456 92.2303 264.232 93.0063 264.776 94.0143C265.336 95.0063 265.616 96.1503 265.616 97.4463ZM262.136 96.4863C262.12 95.6223 261.808 94.9343 261.2 94.4223C260.592 93.8943 259.848 93.6303 258.968 93.6303C258.136 93.6303 257.432 93.8863 256.856 94.3983C256.296 94.8943 255.952 95.5903 255.824 96.4863H262.136ZM274.956 90.8943C276.54 90.8943 277.82 91.3983 278.796 92.4063C279.772 93.3983 280.26 94.7903 280.26 96.5823V104.382H276.9V97.0383C276.9 95.9823 276.636 95.1743 276.108 94.6143C275.58 94.0383 274.86 93.7503 273.948 93.7503C273.02 93.7503 272.284 94.0383 271.74 94.6143C271.212 95.1743 270.948 95.9823 270.948 97.0383V104.382H267.588V91.0863H270.948V92.7423C271.396 92.1663 271.964 91.7183 272.652 91.3983C273.356 91.0623 274.124 90.8943 274.956 90.8943ZM269.94 89.8143C270.084 88.7583 270.412 87.9743 270.924 87.4623C271.452 86.9343 272.116 86.6703 272.916 86.6703C273.252 86.6703 273.548 86.7263 273.804 86.8383C274.06 86.9343 274.348 87.0783 274.668 87.2703C275.148 87.5743 275.548 87.7263 275.868 87.7263C276.46 87.7263 276.804 87.3823 276.9 86.6943H278.7C278.556 87.7503 278.22 88.5423 277.692 89.0703C277.18 89.5823 276.524 89.8383 275.724 89.8383C275.388 89.8383 275.092 89.7903 274.836 89.6943C274.58 89.5823 274.292 89.4303 273.972 89.2383C273.508 88.9183 273.108 88.7583 272.772 88.7583C272.18 88.7583 271.828 89.1103 271.716 89.8143H269.94ZM282.112 97.6863C282.112 96.3423 282.376 95.1503 282.904 94.1103C283.448 93.0703 284.176 92.2703 285.088 91.7103C286.016 91.1503 287.048 90.8703 288.184 90.8703C289.176 90.8703 290.04 91.0703 290.776 91.4703C291.528 91.8703 292.128 92.3743 292.576 92.9823V91.0863H295.96V104.382H292.576V102.438C292.144 103.062 291.544 103.582 290.776 103.998C290.024 104.398 289.152 104.598 288.16 104.598C287.04 104.598 286.016 104.31 285.088 103.734C284.176 103.158 283.448 102.35 282.904 101.31C282.376 100.254 282.112 99.0463 282.112 97.6863ZM292.576 97.7343C292.576 96.9183 292.416 96.2223 292.096 95.6463C291.776 95.0543 291.344 94.6063 290.8 94.3023C290.256 93.9823 289.672 93.8223 289.048 93.8223C288.424 93.8223 287.848 93.9743 287.32 94.2783C286.792 94.5823 286.36 95.0303 286.024 95.6223C285.704 96.1983 285.544 96.8863 285.544 97.6863C285.544 98.4863 285.704 99.1903 286.024 99.7983C286.36 100.39 286.792 100.846 287.32 101.166C287.864 101.486 288.44 101.646 289.048 101.646C289.672 101.646 290.256 101.494 290.8 101.19C291.344 100.87 291.776 100.422 292.096 99.8463C292.416 99.2543 292.576 98.5503 292.576 97.7343Z" fill="#8F3B06"/>
<defs>
<filter id="filter0_d_3089_4937" x="12.881" y="0" width="106.238" height="257.697" filterUnits="userSpaceOnUse" color-interpolation-filters="sRGB">
<feFlood flood-opacity="0" result="BackgroundImageFix"/>
<feColorMatrix in="SourceAlpha" type="matrix" values="0 0 0 0 0 0 0 0 0 0 0 0 0 0 0 0 0 0 127 0" result="hardAlpha"/>
<feOffset dy="3.11898"/>
<feGaussianBlur stdDeviation="1.55949"/>
<feComposite in2="hardAlpha" operator="out"/>
<feColorMatrix type="matrix" values="0 0 0 0 0 0 0 0 0 0 0 0 0 0 0 0 0 0 0.25 0"/>
<feBlend mode="normal" in2="BackgroundImageFix" result="effect1_dropShadow_3089_4937"/>
<feBlend mode="normal" in="SourceGraphic" in2="effect1_dropShadow_3089_4937" result="shape"/>
</filter>
<clipPath id="clip0_3089_4937">
<rect width="100" height="104" fill="white" transform="matrix(-1 0 0 1 116 0)"/>
</clipPath>
</defs>
</svg>
