<svg width="25" height="24" viewBox="0 0 25 24" fill="none" xmlns="http://www.w3.org/2000/svg">
<mask id="mask0_2419_5149" style="mask-type:alpha" maskUnits="userSpaceOnUse" x="0" y="0" width="25" height="24">
<rect x="0.5" width="24" height="24" fill="#D9D9D9"/>
</mask>
<g mask="url(#mask0_2419_5149)">
<path d="M2.5 21C1.95 21 1.47917 20.8042 1.0875 20.4125C0.695833 20.0208 0.5 19.55 0.5 19V5C0.5 4.45 0.695833 3.97917 1.0875 3.5875C1.47917 3.19583 1.95 3 2.5 3H22.5C23.05 3 23.5208 3.19583 23.9125 3.5875C24.3042 3.97917 24.5 4.45 24.5 5V19C24.5 19.55 24.3042 20.0208 23.9125 20.4125C23.5208 20.8042 23.05 21 22.5 21H2.5ZM16.4 19H22.5V5H2.5V19H2.6C3.3 17.75 4.26667 16.7708 5.5 16.0625C6.73333 15.3542 8.06667 15 9.5 15C10.9333 15 12.2667 15.3542 13.5 16.0625C14.7333 16.7708 15.7 17.75 16.4 19ZM9.5 14C10.3333 14 11.0417 13.7083 11.625 13.125C12.2083 12.5417 12.5 11.8333 12.5 11C12.5 10.1667 12.2083 9.45833 11.625 8.875C11.0417 8.29167 10.3333 8 9.5 8C8.66667 8 7.95833 8.29167 7.375 8.875C6.79167 9.45833 6.5 10.1667 6.5 11C6.5 11.8333 6.79167 12.5417 7.375 13.125C7.95833 13.7083 8.66667 14 9.5 14ZM19.5 18L21.5 16L20 14H18.35C18.25 13.7 18.1667 13.3792 18.1 13.0375C18.0333 12.6958 18 12.35 18 12C18 11.65 18.0333 11.3125 18.1 10.9875C18.1667 10.6625 18.25 10.3333 18.35 10H20L21.5 8L19.5 6C18.6 6.7 17.875 7.5875 17.325 8.6625C16.775 9.7375 16.5 10.85 16.5 12C16.5 13.15 16.775 14.2625 17.325 15.3375C17.875 16.4125 18.6 17.3 19.5 18ZM5.05 19H13.95C13.3833 18.3667 12.7125 17.875 11.9375 17.525C11.1625 17.175 10.35 17 9.5 17C8.65 17 7.84167 17.175 7.075 17.525C6.30833 17.875 5.63333 18.3667 5.05 19ZM9.5 12C9.21667 12 8.97917 11.9042 8.7875 11.7125C8.59583 11.5208 8.5 11.2833 8.5 11C8.5 10.7167 8.59583 10.4792 8.7875 10.2875C8.97917 10.0958 9.21667 10 9.5 10C9.78333 10 10.0208 10.0958 10.2125 10.2875C10.4042 10.4792 10.5 10.7167 10.5 11C10.5 11.2833 10.4042 11.5208 10.2125 11.7125C10.0208 11.9042 9.78333 12 9.5 12Z" fill="#F6EEEB"/>
</g>
</svg>
