<svg width="360" height="104" viewBox="0 0 360 104" fill="none" xmlns="http://www.w3.org/2000/svg">
<g clip-path="url(#clip0_4156_1187)">
<g filter="url(#filter0_d_4156_1187)">
<path fill-rule="evenodd" clip-rule="evenodd" d="M29.2634 97.2479C33.7361 86.083 37.9781 72.7191 44.6634 68.545C48.5999 66.0881 62.2285 64.4184 62.2285 64.4184H70.665C70.665 64.4184 85.1827 62.7963 89.4653 66.8143C92.9268 70.0654 104.75 94.1326 104.75 94.1326C104.75 94.1326 96.9244 102.372 89.4653 102.372C89.6825 112.363 89.7233 121.397 89.7233 121.397C89.7233 121.397 90.0151 122.734 90.4902 125.191C78.1308 126.222 61.2783 126.263 46.8692 122.625C47.1746 119.041 47.3647 116.883 47.385 116.659L52.2446 84.3319C52.2446 84.3319 49.1768 95.7343 46.9778 102.936C43.5435 102.936 31.9511 100.187 29.2634 97.2411V97.2479Z" fill="#F1D054"/>
<path fill-rule="evenodd" clip-rule="evenodd" d="M66.8578 70.1128H67.0139C69.6609 70.1128 71.8057 67.968 71.8057 65.321V50.2739H62.0593V65.321C62.0593 67.968 64.2041 70.1128 66.851 70.1128H66.8578Z" fill="#EDBA8C"/>
<path opacity="0.25" fill-rule="evenodd" clip-rule="evenodd" d="M71.812 63.9027C68.5678 64.2488 65.2692 64.0995 62.0657 63.4547V56.3757C65.2896 56.8983 68.5474 57.163 71.812 57.1766V63.9027Z" fill="#561C2F" stroke="#EDBA8C" stroke-width="0.347756" stroke-miterlimit="22.93"/>
<path fill-rule="evenodd" clip-rule="evenodd" d="M84.7959 10.2773C84.7959 10.2773 84.2394 5.4924 82.1353 3.3816C80.0245 1.27759 66.4638 -1.34904 59.6156 0.802487C57.4641 3.06939 56.0863 7.54212 56.0863 7.54212L84.7959 10.2773Z" fill="#F1D054"/>
<path fill-rule="evenodd" clip-rule="evenodd" d="M31.1843 18.8971C30.3902 27.6661 47.039 36.3333 68.371 38.2676C89.7031 40.2019 107.635 34.6568 108.429 25.8946C109.223 17.1256 92.574 8.45846 71.242 6.52412C49.91 4.58978 31.9784 10.1349 31.1843 18.8971Z" fill="#F1D054"/>
<mask id="mask0_4156_1187" style="mask-type:luminance" maskUnits="userSpaceOnUse" x="31" y="6" width="78" height="33">
<path d="M31.1843 18.8971C30.3902 27.6661 47.039 36.3333 68.371 38.2676C89.7031 40.2019 107.635 34.6568 108.429 25.8946C109.223 17.1256 92.574 8.45846 71.242 6.52412C49.91 4.58978 31.9784 10.1349 31.1843 18.8971Z" fill="white"/>
</mask>
<g mask="url(#mask0_4156_1187)">
<path opacity="0.3" fill-rule="evenodd" clip-rule="evenodd" d="M31.1843 18.8971C30.3902 27.6661 47.039 36.3333 68.371 38.2676C89.7031 40.2019 107.635 34.6568 108.429 25.8946C109.223 17.1256 92.574 8.45846 71.242 6.52412C49.91 4.58978 31.9784 10.1349 31.1843 18.8971Z" fill="#CB2E45"/>
</g>
<path fill-rule="evenodd" clip-rule="evenodd" d="M44.0456 33.5234C45.5388 36.5641 48.3147 38.2541 50.2491 37.3039C52.1834 36.3537 52.5364 33.123 51.0432 30.0823C49.55 27.0417 46.7741 25.3517 44.8397 26.3019C42.9054 27.2521 42.5525 30.4828 44.0456 33.5234Z" fill="#EDBA8C"/>
<path fill-rule="evenodd" clip-rule="evenodd" d="M49.5433 40.1135L51.4166 22.4737C52.2853 14.2884 59.629 8.35641 67.8143 9.23195L74.9001 9.98532C83.0854 10.8541 89.0174 18.1978 88.1418 26.3831L86.2686 44.0229C85.3998 52.2082 78.0561 58.1401 69.8708 57.2646L62.7851 56.5112C54.5998 55.6425 48.6678 48.2988 49.5433 40.1135Z" fill="#EDBA8C"/>
<path fill-rule="evenodd" clip-rule="evenodd" d="M92.5332 38.4033C90.5106 41.1181 87.4768 42.2787 85.7461 40.9959C84.0153 39.7132 84.2529 36.4689 86.2755 33.7541C88.298 31.0392 91.3319 29.8786 93.0626 31.1614C94.7865 32.4441 94.5558 35.6884 92.5332 38.4033Z" fill="#EDBA8C"/>
<path fill-rule="evenodd" clip-rule="evenodd" d="M92.391 33.4758C89.7304 33.8084 88.7599 36.5911 88.0744 38.7969C87.959 39.1702 87.3685 39.0141 87.4839 38.634C88.2712 36.1092 89.4114 33.2383 92.391 32.865C92.7779 32.8175 92.7779 33.4215 92.391 33.4758Z" fill="#561C2F"/>
<path fill-rule="evenodd" clip-rule="evenodd" d="M90.9245 36.7607C90.334 36.3603 89.7028 36.1024 89.0037 35.9734C88.6169 35.8987 88.7798 35.315 89.1666 35.3829C89.9132 35.5187 90.6055 35.8105 91.2299 36.2313C91.5489 36.4485 91.2503 36.9779 90.9245 36.7539V36.7607Z" fill="#561C2F"/>
<path fill-rule="evenodd" clip-rule="evenodd" d="M48.8986 35.9735C49.0344 33.1636 47.9756 30.5913 45.9055 28.6909C45.6137 28.4262 46.048 27.9918 46.3331 28.2633C48.5118 30.2723 49.6384 33.0211 49.5027 35.9803C49.4823 36.3739 48.8783 36.3739 48.8918 35.9803L48.8986 35.9735Z" fill="#561C2F"/>
<path fill-rule="evenodd" clip-rule="evenodd" d="M48.1723 31.9893C47.2899 32.0979 46.5298 32.5458 45.9732 33.2245C45.7221 33.5299 45.2945 33.0956 45.5456 32.7969C46.2108 31.9825 47.1338 31.5074 48.1723 31.3852C48.5591 31.3377 48.5591 31.9485 48.1723 31.996V31.9893Z" fill="#561C2F"/>
<path fill-rule="evenodd" clip-rule="evenodd" d="M88.1829 24.3266C86.3436 31.202 85.0676 40.3579 85.0676 40.3579C85.0676 40.3579 82.4342 39.7131 80.2487 38.5321C78.0633 37.3512 71.4865 33.2042 62.5003 35.22C54.1386 37.0933 52.5775 37.0593 52.5775 37.0593C52.5775 37.0593 51.254 25.1682 51.7088 19.9761C49.1364 30.3943 37.2522 59.1447 65.9211 61.7985C93.9045 63.8482 88.2779 39.4009 88.1897 24.3334L88.1829 24.3266Z" fill="#CB2E45"/>
<mask id="mask1_4156_1187" style="mask-type:luminance" maskUnits="userSpaceOnUse" x="47" y="19" width="42" height="43">
<path d="M88.1829 24.3266C86.3436 31.202 85.0676 40.3579 85.0676 40.3579C85.0676 40.3579 82.4342 39.7131 80.2487 38.5321C78.0633 37.3512 71.4865 33.2042 62.5003 35.22C54.1386 37.0933 52.5775 37.0593 52.5775 37.0593C52.5775 37.0593 51.254 25.1682 51.7088 19.9761C49.1364 30.3943 37.2522 59.1447 65.9211 61.7985C93.9045 63.8482 88.2779 39.4009 88.1897 24.3334L88.1829 24.3266Z" fill="white"/>
</mask>
<g mask="url(#mask1_4156_1187)">
<path opacity="0.3" fill-rule="evenodd" clip-rule="evenodd" d="M88.1829 24.3266C86.3436 31.202 85.0676 40.3579 85.0676 40.3579C85.0676 40.3579 82.4342 39.7131 80.2487 38.5321C78.0633 37.3512 71.4865 33.2042 62.5003 35.22C54.1386 37.0933 52.5775 37.0593 52.5775 37.0593C52.5775 37.0593 51.254 25.1682 51.7088 19.9761C49.1364 30.3943 37.2522 59.1447 65.9211 61.7985C93.9045 63.8482 88.2779 39.4009 88.1897 24.3334L88.1829 24.3266Z" fill="#561C2F"/>
</g>
<path fill-rule="evenodd" clip-rule="evenodd" d="M46.8694 122.618C46.9509 122.632 47.0391 122.645 47.1273 122.659L47.1477 121.824C58.5705 93.7254 50.9485 66.4207 50.9485 66.4207L56.3375 65.1583C56.3375 65.1583 60.1926 75.5766 59.4732 88.316C59.4732 88.316 73.828 87.9631 82.5291 88.6554C82.373 76.6693 80.459 64.0859 80.459 64.0859L86.1059 64.9275C86.1059 64.9275 91.1759 97.4923 89.4655 102.365L89.7235 121.39L90.2393 123.955H90.2529C90.375 124.58 90.5243 125.326 90.6804 126.168V126.182C93.5989 141.609 101.757 191.963 94.8342 241.244C83.4046 242.079 81.83 241.224 81.83 241.224C81.83 241.224 79.2984 178.68 72.0701 145.579L50.134 239.839L36.9805 238.556C36.9805 238.556 44.7722 147.106 46.8694 122.611V122.618Z" fill="#561C2F"/>
<mask id="mask2_4156_1187" style="mask-type:luminance" maskUnits="userSpaceOnUse" x="36" y="64" width="62" height="178">
<path d="M46.8694 122.618C46.9509 122.632 47.0391 122.645 47.1273 122.659L47.1477 121.824C58.5705 93.7254 50.9485 66.4207 50.9485 66.4207L56.3375 65.1583C56.3375 65.1583 60.1926 75.5766 59.4732 88.316C59.4732 88.316 73.828 87.9631 82.5291 88.6554C82.373 76.6693 80.459 64.0859 80.459 64.0859L86.1059 64.9275C86.1059 64.9275 91.1759 97.4923 89.4655 102.365L89.7235 121.39L90.2393 123.955H90.2529C90.375 124.58 90.5243 125.326 90.6804 126.168V126.182C93.5989 141.609 101.757 191.963 94.8342 241.244C83.4046 242.079 81.83 241.224 81.83 241.224C81.83 241.224 79.2984 178.68 72.0701 145.579L50.134 239.839L36.9805 238.556C36.9805 238.556 44.7722 147.106 46.8694 122.611V122.618Z" fill="white"/>
</mask>
<g mask="url(#mask2_4156_1187)">
<path opacity="0.3" fill-rule="evenodd" clip-rule="evenodd" d="M46.8694 122.618C46.9509 122.632 47.0391 122.645 47.1273 122.659L47.1477 121.824C58.5705 93.7254 50.9485 66.4207 50.9485 66.4207L56.3375 65.1583C56.3375 65.1583 60.1926 75.5766 59.4732 88.316C59.4732 88.316 73.828 87.9631 82.5291 88.6554C82.373 76.6693 80.459 64.0859 80.459 64.0859L86.1059 64.9275C86.1059 64.9275 91.1759 97.4923 89.4655 102.365L89.7235 121.39L90.2393 123.955H90.2529C90.375 124.58 90.5243 125.326 90.6804 126.168V126.182C93.5989 141.609 101.757 191.963 94.8342 241.244C83.4046 242.079 81.83 241.224 81.83 241.224C81.83 241.224 79.2984 178.68 72.0701 145.579L50.134 239.839L36.9805 238.556C36.9805 238.556 44.7722 147.106 46.8694 122.611V122.618Z" fill="#561C2F"/>
</g>
<path fill-rule="evenodd" clip-rule="evenodd" d="M69.1851 34.5006C68.9951 32.417 68.9612 30.313 69.0833 28.2225C69.1444 27.1977 69.2394 26.1728 69.3752 25.1547C69.4702 24.4081 69.4702 23.4036 69.7756 22.7046C70.1896 21.7544 71.6217 21.6526 71.9068 22.7181C72.1375 23.5665 71.805 24.5167 71.7167 25.3651C71.5742 26.8447 71.3706 28.3175 71.3027 29.7971C71.2688 30.5166 71.2688 31.2292 71.3163 31.9487C71.3434 32.3898 71.1941 33.245 71.5267 33.5844C71.71 33.7676 72.0222 33.8219 72.2393 33.6794C72.409 33.5708 72.4905 33.3672 72.633 33.2246C72.8773 32.9667 73.2914 32.9057 73.6239 33.0346C74.3501 33.3265 74.2619 33.9305 74.1194 34.5617C73.909 35.4712 73.461 36.3264 72.8027 36.9983C72.4565 37.3512 72.0357 37.6567 71.5471 37.7177C70.8073 37.8128 70.0878 37.3037 69.7213 36.6589C69.348 36.0074 69.2598 35.2472 69.1919 34.5006H69.1851Z" fill="#F1D054"/>
<path fill-rule="evenodd" clip-rule="evenodd" d="M75.8911 31.4804C75.7214 32.8039 76.2983 33.9713 77.1739 34.0799C78.0494 34.1885 78.8978 33.2044 79.0607 31.8809C79.2304 30.5574 78.6535 29.39 77.7779 29.2814C76.9024 29.1728 76.054 30.1569 75.8911 31.4804Z" fill="#561C2F"/>
<path fill-rule="evenodd" clip-rule="evenodd" d="M65.8938 30.4964C65.9345 31.8334 65.249 32.9397 64.3667 32.9601C63.4843 32.9873 62.7378 31.9217 62.697 30.5846C62.6563 29.2475 63.3418 28.1412 64.2241 28.1209C65.1065 28.0937 65.8531 29.1593 65.8938 30.4964Z" fill="#561C2F"/>
<path fill-rule="evenodd" clip-rule="evenodd" d="M81.7822 27.0279C80.9949 25.0596 79.0741 24.0619 77.0108 24.313C76.2031 24.408 76.2099 23.1456 77.0108 23.0506C79.6849 22.7316 82.0197 24.2316 83.0039 26.6953C83.3093 27.4555 82.0808 27.7813 81.7822 27.0347V27.0279Z" fill="#561C2F"/>
<path fill-rule="evenodd" clip-rule="evenodd" d="M65.9685 22.9895C64.1292 22.2769 62.1813 22.8267 60.9596 24.3741C60.4574 25.0121 59.5682 24.1162 60.0637 23.4782C61.5297 21.6118 64.0953 20.9195 66.3011 21.7679C67.0545 22.0597 66.7287 23.2814 65.9617 22.9895H65.9685Z" fill="#561C2F"/>
<path fill-rule="evenodd" clip-rule="evenodd" d="M31.6796 99.3723L45.3489 104.673C45.0163 106.18 44.6837 107.687 44.3512 109.193C53.6495 109.539 62.9411 109.96 72.2328 110.422C72.9929 112.974 73.6241 115.566 73.9771 118.207C60.5656 123.507 45.152 123.541 31.7203 118.288C31.2316 118.098 30.7226 117.881 30.3832 117.48C29.942 116.958 29.8606 116.225 29.8199 115.546C29.4805 110.096 30.1185 104.592 31.6931 99.3655L31.6796 99.3723Z" fill="#EDBA8C"/>
<mask id="mask3_4156_1187" style="mask-type:luminance" maskUnits="userSpaceOnUse" x="29" y="99" width="45" height="24">
<path d="M31.6796 99.3723L45.3489 104.673C45.0163 106.18 44.6837 107.687 44.3512 109.193C53.6495 109.539 62.9411 109.96 72.2328 110.422C72.9929 112.974 73.6241 115.566 73.9771 118.207C60.5656 123.507 45.152 123.541 31.7203 118.288C31.2316 118.098 30.7226 117.881 30.3832 117.48C29.942 116.958 29.8606 116.225 29.8199 115.546C29.4805 110.096 30.1185 104.592 31.6931 99.3655L31.6796 99.3723Z" fill="white"/>
</mask>
<g mask="url(#mask3_4156_1187)">
<path opacity="0.2" fill-rule="evenodd" clip-rule="evenodd" d="M31.6796 99.3723L45.3489 104.673C45.0163 106.18 44.6837 107.687 44.3512 109.193C53.6495 109.539 62.9411 109.96 72.2328 110.422C72.9929 112.974 73.6241 115.566 73.9771 118.207C60.5656 123.507 45.152 123.541 31.7203 118.288C31.2316 118.098 30.7226 117.881 30.3832 117.48C29.942 116.958 29.8606 116.225 29.8199 115.546C29.4805 110.096 30.1185 104.592 31.6931 99.3655L31.6796 99.3723Z" fill="#CB2E45"/>
</g>
<path fill-rule="evenodd" clip-rule="evenodd" d="M72.4429 40.1134C69.857 42.0071 66.416 40.3374 66.1377 37.195C66.1037 36.7877 66.7349 36.7945 66.7689 37.195C67.0064 39.9098 69.9656 41.1451 72.1239 39.5637C72.4565 39.3193 72.7687 39.8691 72.4429 40.1134Z" fill="#EDBA8C"/>
<path opacity="0.16" fill-rule="evenodd" clip-rule="evenodd" d="M88.2573 27.9511C87.8094 27.8358 87.3682 27.7204 86.927 27.605C80.8797 26.044 74.6762 24.9105 68.4592 24.32C64.1629 23.9128 59.8803 23.8042 55.6044 23.9399C53.9211 23.9196 52.2515 23.9196 50.609 23.9399C50.609 23.9399 52.2447 17.465 53.6632 15.456C65.0928 14.8452 77.1128 16.2297 87.6058 20.5124C88.1623 22.3585 88.3659 24.3404 88.1487 26.3765L88.2573 27.9444V27.9511Z" fill="#561C2F"/>
<path fill-rule="evenodd" clip-rule="evenodd" d="M49.4891 13.2094L57.6133 9.01498C60.7354 8.96069 63.8643 8.94711 66.9864 8.99462C71.0519 9.05571 75.0563 9.19824 79.0878 9.67334L79.7055 9.91089L85.6782 13.2162L93.5648 18.1708C93.5648 18.1708 96.0353 19.9423 96.0353 21.2318L96.877 26.0643C96.877 26.0643 74.1061 14.18 45.6408 19.7726C29.2702 20.4513 49.5027 13.2094 49.5027 13.2094H49.4891Z" fill="#F1D054"/>
<mask id="mask4_4156_1187" style="mask-type:luminance" maskUnits="userSpaceOnUse" x="39" y="8" width="58" height="19">
<path d="M49.4891 13.2094L57.6133 9.01498C60.7354 8.96069 63.8643 8.94711 66.9864 8.99462C71.0519 9.05571 75.0563 9.19824 79.0878 9.67334L79.7055 9.91089L85.6782 13.2162L93.5648 18.1708C93.5648 18.1708 96.0353 19.9423 96.0353 21.2318L96.877 26.0643C96.877 26.0643 74.1061 14.18 45.6408 19.7726C29.2702 20.4513 49.5027 13.2094 49.5027 13.2094H49.4891Z" fill="white"/>
</mask>
<g mask="url(#mask4_4156_1187)">
<path opacity="0.3" fill-rule="evenodd" clip-rule="evenodd" d="M49.4891 13.2094L57.6133 9.01498C60.7354 8.96069 63.8643 8.94711 66.9864 8.99462C71.0519 9.05571 75.0563 9.19824 79.0878 9.67334L79.7055 9.91089L85.6782 13.2162L93.5648 18.1708C93.5648 18.1708 96.0353 19.9423 96.0353 21.2318L96.877 26.0643C96.877 26.0643 74.1061 14.18 45.6408 19.7726C29.2702 20.4513 49.5027 13.2094 49.5027 13.2094H49.4891Z" fill="#CB2E45"/>
</g>
<path fill-rule="evenodd" clip-rule="evenodd" d="M104.03 96.9965C106.338 102.738 107.661 108.881 107.926 115.064C107.953 115.654 107.96 116.292 107.641 116.795C107.37 117.229 106.901 117.494 106.447 117.724C99.4083 121.308 91.0465 120.568 83.1938 119.733C82.2029 119.625 71.0313 118.145 71.0652 117.697C71.2484 115.193 71.6421 112.709 72.2326 110.265C76.3863 109.166 80.6351 109.078 84.911 108.704C87.3543 108.494 89.8181 108.161 92.2547 107.971C92.18 106.288 92.0986 104.605 92.0239 102.922L104.03 96.9897V96.9965Z" fill="#EDBA8C"/>
<path opacity="0.15" fill-rule="evenodd" clip-rule="evenodd" d="M31.6798 99.3721L45.3491 104.673C45.0776 105.915 44.7994 107.157 44.5211 108.399C43.6591 108.474 42.7971 108.508 41.9352 108.514C37.9443 108.548 33.9467 108.223 30.0034 107.571C30.3156 104.795 30.8653 102.046 31.673 99.3721H31.6798Z" fill="#561C2F"/>
<path opacity="0.15" fill-rule="evenodd" clip-rule="evenodd" d="M92.167 106.119C92.1195 105.053 92.0719 103.988 92.0176 102.929L104.024 96.9968C104.839 99.0194 105.524 101.089 106.087 103.2C101.703 105.399 96.8976 106.662 92.167 106.126V106.119Z" fill="#561C2F"/>
<path fill-rule="evenodd" clip-rule="evenodd" d="M47.2764 97.8315C43.6793 96.7863 35.2157 94.2683 31.5506 92.7548C30.5733 92.3475 29.4602 92.843 29.0869 93.8271C28.51 95.3475 28.1503 96.6506 27.9399 97.5533C27.7498 98.3474 28.096 99.1686 28.8018 99.5894C31.4963 101.191 38.6432 104.944 45.9869 104.578C46.8013 104.537 47.514 103.994 47.738 103.207C48.1181 101.863 48.3895 100.825 48.566 100.051C48.7968 99.0804 48.2266 98.1098 47.2697 97.8315H47.2764Z" fill="#F1D054"/>
<path fill-rule="evenodd" clip-rule="evenodd" d="M104.533 91.2277L106.08 94.3362C106.487 95.1506 106.351 96.128 105.727 96.7931C103.766 98.8768 98.9263 103.078 91.2976 103.669C90.2456 103.75 89.2886 103.058 89.0171 102.04C88.5692 100.35 88.2434 99.1483 88.0126 98.2999C87.7072 97.1936 88.3045 96.0465 89.3904 95.6665C92.4243 94.6009 98.268 92.4222 101.404 90.3725C102.49 89.6598 103.956 90.0671 104.533 91.2345V91.2277Z" fill="#F1D054"/>
<path opacity="0.3" fill-rule="evenodd" clip-rule="evenodd" d="M47.2764 97.8315C43.6793 96.7863 35.2157 94.2683 31.5506 92.7548C30.5733 92.3475 29.4602 92.843 29.0869 93.8271C28.51 95.3475 28.1503 96.6506 27.9399 97.5533C27.7498 98.3474 28.096 99.1686 28.8018 99.5894C31.4963 101.191 38.6432 104.944 45.9869 104.578C46.8013 104.537 47.514 103.994 47.738 103.207C48.1181 101.863 48.3895 100.825 48.566 100.051C48.7968 99.0804 48.2266 98.1098 47.2697 97.8315H47.2764Z" fill="#CB2E45"/>
<path opacity="0.3" fill-rule="evenodd" clip-rule="evenodd" d="M104.533 91.2277L106.08 94.3362C106.487 95.1506 106.351 96.128 105.727 96.7931C103.766 98.8768 98.9263 103.078 91.2976 103.669C90.2456 103.75 89.2886 103.058 89.0171 102.04C88.5692 100.35 88.2434 99.1483 88.0126 98.2999C87.7072 97.1936 88.3045 96.0465 89.3904 95.6665C92.4243 94.6009 98.268 92.4222 101.404 90.3725C102.49 89.6598 103.956 90.0671 104.533 91.2345V91.2277Z" fill="#CB2E45"/>
<path opacity="0.3" fill-rule="evenodd" clip-rule="evenodd" d="M69.1851 34.5006C68.9951 32.417 68.9612 30.313 69.0833 28.2225C69.1444 27.1977 69.2394 26.1728 69.3752 25.1547C69.4702 24.4081 69.4702 23.4036 69.7756 22.7046C70.1896 21.7544 71.6217 21.6526 71.9068 22.7181C72.1375 23.5665 71.805 24.5167 71.7167 25.3651C71.5742 26.8447 71.3706 28.3175 71.3027 29.7971C71.2688 30.5166 71.2688 31.2292 71.3163 31.9487C71.3434 32.3898 71.1941 33.245 71.5267 33.5844C71.71 33.7676 72.0222 33.8219 72.2393 33.6794C72.409 33.5708 72.4905 33.3672 72.633 33.2246C72.8773 32.9667 73.2914 32.9057 73.6239 33.0346C74.3501 33.3265 74.2619 33.9305 74.1194 34.5617C73.909 35.4712 73.461 36.3264 72.8027 36.9983C72.4565 37.3512 72.0357 37.6567 71.5471 37.7177C70.8073 37.8128 70.0878 37.3037 69.7213 36.6589C69.348 36.0074 69.2598 35.2472 69.1919 34.5006H69.1851Z" fill="#CB2E45"/>
</g>
</g>
<path d="M168.304 12.8213C152.749 13.1653 136.962 21.3183 121.6 30.1983L151.939 43.6627C151.626 28.209 156.408 22.8025 168.304 12.8213Z" fill="white"/>
<rect x="144.099" width="199.901" height="85" rx="16" fill="white"/>
<path d="M168.44 36.668C167.272 36.668 166.216 36.468 165.272 36.068C164.344 35.668 163.608 35.092 163.064 34.34C162.52 33.588 162.24 32.7 162.224 31.676H165.824C165.872 32.364 166.112 32.908 166.544 33.308C166.992 33.708 167.6 33.908 168.368 33.908C169.152 33.908 169.768 33.724 170.216 33.356C170.664 32.972 170.888 32.476 170.888 31.868C170.888 31.372 170.736 30.964 170.432 30.644C170.128 30.324 169.744 30.076 169.28 29.9C168.832 29.708 168.208 29.5 167.408 29.276C166.32 28.956 165.432 28.644 164.744 28.34C164.072 28.02 163.488 27.548 162.992 26.924C162.512 26.284 162.272 25.436 162.272 24.38C162.272 23.388 162.52 22.524 163.016 21.788C163.512 21.052 164.208 20.492 165.104 20.108C166 19.708 167.024 19.508 168.176 19.508C169.904 19.508 171.304 19.932 172.376 20.78C173.464 21.612 174.064 22.78 174.176 24.284H170.48C170.448 23.708 170.2 23.236 169.736 22.868C169.288 22.484 168.688 22.292 167.936 22.292C167.28 22.292 166.752 22.46 166.352 22.796C165.968 23.132 165.776 23.62 165.776 24.26C165.776 24.708 165.92 25.084 166.208 25.388C166.512 25.676 166.88 25.916 167.312 26.108C167.76 26.284 168.384 26.492 169.184 26.732C170.272 27.052 171.16 27.372 171.848 27.692C172.536 28.012 173.128 28.492 173.624 29.132C174.12 29.772 174.368 30.612 174.368 31.652C174.368 32.548 174.136 33.38 173.672 34.148C173.208 34.916 172.528 35.532 171.632 35.996C170.736 36.444 169.672 36.668 168.44 36.668ZM189.161 29.564C189.161 30.044 189.129 30.476 189.065 30.86H179.345C179.425 31.82 179.761 32.572 180.353 33.116C180.945 33.66 181.673 33.932 182.537 33.932C183.785 33.932 184.673 33.396 185.201 32.324H188.825C188.441 33.604 187.705 34.66 186.617 35.492C185.529 36.308 184.193 36.716 182.609 36.716C181.329 36.716 180.177 36.436 179.153 35.876C178.145 35.3 177.353 34.492 176.777 33.452C176.217 32.412 175.937 31.212 175.937 29.852C175.937 28.476 176.217 27.268 176.777 26.228C177.337 25.188 178.121 24.388 179.129 23.828C180.137 23.268 181.297 22.988 182.609 22.988C183.873 22.988 185.001 23.26 185.993 23.804C187.001 24.348 187.777 25.124 188.321 26.132C188.881 27.124 189.161 28.268 189.161 29.564ZM185.681 28.604C185.665 27.74 185.353 27.052 184.745 26.54C184.137 26.012 183.393 25.748 182.513 25.748C181.681 25.748 180.977 26.004 180.401 26.516C179.841 27.012 179.497 27.708 179.369 28.604H185.681ZM194.494 18.74V36.5H191.134V18.74H194.494ZM209.693 29.564C209.693 30.044 209.661 30.476 209.597 30.86H199.877C199.957 31.82 200.293 32.572 200.885 33.116C201.477 33.66 202.205 33.932 203.069 33.932C204.317 33.932 205.205 33.396 205.733 32.324H209.357C208.973 33.604 208.237 34.66 207.149 35.492C206.061 36.308 204.725 36.716 203.141 36.716C201.861 36.716 200.709 36.436 199.685 35.876C198.677 35.3 197.885 34.492 197.309 33.452C196.749 32.412 196.469 31.212 196.469 29.852C196.469 28.476 196.749 27.268 197.309 26.228C197.869 25.188 198.653 24.388 199.661 23.828C200.669 23.268 201.829 22.988 203.141 22.988C204.405 22.988 205.533 23.26 206.525 23.804C207.533 24.348 208.309 25.124 208.853 26.132C209.413 27.124 209.693 28.268 209.693 29.564ZM206.213 28.604C206.197 27.74 205.885 27.052 205.277 26.54C204.669 26.012 203.925 25.748 203.045 25.748C202.213 25.748 201.509 26.004 200.933 26.516C200.373 27.012 200.029 27.708 199.901 28.604H206.213ZM210.802 29.852C210.802 28.476 211.082 27.276 211.642 26.252C212.202 25.212 212.978 24.412 213.97 23.852C214.962 23.276 216.098 22.988 217.378 22.988C219.026 22.988 220.386 23.404 221.458 24.236C222.546 25.052 223.274 26.204 223.642 27.692H220.018C219.826 27.116 219.498 26.668 219.034 26.348C218.586 26.012 218.026 25.844 217.354 25.844C216.394 25.844 215.634 26.196 215.074 26.9C214.514 27.588 214.234 28.572 214.234 29.852C214.234 31.116 214.514 32.1 215.074 32.804C215.634 33.492 216.394 33.836 217.354 33.836C218.714 33.836 219.602 33.228 220.018 32.012H223.642C223.274 33.452 222.546 34.596 221.458 35.444C220.37 36.292 219.01 36.716 217.378 36.716C216.098 36.716 214.962 36.436 213.97 35.876C212.978 35.3 212.202 34.5 211.642 33.476C211.082 32.436 210.802 31.228 210.802 29.852ZM224.759 29.852C224.759 28.476 225.039 27.276 225.599 26.252C226.159 25.212 226.935 24.412 227.927 23.852C228.919 23.276 230.055 22.988 231.335 22.988C232.983 22.988 234.343 23.404 235.415 24.236C236.503 25.052 237.231 26.204 237.599 27.692H233.975C233.783 27.116 233.455 26.668 232.991 26.348C232.543 26.012 231.983 25.844 231.311 25.844C230.351 25.844 229.591 26.196 229.031 26.9C228.471 27.588 228.191 28.572 228.191 29.852C228.191 31.116 228.471 32.1 229.031 32.804C229.591 33.492 230.351 33.836 231.311 33.836C232.671 33.836 233.559 33.228 233.975 32.012H237.599C237.231 33.452 236.503 34.596 235.415 35.444C234.327 36.292 232.967 36.716 231.335 36.716C230.055 36.716 228.919 36.436 227.927 35.876C226.935 35.3 226.159 34.5 225.599 33.476C225.039 32.436 224.759 31.228 224.759 29.852ZM241.285 21.62C240.693 21.62 240.197 21.436 239.797 21.068C239.413 20.684 239.221 20.212 239.221 19.652C239.221 19.092 239.413 18.628 239.797 18.26C240.197 17.876 240.693 17.684 241.285 17.684C241.877 17.684 242.365 17.876 242.749 18.26C243.149 18.628 243.349 19.092 243.349 19.652C243.349 20.212 243.149 20.684 242.749 21.068C242.365 21.436 241.877 21.62 241.285 21.62ZM242.941 23.204V36.5H239.581V23.204H242.941ZM251.684 36.716C250.404 36.716 249.252 36.436 248.228 35.876C247.204 35.3 246.396 34.492 245.804 33.452C245.228 32.412 244.94 31.212 244.94 29.852C244.94 28.492 245.236 27.292 245.828 26.252C246.436 25.212 247.26 24.412 248.3 23.852C249.34 23.276 250.5 22.988 251.78 22.988C253.06 22.988 254.22 23.276 255.26 23.852C256.3 24.412 257.116 25.212 257.708 26.252C258.316 27.292 258.62 28.492 258.62 29.852C258.62 31.212 258.308 32.412 257.684 33.452C257.076 34.492 256.244 35.3 255.188 35.876C254.148 36.436 252.98 36.716 251.684 36.716ZM251.684 33.788C252.292 33.788 252.86 33.644 253.388 33.356C253.932 33.052 254.364 32.604 254.684 32.012C255.004 31.42 255.164 30.7 255.164 29.852C255.164 28.588 254.828 27.62 254.156 26.948C253.5 26.26 252.692 25.916 251.732 25.916C250.772 25.916 249.964 26.26 249.308 26.948C248.668 27.62 248.348 28.588 248.348 29.852C248.348 31.116 248.66 32.092 249.284 32.78C249.924 33.452 250.724 33.788 251.684 33.788ZM267.973 23.012C269.557 23.012 270.837 23.516 271.813 24.524C272.789 25.516 273.277 26.908 273.277 28.7V36.5H269.917V29.156C269.917 28.1 269.653 27.292 269.125 26.732C268.597 26.156 267.877 25.868 266.965 25.868C266.037 25.868 265.301 26.156 264.757 26.732C264.229 27.292 263.965 28.1 263.965 29.156V36.5H260.605V23.204H263.965V24.86C264.413 24.284 264.981 23.836 265.669 23.516C266.373 23.18 267.141 23.012 267.973 23.012ZM275.128 29.804C275.128 28.46 275.392 27.268 275.92 26.228C276.464 25.188 277.192 24.388 278.104 23.828C279.032 23.268 280.064 22.988 281.2 22.988C282.192 22.988 283.056 23.188 283.792 23.588C284.544 23.988 285.144 24.492 285.592 25.1V23.204H288.976V36.5H285.592V34.556C285.16 35.18 284.56 35.7 283.792 36.116C283.04 36.516 282.168 36.716 281.176 36.716C280.056 36.716 279.032 36.428 278.104 35.852C277.192 35.276 276.464 34.468 275.92 33.428C275.392 32.372 275.128 31.164 275.128 29.804ZM285.592 29.852C285.592 29.036 285.432 28.34 285.112 27.764C284.792 27.172 284.36 26.724 283.816 26.42C283.272 26.1 282.688 25.94 282.064 25.94C281.44 25.94 280.864 26.092 280.336 26.396C279.808 26.7 279.376 27.148 279.04 27.74C278.72 28.316 278.56 29.004 278.56 29.804C278.56 30.604 278.72 31.308 279.04 31.916C279.376 32.508 279.808 32.964 280.336 33.284C280.88 33.604 281.456 33.764 282.064 33.764C282.688 33.764 283.272 33.612 283.816 33.308C284.36 32.988 284.792 32.54 285.112 31.964C285.432 31.372 285.592 30.668 285.592 29.852ZM300.929 25.964V32.396C300.929 32.844 301.033 33.172 301.241 33.38C301.465 33.572 301.833 33.668 302.345 33.668H303.905V36.5H301.793C298.961 36.5 297.545 35.124 297.545 32.372V25.964H295.961V23.204H297.545V19.916H300.929V23.204H303.905V25.964H300.929ZM318.393 23.204V36.5H315.009V34.82C314.577 35.396 314.009 35.852 313.305 36.188C312.617 36.508 311.865 36.668 311.049 36.668C310.009 36.668 309.089 36.452 308.289 36.02C307.489 35.572 306.857 34.924 306.393 34.076C305.945 33.212 305.721 32.188 305.721 31.004V23.204H309.081V30.524C309.081 31.58 309.345 32.396 309.873 32.972C310.401 33.532 311.121 33.812 312.033 33.812C312.961 33.812 313.689 33.532 314.217 32.972C314.745 32.396 315.009 31.58 315.009 30.524V23.204H318.393ZM314.745 19.748L309.225 22.268V19.868L314.745 17.012V19.748ZM161.792 60.804C161.792 59.46 162.056 58.268 162.584 57.228C163.128 56.188 163.864 55.388 164.792 54.828C165.72 54.268 166.752 53.988 167.888 53.988C168.752 53.988 169.576 54.18 170.36 54.564C171.144 54.932 171.768 55.428 172.232 56.052V49.74H175.64V67.5H172.232V65.532C171.816 66.188 171.232 66.716 170.48 67.116C169.728 67.516 168.856 67.716 167.864 67.716C166.744 67.716 165.72 67.428 164.792 66.852C163.864 66.276 163.128 65.468 162.584 64.428C162.056 63.372 161.792 62.164 161.792 60.804ZM172.256 60.852C172.256 60.036 172.096 59.34 171.776 58.764C171.456 58.172 171.024 57.724 170.48 57.42C169.936 57.1 169.352 56.94 168.728 56.94C168.104 56.94 167.528 57.092 167 57.396C166.472 57.7 166.04 58.148 165.704 58.74C165.384 59.316 165.224 60.004 165.224 60.804C165.224 61.604 165.384 62.308 165.704 62.916C166.04 63.508 166.472 63.964 167 64.284C167.544 64.604 168.12 64.764 168.728 64.764C169.352 64.764 169.936 64.612 170.48 64.308C171.024 63.988 171.456 63.54 171.776 62.964C172.096 62.372 172.256 61.668 172.256 60.852ZM180.146 52.62C179.554 52.62 179.058 52.436 178.658 52.068C178.274 51.684 178.082 51.212 178.082 50.652C178.082 50.092 178.274 49.628 178.658 49.26C179.058 48.876 179.554 48.684 180.146 48.684C180.738 48.684 181.226 48.876 181.61 49.26C182.01 49.628 182.21 50.092 182.21 50.652C182.21 51.212 182.01 51.684 181.61 52.068C181.226 52.436 180.738 52.62 180.146 52.62ZM181.802 54.204V67.5H178.442V54.204H181.802ZM189.729 67.716C188.641 67.716 187.665 67.524 186.801 67.14C185.937 66.74 185.249 66.204 184.737 65.532C184.241 64.86 183.969 64.116 183.921 63.3H187.305C187.369 63.812 187.617 64.236 188.049 64.572C188.497 64.908 189.049 65.076 189.705 65.076C190.345 65.076 190.841 64.948 191.193 64.692C191.561 64.436 191.745 64.108 191.745 63.708C191.745 63.276 191.521 62.956 191.073 62.748C190.641 62.524 189.945 62.284 188.985 62.028C187.993 61.788 187.177 61.54 186.537 61.284C185.913 61.028 185.369 60.636 184.905 60.108C184.457 59.58 184.233 58.868 184.233 57.972C184.233 57.236 184.441 56.564 184.857 55.956C185.289 55.348 185.897 54.868 186.681 54.516C187.481 54.164 188.417 53.988 189.489 53.988C191.073 53.988 192.337 54.388 193.281 55.188C194.225 55.972 194.745 57.036 194.841 58.38H191.625C191.577 57.852 191.353 57.436 190.953 57.132C190.569 56.812 190.049 56.652 189.393 56.652C188.785 56.652 188.313 56.764 187.977 56.988C187.657 57.212 187.497 57.524 187.497 57.924C187.497 58.372 187.721 58.716 188.169 58.956C188.617 59.18 189.313 59.412 190.257 59.652C191.217 59.892 192.009 60.14 192.633 60.396C193.257 60.652 193.793 61.052 194.241 61.596C194.705 62.124 194.945 62.828 194.961 63.708C194.961 64.476 194.745 65.164 194.313 65.772C193.897 66.38 193.289 66.86 192.489 67.212C191.705 67.548 190.785 67.716 189.729 67.716ZM201.151 56.964V63.396C201.151 63.844 201.255 64.172 201.463 64.38C201.687 64.572 202.055 64.668 202.567 64.668H204.127V67.5H202.015C199.183 67.5 197.767 66.124 197.767 63.372V56.964H196.183V54.204H197.767V50.916H201.151V54.204H204.127V56.964H201.151ZM209.424 56.268C209.856 55.564 210.416 55.012 211.104 54.612C211.808 54.212 212.608 54.012 213.504 54.012V57.54H212.616C211.56 57.54 210.76 57.788 210.216 58.284C209.688 58.78 209.424 59.644 209.424 60.876V67.5H206.064V54.204H209.424V56.268ZM216.991 52.62C216.399 52.62 215.903 52.436 215.503 52.068C215.119 51.684 214.927 51.212 214.927 50.652C214.927 50.092 215.119 49.628 215.503 49.26C215.903 48.876 216.399 48.684 216.991 48.684C217.583 48.684 218.071 48.876 218.455 49.26C218.855 49.628 219.055 50.092 219.055 50.652C219.055 51.212 218.855 51.684 218.455 52.068C218.071 52.436 217.583 52.62 216.991 52.62ZM218.647 54.204V67.5H215.287V54.204H218.647ZM225.399 56.964V63.396C225.399 63.844 225.503 64.172 225.711 64.38C225.935 64.572 226.303 64.668 226.815 64.668H228.375V67.5H226.263C223.431 67.5 222.015 66.124 222.015 63.372V56.964H220.431V54.204H222.015V50.916H225.399V54.204H228.375V56.964H225.399ZM236.216 67.716C234.936 67.716 233.784 67.436 232.76 66.876C231.736 66.3 230.928 65.492 230.336 64.452C229.76 63.412 229.472 62.212 229.472 60.852C229.472 59.492 229.768 58.292 230.36 57.252C230.968 56.212 231.792 55.412 232.832 54.852C233.872 54.276 235.032 53.988 236.312 53.988C237.592 53.988 238.752 54.276 239.792 54.852C240.832 55.412 241.648 56.212 242.24 57.252C242.848 58.292 243.152 59.492 243.152 60.852C243.152 62.212 242.84 63.412 242.216 64.452C241.608 65.492 240.776 66.3 239.72 66.876C238.68 67.436 237.512 67.716 236.216 67.716ZM236.216 64.788C236.824 64.788 237.392 64.644 237.92 64.356C238.464 64.052 238.896 63.604 239.216 63.012C239.536 62.42 239.696 61.7 239.696 60.852C239.696 59.588 239.36 58.62 238.688 57.948C238.032 57.26 237.224 56.916 236.264 56.916C235.304 56.916 234.496 57.26 233.84 57.948C233.2 58.62 232.88 59.588 232.88 60.852C232.88 62.116 233.192 63.092 233.816 63.78C234.456 64.452 235.256 64.788 236.216 64.788Z" fill="#8F3B06"/>
<defs>
<filter id="filter0_d_4156_1187" x="12.881" y="0" width="106.238" height="257.697" filterUnits="userSpaceOnUse" color-interpolation-filters="sRGB">
<feFlood flood-opacity="0" result="BackgroundImageFix"/>
<feColorMatrix in="SourceAlpha" type="matrix" values="0 0 0 0 0 0 0 0 0 0 0 0 0 0 0 0 0 0 127 0" result="hardAlpha"/>
<feOffset dy="3.11898"/>
<feGaussianBlur stdDeviation="1.55949"/>
<feComposite in2="hardAlpha" operator="out"/>
<feColorMatrix type="matrix" values="0 0 0 0 0 0 0 0 0 0 0 0 0 0 0 0 0 0 0.25 0"/>
<feBlend mode="normal" in2="BackgroundImageFix" result="effect1_dropShadow_4156_1187"/>
<feBlend mode="normal" in="SourceGraphic" in2="effect1_dropShadow_4156_1187" result="shape"/>
</filter>
<clipPath id="clip0_4156_1187">
<rect width="100" height="104" fill="white" transform="matrix(-1 0 0 1 116 0)"/>
</clipPath>
</defs>
</svg>
