<svg width="360" height="133" viewBox="0 0 360 133" fill="none" xmlns="http://www.w3.org/2000/svg">
<g filter="url(#filter0_d_2994_2123)">
<g clip-path="url(#clip0_2994_2123)">
<g filter="url(#filter1_d_2994_2123)">
<path fill-rule="evenodd" clip-rule="evenodd" d="M29.2634 97.2476C33.7361 86.0828 37.9781 72.7189 44.6634 68.5448C48.6 66.0878 62.2285 64.4182 62.2285 64.4182H70.665C70.665 64.4182 85.1827 62.7961 89.4654 66.8141C92.9268 70.0651 104.75 94.1323 104.75 94.1323C104.75 94.1323 96.9244 102.372 89.4654 102.372C89.6825 112.363 89.7233 121.396 89.7233 121.396C89.7233 121.396 90.0151 122.733 90.4902 125.19C78.1308 126.222 61.2783 126.263 46.8692 122.625C47.1747 119.041 47.3647 116.883 47.3851 116.659L52.2447 84.3317C52.2447 84.3317 49.1769 95.7341 46.9778 102.935C43.5435 102.935 31.9511 100.186 29.2634 97.2408V97.2476Z" fill="#C36363"/>
<path fill-rule="evenodd" clip-rule="evenodd" d="M66.8573 70.1127H67.0135C69.6604 70.1127 71.8052 67.968 71.8052 65.321V50.2739H62.0588V65.321C62.0588 67.968 64.2036 70.1127 66.8506 70.1127H66.8573Z" fill="#EDBA8C"/>
<path opacity="0.25" fill-rule="evenodd" clip-rule="evenodd" d="M71.812 63.9027C68.5678 64.2488 65.2692 64.0995 62.0657 63.4547V56.3757C65.2896 56.8983 68.5474 57.163 71.812 57.1766V63.9027Z" fill="#561C2F" stroke="#EDBA8C" stroke-width="0.347756" stroke-miterlimit="22.93"/>
<path fill-rule="evenodd" clip-rule="evenodd" d="M84.7959 10.2773C84.7959 10.2773 84.2394 5.4924 82.1353 3.3816C80.0245 1.27759 66.4638 -1.34904 59.6156 0.802487C57.4641 3.06939 56.0863 7.54212 56.0863 7.54212L84.7959 10.2773Z" fill="#845E40"/>
<path fill-rule="evenodd" clip-rule="evenodd" d="M31.1843 18.8971C30.3902 27.6661 47.0391 36.3333 68.3711 38.2676C89.7031 40.2019 107.635 34.6568 108.429 25.8946C109.223 17.1256 92.574 8.45846 71.242 6.52412C49.91 4.58979 31.9784 10.1349 31.1843 18.8971Z" fill="#F1D054"/>
<mask id="mask0_2994_2123" style="mask-type:luminance" maskUnits="userSpaceOnUse" x="31" y="6" width="78" height="33">
<path d="M31.1843 18.8971C30.3902 27.6661 47.0391 36.3333 68.3711 38.2676C89.7031 40.2019 107.635 34.6568 108.429 25.8946C109.223 17.1256 92.574 8.45846 71.242 6.52412C49.91 4.58979 31.9784 10.1349 31.1843 18.8971Z" fill="white"/>
</mask>
<g mask="url(#mask0_2994_2123)">
<path opacity="0.3" fill-rule="evenodd" clip-rule="evenodd" d="M31.1843 18.8971C30.3902 27.6661 47.0391 36.3333 68.3711 38.2676C89.7031 40.2019 107.635 34.6568 108.429 25.8946C109.223 17.1256 92.574 8.45846 71.242 6.52412C49.91 4.58979 31.9784 10.1349 31.1843 18.8971Z" fill="#CB2E45"/>
</g>
<path fill-rule="evenodd" clip-rule="evenodd" d="M64.0757 20.1189L54.9774 18.0583C52.5926 17.514 50.0777 18.428 48.6617 20.3854C44.2288 26.5307 35.7822 41.1408 38.4549 60.6343C38.8234 63.3225 41.1898 65.3183 44.0389 65.4025C48.7668 65.5355 52.1317 65.6485 54.5085 65.73C57.6102 65.8476 60.3185 63.6757 60.7226 60.7272C61.8615 52.4876 64.3897 36.5427 68.0803 27.4703C69.3659 24.3267 67.4722 20.886 64.0577 20.1229L64.0757 20.1189Z" fill="black"/>
<path fill-rule="evenodd" clip-rule="evenodd" d="M44.0461 33.5234C45.5393 36.5641 48.3152 38.2541 50.2496 37.3039C52.1839 36.3537 52.5368 33.123 51.0437 30.0823C49.5505 27.0417 46.7746 25.3517 44.8402 26.3019C42.9059 27.2521 42.553 30.4828 44.0461 33.5234Z" fill="#EDBA8C"/>
<path fill-rule="evenodd" clip-rule="evenodd" d="M70.6182 14.6621L80.5589 13.1008C83.1648 12.687 85.8056 13.8521 87.1884 16.0609C91.516 22.9945 99.5528 39.3282 95.2701 60.1153C94.6796 62.9819 91.9887 64.9592 88.9163 64.8443C83.8183 64.6464 80.1886 64.5252 77.6248 64.4415C74.278 64.3444 71.5199 61.8115 71.2976 58.609C70.6663 49.6589 69.0955 32.3157 65.7779 22.2852C64.6211 18.8092 66.9074 15.2428 70.6372 14.6677L70.6182 14.6621Z" fill="black"/>
<path fill-rule="evenodd" clip-rule="evenodd" d="M49.5433 40.1137L51.4166 22.4739C52.2854 14.2886 59.629 8.35665 67.8143 9.23219L74.9001 9.98556C83.0854 10.8543 89.0174 18.198 88.1418 26.3833L86.2686 44.0231C85.3998 52.2084 78.0561 58.1403 69.8708 57.2648L62.7851 56.5114C54.5998 55.6427 48.6678 48.299 49.5433 40.1137Z" fill="#EDBA8C"/>
<path fill-rule="evenodd" clip-rule="evenodd" d="M92.5332 38.4032C90.5106 41.1181 87.4768 42.2787 85.7461 40.9959C84.0153 39.7132 84.2529 36.4689 86.2755 33.7541C88.298 31.0392 91.3319 29.8786 93.0626 31.1614C94.7865 32.4441 94.5558 35.6884 92.5332 38.4032Z" fill="#EDBA8C"/>
<path fill-rule="evenodd" clip-rule="evenodd" d="M92.391 33.4758C89.7304 33.8084 88.7599 36.5911 88.0744 38.7969C87.959 39.1702 87.3685 39.0141 87.4839 38.634C88.2712 36.1092 89.4114 33.2383 92.391 32.865C92.7779 32.8175 92.7779 33.4215 92.391 33.4758Z" fill="#561C2F"/>
<path fill-rule="evenodd" clip-rule="evenodd" d="M90.925 36.7607C90.3345 36.3603 89.7033 36.1024 89.0042 35.9734C88.6174 35.8987 88.7803 35.315 89.1671 35.3829C89.9137 35.5187 90.606 35.8105 91.2304 36.2313C91.5494 36.4485 91.2508 36.9779 90.925 36.7539V36.7607Z" fill="#561C2F"/>
<path fill-rule="evenodd" clip-rule="evenodd" d="M48.8986 35.9735C49.0344 33.1636 47.9756 30.5913 45.9055 28.6909C45.6137 28.4262 46.048 27.9918 46.3331 28.2633C48.5118 30.2723 49.6384 33.0211 49.5027 35.9803C49.4823 36.3739 48.8783 36.3739 48.8918 35.9803L48.8986 35.9735Z" fill="#561C2F"/>
<path fill-rule="evenodd" clip-rule="evenodd" d="M48.1723 31.9893C47.2899 32.0978 46.5298 32.5458 45.9732 33.2245C45.7221 33.5299 45.2945 33.0956 45.5456 32.7969C46.2108 31.9825 47.1338 31.5074 48.1723 31.3852C48.5591 31.3377 48.5591 31.9485 48.1723 31.996V31.9893Z" fill="#561C2F"/>
<path fill-rule="evenodd" clip-rule="evenodd" d="M46.8694 122.618C46.9509 122.632 47.0391 122.645 47.1273 122.659L47.1477 121.824C58.5705 93.7254 50.9485 66.4207 50.9485 66.4207L56.3375 65.1583C56.3375 65.1583 60.1926 75.5766 59.4732 88.316C59.4732 88.316 73.828 87.9631 82.5291 88.6554C82.373 76.6693 80.459 64.0859 80.459 64.0859L86.1059 64.9275C86.1059 64.9275 91.1759 97.4923 89.4656 102.365L89.7235 121.39L90.2393 123.955H90.2529C90.375 124.58 90.5243 125.326 90.6805 126.168V126.182C93.5989 141.609 101.757 191.963 94.8342 241.244C83.4046 242.079 81.83 241.224 81.83 241.224C81.83 241.224 79.2984 178.68 72.0701 145.579L50.1341 239.839L36.9806 238.556C36.9806 238.556 44.7722 147.106 46.8694 122.611V122.618Z" fill="#1E4A47"/>
<mask id="mask1_2994_2123" style="mask-type:luminance" maskUnits="userSpaceOnUse" x="36" y="64" width="62" height="178">
<path d="M46.8694 122.618C46.9509 122.632 47.0391 122.645 47.1273 122.659L47.1477 121.824C58.5705 93.7254 50.9485 66.4207 50.9485 66.4207L56.3375 65.1583C56.3375 65.1583 60.1926 75.5766 59.4732 88.316C59.4732 88.316 73.828 87.9631 82.5291 88.6554C82.373 76.6693 80.459 64.0859 80.459 64.0859L86.1059 64.9275C86.1059 64.9275 91.1759 97.4923 89.4656 102.365L89.7235 121.39L90.2393 123.955H90.2529C90.375 124.58 90.5243 125.326 90.6805 126.168V126.182C93.5989 141.609 101.757 191.963 94.8342 241.244C83.4046 242.079 81.83 241.224 81.83 241.224C81.83 241.224 79.2984 178.68 72.0701 145.579L50.1341 239.839L36.9806 238.556C36.9806 238.556 44.7722 147.106 46.8694 122.611V122.618Z" fill="white"/>
</mask>
<g mask="url(#mask1_2994_2123)">
<path opacity="0.3" fill-rule="evenodd" clip-rule="evenodd" d="M46.8694 122.618C46.9509 122.632 47.0391 122.645 47.1273 122.659L47.1477 121.824C58.5705 93.7254 50.9485 66.4207 50.9485 66.4207L56.3375 65.1583C56.3375 65.1583 60.1926 75.5766 59.4732 88.316C59.4732 88.316 73.828 87.9631 82.5291 88.6554C82.373 76.6693 80.459 64.0859 80.459 64.0859L86.1059 64.9275C86.1059 64.9275 91.1759 97.4923 89.4656 102.365L89.7235 121.39L90.2393 123.955H90.2529C90.375 124.58 90.5243 125.326 90.6805 126.168V126.182C93.5989 141.609 101.757 191.963 94.8342 241.244C83.4046 242.079 81.83 241.224 81.83 241.224C81.83 241.224 79.2984 178.68 72.0701 145.579L50.1341 239.839L36.9806 238.556C36.9806 238.556 44.7722 147.106 46.8694 122.611V122.618Z" fill="#1E4A47"/>
</g>
<path fill-rule="evenodd" clip-rule="evenodd" d="M69.1851 34.5006C68.9951 32.417 68.9612 30.313 69.0833 28.2225C69.1444 27.1977 69.2394 26.1728 69.3752 25.1547C69.4702 24.4081 69.4702 23.4036 69.7756 22.7046C70.1896 21.7544 71.6217 21.6526 71.9068 22.7181C72.1375 23.5665 71.805 24.5167 71.7167 25.3651C71.5742 26.8447 71.3706 28.3175 71.3027 29.7971C71.2688 30.5166 71.2688 31.2292 71.3163 31.9487C71.3434 32.3898 71.1941 33.245 71.5267 33.5844C71.71 33.7676 72.0222 33.8219 72.2393 33.6794C72.409 33.5708 72.4905 33.3672 72.633 33.2246C72.8773 32.9667 73.2914 32.9056 73.6239 33.0346C74.3501 33.3264 74.2619 33.9305 74.1194 34.5617C73.909 35.4712 73.461 36.3264 72.8027 36.9983C72.4565 37.3512 72.0357 37.6566 71.5471 37.7177C70.8073 37.8128 70.0878 37.3037 69.7213 36.6589C69.348 36.0074 69.2598 35.2472 69.1919 34.5006H69.1851Z" fill="#F1D054"/>
<path fill-rule="evenodd" clip-rule="evenodd" d="M75.8911 31.4804C75.7214 32.8039 76.2983 33.9713 77.1739 34.0799C78.0494 34.1885 78.8978 33.2044 79.0607 31.8809C79.2304 30.5574 78.6535 29.39 77.7779 29.2814C76.9024 29.1728 76.054 30.1569 75.8911 31.4804Z" fill="#561C2F"/>
<path fill-rule="evenodd" clip-rule="evenodd" d="M65.8938 30.4961C65.9345 31.8332 65.249 32.9395 64.3667 32.9599C63.4843 32.987 62.7378 31.9214 62.697 30.5844C62.6563 29.2473 63.3418 28.141 64.2241 28.1206C65.1065 28.0935 65.8531 29.1591 65.8938 30.4961Z" fill="#561C2F"/>
<path fill-rule="evenodd" clip-rule="evenodd" d="M81.7827 27.0281C80.9953 25.0598 79.0746 24.0621 77.0113 24.3133C76.2036 24.4083 76.2104 23.1459 77.0113 23.0509C79.6854 22.7319 82.0202 24.2318 83.0043 26.6956C83.3098 27.4557 82.0813 27.7815 81.7827 27.0349V27.0281Z" fill="#561C2F"/>
<path fill-rule="evenodd" clip-rule="evenodd" d="M65.9685 22.9895C64.1292 22.2769 62.1813 22.8267 60.9596 24.3741C60.4574 25.0121 59.5682 24.1162 60.0637 23.4782C61.5297 21.6118 64.0953 20.9195 66.3011 21.7679C67.0545 22.0597 66.7287 23.2814 65.9617 22.9895H65.9685Z" fill="#561C2F"/>
<path fill-rule="evenodd" clip-rule="evenodd" d="M31.6796 99.372L45.3489 104.673C45.0163 106.18 44.6837 107.686 44.3512 109.193C53.6496 109.539 62.9412 109.96 72.2328 110.421C72.9929 112.973 73.6241 115.566 73.9771 118.206C60.5657 123.507 45.1521 123.541 31.7203 118.288C31.2316 118.098 30.7226 117.881 30.3832 117.48C29.9421 116.958 29.8606 116.225 29.8199 115.546C29.4805 110.096 30.1185 104.591 31.6931 99.3652L31.6796 99.372Z" fill="#EDBA8C"/>
<mask id="mask2_2994_2123" style="mask-type:luminance" maskUnits="userSpaceOnUse" x="29" y="99" width="45" height="24">
<path d="M31.6796 99.372L45.3489 104.673C45.0163 106.18 44.6837 107.686 44.3512 109.193C53.6496 109.539 62.9412 109.96 72.2328 110.421C72.9929 112.973 73.6241 115.566 73.9771 118.206C60.5657 123.507 45.1521 123.541 31.7203 118.288C31.2316 118.098 30.7226 117.881 30.3832 117.48C29.9421 116.958 29.8606 116.225 29.8199 115.546C29.4805 110.096 30.1185 104.591 31.6931 99.3652L31.6796 99.372Z" fill="white"/>
</mask>
<g mask="url(#mask2_2994_2123)">
<path opacity="0.2" fill-rule="evenodd" clip-rule="evenodd" d="M31.6796 99.372L45.3489 104.673C45.0163 106.18 44.6837 107.686 44.3512 109.193C53.6496 109.539 62.9412 109.96 72.2328 110.421C72.9929 112.973 73.6241 115.566 73.9771 118.206C60.5657 123.507 45.1521 123.541 31.7203 118.288C31.2316 118.098 30.7226 117.881 30.3832 117.48C29.9421 116.958 29.8606 116.225 29.8199 115.546C29.4805 110.096 30.1185 104.591 31.6931 99.3652L31.6796 99.372Z" fill="#CB2E45"/>
</g>
<path fill-rule="evenodd" clip-rule="evenodd" d="M72.4429 40.1134C69.857 42.0071 66.416 40.3374 66.1377 37.195C66.1037 36.7877 66.735 36.7945 66.7689 37.195C67.0064 39.9098 69.9656 41.1451 72.1239 39.5637C72.4565 39.3193 72.7687 39.8691 72.4429 40.1134Z" fill="#561C2F"/>
<path opacity="0.16" fill-rule="evenodd" clip-rule="evenodd" d="M88.2573 27.9511C87.8094 27.8358 87.3682 27.7204 86.927 27.605C80.8797 26.044 74.6762 24.9105 68.4592 24.32C64.163 23.9128 59.8803 23.8042 55.6044 23.9399C53.9212 23.9196 52.2515 23.9196 50.609 23.9399C50.609 23.9399 52.2447 17.465 53.6633 15.456C65.0928 14.8452 77.1128 16.2297 87.6058 20.5124C88.1623 22.3585 88.3659 24.3404 88.1487 26.3765L88.2573 27.9444V27.9511Z" fill="#561C2F"/>
<path fill-rule="evenodd" clip-rule="evenodd" d="M49.4891 13.2092L57.6133 9.01474C60.7354 8.96044 63.8643 8.94687 66.9864 8.99438C71.0519 9.05546 75.0563 9.19799 79.0878 9.67309L79.7055 9.91064L85.6782 13.216L93.5648 18.1706C93.5648 18.1706 96.0353 19.942 96.0353 21.2316L96.877 26.064C96.877 26.064 74.1061 14.1798 45.6408 19.7724C29.2702 20.4511 49.5027 13.2092 49.5027 13.2092H49.4891Z" fill="#E6A050"/>
<path fill-rule="evenodd" clip-rule="evenodd" d="M104.03 96.9968C106.338 102.739 107.661 108.881 107.926 115.064C107.953 115.655 107.96 116.293 107.641 116.795C107.37 117.229 106.901 117.494 106.447 117.725C99.4083 121.308 91.0466 120.569 83.1938 119.734C82.2029 119.625 71.0313 118.146 71.0652 117.698C71.2485 115.193 71.6421 112.709 72.2326 110.266C76.3863 109.166 80.6351 109.078 84.911 108.705C87.3543 108.494 89.8181 108.162 92.2547 107.972C92.18 106.288 92.0986 104.605 92.0239 102.922L104.03 96.99V96.9968Z" fill="#EDBA8C"/>
<path opacity="0.15" fill-rule="evenodd" clip-rule="evenodd" d="M31.6798 99.3721L45.3491 104.673C45.0776 105.915 44.7994 107.157 44.5211 108.399C43.6591 108.474 42.7972 108.508 41.9352 108.514C37.9443 108.548 33.9467 108.223 30.0034 107.571C30.3156 104.795 30.8654 102.046 31.673 99.3721H31.6798Z" fill="#561C2F"/>
<path opacity="0.15" fill-rule="evenodd" clip-rule="evenodd" d="M92.167 106.119C92.1195 105.053 92.0719 103.987 92.0177 102.929L104.024 96.9966C104.839 99.0192 105.524 101.089 106.087 103.2C101.703 105.399 96.8976 106.661 92.167 106.125V106.119Z" fill="#561C2F"/>
<path fill-rule="evenodd" clip-rule="evenodd" d="M47.2764 97.8315C43.6793 96.7863 35.2157 94.2683 31.5506 92.7548C30.5733 92.3475 29.4602 92.843 29.0869 93.8271C28.51 95.3475 28.1503 96.6506 27.9399 97.5533C27.7498 98.3474 28.096 99.1686 28.8018 99.5894C31.4963 101.191 38.6432 104.944 45.9869 104.578C46.8013 104.537 47.514 103.994 47.738 103.207C48.1181 101.863 48.3895 100.825 48.566 100.051C48.7968 99.0804 48.2266 98.1098 47.2697 97.8315H47.2764Z" fill="#CA4040"/>
<path fill-rule="evenodd" clip-rule="evenodd" d="M104.533 91.2277L106.08 94.3362C106.488 95.1506 106.352 96.128 105.728 96.7931C103.766 98.8768 98.9268 103.078 91.2981 103.669C90.2461 103.75 89.2891 103.058 89.0176 102.04C88.5697 100.35 88.2439 99.1483 88.0131 98.2999C87.7077 97.1936 88.305 96.0465 89.3909 95.6665C92.4248 94.6009 98.2685 92.4222 101.404 90.3725C102.49 89.6598 103.956 90.0671 104.533 91.2345V91.2277Z" fill="#CA4040"/>
<path opacity="0.3" fill-rule="evenodd" clip-rule="evenodd" d="M47.2764 97.8315C43.6793 96.7863 35.2157 94.2683 31.5506 92.7548C30.5733 92.3475 29.4602 92.843 29.0869 93.8271C28.51 95.3475 28.1503 96.6506 27.9399 97.5533C27.7498 98.3474 28.096 99.1686 28.8018 99.5894C31.4963 101.191 38.6432 104.944 45.9869 104.578C46.8013 104.537 47.514 103.994 47.738 103.207C48.1181 101.863 48.3895 100.825 48.566 100.051C48.7968 99.0804 48.2266 98.1098 47.2697 97.8315H47.2764Z" fill="#CB2E45"/>
<path opacity="0.3" fill-rule="evenodd" clip-rule="evenodd" d="M104.533 91.2277L106.08 94.3362C106.488 95.1506 106.352 96.128 105.728 96.7931C103.766 98.8768 98.9268 103.078 91.2981 103.669C90.2461 103.75 89.2891 103.058 89.0176 102.04C88.5697 100.35 88.2439 99.1483 88.0131 98.2999C87.7077 97.1936 88.305 96.0465 89.3909 95.6665C92.4248 94.6009 98.2685 92.4222 101.404 90.3725C102.49 89.6598 103.956 90.0671 104.533 91.2345V91.2277Z" fill="#CB2E45"/>
<path opacity="0.3" fill-rule="evenodd" clip-rule="evenodd" d="M69.1851 34.5006C68.9951 32.417 68.9612 30.313 69.0833 28.2225C69.1444 27.1977 69.2394 26.1728 69.3752 25.1547C69.4702 24.4081 69.4702 23.4036 69.7756 22.7046C70.1896 21.7544 71.6217 21.6526 71.9068 22.7181C72.1375 23.5665 71.805 24.5167 71.7167 25.3651C71.5742 26.8447 71.3706 28.3175 71.3027 29.7971C71.2688 30.5166 71.2688 31.2292 71.3163 31.9487C71.3434 32.3898 71.1941 33.245 71.5267 33.5844C71.71 33.7676 72.0222 33.8219 72.2393 33.6794C72.409 33.5708 72.4905 33.3672 72.633 33.2246C72.8773 32.9667 73.2914 32.9056 73.6239 33.0346C74.3501 33.3264 74.2619 33.9305 74.1194 34.5617C73.909 35.4712 73.461 36.3264 72.8027 36.9983C72.4565 37.3512 72.0357 37.6566 71.5471 37.7177C70.8073 37.8128 70.0878 37.3037 69.7213 36.6589C69.348 36.0074 69.2598 35.2472 69.1919 34.5006H69.1851Z" fill="#CB2E45"/>
</g>
</g>
<path d="M168.304 18.8548C152.749 19.3607 136.963 31.3505 121.6 44.4092L151.939 64.2098C151.627 41.4838 156.409 33.533 168.304 18.8548Z" fill="white"/>
<rect x="144.099" width="199.901" height="125" rx="16" fill="white"/>
<path d="M166.016 28.3423V32.5423H171.656V35.2063H166.016V39.6463H172.376V42.3823H162.656V25.6063H172.376V28.3423H166.016ZM180.037 42.5983C178.949 42.5983 177.973 42.4063 177.109 42.0223C176.245 41.6223 175.557 41.0863 175.045 40.4143C174.549 39.7423 174.277 38.9983 174.229 38.1823H177.613C177.677 38.6943 177.925 39.1183 178.357 39.4543C178.805 39.7903 179.357 39.9583 180.013 39.9583C180.653 39.9583 181.149 39.8303 181.501 39.5743C181.869 39.3183 182.053 38.9903 182.053 38.5903C182.053 38.1583 181.829 37.8383 181.381 37.6303C180.949 37.4063 180.253 37.1663 179.293 36.9103C178.301 36.6703 177.485 36.4223 176.845 36.1663C176.221 35.9103 175.677 35.5183 175.213 34.9903C174.765 34.4623 174.541 33.7503 174.541 32.8543C174.541 32.1183 174.749 31.4463 175.165 30.8383C175.597 30.2303 176.205 29.7503 176.989 29.3983C177.789 29.0463 178.725 28.8703 179.797 28.8703C181.381 28.8703 182.645 29.2703 183.589 30.0703C184.533 30.8543 185.053 31.9183 185.149 33.2623H181.933C181.885 32.7343 181.661 32.3183 181.261 32.0143C180.877 31.6943 180.357 31.5343 179.701 31.5343C179.093 31.5343 178.621 31.6463 178.285 31.8703C177.965 32.0943 177.805 32.4063 177.805 32.8063C177.805 33.2543 178.029 33.5983 178.477 33.8383C178.925 34.0623 179.621 34.2943 180.565 34.5343C181.525 34.7743 182.317 35.0223 182.941 35.2783C183.565 35.5343 184.101 35.9343 184.549 36.4783C185.013 37.0063 185.253 37.7103 185.269 38.5903C185.269 39.3583 185.053 40.0463 184.621 40.6543C184.205 41.2623 183.597 41.7423 182.797 42.0943C182.013 42.4303 181.093 42.5983 180.037 42.5983ZM186.683 35.7343C186.683 34.3583 186.963 33.1583 187.523 32.1343C188.083 31.0943 188.859 30.2943 189.851 29.7343C190.843 29.1583 191.979 28.8703 193.259 28.8703C194.907 28.8703 196.267 29.2863 197.339 30.1183C198.427 30.9343 199.155 32.0863 199.523 33.5743H195.899C195.707 32.9983 195.379 32.5503 194.915 32.2303C194.467 31.8943 193.907 31.7263 193.235 31.7263C192.275 31.7263 191.515 32.0783 190.955 32.7823C190.395 33.4703 190.115 34.4543 190.115 35.7343C190.115 36.9983 190.395 37.9823 190.955 38.6863C191.515 39.3743 192.275 39.7183 193.235 39.7183C194.595 39.7183 195.483 39.1103 195.899 37.8943H199.523C199.155 39.3343 198.427 40.4783 197.339 41.3263C196.251 42.1743 194.891 42.5983 193.259 42.5983C191.979 42.5983 190.843 42.3183 189.851 41.7583C188.859 41.1823 188.083 40.3823 187.523 39.3583C186.963 38.3183 186.683 37.1103 186.683 35.7343ZM204.865 31.1503C205.297 30.4463 205.857 29.8943 206.545 29.4943C207.249 29.0943 208.049 28.8943 208.945 28.8943V32.4223H208.057C207.001 32.4223 206.201 32.6703 205.657 33.1663C205.129 33.6623 204.865 34.5263 204.865 35.7583V42.3823H201.505V29.0863H204.865V31.1503ZM212.432 27.5023C211.84 27.5023 211.344 27.3183 210.944 26.9503C210.56 26.5663 210.368 26.0943 210.368 25.5343C210.368 24.9743 210.56 24.5103 210.944 24.1423C211.344 23.7583 211.84 23.5663 212.432 23.5663C213.024 23.5663 213.512 23.7583 213.896 24.1423C214.296 24.5103 214.496 24.9743 214.496 25.5343C214.496 26.0943 214.296 26.5663 213.896 26.9503C213.512 27.3183 213.024 27.5023 212.432 27.5023ZM214.088 29.0863V42.3823H210.728V29.0863H214.088ZM220.287 31.0303C220.719 30.3903 221.311 29.8703 222.063 29.4703C222.831 29.0703 223.703 28.8703 224.679 28.8703C225.815 28.8703 226.839 29.1503 227.751 29.7103C228.679 30.2703 229.407 31.0703 229.935 32.1103C230.479 33.1343 230.751 34.3263 230.751 35.6863C230.751 37.0463 230.479 38.2543 229.935 39.3103C229.407 40.3503 228.679 41.1583 227.751 41.7343C226.839 42.3103 225.815 42.5983 224.679 42.5983C223.687 42.5983 222.815 42.4063 222.063 42.0223C221.327 41.6223 220.735 41.1103 220.287 40.4863V42.3823H216.927V24.6223H220.287V31.0303ZM227.319 35.6863C227.319 34.8863 227.151 34.1983 226.815 33.6223C226.495 33.0303 226.063 32.5823 225.519 32.2783C224.991 31.9743 224.415 31.8223 223.791 31.8223C223.183 31.8223 222.607 31.9823 222.063 32.3023C221.535 32.6063 221.103 33.0543 220.767 33.6463C220.447 34.2383 220.287 34.9343 220.287 35.7343C220.287 36.5343 220.447 37.2303 220.767 37.8223C221.103 38.4143 221.535 38.8703 222.063 39.1903C222.607 39.4943 223.183 39.6463 223.791 39.6463C224.415 39.6463 224.991 39.4863 225.519 39.1663C226.063 38.8463 226.495 38.3903 226.815 37.7983C227.151 37.2063 227.319 36.5023 227.319 35.6863ZM245.073 35.4463C245.073 35.9263 245.041 36.3583 244.977 36.7423H235.257C235.337 37.7023 235.673 38.4543 236.265 38.9983C236.857 39.5423 237.585 39.8143 238.449 39.8143C239.697 39.8143 240.585 39.2783 241.113 38.2063H244.737C244.353 39.4863 243.617 40.5423 242.529 41.3743C241.441 42.1903 240.105 42.5983 238.521 42.5983C237.241 42.5983 236.089 42.3183 235.065 41.7583C234.057 41.1823 233.265 40.3743 232.689 39.3343C232.129 38.2943 231.849 37.0943 231.849 35.7343C231.849 34.3583 232.129 33.1503 232.689 32.1103C233.249 31.0703 234.033 30.2703 235.041 29.7103C236.049 29.1503 237.209 28.8703 238.521 28.8703C239.785 28.8703 240.913 29.1423 241.905 29.6863C242.913 30.2303 243.689 31.0063 244.233 32.0143C244.793 33.0063 245.073 34.1503 245.073 35.4463ZM241.593 34.4863C241.577 33.6223 241.265 32.9343 240.657 32.4223C240.049 31.8943 239.305 31.6303 238.425 31.6303C237.593 31.6303 236.889 31.8863 236.313 32.3983C235.753 32.8943 235.409 33.5903 235.281 34.4863H241.593ZM256.196 31.8463V38.2783C256.196 38.7263 256.3 39.0543 256.508 39.2623C256.732 39.4543 257.1 39.5503 257.612 39.5503H259.172V42.3823H257.06C254.228 42.3823 252.812 41.0063 252.812 38.2543V31.8463H251.228V29.0863H252.812V25.7983H256.196V29.0863H259.172V31.8463H256.196ZM273.661 29.0863V42.3823H270.277V40.7023C269.845 41.2783 269.277 41.7343 268.573 42.0703C267.885 42.3903 267.133 42.5503 266.317 42.5503C265.277 42.5503 264.357 42.3343 263.557 41.9023C262.757 41.4543 262.125 40.8063 261.661 39.9583C261.213 39.0943 260.989 38.0703 260.989 36.8863V29.0863H264.349V36.4063C264.349 37.4623 264.613 38.2783 265.141 38.8543C265.669 39.4143 266.389 39.6943 267.301 39.6943C268.229 39.6943 268.957 39.4143 269.485 38.8543C270.013 38.2783 270.277 37.4623 270.277 36.4063V29.0863H273.661ZM170.024 59.8943C171.608 59.8943 172.888 60.3983 173.864 61.4063C174.84 62.3983 175.328 63.7903 175.328 65.5823V73.3823H171.968V66.0383C171.968 64.9823 171.704 64.1743 171.176 63.6143C170.648 63.0383 169.928 62.7503 169.016 62.7503C168.088 62.7503 167.352 63.0383 166.808 63.6143C166.28 64.1743 166.016 64.9823 166.016 66.0383V73.3823H162.656V60.0863H166.016V61.7423C166.464 61.1663 167.032 60.7183 167.72 60.3983C168.424 60.0623 169.192 59.8943 170.024 59.8943ZM190.595 60.0863V73.3823H187.211V71.7023C186.779 72.2783 186.211 72.7343 185.507 73.0703C184.819 73.3903 184.067 73.5503 183.251 73.5503C182.211 73.5503 181.291 73.3343 180.491 72.9023C179.691 72.4543 179.059 71.8063 178.595 70.9583C178.147 70.0943 177.923 69.0703 177.923 67.8863V60.0863H181.283V67.4063C181.283 68.4623 181.547 69.2783 182.075 69.8543C182.603 70.4143 183.323 70.6943 184.235 70.6943C185.163 70.6943 185.891 70.4143 186.419 69.8543C186.947 69.2783 187.211 68.4623 187.211 67.4063V60.0863H190.595ZM186.947 56.6303L181.427 59.1503V56.7503L186.947 53.8943V56.6303ZM209.942 59.8943C211.574 59.8943 212.886 60.3983 213.878 61.4063C214.886 62.3983 215.39 63.7903 215.39 65.5823V73.3823H212.03V66.0383C212.03 64.9983 211.766 64.2063 211.238 63.6623C210.71 63.1023 209.99 62.8223 209.078 62.8223C208.166 62.8223 207.438 63.1023 206.894 63.6623C206.366 64.2063 206.102 64.9983 206.102 66.0383V73.3823H202.742V66.0383C202.742 64.9983 202.478 64.2063 201.95 63.6623C201.422 63.1023 200.702 62.8223 199.79 62.8223C198.862 62.8223 198.126 63.1023 197.582 63.6623C197.054 64.2063 196.79 64.9983 196.79 66.0383V73.3823H193.43V60.0863H196.79V61.6943C197.222 61.1343 197.774 60.6943 198.446 60.3743C199.134 60.0543 199.886 59.8943 200.702 59.8943C201.742 59.8943 202.67 60.1183 203.486 60.5663C204.302 60.9983 204.934 61.6223 205.382 62.4383C205.814 61.6703 206.438 61.0543 207.254 60.5903C208.086 60.1263 208.982 59.8943 209.942 59.8943ZM230.458 66.4463C230.458 66.9263 230.426 67.3583 230.362 67.7423H220.642C220.722 68.7023 221.058 69.4543 221.65 69.9983C222.242 70.5423 222.97 70.8143 223.834 70.8143C225.082 70.8143 225.97 70.2783 226.498 69.2063H230.122C229.738 70.4863 229.002 71.5423 227.914 72.3743C226.826 73.1903 225.49 73.5983 223.906 73.5983C222.626 73.5983 221.474 73.3183 220.45 72.7583C219.442 72.1823 218.65 71.3743 218.074 70.3343C217.514 69.2943 217.234 68.0943 217.234 66.7343C217.234 65.3583 217.514 64.1503 218.074 63.1103C218.634 62.0703 219.418 61.2703 220.426 60.7103C221.434 60.1503 222.594 59.8703 223.906 59.8703C225.17 59.8703 226.298 60.1423 227.29 60.6863C228.298 61.2303 229.074 62.0063 229.618 63.0143C230.178 64.0063 230.458 65.1503 230.458 66.4463ZM226.978 65.4863C226.962 64.6223 226.65 63.9343 226.042 63.4223C225.434 62.8943 224.69 62.6303 223.81 62.6303C222.978 62.6303 222.274 62.8863 221.698 63.3983C221.138 63.8943 220.794 64.5903 220.666 65.4863H226.978ZM235.791 62.1503C236.223 61.4463 236.783 60.8943 237.471 60.4943C238.175 60.0943 238.975 59.8943 239.871 59.8943V63.4223H238.983C237.927 63.4223 237.127 63.6703 236.583 64.1663C236.055 64.6623 235.791 65.5263 235.791 66.7583V73.3823H232.431V60.0863H235.791V62.1503ZM247.558 73.5983C246.278 73.5983 245.126 73.3183 244.102 72.7583C243.078 72.1823 242.27 71.3743 241.678 70.3343C241.102 69.2943 240.814 68.0943 240.814 66.7343C240.814 65.3743 241.11 64.1743 241.702 63.1343C242.31 62.0943 243.134 61.2943 244.174 60.7343C245.214 60.1583 246.374 59.8703 247.654 59.8703C248.934 59.8703 250.094 60.1583 251.134 60.7343C252.174 61.2943 252.99 62.0943 253.582 63.1343C254.19 64.1743 254.494 65.3743 254.494 66.7343C254.494 68.0943 254.182 69.2943 253.558 70.3343C252.95 71.3743 252.118 72.1823 251.062 72.7583C250.022 73.3183 248.854 73.5983 247.558 73.5983ZM247.558 70.6703C248.166 70.6703 248.734 70.5263 249.262 70.2383C249.806 69.9343 250.238 69.4863 250.558 68.8943C250.878 68.3023 251.038 67.5823 251.038 66.7343C251.038 65.4703 250.702 64.5023 250.03 63.8303C249.374 63.1423 248.566 62.7983 247.606 62.7983C246.646 62.7983 245.838 63.1423 245.182 63.8303C244.542 64.5023 244.222 65.4703 244.222 66.7343C244.222 67.9983 244.534 68.9743 245.158 69.6623C245.798 70.3343 246.598 70.6703 247.558 70.6703ZM260.853 66.6863C260.853 65.3423 261.117 64.1503 261.645 63.1103C262.189 62.0703 262.925 61.2703 263.853 60.7103C264.781 60.1503 265.813 59.8703 266.949 59.8703C267.813 59.8703 268.637 60.0623 269.421 60.4463C270.205 60.8143 270.829 61.3103 271.293 61.9343V55.6223H274.701V73.3823H271.293V71.4143C270.877 72.0703 270.293 72.5983 269.541 72.9983C268.789 73.3983 267.917 73.5983 266.925 73.5983C265.805 73.5983 264.781 73.3103 263.853 72.7343C262.925 72.1583 262.189 71.3503 261.645 70.3103C261.117 69.2543 260.853 68.0463 260.853 66.6863ZM271.317 66.7343C271.317 65.9183 271.157 65.2223 270.837 64.6463C270.517 64.0543 270.085 63.6063 269.541 63.3023C268.997 62.9823 268.413 62.8223 267.789 62.8223C267.165 62.8223 266.589 62.9743 266.061 63.2783C265.533 63.5823 265.101 64.0303 264.765 64.6223C264.445 65.1983 264.285 65.8863 264.285 66.6863C264.285 67.4863 264.445 68.1903 264.765 68.7983C265.101 69.3903 265.533 69.8463 266.061 70.1663C266.605 70.4863 267.181 70.6463 267.789 70.6463C268.413 70.6463 268.997 70.4943 269.541 70.1903C270.085 69.8703 270.517 69.4223 270.837 68.8463C271.157 68.2543 271.317 67.5503 271.317 66.7343ZM289.863 66.4463C289.863 66.9263 289.831 67.3583 289.767 67.7423H280.047C280.127 68.7023 280.463 69.4543 281.055 69.9983C281.647 70.5423 282.375 70.8143 283.239 70.8143C284.487 70.8143 285.375 70.2783 285.903 69.2063H289.527C289.143 70.4863 288.407 71.5423 287.319 72.3743C286.231 73.1903 284.895 73.5983 283.311 73.5983C282.031 73.5983 280.879 73.3183 279.855 72.7583C278.847 72.1823 278.055 71.3743 277.479 70.3343C276.919 69.2943 276.639 68.0943 276.639 66.7343C276.639 65.3583 276.919 64.1503 277.479 63.1103C278.039 62.0703 278.823 61.2703 279.831 60.7103C280.839 60.1503 281.999 59.8703 283.311 59.8703C284.575 59.8703 285.703 60.1423 286.695 60.6863C287.703 61.2303 288.479 62.0063 289.023 63.0143C289.583 64.0063 289.863 65.1503 289.863 66.4463ZM286.383 65.4863C286.367 64.6223 286.055 63.9343 285.447 63.4223C284.839 62.8943 284.095 62.6303 283.215 62.6303C282.383 62.6303 281.679 62.8863 281.103 63.3983C280.543 63.8943 280.199 64.5903 280.071 65.4863H286.383ZM168.512 87.6303C170.272 87.6303 171.816 87.9743 173.144 88.6623C174.488 89.3503 175.52 90.3343 176.24 91.6143C176.976 92.8783 177.344 94.3503 177.344 96.0303C177.344 97.7103 176.976 99.1823 176.24 100.446C175.52 101.694 174.488 102.662 173.144 103.35C171.816 104.038 170.272 104.382 168.512 104.382H162.656V87.6303H168.512ZM168.392 101.526C170.152 101.526 171.512 101.046 172.472 100.086C173.432 99.1263 173.912 97.7743 173.912 96.0303C173.912 94.2863 173.432 92.9263 172.472 91.9503C171.512 90.9583 170.152 90.4623 168.392 90.4623H166.016V101.526H168.392ZM193.707 104.382H190.347L182.739 92.8863V104.382H179.379V87.6063H182.739L190.347 99.1263V87.6063H193.707V104.382ZM199.907 87.6303V104.382H196.547V87.6303H199.907Z" fill="#8F3B06"/>
</g>
<defs>
<filter id="filter0_d_2994_2123" x="-4" y="0" width="368" height="133" filterUnits="userSpaceOnUse" color-interpolation-filters="sRGB">
<feFlood flood-opacity="0" result="BackgroundImageFix"/>
<feColorMatrix in="SourceAlpha" type="matrix" values="0 0 0 0 0 0 0 0 0 0 0 0 0 0 0 0 0 0 127 0" result="hardAlpha"/>
<feOffset dy="4"/>
<feGaussianBlur stdDeviation="2"/>
<feComposite in2="hardAlpha" operator="out"/>
<feColorMatrix type="matrix" values="0 0 0 0 0 0 0 0 0 0 0 0 0 0 0 0 0 0 0.25 0"/>
<feBlend mode="normal" in2="BackgroundImageFix" result="effect1_dropShadow_2994_2123"/>
<feBlend mode="normal" in="SourceGraphic" in2="effect1_dropShadow_2994_2123" result="shape"/>
</filter>
<filter id="filter1_d_2994_2123" x="12.881" y="0" width="106.238" height="257.697" filterUnits="userSpaceOnUse" color-interpolation-filters="sRGB">
<feFlood flood-opacity="0" result="BackgroundImageFix"/>
<feColorMatrix in="SourceAlpha" type="matrix" values="0 0 0 0 0 0 0 0 0 0 0 0 0 0 0 0 0 0 127 0" result="hardAlpha"/>
<feOffset dy="3.11898"/>
<feGaussianBlur stdDeviation="1.55949"/>
<feComposite in2="hardAlpha" operator="out"/>
<feColorMatrix type="matrix" values="0 0 0 0 0 0 0 0 0 0 0 0 0 0 0 0 0 0 0.25 0"/>
<feBlend mode="normal" in2="BackgroundImageFix" result="effect1_dropShadow_2994_2123"/>
<feBlend mode="normal" in="SourceGraphic" in2="effect1_dropShadow_2994_2123" result="shape"/>
</filter>
<clipPath id="clip0_2994_2123">
<rect width="100" height="104" fill="white" transform="matrix(-1 0 0 1 116 0)"/>
</clipPath>
</defs>
</svg>
