<svg width="355" height="168" viewBox="0 0 355 168" fill="none" xmlns="http://www.w3.org/2000/svg">
<g filter="url(#filter0_dd_4163_2884)">
<rect x="5" y="1" width="345" height="158" rx="4" fill="white" shape-rendering="crispEdges"/>
<g clip-path="url(#clip0_4163_2884)">
<g filter="url(#filter1_d_4163_2884)">
<path fill-rule="evenodd" clip-rule="evenodd" d="M31.6107 116.198C35.1889 107.266 38.5824 96.5748 43.9307 93.2355C47.08 91.27 57.9828 89.9343 57.9828 89.9343H64.732C64.732 89.9343 76.3461 88.6366 79.7723 91.851C82.5414 94.4518 92 113.706 92 113.706C92 113.706 85.7395 120.297 79.7723 120.297C79.946 128.29 79.9786 135.517 79.9786 135.517C79.9786 135.517 80.2121 136.586 80.5922 138.552C70.7047 139.377 57.2227 139.41 45.6954 136.5C45.9397 133.633 46.0917 131.906 46.108 131.727L49.9957 105.865C49.9957 105.865 47.5415 114.987 45.7822 120.748C43.0348 120.748 33.7609 118.549 31.6107 116.192V116.198Z" fill="#F1D054"/>
<path fill-rule="evenodd" clip-rule="evenodd" d="M61.6863 94.4897H61.8112C63.9287 94.4897 65.6445 92.7739 65.6445 90.6563V78.6187H57.8475V90.6563C57.8475 92.7739 59.5632 94.4897 61.6808 94.4897H61.6863Z" fill="#EDBA8C"/>
<path opacity="0.25" fill-rule="evenodd" clip-rule="evenodd" d="M65.6484 89.5216C63.053 89.7985 60.4142 89.679 57.8514 89.1632V83.5C60.4305 83.9181 63.0367 84.1298 65.6484 84.1407V89.5216Z" fill="#561C2F" stroke="#EDBA8C" stroke-width="0.278205" stroke-miterlimit="22.93"/>
<path fill-rule="evenodd" clip-rule="evenodd" d="M76.0361 46.6218C76.0361 46.6218 75.5909 42.7938 73.9077 41.1052C72.219 39.422 61.3705 37.3207 55.8919 39.0419C54.1707 40.8554 53.0684 44.4336 53.0684 44.4336L76.0361 46.6218Z" fill="#F1D054"/>
<path fill-rule="evenodd" clip-rule="evenodd" d="M33.1474 53.5179C32.5121 60.5331 45.8312 67.4668 62.8968 69.0143C79.9624 70.5617 94.3078 66.1257 94.943 59.1159C95.5783 52.1007 82.2592 45.167 65.1936 43.6195C48.128 42.072 33.7827 46.5081 33.1474 53.5179Z" fill="#F1D054"/>
<mask id="mask0_4163_2884" style="mask-type:luminance" maskUnits="userSpaceOnUse" x="33" y="43" width="62" height="27">
<path d="M33.1484 53.5184C32.5131 60.5335 45.8322 67.4673 62.8978 69.0148C79.9634 70.5622 94.3087 66.1262 94.944 59.1164C95.5793 52.1012 82.2602 45.1674 65.1946 43.62C48.129 42.0725 33.7837 46.5086 33.1484 53.5184Z" fill="white"/>
</mask>
<g mask="url(#mask0_4163_2884)">
<path opacity="0.3" fill-rule="evenodd" clip-rule="evenodd" d="M33.1484 53.5184C32.5131 60.5335 45.8322 67.4673 62.8978 69.0148C79.9634 70.5622 94.3087 66.1262 94.944 59.1164C95.5793 52.1012 82.2602 45.1674 65.1946 43.62C48.129 42.0725 33.7837 46.5086 33.1484 53.5184Z" fill="#CB2E45"/>
</g>
<path fill-rule="evenodd" clip-rule="evenodd" d="M43.4361 65.2183C44.6307 67.6509 46.8514 69.0029 48.3989 68.2427C49.9463 67.4825 50.2287 64.898 49.0342 62.4655C47.8396 60.033 45.6189 58.681 44.0714 59.4411C42.5239 60.2013 42.2416 62.7858 43.4361 65.2183Z" fill="#EDBA8C"/>
<path fill-rule="evenodd" clip-rule="evenodd" d="M47.8339 70.4915L49.3325 56.3797C50.0275 49.8315 55.9024 45.0859 62.4507 45.7863L68.1193 46.389C74.6675 47.084 79.4131 52.959 78.7127 59.5072L77.2141 73.6191C76.5191 80.1673 70.6441 84.9129 64.0959 84.2124L58.4273 83.6097C51.879 82.9147 47.1334 77.0398 47.8339 70.4915Z" fill="#EDBA8C"/>
<path fill-rule="evenodd" clip-rule="evenodd" d="M82.226 69.1216C80.6079 71.2935 78.1808 72.222 76.7963 71.1958C75.4117 70.1696 75.6017 67.5742 77.2198 65.4023C78.8378 63.2304 81.2649 62.3019 82.6495 63.3281C84.0286 64.3543 83.844 66.9497 82.226 69.1216Z" fill="#EDBA8C"/>
<path fill-rule="evenodd" clip-rule="evenodd" d="M82.1116 65.1812C79.9832 65.4473 79.2067 67.6735 78.6583 69.4381C78.566 69.7368 78.0936 69.6119 78.1859 69.3078C78.8158 67.288 79.728 64.9912 82.1116 64.6926C82.4211 64.6545 82.4211 65.1378 82.1116 65.1812Z" fill="#561C2F"/>
<path fill-rule="evenodd" clip-rule="evenodd" d="M80.9396 67.8088C80.4672 67.4884 79.9623 67.2821 79.403 67.1789C79.0935 67.1192 79.2238 66.6522 79.5333 66.7065C80.1306 66.8151 80.6844 67.0486 81.1839 67.3852C81.4391 67.559 81.2002 67.9825 80.9396 67.8033V67.8088Z" fill="#561C2F"/>
<path fill-rule="evenodd" clip-rule="evenodd" d="M47.3175 67.1784C47.4261 64.9305 46.5791 62.8726 44.923 61.3523C44.6896 61.1405 45.0371 60.793 45.2651 61.0102C47.008 62.6174 47.9094 64.8165 47.8008 67.1838C47.7845 67.4987 47.3013 67.4987 47.3121 67.1838L47.3175 67.1784Z" fill="#561C2F"/>
<path fill-rule="evenodd" clip-rule="evenodd" d="M46.7396 63.9922C46.0337 64.0791 45.4256 64.4374 44.9803 64.9804C44.7794 65.2247 44.4374 64.8772 44.6383 64.6383C45.1704 63.9868 45.9088 63.6067 46.7396 63.5089C47.0491 63.4709 47.0491 63.9596 46.7396 63.9976V63.9922Z" fill="#561C2F"/>
<path fill-rule="evenodd" clip-rule="evenodd" d="M78.7461 57.8608C77.2747 63.3611 76.2539 70.6858 76.2539 70.6858C76.2539 70.6858 74.1472 70.17 72.3988 69.2252C70.6504 68.2804 65.389 64.9629 58.2001 66.5755C51.5107 68.0741 50.2618 68.047 50.2618 68.047C50.2618 68.047 49.203 58.5341 49.5668 54.3804C47.509 62.715 38.0015 85.7153 60.9367 87.8383C83.3234 89.4781 78.8221 69.9202 78.7516 57.8662L78.7461 57.8608Z" fill="#CB2E45"/>
<mask id="mask1_4163_2884" style="mask-type:luminance" maskUnits="userSpaceOnUse" x="45" y="54" width="35" height="34">
<path d="M78.7442 57.8628C77.2727 63.3631 76.2519 70.6878 76.2519 70.6878C76.2519 70.6878 74.1452 70.1719 72.3968 69.2272C70.6485 68.2824 65.3871 64.9648 58.1981 66.5775C51.5087 68.0761 50.2599 68.0489 50.2599 68.0489C50.2599 68.0489 49.2011 58.5361 49.5649 54.3823C47.507 62.7169 37.9996 85.7172 60.9347 87.8402C83.3214 89.48 78.8202 69.9222 78.7496 57.8682L78.7442 57.8628Z" fill="white"/>
</mask>
<g mask="url(#mask1_4163_2884)">
<path opacity="0.3" fill-rule="evenodd" clip-rule="evenodd" d="M78.7442 57.8628C77.2727 63.3631 76.2519 70.6878 76.2519 70.6878C76.2519 70.6878 74.1452 70.1719 72.3968 69.2272C70.6485 68.2824 65.3871 64.9648 58.1981 66.5775C51.5087 68.0761 50.2599 68.0489 50.2599 68.0489C50.2599 68.0489 49.2011 58.5361 49.5649 54.3823C47.507 62.7169 37.9996 85.7172 60.9347 87.8402C83.3214 89.48 78.8202 69.9222 78.7496 57.8682L78.7442 57.8628Z" fill="#561C2F"/>
</g>
<path fill-rule="evenodd" clip-rule="evenodd" d="M45.6948 136.494C45.7599 136.505 45.8305 136.516 45.9011 136.526L45.9174 135.859C55.0556 113.38 48.958 91.5358 48.958 91.5358L53.2692 90.5259C53.2692 90.5259 56.3533 98.8605 55.7777 109.052C55.7777 109.052 67.2616 108.77 74.2225 109.324C74.0976 99.7347 72.5664 89.668 72.5664 89.668L77.0839 90.3413C77.0839 90.3413 81.1399 116.393 79.7717 120.292L79.978 135.511L80.3906 137.564H80.4015C80.4992 138.063 80.6187 138.66 80.7436 139.334V139.344C83.0784 151.686 89.6049 191.969 84.0666 231.394C74.9229 232.062 73.6632 231.378 73.6632 231.378C73.6632 231.378 71.6379 181.343 65.8553 154.863L48.3064 230.271L37.7837 229.244C37.7837 229.244 44.017 156.084 45.6948 136.488V136.494Z" fill="#561C2F"/>
<mask id="mask2_4163_2884" style="mask-type:luminance" maskUnits="userSpaceOnUse" x="37" y="89" width="50" height="143">
<path d="M45.6957 136.493C45.7609 136.504 45.8315 136.515 45.9021 136.526L45.9183 135.858C55.0566 113.379 48.959 91.5353 48.959 91.5353L53.2702 90.5254C53.2702 90.5254 56.3543 98.86 55.7787 109.052C55.7787 109.052 67.2626 108.769 74.2235 109.323C74.0986 99.7342 72.5674 89.6675 72.5674 89.6675L77.0849 90.3408C77.0849 90.3408 81.1409 116.393 79.7726 120.291L79.979 135.511L80.3916 137.563H80.4025C80.5002 138.063 80.6197 138.66 80.7446 139.333V139.344C83.0793 151.686 89.6059 191.969 84.0675 231.394C74.9239 232.062 73.6642 231.378 73.6642 231.378C73.6642 231.378 71.6389 181.343 65.8563 154.862L48.3074 230.27L37.7846 229.244C37.7846 229.244 44.0179 156.084 45.6957 136.488V136.493Z" fill="white"/>
</mask>
<g mask="url(#mask2_4163_2884)">
<path opacity="0.3" fill-rule="evenodd" clip-rule="evenodd" d="M45.6957 136.493C45.7609 136.504 45.8315 136.515 45.9021 136.526L45.9183 135.858C55.0566 113.379 48.959 91.5353 48.959 91.5353L53.2702 90.5254C53.2702 90.5254 56.3543 98.86 55.7787 109.052C55.7787 109.052 67.2626 108.769 74.2235 109.323C74.0986 99.7342 72.5674 89.6675 72.5674 89.6675L77.0849 90.3408C77.0849 90.3408 81.1409 116.393 79.7726 120.291L79.979 135.511L80.3916 137.563H80.4025C80.5002 138.063 80.6197 138.66 80.7446 139.333V139.344C83.0793 151.686 89.6059 191.969 84.0675 231.394C74.9239 232.062 73.6642 231.378 73.6642 231.378C73.6642 231.378 71.6389 181.343 65.8563 154.862L48.3074 230.27L37.7846 229.244C37.7846 229.244 44.0179 156.084 45.6957 136.488V136.493Z" fill="#561C2F"/>
</g>
<path fill-rule="evenodd" clip-rule="evenodd" d="M63.5479 66.0003C63.3959 64.3334 63.3687 62.6502 63.4665 60.9778C63.5153 60.1579 63.5913 59.338 63.6999 58.5236C63.776 57.9263 63.776 57.1227 64.0203 56.5635C64.3515 55.8033 65.4972 55.7219 65.7252 56.5743C65.9098 57.253 65.6438 58.0132 65.5732 58.6919C65.4592 59.8756 65.2963 61.0538 65.242 62.2375C65.2148 62.8131 65.2148 63.3832 65.2528 63.9587C65.2746 64.3117 65.1551 64.9958 65.4212 65.2673C65.5678 65.4139 65.8175 65.4573 65.9913 65.3433C66.127 65.2564 66.1922 65.0935 66.3062 64.9795C66.5017 64.7732 66.8329 64.7243 67.0989 64.8275C67.6799 65.061 67.6093 65.5442 67.4953 66.0492C67.327 66.7768 66.9686 67.4609 66.4419 67.9984C66.165 68.2808 65.8284 68.5251 65.4375 68.574C64.8456 68.65 64.2701 68.2428 63.9769 67.727C63.6782 67.2057 63.6076 66.5976 63.5533 66.0003H63.5479Z" fill="#F1D054"/>
<path fill-rule="evenodd" clip-rule="evenodd" d="M68.9123 63.5837C68.7766 64.6424 69.2381 65.5764 69.9385 65.6632C70.639 65.7501 71.3177 64.9628 71.448 63.904C71.5837 62.8452 71.1222 61.9113 70.4218 61.8244C69.7213 61.7375 69.0426 62.5249 68.9123 63.5837Z" fill="#561C2F"/>
<path fill-rule="evenodd" clip-rule="evenodd" d="M60.9156 62.7968C60.9482 63.8665 60.3998 64.7515 59.6939 64.7678C58.9881 64.7895 58.3908 63.937 58.3582 62.8674C58.3256 61.7977 58.874 60.9127 59.5799 60.8964C60.2858 60.8747 60.883 61.7271 60.9156 62.7968Z" fill="#561C2F"/>
<path fill-rule="evenodd" clip-rule="evenodd" d="M73.6275 60.022C72.9976 58.4474 71.461 57.6492 69.8104 57.8501C69.1643 57.9261 69.1697 56.9162 69.8104 56.8402C71.9497 56.585 73.8175 57.785 74.6048 59.756C74.8492 60.3641 73.8664 60.6247 73.6275 60.0274V60.022Z" fill="#561C2F"/>
<path fill-rule="evenodd" clip-rule="evenodd" d="M60.9744 56.7914C59.503 56.2213 57.9446 56.6611 56.9673 57.8991C56.5655 58.4095 55.8542 57.6928 56.2506 57.1824C57.4234 55.6892 59.4758 55.1354 61.2405 55.8141C61.8432 56.0476 61.5826 57.0249 60.969 56.7914H60.9744Z" fill="#561C2F"/>
<path fill-rule="evenodd" clip-rule="evenodd" d="M33.5419 117.898L44.4773 122.138C44.2113 123.344 43.9452 124.549 43.6792 125.754C51.1179 126.031 58.5512 126.368 65.9844 126.737C66.5926 128.779 67.0975 130.853 67.3799 132.965C56.6508 137.206 44.3199 137.233 33.5745 133.03C33.1835 132.878 32.7763 132.704 32.5048 132.384C32.1519 131.966 32.0867 131.38 32.0541 130.837C31.7827 126.476 32.2931 122.073 33.5527 117.892L33.5419 117.898Z" fill="#EDBA8C"/>
<mask id="mask3_4163_2884" style="mask-type:luminance" maskUnits="userSpaceOnUse" x="31" y="117" width="37" height="20">
<path d="M33.5458 117.896L44.4812 122.136C44.2152 123.342 43.9491 124.547 43.6831 125.752C51.1218 126.029 58.5551 126.366 65.9883 126.735C66.5965 128.777 67.1014 130.851 67.3838 132.963C56.6547 137.204 44.3238 137.231 33.5784 133.028C33.1874 132.876 32.7802 132.702 32.5087 132.382C32.1558 131.964 32.0906 131.378 32.058 130.835C31.7866 126.475 32.297 122.071 33.5567 117.89L33.5458 117.896Z" fill="white"/>
</mask>
<g mask="url(#mask3_4163_2884)">
<path opacity="0.2" fill-rule="evenodd" clip-rule="evenodd" d="M33.5458 117.896L44.4812 122.136C44.2152 123.342 43.9491 124.547 43.6831 125.752C51.1218 126.029 58.5551 126.366 65.9883 126.735C66.5965 128.777 67.1014 130.851 67.3838 132.963C56.6547 137.204 44.3238 137.231 33.5784 133.028C33.1874 132.876 32.7802 132.702 32.5087 132.382C32.1558 131.964 32.0906 131.378 32.058 130.835C31.7866 126.475 32.297 122.071 33.5567 117.89L33.5458 117.896Z" fill="#CB2E45"/>
</g>
<path fill-rule="evenodd" clip-rule="evenodd" d="M66.1526 70.4907C64.0839 72.0055 61.331 70.6698 61.1084 68.1559C61.0812 67.8301 61.5862 67.8355 61.6134 68.1559C61.8034 70.3278 64.1707 71.316 65.8974 70.0509C66.1635 69.8554 66.4132 70.2952 66.1526 70.4907Z" fill="#EDBA8C"/>
<path opacity="0.16" fill-rule="evenodd" clip-rule="evenodd" d="M78.8076 60.7611C78.4493 60.6688 78.0963 60.5765 77.7434 60.4842C72.9055 59.2354 67.9428 58.3286 62.9691 57.8562C59.5321 57.5304 56.106 57.4436 52.6852 57.5522C51.3387 57.5359 50.003 57.5359 48.689 57.5522C48.689 57.5522 49.9975 52.3722 51.1323 50.765C60.276 50.2763 69.892 51.384 78.2864 54.8101C78.7316 56.287 78.8945 57.8725 78.7207 59.5014L78.8076 60.7557V60.7611Z" fill="#561C2F"/>
<path fill-rule="evenodd" clip-rule="evenodd" d="M47.7899 48.9669L54.2893 45.6113C56.787 45.5679 59.2901 45.557 61.7877 45.595C65.0401 45.6439 68.2437 45.7579 71.4689 46.138L71.963 46.328L76.7412 48.9723L83.0505 52.936C83.0505 52.936 85.0269 54.3531 85.0269 55.3848L85.7002 59.2508C85.7002 59.2508 67.4835 49.7433 44.7113 54.2174C31.6148 54.7604 47.8008 48.9669 47.8008 48.9669H47.7899Z" fill="#F1D054"/>
<mask id="mask4_4163_2884" style="mask-type:luminance" maskUnits="userSpaceOnUse" x="39" y="45" width="47" height="15">
<path d="M47.7938 48.9649L54.2932 45.6094C56.7909 45.5659 59.294 45.5551 61.7916 45.5931C65.044 45.6419 68.2476 45.756 71.4728 46.136L71.9669 46.3261L76.7451 48.9703L83.0544 52.934C83.0544 52.934 85.0308 54.3512 85.0308 55.3828L85.7041 59.2488C85.7041 59.2488 67.4874 49.7414 44.7152 54.2155C31.6187 54.7584 47.8047 48.9649 47.8047 48.9649H47.7938Z" fill="white"/>
</mask>
<g mask="url(#mask4_4163_2884)">
<path opacity="0.3" fill-rule="evenodd" clip-rule="evenodd" d="M47.7938 48.9649L54.2932 45.6094C56.7909 45.5659 59.294 45.5551 61.7916 45.5931C65.044 45.6419 68.2476 45.756 71.4728 46.136L71.9669 46.3261L76.7451 48.9703L83.0544 52.934C83.0544 52.934 85.0308 54.3512 85.0308 55.3828L85.7041 59.2488C85.7041 59.2488 67.4874 49.7414 44.7152 54.2155C31.6187 54.7584 47.8047 48.9649 47.8047 48.9649H47.7938Z" fill="#CB2E45"/>
</g>
<path fill-rule="evenodd" clip-rule="evenodd" d="M91.4237 115.997C93.2698 120.591 94.3286 125.505 94.5404 130.451C94.5621 130.923 94.5675 131.434 94.3123 131.836C94.0951 132.183 93.7205 132.395 93.3567 132.579C87.7261 135.446 81.0367 134.855 74.7545 134.187C73.9617 134.1 65.0244 132.916 65.0516 132.558C65.1982 130.554 65.5131 128.567 65.9855 126.612C69.3085 125.733 72.7075 125.662 76.1282 125.363C78.0829 125.195 80.0539 124.929 82.0031 124.777C81.9434 123.43 81.8783 122.084 81.8185 120.737L91.4237 115.992V115.997Z" fill="#EDBA8C"/>
<path opacity="0.15" fill-rule="evenodd" clip-rule="evenodd" d="M33.544 117.897L44.4795 122.138C44.2623 123.132 44.0397 124.125 43.8171 125.119C43.1275 125.179 42.4379 125.206 41.7483 125.211C38.5557 125.238 35.3576 124.978 32.2029 124.457C32.4527 122.236 32.8925 120.037 33.5386 117.897H33.544Z" fill="#561C2F"/>
<path opacity="0.15" fill-rule="evenodd" clip-rule="evenodd" d="M81.931 123.294C81.893 122.441 81.855 121.589 81.8116 120.742L91.4167 115.996C92.0683 117.614 92.6167 119.27 93.0674 120.959C89.5598 122.718 85.7155 123.728 81.931 123.299V123.294Z" fill="#561C2F"/>
<path fill-rule="evenodd" clip-rule="evenodd" d="M46.0212 116.664C43.1434 115.828 36.3726 113.813 33.4405 112.603C32.6586 112.277 31.7681 112.673 31.4695 113.461C31.008 114.677 30.7202 115.719 30.5519 116.441C30.3999 117.077 30.6768 117.734 31.2415 118.07C33.3971 119.352 39.1146 122.354 44.9895 122.061C45.6411 122.029 46.2112 121.594 46.3904 120.964C46.6944 119.889 46.9116 119.059 47.0528 118.44C47.2374 117.663 46.7813 116.887 46.0157 116.664H46.0212Z" fill="#F1D054"/>
<path fill-rule="evenodd" clip-rule="evenodd" d="M91.8264 111.382L93.0644 113.869C93.3902 114.52 93.2816 115.302 92.782 115.834C91.2129 117.501 87.3415 120.862 81.2385 121.335C80.3969 121.4 79.6313 120.846 79.4141 120.031C79.0557 118.679 78.7951 117.718 78.6105 117.04C78.3661 116.155 78.844 115.237 79.7127 114.933C82.1398 114.08 86.8148 112.337 89.3233 110.698C90.1921 110.128 91.3649 110.453 91.8264 111.387V111.382Z" fill="#F1D054"/>
<path opacity="0.3" fill-rule="evenodd" clip-rule="evenodd" d="M46.0212 116.664C43.1434 115.828 36.3726 113.813 33.4405 112.603C32.6586 112.277 31.7681 112.673 31.4695 113.461C31.008 114.677 30.7202 115.719 30.5519 116.441C30.3999 117.077 30.6768 117.734 31.2415 118.07C33.3971 119.352 39.1146 122.354 44.9895 122.061C45.6411 122.029 46.2112 121.594 46.3904 120.964C46.6944 119.889 46.9116 119.059 47.0528 118.44C47.2374 117.663 46.7813 116.887 46.0157 116.664H46.0212Z" fill="#CB2E45"/>
<path opacity="0.3" fill-rule="evenodd" clip-rule="evenodd" d="M91.8264 111.382L93.0644 113.869C93.3902 114.52 93.2816 115.302 92.782 115.834C91.2129 117.501 87.3415 120.862 81.2385 121.335C80.3969 121.4 79.6313 120.846 79.4141 120.031C79.0557 118.679 78.7951 117.718 78.6105 117.04C78.3661 116.155 78.844 115.237 79.7127 114.933C82.1398 114.08 86.8148 112.337 89.3233 110.698C90.1921 110.128 91.3649 110.453 91.8264 111.387V111.382Z" fill="#CB2E45"/>
<path opacity="0.3" fill-rule="evenodd" clip-rule="evenodd" d="M63.5479 66.0003C63.3959 64.3334 63.3687 62.6502 63.4665 60.9778C63.5153 60.1579 63.5913 59.338 63.6999 58.5236C63.776 57.9263 63.776 57.1227 64.0203 56.5635C64.3515 55.8033 65.4972 55.7219 65.7252 56.5743C65.9098 57.253 65.6438 58.0132 65.5732 58.6919C65.4592 59.8756 65.2963 61.0538 65.242 62.2375C65.2148 62.8131 65.2148 63.3832 65.2528 63.9587C65.2746 64.3117 65.1551 64.9958 65.4212 65.2673C65.5678 65.4139 65.8175 65.4573 65.9913 65.3433C66.127 65.2564 66.1922 65.0935 66.3062 64.9795C66.5017 64.7732 66.8329 64.7243 67.0989 64.8275C67.6799 65.061 67.6093 65.5442 67.4953 66.0492C67.327 66.7768 66.9686 67.4609 66.4419 67.9984C66.165 68.2808 65.8284 68.5251 65.4375 68.574C64.8456 68.65 64.2701 68.2428 63.9769 67.727C63.6782 67.2057 63.6076 66.5976 63.5533 66.0003H63.5479Z" fill="#CB2E45"/>
</g>
</g>
<path d="M128.664 30.936V43.5H126.144V38.154H120.762V43.5H118.242V30.936H120.762V36.102H126.144V30.936H128.664ZM130.136 38.478C130.136 37.47 130.334 36.576 130.73 35.796C131.138 35.016 131.684 34.416 132.368 33.996C133.064 33.576 133.838 33.366 134.69 33.366C135.434 33.366 136.082 33.516 136.634 33.816C137.198 34.116 137.648 34.494 137.984 34.95V33.528H140.522V43.5H137.984V42.042C137.66 42.51 137.21 42.9 136.634 43.212C136.07 43.512 135.416 43.662 134.672 43.662C133.832 43.662 133.064 43.446 132.368 43.014C131.684 42.582 131.138 41.976 130.73 41.196C130.334 40.404 130.136 39.498 130.136 38.478ZM137.984 38.514C137.984 37.902 137.864 37.38 137.624 36.948C137.384 36.504 137.06 36.168 136.652 35.94C136.244 35.7 135.806 35.58 135.338 35.58C134.87 35.58 134.438 35.694 134.042 35.922C133.646 36.15 133.322 36.486 133.07 36.93C132.83 37.362 132.71 37.878 132.71 38.478C132.71 39.078 132.83 39.606 133.07 40.062C133.322 40.506 133.646 40.848 134.042 41.088C134.45 41.328 134.882 41.448 135.338 41.448C135.806 41.448 136.244 41.334 136.652 41.106C137.06 40.866 137.384 40.53 137.624 40.098C137.864 39.654 137.984 39.126 137.984 38.514ZM144.928 41.43H149.374V43.5H142.066V41.466L146.422 35.598H142.084V33.528H149.32V35.562L144.928 41.43ZM154.246 38.514C154.246 37.482 154.456 36.582 154.876 35.814C155.296 35.034 155.878 34.434 156.622 34.014C157.366 33.582 158.218 33.366 159.178 33.366C160.414 33.366 161.434 33.678 162.238 34.302C163.054 34.914 163.6 35.778 163.876 36.894H161.158C161.014 36.462 160.768 36.126 160.42 35.886C160.084 35.634 159.664 35.508 159.16 35.508C158.44 35.508 157.87 35.772 157.45 36.3C157.03 36.816 156.82 37.554 156.82 38.514C156.82 39.462 157.03 40.2 157.45 40.728C157.87 41.244 158.44 41.502 159.16 41.502C160.18 41.502 160.846 41.046 161.158 40.134H163.876C163.6 41.214 163.054 42.072 162.238 42.708C161.422 43.344 160.402 43.662 159.178 43.662C158.218 43.662 157.366 43.452 156.622 43.032C155.878 42.6 155.296 42 154.876 41.232C154.456 40.452 154.246 39.546 154.246 38.514ZM167.882 30.18V43.5H165.362V30.18H167.882ZM171.29 32.34C170.846 32.34 170.474 32.202 170.174 31.926C169.886 31.638 169.742 31.284 169.742 30.864C169.742 30.444 169.886 30.096 170.174 29.82C170.474 29.532 170.846 29.388 171.29 29.388C171.734 29.388 172.1 29.532 172.388 29.82C172.688 30.096 172.838 30.444 172.838 30.864C172.838 31.284 172.688 31.638 172.388 31.926C172.1 32.202 171.734 32.34 171.29 32.34ZM172.532 33.528V43.5H170.012V33.528H172.532ZM174.013 38.514C174.013 37.482 174.223 36.582 174.643 35.814C175.063 35.034 175.645 34.434 176.389 34.014C177.133 33.582 177.985 33.366 178.945 33.366C180.181 33.366 181.201 33.678 182.005 34.302C182.821 34.914 183.367 35.778 183.643 36.894H180.925C180.781 36.462 180.535 36.126 180.187 35.886C179.851 35.634 179.431 35.508 178.927 35.508C178.207 35.508 177.637 35.772 177.217 36.3C176.797 36.816 176.587 37.554 176.587 38.514C176.587 39.462 176.797 40.2 177.217 40.728C177.637 41.244 178.207 41.502 178.927 41.502C179.947 41.502 180.613 41.046 180.925 40.134H183.643C183.367 41.214 182.821 42.072 182.005 42.708C181.189 43.344 180.169 43.662 178.945 43.662C177.985 43.662 177.133 43.452 176.389 43.032C175.645 42.6 175.063 42 174.643 41.232C174.223 40.452 174.013 39.546 174.013 38.514ZM198.329 38.298C198.329 38.658 198.305 38.982 198.257 39.27H190.967C191.027 39.99 191.279 40.554 191.723 40.962C192.167 41.37 192.713 41.574 193.361 41.574C194.297 41.574 194.963 41.172 195.359 40.368H198.077C197.789 41.328 197.237 42.12 196.421 42.744C195.605 43.356 194.603 43.662 193.415 43.662C192.455 43.662 191.591 43.452 190.823 43.032C190.067 42.6 189.473 41.994 189.041 41.214C188.621 40.434 188.411 39.534 188.411 38.514C188.411 37.482 188.621 36.576 189.041 35.796C189.461 35.016 190.049 34.416 190.805 33.996C191.561 33.576 192.431 33.366 193.415 33.366C194.363 33.366 195.209 33.57 195.953 33.978C196.709 34.386 197.291 34.968 197.699 35.724C198.119 36.468 198.329 37.326 198.329 38.298ZM195.719 37.578C195.707 36.93 195.473 36.414 195.017 36.03C194.561 35.634 194.003 35.436 193.343 35.436C192.719 35.436 192.191 35.628 191.759 36.012C191.339 36.384 191.081 36.906 190.985 37.578H195.719ZM205.334 33.384C206.522 33.384 207.482 33.762 208.214 34.518C208.946 35.262 209.312 36.306 209.312 37.65V43.5H206.792V37.992C206.792 37.2 206.594 36.594 206.198 36.174C205.802 35.742 205.262 35.526 204.578 35.526C203.882 35.526 203.33 35.742 202.922 36.174C202.526 36.594 202.328 37.2 202.328 37.992V43.5H199.808V33.528H202.328V34.77C202.664 34.338 203.09 34.002 203.606 33.762C204.134 33.51 204.71 33.384 205.334 33.384ZM224.691 33.528V43.5H222.153V42.24C221.829 42.672 221.403 43.014 220.875 43.266C220.359 43.506 219.795 43.626 219.183 43.626C218.403 43.626 217.713 43.464 217.113 43.14C216.513 42.804 216.039 42.318 215.691 41.682C215.355 41.034 215.187 40.266 215.187 39.378V33.528H217.707V39.018C217.707 39.81 217.905 40.422 218.301 40.854C218.697 41.274 219.237 41.484 219.921 41.484C220.617 41.484 221.163 41.274 221.559 40.854C221.955 40.422 222.153 39.81 222.153 39.018V33.528H224.691ZM232.344 33.384C233.532 33.384 234.492 33.762 235.224 34.518C235.956 35.262 236.322 36.306 236.322 37.65V43.5H233.802V37.992C233.802 37.2 233.604 36.594 233.208 36.174C232.812 35.742 232.272 35.526 231.588 35.526C230.892 35.526 230.34 35.742 229.932 36.174C229.536 36.594 229.338 37.2 229.338 37.992V43.5H226.818V33.528H229.338V34.77C229.674 34.338 230.1 34.002 230.616 33.762C231.144 33.51 231.72 33.384 232.344 33.384ZM244.807 34.968C245.131 34.512 245.575 34.134 246.139 33.834C246.715 33.522 247.369 33.366 248.101 33.366C248.953 33.366 249.721 33.576 250.405 33.996C251.101 34.416 251.647 35.016 252.043 35.796C252.451 36.564 252.655 37.458 252.655 38.478C252.655 39.498 252.451 40.404 252.043 41.196C251.647 41.976 251.101 42.582 250.405 43.014C249.721 43.446 248.953 43.662 248.101 43.662C247.369 43.662 246.721 43.512 246.157 43.212C245.605 42.912 245.155 42.534 244.807 42.078V48.252H242.287V33.528H244.807V34.968ZM250.081 38.478C250.081 37.878 249.955 37.362 249.703 36.93C249.463 36.486 249.139 36.15 248.731 35.922C248.335 35.694 247.903 35.58 247.435 35.58C246.979 35.58 246.547 35.7 246.139 35.94C245.743 36.168 245.419 36.504 245.167 36.948C244.927 37.392 244.807 37.914 244.807 38.514C244.807 39.114 244.927 39.636 245.167 40.08C245.419 40.524 245.743 40.866 246.139 41.106C246.547 41.334 246.979 41.448 247.435 41.448C247.903 41.448 248.335 41.328 248.731 41.088C249.139 40.848 249.463 40.506 249.703 40.062C249.955 39.618 250.081 39.09 250.081 38.478ZM263.541 33.528V43.5H261.003V42.24C260.679 42.672 260.253 43.014 259.725 43.266C259.209 43.506 258.645 43.626 258.033 43.626C257.253 43.626 256.563 43.464 255.963 43.14C255.363 42.804 254.889 42.318 254.541 41.682C254.205 41.034 254.037 40.266 254.037 39.378V33.528H256.557V39.018C256.557 39.81 256.755 40.422 257.151 40.854C257.547 41.274 258.087 41.484 258.771 41.484C259.467 41.484 260.013 41.274 260.409 40.854C260.805 40.422 261.003 39.81 261.003 39.018V33.528H263.541ZM271.193 33.384C272.381 33.384 273.341 33.762 274.073 34.518C274.805 35.262 275.171 36.306 275.171 37.65V43.5H272.651V37.992C272.651 37.2 272.453 36.594 272.057 36.174C271.661 35.742 271.121 35.526 270.437 35.526C269.741 35.526 269.189 35.742 268.781 36.174C268.385 36.594 268.187 37.2 268.187 37.992V43.5H265.667V33.528H268.187V34.77C268.523 34.338 268.949 34.002 269.465 33.762C269.993 33.51 270.569 33.384 271.193 33.384ZM280.141 35.598V40.422C280.141 40.758 280.219 41.004 280.375 41.16C280.543 41.304 280.819 41.376 281.203 41.376H282.373V43.5H280.789C278.665 43.5 277.603 42.468 277.603 40.404V35.598H276.415V33.528H277.603V31.062H280.141V33.528H282.373V35.598H280.141ZM288.254 43.662C287.294 43.662 286.43 43.452 285.662 43.032C284.894 42.6 284.288 41.994 283.844 41.214C283.412 40.434 283.196 39.534 283.196 38.514C283.196 37.494 283.418 36.594 283.862 35.814C284.318 35.034 284.936 34.434 285.716 34.014C286.496 33.582 287.366 33.366 288.326 33.366C289.286 33.366 290.156 33.582 290.936 34.014C291.716 34.434 292.328 35.034 292.772 35.814C293.228 36.594 293.456 37.494 293.456 38.514C293.456 39.534 293.222 40.434 292.754 41.214C292.298 41.994 291.674 42.6 290.882 43.032C290.102 43.452 289.226 43.662 288.254 43.662ZM288.254 41.466C288.71 41.466 289.136 41.358 289.532 41.142C289.94 40.914 290.264 40.578 290.504 40.134C290.744 39.69 290.864 39.15 290.864 38.514C290.864 37.566 290.612 36.84 290.108 36.336C289.616 35.82 289.01 35.562 288.29 35.562C287.57 35.562 286.964 35.82 286.472 36.336C285.992 36.84 285.752 37.566 285.752 38.514C285.752 39.462 285.986 40.194 286.454 40.71C286.934 41.214 287.534 41.466 288.254 41.466Z" fill="#8F3B06"/>
<rect x="301.5" y="26.5" width="21" height="21" rx="9.5" fill="white" stroke="#A6A6A6" stroke-width="3"/>
<path d="M120.762 62.468C121.086 62.012 121.53 61.634 122.094 61.334C122.67 61.022 123.324 60.866 124.056 60.866C124.908 60.866 125.676 61.076 126.36 61.496C127.056 61.916 127.602 62.516 127.998 63.296C128.406 64.064 128.61 64.958 128.61 65.978C128.61 66.998 128.406 67.904 127.998 68.696C127.602 69.476 127.056 70.082 126.36 70.514C125.676 70.946 124.908 71.162 124.056 71.162C123.324 71.162 122.676 71.012 122.112 70.712C121.56 70.412 121.11 70.034 120.762 69.578V75.752H118.242V61.028H120.762V62.468ZM126.036 65.978C126.036 65.378 125.91 64.862 125.658 64.43C125.418 63.986 125.094 63.65 124.686 63.422C124.29 63.194 123.858 63.08 123.39 63.08C122.934 63.08 122.502 63.2 122.094 63.44C121.698 63.668 121.374 64.004 121.122 64.448C120.882 64.892 120.762 65.414 120.762 66.014C120.762 66.614 120.882 67.136 121.122 67.58C121.374 68.024 121.698 68.366 122.094 68.606C122.502 68.834 122.934 68.948 123.39 68.948C123.858 68.948 124.29 68.828 124.686 68.588C125.094 68.348 125.418 68.006 125.658 67.562C125.91 67.118 126.036 66.59 126.036 65.978ZM129.433 65.978C129.433 64.97 129.631 64.076 130.027 63.296C130.435 62.516 130.981 61.916 131.665 61.496C132.361 61.076 133.135 60.866 133.987 60.866C134.731 60.866 135.379 61.016 135.931 61.316C136.495 61.616 136.945 61.994 137.281 62.45V61.028H139.819V71H137.281V69.542C136.957 70.01 136.507 70.4 135.931 70.712C135.367 71.012 134.713 71.162 133.969 71.162C133.129 71.162 132.361 70.946 131.665 70.514C130.981 70.082 130.435 69.476 130.027 68.696C129.631 67.904 129.433 66.998 129.433 65.978ZM137.281 66.014C137.281 65.402 137.161 64.88 136.921 64.448C136.681 64.004 136.357 63.668 135.949 63.44C135.541 63.2 135.103 63.08 134.635 63.08C134.167 63.08 133.735 63.194 133.339 63.422C132.943 63.65 132.619 63.986 132.367 64.43C132.127 64.862 132.007 65.378 132.007 65.978C132.007 66.578 132.127 67.106 132.367 67.562C132.619 68.006 132.943 68.348 133.339 68.588C133.747 68.828 134.179 68.948 134.635 68.948C135.103 68.948 135.541 68.834 135.949 68.606C136.357 68.366 136.681 68.03 136.921 67.598C137.161 67.154 137.281 66.626 137.281 66.014ZM144.44 62.576C144.764 62.048 145.184 61.634 145.7 61.334C146.228 61.034 146.828 60.884 147.5 60.884V63.53H146.834C146.042 63.53 145.442 63.716 145.034 64.088C144.638 64.46 144.44 65.108 144.44 66.032V71H141.92V61.028H144.44V62.576ZM148.19 65.978C148.19 64.97 148.388 64.076 148.784 63.296C149.192 62.516 149.738 61.916 150.422 61.496C151.118 61.076 151.892 60.866 152.744 60.866C153.488 60.866 154.136 61.016 154.688 61.316C155.252 61.616 155.702 61.994 156.038 62.45V61.028H158.576V71H156.038V69.542C155.714 70.01 155.264 70.4 154.688 70.712C154.124 71.012 153.47 71.162 152.726 71.162C151.886 71.162 151.118 70.946 150.422 70.514C149.738 70.082 149.192 69.476 148.784 68.696C148.388 67.904 148.19 66.998 148.19 65.978ZM156.038 66.014C156.038 65.402 155.918 64.88 155.678 64.448C155.438 64.004 155.114 63.668 154.706 63.44C154.298 63.2 153.86 63.08 153.392 63.08C152.924 63.08 152.492 63.194 152.096 63.422C151.7 63.65 151.376 63.986 151.124 64.43C150.884 64.862 150.764 65.378 150.764 65.978C150.764 66.578 150.884 67.106 151.124 67.562C151.376 68.006 151.7 68.348 152.096 68.588C152.504 68.828 152.936 68.948 153.392 68.948C153.86 68.948 154.298 68.834 154.706 68.606C155.114 68.366 155.438 68.03 155.678 67.598C155.918 67.154 156.038 66.626 156.038 66.014ZM176.99 60.884C178.214 60.884 179.198 61.262 179.942 62.018C180.698 62.762 181.076 63.806 181.076 65.15V71H178.556V65.492C178.556 64.712 178.358 64.118 177.962 63.71C177.566 63.29 177.026 63.08 176.342 63.08C175.658 63.08 175.112 63.29 174.704 63.71C174.308 64.118 174.11 64.712 174.11 65.492V71H171.59V65.492C171.59 64.712 171.392 64.118 170.996 63.71C170.6 63.29 170.06 63.08 169.376 63.08C168.68 63.08 168.128 63.29 167.72 63.71C167.324 64.118 167.126 64.712 167.126 65.492V71H164.606V61.028H167.126V62.234C167.45 61.814 167.864 61.484 168.368 61.244C168.884 61.004 169.448 60.884 170.06 60.884C170.84 60.884 171.536 61.052 172.148 61.388C172.76 61.712 173.234 62.18 173.57 62.792C173.894 62.216 174.362 61.754 174.974 61.406C175.598 61.058 176.27 60.884 176.99 60.884ZM187.535 71.162C186.575 71.162 185.711 70.952 184.943 70.532C184.175 70.1 183.569 69.494 183.125 68.714C182.693 67.934 182.477 67.034 182.477 66.014C182.477 64.994 182.699 64.094 183.143 63.314C183.599 62.534 184.217 61.934 184.997 61.514C185.777 61.082 186.647 60.866 187.607 60.866C188.567 60.866 189.437 61.082 190.217 61.514C190.997 61.934 191.609 62.534 192.053 63.314C192.509 64.094 192.737 64.994 192.737 66.014C192.737 67.034 192.503 67.934 192.035 68.714C191.579 69.494 190.955 70.1 190.163 70.532C189.383 70.952 188.507 71.162 187.535 71.162ZM187.535 68.966C187.991 68.966 188.417 68.858 188.813 68.642C189.221 68.414 189.545 68.078 189.785 67.634C190.025 67.19 190.145 66.65 190.145 66.014C190.145 65.066 189.893 64.34 189.389 63.836C188.897 63.32 188.291 63.062 187.571 63.062C186.851 63.062 186.245 63.32 185.753 63.836C185.273 64.34 185.033 65.066 185.033 66.014C185.033 66.962 185.267 67.694 185.735 68.21C186.215 68.714 186.815 68.966 187.535 68.966ZM198.384 68.678L200.904 61.028H203.586L199.896 71H196.836L193.164 61.028H195.864L198.384 68.678ZM213.911 65.798C213.911 66.158 213.887 66.482 213.839 66.77H206.549C206.609 67.49 206.861 68.054 207.305 68.462C207.749 68.87 208.295 69.074 208.943 69.074C209.879 69.074 210.545 68.672 210.941 67.868H213.659C213.371 68.828 212.819 69.62 212.003 70.244C211.187 70.856 210.185 71.162 208.997 71.162C208.037 71.162 207.173 70.952 206.405 70.532C205.649 70.1 205.055 69.494 204.623 68.714C204.203 67.934 203.993 67.034 203.993 66.014C203.993 64.982 204.203 64.076 204.623 63.296C205.043 62.516 205.631 61.916 206.387 61.496C207.143 61.076 208.013 60.866 208.997 60.866C209.945 60.866 210.791 61.07 211.535 61.478C212.291 61.886 212.873 62.468 213.281 63.224C213.701 63.968 213.911 64.826 213.911 65.798ZM211.301 65.078C211.289 64.43 211.055 63.914 210.599 63.53C210.143 63.134 209.585 62.936 208.925 62.936C208.301 62.936 207.773 63.128 207.341 63.512C206.921 63.884 206.663 64.406 206.567 65.078H211.301ZM217.911 62.576C218.235 62.048 218.655 61.634 219.171 61.334C219.699 61.034 220.299 60.884 220.971 60.884V63.53H220.305C219.513 63.53 218.913 63.716 218.505 64.088C218.109 64.46 217.911 65.108 217.911 66.032V71H215.391V61.028H217.911V62.576ZM224.828 57.68V71H222.308V57.68H224.828ZM231.386 71.162C230.426 71.162 229.562 70.952 228.794 70.532C228.026 70.1 227.42 69.494 226.976 68.714C226.544 67.934 226.328 67.034 226.328 66.014C226.328 64.994 226.55 64.094 226.994 63.314C227.45 62.534 228.068 61.934 228.848 61.514C229.628 61.082 230.498 60.866 231.458 60.866C232.418 60.866 233.288 61.082 234.068 61.514C234.848 61.934 235.46 62.534 235.904 63.314C236.36 64.094 236.588 64.994 236.588 66.014C236.588 67.034 236.354 67.934 235.886 68.714C235.43 69.494 234.806 70.1 234.014 70.532C233.234 70.952 232.358 71.162 231.386 71.162ZM231.386 68.966C231.842 68.966 232.268 68.858 232.664 68.642C233.072 68.414 233.396 68.078 233.636 67.634C233.876 67.19 233.996 66.65 233.996 66.014C233.996 65.066 233.744 64.34 233.24 63.836C232.748 63.32 232.142 63.062 231.422 63.062C230.702 63.062 230.096 63.32 229.604 63.836C229.124 64.34 228.884 65.066 228.884 66.014C228.884 66.962 229.118 67.694 229.586 68.21C230.066 68.714 230.666 68.966 231.386 68.966ZM251.545 61.028L245.371 75.716H242.689L244.849 70.748L240.853 61.028H243.679L246.253 67.994L248.863 61.028H251.545ZM258.993 62.468C259.317 62.012 259.761 61.634 260.325 61.334C260.901 61.022 261.555 60.866 262.287 60.866C263.139 60.866 263.907 61.076 264.591 61.496C265.287 61.916 265.833 62.516 266.229 63.296C266.637 64.064 266.841 64.958 266.841 65.978C266.841 66.998 266.637 67.904 266.229 68.696C265.833 69.476 265.287 70.082 264.591 70.514C263.907 70.946 263.139 71.162 262.287 71.162C261.555 71.162 260.907 71.012 260.343 70.712C259.791 70.412 259.341 70.034 258.993 69.578V75.752H256.473V61.028H258.993V62.468ZM264.267 65.978C264.267 65.378 264.141 64.862 263.889 64.43C263.649 63.986 263.325 63.65 262.917 63.422C262.521 63.194 262.089 63.08 261.621 63.08C261.165 63.08 260.733 63.2 260.325 63.44C259.929 63.668 259.605 64.004 259.353 64.448C259.113 64.892 258.993 65.414 258.993 66.014C258.993 66.614 259.113 67.136 259.353 67.58C259.605 68.024 259.929 68.366 260.325 68.606C260.733 68.834 261.165 68.948 261.621 68.948C262.089 68.948 262.521 68.828 262.917 68.588C263.325 68.348 263.649 68.006 263.889 67.562C264.141 67.118 264.267 66.59 264.267 65.978ZM270.832 62.576C271.156 62.048 271.576 61.634 272.092 61.334C272.62 61.034 273.22 60.884 273.892 60.884V63.53H273.226C272.434 63.53 271.834 63.716 271.426 64.088C271.03 64.46 270.832 65.108 270.832 66.032V71H268.312V61.028H270.832V62.576ZM284.499 65.798C284.499 66.158 284.475 66.482 284.427 66.77H277.137C277.197 67.49 277.449 68.054 277.893 68.462C278.337 68.87 278.883 69.074 279.531 69.074C280.467 69.074 281.133 68.672 281.529 67.868H284.247C283.959 68.828 283.407 69.62 282.591 70.244C281.775 70.856 280.773 71.162 279.585 71.162C278.625 71.162 277.761 70.952 276.993 70.532C276.237 70.1 275.643 69.494 275.211 68.714C274.791 67.934 274.581 67.034 274.581 66.014C274.581 64.982 274.791 64.076 275.211 63.296C275.631 62.516 276.219 61.916 276.975 61.496C277.731 61.076 278.601 60.866 279.585 60.866C280.533 60.866 281.379 61.07 282.123 61.478C282.879 61.886 283.461 62.468 283.869 63.224C284.289 63.968 284.499 64.826 284.499 65.798ZM281.889 65.078C281.877 64.43 281.643 63.914 281.187 63.53C280.731 63.134 280.173 62.936 279.513 62.936C278.889 62.936 278.361 63.128 277.929 63.512C277.509 63.884 277.251 64.406 277.155 65.078H281.889ZM289.795 71.162C288.979 71.162 288.247 71.018 287.599 70.73C286.951 70.43 286.435 70.028 286.051 69.524C285.679 69.02 285.475 68.462 285.439 67.85H287.977C288.025 68.234 288.211 68.552 288.535 68.804C288.871 69.056 289.285 69.182 289.777 69.182C290.257 69.182 290.629 69.086 290.893 68.894C291.169 68.702 291.307 68.456 291.307 68.156C291.307 67.832 291.139 67.592 290.803 67.436C290.479 67.268 289.957 67.088 289.237 66.896C288.493 66.716 287.881 66.53 287.401 66.338C286.933 66.146 286.525 65.852 286.177 65.456C285.841 65.06 285.673 64.526 285.673 63.854C285.673 63.302 285.829 62.798 286.141 62.342C286.465 61.886 286.921 61.526 287.509 61.262C288.109 60.998 288.811 60.866 289.615 60.866C290.803 60.866 291.751 61.166 292.459 61.766C293.167 62.354 293.557 63.152 293.629 64.16H291.217C291.181 63.764 291.013 63.452 290.713 63.224C290.425 62.984 290.035 62.864 289.543 62.864C289.087 62.864 288.733 62.948 288.481 63.116C288.241 63.284 288.121 63.518 288.121 63.818C288.121 64.154 288.289 64.412 288.625 64.592C288.961 64.76 289.483 64.934 290.191 65.114C290.911 65.294 291.505 65.48 291.973 65.672C292.441 65.864 292.843 66.164 293.179 66.572C293.527 66.968 293.707 67.496 293.719 68.156C293.719 68.732 293.557 69.248 293.233 69.704C292.921 70.16 292.465 70.52 291.865 70.784C291.277 71.036 290.587 71.162 289.795 71.162ZM296.705 59.84C296.261 59.84 295.889 59.702 295.589 59.426C295.301 59.138 295.157 58.784 295.157 58.364C295.157 57.944 295.301 57.596 295.589 57.32C295.889 57.032 296.261 56.888 296.705 56.888C297.149 56.888 297.515 57.032 297.803 57.32C298.103 57.596 298.253 57.944 298.253 58.364C298.253 58.784 298.103 59.138 297.803 59.426C297.515 59.702 297.149 59.84 296.705 59.84ZM297.947 61.028V71H295.427V61.028H297.947ZM304.505 71.162C303.545 71.162 302.681 70.952 301.913 70.532C301.145 70.1 300.539 69.494 300.095 68.714C299.663 67.934 299.447 67.034 299.447 66.014C299.447 64.994 299.669 64.094 300.113 63.314C300.569 62.534 301.187 61.934 301.967 61.514C302.747 61.082 303.617 60.866 304.577 60.866C305.537 60.866 306.407 61.082 307.187 61.514C307.967 61.934 308.579 62.534 309.023 63.314C309.479 64.094 309.707 64.994 309.707 66.014C309.707 67.034 309.473 67.934 309.005 68.714C308.549 69.494 307.925 70.1 307.133 70.532C306.353 70.952 305.477 71.162 304.505 71.162ZM304.505 68.966C304.961 68.966 305.387 68.858 305.783 68.642C306.191 68.414 306.515 68.078 306.755 67.634C306.995 67.19 307.115 66.65 307.115 66.014C307.115 65.066 306.863 64.34 306.359 63.836C305.867 63.32 305.261 63.062 304.541 63.062C303.821 63.062 303.215 63.32 302.723 63.836C302.243 64.34 302.003 65.066 302.003 66.014C302.003 66.962 302.237 67.694 302.705 68.21C303.185 68.714 303.785 68.966 304.505 68.966ZM316.722 60.884C317.91 60.884 318.87 61.262 319.602 62.018C320.334 62.762 320.7 63.806 320.7 65.15V71H318.18V65.492C318.18 64.7 317.982 64.094 317.586 63.674C317.19 63.242 316.65 63.026 315.966 63.026C315.27 63.026 314.718 63.242 314.31 63.674C313.914 64.094 313.716 64.7 313.716 65.492V71H311.196V61.028H313.716V62.27C314.052 61.838 314.478 61.502 314.994 61.262C315.522 61.01 316.098 60.884 316.722 60.884ZM322.088 65.978C322.088 64.97 322.286 64.076 322.682 63.296C323.09 62.516 323.636 61.916 324.32 61.496C325.016 61.076 325.79 60.866 326.642 60.866C327.386 60.866 328.034 61.016 328.586 61.316C329.15 61.616 329.6 61.994 329.936 62.45V61.028H332.474V71H329.936V69.542C329.612 70.01 329.162 70.4 328.586 70.712C328.022 71.012 327.368 71.162 326.624 71.162C325.784 71.162 325.016 70.946 324.32 70.514C323.636 70.082 323.09 69.476 322.682 68.696C322.286 67.904 322.088 66.998 322.088 65.978ZM329.936 66.014C329.936 65.402 329.816 64.88 329.576 64.448C329.336 64.004 329.012 63.668 328.604 63.44C328.196 63.2 327.758 63.08 327.29 63.08C326.822 63.08 326.39 63.194 325.994 63.422C325.598 63.65 325.274 63.986 325.022 64.43C324.782 64.862 324.662 65.378 324.662 65.978C324.662 66.578 324.782 67.106 325.022 67.562C325.274 68.006 325.598 68.348 325.994 68.588C326.402 68.828 326.834 68.948 327.29 68.948C327.758 68.948 328.196 68.834 328.604 68.606C329.012 68.366 329.336 68.03 329.576 67.598C329.816 67.154 329.936 66.626 329.936 66.014Z" fill="#8F3B06"/>
<path d="M127.512 95.298C127.512 95.658 127.488 95.982 127.44 96.27H120.15C120.21 96.99 120.462 97.554 120.906 97.962C121.35 98.37 121.896 98.574 122.544 98.574C123.48 98.574 124.146 98.172 124.542 97.368H127.26C126.972 98.328 126.42 99.12 125.604 99.744C124.788 100.356 123.786 100.662 122.598 100.662C121.638 100.662 120.774 100.452 120.006 100.032C119.25 99.6 118.656 98.994 118.224 98.214C117.804 97.434 117.594 96.534 117.594 95.514C117.594 94.482 117.804 93.576 118.224 92.796C118.644 92.016 119.232 91.416 119.988 90.996C120.744 90.576 121.614 90.366 122.598 90.366C123.546 90.366 124.392 90.57 125.136 90.978C125.892 91.386 126.474 91.968 126.882 92.724C127.302 93.468 127.512 94.326 127.512 95.298ZM124.902 94.578C124.89 93.93 124.656 93.414 124.2 93.03C123.744 92.634 123.186 92.436 122.526 92.436C121.902 92.436 121.374 92.628 120.942 93.012C120.522 93.384 120.264 93.906 120.168 94.578H124.902ZM131.511 87.18V100.5H128.991V87.18H131.511ZM140.09 91.986C140.414 91.506 140.858 91.116 141.422 90.816C141.998 90.516 142.652 90.366 143.384 90.366C144.236 90.366 145.004 90.576 145.688 90.996C146.384 91.416 146.93 92.016 147.326 92.796C147.734 93.564 147.938 94.458 147.938 95.478C147.938 96.498 147.734 97.404 147.326 98.196C146.93 98.976 146.384 99.582 145.688 100.014C145.004 100.446 144.236 100.662 143.384 100.662C142.64 100.662 141.986 100.518 141.422 100.23C140.87 99.93 140.426 99.546 140.09 99.078V100.5H137.57V87.18H140.09V91.986ZM145.364 95.478C145.364 94.878 145.238 94.362 144.986 93.93C144.746 93.486 144.422 93.15 144.014 92.922C143.618 92.694 143.186 92.58 142.718 92.58C142.262 92.58 141.83 92.7 141.422 92.94C141.026 93.168 140.702 93.504 140.45 93.948C140.21 94.392 140.09 94.914 140.09 95.514C140.09 96.114 140.21 96.636 140.45 97.08C140.702 97.524 141.026 97.866 141.422 98.106C141.83 98.334 142.262 98.448 142.718 98.448C143.186 98.448 143.618 98.328 144.014 98.088C144.422 97.848 144.746 97.506 144.986 97.062C145.238 96.618 145.364 96.09 145.364 95.478ZM153.837 100.662C152.877 100.662 152.013 100.452 151.245 100.032C150.477 99.6 149.871 98.994 149.427 98.214C148.995 97.434 148.779 96.534 148.779 95.514C148.779 94.494 149.001 93.594 149.445 92.814C149.901 92.034 150.519 91.434 151.299 91.014C152.079 90.582 152.949 90.366 153.909 90.366C154.869 90.366 155.739 90.582 156.519 91.014C157.299 91.434 157.911 92.034 158.355 92.814C158.811 93.594 159.039 94.494 159.039 95.514C159.039 96.534 158.805 97.434 158.337 98.214C157.881 98.994 157.257 99.6 156.465 100.032C155.685 100.452 154.809 100.662 153.837 100.662ZM153.837 98.466C154.293 98.466 154.719 98.358 155.115 98.142C155.523 97.914 155.847 97.578 156.087 97.134C156.327 96.69 156.447 96.15 156.447 95.514C156.447 94.566 156.195 93.84 155.691 93.336C155.199 92.82 154.593 92.562 153.873 92.562C153.153 92.562 152.547 92.82 152.055 93.336C151.575 93.84 151.335 94.566 151.335 95.514C151.335 96.462 151.569 97.194 152.037 97.71C152.517 98.214 153.117 98.466 153.837 98.466ZM163.462 92.598V97.422C163.462 97.758 163.54 98.004 163.696 98.16C163.864 98.304 164.14 98.376 164.524 98.376H165.694V100.5H164.11C161.986 100.5 160.924 99.468 160.924 97.404V92.598H159.736V90.528H160.924V88.062H163.462V90.528H165.694V92.598H163.462ZM171.574 100.662C170.614 100.662 169.75 100.452 168.982 100.032C168.214 99.6 167.608 98.994 167.164 98.214C166.732 97.434 166.516 96.534 166.516 95.514C166.516 94.494 166.738 93.594 167.182 92.814C167.638 92.034 168.256 91.434 169.036 91.014C169.816 90.582 170.686 90.366 171.646 90.366C172.606 90.366 173.476 90.582 174.256 91.014C175.036 91.434 175.648 92.034 176.092 92.814C176.548 93.594 176.776 94.494 176.776 95.514C176.776 96.534 176.542 97.434 176.074 98.214C175.618 98.994 174.994 99.6 174.202 100.032C173.422 100.452 172.546 100.662 171.574 100.662ZM171.574 98.466C172.03 98.466 172.456 98.358 172.852 98.142C173.26 97.914 173.584 97.578 173.824 97.134C174.064 96.69 174.184 96.15 174.184 95.514C174.184 94.566 173.932 93.84 173.428 93.336C172.936 92.82 172.33 92.562 171.61 92.562C170.89 92.562 170.284 92.82 169.792 93.336C169.312 93.84 169.072 94.566 169.072 95.514C169.072 96.462 169.306 97.194 169.774 97.71C170.254 98.214 170.854 98.466 171.574 98.466ZM173.716 87.81L169.576 89.7V87.9L173.716 85.758V87.81ZM183.791 90.384C184.979 90.384 185.939 90.762 186.671 91.518C187.403 92.262 187.769 93.306 187.769 94.65V100.5H185.249V94.992C185.249 94.2 185.051 93.594 184.655 93.174C184.259 92.742 183.719 92.526 183.035 92.526C182.339 92.526 181.787 92.742 181.379 93.174C180.983 93.594 180.785 94.2 180.785 94.992V100.5H178.265V90.528H180.785V91.77C181.121 91.338 181.547 91.002 182.063 90.762C182.591 90.51 183.167 90.384 183.791 90.384Z" fill="#8F3B06"/>
<rect x="197.5" y="80.5" width="27" height="27" rx="1.5" fill="white"/>
<rect x="197.5" y="80.5" width="27" height="27" rx="1.5" stroke="#C8C8C8"/>
<mask id="mask5_4163_2884" style="mask-type:alpha" maskUnits="userSpaceOnUse" x="201" y="84" width="20" height="20">
<rect x="201" y="84" width="20" height="20" fill="#D9D9D9"/>
</mask>
<g mask="url(#mask5_4163_2884)">
<path d="M211 102.333C208.764 100.431 207.093 98.6632 205.989 97.0312C204.885 95.3993 204.333 93.8889 204.333 92.5C204.333 90.4167 205.003 88.7569 206.343 87.5208C207.684 86.2847 209.236 85.6667 211 85.6667H211.416C211.555 85.6667 211.694 85.6806 211.833 85.7083V87.3958C211.694 87.3681 211.559 87.3507 211.427 87.3438C211.295 87.3368 211.152 87.3333 211 87.3333C209.597 87.3333 208.413 87.816 207.448 88.7813C206.482 89.7465 206 90.9861 206 92.5C206 93.4861 206.409 94.6146 207.229 95.8854C208.048 97.1562 209.305 98.5694 211 100.125C212.694 98.5694 213.951 97.1562 214.771 95.8854C215.59 94.6146 216 93.4861 216 92.5V92.3333H217.666V92.5C217.666 93.8889 217.114 95.3993 216.01 97.0312C214.906 98.6632 213.236 100.431 211 102.333ZM211 94C211.458 94 211.85 93.8368 212.177 93.5104C212.503 93.184 212.666 92.7917 212.666 92.3333C212.666 91.875 212.503 91.4826 212.177 91.1563C211.85 90.8299 211.458 90.6667 211 90.6667C210.541 90.6667 210.149 90.8299 209.823 91.1563C209.496 91.4826 209.333 91.875 209.333 92.3333C209.333 92.7917 209.496 93.184 209.823 93.5104C210.149 93.8368 210.541 94 211 94ZM216 90.6667H217.666V88.1667H220.166V86.5H217.666V84H216V86.5H213.5V88.1667H216V90.6667Z" fill="#1881D4"/>
</g>
<path d="M236.762 91.968C237.086 91.512 237.53 91.134 238.094 90.834C238.67 90.522 239.324 90.366 240.056 90.366C240.908 90.366 241.676 90.576 242.36 90.996C243.056 91.416 243.602 92.016 243.998 92.796C244.406 93.564 244.61 94.458 244.61 95.478C244.61 96.498 244.406 97.404 243.998 98.196C243.602 98.976 243.056 99.582 242.36 100.014C241.676 100.446 240.908 100.662 240.056 100.662C239.324 100.662 238.676 100.512 238.112 100.212C237.56 99.912 237.11 99.534 236.762 99.078V105.252H234.242V90.528H236.762V91.968ZM242.036 95.478C242.036 94.878 241.91 94.362 241.658 93.93C241.418 93.486 241.094 93.15 240.686 92.922C240.29 92.694 239.858 92.58 239.39 92.58C238.934 92.58 238.502 92.7 238.094 92.94C237.698 93.168 237.374 93.504 237.122 93.948C236.882 94.392 236.762 94.914 236.762 95.514C236.762 96.114 236.882 96.636 237.122 97.08C237.374 97.524 237.698 97.866 238.094 98.106C238.502 98.334 238.934 98.448 239.39 98.448C239.858 98.448 240.29 98.328 240.686 98.088C241.094 97.848 241.418 97.506 241.658 97.062C241.91 96.618 242.036 96.09 242.036 95.478ZM245.433 95.478C245.433 94.47 245.631 93.576 246.027 92.796C246.435 92.016 246.981 91.416 247.665 90.996C248.361 90.576 249.135 90.366 249.987 90.366C250.731 90.366 251.379 90.516 251.931 90.816C252.495 91.116 252.945 91.494 253.281 91.95V90.528H255.819V100.5H253.281V99.042C252.957 99.51 252.507 99.9 251.931 100.212C251.367 100.512 250.713 100.662 249.969 100.662C249.129 100.662 248.361 100.446 247.665 100.014C246.981 99.582 246.435 98.976 246.027 98.196C245.631 97.404 245.433 96.498 245.433 95.478ZM253.281 95.514C253.281 94.902 253.161 94.38 252.921 93.948C252.681 93.504 252.357 93.168 251.949 92.94C251.541 92.7 251.103 92.58 250.635 92.58C250.167 92.58 249.735 92.694 249.339 92.922C248.943 93.15 248.619 93.486 248.367 93.93C248.127 94.362 248.007 94.878 248.007 95.478C248.007 96.078 248.127 96.606 248.367 97.062C248.619 97.506 248.943 97.848 249.339 98.088C249.747 98.328 250.179 98.448 250.635 98.448C251.103 98.448 251.541 98.334 251.949 98.106C252.357 97.866 252.681 97.53 252.921 97.098C253.161 96.654 253.281 96.126 253.281 95.514ZM260.44 92.076C260.764 91.548 261.184 91.134 261.7 90.834C262.228 90.534 262.828 90.384 263.5 90.384V93.03H262.834C262.042 93.03 261.442 93.216 261.034 93.588C260.638 93.96 260.44 94.608 260.44 95.532V100.5H257.92V90.528H260.44V92.076ZM264.19 95.478C264.19 94.47 264.388 93.576 264.784 92.796C265.192 92.016 265.738 91.416 266.422 90.996C267.118 90.576 267.892 90.366 268.744 90.366C269.488 90.366 270.136 90.516 270.688 90.816C271.252 91.116 271.702 91.494 272.038 91.95V90.528H274.576V100.5H272.038V99.042C271.714 99.51 271.264 99.9 270.688 100.212C270.124 100.512 269.47 100.662 268.726 100.662C267.886 100.662 267.118 100.446 266.422 100.014C265.738 99.582 265.192 98.976 264.784 98.196C264.388 97.404 264.19 96.498 264.19 95.478ZM272.038 95.514C272.038 94.902 271.918 94.38 271.678 93.948C271.438 93.504 271.114 93.168 270.706 92.94C270.298 92.7 269.86 92.58 269.392 92.58C268.924 92.58 268.492 92.694 268.096 92.922C267.7 93.15 267.376 93.486 267.124 93.93C266.884 94.362 266.764 94.878 266.764 95.478C266.764 96.078 266.884 96.606 267.124 97.062C267.376 97.506 267.7 97.848 268.096 98.088C268.504 98.328 268.936 98.448 269.392 98.448C269.86 98.448 270.298 98.334 270.706 98.106C271.114 97.866 271.438 97.53 271.678 97.098C271.918 96.654 272.038 96.126 272.038 95.514Z" fill="#8F3B06"/>
<path d="M122.148 119.866C122.892 119.866 123.546 120.016 124.11 120.316C124.674 120.604 125.118 120.982 125.442 121.45V120.028H127.98V130.072C127.98 130.996 127.794 131.818 127.422 132.538C127.05 133.27 126.492 133.846 125.748 134.266C125.004 134.698 124.104 134.914 123.048 134.914C121.632 134.914 120.468 134.584 119.556 133.924C118.656 133.264 118.146 132.364 118.026 131.224H120.528C120.66 131.68 120.942 132.04 121.374 132.304C121.818 132.58 122.352 132.718 122.976 132.718C123.708 132.718 124.302 132.496 124.758 132.052C125.214 131.62 125.442 130.96 125.442 130.072V128.524C125.118 128.992 124.668 129.382 124.092 129.694C123.528 130.006 122.88 130.162 122.148 130.162C121.308 130.162 120.54 129.946 119.844 129.514C119.148 129.082 118.596 128.476 118.188 127.696C117.792 126.904 117.594 125.998 117.594 124.978C117.594 123.97 117.792 123.076 118.188 122.296C118.596 121.516 119.142 120.916 119.826 120.496C120.522 120.076 121.296 119.866 122.148 119.866ZM125.442 125.014C125.442 124.402 125.322 123.88 125.082 123.448C124.842 123.004 124.518 122.668 124.11 122.44C123.702 122.2 123.264 122.08 122.796 122.08C122.328 122.08 121.896 122.194 121.5 122.422C121.104 122.65 120.78 122.986 120.528 123.43C120.288 123.862 120.168 124.378 120.168 124.978C120.168 125.578 120.288 126.106 120.528 126.562C120.78 127.006 121.104 127.348 121.5 127.588C121.908 127.828 122.34 127.948 122.796 127.948C123.264 127.948 123.702 127.834 124.11 127.606C124.518 127.366 124.842 127.03 125.082 126.598C125.322 126.154 125.442 125.626 125.442 125.014ZM139.495 120.028V130H136.957V128.74C136.633 129.172 136.207 129.514 135.679 129.766C135.163 130.006 134.599 130.126 133.987 130.126C133.207 130.126 132.517 129.964 131.917 129.64C131.317 129.304 130.843 128.818 130.495 128.182C130.159 127.534 129.991 126.766 129.991 125.878V120.028H132.511V125.518C132.511 126.31 132.709 126.922 133.105 127.354C133.501 127.774 134.041 127.984 134.725 127.984C135.421 127.984 135.967 127.774 136.363 127.354C136.759 126.922 136.957 126.31 136.957 125.518V120.028H139.495ZM140.974 124.978C140.974 123.97 141.172 123.076 141.568 122.296C141.976 121.516 142.522 120.916 143.206 120.496C143.902 120.076 144.676 119.866 145.528 119.866C146.272 119.866 146.92 120.016 147.472 120.316C148.036 120.616 148.486 120.994 148.822 121.45V120.028H151.36V130H148.822V128.542C148.498 129.01 148.048 129.4 147.472 129.712C146.908 130.012 146.254 130.162 145.51 130.162C144.67 130.162 143.902 129.946 143.206 129.514C142.522 129.082 141.976 128.476 141.568 127.696C141.172 126.904 140.974 125.998 140.974 124.978ZM148.822 125.014C148.822 124.402 148.702 123.88 148.462 123.448C148.222 123.004 147.898 122.668 147.49 122.44C147.082 122.2 146.644 122.08 146.176 122.08C145.708 122.08 145.276 122.194 144.88 122.422C144.484 122.65 144.16 122.986 143.908 123.43C143.668 123.862 143.548 124.378 143.548 124.978C143.548 125.578 143.668 126.106 143.908 126.562C144.16 127.006 144.484 127.348 144.88 127.588C145.288 127.828 145.72 127.948 146.176 127.948C146.644 127.948 147.082 127.834 147.49 127.606C147.898 127.366 148.222 127.03 148.462 126.598C148.702 126.154 148.822 125.626 148.822 125.014ZM155.981 121.576C156.305 121.048 156.725 120.634 157.241 120.334C157.769 120.034 158.369 119.884 159.041 119.884V122.53H158.375C157.583 122.53 156.983 122.716 156.575 123.088C156.179 123.46 155.981 124.108 155.981 125.032V130H153.461V120.028H155.981V121.576ZM159.73 124.978C159.73 123.97 159.928 123.076 160.324 122.296C160.732 121.516 161.284 120.916 161.98 120.496C162.676 120.076 163.45 119.866 164.302 119.866C164.95 119.866 165.568 120.01 166.156 120.298C166.744 120.574 167.212 120.946 167.56 121.414V116.68H170.116V130H167.56V128.524C167.248 129.016 166.81 129.412 166.246 129.712C165.682 130.012 165.028 130.162 164.284 130.162C163.444 130.162 162.676 129.946 161.98 129.514C161.284 129.082 160.732 128.476 160.324 127.696C159.928 126.904 159.73 125.998 159.73 124.978ZM167.578 125.014C167.578 124.402 167.458 123.88 167.218 123.448C166.978 123.004 166.654 122.668 166.246 122.44C165.838 122.2 165.4 122.08 164.932 122.08C164.464 122.08 164.032 122.194 163.636 122.422C163.24 122.65 162.916 122.986 162.664 123.43C162.424 123.862 162.304 124.378 162.304 124.978C162.304 125.578 162.424 126.106 162.664 126.562C162.916 127.006 163.24 127.348 163.636 127.588C164.044 127.828 164.476 127.948 164.932 127.948C165.4 127.948 165.838 127.834 166.246 127.606C166.654 127.366 166.978 127.03 167.218 126.598C167.458 126.154 167.578 125.626 167.578 125.014ZM171.569 124.978C171.569 123.97 171.767 123.076 172.163 122.296C172.571 121.516 173.117 120.916 173.801 120.496C174.497 120.076 175.271 119.866 176.123 119.866C176.867 119.866 177.515 120.016 178.067 120.316C178.631 120.616 179.081 120.994 179.417 121.45V120.028H181.955V130H179.417V128.542C179.093 129.01 178.643 129.4 178.067 129.712C177.503 130.012 176.849 130.162 176.105 130.162C175.265 130.162 174.497 129.946 173.801 129.514C173.117 129.082 172.571 128.476 172.163 127.696C171.767 126.904 171.569 125.998 171.569 124.978ZM179.417 125.014C179.417 124.402 179.297 123.88 179.057 123.448C178.817 123.004 178.493 122.668 178.085 122.44C177.677 122.2 177.239 122.08 176.771 122.08C176.303 122.08 175.871 122.194 175.475 122.422C175.079 122.65 174.755 122.986 174.503 123.43C174.263 123.862 174.143 124.378 174.143 124.978C174.143 125.578 174.263 126.106 174.503 126.562C174.755 127.006 175.079 127.348 175.475 127.588C175.883 127.828 176.315 127.948 176.771 127.948C177.239 127.948 177.677 127.834 178.085 127.606C178.493 127.366 178.817 127.03 179.057 126.598C179.297 126.154 179.417 125.626 179.417 125.014ZM186.577 121.576C186.901 121.048 187.321 120.634 187.837 120.334C188.365 120.034 188.965 119.884 189.637 119.884V122.53H188.971C188.179 122.53 187.579 122.716 187.171 123.088C186.775 123.46 186.577 124.108 186.577 125.032V130H184.057V120.028H186.577V121.576ZM204.173 124.798C204.173 125.158 204.149 125.482 204.101 125.77H196.811C196.871 126.49 197.123 127.054 197.567 127.462C198.011 127.87 198.557 128.074 199.205 128.074C200.141 128.074 200.807 127.672 201.203 126.868H203.921C203.633 127.828 203.081 128.62 202.265 129.244C201.449 129.856 200.447 130.162 199.259 130.162C198.299 130.162 197.435 129.952 196.667 129.532C195.911 129.1 195.317 128.494 194.885 127.714C194.465 126.934 194.255 126.034 194.255 125.014C194.255 123.982 194.465 123.076 194.885 122.296C195.305 121.516 195.893 120.916 196.649 120.496C197.405 120.076 198.275 119.866 199.259 119.866C200.207 119.866 201.053 120.07 201.797 120.478C202.553 120.886 203.135 121.468 203.543 122.224C203.963 122.968 204.173 123.826 204.173 124.798ZM201.563 124.078C201.551 123.43 201.317 122.914 200.861 122.53C200.405 122.134 199.847 121.936 199.187 121.936C198.563 121.936 198.035 122.128 197.603 122.512C197.183 122.884 196.925 123.406 196.829 124.078H201.563ZM208.172 116.68V130H205.652V116.68H208.172ZM226.615 119.884C227.839 119.884 228.823 120.262 229.567 121.018C230.323 121.762 230.701 122.806 230.701 124.15V130H228.181V124.492C228.181 123.712 227.983 123.118 227.587 122.71C227.191 122.29 226.651 122.08 225.967 122.08C225.283 122.08 224.737 122.29 224.329 122.71C223.933 123.118 223.735 123.712 223.735 124.492V130H221.215V124.492C221.215 123.712 221.017 123.118 220.621 122.71C220.225 122.29 219.685 122.08 219.001 122.08C218.305 122.08 217.753 122.29 217.345 122.71C216.949 123.118 216.751 123.712 216.751 124.492V130H214.231V120.028H216.751V121.234C217.075 120.814 217.489 120.484 217.993 120.244C218.509 120.004 219.073 119.884 219.685 119.884C220.465 119.884 221.161 120.052 221.773 120.388C222.385 120.712 222.859 121.18 223.195 121.792C223.519 121.216 223.987 120.754 224.599 120.406C225.223 120.058 225.895 119.884 226.615 119.884ZM237.161 130.162C236.201 130.162 235.337 129.952 234.569 129.532C233.801 129.1 233.195 128.494 232.751 127.714C232.319 126.934 232.103 126.034 232.103 125.014C232.103 123.994 232.325 123.094 232.769 122.314C233.225 121.534 233.843 120.934 234.623 120.514C235.403 120.082 236.273 119.866 237.233 119.866C238.193 119.866 239.063 120.082 239.843 120.514C240.623 120.934 241.235 121.534 241.679 122.314C242.135 123.094 242.363 123.994 242.363 125.014C242.363 126.034 242.129 126.934 241.661 127.714C241.205 128.494 240.581 129.1 239.789 129.532C239.009 129.952 238.133 130.162 237.161 130.162ZM237.161 127.966C237.617 127.966 238.043 127.858 238.439 127.642C238.847 127.414 239.171 127.078 239.411 126.634C239.651 126.19 239.771 125.65 239.771 125.014C239.771 124.066 239.519 123.34 239.015 122.836C238.523 122.32 237.917 122.062 237.197 122.062C236.477 122.062 235.871 122.32 235.379 122.836C234.899 123.34 234.659 124.066 234.659 125.014C234.659 125.962 234.893 126.694 235.361 127.21C235.841 127.714 236.441 127.966 237.161 127.966ZM248.009 127.678L250.529 120.028H253.211L249.521 130H246.461L242.789 120.028H245.489L248.009 127.678ZM255.544 118.84C255.1 118.84 254.728 118.702 254.428 118.426C254.14 118.138 253.996 117.784 253.996 117.364C253.996 116.944 254.14 116.596 254.428 116.32C254.728 116.032 255.1 115.888 255.544 115.888C255.988 115.888 256.354 116.032 256.642 116.32C256.942 116.596 257.092 116.944 257.092 117.364C257.092 117.784 256.942 118.138 256.642 118.426C256.354 118.702 255.988 118.84 255.544 118.84ZM256.786 120.028V130H254.266V120.028H256.786ZM271.3 119.884C272.524 119.884 273.508 120.262 274.252 121.018C275.008 121.762 275.386 122.806 275.386 124.15V130H272.866V124.492C272.866 123.712 272.668 123.118 272.272 122.71C271.876 122.29 271.336 122.08 270.652 122.08C269.968 122.08 269.422 122.29 269.014 122.71C268.618 123.118 268.42 123.712 268.42 124.492V130H265.9V124.492C265.9 123.712 265.702 123.118 265.306 122.71C264.91 122.29 264.37 122.08 263.686 122.08C262.99 122.08 262.438 122.29 262.03 122.71C261.634 123.118 261.436 123.712 261.436 124.492V130H258.916V120.028H261.436V121.234C261.76 120.814 262.174 120.484 262.678 120.244C263.194 120.004 263.758 119.884 264.37 119.884C265.15 119.884 265.846 120.052 266.458 120.388C267.07 120.712 267.544 121.18 267.88 121.792C268.204 121.216 268.672 120.754 269.284 120.406C269.908 120.058 270.58 119.884 271.3 119.884ZM278.696 118.84C278.252 118.84 277.88 118.702 277.58 118.426C277.292 118.138 277.148 117.784 277.148 117.364C277.148 116.944 277.292 116.596 277.58 116.32C277.88 116.032 278.252 115.888 278.696 115.888C279.14 115.888 279.506 116.032 279.794 116.32C280.094 116.596 280.244 116.944 280.244 117.364C280.244 117.784 280.094 118.138 279.794 118.426C279.506 118.702 279.14 118.84 278.696 118.84ZM279.938 120.028V130H277.418V120.028H279.938ZM291.337 124.798C291.337 125.158 291.313 125.482 291.265 125.77H283.975C284.035 126.49 284.287 127.054 284.731 127.462C285.175 127.87 285.721 128.074 286.369 128.074C287.305 128.074 287.971 127.672 288.367 126.868H291.085C290.797 127.828 290.245 128.62 289.429 129.244C288.613 129.856 287.611 130.162 286.423 130.162C285.463 130.162 284.599 129.952 283.831 129.532C283.075 129.1 282.481 128.494 282.049 127.714C281.629 126.934 281.419 126.034 281.419 125.014C281.419 123.982 281.629 123.076 282.049 122.296C282.469 121.516 283.057 120.916 283.813 120.496C284.569 120.076 285.439 119.866 286.423 119.866C287.371 119.866 288.217 120.07 288.961 120.478C289.717 120.886 290.299 121.468 290.707 122.224C291.127 122.968 291.337 123.826 291.337 124.798ZM288.727 124.078C288.715 123.43 288.481 122.914 288.025 122.53C287.569 122.134 287.011 121.936 286.351 121.936C285.727 121.936 285.199 122.128 284.767 122.512C284.347 122.884 284.089 123.406 283.993 124.078H288.727ZM298.343 119.884C299.531 119.884 300.491 120.262 301.223 121.018C301.955 121.762 302.321 122.806 302.321 124.15V130H299.801V124.492C299.801 123.7 299.603 123.094 299.207 122.674C298.811 122.242 298.271 122.026 297.587 122.026C296.891 122.026 296.339 122.242 295.931 122.674C295.535 123.094 295.337 123.7 295.337 124.492V130H292.817V120.028H295.337V121.27C295.673 120.838 296.099 120.502 296.615 120.262C297.143 120.01 297.719 119.884 298.343 119.884ZM307.291 122.098V126.922C307.291 127.258 307.369 127.504 307.525 127.66C307.693 127.804 307.969 127.876 308.353 127.876H309.523V130H307.939C305.815 130 304.753 128.968 304.753 126.904V122.098H303.565V120.028H304.753V117.562H307.291V120.028H309.523V122.098H307.291ZM315.404 130.162C314.444 130.162 313.58 129.952 312.812 129.532C312.044 129.1 311.438 128.494 310.994 127.714C310.562 126.934 310.346 126.034 310.346 125.014C310.346 123.994 310.568 123.094 311.012 122.314C311.468 121.534 312.086 120.934 312.866 120.514C313.646 120.082 314.516 119.866 315.476 119.866C316.436 119.866 317.306 120.082 318.086 120.514C318.866 120.934 319.478 121.534 319.922 122.314C320.378 123.094 320.606 123.994 320.606 125.014C320.606 126.034 320.372 126.934 319.904 127.714C319.448 128.494 318.824 129.1 318.032 129.532C317.252 129.952 316.376 130.162 315.404 130.162ZM315.404 127.966C315.86 127.966 316.286 127.858 316.682 127.642C317.09 127.414 317.414 127.078 317.654 126.634C317.894 126.19 318.014 125.65 318.014 125.014C318.014 124.066 317.762 123.34 317.258 122.836C316.766 122.32 316.16 122.062 315.44 122.062C314.72 122.062 314.114 122.32 313.622 122.836C313.142 123.34 312.902 124.066 312.902 125.014C312.902 125.962 313.136 126.694 313.604 127.21C314.084 127.714 314.684 127.966 315.404 127.966ZM323.21 130.126C322.754 130.126 322.376 129.988 322.076 129.712C321.788 129.424 321.644 129.07 321.644 128.65C321.644 128.23 321.788 127.882 322.076 127.606C322.376 127.318 322.754 127.174 323.21 127.174C323.654 127.174 324.02 127.318 324.308 127.606C324.596 127.882 324.74 128.23 324.74 128.65C324.74 129.07 324.596 129.424 324.308 129.712C324.02 129.988 323.654 130.126 323.21 130.126Z" fill="#8F3B06"/>
</g>
<defs>
<filter id="filter0_dd_4163_2884" x="0" y="0" width="355" height="168" filterUnits="userSpaceOnUse" color-interpolation-filters="sRGB">
<feFlood flood-opacity="0" result="BackgroundImageFix"/>
<feColorMatrix in="SourceAlpha" type="matrix" values="0 0 0 0 0 0 0 0 0 0 0 0 0 0 0 0 0 0 127 0" result="hardAlpha"/>
<feMorphology radius="2" operator="erode" in="SourceAlpha" result="effect1_dropShadow_4163_2884"/>
<feOffset dy="2"/>
<feGaussianBlur stdDeviation="2"/>
<feComposite in2="hardAlpha" operator="out"/>
<feColorMatrix type="matrix" values="0 0 0 0 0.0627451 0 0 0 0 0.0941176 0 0 0 0 0.156863 0 0 0 0.1 0"/>
<feBlend mode="normal" in2="BackgroundImageFix" result="effect1_dropShadow_4163_2884"/>
<feColorMatrix in="SourceAlpha" type="matrix" values="0 0 0 0 0 0 0 0 0 0 0 0 0 0 0 0 0 0 127 0" result="hardAlpha"/>
<feMorphology radius="1" operator="erode" in="SourceAlpha" result="effect2_dropShadow_4163_2884"/>
<feOffset dy="4"/>
<feGaussianBlur stdDeviation="3"/>
<feComposite in2="hardAlpha" operator="out"/>
<feColorMatrix type="matrix" values="0 0 0 0 0.0627451 0 0 0 0 0.0941176 0 0 0 0 0.156863 0 0 0 0.1 0"/>
<feBlend mode="normal" in2="effect1_dropShadow_4163_2884" result="effect2_dropShadow_4163_2884"/>
<feBlend mode="normal" in="SourceGraphic" in2="effect2_dropShadow_4163_2884" result="shape"/>
</filter>
<filter id="filter1_d_4163_2884" x="18.5038" y="38.3999" width="84.9913" height="206.158" filterUnits="userSpaceOnUse" color-interpolation-filters="sRGB">
<feFlood flood-opacity="0" result="BackgroundImageFix"/>
<feColorMatrix in="SourceAlpha" type="matrix" values="0 0 0 0 0 0 0 0 0 0 0 0 0 0 0 0 0 0 127 0" result="hardAlpha"/>
<feOffset dy="2.49519"/>
<feGaussianBlur stdDeviation="1.24759"/>
<feComposite in2="hardAlpha" operator="out"/>
<feColorMatrix type="matrix" values="0 0 0 0 0 0 0 0 0 0 0 0 0 0 0 0 0 0 0.25 0"/>
<feBlend mode="normal" in2="BackgroundImageFix" result="effect1_dropShadow_4163_2884"/>
<feBlend mode="normal" in="SourceGraphic" in2="effect1_dropShadow_4163_2884" result="shape"/>
</filter>
<clipPath id="clip0_4163_2884">
<rect width="80" height="83.2" fill="white" transform="matrix(-1 0 0 1 101 38.3999)"/>
</clipPath>
</defs>
</svg>
