<svg width="56" height="56" viewBox="0 0 56 56" fill="none" xmlns="http://www.w3.org/2000/svg">
<mask id="mask0_3427_1212" style="mask-type:alpha" maskUnits="userSpaceOnUse" x="0" y="0" width="56" height="56">
<rect width="56" height="56" fill="#D9D9D9"/>
</mask>
<g mask="url(#mask0_3427_1212)">
<path d="M28.0001 39.667C28.6612 39.667 29.2154 39.4434 29.6626 38.9962C30.1098 38.5489 30.3334 37.9948 30.3334 37.3337C30.3334 36.6726 30.1098 36.1184 29.6626 35.6712C29.2154 35.2239 28.6612 35.0003 28.0001 35.0003C27.339 35.0003 26.7848 35.2239 26.3376 35.6712C25.8904 36.1184 25.6667 36.6726 25.6667 37.3337C25.6667 37.9948 25.8904 38.5489 26.3376 38.9962C26.7848 39.4434 27.339 39.667 28.0001 39.667ZM25.6667 30.3337H30.3334V16.3337H25.6667V30.3337ZM28.0001 51.3337C24.7723 51.3337 21.739 50.7212 18.9001 49.4962C16.0612 48.2712 13.5917 46.6087 11.4917 44.5087C9.39175 42.4087 7.72925 39.9392 6.50425 37.1003C5.27925 34.2614 4.66675 31.2281 4.66675 28.0003C4.66675 24.7725 5.27925 21.7392 6.50425 18.9003C7.72925 16.0614 9.39175 13.592 11.4917 11.492C13.5917 9.39199 16.0612 7.72949 18.9001 6.50449C21.739 5.27949 24.7723 4.66699 28.0001 4.66699C31.2279 4.66699 34.2612 5.27949 37.1001 6.50449C39.939 7.72949 42.4084 9.39199 44.5084 11.492C46.6084 13.592 48.2709 16.0614 49.4959 18.9003C50.7209 21.7392 51.3334 24.7725 51.3334 28.0003C51.3334 31.2281 50.7209 34.2614 49.4959 37.1003C48.2709 39.9392 46.6084 42.4087 44.5084 44.5087C42.4084 46.6087 39.939 48.2712 37.1001 49.4962C34.2612 50.7212 31.2279 51.3337 28.0001 51.3337ZM28.0001 46.667C33.2112 46.667 37.6251 44.8587 41.2418 41.242C44.8584 37.6253 46.6668 33.2114 46.6668 28.0003C46.6668 22.7892 44.8584 18.3753 41.2418 14.7587C37.6251 11.142 33.2112 9.33366 28.0001 9.33366C22.789 9.33366 18.3751 11.142 14.7584 14.7587C11.1417 18.3753 9.33342 22.7892 9.33342 28.0003C9.33342 33.2114 11.1417 37.6253 14.7584 41.242C18.3751 44.8587 22.789 46.667 28.0001 46.667Z" fill="#EF4444"/>
</g>
</svg>
