<svg width="56" height="56" viewBox="0 0 56 56" fill="none" xmlns="http://www.w3.org/2000/svg">
<mask id="mask0_3711_2461" style="mask-type:alpha" maskUnits="userSpaceOnUse" x="0" y="0" width="56" height="56">
<rect width="56" height="56" fill="#D9D9D9"/>
</mask>
<g mask="url(#mask0_3711_2461)">
<path d="M36.167 25.667C37.1392 25.667 37.9656 25.3267 38.6462 24.6462C39.3267 23.9656 39.667 23.1392 39.667 22.167C39.667 21.1948 39.3267 20.3684 38.6462 19.6878C37.9656 19.0073 37.1392 18.667 36.167 18.667C35.1948 18.667 34.3684 19.0073 33.6878 19.6878C33.0073 20.3684 32.667 21.1948 32.667 22.167C32.667 23.1392 33.0073 23.9656 33.6878 24.6462C34.3684 25.3267 35.1948 25.667 36.167 25.667ZM19.8337 25.667C20.8059 25.667 21.6323 25.3267 22.3128 24.6462C22.9934 23.9656 23.3337 23.1392 23.3337 22.167C23.3337 21.1948 22.9934 20.3684 22.3128 19.6878C21.6323 19.0073 20.8059 18.667 19.8337 18.667C18.8614 18.667 18.035 19.0073 17.3545 19.6878C16.6739 20.3684 16.3337 21.1948 16.3337 22.167C16.3337 23.1392 16.6739 23.9656 17.3545 24.6462C18.035 25.3267 18.8614 25.667 19.8337 25.667ZM28.0003 40.8337C30.6448 40.8337 33.0462 40.0851 35.2045 38.5878C37.3628 37.0906 38.9281 35.117 39.9003 32.667H16.1003C17.0725 35.117 18.6378 37.0906 20.7962 38.5878C22.9545 40.0851 25.3559 40.8337 28.0003 40.8337ZM28.0003 51.3337C24.7725 51.3337 21.7392 50.7212 18.9003 49.4962C16.0614 48.2712 13.592 46.6087 11.492 44.5087C9.39199 42.4087 7.72949 39.9392 6.50449 37.1003C5.27949 34.2614 4.66699 31.2281 4.66699 28.0003C4.66699 24.7725 5.27949 21.7392 6.50449 18.9003C7.72949 16.0614 9.39199 13.592 11.492 11.492C13.592 9.39199 16.0614 7.72949 18.9003 6.50449C21.7392 5.27949 24.7725 4.66699 28.0003 4.66699C31.2281 4.66699 34.2614 5.27949 37.1003 6.50449C39.9392 7.72949 42.4087 9.39199 44.5087 11.492C46.6087 13.592 48.2712 16.0614 49.4962 18.9003C50.7212 21.7392 51.3337 24.7725 51.3337 28.0003C51.3337 31.2281 50.7212 34.2614 49.4962 37.1003C48.2712 39.9392 46.6087 42.4087 44.5087 44.5087C42.4087 46.6087 39.9392 48.2712 37.1003 49.4962C34.2614 50.7212 31.2281 51.3337 28.0003 51.3337ZM28.0003 46.667C33.2114 46.667 37.6253 44.8587 41.242 41.242C44.8587 37.6253 46.667 33.2114 46.667 28.0003C46.667 22.7892 44.8587 18.3753 41.242 14.7587C37.6253 11.142 33.2114 9.33366 28.0003 9.33366C22.7892 9.33366 18.3753 11.142 14.7587 14.7587C11.142 18.3753 9.33366 22.7892 9.33366 28.0003C9.33366 33.2114 11.142 37.6253 14.7587 41.242C18.3753 44.8587 22.7892 46.667 28.0003 46.667Z" fill="#22C55E"/>
</g>
</svg>
