<svg width="360" height="125" viewBox="0 0 360 125" fill="none" xmlns="http://www.w3.org/2000/svg">
<g clip-path="url(#clip0_2434_1371)">
<g filter="url(#filter0_d_2434_1371)">
<path fill-rule="evenodd" clip-rule="evenodd" d="M29.2634 97.2479C33.7361 86.083 37.9781 72.7191 44.6634 68.545C48.5999 66.0881 62.2285 64.4184 62.2285 64.4184H70.665C70.665 64.4184 85.1827 62.7963 89.4653 66.8143C92.9268 70.0654 104.75 94.1326 104.75 94.1326C104.75 94.1326 96.9244 102.372 89.4653 102.372C89.6825 112.363 89.7233 121.397 89.7233 121.397C89.7233 121.397 90.0151 122.734 90.4902 125.191C78.1308 126.222 61.2783 126.263 46.8692 122.625C47.1746 119.041 47.3647 116.883 47.385 116.659L52.2446 84.3319C52.2446 84.3319 49.1768 95.7343 46.9778 102.936C43.5435 102.936 31.9511 100.187 29.2634 97.2411V97.2479Z" fill="#F1D054"/>
<path fill-rule="evenodd" clip-rule="evenodd" d="M66.8577 70.1128H67.0138C69.6608 70.1128 71.8055 67.968 71.8055 65.321V50.2739H62.0592V65.321C62.0592 67.968 64.2039 70.1128 66.8509 70.1128H66.8577Z" fill="#EDBA8C"/>
<path opacity="0.25" fill-rule="evenodd" clip-rule="evenodd" d="M71.8119 63.9029C68.5676 64.2491 65.2691 64.0998 62.0655 63.455V56.376C65.2894 56.8986 68.5473 57.1633 71.8119 57.1769V63.9029Z" fill="#561C2F" stroke="#EDBA8C" stroke-width="0.347756" stroke-miterlimit="22.93"/>
<path fill-rule="evenodd" clip-rule="evenodd" d="M84.7958 10.2773C84.7958 10.2773 84.2392 5.4924 82.1352 3.3816C80.0244 1.27759 66.4637 -1.34904 59.6155 0.802487C57.4639 3.06939 56.0861 7.54212 56.0861 7.54212L84.7958 10.2773Z" fill="#F1D054"/>
<path fill-rule="evenodd" clip-rule="evenodd" d="M31.1841 18.8971C30.3901 27.6661 47.0389 36.3333 68.3709 38.2676C89.7029 40.2019 107.635 34.6568 108.429 25.8946C109.223 17.1256 92.5739 8.45846 71.2419 6.52412C49.9099 4.58978 31.9782 10.1349 31.1841 18.8971Z" fill="#F1D054"/>
<mask id="mask0_2434_1371" style="mask-type:luminance" maskUnits="userSpaceOnUse" x="31" y="6" width="78" height="33">
<path d="M31.1841 18.8971C30.3901 27.6661 47.0389 36.3333 68.3709 38.2676C89.7029 40.2019 107.635 34.6568 108.429 25.8946C109.223 17.1256 92.5739 8.45846 71.2419 6.52412C49.9099 4.58978 31.9782 10.1349 31.1841 18.8971Z" fill="white"/>
</mask>
<g mask="url(#mask0_2434_1371)">
<path opacity="0.3" fill-rule="evenodd" clip-rule="evenodd" d="M31.1841 18.8971C30.3901 27.6661 47.0389 36.3333 68.3709 38.2676C89.7029 40.2019 107.635 34.6568 108.429 25.8946C109.223 17.1256 92.5739 8.45846 71.2419 6.52412C49.9099 4.58978 31.9782 10.1349 31.1841 18.8971Z" fill="#CB2E45"/>
</g>
<path fill-rule="evenodd" clip-rule="evenodd" d="M44.0459 33.5232C45.5391 36.5638 48.315 38.2538 50.2493 37.3036C52.1837 36.3534 52.5366 33.1227 51.0434 30.0821C49.5503 27.0414 46.7743 25.3514 44.84 26.3016C42.9056 27.2518 42.5527 30.4825 44.0459 33.5232Z" fill="#EDBA8C"/>
<path fill-rule="evenodd" clip-rule="evenodd" d="M49.5433 40.1137L51.4166 22.4739C52.2853 14.2886 59.629 8.35665 67.8143 9.23219L74.9001 9.98556C83.0854 10.8543 89.0174 18.198 88.1418 26.3833L86.2686 44.0231C85.3998 52.2084 78.0561 58.1404 69.8708 57.2648L62.7851 56.5115C54.5998 55.6427 48.6678 48.299 49.5433 40.1137Z" fill="#EDBA8C"/>
<path fill-rule="evenodd" clip-rule="evenodd" d="M92.5332 38.403C90.5106 41.1179 87.4768 42.2785 85.7461 40.9957C84.0153 39.7129 84.2529 36.4687 86.2755 33.7538C88.298 31.039 91.3319 29.8784 93.0626 31.1611C94.7865 32.4439 94.5558 35.6881 92.5332 38.403Z" fill="#EDBA8C"/>
<path fill-rule="evenodd" clip-rule="evenodd" d="M92.3909 33.4758C89.7303 33.8084 88.7598 36.5911 88.0743 38.7969C87.9589 39.1702 87.3684 39.0141 87.4838 38.634C88.2711 36.1092 89.4113 33.2383 92.3909 32.865C92.7777 32.8175 92.7777 33.4215 92.3909 33.4758Z" fill="#561C2F"/>
<path fill-rule="evenodd" clip-rule="evenodd" d="M90.9246 36.7607C90.3341 36.3603 89.7029 36.1024 89.0039 35.9734C88.617 35.8987 88.7799 35.315 89.1668 35.3829C89.9133 35.5187 90.6056 35.8105 91.23 36.2313C91.549 36.4485 91.2504 36.9779 90.9246 36.7539V36.7607Z" fill="#561C2F"/>
<path fill-rule="evenodd" clip-rule="evenodd" d="M48.8985 35.9735C49.0343 33.1636 47.9755 30.5913 45.9054 28.6909C45.6135 28.4262 46.0479 27.9918 46.333 28.2633C48.5116 30.2723 49.6383 33.0211 49.5026 35.9803C49.4822 36.3739 48.8782 36.3739 48.8917 35.9803L48.8985 35.9735Z" fill="#561C2F"/>
<path fill-rule="evenodd" clip-rule="evenodd" d="M48.1725 31.9895C47.2902 32.0981 46.53 32.546 45.9735 33.2248C45.7223 33.5302 45.2947 33.0958 45.5459 32.7972C46.211 31.9827 47.1341 31.5076 48.1725 31.3854C48.5594 31.3379 48.5594 31.9488 48.1725 31.9963V31.9895Z" fill="#561C2F"/>
<path fill-rule="evenodd" clip-rule="evenodd" d="M88.1827 24.3266C86.3433 31.202 85.0674 40.3579 85.0674 40.3579C85.0674 40.3579 82.4339 39.7131 80.2485 38.5321C78.063 37.3512 71.4863 33.2042 62.5001 35.22C54.1383 37.0933 52.5773 37.0593 52.5773 37.0593C52.5773 37.0593 51.2538 25.1682 51.7085 19.9761C49.1362 30.3943 37.2519 59.1447 65.9208 61.7985C93.9042 63.8482 88.2777 39.4009 88.1894 24.3334L88.1827 24.3266Z" fill="#CB2E45"/>
<mask id="mask1_2434_1371" style="mask-type:luminance" maskUnits="userSpaceOnUse" x="47" y="19" width="42" height="43">
<path d="M88.1827 24.3266C86.3433 31.202 85.0674 40.3579 85.0674 40.3579C85.0674 40.3579 82.4339 39.7131 80.2485 38.5321C78.063 37.3512 71.4863 33.2042 62.5001 35.22C54.1383 37.0933 52.5773 37.0593 52.5773 37.0593C52.5773 37.0593 51.2538 25.1682 51.7085 19.9761C49.1362 30.3943 37.2519 59.1447 65.9208 61.7985C93.9042 63.8482 88.2777 39.4009 88.1894 24.3334L88.1827 24.3266Z" fill="white"/>
</mask>
<g mask="url(#mask1_2434_1371)">
<path opacity="0.3" fill-rule="evenodd" clip-rule="evenodd" d="M88.1827 24.3266C86.3433 31.202 85.0674 40.3579 85.0674 40.3579C85.0674 40.3579 82.4339 39.7131 80.2485 38.5321C78.063 37.3512 71.4863 33.2042 62.5001 35.22C54.1383 37.0933 52.5773 37.0593 52.5773 37.0593C52.5773 37.0593 51.2538 25.1682 51.7085 19.9761C49.1362 30.3943 37.2519 59.1447 65.9208 61.7985C93.9042 63.8482 88.2777 39.4009 88.1894 24.3334L88.1827 24.3266Z" fill="#561C2F"/>
</g>
<path fill-rule="evenodd" clip-rule="evenodd" d="M46.8693 122.618C46.9507 122.632 47.039 122.645 47.1272 122.659L47.1476 121.824C58.5703 93.7254 50.9484 66.4207 50.9484 66.4207L56.3374 65.1583C56.3374 65.1583 60.1925 75.5766 59.473 88.316C59.473 88.316 73.8278 87.9631 82.529 88.6554C82.3729 76.6693 80.4589 64.0859 80.4589 64.0859L86.1058 64.9275C86.1058 64.9275 91.1758 97.4923 89.4654 102.365L89.7233 121.39L90.2392 123.955H90.2527C90.3749 124.58 90.5242 125.326 90.6803 126.168V126.182C93.5988 141.609 101.757 191.963 94.8341 241.244C83.4045 242.079 81.8299 241.224 81.8299 241.224C81.8299 241.224 79.2983 178.68 72.07 145.579L50.1339 239.839L36.9804 238.556C36.9804 238.556 44.7721 147.106 46.8693 122.611V122.618Z" fill="#561C2F"/>
<mask id="mask2_2434_1371" style="mask-type:luminance" maskUnits="userSpaceOnUse" x="36" y="64" width="62" height="178">
<path d="M46.8693 122.618C46.9507 122.632 47.039 122.645 47.1272 122.659L47.1476 121.824C58.5703 93.7254 50.9484 66.4207 50.9484 66.4207L56.3374 65.1583C56.3374 65.1583 60.1925 75.5766 59.473 88.316C59.473 88.316 73.8278 87.9631 82.529 88.6554C82.3729 76.6693 80.4589 64.0859 80.4589 64.0859L86.1058 64.9275C86.1058 64.9275 91.1758 97.4923 89.4654 102.365L89.7233 121.39L90.2392 123.955H90.2527C90.3749 124.58 90.5242 125.326 90.6803 126.168V126.182C93.5988 141.609 101.757 191.963 94.8341 241.244C83.4045 242.079 81.8299 241.224 81.8299 241.224C81.8299 241.224 79.2983 178.68 72.07 145.579L50.1339 239.839L36.9804 238.556C36.9804 238.556 44.7721 147.106 46.8693 122.611V122.618Z" fill="white"/>
</mask>
<g mask="url(#mask2_2434_1371)">
<path opacity="0.3" fill-rule="evenodd" clip-rule="evenodd" d="M46.8693 122.618C46.9507 122.632 47.039 122.645 47.1272 122.659L47.1476 121.824C58.5703 93.7254 50.9484 66.4207 50.9484 66.4207L56.3374 65.1583C56.3374 65.1583 60.1925 75.5766 59.473 88.316C59.473 88.316 73.8278 87.9631 82.529 88.6554C82.3729 76.6693 80.4589 64.0859 80.4589 64.0859L86.1058 64.9275C86.1058 64.9275 91.1758 97.4923 89.4654 102.365L89.7233 121.39L90.2392 123.955H90.2527C90.3749 124.58 90.5242 125.326 90.6803 126.168V126.182C93.5988 141.609 101.757 191.963 94.8341 241.244C83.4045 242.079 81.8299 241.224 81.8299 241.224C81.8299 241.224 79.2983 178.68 72.07 145.579L50.1339 239.839L36.9804 238.556C36.9804 238.556 44.7721 147.106 46.8693 122.611V122.618Z" fill="#561C2F"/>
</g>
<path fill-rule="evenodd" clip-rule="evenodd" d="M69.1853 34.5006C68.9952 32.417 68.9613 30.313 69.0834 28.2225C69.1445 27.1977 69.2395 26.1728 69.3753 25.1547C69.4703 24.4081 69.4703 23.4036 69.7757 22.7046C70.1898 21.7544 71.6218 21.6526 71.9069 22.7181C72.1377 23.5665 71.8051 24.5167 71.7169 25.3651C71.5743 26.8447 71.3707 28.3175 71.3028 29.7971C71.2689 30.5166 71.2689 31.2292 71.3164 31.9487C71.3436 32.3898 71.1943 33.245 71.5268 33.5844C71.7101 33.7676 72.0223 33.8219 72.2395 33.6794C72.4091 33.5708 72.4906 33.3672 72.6331 33.2246C72.8775 32.9667 73.2915 32.9057 73.624 33.0346C74.3503 33.3265 74.262 33.9305 74.1195 34.5617C73.9091 35.4712 73.4612 36.3264 72.8028 36.9983C72.4567 37.3512 72.0359 37.6567 71.5472 37.7177C70.8074 37.8128 70.0879 37.3037 69.7214 36.6589C69.3481 36.0074 69.2599 35.2472 69.192 34.5006H69.1853Z" fill="#F1D054"/>
<path fill-rule="evenodd" clip-rule="evenodd" d="M75.8911 31.4802C75.7214 32.8037 76.2983 33.9711 77.1739 34.0797C78.0494 34.1882 78.8978 33.2041 79.0607 31.8806C79.2304 30.5571 78.6535 29.3897 77.7779 29.2811C76.9024 29.1725 76.054 30.1567 75.8911 31.4802Z" fill="#561C2F"/>
<path fill-rule="evenodd" clip-rule="evenodd" d="M65.8935 30.4961C65.9343 31.8332 65.2488 32.9395 64.3664 32.9599C63.4841 32.987 62.7375 31.9214 62.6968 30.5844C62.6561 29.2473 63.3416 28.141 64.2239 28.1206C65.1062 28.0935 65.8528 29.1591 65.8935 30.4961Z" fill="#561C2F"/>
<path fill-rule="evenodd" clip-rule="evenodd" d="M81.7824 27.0281C80.9951 25.0598 79.0743 24.0621 77.0111 24.3133C76.2034 24.4083 76.2102 23.1459 77.0111 23.0509C79.6852 22.7319 82.02 24.2318 83.0041 26.6956C83.3095 27.4557 82.081 27.7815 81.7824 27.0349V27.0281Z" fill="#561C2F"/>
<path fill-rule="evenodd" clip-rule="evenodd" d="M65.9685 22.9898C64.1292 22.2771 62.1813 22.8269 60.9596 24.3744C60.4574 25.0124 59.5682 24.1165 60.0637 23.4785C61.5297 21.612 64.0953 20.9197 66.3011 21.7681C67.0545 22.0599 66.7287 23.2816 65.9617 22.9898H65.9685Z" fill="#561C2F"/>
<path fill-rule="evenodd" clip-rule="evenodd" d="M31.6797 99.372L45.349 104.673C45.0164 106.18 44.6838 107.686 44.3513 109.193C53.6497 109.539 62.9413 109.96 72.2329 110.422C72.993 112.973 73.6242 115.566 73.9772 118.206C60.5658 123.507 45.1522 123.541 31.7204 118.288C31.2317 118.098 30.7227 117.881 30.3833 117.48C29.9422 116.958 29.8607 116.225 29.82 115.546C29.4806 110.096 30.1186 104.591 31.6932 99.3652L31.6797 99.372Z" fill="#EDBA8C"/>
<mask id="mask3_2434_1371" style="mask-type:luminance" maskUnits="userSpaceOnUse" x="29" y="99" width="45" height="24">
<path d="M31.6797 99.372L45.349 104.673C45.0164 106.18 44.6838 107.686 44.3513 109.193C53.6497 109.539 62.9413 109.96 72.2329 110.422C72.993 112.973 73.6242 115.566 73.9772 118.206C60.5658 123.507 45.1522 123.541 31.7204 118.288C31.2317 118.098 30.7227 117.881 30.3833 117.48C29.9422 116.958 29.8607 116.225 29.82 115.546C29.4806 110.096 30.1186 104.591 31.6932 99.3652L31.6797 99.372Z" fill="white"/>
</mask>
<g mask="url(#mask3_2434_1371)">
<path opacity="0.2" fill-rule="evenodd" clip-rule="evenodd" d="M31.6797 99.372L45.349 104.673C45.0164 106.18 44.6838 107.686 44.3513 109.193C53.6497 109.539 62.9413 109.96 72.2329 110.422C72.993 112.973 73.6242 115.566 73.9772 118.206C60.5658 123.507 45.1522 123.541 31.7204 118.288C31.2317 118.098 30.7227 117.881 30.3833 117.48C29.9422 116.958 29.8607 116.225 29.82 115.546C29.4806 110.096 30.1186 104.591 31.6932 99.3652L31.6797 99.372Z" fill="#CB2E45"/>
</g>
<path fill-rule="evenodd" clip-rule="evenodd" d="M72.4431 40.1134C69.8572 42.0071 66.4161 40.3374 66.1378 37.195C66.1039 36.7877 66.7351 36.7945 66.769 37.195C67.0066 39.9098 69.9658 41.1451 72.1241 39.5637C72.4566 39.3193 72.7688 39.8691 72.4431 40.1134Z" fill="#EDBA8C"/>
<path opacity="0.16" fill-rule="evenodd" clip-rule="evenodd" d="M88.2576 27.9511C87.8096 27.8358 87.3685 27.7204 86.9273 27.605C80.8799 26.044 74.6765 24.9105 68.4595 24.32C64.1632 23.9128 59.8805 23.8042 55.6046 23.9399C53.9214 23.9196 52.2518 23.9196 50.6093 23.9399C50.6093 23.9399 52.245 17.465 53.6635 15.456C65.093 14.8452 77.1131 16.2297 87.606 20.5124C88.1625 22.3585 88.3662 24.3404 88.149 26.3765L88.2576 27.9444V27.9511Z" fill="#561C2F"/>
<path fill-rule="evenodd" clip-rule="evenodd" d="M49.489 13.2092L57.6132 9.01474C60.7353 8.96044 63.8642 8.94687 66.9862 8.99438C71.0517 9.05546 75.0562 9.19799 79.0877 9.67309L79.7054 9.91064L85.678 13.216L93.5647 18.1706C93.5647 18.1706 96.0352 19.942 96.0352 21.2316L96.8768 26.0641C96.8768 26.0641 74.106 14.1798 45.6407 19.7724C29.2701 20.4511 49.5025 13.2092 49.5025 13.2092H49.489Z" fill="#F1D054"/>
<mask id="mask4_2434_1371" style="mask-type:luminance" maskUnits="userSpaceOnUse" x="39" y="8" width="58" height="19">
<path d="M49.489 13.2092L57.6132 9.01474C60.7353 8.96044 63.8642 8.94687 66.9862 8.99438C71.0517 9.05546 75.0562 9.19799 79.0877 9.67309L79.7054 9.91064L85.678 13.216L93.5647 18.1706C93.5647 18.1706 96.0352 19.942 96.0352 21.2316L96.8768 26.0641C96.8768 26.0641 74.106 14.1798 45.6407 19.7724C29.2701 20.4511 49.5025 13.2092 49.5025 13.2092H49.489Z" fill="white"/>
</mask>
<g mask="url(#mask4_2434_1371)">
<path opacity="0.3" fill-rule="evenodd" clip-rule="evenodd" d="M49.489 13.2092L57.6132 9.01474C60.7353 8.96044 63.8642 8.94687 66.9862 8.99438C71.0517 9.05546 75.0562 9.19799 79.0877 9.67309L79.7054 9.91064L85.678 13.216L93.5647 18.1706C93.5647 18.1706 96.0352 19.942 96.0352 21.2316L96.8768 26.0641C96.8768 26.0641 74.106 14.1798 45.6407 19.7724C29.2701 20.4511 49.5025 13.2092 49.5025 13.2092H49.489Z" fill="#CB2E45"/>
</g>
<path fill-rule="evenodd" clip-rule="evenodd" d="M104.03 96.9965C106.338 102.738 107.661 108.881 107.926 115.064C107.953 115.654 107.96 116.292 107.641 116.795C107.37 117.229 106.901 117.494 106.447 117.724C99.4083 121.308 91.0465 120.568 83.1938 119.733C82.2029 119.625 71.0313 118.145 71.0652 117.697C71.2484 115.193 71.6421 112.709 72.2326 110.265C76.3863 109.166 80.6351 109.078 84.911 108.704C87.3543 108.494 89.8181 108.161 92.2547 107.971C92.18 106.288 92.0986 104.605 92.0239 102.922L104.03 96.9897V96.9965Z" fill="#EDBA8C"/>
<path opacity="0.15" fill-rule="evenodd" clip-rule="evenodd" d="M31.6798 99.3721L45.3491 104.673C45.0776 105.915 44.7994 107.157 44.5211 108.399C43.6591 108.474 42.7971 108.508 41.9352 108.514C37.9443 108.548 33.9467 108.223 30.0034 107.571C30.3156 104.795 30.8653 102.046 31.673 99.3721H31.6798Z" fill="#561C2F"/>
<path opacity="0.15" fill-rule="evenodd" clip-rule="evenodd" d="M92.1667 106.119C92.1192 105.053 92.0717 103.987 92.0174 102.929L104.024 96.9966C104.838 99.0192 105.524 101.089 106.087 103.2C101.703 105.399 96.8974 106.661 92.1667 106.125V106.119Z" fill="#561C2F"/>
<path fill-rule="evenodd" clip-rule="evenodd" d="M47.2764 97.8315C43.6793 96.7863 35.2157 94.2683 31.5506 92.7548C30.5733 92.3475 29.4602 92.843 29.0869 93.8271C28.51 95.3475 28.1503 96.6506 27.9399 97.5533C27.7498 98.3474 28.096 99.1686 28.8018 99.5894C31.4963 101.191 38.6432 104.944 45.9869 104.578C46.8013 104.537 47.514 103.994 47.738 103.207C48.1181 101.863 48.3895 100.825 48.566 100.051C48.7968 99.0804 48.2266 98.1098 47.2697 97.8315H47.2764Z" fill="#F1D054"/>
<path fill-rule="evenodd" clip-rule="evenodd" d="M104.533 91.2274L106.08 94.3359C106.487 95.1504 106.352 96.1277 105.727 96.7929C103.766 98.8765 98.9265 103.078 91.2977 103.668C90.2457 103.75 89.2887 103.057 89.0172 102.039C88.5693 100.349 88.2435 99.148 88.0127 98.2996C87.7073 97.1933 88.3046 96.0463 89.3905 95.6662C92.4244 94.6006 98.2681 92.422 101.404 90.3722C102.49 89.6596 103.956 90.0668 104.533 91.2342V91.2274Z" fill="#F1D054"/>
<path opacity="0.3" fill-rule="evenodd" clip-rule="evenodd" d="M47.2764 97.8315C43.6793 96.7863 35.2157 94.2683 31.5506 92.7548C30.5733 92.3475 29.4602 92.843 29.0869 93.8271C28.51 95.3475 28.1503 96.6506 27.9399 97.5533C27.7498 98.3474 28.096 99.1686 28.8018 99.5894C31.4963 101.191 38.6432 104.944 45.9869 104.578C46.8013 104.537 47.514 103.994 47.738 103.207C48.1181 101.863 48.3895 100.825 48.566 100.051C48.7968 99.0804 48.2266 98.1098 47.2697 97.8315H47.2764Z" fill="#CB2E45"/>
<path opacity="0.3" fill-rule="evenodd" clip-rule="evenodd" d="M104.533 91.2274L106.08 94.3359C106.487 95.1504 106.352 96.1277 105.727 96.7929C103.766 98.8765 98.9265 103.078 91.2977 103.668C90.2457 103.75 89.2887 103.057 89.0172 102.039C88.5693 100.349 88.2435 99.148 88.0127 98.2996C87.7073 97.1933 88.3046 96.0463 89.3905 95.6662C92.4244 94.6006 98.2681 92.422 101.404 90.3722C102.49 89.6596 103.956 90.0668 104.533 91.2342V91.2274Z" fill="#CB2E45"/>
<path opacity="0.3" fill-rule="evenodd" clip-rule="evenodd" d="M69.1853 34.5006C68.9952 32.417 68.9613 30.313 69.0834 28.2225C69.1445 27.1977 69.2395 26.1728 69.3753 25.1547C69.4703 24.4081 69.4703 23.4036 69.7757 22.7046C70.1898 21.7544 71.6218 21.6526 71.9069 22.7181C72.1377 23.5665 71.8051 24.5167 71.7169 25.3651C71.5743 26.8447 71.3707 28.3175 71.3028 29.7971C71.2689 30.5166 71.2689 31.2292 71.3164 31.9487C71.3436 32.3898 71.1943 33.245 71.5268 33.5844C71.7101 33.7676 72.0223 33.8219 72.2395 33.6794C72.4091 33.5708 72.4906 33.3672 72.6331 33.2246C72.8775 32.9667 73.2915 32.9057 73.624 33.0346C74.3503 33.3265 74.262 33.9305 74.1195 34.5617C73.9091 35.4712 73.4612 36.3264 72.8028 36.9983C72.4567 37.3512 72.0359 37.6567 71.5472 37.7177C70.8074 37.8128 70.0879 37.3037 69.7214 36.6589C69.3481 36.0074 69.2599 35.2472 69.192 34.5006H69.1853Z" fill="#CB2E45"/>
</g>
</g>
<path d="M168.304 18.855C152.749 19.3609 136.962 31.3507 121.6 44.4094L151.939 64.2101C151.626 41.484 156.408 33.5332 168.304 18.855Z" fill="white"/>
<rect x="144.099" width="199.901" height="125" rx="16" fill="white"/>
<path d="M166.015 28.3423V32.5423H171.655V35.2063H166.015V39.6463H172.375V42.3823H162.655V25.6063H172.375V28.3423H166.015ZM180.037 42.5983C178.949 42.5983 177.973 42.4063 177.109 42.0223C176.245 41.6223 175.557 41.0863 175.045 40.4143C174.549 39.7423 174.277 38.9983 174.229 38.1823H177.613C177.677 38.6943 177.925 39.1183 178.357 39.4543C178.805 39.7903 179.357 39.9583 180.013 39.9583C180.653 39.9583 181.149 39.8303 181.501 39.5743C181.869 39.3183 182.053 38.9903 182.053 38.5903C182.053 38.1583 181.829 37.8383 181.381 37.6303C180.949 37.4063 180.253 37.1663 179.293 36.9103C178.301 36.6703 177.485 36.4223 176.845 36.1663C176.221 35.9103 175.677 35.5183 175.213 34.9903C174.765 34.4623 174.541 33.7503 174.541 32.8543C174.541 32.1183 174.749 31.4463 175.165 30.8383C175.597 30.2303 176.205 29.7503 176.989 29.3983C177.789 29.0463 178.725 28.8703 179.797 28.8703C181.381 28.8703 182.645 29.2703 183.589 30.0703C184.533 30.8543 185.053 31.9183 185.149 33.2623H181.933C181.885 32.7343 181.661 32.3183 181.261 32.0143C180.877 31.6943 180.357 31.5343 179.701 31.5343C179.093 31.5343 178.621 31.6463 178.285 31.8703C177.965 32.0943 177.805 32.4063 177.805 32.8063C177.805 33.2543 178.029 33.5983 178.477 33.8383C178.925 34.0623 179.621 34.2943 180.565 34.5343C181.525 34.7743 182.317 35.0223 182.941 35.2783C183.565 35.5343 184.101 35.9343 184.549 36.4783C185.013 37.0063 185.253 37.7103 185.269 38.5903C185.269 39.3583 185.053 40.0463 184.621 40.6543C184.205 41.2623 183.597 41.7423 182.797 42.0943C182.013 42.4303 181.093 42.5983 180.037 42.5983ZM186.683 35.7343C186.683 34.3583 186.963 33.1583 187.523 32.1343C188.083 31.0943 188.859 30.2943 189.851 29.7343C190.843 29.1583 191.979 28.8703 193.259 28.8703C194.907 28.8703 196.267 29.2863 197.339 30.1183C198.427 30.9343 199.155 32.0863 199.523 33.5743H195.899C195.707 32.9983 195.379 32.5503 194.915 32.2303C194.467 31.8943 193.907 31.7263 193.235 31.7263C192.275 31.7263 191.515 32.0783 190.955 32.7823C190.395 33.4703 190.115 34.4543 190.115 35.7343C190.115 36.9983 190.395 37.9823 190.955 38.6863C191.515 39.3743 192.275 39.7183 193.235 39.7183C194.595 39.7183 195.483 39.1103 195.899 37.8943H199.523C199.155 39.3343 198.427 40.4783 197.339 41.3263C196.251 42.1743 194.891 42.5983 193.259 42.5983C191.979 42.5983 190.843 42.3183 189.851 41.7583C188.859 41.1823 188.083 40.3823 187.523 39.3583C186.963 38.3183 186.683 37.1103 186.683 35.7343ZM204.864 31.1503C205.296 30.4463 205.856 29.8943 206.544 29.4943C207.248 29.0943 208.048 28.8943 208.944 28.8943V32.4223H208.056C207 32.4223 206.2 32.6703 205.656 33.1663C205.128 33.6623 204.864 34.5263 204.864 35.7583V42.3823H201.504V29.0863H204.864V31.1503ZM212.431 27.5023C211.839 27.5023 211.343 27.3183 210.943 26.9503C210.559 26.5663 210.367 26.0943 210.367 25.5343C210.367 24.9743 210.559 24.5103 210.943 24.1423C211.343 23.7583 211.839 23.5663 212.431 23.5663C213.023 23.5663 213.511 23.7583 213.895 24.1423C214.295 24.5103 214.495 24.9743 214.495 25.5343C214.495 26.0943 214.295 26.5663 213.895 26.9503C213.511 27.3183 213.023 27.5023 212.431 27.5023ZM214.087 29.0863V42.3823H210.727V29.0863H214.087ZM220.287 31.0303C220.719 30.3903 221.311 29.8703 222.063 29.4703C222.831 29.0703 223.703 28.8703 224.679 28.8703C225.815 28.8703 226.839 29.1503 227.751 29.7103C228.679 30.2703 229.407 31.0703 229.935 32.1103C230.479 33.1343 230.751 34.3263 230.751 35.6863C230.751 37.0463 230.479 38.2543 229.935 39.3103C229.407 40.3503 228.679 41.1583 227.751 41.7343C226.839 42.3103 225.815 42.5983 224.679 42.5983C223.687 42.5983 222.815 42.4063 222.063 42.0223C221.327 41.6223 220.735 41.1103 220.287 40.4863V42.3823H216.927V24.6223H220.287V31.0303ZM227.319 35.6863C227.319 34.8863 227.151 34.1983 226.815 33.6223C226.495 33.0303 226.063 32.5823 225.519 32.2783C224.991 31.9743 224.415 31.8223 223.791 31.8223C223.183 31.8223 222.607 31.9823 222.063 32.3023C221.535 32.6063 221.103 33.0543 220.767 33.6463C220.447 34.2383 220.287 34.9343 220.287 35.7343C220.287 36.5343 220.447 37.2303 220.767 37.8223C221.103 38.4143 221.535 38.8703 222.063 39.1903C222.607 39.4943 223.183 39.6463 223.791 39.6463C224.415 39.6463 224.991 39.4863 225.519 39.1663C226.063 38.8463 226.495 38.3903 226.815 37.7983C227.151 37.2063 227.319 36.5023 227.319 35.6863ZM231.849 35.6863C231.849 34.3423 232.113 33.1503 232.641 32.1103C233.185 31.0703 233.913 30.2703 234.825 29.7103C235.753 29.1503 236.785 28.8703 237.921 28.8703C238.913 28.8703 239.777 29.0703 240.513 29.4703C241.265 29.8703 241.865 30.3743 242.313 30.9823V29.0863H245.697V42.3823H242.313V40.4383C241.881 41.0623 241.281 41.5823 240.513 41.9983C239.761 42.3983 238.889 42.5983 237.897 42.5983C236.777 42.5983 235.753 42.3103 234.825 41.7343C233.913 41.1583 233.185 40.3503 232.641 39.3103C232.113 38.2543 231.849 37.0463 231.849 35.6863ZM242.313 35.7343C242.313 34.9183 242.153 34.2223 241.833 33.6463C241.513 33.0543 241.081 32.6063 240.537 32.3023C239.993 31.9823 239.409 31.8223 238.785 31.8223C238.161 31.8223 237.585 31.9743 237.057 32.2783C236.529 32.5823 236.097 33.0303 235.761 33.6223C235.441 34.1983 235.281 34.8863 235.281 35.6863C235.281 36.4863 235.441 37.1903 235.761 37.7983C236.097 38.3903 236.529 38.8463 237.057 39.1663C237.601 39.4863 238.177 39.6463 238.785 39.6463C239.409 39.6463 239.993 39.4943 240.537 39.1903C241.081 38.8703 241.513 38.4223 241.833 37.8463C242.153 37.2543 242.313 36.5503 242.313 35.7343ZM257.097 24.6223V42.3823H253.737V24.6223H257.097ZM259.073 35.6863C259.073 34.3423 259.337 33.1503 259.865 32.1103C260.409 31.0703 261.137 30.2703 262.049 29.7103C262.977 29.1503 264.009 28.8703 265.145 28.8703C266.137 28.8703 267.001 29.0703 267.737 29.4703C268.489 29.8703 269.089 30.3743 269.537 30.9823V29.0863H272.921V42.3823H269.537V40.4383C269.105 41.0623 268.505 41.5823 267.737 41.9983C266.985 42.3983 266.113 42.5983 265.121 42.5983C264.001 42.5983 262.977 42.3103 262.049 41.7343C261.137 41.1583 260.409 40.3503 259.865 39.3103C259.337 38.2543 259.073 37.0463 259.073 35.6863ZM269.537 35.7343C269.537 34.9183 269.377 34.2223 269.057 33.6463C268.737 33.0543 268.305 32.6063 267.761 32.3023C267.217 31.9823 266.633 31.8223 266.009 31.8223C265.385 31.8223 264.809 31.9743 264.281 32.2783C263.753 32.5823 263.321 33.0303 262.985 33.6223C262.665 34.1983 262.505 34.8863 262.505 35.6863C262.505 36.4863 262.665 37.1903 262.985 37.7983C263.321 38.3903 263.753 38.8463 264.281 39.1663C264.825 39.4863 265.401 39.6463 266.009 39.6463C266.633 39.6463 267.217 39.4943 267.761 39.1903C268.305 38.8703 268.737 38.4223 269.057 37.8463C269.377 37.2543 269.537 36.5503 269.537 35.7343ZM280.81 42.5983C279.722 42.5983 278.746 42.4063 277.882 42.0223C277.018 41.6223 276.33 41.0863 275.818 40.4143C275.322 39.7423 275.05 38.9983 275.002 38.1823H278.386C278.45 38.6943 278.698 39.1183 279.13 39.4543C279.578 39.7903 280.13 39.9583 280.786 39.9583C281.426 39.9583 281.922 39.8303 282.274 39.5743C282.642 39.3183 282.826 38.9903 282.826 38.5903C282.826 38.1583 282.602 37.8383 282.154 37.6303C281.722 37.4063 281.026 37.1663 280.066 36.9103C279.074 36.6703 278.258 36.4223 277.618 36.1663C276.994 35.9103 276.45 35.5183 275.986 34.9903C275.538 34.4623 275.314 33.7503 275.314 32.8543C275.314 32.1183 275.522 31.4463 275.938 30.8383C276.37 30.2303 276.978 29.7503 277.762 29.3983C278.562 29.0463 279.498 28.8703 280.57 28.8703C282.154 28.8703 283.418 29.2703 284.362 30.0703C285.306 30.8543 285.826 31.9183 285.922 33.2623H282.706C282.658 32.7343 282.434 32.3183 282.034 32.0143C281.65 31.6943 281.13 31.5343 280.474 31.5343C279.866 31.5343 279.394 31.6463 279.058 31.8703C278.738 32.0943 278.578 32.4063 278.578 32.8063C278.578 33.2543 278.802 33.5983 279.25 33.8383C279.698 34.0623 280.394 34.2943 281.338 34.5343C282.298 34.7743 283.09 35.0223 283.714 35.2783C284.338 35.5343 284.874 35.9343 285.322 36.4783C285.786 37.0063 286.026 37.7103 286.042 38.5903C286.042 39.3583 285.826 40.0463 285.394 40.6543C284.978 41.2623 284.37 41.7423 283.57 42.0943C282.786 42.4303 281.866 42.5983 280.81 42.5983ZM170.143 59.8943C171.151 59.8943 172.047 60.1183 172.831 60.5663C173.615 60.9983 174.223 61.6463 174.655 62.5103C175.103 63.3583 175.327 64.3823 175.327 65.5823V73.3823H171.967V66.0383C171.967 64.9823 171.703 64.1743 171.175 63.6143C170.647 63.0383 169.927 62.7503 169.015 62.7503C168.087 62.7503 167.351 63.0383 166.807 63.6143C166.279 64.1743 166.015 64.9823 166.015 66.0383V73.3823H162.655V55.6223H166.015V61.7423C166.447 61.1663 167.023 60.7183 167.743 60.3983C168.463 60.0623 169.263 59.8943 170.143 59.8943ZM190.402 66.4463C190.402 66.9263 190.37 67.3583 190.306 67.7423H180.586C180.666 68.7023 181.002 69.4543 181.594 69.9983C182.186 70.5423 182.914 70.8143 183.778 70.8143C185.026 70.8143 185.914 70.2783 186.442 69.2063H190.066C189.682 70.4863 188.946 71.5423 187.858 72.3743C186.77 73.1903 185.434 73.5983 183.85 73.5983C182.57 73.5983 181.418 73.3183 180.394 72.7583C179.386 72.1823 178.594 71.3743 178.018 70.3343C177.458 69.2943 177.178 68.0943 177.178 66.7343C177.178 65.3583 177.458 64.1503 178.018 63.1103C178.578 62.0703 179.362 61.2703 180.37 60.7103C181.378 60.1503 182.538 59.8703 183.85 59.8703C185.114 59.8703 186.242 60.1423 187.234 60.6863C188.242 61.2303 189.018 62.0063 189.562 63.0143C190.122 64.0063 190.402 65.1503 190.402 66.4463ZM186.922 65.4863C186.906 64.6223 186.594 63.9343 185.986 63.4223C185.378 62.8943 184.634 62.6303 183.754 62.6303C182.922 62.6303 182.218 62.8863 181.642 63.3983C181.082 63.8943 180.738 64.5903 180.61 65.4863H186.922ZM191.511 66.7343C191.511 65.3583 191.791 64.1583 192.351 63.1343C192.911 62.0943 193.687 61.2943 194.679 60.7343C195.671 60.1583 196.807 59.8703 198.087 59.8703C199.735 59.8703 201.095 60.2863 202.167 61.1183C203.255 61.9343 203.983 63.0863 204.351 64.5743H200.727C200.535 63.9983 200.207 63.5503 199.743 63.2303C199.295 62.8943 198.735 62.7263 198.063 62.7263C197.103 62.7263 196.343 63.0783 195.783 63.7823C195.223 64.4703 194.943 65.4543 194.943 66.7343C194.943 67.9983 195.223 68.9823 195.783 69.6863C196.343 70.3743 197.103 70.7183 198.063 70.7183C199.423 70.7183 200.311 70.1103 200.727 68.8943H204.351C203.983 70.3343 203.255 71.4783 202.167 72.3263C201.079 73.1743 199.719 73.5983 198.087 73.5983C196.807 73.5983 195.671 73.3183 194.679 72.7583C193.687 72.1823 192.911 71.3823 192.351 70.3583C191.791 69.3183 191.511 68.1103 191.511 66.7343ZM210.244 62.8463V69.2783C210.244 69.7263 210.348 70.0543 210.556 70.2623C210.78 70.4543 211.148 70.5503 211.66 70.5503H213.22V73.3823H211.108C208.276 73.3823 206.86 72.0063 206.86 69.2543V62.8463H205.276V60.0863H206.86V56.7983H210.244V60.0863H213.22V62.8463H210.244ZM214.293 66.6863C214.293 65.3423 214.557 64.1503 215.085 63.1103C215.629 62.0703 216.357 61.2703 217.269 60.7103C218.197 60.1503 219.229 59.8703 220.365 59.8703C221.357 59.8703 222.221 60.0703 222.957 60.4703C223.709 60.8703 224.309 61.3743 224.757 61.9823V60.0863H228.141V73.3823H224.757V71.4383C224.325 72.0623 223.725 72.5823 222.957 72.9983C222.205 73.3983 221.333 73.5983 220.341 73.5983C219.221 73.5983 218.197 73.3103 217.269 72.7343C216.357 72.1583 215.629 71.3503 215.085 70.3103C214.557 69.2543 214.293 68.0463 214.293 66.6863ZM224.757 66.7343C224.757 65.9183 224.597 65.2223 224.277 64.6463C223.957 64.0543 223.525 63.6063 222.981 63.3023C222.437 62.9823 221.853 62.8223 221.229 62.8223C220.605 62.8223 220.029 62.9743 219.501 63.2783C218.973 63.5823 218.541 64.0303 218.205 64.6223C217.885 65.1983 217.725 65.8863 217.725 66.6863C217.725 67.4863 217.885 68.1903 218.205 68.7983C218.541 69.3903 218.973 69.8463 219.501 70.1663C220.045 70.4863 220.621 70.6463 221.229 70.6463C221.853 70.6463 222.437 70.4943 222.981 70.1903C223.525 69.8703 223.957 69.4223 224.277 68.8463C224.597 68.2543 224.757 67.5503 224.757 66.7343ZM224.301 56.6303L218.781 59.1503V56.7503L224.301 53.8943V56.6303ZM234.303 62.1503C234.735 61.4463 235.295 60.8943 235.983 60.4943C236.687 60.0943 237.487 59.8943 238.383 59.8943V63.4223H237.495C236.439 63.4223 235.639 63.6703 235.095 64.1663C234.567 64.6623 234.303 65.5263 234.303 66.7583V73.3823H230.943V60.0863H234.303V62.1503ZM252.526 66.4463C252.526 66.9263 252.494 67.3583 252.43 67.7423H242.71C242.79 68.7023 243.126 69.4543 243.718 69.9983C244.31 70.5423 245.038 70.8143 245.902 70.8143C247.15 70.8143 248.038 70.2783 248.566 69.2063H252.19C251.806 70.4863 251.07 71.5423 249.982 72.3743C248.894 73.1903 247.558 73.5983 245.974 73.5983C244.694 73.5983 243.542 73.3183 242.518 72.7583C241.51 72.1823 240.718 71.3743 240.142 70.3343C239.582 69.2943 239.302 68.0943 239.302 66.7343C239.302 65.3583 239.582 64.1503 240.142 63.1103C240.702 62.0703 241.486 61.2703 242.494 60.7103C243.502 60.1503 244.662 59.8703 245.974 59.8703C247.238 59.8703 248.366 60.1423 249.358 60.6863C250.366 61.2303 251.142 62.0063 251.686 63.0143C252.246 64.0063 252.526 65.1503 252.526 66.4463ZM249.046 65.4863C249.03 64.6223 248.718 63.9343 248.11 63.4223C247.502 62.8943 246.758 62.6303 245.878 62.6303C245.046 62.6303 244.342 62.8863 243.766 63.3983C243.206 63.8943 242.862 64.5903 242.734 65.4863H249.046ZM253.634 66.6863C253.634 65.3423 253.898 64.1503 254.426 63.1103C254.97 62.0703 255.698 61.2703 256.61 60.7103C257.538 60.1503 258.57 59.8703 259.706 59.8703C260.698 59.8703 261.562 60.0703 262.298 60.4703C263.05 60.8703 263.65 61.3743 264.098 61.9823V60.0863H267.482V73.3823H264.098V71.4383C263.666 72.0623 263.066 72.5823 262.298 72.9983C261.546 73.3983 260.674 73.5983 259.682 73.5983C258.562 73.5983 257.538 73.3103 256.61 72.7343C255.698 72.1583 254.97 71.3503 254.426 70.3103C253.898 69.2543 253.634 68.0463 253.634 66.6863ZM264.098 66.7343C264.098 65.9183 263.938 65.2223 263.618 64.6463C263.298 64.0543 262.866 63.6063 262.322 63.3023C261.778 62.9823 261.194 62.8223 260.57 62.8223C259.946 62.8223 259.37 62.9743 258.842 63.2783C258.314 63.5823 257.882 64.0303 257.546 64.6223C257.226 65.1983 257.066 65.8863 257.066 66.6863C257.066 67.4863 257.226 68.1903 257.546 68.7983C257.882 69.3903 258.314 69.8463 258.842 70.1663C259.386 70.4863 259.962 70.6463 260.57 70.6463C261.194 70.6463 261.778 70.4943 262.322 70.1903C262.866 69.8703 263.298 69.4223 263.618 68.8463C263.938 68.2543 264.098 67.5503 264.098 66.7343ZM275.372 73.5983C274.284 73.5983 273.308 73.4063 272.444 73.0223C271.58 72.6223 270.892 72.0863 270.38 71.4143C269.884 70.7423 269.612 69.9983 269.564 69.1823H272.948C273.012 69.6943 273.26 70.1183 273.692 70.4543C274.14 70.7903 274.692 70.9583 275.348 70.9583C275.988 70.9583 276.484 70.8303 276.836 70.5743C277.204 70.3183 277.388 69.9903 277.388 69.5903C277.388 69.1583 277.164 68.8383 276.716 68.6303C276.284 68.4063 275.588 68.1663 274.628 67.9103C273.636 67.6703 272.82 67.4223 272.18 67.1663C271.556 66.9103 271.012 66.5183 270.548 65.9903C270.1 65.4623 269.876 64.7503 269.876 63.8543C269.876 63.1183 270.084 62.4463 270.5 61.8383C270.932 61.2303 271.54 60.7503 272.324 60.3983C273.124 60.0463 274.06 59.8703 275.132 59.8703C276.716 59.8703 277.98 60.2703 278.924 61.0703C279.868 61.8543 280.388 62.9183 280.484 64.2623H277.268C277.22 63.7343 276.996 63.3183 276.596 63.0143C276.212 62.6943 275.692 62.5343 275.036 62.5343C274.428 62.5343 273.956 62.6463 273.62 62.8703C273.3 63.0943 273.14 63.4063 273.14 63.8063C273.14 64.2543 273.364 64.5983 273.812 64.8383C274.26 65.0623 274.956 65.2943 275.9 65.5343C276.86 65.7743 277.652 66.0223 278.276 66.2783C278.9 66.5343 279.436 66.9343 279.884 67.4783C280.348 68.0063 280.588 68.7103 280.604 69.5903C280.604 70.3583 280.388 71.0463 279.956 71.6543C279.54 72.2623 278.932 72.7423 278.132 73.0943C277.348 73.4303 276.428 73.5983 275.372 73.5983ZM287.257 66.6863C287.257 65.3423 287.521 64.1503 288.049 63.1103C288.593 62.0703 289.329 61.2703 290.257 60.7103C291.185 60.1503 292.217 59.8703 293.353 59.8703C294.217 59.8703 295.041 60.0623 295.825 60.4463C296.609 60.8143 297.233 61.3103 297.697 61.9343V55.6223H301.105V73.3823H297.697V71.4143C297.281 72.0703 296.697 72.5983 295.945 72.9983C295.193 73.3983 294.321 73.5983 293.329 73.5983C292.209 73.5983 291.185 73.3103 290.257 72.7343C289.329 72.1583 288.593 71.3503 288.049 70.3103C287.521 69.2543 287.257 68.0463 287.257 66.6863ZM297.721 66.7343C297.721 65.9183 297.561 65.2223 297.241 64.6463C296.921 64.0543 296.489 63.6063 295.945 63.3023C295.401 62.9823 294.817 62.8223 294.193 62.8223C293.569 62.8223 292.993 62.9743 292.465 63.2783C291.937 63.5823 291.505 64.0303 291.169 64.6223C290.849 65.1983 290.689 65.8863 290.689 66.6863C290.689 67.4863 290.849 68.1903 291.169 68.7983C291.505 69.3903 291.937 69.8463 292.465 70.1663C293.009 70.4863 293.585 70.6463 294.193 70.6463C294.817 70.6463 295.401 70.4943 295.945 70.1903C296.489 69.8703 296.921 69.4223 297.241 68.8463C297.561 68.2543 297.721 67.5503 297.721 66.7343ZM316.266 66.4463C316.266 66.9263 316.234 67.3583 316.17 67.7423H306.45C306.53 68.7023 306.866 69.4543 307.458 69.9983C308.05 70.5423 308.778 70.8143 309.642 70.8143C310.89 70.8143 311.778 70.2783 312.306 69.2063H315.93C315.546 70.4863 314.81 71.5423 313.722 72.3743C312.634 73.1903 311.298 73.5983 309.714 73.5983C308.434 73.5983 307.282 73.3183 306.258 72.7583C305.25 72.1823 304.458 71.3743 303.882 70.3343C303.322 69.2943 303.042 68.0943 303.042 66.7343C303.042 65.3583 303.322 64.1503 303.882 63.1103C304.442 62.0703 305.226 61.2703 306.234 60.7103C307.242 60.1503 308.402 59.8703 309.714 59.8703C310.978 59.8703 312.106 60.1423 313.098 60.6863C314.106 61.2303 314.882 62.0063 315.426 63.0143C315.986 64.0063 316.266 65.1503 316.266 66.4463ZM312.786 65.4863C312.77 64.6223 312.458 63.9343 311.85 63.4223C311.242 62.8943 310.498 62.6303 309.618 62.6303C308.786 62.6303 308.082 62.8863 307.506 63.3983C306.946 63.8943 306.602 64.5903 306.474 65.4863H312.786ZM167.743 104.598C166.655 104.598 165.679 104.406 164.815 104.022C163.951 103.622 163.263 103.086 162.751 102.414C162.255 101.742 161.983 100.998 161.935 100.182H165.319C165.383 100.694 165.631 101.118 166.063 101.454C166.511 101.79 167.063 101.958 167.719 101.958C168.359 101.958 168.855 101.83 169.207 101.574C169.575 101.318 169.759 100.99 169.759 100.59C169.759 100.158 169.535 99.8383 169.087 99.6303C168.655 99.4063 167.959 99.1663 166.999 98.9103C166.007 98.6703 165.191 98.4223 164.551 98.1663C163.927 97.9103 163.383 97.5183 162.919 96.9903C162.471 96.4623 162.247 95.7503 162.247 94.8543C162.247 94.1183 162.455 93.4463 162.871 92.8383C163.303 92.2303 163.911 91.7503 164.695 91.3983C165.495 91.0463 166.431 90.8703 167.503 90.8703C169.087 90.8703 170.351 91.2703 171.295 92.0703C172.239 92.8543 172.759 93.9183 172.855 95.2623H169.639C169.591 94.7343 169.367 94.3183 168.967 94.0143C168.583 93.6943 168.063 93.5343 167.407 93.5343C166.799 93.5343 166.327 93.6463 165.991 93.8703C165.671 94.0943 165.511 94.4063 165.511 94.8063C165.511 95.2543 165.735 95.5983 166.183 95.8383C166.631 96.0623 167.327 96.2943 168.271 96.5343C169.231 96.7743 170.023 97.0223 170.647 97.2783C171.271 97.5343 171.807 97.9343 172.255 98.4783C172.719 99.0063 172.959 99.7103 172.975 100.59C172.975 101.358 172.759 102.046 172.327 102.654C171.911 103.262 171.303 103.742 170.503 104.094C169.719 104.43 168.799 104.598 167.743 104.598ZM187.805 91.0863V104.382H184.421V102.702C183.989 103.278 183.421 103.734 182.717 104.07C182.029 104.39 181.277 104.55 180.461 104.55C179.421 104.55 178.501 104.334 177.701 103.902C176.901 103.454 176.269 102.806 175.805 101.958C175.357 101.094 175.133 100.07 175.133 98.8863V91.0863H178.493V98.4063C178.493 99.4623 178.757 100.278 179.285 100.854C179.813 101.414 180.533 101.694 181.445 101.694C182.373 101.694 183.101 101.414 183.629 100.854C184.157 100.278 184.421 99.4623 184.421 98.4063V91.0863H187.805ZM199.239 93.0063C199.671 92.3983 200.263 91.8943 201.015 91.4943C201.783 91.0783 202.655 90.8703 203.631 90.8703C204.767 90.8703 205.791 91.1503 206.703 91.7103C207.631 92.2703 208.359 93.0703 208.887 94.1103C209.431 95.1343 209.703 96.3263 209.703 97.6863C209.703 99.0463 209.431 100.254 208.887 101.31C208.359 102.35 207.631 103.158 206.703 103.734C205.791 104.31 204.767 104.598 203.631 104.598C202.655 104.598 201.791 104.398 201.039 103.998C200.303 103.598 199.703 103.094 199.239 102.486V110.718H195.879V91.0863H199.239V93.0063ZM206.271 97.6863C206.271 96.8863 206.103 96.1983 205.767 95.6223C205.447 95.0303 205.015 94.5823 204.471 94.2783C203.943 93.9743 203.367 93.8223 202.743 93.8223C202.135 93.8223 201.559 93.9823 201.015 94.3023C200.487 94.6063 200.055 95.0543 199.719 95.6463C199.399 96.2383 199.239 96.9343 199.239 97.7343C199.239 98.5343 199.399 99.2303 199.719 99.8223C200.055 100.414 200.487 100.87 201.015 101.19C201.559 101.494 202.135 101.646 202.743 101.646C203.367 101.646 203.943 101.486 204.471 101.166C205.015 100.846 205.447 100.39 205.767 99.7983C206.103 99.2063 206.271 98.5023 206.271 97.6863ZM210.801 97.6863C210.801 96.3423 211.065 95.1503 211.593 94.1103C212.137 93.0703 212.865 92.2703 213.777 91.7103C214.705 91.1503 215.737 90.8703 216.873 90.8703C217.865 90.8703 218.729 91.0703 219.465 91.4703C220.217 91.8703 220.817 92.3743 221.265 92.9823V91.0863H224.649V104.382H221.265V102.438C220.833 103.062 220.233 103.582 219.465 103.998C218.713 104.398 217.841 104.598 216.849 104.598C215.729 104.598 214.705 104.31 213.777 103.734C212.865 103.158 212.137 102.35 211.593 101.31C211.065 100.254 210.801 99.0463 210.801 97.6863ZM221.265 97.7343C221.265 96.9183 221.105 96.2223 220.785 95.6463C220.465 95.0543 220.033 94.6063 219.489 94.3023C218.945 93.9823 218.361 93.8223 217.737 93.8223C217.113 93.8223 216.537 93.9743 216.009 94.2783C215.481 94.5823 215.049 95.0303 214.713 95.6223C214.393 96.1983 214.233 96.8863 214.233 97.6863C214.233 98.4863 214.393 99.1903 214.713 99.7983C215.049 100.39 215.481 100.846 216.009 101.166C216.553 101.486 217.129 101.646 217.737 101.646C218.361 101.646 218.945 101.494 219.489 101.19C220.033 100.87 220.465 100.422 220.785 99.8463C221.105 99.2543 221.265 98.5503 221.265 97.7343ZM230.81 93.1503C231.242 92.4463 231.802 91.8943 232.49 91.4943C233.194 91.0943 233.994 90.8943 234.89 90.8943V94.4223H234.002C232.946 94.4223 232.146 94.6703 231.602 95.1663C231.074 95.6623 230.81 96.5263 230.81 97.7583V104.382H227.45V91.0863H230.81V93.1503ZM235.81 97.7343C235.81 96.3583 236.09 95.1583 236.65 94.1343C237.21 93.0943 237.986 92.2943 238.978 91.7343C239.97 91.1583 241.106 90.8703 242.386 90.8703C244.034 90.8703 245.394 91.2863 246.466 92.1183C247.554 92.9343 248.282 94.0863 248.65 95.5743H245.026C244.834 94.9983 244.506 94.5503 244.042 94.2303C243.594 93.8943 243.034 93.7263 242.362 93.7263C241.402 93.7263 240.642 94.0783 240.082 94.7823C239.522 95.4703 239.242 96.4543 239.242 97.7343C239.242 98.9983 239.522 99.9823 240.082 100.686C240.642 101.374 241.402 101.718 242.362 101.718C243.722 101.718 244.61 101.11 245.026 99.8943H248.65C248.282 101.334 247.554 102.478 246.466 103.326C245.378 104.174 244.018 104.598 242.386 104.598C241.106 104.598 239.97 104.318 238.978 103.758C237.986 103.182 237.21 102.382 236.65 101.358C236.09 100.318 235.81 99.1103 235.81 97.7343ZM262.991 97.4463C262.991 97.9263 262.959 98.3583 262.895 98.7423H253.175C253.255 99.7023 253.591 100.454 254.183 100.998C254.775 101.542 255.503 101.814 256.367 101.814C257.615 101.814 258.503 101.278 259.031 100.206H262.655C262.271 101.486 261.535 102.542 260.447 103.374C259.359 104.19 258.023 104.598 256.439 104.598C255.159 104.598 254.007 104.318 252.983 103.758C251.975 103.182 251.183 102.374 250.607 101.334C250.047 100.294 249.767 99.0943 249.767 97.7343C249.767 96.3583 250.047 95.1503 250.607 94.1103C251.167 93.0703 251.951 92.2703 252.959 91.7103C253.967 91.1503 255.127 90.8703 256.439 90.8703C257.703 90.8703 258.831 91.1423 259.823 91.6863C260.831 92.2303 261.607 93.0063 262.151 94.0143C262.711 95.0063 262.991 96.1503 262.991 97.4463ZM259.511 96.4863C259.495 95.6223 259.183 94.9343 258.575 94.4223C257.967 93.8943 257.223 93.6303 256.343 93.6303C255.511 93.6303 254.807 93.8863 254.231 94.3983C253.671 94.8943 253.327 95.5903 253.199 96.4863H259.511ZM268.324 86.6223V104.382H264.964V86.6223H268.324ZM270.299 97.6863C270.299 96.3423 270.563 95.1503 271.091 94.1103C271.635 93.0703 272.363 92.2703 273.275 91.7103C274.203 91.1503 275.235 90.8703 276.371 90.8703C277.363 90.8703 278.227 91.0703 278.963 91.4703C279.715 91.8703 280.315 92.3743 280.763 92.9823V91.0863H284.147V104.382H280.763V102.438C280.331 103.062 279.731 103.582 278.963 103.998C278.211 104.398 277.339 104.598 276.347 104.598C275.227 104.598 274.203 104.31 273.275 103.734C272.363 103.158 271.635 102.35 271.091 101.31C270.563 100.254 270.299 99.0463 270.299 97.6863ZM280.763 97.7343C280.763 96.9183 280.603 96.2223 280.283 95.6463C279.963 95.0543 279.531 94.6063 278.987 94.3023C278.443 93.9823 277.859 93.8223 277.235 93.8223C276.611 93.8223 276.035 93.9743 275.507 94.2783C274.979 94.5823 274.547 95.0303 274.211 95.6223C273.891 96.1983 273.731 96.8863 273.731 97.6863C273.731 98.4863 273.891 99.1903 274.211 99.7983C274.547 100.39 274.979 100.846 275.507 101.166C276.051 101.486 276.627 101.646 277.235 101.646C277.859 101.646 278.443 101.494 278.987 101.19C279.531 100.87 279.963 100.422 280.283 99.8463C280.603 99.2543 280.763 98.5503 280.763 97.7343ZM288.437 104.55C287.829 104.55 287.325 104.366 286.925 103.998C286.541 103.614 286.349 103.142 286.349 102.582C286.349 102.022 286.541 101.558 286.925 101.19C287.325 100.806 287.829 100.614 288.437 100.614C289.029 100.614 289.517 100.806 289.901 101.19C290.285 101.558 290.477 102.022 290.477 102.582C290.477 103.142 290.285 103.614 289.901 103.998C289.517 104.366 289.029 104.55 288.437 104.55Z" fill="#8F3B06"/>
<defs>
<filter id="filter0_d_2434_1371" x="12.8809" y="0" width="106.238" height="257.697" filterUnits="userSpaceOnUse" color-interpolation-filters="sRGB">
<feFlood flood-opacity="0" result="BackgroundImageFix"/>
<feColorMatrix in="SourceAlpha" type="matrix" values="0 0 0 0 0 0 0 0 0 0 0 0 0 0 0 0 0 0 127 0" result="hardAlpha"/>
<feOffset dy="3.11898"/>
<feGaussianBlur stdDeviation="1.55949"/>
<feComposite in2="hardAlpha" operator="out"/>
<feColorMatrix type="matrix" values="0 0 0 0 0 0 0 0 0 0 0 0 0 0 0 0 0 0 0.25 0"/>
<feBlend mode="normal" in2="BackgroundImageFix" result="effect1_dropShadow_2434_1371"/>
<feBlend mode="normal" in="SourceGraphic" in2="effect1_dropShadow_2434_1371" result="shape"/>
</filter>
<clipPath id="clip0_2434_1371">
<rect width="100" height="104" fill="white" transform="matrix(-1 0 0 1 116 0)"/>
</clipPath>
</defs>
</svg>
