<svg width="360" height="104" viewBox="0 0 360 104" fill="none" xmlns="http://www.w3.org/2000/svg">
<g clip-path="url(#clip0_2419_1536)">
<g filter="url(#filter0_d_2419_1536)">
<path fill-rule="evenodd" clip-rule="evenodd" d="M29.2636 97.2476C33.7364 86.0828 37.9783 72.7189 44.6637 68.5448C48.6002 66.0878 62.2288 64.4182 62.2288 64.4182H70.6652C70.6652 64.4182 85.1829 62.7961 89.4656 66.8141C92.927 70.0651 104.75 94.1323 104.75 94.1323C104.75 94.1323 96.9247 102.372 89.4656 102.372C89.6828 112.363 89.7235 121.396 89.7235 121.396C89.7235 121.396 90.0154 122.733 90.4905 125.19C78.1311 126.222 61.2786 126.263 46.8695 122.625C47.1749 119.041 47.3649 116.883 47.3853 116.659L52.2449 84.3317C52.2449 84.3317 49.1771 95.7341 46.9781 102.935C43.5438 102.935 31.9513 100.186 29.2636 97.2408V97.2476Z" fill="#C36363"/>
<path fill-rule="evenodd" clip-rule="evenodd" d="M66.8576 70.1127H67.0137C69.6607 70.1127 71.8054 67.968 71.8054 65.321V50.2739H62.0591V65.321C62.0591 67.968 64.2038 70.1127 66.8508 70.1127H66.8576Z" fill="#EDBA8C"/>
<path opacity="0.25" fill-rule="evenodd" clip-rule="evenodd" d="M71.8121 63.9027C68.5679 64.2488 65.2693 64.0995 62.0658 63.4547V56.3757C65.2897 56.8983 68.5475 57.163 71.8121 57.1766V63.9027Z" fill="#561C2F" stroke="#EDBA8C" stroke-width="0.347756" stroke-miterlimit="22.93"/>
<path fill-rule="evenodd" clip-rule="evenodd" d="M84.7959 10.2773C84.7959 10.2773 84.2394 5.4924 82.1353 3.3816C80.0245 1.27759 66.4638 -1.34904 59.6156 0.802487C57.4641 3.06939 56.0863 7.54212 56.0863 7.54212L84.7959 10.2773Z" fill="#845E40"/>
<path fill-rule="evenodd" clip-rule="evenodd" d="M31.1842 18.8971C30.3901 27.6661 47.039 36.3333 68.3709 38.2676C89.7029 40.2019 107.635 34.6568 108.429 25.8946C109.223 17.1256 92.5739 8.45846 71.2419 6.52412C49.9099 4.58979 31.9783 10.1349 31.1842 18.8971Z" fill="#F1D054"/>
<mask id="mask0_2419_1536" style="mask-type:luminance" maskUnits="userSpaceOnUse" x="31" y="6" width="78" height="33">
<path d="M31.1842 18.8971C30.3901 27.6661 47.039 36.3333 68.3709 38.2676C89.7029 40.2019 107.635 34.6568 108.429 25.8946C109.223 17.1256 92.5739 8.45846 71.2419 6.52412C49.9099 4.58979 31.9783 10.1349 31.1842 18.8971Z" fill="white"/>
</mask>
<g mask="url(#mask0_2419_1536)">
<path opacity="0.3" fill-rule="evenodd" clip-rule="evenodd" d="M31.1842 18.8971C30.3901 27.6661 47.039 36.3333 68.3709 38.2676C89.7029 40.2019 107.635 34.6568 108.429 25.8946C109.223 17.1256 92.5739 8.45846 71.2419 6.52412C49.9099 4.58979 31.9783 10.1349 31.1842 18.8971Z" fill="#CB2E45"/>
</g>
<path fill-rule="evenodd" clip-rule="evenodd" d="M64.0755 20.1189L54.9772 18.0583C52.5924 17.514 50.0775 18.428 48.6615 20.3854C44.2286 26.5307 35.7819 41.1408 38.4546 60.6343C38.8232 63.3225 41.1896 65.3183 44.0386 65.4025C48.7666 65.5355 52.1315 65.6485 54.5082 65.73C57.61 65.8476 60.3182 63.6757 60.7224 60.7272C61.8613 52.4876 64.3894 36.5427 68.0801 27.4703C69.3656 24.3267 67.4719 20.886 64.0575 20.1229L64.0755 20.1189Z" fill="black"/>
<path fill-rule="evenodd" clip-rule="evenodd" d="M44.046 33.5234C45.5392 36.5641 48.3151 38.2541 50.2495 37.3039C52.1838 36.3537 52.5367 33.123 51.0436 30.0823C49.5504 27.0417 46.7744 25.3517 44.8401 26.3019C42.9058 27.2521 42.5528 30.4828 44.046 33.5234Z" fill="#EDBA8C"/>
<path fill-rule="evenodd" clip-rule="evenodd" d="M70.6182 14.6621L80.5589 13.1008C83.1648 12.687 85.8056 13.8521 87.1884 16.0609C91.516 22.9945 99.5528 39.3282 95.2701 60.1153C94.6796 62.9819 91.9887 64.9592 88.9163 64.8443C83.8183 64.6464 80.1886 64.5252 77.6248 64.4415C74.278 64.3444 71.5199 61.8115 71.2976 58.609C70.6663 49.6589 69.0955 32.3157 65.7779 22.2852C64.6211 18.8092 66.9074 15.2428 70.6372 14.6677L70.6182 14.6621Z" fill="black"/>
<path fill-rule="evenodd" clip-rule="evenodd" d="M49.5436 40.1137L51.4168 22.4739C52.2856 14.2886 59.6293 8.35665 67.8146 9.23219L74.9004 9.98556C83.0857 10.8543 89.0176 18.198 88.1421 26.3833L86.2688 44.0231C85.4001 52.2084 78.0564 58.1403 69.8711 57.2648L62.7853 56.5114C54.6 55.6427 48.668 48.299 49.5436 40.1137Z" fill="#EDBA8C"/>
<path fill-rule="evenodd" clip-rule="evenodd" d="M92.5332 38.4032C90.5106 41.1181 87.4768 42.2787 85.7461 40.9959C84.0153 39.7132 84.2529 36.4689 86.2755 33.7541C88.298 31.0392 91.3319 29.8786 93.0626 31.1614C94.7865 32.4441 94.5558 35.6884 92.5332 38.4032Z" fill="#EDBA8C"/>
<path fill-rule="evenodd" clip-rule="evenodd" d="M92.3909 33.4758C89.7303 33.8084 88.7598 36.5911 88.0743 38.7969C87.9589 39.1702 87.3684 39.0141 87.4838 38.634C88.2711 36.1092 89.4113 33.2383 92.3909 32.865C92.7777 32.8175 92.7777 33.4215 92.3909 33.4758Z" fill="#561C2F"/>
<path fill-rule="evenodd" clip-rule="evenodd" d="M90.9249 36.7607C90.3344 36.3603 89.7032 36.1024 89.0041 35.9734C88.6172 35.8987 88.7801 35.315 89.167 35.3829C89.9136 35.5187 90.6059 35.8105 91.2303 36.2313C91.5493 36.4485 91.2507 36.9779 90.9249 36.7539V36.7607Z" fill="#561C2F"/>
<path fill-rule="evenodd" clip-rule="evenodd" d="M48.8985 35.9735C49.0343 33.1636 47.9755 30.5913 45.9054 28.6909C45.6135 28.4262 46.0479 27.9918 46.333 28.2633C48.5116 30.2723 49.6383 33.0211 49.5026 35.9803C49.4822 36.3739 48.8782 36.3739 48.8917 35.9803L48.8985 35.9735Z" fill="#561C2F"/>
<path fill-rule="evenodd" clip-rule="evenodd" d="M48.1724 31.9893C47.29 32.0978 46.5299 32.5458 45.9733 33.2245C45.7222 33.5299 45.2946 33.0956 45.5457 32.7969C46.2109 31.9825 47.1339 31.5074 48.1724 31.3852C48.5592 31.3377 48.5592 31.9485 48.1724 31.996V31.9893Z" fill="#561C2F"/>
<path fill-rule="evenodd" clip-rule="evenodd" d="M46.8693 122.618C46.9508 122.632 47.039 122.645 47.1272 122.659L47.1476 121.824C58.5704 93.7254 50.9484 66.4207 50.9484 66.4207L56.3374 65.1583C56.3374 65.1583 60.1925 75.5766 59.473 88.316C59.473 88.316 73.8279 87.9631 82.529 88.6554C82.3729 76.6693 80.4589 64.0859 80.4589 64.0859L86.1058 64.9275C86.1058 64.9275 91.1758 97.4923 89.4654 102.365L89.7233 121.39L90.2392 123.955H90.2527C90.3749 124.58 90.5242 125.326 90.6803 126.168V126.182C93.5988 141.609 101.757 191.963 94.8341 241.244C83.4045 242.079 81.8299 241.224 81.8299 241.224C81.8299 241.224 79.2983 178.68 72.07 145.579L50.1339 239.839L36.9804 238.556C36.9804 238.556 44.7721 147.106 46.8693 122.611V122.618Z" fill="#1E4A47"/>
<mask id="mask1_2419_1536" style="mask-type:luminance" maskUnits="userSpaceOnUse" x="36" y="64" width="62" height="178">
<path d="M46.8693 122.618C46.9508 122.632 47.039 122.645 47.1272 122.659L47.1476 121.824C58.5704 93.7254 50.9484 66.4207 50.9484 66.4207L56.3374 65.1583C56.3374 65.1583 60.1925 75.5766 59.473 88.316C59.473 88.316 73.8279 87.9631 82.529 88.6554C82.3729 76.6693 80.4589 64.0859 80.4589 64.0859L86.1058 64.9275C86.1058 64.9275 91.1758 97.4923 89.4654 102.365L89.7233 121.39L90.2392 123.955H90.2527C90.3749 124.58 90.5242 125.326 90.6803 126.168V126.182C93.5988 141.609 101.757 191.963 94.8341 241.244C83.4045 242.079 81.8299 241.224 81.8299 241.224C81.8299 241.224 79.2983 178.68 72.07 145.579L50.1339 239.839L36.9804 238.556C36.9804 238.556 44.7721 147.106 46.8693 122.611V122.618Z" fill="white"/>
</mask>
<g mask="url(#mask1_2419_1536)">
<path opacity="0.3" fill-rule="evenodd" clip-rule="evenodd" d="M46.8693 122.618C46.9508 122.632 47.039 122.645 47.1272 122.659L47.1476 121.824C58.5704 93.7254 50.9484 66.4207 50.9484 66.4207L56.3374 65.1583C56.3374 65.1583 60.1925 75.5766 59.473 88.316C59.473 88.316 73.8279 87.9631 82.529 88.6554C82.3729 76.6693 80.4589 64.0859 80.4589 64.0859L86.1058 64.9275C86.1058 64.9275 91.1758 97.4923 89.4654 102.365L89.7233 121.39L90.2392 123.955H90.2527C90.3749 124.58 90.5242 125.326 90.6803 126.168V126.182C93.5988 141.609 101.757 191.963 94.8341 241.244C83.4045 242.079 81.8299 241.224 81.8299 241.224C81.8299 241.224 79.2983 178.68 72.07 145.579L50.1339 239.839L36.9804 238.556C36.9804 238.556 44.7721 147.106 46.8693 122.611V122.618Z" fill="#1E4A47"/>
</g>
<path fill-rule="evenodd" clip-rule="evenodd" d="M69.1853 34.5006C68.9952 32.417 68.9613 30.313 69.0834 28.2225C69.1445 27.1977 69.2396 26.1728 69.3753 25.1547C69.4703 24.4081 69.4703 23.4036 69.7757 22.7046C70.1898 21.7544 71.6218 21.6526 71.9069 22.7181C72.1377 23.5665 71.8051 24.5167 71.7169 25.3651C71.5743 26.8447 71.3707 28.3175 71.3028 29.7971C71.2689 30.5166 71.2689 31.2292 71.3164 31.9487C71.3436 32.3898 71.1943 33.245 71.5268 33.5844C71.7101 33.7676 72.0223 33.8219 72.2395 33.6794C72.4091 33.5708 72.4906 33.3672 72.6331 33.2246C72.8775 32.9667 73.2915 32.9056 73.624 33.0346C74.3503 33.3264 74.262 33.9305 74.1195 34.5617C73.9091 35.4712 73.4612 36.3264 72.8028 36.9983C72.4567 37.3512 72.0359 37.6566 71.5472 37.7177C70.8074 37.8128 70.0879 37.3037 69.7214 36.6589C69.3481 36.0074 69.2599 35.2472 69.192 34.5006H69.1853Z" fill="#F1D054"/>
<path fill-rule="evenodd" clip-rule="evenodd" d="M75.8911 31.4804C75.7214 32.8039 76.2983 33.9713 77.1739 34.0799C78.0494 34.1885 78.8978 33.2044 79.0607 31.8809C79.2304 30.5574 78.6535 29.39 77.7779 29.2814C76.9024 29.1728 76.054 30.1569 75.8911 31.4804Z" fill="#561C2F"/>
<path fill-rule="evenodd" clip-rule="evenodd" d="M65.8938 30.4961C65.9345 31.8332 65.249 32.9395 64.3667 32.9599C63.4843 32.987 62.7378 31.9214 62.697 30.5844C62.6563 29.2473 63.3418 28.141 64.2241 28.1206C65.1065 28.0935 65.8531 29.1591 65.8938 30.4961Z" fill="#561C2F"/>
<path fill-rule="evenodd" clip-rule="evenodd" d="M81.7824 27.0281C80.9951 25.0598 79.0743 24.0621 77.0111 24.3133C76.2034 24.4083 76.2102 23.1459 77.0111 23.0509C79.6852 22.7319 82.02 24.2318 83.0041 26.6956C83.3095 27.4557 82.081 27.7815 81.7824 27.0349V27.0281Z" fill="#561C2F"/>
<path fill-rule="evenodd" clip-rule="evenodd" d="M65.9685 22.9895C64.1292 22.2769 62.1813 22.8267 60.9596 24.3741C60.4574 25.0121 59.5682 24.1162 60.0637 23.4782C61.5297 21.6118 64.0953 20.9195 66.3011 21.7679C67.0545 22.0597 66.7287 23.2814 65.9617 22.9895H65.9685Z" fill="#561C2F"/>
<path fill-rule="evenodd" clip-rule="evenodd" d="M31.6798 99.372L45.3491 104.673C45.0166 106.18 44.684 107.686 44.3514 109.193C53.6498 109.539 62.9414 109.96 72.233 110.421C72.9932 112.973 73.6244 115.566 73.9773 118.206C60.5659 123.507 45.1523 123.541 31.7205 118.288C31.2319 118.098 30.7228 117.881 30.3835 117.48C29.9423 116.958 29.8609 116.225 29.8201 115.546C29.4808 110.096 30.1188 104.591 31.6934 99.3652L31.6798 99.372Z" fill="#EDBA8C"/>
<mask id="mask2_2419_1536" style="mask-type:luminance" maskUnits="userSpaceOnUse" x="29" y="99" width="45" height="24">
<path d="M31.6798 99.372L45.3491 104.673C45.0166 106.18 44.684 107.686 44.3514 109.193C53.6498 109.539 62.9414 109.96 72.233 110.421C72.9932 112.973 73.6244 115.566 73.9773 118.206C60.5659 123.507 45.1523 123.541 31.7205 118.288C31.2319 118.098 30.7228 117.881 30.3835 117.48C29.9423 116.958 29.8609 116.225 29.8201 115.546C29.4808 110.096 30.1188 104.591 31.6934 99.3652L31.6798 99.372Z" fill="white"/>
</mask>
<g mask="url(#mask2_2419_1536)">
<path opacity="0.2" fill-rule="evenodd" clip-rule="evenodd" d="M31.6798 99.372L45.3491 104.673C45.0166 106.18 44.684 107.686 44.3514 109.193C53.6498 109.539 62.9414 109.96 72.233 110.421C72.9932 112.973 73.6244 115.566 73.9773 118.206C60.5659 123.507 45.1523 123.541 31.7205 118.288C31.2319 118.098 30.7228 117.881 30.3835 117.48C29.9423 116.958 29.8609 116.225 29.8201 115.546C29.4808 110.096 30.1188 104.591 31.6934 99.3652L31.6798 99.372Z" fill="#CB2E45"/>
</g>
<path fill-rule="evenodd" clip-rule="evenodd" d="M72.4432 40.1134C69.8573 42.0071 66.4162 40.3374 66.1379 37.195C66.104 36.7877 66.7352 36.7945 66.7691 37.195C67.0067 39.9098 69.9659 41.1451 72.1242 39.5637C72.4568 39.3193 72.769 39.8691 72.4432 40.1134Z" fill="#561C2F"/>
<path opacity="0.16" fill-rule="evenodd" clip-rule="evenodd" d="M88.2573 27.9511C87.8094 27.8358 87.3682 27.7204 86.927 27.605C80.8797 26.044 74.6762 24.9105 68.4592 24.32C64.163 23.9128 59.8803 23.8042 55.6044 23.9399C53.9212 23.9196 52.2515 23.9196 50.609 23.9399C50.609 23.9399 52.2447 17.465 53.6633 15.456C65.0928 14.8452 77.1128 16.2297 87.6058 20.5124C88.1623 22.3585 88.3659 24.3404 88.1487 26.3765L88.2573 27.9444V27.9511Z" fill="#561C2F"/>
<path fill-rule="evenodd" clip-rule="evenodd" d="M49.489 13.2092L57.6132 9.01474C60.7353 8.96044 63.8642 8.94687 66.9862 8.99438C71.0517 9.05546 75.0562 9.19799 79.0877 9.67309L79.7054 9.91064L85.678 13.216L93.5647 18.1706C93.5647 18.1706 96.0352 19.942 96.0352 21.2316L96.8768 26.064C96.8768 26.064 74.106 14.1798 45.6407 19.7724C29.2701 20.4511 49.5026 13.2092 49.5026 13.2092H49.489Z" fill="#E6A050"/>
<path fill-rule="evenodd" clip-rule="evenodd" d="M104.03 96.9968C106.338 102.739 107.662 108.881 107.926 115.064C107.953 115.655 107.96 116.293 107.641 116.795C107.37 117.229 106.901 117.494 106.447 117.725C99.4084 121.308 91.0467 120.569 83.194 119.734C82.203 119.625 71.0314 118.146 71.0653 117.698C71.2486 115.193 71.6422 112.709 72.2327 110.266C76.3864 109.166 80.6352 109.078 84.9111 108.705C87.3545 108.494 89.8182 108.162 92.2548 107.972C92.1801 106.288 92.0987 104.605 92.024 102.922L104.03 96.99V96.9968Z" fill="#EDBA8C"/>
<path opacity="0.15" fill-rule="evenodd" clip-rule="evenodd" d="M31.6797 99.3721L45.349 104.673C45.0775 105.915 44.7992 107.157 44.521 108.399C43.659 108.474 42.797 108.508 41.9351 108.514C37.9442 108.548 33.9466 108.223 30.0033 107.571C30.3155 104.795 30.8652 102.046 31.6729 99.3721H31.6797Z" fill="#561C2F"/>
<path opacity="0.15" fill-rule="evenodd" clip-rule="evenodd" d="M92.1667 106.119C92.1192 105.053 92.0717 103.987 92.0174 102.929L104.024 96.9966C104.838 99.0192 105.524 101.089 106.087 103.2C101.703 105.399 96.8974 106.661 92.1667 106.125V106.119Z" fill="#561C2F"/>
<path fill-rule="evenodd" clip-rule="evenodd" d="M47.2764 97.8315C43.6793 96.7863 35.2157 94.2683 31.5506 92.7548C30.5733 92.3475 29.4602 92.843 29.0869 93.8271C28.51 95.3475 28.1503 96.6506 27.9399 97.5533C27.7498 98.3474 28.096 99.1686 28.8018 99.5894C31.4963 101.191 38.6432 104.944 45.9869 104.578C46.8013 104.537 47.514 103.994 47.738 103.207C48.1181 101.863 48.3895 100.825 48.566 100.051C48.7968 99.0804 48.2266 98.1098 47.2697 97.8315H47.2764Z" fill="#CA4040"/>
<path fill-rule="evenodd" clip-rule="evenodd" d="M104.533 91.2277L106.08 94.3362C106.488 95.1506 106.352 96.128 105.727 96.7931C103.766 98.8768 98.9267 103.078 91.298 103.669C90.246 103.75 89.289 103.058 89.0175 102.04C88.5695 100.35 88.2438 99.1483 88.013 98.2999C87.7076 97.1936 88.3048 96.0465 89.3908 95.6665C92.4246 94.6009 98.2684 92.4222 101.404 90.3725C102.49 89.6598 103.956 90.0671 104.533 91.2345V91.2277Z" fill="#CA4040"/>
<path opacity="0.3" fill-rule="evenodd" clip-rule="evenodd" d="M47.2764 97.8315C43.6793 96.7863 35.2157 94.2683 31.5506 92.7548C30.5733 92.3475 29.4602 92.843 29.0869 93.8271C28.51 95.3475 28.1503 96.6506 27.9399 97.5533C27.7498 98.3474 28.096 99.1686 28.8018 99.5894C31.4963 101.191 38.6432 104.944 45.9869 104.578C46.8013 104.537 47.514 103.994 47.738 103.207C48.1181 101.863 48.3895 100.825 48.566 100.051C48.7968 99.0804 48.2266 98.1098 47.2697 97.8315H47.2764Z" fill="#CB2E45"/>
<path opacity="0.3" fill-rule="evenodd" clip-rule="evenodd" d="M104.533 91.2277L106.08 94.3362C106.488 95.1506 106.352 96.128 105.727 96.7931C103.766 98.8768 98.9267 103.078 91.298 103.669C90.246 103.75 89.289 103.058 89.0175 102.04C88.5695 100.35 88.2438 99.1483 88.013 98.2999C87.7076 97.1936 88.3048 96.0465 89.3908 95.6665C92.4246 94.6009 98.2684 92.4222 101.404 90.3725C102.49 89.6598 103.956 90.0671 104.533 91.2345V91.2277Z" fill="#CB2E45"/>
<path opacity="0.3" fill-rule="evenodd" clip-rule="evenodd" d="M69.1853 34.5006C68.9952 32.417 68.9613 30.313 69.0834 28.2225C69.1445 27.1977 69.2396 26.1728 69.3753 25.1547C69.4703 24.4081 69.4703 23.4036 69.7757 22.7046C70.1898 21.7544 71.6218 21.6526 71.9069 22.7181C72.1377 23.5665 71.8051 24.5167 71.7169 25.3651C71.5743 26.8447 71.3707 28.3175 71.3028 29.7971C71.2689 30.5166 71.2689 31.2292 71.3164 31.9487C71.3436 32.3898 71.1943 33.245 71.5268 33.5844C71.7101 33.7676 72.0223 33.8219 72.2395 33.6794C72.4091 33.5708 72.4906 33.3672 72.6331 33.2246C72.8775 32.9667 73.2915 32.9056 73.624 33.0346C74.3503 33.3264 74.262 33.9305 74.1195 34.5617C73.9091 35.4712 73.4612 36.3264 72.8028 36.9983C72.4567 37.3512 72.0359 37.6566 71.5472 37.7177C70.8074 37.8128 70.0879 37.3037 69.7214 36.6589C69.3481 36.0074 69.2599 35.2472 69.192 34.5006H69.1853Z" fill="#CB2E45"/>
</g>
</g>
<path d="M168.304 22.3213C152.749 22.6653 136.962 30.8183 121.6 39.6983L151.939 53.1627C151.626 37.709 156.408 32.3025 168.304 22.3213Z" fill="white"/>
<rect x="144.099" y="9.5" width="199.901" height="85" rx="16" fill="white"/>
<path d="M174.872 34.432C174.872 35.328 174.656 36.168 174.224 36.952C173.808 37.736 173.144 38.368 172.232 38.848C171.336 39.328 170.2 39.568 168.824 39.568H166.016V46H162.656V29.248H168.824C170.12 29.248 171.224 29.472 172.136 29.92C173.048 30.368 173.728 30.984 174.176 31.768C174.64 32.552 174.872 33.44 174.872 34.432ZM168.68 36.856C169.608 36.856 170.296 36.648 170.744 36.232C171.192 35.8 171.416 35.2 171.416 34.432C171.416 32.8 170.504 31.984 168.68 31.984H166.016V36.856H168.68ZM180.138 34.768C180.57 34.064 181.13 33.512 181.818 33.112C182.522 32.712 183.322 32.512 184.218 32.512V36.04H183.33C182.274 36.04 181.474 36.288 180.93 36.784C180.402 37.28 180.138 38.144 180.138 39.376V46H176.778V32.704H180.138V34.768ZM187.705 31.12C187.113 31.12 186.617 30.936 186.217 30.568C185.833 30.184 185.641 29.712 185.641 29.152C185.641 28.592 185.833 28.128 186.217 27.76C186.617 27.376 187.113 27.184 187.705 27.184C188.297 27.184 188.785 27.376 189.169 27.76C189.569 28.128 189.769 28.592 189.769 29.152C189.769 29.712 189.569 30.184 189.169 30.568C188.785 30.936 188.297 31.12 187.705 31.12ZM189.361 32.704V46H186.001V32.704H189.361ZM208.712 32.512C210.344 32.512 211.656 33.016 212.648 34.024C213.656 35.016 214.16 36.408 214.16 38.2V46H210.8V38.656C210.8 37.616 210.536 36.824 210.008 36.28C209.48 35.72 208.76 35.44 207.848 35.44C206.936 35.44 206.208 35.72 205.664 36.28C205.136 36.824 204.872 37.616 204.872 38.656V46H201.512V38.656C201.512 37.616 201.248 36.824 200.72 36.28C200.192 35.72 199.472 35.44 198.56 35.44C197.632 35.44 196.896 35.72 196.352 36.28C195.824 36.824 195.56 37.616 195.56 38.656V46H192.2V32.704H195.56V34.312C195.992 33.752 196.544 33.312 197.216 32.992C197.904 32.672 198.656 32.512 199.472 32.512C200.512 32.512 201.44 32.736 202.256 33.184C203.072 33.616 203.704 34.24 204.152 35.056C204.584 34.288 205.208 33.672 206.024 33.208C206.856 32.744 207.752 32.512 208.712 32.512ZM229.229 39.064C229.229 39.544 229.197 39.976 229.133 40.36H219.413C219.493 41.32 219.829 42.072 220.421 42.616C221.013 43.16 221.741 43.432 222.605 43.432C223.853 43.432 224.741 42.896 225.269 41.824H228.893C228.509 43.104 227.773 44.16 226.685 44.992C225.597 45.808 224.261 46.216 222.677 46.216C221.397 46.216 220.245 45.936 219.221 45.376C218.213 44.8 217.421 43.992 216.845 42.952C216.285 41.912 216.005 40.712 216.005 39.352C216.005 37.976 216.285 36.768 216.845 35.728C217.405 34.688 218.189 33.888 219.197 33.328C220.205 32.768 221.365 32.488 222.677 32.488C223.941 32.488 225.069 32.76 226.061 33.304C227.069 33.848 227.845 34.624 228.389 35.632C228.949 36.624 229.229 37.768 229.229 39.064ZM225.749 38.104C225.733 37.24 225.421 36.552 224.813 36.04C224.205 35.512 223.461 35.248 222.581 35.248C221.749 35.248 221.045 35.504 220.469 36.016C219.909 36.512 219.565 37.208 219.437 38.104H225.749ZM234.561 34.768C234.993 34.064 235.553 33.512 236.241 33.112C236.945 32.712 237.745 32.512 238.641 32.512V36.04H237.753C236.697 36.04 235.897 36.288 235.353 36.784C234.825 37.28 234.561 38.144 234.561 39.376V46H231.201V32.704H234.561V34.768ZM246.328 46.216C245.048 46.216 243.896 45.936 242.872 45.376C241.848 44.8 241.04 43.992 240.448 42.952C239.872 41.912 239.584 40.712 239.584 39.352C239.584 37.992 239.88 36.792 240.472 35.752C241.08 34.712 241.904 33.912 242.944 33.352C243.984 32.776 245.144 32.488 246.424 32.488C247.704 32.488 248.864 32.776 249.904 33.352C250.944 33.912 251.76 34.712 252.352 35.752C252.96 36.792 253.264 37.992 253.264 39.352C253.264 40.712 252.952 41.912 252.328 42.952C251.72 43.992 250.888 44.8 249.832 45.376C248.792 45.936 247.624 46.216 246.328 46.216ZM246.328 43.288C246.936 43.288 247.504 43.144 248.032 42.856C248.576 42.552 249.008 42.104 249.328 41.512C249.648 40.92 249.808 40.2 249.808 39.352C249.808 38.088 249.472 37.12 248.8 36.448C248.144 35.76 247.336 35.416 246.376 35.416C245.416 35.416 244.608 35.76 243.952 36.448C243.312 37.12 242.992 38.088 242.992 39.352C242.992 40.616 243.304 41.592 243.928 42.28C244.568 42.952 245.368 43.288 246.328 43.288ZM175.016 70.064C175.016 70.544 174.984 70.976 174.92 71.36H165.2C165.28 72.32 165.616 73.072 166.208 73.616C166.8 74.16 167.528 74.432 168.392 74.432C169.64 74.432 170.528 73.896 171.056 72.824H174.68C174.296 74.104 173.56 75.16 172.472 75.992C171.384 76.808 170.048 77.216 168.464 77.216C167.184 77.216 166.032 76.936 165.008 76.376C164 75.8 163.208 74.992 162.632 73.952C162.072 72.912 161.792 71.712 161.792 70.352C161.792 68.976 162.072 67.768 162.632 66.728C163.192 65.688 163.976 64.888 164.984 64.328C165.992 63.768 167.152 63.488 168.464 63.488C169.728 63.488 170.856 63.76 171.848 64.304C172.856 64.848 173.632 65.624 174.176 66.632C174.736 67.624 175.016 68.768 175.016 70.064ZM171.536 69.104C171.52 68.24 171.208 67.552 170.6 67.04C169.992 66.512 169.248 66.248 168.368 66.248C167.536 66.248 166.832 66.504 166.256 67.016C165.696 67.512 165.352 68.208 165.224 69.104H171.536ZM182.077 77.216C180.989 77.216 180.013 77.024 179.149 76.64C178.285 76.24 177.597 75.704 177.085 75.032C176.589 74.36 176.317 73.616 176.269 72.8H179.653C179.717 73.312 179.965 73.736 180.397 74.072C180.845 74.408 181.397 74.576 182.053 74.576C182.693 74.576 183.189 74.448 183.541 74.192C183.909 73.936 184.093 73.608 184.093 73.208C184.093 72.776 183.869 72.456 183.421 72.248C182.989 72.024 182.293 71.784 181.333 71.528C180.341 71.288 179.525 71.04 178.885 70.784C178.261 70.528 177.717 70.136 177.253 69.608C176.805 69.08 176.581 68.368 176.581 67.472C176.581 66.736 176.789 66.064 177.205 65.456C177.637 64.848 178.245 64.368 179.029 64.016C179.829 63.664 180.765 63.488 181.837 63.488C183.421 63.488 184.685 63.888 185.629 64.688C186.573 65.472 187.093 66.536 187.189 67.88H183.973C183.925 67.352 183.701 66.936 183.301 66.632C182.917 66.312 182.397 66.152 181.741 66.152C181.133 66.152 180.661 66.264 180.325 66.488C180.005 66.712 179.845 67.024 179.845 67.424C179.845 67.872 180.069 68.216 180.517 68.456C180.965 68.68 181.661 68.912 182.605 69.152C183.565 69.392 184.357 69.64 184.981 69.896C185.605 70.152 186.141 70.552 186.589 71.096C187.053 71.624 187.293 72.328 187.309 73.208C187.309 73.976 187.093 74.664 186.661 75.272C186.245 75.88 185.637 76.36 184.837 76.712C184.053 77.048 183.133 77.216 182.077 77.216ZM188.723 70.352C188.723 68.976 189.003 67.776 189.563 66.752C190.123 65.712 190.899 64.912 191.891 64.352C192.883 63.776 194.019 63.488 195.299 63.488C196.947 63.488 198.307 63.904 199.379 64.736C200.467 65.552 201.195 66.704 201.563 68.192H197.939C197.747 67.616 197.419 67.168 196.955 66.848C196.507 66.512 195.947 66.344 195.275 66.344C194.315 66.344 193.555 66.696 192.995 67.4C192.435 68.088 192.155 69.072 192.155 70.352C192.155 71.616 192.435 72.6 192.995 73.304C193.555 73.992 194.315 74.336 195.275 74.336C196.635 74.336 197.523 73.728 197.939 72.512H201.563C201.195 73.952 200.467 75.096 199.379 75.944C198.291 76.792 196.931 77.216 195.299 77.216C194.019 77.216 192.883 76.936 191.891 76.376C190.899 75.8 190.123 75 189.563 73.976C189.003 72.936 188.723 71.728 188.723 70.352ZM209.448 77.216C208.168 77.216 207.016 76.936 205.992 76.376C204.968 75.8 204.16 74.992 203.568 73.952C202.992 72.912 202.704 71.712 202.704 70.352C202.704 68.992 203 67.792 203.592 66.752C204.2 65.712 205.024 64.912 206.064 64.352C207.104 63.776 208.264 63.488 209.544 63.488C210.824 63.488 211.984 63.776 213.024 64.352C214.064 64.912 214.88 65.712 215.472 66.752C216.08 67.792 216.384 68.992 216.384 70.352C216.384 71.712 216.072 72.912 215.448 73.952C214.84 74.992 214.008 75.8 212.952 76.376C211.912 76.936 210.744 77.216 209.448 77.216ZM209.448 74.288C210.056 74.288 210.624 74.144 211.152 73.856C211.696 73.552 212.128 73.104 212.448 72.512C212.768 71.92 212.928 71.2 212.928 70.352C212.928 69.088 212.592 68.12 211.92 67.448C211.264 66.76 210.456 66.416 209.496 66.416C208.536 66.416 207.728 66.76 207.072 67.448C206.432 68.12 206.112 69.088 206.112 70.352C206.112 71.616 206.424 72.592 207.048 73.28C207.688 73.952 208.488 74.288 209.448 74.288ZM223.577 63.488C224.569 63.488 225.441 63.688 226.193 64.088C226.945 64.472 227.537 64.976 227.969 65.6V63.704H231.353V77.096C231.353 78.328 231.105 79.424 230.609 80.384C230.113 81.36 229.369 82.128 228.377 82.688C227.385 83.264 226.185 83.552 224.777 83.552C222.889 83.552 221.337 83.112 220.121 82.232C218.921 81.352 218.241 80.152 218.081 78.632H221.417C221.593 79.24 221.969 79.72 222.545 80.072C223.137 80.44 223.849 80.624 224.681 80.624C225.657 80.624 226.449 80.328 227.057 79.736C227.665 79.16 227.969 78.28 227.969 77.096V75.032C227.537 75.656 226.937 76.176 226.169 76.592C225.417 77.008 224.553 77.216 223.577 77.216C222.457 77.216 221.433 76.928 220.505 76.352C219.577 75.776 218.841 74.968 218.297 73.928C217.769 72.872 217.505 71.664 217.505 70.304C217.505 68.96 217.769 67.768 218.297 66.728C218.841 65.688 219.569 64.888 220.481 64.328C221.409 63.768 222.441 63.488 223.577 63.488ZM227.969 70.352C227.969 69.536 227.809 68.84 227.489 68.264C227.169 67.672 226.737 67.224 226.193 66.92C225.649 66.6 225.065 66.44 224.441 66.44C223.817 66.44 223.241 66.592 222.713 66.896C222.185 67.2 221.753 67.648 221.417 68.24C221.097 68.816 220.937 69.504 220.937 70.304C220.937 71.104 221.097 71.808 221.417 72.416C221.753 73.008 222.185 73.464 222.713 73.784C223.257 74.104 223.833 74.264 224.441 74.264C225.065 74.264 225.649 74.112 226.193 73.808C226.737 73.488 227.169 73.04 227.489 72.464C227.809 71.872 227.969 71.168 227.969 70.352ZM246.514 70.064C246.514 70.544 246.482 70.976 246.418 71.36H236.698C236.778 72.32 237.114 73.072 237.706 73.616C238.298 74.16 239.026 74.432 239.89 74.432C241.138 74.432 242.026 73.896 242.554 72.824H246.178C245.794 74.104 245.058 75.16 243.97 75.992C242.882 76.808 241.546 77.216 239.962 77.216C238.682 77.216 237.53 76.936 236.506 76.376C235.498 75.8 234.706 74.992 234.13 73.952C233.57 72.912 233.29 71.712 233.29 70.352C233.29 68.976 233.57 67.768 234.13 66.728C234.69 65.688 235.474 64.888 236.482 64.328C237.49 63.768 238.65 63.488 239.962 63.488C241.226 63.488 242.354 63.76 243.346 64.304C244.354 64.848 245.13 65.624 245.674 66.632C246.234 67.624 246.514 68.768 246.514 70.064ZM243.034 69.104C243.018 68.24 242.706 67.552 242.098 67.04C241.49 66.512 240.746 66.248 239.866 66.248C239.034 66.248 238.33 66.504 237.754 67.016C237.194 67.512 236.85 68.208 236.722 69.104H243.034ZM257.638 66.464V72.896C257.638 73.344 257.742 73.672 257.95 73.88C258.174 74.072 258.542 74.168 259.054 74.168H260.614V77H258.502C255.67 77 254.254 75.624 254.254 72.872V66.464H252.67V63.704H254.254V60.416H257.638V63.704H260.614V66.464H257.638ZM275.102 63.704V77H271.718V75.32C271.286 75.896 270.718 76.352 270.014 76.688C269.326 77.008 268.574 77.168 267.758 77.168C266.718 77.168 265.798 76.952 264.998 76.52C264.198 76.072 263.566 75.424 263.102 74.576C262.654 73.712 262.43 72.688 262.43 71.504V63.704H265.79V71.024C265.79 72.08 266.054 72.896 266.582 73.472C267.11 74.032 267.83 74.312 268.742 74.312C269.67 74.312 270.398 74.032 270.926 73.472C271.454 72.896 271.718 72.08 271.718 71.024V63.704H275.102ZM286.536 65.624C286.968 65.016 287.56 64.512 288.312 64.112C289.08 63.696 289.952 63.488 290.928 63.488C292.064 63.488 293.088 63.768 294 64.328C294.928 64.888 295.656 65.688 296.184 66.728C296.728 67.752 297 68.944 297 70.304C297 71.664 296.728 72.872 296.184 73.928C295.656 74.968 294.928 75.776 294 76.352C293.088 76.928 292.064 77.216 290.928 77.216C289.952 77.216 289.088 77.016 288.336 76.616C287.6 76.216 287 75.712 286.536 75.104V83.336H283.176V63.704H286.536V65.624ZM293.568 70.304C293.568 69.504 293.4 68.816 293.064 68.24C292.744 67.648 292.312 67.2 291.768 66.896C291.24 66.592 290.664 66.44 290.04 66.44C289.432 66.44 288.856 66.6 288.312 66.92C287.784 67.224 287.352 67.672 287.016 68.264C286.696 68.856 286.536 69.552 286.536 70.352C286.536 71.152 286.696 71.848 287.016 72.44C287.352 73.032 287.784 73.488 288.312 73.808C288.856 74.112 289.432 74.264 290.04 74.264C290.664 74.264 291.24 74.104 291.768 73.784C292.312 73.464 292.744 73.008 293.064 72.416C293.4 71.824 293.568 71.12 293.568 70.304ZM298.098 70.304C298.098 68.96 298.362 67.768 298.89 66.728C299.434 65.688 300.162 64.888 301.074 64.328C302.002 63.768 303.034 63.488 304.17 63.488C305.162 63.488 306.026 63.688 306.762 64.088C307.514 64.488 308.114 64.992 308.562 65.6V63.704H311.946V77H308.562V75.056C308.13 75.68 307.53 76.2 306.762 76.616C306.01 77.016 305.138 77.216 304.146 77.216C303.026 77.216 302.002 76.928 301.074 76.352C300.162 75.776 299.434 74.968 298.89 73.928C298.362 72.872 298.098 71.664 298.098 70.304ZM308.562 70.352C308.562 69.536 308.402 68.84 308.082 68.264C307.762 67.672 307.33 67.224 306.786 66.92C306.242 66.6 305.658 66.44 305.034 66.44C304.41 66.44 303.834 66.592 303.306 66.896C302.778 67.2 302.346 67.648 302.01 68.24C301.69 68.816 301.53 69.504 301.53 70.304C301.53 71.104 301.69 71.808 302.01 72.416C302.346 73.008 302.778 73.464 303.306 73.784C303.85 74.104 304.426 74.264 305.034 74.264C305.658 74.264 306.242 74.112 306.786 73.808C307.33 73.488 307.762 73.04 308.082 72.464C308.402 71.872 308.562 71.168 308.562 70.352ZM316.452 62.12C315.86 62.12 315.364 61.936 314.964 61.568C314.58 61.184 314.388 60.712 314.388 60.152C314.388 59.592 314.58 59.128 314.964 58.76C315.364 58.376 315.86 58.184 316.452 58.184C317.044 58.184 317.532 58.376 317.916 58.76C318.316 59.128 318.516 59.592 318.516 60.152C318.516 60.712 318.316 61.184 317.916 61.568C317.532 61.936 317.044 62.12 316.452 62.12ZM318.108 63.704V77H314.748V63.704H318.108ZM326.035 77.216C324.947 77.216 323.971 77.024 323.107 76.64C322.243 76.24 321.555 75.704 321.043 75.032C320.547 74.36 320.275 73.616 320.227 72.8H323.611C323.675 73.312 323.923 73.736 324.355 74.072C324.803 74.408 325.355 74.576 326.011 74.576C326.651 74.576 327.147 74.448 327.499 74.192C327.867 73.936 328.051 73.608 328.051 73.208C328.051 72.776 327.827 72.456 327.379 72.248C326.947 72.024 326.251 71.784 325.291 71.528C324.299 71.288 323.483 71.04 322.843 70.784C322.219 70.528 321.675 70.136 321.211 69.608C320.763 69.08 320.539 68.368 320.539 67.472C320.539 66.736 320.747 66.064 321.163 65.456C321.595 64.848 322.203 64.368 322.987 64.016C323.787 63.664 324.723 63.488 325.795 63.488C327.379 63.488 328.643 63.888 329.587 64.688C330.531 65.472 331.051 66.536 331.147 67.88H327.931C327.883 67.352 327.659 66.936 327.259 66.632C326.875 66.312 326.355 66.152 325.699 66.152C325.091 66.152 324.619 66.264 324.283 66.488C323.963 66.712 323.803 67.024 323.803 67.424C323.803 67.872 324.027 68.216 324.475 68.456C324.923 68.68 325.619 68.912 326.563 69.152C327.523 69.392 328.315 69.64 328.939 69.896C329.563 70.152 330.099 70.552 330.547 71.096C331.011 71.624 331.251 72.328 331.267 73.208C331.267 73.976 331.051 74.664 330.619 75.272C330.203 75.88 329.595 76.36 328.795 76.712C328.011 77.048 327.091 77.216 326.035 77.216Z" fill="#8F3B06"/>
<defs>
<filter id="filter0_d_2419_1536" x="12.8809" y="0" width="106.238" height="257.697" filterUnits="userSpaceOnUse" color-interpolation-filters="sRGB">
<feFlood flood-opacity="0" result="BackgroundImageFix"/>
<feColorMatrix in="SourceAlpha" type="matrix" values="0 0 0 0 0 0 0 0 0 0 0 0 0 0 0 0 0 0 127 0" result="hardAlpha"/>
<feOffset dy="3.11898"/>
<feGaussianBlur stdDeviation="1.55949"/>
<feComposite in2="hardAlpha" operator="out"/>
<feColorMatrix type="matrix" values="0 0 0 0 0 0 0 0 0 0 0 0 0 0 0 0 0 0 0.25 0"/>
<feBlend mode="normal" in2="BackgroundImageFix" result="effect1_dropShadow_2419_1536"/>
<feBlend mode="normal" in="SourceGraphic" in2="effect1_dropShadow_2419_1536" result="shape"/>
</filter>
<clipPath id="clip0_2419_1536">
<rect width="100" height="104" fill="white" transform="matrix(-1 0 0 1 116 0)"/>
</clipPath>
</defs>
</svg>
