<svg width="40" height="41" viewBox="0 0 40 41" fill="none" xmlns="http://www.w3.org/2000/svg">
<mask id="mask0_2419_10977" style="mask-type:alpha" maskUnits="userSpaceOnUse" x="4" y="4" width="32" height="33">
<rect x="4" y="4.12793" width="32" height="32" fill="#D9D9D9"/>
</mask>
<g mask="url(#mask0_2419_10977)">
<path d="M20 20.1276C18.5333 20.1276 17.2778 19.6054 16.2333 18.5609C15.1889 17.5165 14.6666 16.2609 14.6666 14.7943C14.6666 13.3276 15.1889 12.072 16.2333 11.0276C17.2778 9.98316 18.5333 9.46094 20 9.46094C21.4666 9.46094 22.7222 9.98316 23.7666 11.0276C24.8111 12.072 25.3333 13.3276 25.3333 14.7943C25.3333 16.2609 24.8111 17.5165 23.7666 18.5609C22.7222 19.6054 21.4666 20.1276 20 20.1276ZM9.33331 30.7943V27.0609C9.33331 26.3054 9.52776 25.6109 9.91665 24.9776C10.3055 24.3443 10.8222 23.8609 11.4666 23.5276C12.8444 22.8387 14.2444 22.322 15.6666 21.9776C17.0889 21.6332 18.5333 21.4609 20 21.4609C21.4666 21.4609 22.9111 21.6332 24.3333 21.9776C25.7555 22.322 27.1555 22.8387 28.5333 23.5276C29.1778 23.8609 29.6944 24.3443 30.0833 24.9776C30.4722 25.6109 30.6666 26.3054 30.6666 27.0609V30.7943H9.33331ZM12 28.1276H28V27.0609C28 26.8165 27.9389 26.5943 27.8166 26.3943C27.6944 26.1943 27.5333 26.0387 27.3333 25.9276C26.1333 25.3276 24.9222 24.8776 23.7 24.5776C22.4778 24.2776 21.2444 24.1276 20 24.1276C18.7555 24.1276 17.5222 24.2776 16.3 24.5776C15.0778 24.8776 13.8666 25.3276 12.6666 25.9276C12.4666 26.0387 12.3055 26.1943 12.1833 26.3943C12.0611 26.5943 12 26.8165 12 27.0609V28.1276ZM20 17.4609C20.7333 17.4609 21.3611 17.1998 21.8833 16.6776C22.4055 16.1554 22.6666 15.5276 22.6666 14.7943C22.6666 14.0609 22.4055 13.4332 21.8833 12.9109C21.3611 12.3887 20.7333 12.1276 20 12.1276C19.2666 12.1276 18.6389 12.3887 18.1166 12.9109C17.5944 13.4332 17.3333 14.0609 17.3333 14.7943C17.3333 15.5276 17.5944 16.1554 18.1166 16.6776C18.6389 17.1998 19.2666 17.4609 20 17.4609Z" fill="#8F3B06"/>
</g>
</svg>
