<svg width="695" height="633" viewBox="0 0 695 633" fill="none" xmlns="http://www.w3.org/2000/svg">
<g filter="url(#filter0_b_3187_1239)">
<rect width="581.904" height="632.315" rx="34.4832" fill="white" fill-opacity="0.9"/>
<mask id="mask0_3187_1239" style="mask-type:alpha" maskUnits="userSpaceOnUse" x="265" y="34" width="52" height="53">
<rect x="265.09" y="34.4832" width="51.7248" height="51.7248" fill="#D9D9D9"/>
</mask>
<g mask="url(#mask0_3187_1239)">
<path d="M290.952 60.3456C292.137 60.3456 293.152 59.9235 293.996 59.0794C294.84 58.2353 295.262 57.2205 295.262 56.0352C295.262 54.8498 294.84 53.8351 293.996 52.991C293.152 52.1468 292.137 51.7248 290.952 51.7248C289.767 51.7248 288.752 52.1468 287.908 52.991C287.064 53.8351 286.642 54.8498 286.642 56.0352C286.642 57.2205 287.064 58.2353 287.908 59.0794C288.752 59.9235 289.767 60.3456 290.952 60.3456ZM290.952 76.1863C295.334 72.1633 298.585 68.5084 300.704 65.2217C302.824 61.935 303.883 59.0165 303.883 56.4662C303.883 52.5509 302.635 49.3451 300.139 46.8486C297.642 44.3522 294.58 43.104 290.952 43.104C287.324 43.104 284.262 44.3522 281.766 46.8486C279.269 49.3451 278.021 52.5509 278.021 56.4662C278.021 59.0165 279.08 61.935 281.2 65.2217C283.319 68.5084 286.57 72.1633 290.952 76.1863ZM290.952 81.8976C285.169 76.9765 280.85 72.4057 277.994 68.1851C275.138 63.9645 273.71 60.0582 273.71 56.4662C273.71 51.0782 275.444 46.7858 278.91 43.5889C282.376 40.392 286.39 38.7936 290.952 38.7936C295.514 38.7936 299.528 40.392 302.994 43.5889C306.46 46.7858 308.194 51.0782 308.194 56.4662C308.194 60.0582 306.766 63.9645 303.91 68.1851C301.055 72.4057 296.735 76.9765 290.952 81.8976Z" fill="#007AFF"/>
</g>
<path d="M139.889 145.76H135.04L143.869 120.681H149.477L158.318 145.76H153.469L146.771 125.824H146.575L139.889 145.76ZM140.048 135.927H153.273V139.576H140.048V135.927ZM165.858 120.681V145.76H161.426V120.681H165.858ZM174.85 120.681V145.76H170.417V120.681H174.85ZM187.613 146.127C185.776 146.127 184.184 145.723 182.837 144.915C181.49 144.107 180.445 142.976 179.702 141.523C178.967 140.07 178.6 138.372 178.6 136.429C178.6 134.486 178.967 132.784 179.702 131.323C180.445 129.861 181.49 128.727 182.837 127.918C184.184 127.11 185.776 126.706 187.613 126.706C189.449 126.706 191.041 127.11 192.388 127.918C193.735 128.727 194.776 129.861 195.511 131.323C196.254 132.784 196.625 134.486 196.625 136.429C196.625 138.372 196.254 140.07 195.511 141.523C194.776 142.976 193.735 144.107 192.388 144.915C191.041 145.723 189.449 146.127 187.613 146.127ZM187.637 142.576C188.633 142.576 189.466 142.303 190.135 141.756C190.805 141.201 191.303 140.458 191.629 139.527C191.964 138.596 192.131 137.56 192.131 136.417C192.131 135.266 191.964 134.225 191.629 133.294C191.303 132.355 190.805 131.608 190.135 131.053C189.466 130.498 188.633 130.221 187.637 130.221C186.617 130.221 185.768 130.498 185.09 131.053C184.421 131.608 183.918 132.355 183.584 133.294C183.257 134.225 183.094 135.266 183.094 136.417C183.094 137.56 183.257 138.596 183.584 139.527C183.918 140.458 184.421 141.201 185.09 141.756C185.768 142.303 186.617 142.576 187.637 142.576ZM203.731 145.76L198.416 126.951H202.935L206.241 140.176H206.412L209.792 126.951H214.262L217.641 140.103H217.825L221.082 126.951H225.613L220.286 145.76H215.67L212.143 133.049H211.886L208.359 145.76H203.731ZM236.809 128.518V126.02C236.809 125.302 236.943 124.555 237.213 123.779C237.49 122.996 237.866 122.257 238.339 121.563C238.821 120.861 239.36 120.269 239.956 119.787L242.013 121.122C241.531 121.849 241.127 122.608 240.801 123.4C240.482 124.184 240.327 125.049 240.335 125.996V128.518H236.809ZM243.017 128.518V126.02C243.017 125.302 243.152 124.555 243.421 123.779C243.699 122.996 244.074 122.257 244.548 121.563C245.029 120.861 245.568 120.269 246.164 119.787L248.221 121.122C247.74 121.849 247.336 122.608 247.009 123.4C246.691 124.184 246.536 125.049 246.544 125.996V128.518H243.017ZM251.421 145.76H246.571L255.4 120.681H261.009L269.85 145.76H265.001L258.302 125.824H258.107L251.421 145.76ZM251.58 135.927H264.805V139.576H251.58V135.927ZM272.957 152.813V126.951H277.317V130.061H277.574C277.802 129.604 278.125 129.118 278.541 128.604C278.957 128.082 279.521 127.637 280.231 127.269C280.941 126.894 281.847 126.706 282.949 126.706C284.403 126.706 285.713 127.078 286.88 127.82C288.056 128.555 288.987 129.645 289.672 131.09C290.366 132.527 290.713 134.29 290.713 136.38C290.713 138.445 290.374 140.201 289.697 141.646C289.019 143.091 288.097 144.193 286.929 144.952C285.762 145.711 284.439 146.091 282.962 146.091C281.884 146.091 280.99 145.911 280.28 145.552C279.57 145.193 278.998 144.76 278.566 144.254C278.141 143.74 277.81 143.254 277.574 142.797H277.39V152.813H272.957ZM277.304 136.356C277.304 137.572 277.476 138.637 277.819 139.552C278.17 140.466 278.672 141.18 279.325 141.695C279.986 142.201 280.786 142.454 281.725 142.454C282.705 142.454 283.525 142.193 284.186 141.67C284.848 141.139 285.346 140.417 285.68 139.503C286.023 138.58 286.195 137.531 286.195 136.356C286.195 135.188 286.027 134.151 285.692 133.245C285.358 132.339 284.86 131.629 284.199 131.114C283.537 130.6 282.713 130.343 281.725 130.343C280.778 130.343 279.974 130.592 279.313 131.09C278.651 131.588 278.149 132.286 277.806 133.184C277.472 134.082 277.304 135.139 277.304 136.356ZM294.509 152.813V126.951H298.869V130.061H299.126C299.354 129.604 299.677 129.118 300.093 128.604C300.509 128.082 301.073 127.637 301.783 127.269C302.493 126.894 303.399 126.706 304.502 126.706C305.955 126.706 307.265 127.078 308.432 127.82C309.608 128.555 310.539 129.645 311.224 131.09C311.918 132.527 312.265 134.29 312.265 136.38C312.265 138.445 311.926 140.201 311.249 141.646C310.571 143.091 309.649 144.193 308.481 144.952C307.314 145.711 305.991 146.091 304.514 146.091C303.436 146.091 302.542 145.911 301.832 145.552C301.122 145.193 300.55 144.76 300.118 144.254C299.693 143.74 299.363 143.254 299.126 142.797H298.942V152.813H294.509ZM298.856 136.356C298.856 137.572 299.028 138.637 299.371 139.552C299.722 140.466 300.224 141.18 300.877 141.695C301.538 142.201 302.338 142.454 303.277 142.454C304.257 142.454 305.077 142.193 305.738 141.67C306.4 141.139 306.898 140.417 307.232 139.503C307.575 138.58 307.747 137.531 307.747 136.356C307.747 135.188 307.579 134.151 307.244 133.245C306.91 132.339 306.412 131.629 305.751 131.114C305.089 130.6 304.265 130.343 303.277 130.343C302.33 130.343 301.526 130.592 300.865 131.09C300.203 131.588 299.701 132.286 299.358 133.184C299.024 134.082 298.856 135.139 298.856 136.356ZM319.821 120.681V123.179C319.821 123.898 319.682 124.645 319.404 125.42C319.135 126.188 318.763 126.922 318.29 127.624C317.816 128.318 317.278 128.914 316.673 129.412L314.616 128.078C315.065 127.4 315.457 126.669 315.792 125.886C316.127 125.094 316.294 124.2 316.294 123.204V120.681H319.821ZM326.004 120.681V123.179C326.004 123.898 325.866 124.645 325.588 125.42C325.319 126.188 324.947 126.922 324.474 127.624C324 128.318 323.466 128.914 322.87 129.412L320.812 128.078C321.253 127.4 321.641 126.669 321.976 125.886C322.31 125.094 322.478 124.2 322.478 123.204V120.681H326.004ZM348.049 126.951V130.38H337.237V126.951H348.049ZM339.906 122.445H344.339V140.103C344.339 140.699 344.429 141.156 344.608 141.474C344.796 141.784 345.041 141.997 345.343 142.111C345.645 142.225 345.98 142.282 346.347 142.282C346.625 142.282 346.878 142.262 347.106 142.221C347.343 142.18 347.523 142.144 347.645 142.111L348.392 145.576C348.155 145.658 347.817 145.748 347.376 145.846C346.943 145.944 346.413 146.001 345.784 146.017C344.674 146.05 343.674 145.882 342.784 145.515C341.894 145.14 341.188 144.56 340.665 143.776C340.151 142.993 339.898 142.013 339.906 140.837V122.445ZM359.759 146.127C357.922 146.127 356.33 145.723 354.983 144.915C353.636 144.107 352.591 142.976 351.849 141.523C351.114 140.07 350.746 138.372 350.746 136.429C350.746 134.486 351.114 132.784 351.849 131.323C352.591 129.861 353.636 128.727 354.983 127.918C356.33 127.11 357.922 126.706 359.759 126.706C361.596 126.706 363.188 127.11 364.535 127.918C365.882 128.727 366.923 129.861 367.657 131.323C368.4 132.784 368.772 134.486 368.772 136.429C368.772 138.372 368.4 140.07 367.657 141.523C366.923 142.976 365.882 144.107 364.535 144.915C363.188 145.723 361.596 146.127 359.759 146.127ZM359.784 142.576C360.78 142.576 361.612 142.303 362.282 141.756C362.951 141.201 363.449 140.458 363.776 139.527C364.11 138.596 364.278 137.56 364.278 136.417C364.278 135.266 364.11 134.225 363.776 133.294C363.449 132.355 362.951 131.608 362.282 131.053C361.612 130.498 360.78 130.221 359.784 130.221C358.763 130.221 357.914 130.498 357.237 131.053C356.567 131.608 356.065 132.355 355.73 133.294C355.404 134.225 355.241 135.266 355.241 136.417C355.241 137.56 355.404 138.596 355.73 139.527C356.065 140.458 356.567 141.201 357.237 141.756C357.914 142.303 358.763 142.576 359.784 142.576ZM393.076 137.849V126.951H397.509V145.76H393.211V142.417H393.015C392.59 143.47 391.892 144.331 390.921 145.001C389.957 145.67 388.77 146.005 387.357 146.005C386.125 146.005 385.035 145.731 384.088 145.184C383.149 144.629 382.414 143.825 381.884 142.772C381.353 141.711 381.088 140.429 381.088 138.927V126.951H385.52V138.241C385.52 139.433 385.847 140.38 386.5 141.082C387.153 141.784 388.01 142.135 389.072 142.135C389.725 142.135 390.357 141.976 390.97 141.658C391.582 141.339 392.084 140.866 392.476 140.237C392.876 139.601 393.076 138.805 393.076 137.849ZM416.933 131.923L412.892 132.363C412.778 131.955 412.578 131.572 412.292 131.212C412.015 130.853 411.639 130.563 411.166 130.343C410.692 130.123 410.112 130.012 409.427 130.012C408.504 130.012 407.729 130.212 407.1 130.612C406.48 131.012 406.173 131.531 406.182 132.168C406.173 132.715 406.373 133.159 406.782 133.502C407.198 133.845 407.884 134.127 408.839 134.347L412.047 135.033C413.827 135.417 415.149 136.025 416.015 136.858C416.888 137.69 417.329 138.78 417.337 140.127C417.329 141.311 416.982 142.356 416.296 143.262C415.619 144.16 414.676 144.862 413.468 145.368C412.259 145.874 410.872 146.127 409.304 146.127C407.002 146.127 405.149 145.646 403.745 144.682C402.341 143.711 401.504 142.36 401.234 140.629L405.557 140.213C405.753 141.062 406.169 141.703 406.806 142.135C407.443 142.568 408.272 142.784 409.292 142.784C410.345 142.784 411.19 142.568 411.827 142.135C412.472 141.703 412.794 141.168 412.794 140.531C412.794 139.992 412.586 139.547 412.17 139.196C411.761 138.845 411.125 138.576 410.259 138.388L407.051 137.715C405.247 137.339 403.912 136.707 403.047 135.817C402.181 134.919 401.753 133.784 401.761 132.412C401.753 131.253 402.067 130.249 402.704 129.4C403.349 128.543 404.243 127.882 405.386 127.416C406.537 126.943 407.863 126.706 409.365 126.706C411.57 126.706 413.304 127.175 414.57 128.114C415.843 129.053 416.631 130.323 416.933 131.923ZM429.319 146.127C427.434 146.127 425.805 145.736 424.433 144.952C423.07 144.16 422.021 143.042 421.286 141.597C420.552 140.143 420.184 138.433 420.184 136.466C420.184 134.531 420.552 132.833 421.286 131.372C422.029 129.902 423.066 128.759 424.397 127.943C425.727 127.118 427.291 126.706 429.087 126.706C430.246 126.706 431.34 126.894 432.369 127.269C433.405 127.637 434.32 128.208 435.112 128.984C435.912 129.759 436.54 130.747 436.997 131.947C437.454 133.139 437.683 134.56 437.683 136.209V137.568H422.266V134.58H433.434C433.426 133.731 433.242 132.976 432.883 132.315C432.524 131.645 432.022 131.119 431.377 130.735C430.74 130.351 429.997 130.159 429.148 130.159C428.242 130.159 427.446 130.38 426.76 130.821C426.074 131.253 425.54 131.825 425.156 132.535C424.78 133.237 424.589 134.008 424.58 134.849V137.458C424.58 138.552 424.78 139.49 425.18 140.274C425.58 141.05 426.14 141.646 426.858 142.062C427.576 142.47 428.417 142.674 429.381 142.674C430.026 142.674 430.609 142.584 431.132 142.405C431.654 142.217 432.107 141.944 432.491 141.584C432.875 141.225 433.164 140.78 433.36 140.25L437.499 140.715C437.238 141.809 436.74 142.764 436.005 143.58C435.279 144.389 434.348 145.017 433.213 145.466C432.079 145.907 430.781 146.127 429.319 146.127ZM178.021 204.813C177.417 204.813 176.858 204.764 176.344 204.666C175.838 204.577 175.433 204.471 175.131 204.348L176.16 200.895C176.805 201.083 177.38 201.172 177.887 201.164C178.393 201.156 178.838 200.997 179.221 200.687C179.613 200.385 179.944 199.878 180.213 199.168L180.593 198.152L173.772 178.951H178.474L182.809 193.156H183.005L187.352 178.951H192.067L184.536 200.038C184.185 201.034 183.72 201.887 183.14 202.597C182.56 203.315 181.85 203.862 181.009 204.238C180.176 204.622 179.181 204.813 178.021 204.813ZM202.699 198.127C200.862 198.127 199.27 197.723 197.923 196.915C196.576 196.107 195.531 194.976 194.788 193.523C194.054 192.07 193.686 190.372 193.686 188.429C193.686 186.486 194.054 184.784 194.788 183.323C195.531 181.861 196.576 180.727 197.923 179.918C199.27 179.11 200.862 178.706 202.699 178.706C204.536 178.706 206.128 179.11 207.475 179.918C208.822 180.727 209.863 181.861 210.597 183.323C211.34 184.784 211.712 186.486 211.712 188.429C211.712 190.372 211.34 192.07 210.597 193.523C209.863 194.976 208.822 196.107 207.475 196.915C206.128 197.723 204.536 198.127 202.699 198.127ZM202.723 194.576C203.719 194.576 204.552 194.303 205.221 193.756C205.891 193.201 206.389 192.458 206.715 191.527C207.05 190.596 207.218 189.56 207.218 188.417C207.218 187.266 207.05 186.225 206.715 185.294C206.389 184.355 205.891 183.608 205.221 183.053C204.552 182.498 203.719 182.221 202.723 182.221C201.703 182.221 200.854 182.498 200.176 183.053C199.507 183.608 199.005 184.355 198.67 185.294C198.344 186.225 198.18 187.266 198.18 188.417C198.18 189.56 198.344 190.596 198.67 191.527C199.005 192.458 199.507 193.201 200.176 193.756C200.854 194.303 201.703 194.576 202.723 194.576ZM227.462 189.849V178.951H231.895V197.76H227.597V194.417H227.401C226.977 195.47 226.279 196.331 225.307 197.001C224.344 197.67 223.156 198.005 221.744 198.005C220.511 198.005 219.421 197.731 218.474 197.184C217.535 196.629 216.801 195.825 216.27 194.772C215.739 193.711 215.474 192.429 215.474 190.927V178.951H219.907V190.241C219.907 191.433 220.233 192.38 220.886 193.082C221.54 193.784 222.397 194.135 223.458 194.135C224.111 194.135 224.744 193.976 225.356 193.658C225.968 193.339 226.47 192.866 226.862 192.237C227.262 191.601 227.462 190.805 227.462 189.849ZM236.454 197.76V178.951H240.752V182.086H240.948C241.29 181 241.878 180.163 242.711 179.576C243.552 178.98 244.511 178.682 245.589 178.682C245.834 178.682 246.107 178.694 246.409 178.718C246.719 178.735 246.976 178.763 247.181 178.804V182.882C246.993 182.816 246.695 182.759 246.287 182.71C245.887 182.653 245.499 182.625 245.123 182.625C244.315 182.625 243.589 182.8 242.944 183.151C242.307 183.494 241.805 183.972 241.437 184.584C241.07 185.196 240.886 185.902 240.886 186.702V197.76H236.454ZM263.112 172.681V197.76H258.679V172.681H263.112ZM275.875 198.127C274.038 198.127 272.446 197.723 271.099 196.915C269.752 196.107 268.707 194.976 267.964 193.523C267.229 192.07 266.862 190.372 266.862 188.429C266.862 186.486 267.229 184.784 267.964 183.323C268.707 181.861 269.752 180.727 271.099 179.918C272.446 179.11 274.038 178.706 275.875 178.706C277.712 178.706 279.303 179.11 280.65 179.918C281.997 180.727 283.038 181.861 283.773 183.323C284.516 184.784 284.887 186.486 284.887 188.429C284.887 190.372 284.516 192.07 283.773 193.523C283.038 194.976 281.997 196.107 280.65 196.915C279.303 197.723 277.712 198.127 275.875 198.127ZM275.899 194.576C276.895 194.576 277.728 194.303 278.397 193.756C279.067 193.201 279.565 192.458 279.891 191.527C280.226 190.596 280.393 189.56 280.393 188.417C280.393 187.266 280.226 186.225 279.891 185.294C279.565 184.355 279.067 183.608 278.397 183.053C277.728 182.498 276.895 182.221 275.899 182.221C274.879 182.221 274.03 182.498 273.352 183.053C272.683 183.608 272.181 184.355 271.846 185.294C271.519 186.225 271.356 187.266 271.356 188.417C271.356 189.56 271.519 190.596 271.846 191.527C272.181 192.458 272.683 193.201 273.352 193.756C274.03 194.303 274.879 194.576 275.899 194.576ZM296.854 198.127C294.977 198.127 293.364 197.715 292.017 196.891C290.678 196.066 289.646 194.927 288.919 193.474C288.201 192.013 287.842 190.331 287.842 188.429C287.842 186.519 288.209 184.833 288.944 183.372C289.678 181.902 290.715 180.759 292.054 179.943C293.401 179.118 294.993 178.706 296.83 178.706C298.356 178.706 299.707 178.988 300.883 179.551C302.067 180.106 303.01 180.894 303.712 181.914C304.414 182.927 304.814 184.11 304.912 185.466H300.675C300.503 184.559 300.095 183.804 299.45 183.2C298.813 182.588 297.96 182.282 296.891 182.282C295.985 182.282 295.189 182.527 294.503 183.016C293.817 183.498 293.283 184.192 292.899 185.098C292.523 186.004 292.336 187.09 292.336 188.356C292.336 189.637 292.523 190.739 292.899 191.662C293.274 192.576 293.801 193.282 294.479 193.78C295.164 194.27 295.968 194.515 296.891 194.515C297.544 194.515 298.128 194.393 298.642 194.148C299.165 193.895 299.601 193.531 299.952 193.058C300.303 192.584 300.544 192.009 300.675 191.331H304.912C304.806 192.662 304.414 193.841 303.736 194.87C303.059 195.891 302.136 196.691 300.969 197.27C299.801 197.842 298.43 198.127 296.854 198.127ZM313.964 198.14C312.772 198.14 311.699 197.927 310.744 197.503C309.797 197.07 309.046 196.433 308.49 195.593C307.943 194.752 307.67 193.715 307.67 192.482C307.67 191.421 307.866 190.543 308.258 189.849C308.65 189.156 309.184 188.6 309.862 188.184C310.54 187.768 311.303 187.453 312.152 187.241C313.009 187.021 313.895 186.862 314.809 186.764C315.911 186.649 316.805 186.547 317.491 186.457C318.177 186.359 318.675 186.213 318.985 186.017C319.303 185.813 319.462 185.498 319.462 185.074V185C319.462 184.078 319.189 183.363 318.642 182.857C318.095 182.351 317.307 182.098 316.279 182.098C315.193 182.098 314.332 182.335 313.695 182.808C313.066 183.282 312.642 183.841 312.421 184.486L308.282 183.898C308.609 182.755 309.148 181.8 309.899 181.033C310.65 180.257 311.568 179.678 312.654 179.294C313.74 178.902 314.94 178.706 316.254 178.706C317.16 178.706 318.062 178.812 318.96 179.024C319.858 179.237 320.679 179.588 321.422 180.078C322.165 180.559 322.76 181.216 323.209 182.049C323.667 182.882 323.895 183.923 323.895 185.172V197.76H319.634V195.176H319.487C319.217 195.699 318.838 196.189 318.348 196.646C317.866 197.095 317.258 197.458 316.523 197.736C315.797 198.005 314.944 198.14 313.964 198.14ZM315.115 194.882C316.005 194.882 316.777 194.707 317.43 194.356C318.083 193.997 318.585 193.523 318.936 192.935C319.295 192.348 319.475 191.707 319.475 191.013V188.796C319.336 188.911 319.099 189.017 318.764 189.115C318.438 189.213 318.07 189.298 317.662 189.372C317.254 189.445 316.85 189.511 316.45 189.568C316.05 189.625 315.703 189.674 315.409 189.715C314.748 189.805 314.156 189.951 313.634 190.156C313.111 190.36 312.699 190.645 312.397 191.013C312.095 191.372 311.944 191.837 311.944 192.409C311.944 193.225 312.242 193.841 312.838 194.258C313.434 194.674 314.193 194.882 315.115 194.882ZM337.745 178.951V182.38H326.932V178.951H337.745ZM329.602 174.445H334.034V192.103C334.034 192.699 334.124 193.156 334.304 193.474C334.492 193.784 334.737 193.997 335.039 194.111C335.341 194.225 335.675 194.282 336.043 194.282C336.32 194.282 336.573 194.262 336.802 194.221C337.039 194.18 337.218 194.144 337.341 194.111L338.088 197.576C337.851 197.658 337.512 197.748 337.071 197.846C336.639 197.944 336.108 198.001 335.479 198.017C334.369 198.05 333.369 197.882 332.479 197.515C331.589 197.14 330.883 196.56 330.361 195.776C329.847 194.993 329.593 194.013 329.602 192.837V174.445ZM341.452 197.76V178.951H345.885V197.76H341.452ZM343.681 176.281C342.979 176.281 342.375 176.049 341.868 175.583C341.362 175.11 341.109 174.543 341.109 173.881C341.109 173.212 341.362 172.645 341.868 172.179C342.375 171.706 342.979 171.469 343.681 171.469C344.391 171.469 344.995 171.706 345.493 172.179C345.999 172.645 346.252 173.212 346.252 173.881C346.252 174.543 345.999 175.11 345.493 175.583C344.995 176.049 344.391 176.281 343.681 176.281ZM358.648 198.127C356.811 198.127 355.219 197.723 353.872 196.915C352.525 196.107 351.48 194.976 350.737 193.523C350.003 192.07 349.635 190.372 349.635 188.429C349.635 186.486 350.003 184.784 350.737 183.323C351.48 181.861 352.525 180.727 353.872 179.918C355.219 179.11 356.811 178.706 358.648 178.706C360.485 178.706 362.077 179.11 363.424 179.918C364.771 180.727 365.811 181.861 366.546 183.323C367.289 184.784 367.66 186.486 367.66 188.429C367.66 190.372 367.289 192.07 366.546 193.523C365.811 194.976 364.771 196.107 363.424 196.915C362.077 197.723 360.485 198.127 358.648 198.127ZM358.672 194.576C359.668 194.576 360.501 194.303 361.17 193.756C361.84 193.201 362.338 192.458 362.664 191.527C362.999 190.596 363.166 189.56 363.166 188.417C363.166 187.266 362.999 186.225 362.664 185.294C362.338 184.355 361.84 183.608 361.17 183.053C360.501 182.498 359.668 182.221 358.672 182.221C357.652 182.221 356.803 182.498 356.125 183.053C355.456 183.608 354.954 184.355 354.619 185.294C354.293 186.225 354.129 187.266 354.129 188.417C354.129 189.56 354.293 190.596 354.619 191.527C354.954 192.458 355.456 193.201 356.125 193.756C356.803 194.303 357.652 194.576 358.672 194.576ZM375.856 186.739V197.76H371.423V178.951H375.66V182.147H375.88C376.313 181.094 377.003 180.257 377.95 179.637C378.905 179.016 380.085 178.706 381.489 178.706C382.787 178.706 383.917 178.984 384.881 179.539C385.852 180.094 386.603 180.898 387.134 181.951C387.673 183.004 387.938 184.282 387.93 185.784V197.76H383.497V186.47C383.497 185.213 383.17 184.229 382.517 183.519C381.872 182.808 380.978 182.453 379.836 182.453C379.06 182.453 378.37 182.625 377.766 182.968C377.17 183.302 376.701 183.788 376.358 184.425C376.023 185.061 375.856 185.833 375.856 186.739ZM396.673 190.388V190.07C396.681 188.592 396.82 187.417 397.089 186.543C397.367 185.67 397.759 184.968 398.265 184.437C398.771 183.898 399.387 183.404 400.114 182.955C400.612 182.645 401.057 182.306 401.449 181.939C401.849 181.563 402.163 181.147 402.392 180.69C402.62 180.225 402.735 179.706 402.735 179.135C402.735 178.49 402.583 177.931 402.281 177.457C401.979 176.984 401.571 176.616 401.057 176.355C400.551 176.094 399.983 175.963 399.355 175.963C398.775 175.963 398.224 176.09 397.702 176.343C397.187 176.588 396.759 176.963 396.416 177.469C396.081 177.967 395.893 178.6 395.853 179.367H391.493C391.534 177.816 391.91 176.518 392.62 175.473C393.338 174.428 394.285 173.645 395.461 173.122C396.644 172.6 397.951 172.338 399.379 172.338C400.939 172.338 402.31 172.612 403.494 173.159C404.686 173.706 405.612 174.485 406.273 175.498C406.943 176.502 407.278 177.694 407.278 179.073C407.278 180.004 407.127 180.837 406.825 181.572C406.531 182.306 406.11 182.959 405.563 183.531C405.016 184.102 404.367 184.612 403.616 185.061C402.955 185.47 402.412 185.894 401.988 186.335C401.571 186.776 401.261 187.294 401.057 187.89C400.861 188.478 400.759 189.205 400.751 190.07V190.388H396.673ZM398.804 198.029C398.069 198.029 397.436 197.768 396.906 197.246C396.375 196.723 396.11 196.086 396.11 195.335C396.11 194.601 396.375 193.972 396.906 193.45C397.436 192.927 398.069 192.666 398.804 192.666C399.53 192.666 400.159 192.927 400.69 193.45C401.228 193.972 401.498 194.601 401.498 195.335C401.498 195.833 401.371 196.286 401.118 196.695C400.873 197.103 400.547 197.429 400.138 197.674C399.738 197.911 399.294 198.029 398.804 198.029Z" fill="black"/>
<path d="M55.2538 247.07H52.8659L59.7723 228.261H62.1235L69.0299 247.07H66.642L61.0214 231.237H60.8744L55.2538 247.07ZM56.1354 239.723H65.7604V241.744H56.1354V239.723ZM71.6657 252.36V232.964H73.7597V235.205H74.0169C74.176 234.96 74.3965 234.647 74.6781 234.268C74.9659 233.882 75.3761 233.539 75.9088 233.239C76.4476 232.933 77.1762 232.78 78.0946 232.78C79.2824 232.78 80.3294 233.077 81.2356 233.671C82.1417 234.265 82.8489 235.107 83.3571 236.196C83.8653 237.286 84.1194 238.572 84.1194 240.054C84.1194 241.548 83.8653 242.843 83.3571 243.939C82.8489 245.029 82.1448 245.873 81.2447 246.473C80.3447 247.067 79.3069 247.364 78.1313 247.364C77.2252 247.364 76.4996 247.214 75.9547 246.914C75.4098 246.608 74.9904 246.262 74.6965 245.877C74.4026 245.485 74.176 245.16 74.0169 244.903H73.8332V252.36H71.6657ZM73.7964 240.017C73.7964 241.082 73.9526 242.022 74.2648 242.837C74.5771 243.645 75.0332 244.278 75.6333 244.738C76.2333 245.191 76.968 245.417 77.8374 245.417C78.7436 245.417 79.4998 245.179 80.1059 244.701C80.7182 244.217 81.1774 243.568 81.4835 242.754C81.7958 241.933 81.9519 241.021 81.9519 240.017C81.9519 239.025 81.7988 238.131 81.4927 237.335C81.1927 236.533 80.7366 235.9 80.1243 235.434C79.5181 234.963 78.7558 234.727 77.8374 234.727C76.9558 234.727 76.2149 234.95 75.6149 235.397C75.0149 235.838 74.5618 236.457 74.2556 237.253C73.9495 238.042 73.7964 238.964 73.7964 240.017ZM87.4256 252.36V232.964H89.5196V235.205H89.7768C89.9359 234.96 90.1564 234.647 90.438 234.268C90.7258 233.882 91.136 233.539 91.6687 233.239C92.2075 232.933 92.9361 232.78 93.8545 232.78C95.0423 232.78 96.0893 233.077 96.9954 233.671C97.9016 234.265 98.6088 235.107 99.117 236.196C99.6252 237.286 99.8793 238.572 99.8793 240.054C99.8793 241.548 99.6252 242.843 99.117 243.939C98.6088 245.029 97.9047 245.873 97.0046 246.473C96.1046 247.067 95.0668 247.364 93.8912 247.364C92.9851 247.364 92.2595 247.214 91.7146 246.914C91.1697 246.608 90.7503 246.262 90.4564 245.877C90.1625 245.485 89.9359 245.16 89.7768 244.903H89.5931V252.36H87.4256ZM89.5563 240.017C89.5563 241.082 89.7125 242.022 90.0247 242.837C90.337 243.645 90.7931 244.278 91.3932 244.738C91.9932 245.191 92.7279 245.417 93.5973 245.417C94.5035 245.417 95.2597 245.179 95.8658 244.701C96.4781 244.217 96.9373 243.568 97.2434 242.754C97.5557 241.933 97.7118 241.021 97.7118 240.017C97.7118 239.025 97.5587 238.131 97.2526 237.335C96.9526 236.533 96.4964 235.9 95.8842 235.434C95.278 234.963 94.5157 234.727 93.5973 234.727C92.7157 234.727 91.9748 234.95 91.3748 235.397C90.7748 235.838 90.3217 236.457 90.0155 237.253C89.7094 238.042 89.5563 238.964 89.5563 240.017ZM116.19 247.364C114.868 247.364 113.729 247.052 112.774 246.428C111.819 245.803 111.084 244.943 110.57 243.847C110.055 242.751 109.798 241.499 109.798 240.091C109.798 238.658 110.061 237.393 110.588 236.297C111.121 235.195 111.861 234.335 112.81 233.717C113.766 233.092 114.88 232.78 116.153 232.78C117.145 232.78 118.039 232.964 118.835 233.331C119.631 233.698 120.283 234.213 120.791 234.874C121.3 235.535 121.615 236.307 121.737 237.188H119.57C119.405 236.545 119.037 235.976 118.468 235.48C117.905 234.978 117.145 234.727 116.19 234.727C115.345 234.727 114.604 234.947 113.968 235.388C113.337 235.823 112.844 236.438 112.489 237.234C112.14 238.024 111.966 238.952 111.966 240.017C111.966 241.107 112.137 242.056 112.48 242.864C112.829 243.672 113.319 244.3 113.949 244.747C114.586 245.194 115.333 245.417 116.19 245.417C116.753 245.417 117.265 245.319 117.724 245.123C118.183 244.927 118.572 244.646 118.89 244.278C119.209 243.911 119.435 243.47 119.57 242.956H121.737C121.615 243.789 121.312 244.539 120.828 245.206C120.351 245.867 119.717 246.394 118.927 246.786C118.143 247.171 117.231 247.364 116.19 247.364ZM133.796 241.303V232.964H135.964V247.07H133.796V244.683H133.649C133.319 245.399 132.804 246.008 132.106 246.51C131.408 247.006 130.527 247.254 129.461 247.254C128.58 247.254 127.796 247.061 127.11 246.676C126.424 246.284 125.886 245.696 125.494 244.912C125.102 244.122 124.906 243.127 124.906 241.927V232.964H127.073V241.78C127.073 242.809 127.361 243.629 127.937 244.242C128.518 244.854 129.259 245.16 130.159 245.16C130.698 245.16 131.246 245.022 131.803 244.747C132.366 244.471 132.838 244.049 133.217 243.479C133.603 242.91 133.796 242.184 133.796 241.303ZM139.933 247.07V232.964H142.027V235.094H142.174C142.431 234.396 142.897 233.83 143.57 233.395C144.244 232.961 145.003 232.743 145.848 232.743C146.007 232.743 146.206 232.746 146.445 232.752C146.684 232.759 146.864 232.768 146.987 232.78V234.984C146.913 234.966 146.745 234.938 146.482 234.902C146.224 234.859 145.952 234.837 145.664 234.837C144.978 234.837 144.366 234.981 143.827 235.269C143.295 235.551 142.872 235.942 142.56 236.444C142.254 236.94 142.101 237.507 142.101 238.144V247.07H139.933ZM149.556 247.07V232.964H151.65V235.094H151.797C152.054 234.396 152.519 233.83 153.193 233.395C153.866 232.961 154.626 232.743 155.471 232.743C155.63 232.743 155.829 232.746 156.068 232.752C156.306 232.759 156.487 232.768 156.609 232.78V234.984C156.536 234.966 156.368 234.938 156.104 234.902C155.847 234.859 155.575 234.837 155.287 234.837C154.601 234.837 153.989 234.981 153.45 235.269C152.917 235.551 152.495 235.942 152.183 236.444C151.876 236.94 151.723 237.507 151.723 238.144V247.07H149.556ZM164.664 247.364C163.305 247.364 162.132 247.064 161.146 246.464C160.167 245.858 159.411 245.013 158.878 243.929C158.351 242.84 158.088 241.572 158.088 240.127C158.088 238.682 158.351 237.409 158.878 236.307C159.411 235.198 160.151 234.335 161.1 233.717C162.056 233.092 163.17 232.78 164.443 232.78C165.178 232.78 165.904 232.902 166.62 233.147C167.336 233.392 167.988 233.79 168.576 234.341C169.164 234.886 169.632 235.609 169.981 236.509C170.33 237.409 170.505 238.517 170.505 239.833V240.752H159.631V238.878H168.301C168.301 238.082 168.142 237.372 167.823 236.748C167.511 236.123 167.064 235.63 166.482 235.269C165.907 234.908 165.227 234.727 164.443 234.727C163.58 234.727 162.833 234.941 162.202 235.37C161.578 235.792 161.097 236.343 160.761 237.023C160.424 237.703 160.255 238.431 160.255 239.209V240.458C160.255 241.523 160.439 242.426 160.806 243.167C161.18 243.902 161.697 244.462 162.359 244.848C163.02 245.227 163.788 245.417 164.664 245.417C165.233 245.417 165.748 245.338 166.207 245.179C166.672 245.013 167.073 244.768 167.41 244.444C167.747 244.113 168.007 243.703 168.191 243.213L170.284 243.801C170.064 244.511 169.694 245.136 169.173 245.674C168.653 246.207 168.01 246.623 167.245 246.923C166.479 247.217 165.619 247.364 164.664 247.364ZM175.969 238.584V247.07H173.802V232.964H175.896V235.168H176.08C176.41 234.451 176.912 233.876 177.586 233.441C178.259 233 179.129 232.78 180.194 232.78C181.149 232.78 181.985 232.976 182.701 233.368C183.418 233.754 183.975 234.341 184.373 235.131C184.771 235.915 184.97 236.907 184.97 238.107V247.07H182.802V238.254C182.802 237.145 182.515 236.282 181.939 235.664C181.364 235.039 180.574 234.727 179.57 234.727C178.878 234.727 178.259 234.877 177.714 235.177C177.176 235.477 176.75 235.915 176.438 236.49C176.126 237.066 175.969 237.764 175.969 238.584ZM195.065 232.964V234.8H187.755V232.964H195.065ZM189.886 229.584H192.053V243.029C192.053 243.642 192.142 244.101 192.319 244.407C192.503 244.707 192.736 244.909 193.017 245.013C193.305 245.111 193.608 245.16 193.927 245.16C194.165 245.16 194.361 245.148 194.514 245.123C194.667 245.093 194.79 245.068 194.882 245.05L195.323 246.997C195.176 247.052 194.971 247.107 194.707 247.162C194.444 247.224 194.11 247.254 193.706 247.254C193.094 247.254 192.494 247.122 191.906 246.859C191.324 246.596 190.841 246.195 190.455 245.656C190.075 245.117 189.886 244.438 189.886 243.617V229.584ZM200.796 228.261V247.07H198.629V228.261H200.796ZM206.162 252.36C205.795 252.36 205.467 252.33 205.179 252.269C204.892 252.214 204.693 252.158 204.582 252.103L205.133 250.193C205.66 250.328 206.125 250.377 206.529 250.34C206.934 250.303 207.292 250.123 207.604 249.798C207.922 249.48 208.213 248.962 208.476 248.246L208.881 247.144L203.664 232.964H206.015L209.909 244.205H210.056L213.95 232.964H216.301L210.313 249.128C210.044 249.856 209.71 250.459 209.312 250.937C208.914 251.421 208.452 251.779 207.925 252.011C207.405 252.244 206.817 252.36 206.162 252.36ZM230.587 247.401C229.693 247.401 228.882 247.233 228.153 246.896C227.425 246.553 226.846 246.06 226.418 245.417C225.989 244.768 225.775 243.985 225.775 243.066C225.775 242.258 225.934 241.603 226.252 241.101C226.571 240.593 226.996 240.195 227.529 239.907C228.062 239.619 228.649 239.405 229.292 239.264C229.941 239.117 230.593 239.001 231.248 238.915C232.106 238.805 232.801 238.722 233.333 238.667C233.872 238.606 234.264 238.505 234.509 238.364C234.76 238.223 234.885 237.978 234.885 237.629V237.556C234.885 236.65 234.637 235.945 234.141 235.443C233.652 234.941 232.908 234.69 231.91 234.69C230.875 234.69 230.064 234.917 229.476 235.37C228.888 235.823 228.475 236.307 228.236 236.821L226.179 236.086C226.546 235.229 227.036 234.562 227.648 234.084C228.267 233.6 228.94 233.264 229.669 233.074C230.404 232.878 231.126 232.78 231.836 232.78C232.289 232.78 232.81 232.835 233.398 232.945C233.991 233.049 234.564 233.267 235.115 233.597C235.672 233.928 236.134 234.427 236.502 235.094C236.869 235.762 237.053 236.656 237.053 237.776V247.07H234.885V245.16H234.775C234.628 245.466 234.383 245.794 234.04 246.143C233.698 246.492 233.241 246.789 232.672 247.034C232.103 247.279 231.408 247.401 230.587 247.401ZM230.918 245.454C231.775 245.454 232.497 245.286 233.085 244.949C233.679 244.612 234.126 244.177 234.426 243.645C234.732 243.112 234.885 242.552 234.885 241.964V239.98C234.794 240.091 234.591 240.192 234.279 240.283C233.973 240.369 233.618 240.446 233.214 240.513C232.816 240.574 232.427 240.629 232.047 240.678C231.674 240.721 231.371 240.758 231.138 240.789C230.575 240.862 230.048 240.981 229.559 241.147C229.075 241.306 228.683 241.548 228.383 241.872C228.089 242.191 227.942 242.625 227.942 243.176C227.942 243.929 228.221 244.499 228.778 244.885C229.341 245.264 230.055 245.454 230.918 245.454ZM246.74 247.364C245.417 247.364 244.278 247.052 243.323 246.428C242.368 245.803 241.633 244.943 241.119 243.847C240.605 242.751 240.348 241.499 240.348 240.091C240.348 238.658 240.611 237.393 241.137 236.297C241.67 235.195 242.411 234.335 243.36 233.717C244.315 233.092 245.429 232.78 246.703 232.78C247.695 232.78 248.589 232.964 249.385 233.331C250.181 233.698 250.833 234.213 251.341 234.874C251.849 235.535 252.164 236.307 252.287 237.188H250.119C249.954 236.545 249.587 235.976 249.017 235.48C248.454 234.978 247.695 234.727 246.74 234.727C245.895 234.727 245.154 234.947 244.517 235.388C243.887 235.823 243.394 236.438 243.039 237.234C242.69 238.024 242.515 238.952 242.515 240.017C242.515 241.107 242.686 242.056 243.029 242.864C243.378 243.672 243.868 244.3 244.499 244.747C245.136 245.194 245.883 245.417 246.74 245.417C247.303 245.417 247.814 245.319 248.273 245.123C248.733 244.927 249.121 244.646 249.44 244.278C249.758 243.911 249.985 243.47 250.119 242.956H252.287C252.164 243.789 251.861 244.539 251.378 245.206C250.9 245.867 250.266 246.394 249.477 246.786C248.693 247.171 247.781 247.364 246.74 247.364ZM261.186 247.364C259.864 247.364 258.725 247.052 257.77 246.428C256.815 245.803 256.08 244.943 255.566 243.847C255.051 242.751 254.794 241.499 254.794 240.091C254.794 238.658 255.057 237.393 255.584 236.297C256.117 235.195 256.858 234.335 257.807 233.717C258.762 233.092 259.876 232.78 261.15 232.78C262.141 232.78 263.035 232.964 263.831 233.331C264.627 233.698 265.279 234.213 265.788 234.874C266.296 235.535 266.611 236.307 266.733 237.188H264.566C264.401 236.545 264.033 235.976 263.464 235.48C262.901 234.978 262.141 234.727 261.186 234.727C260.341 234.727 259.6 234.947 258.964 235.388C258.333 235.823 257.84 236.438 257.485 237.234C257.136 238.024 256.962 238.952 256.962 240.017C256.962 241.107 257.133 242.056 257.476 242.864C257.825 243.672 258.315 244.3 258.945 244.747C259.582 245.194 260.329 245.417 261.186 245.417C261.75 245.417 262.261 245.319 262.72 245.123C263.179 244.927 263.568 244.646 263.886 244.278C264.205 243.911 264.431 243.47 264.566 242.956H266.733C266.611 243.789 266.308 244.539 265.824 245.206C265.347 245.867 264.713 246.394 263.923 246.786C263.139 247.171 262.227 247.364 261.186 247.364ZM275.817 247.364C274.457 247.364 273.285 247.064 272.299 246.464C271.319 245.858 270.563 245.013 270.031 243.929C269.504 242.84 269.241 241.572 269.241 240.127C269.241 238.682 269.504 237.409 270.031 236.307C270.563 235.198 271.304 234.335 272.253 233.717C273.208 233.092 274.323 232.78 275.596 232.78C276.331 232.78 277.056 232.902 277.773 233.147C278.489 233.392 279.141 233.79 279.729 234.341C280.317 234.886 280.785 235.609 281.134 236.509C281.483 237.409 281.658 238.517 281.658 239.833V240.752H270.784V238.878H279.453C279.453 238.082 279.294 237.372 278.976 236.748C278.664 236.123 278.217 235.63 277.635 235.269C277.059 234.908 276.38 234.727 275.596 234.727C274.733 234.727 273.986 234.941 273.355 235.37C272.731 235.792 272.25 236.343 271.913 237.023C271.577 237.703 271.408 238.431 271.408 239.209V240.458C271.408 241.523 271.592 242.426 271.959 243.167C272.333 243.902 272.85 244.462 273.511 244.848C274.173 245.227 274.941 245.417 275.817 245.417C276.386 245.417 276.9 245.338 277.359 245.179C277.825 245.013 278.226 244.768 278.563 244.444C278.899 244.113 279.16 243.703 279.343 243.213L281.437 243.801C281.217 244.511 280.846 245.136 280.326 245.674C279.805 246.207 279.163 246.623 278.397 246.923C277.632 247.217 276.772 247.364 275.817 247.364ZM294.947 236.123L293 236.674C292.878 236.35 292.697 236.034 292.458 235.728C292.225 235.416 291.907 235.159 291.503 234.957C291.099 234.755 290.581 234.654 289.951 234.654C289.088 234.654 288.368 234.853 287.793 235.251C287.223 235.642 286.938 236.141 286.938 236.748C286.938 237.286 287.134 237.712 287.526 238.024C287.918 238.336 288.53 238.597 289.363 238.805L291.457 239.319C292.718 239.625 293.658 240.094 294.277 240.724C294.895 241.349 295.204 242.154 295.204 243.14C295.204 243.948 294.971 244.67 294.506 245.307C294.047 245.944 293.404 246.446 292.577 246.813C291.751 247.181 290.79 247.364 289.694 247.364C288.255 247.364 287.064 247.052 286.121 246.428C285.178 245.803 284.581 244.891 284.33 243.691L286.387 243.176C286.583 243.936 286.954 244.505 287.499 244.885C288.05 245.264 288.769 245.454 289.657 245.454C290.667 245.454 291.469 245.24 292.063 244.811C292.663 244.376 292.963 243.856 292.963 243.25C292.963 242.76 292.792 242.35 292.449 242.019C292.106 241.682 291.579 241.431 290.869 241.266L288.518 240.715C287.226 240.409 286.277 239.934 285.671 239.292C285.071 238.643 284.771 237.831 284.771 236.858C284.771 236.062 284.994 235.358 285.441 234.745C285.895 234.133 286.51 233.652 287.287 233.303C288.071 232.954 288.959 232.78 289.951 232.78C291.347 232.78 292.443 233.086 293.239 233.698C294.041 234.311 294.61 235.119 294.947 236.123ZM307.908 228.261V247.07H305.741V228.261H307.908ZM317.609 247.364C316.335 247.364 315.218 247.061 314.257 246.455C313.301 245.849 312.554 245.001 312.016 243.911C311.483 242.821 311.217 241.548 311.217 240.091C311.217 238.621 311.483 237.338 312.016 236.242C312.554 235.146 313.301 234.295 314.257 233.689C315.218 233.083 316.335 232.78 317.609 232.78C318.882 232.78 319.997 233.083 320.952 233.689C321.913 234.295 322.66 235.146 323.193 236.242C323.731 237.338 324.001 238.621 324.001 240.091C324.001 241.548 323.731 242.821 323.193 243.911C322.66 245.001 321.913 245.849 320.952 246.455C319.997 247.061 318.882 247.364 317.609 247.364ZM317.609 245.417C318.576 245.417 319.372 245.169 319.997 244.673C320.621 244.177 321.083 243.525 321.383 242.717C321.683 241.909 321.833 241.033 321.833 240.091C321.833 239.148 321.683 238.269 321.383 237.455C321.083 236.64 320.621 235.982 319.997 235.48C319.372 234.978 318.576 234.727 317.609 234.727C316.641 234.727 315.845 234.978 315.221 235.48C314.596 235.982 314.134 236.64 313.834 237.455C313.534 238.269 313.384 239.148 313.384 240.091C313.384 241.033 313.534 241.909 313.834 242.717C314.134 243.525 314.596 244.177 315.221 244.673C315.845 245.169 316.641 245.417 317.609 245.417ZM333.04 247.364C331.718 247.364 330.579 247.052 329.624 246.428C328.669 245.803 327.934 244.943 327.42 243.847C326.905 242.751 326.648 241.499 326.648 240.091C326.648 238.658 326.911 237.393 327.438 236.297C327.971 235.195 328.712 234.335 329.661 233.717C330.616 233.092 331.73 232.78 333.004 232.78C333.995 232.78 334.889 232.964 335.685 233.331C336.481 233.698 337.133 234.213 337.642 234.874C338.15 235.535 338.465 236.307 338.587 237.188H336.42C336.255 236.545 335.887 235.976 335.318 235.48C334.755 234.978 333.995 234.727 333.04 234.727C332.195 234.727 331.455 234.947 330.818 235.388C330.187 235.823 329.694 236.438 329.339 237.234C328.99 238.024 328.816 238.952 328.816 240.017C328.816 241.107 328.987 242.056 329.33 242.864C329.679 243.672 330.169 244.3 330.799 244.747C331.436 245.194 332.183 245.417 333.04 245.417C333.604 245.417 334.115 245.319 334.574 245.123C335.033 244.927 335.422 244.646 335.74 244.278C336.059 243.911 336.285 243.47 336.42 242.956H338.587C338.465 243.789 338.162 244.539 337.678 245.206C337.201 245.867 336.567 246.394 335.777 246.786C334.993 247.171 334.081 247.364 333.04 247.364ZM345.907 247.401C345.013 247.401 344.202 247.233 343.473 246.896C342.745 246.553 342.166 246.06 341.738 245.417C341.309 244.768 341.095 243.985 341.095 243.066C341.095 242.258 341.254 241.603 341.572 241.101C341.891 240.593 342.316 240.195 342.849 239.907C343.382 239.619 343.969 239.405 344.612 239.264C345.261 239.117 345.913 239.001 346.568 238.915C347.426 238.805 348.121 238.722 348.653 238.667C349.192 238.606 349.584 238.505 349.829 238.364C350.08 238.223 350.205 237.978 350.205 237.629V237.556C350.205 236.65 349.957 235.945 349.461 235.443C348.972 234.941 348.228 234.69 347.23 234.69C346.195 234.69 345.384 234.917 344.796 235.37C344.208 235.823 343.795 236.307 343.556 236.821L341.499 236.086C341.866 235.229 342.356 234.562 342.968 234.084C343.587 233.6 344.26 233.264 344.989 233.074C345.724 232.878 346.446 232.78 347.156 232.78C347.609 232.78 348.13 232.835 348.718 232.945C349.311 233.049 349.884 233.267 350.435 233.597C350.992 233.928 351.454 234.427 351.822 235.094C352.189 235.762 352.373 236.656 352.373 237.776V247.07H350.205V245.16H350.095C349.948 245.466 349.703 245.794 349.36 246.143C349.018 246.492 348.561 246.789 347.992 247.034C347.423 247.279 346.728 247.401 345.907 247.401ZM346.238 245.454C347.095 245.454 347.817 245.286 348.405 244.949C348.999 244.612 349.446 244.177 349.746 243.645C350.052 243.112 350.205 242.552 350.205 241.964V239.98C350.114 240.091 349.911 240.192 349.599 240.283C349.293 240.369 348.938 240.446 348.534 240.513C348.136 240.574 347.747 240.629 347.367 240.678C346.994 240.721 346.691 240.758 346.458 240.789C345.895 240.862 345.368 240.981 344.879 241.147C344.395 241.306 344.003 241.548 343.703 241.872C343.409 242.191 343.262 242.625 343.262 243.176C343.262 243.929 343.541 244.499 344.098 244.885C344.661 245.264 345.375 245.454 346.238 245.454ZM362.464 232.964V234.8H355.153V232.964H362.464ZM357.284 229.584H359.451V243.029C359.451 243.642 359.54 244.101 359.718 244.407C359.901 244.707 360.134 244.909 360.416 245.013C360.704 245.111 361.007 245.16 361.325 245.16C361.564 245.16 361.76 245.148 361.913 245.123C362.066 245.093 362.188 245.068 362.28 245.05L362.721 246.997C362.574 247.052 362.369 247.107 362.106 247.162C361.842 247.224 361.509 247.254 361.105 247.254C360.492 247.254 359.892 247.122 359.305 246.859C358.723 246.596 358.239 246.195 357.853 245.656C357.474 245.117 357.284 244.438 357.284 243.617V229.584ZM365.724 247.07V232.964H367.892V247.07H365.724ZM366.826 230.613C366.404 230.613 366.04 230.469 365.733 230.181C365.433 229.893 365.283 229.547 365.283 229.143C365.283 228.739 365.433 228.393 365.733 228.105C366.04 227.818 366.404 227.674 366.826 227.674C367.249 227.674 367.61 227.818 367.91 228.105C368.216 228.393 368.369 228.739 368.369 229.143C368.369 229.547 368.216 229.893 367.91 230.181C367.61 230.469 367.249 230.613 366.826 230.613ZM377.592 247.364C376.319 247.364 375.201 247.061 374.24 246.455C373.285 245.849 372.538 245.001 371.999 243.911C371.467 242.821 371.2 241.548 371.2 240.091C371.2 238.621 371.467 237.338 371.999 236.242C372.538 235.146 373.285 234.295 374.24 233.689C375.201 233.083 376.319 232.78 377.592 232.78C378.866 232.78 379.98 233.083 380.935 233.689C381.897 234.295 382.644 235.146 383.176 236.242C383.715 237.338 383.984 238.621 383.984 240.091C383.984 241.548 383.715 242.821 383.176 243.911C382.644 245.001 381.897 245.849 380.935 246.455C379.98 247.061 378.866 247.364 377.592 247.364ZM377.592 245.417C378.56 245.417 379.356 245.169 379.98 244.673C380.605 244.177 381.067 243.525 381.367 242.717C381.667 241.909 381.817 241.033 381.817 240.091C381.817 239.148 381.667 238.269 381.367 237.455C381.067 236.64 380.605 235.982 379.98 235.48C379.356 234.978 378.56 234.727 377.592 234.727C376.625 234.727 375.829 234.978 375.204 235.48C374.58 235.982 374.118 236.64 373.818 237.455C373.518 238.269 373.368 239.148 373.368 240.091C373.368 241.033 373.518 241.909 373.818 242.717C374.118 243.525 374.58 244.177 375.204 244.673C375.829 245.169 376.625 245.417 377.592 245.417ZM389.46 238.584V247.07H387.293V232.964H389.387V235.168H389.571C389.901 234.451 390.403 233.876 391.077 233.441C391.75 233 392.62 232.78 393.685 232.78C394.64 232.78 395.476 232.976 396.192 233.368C396.909 233.754 397.466 234.341 397.864 235.131C398.262 235.915 398.461 236.907 398.461 238.107V247.07H396.293V238.254C396.293 237.145 396.006 236.282 395.43 235.664C394.855 235.039 394.065 234.727 393.061 234.727C392.369 234.727 391.75 234.877 391.205 235.177C390.667 235.477 390.241 235.915 389.929 236.49C389.617 237.066 389.46 237.764 389.46 238.584ZM415.426 247.364C414.153 247.364 413.035 247.061 412.074 246.455C411.119 245.849 410.372 245.001 409.833 243.911C409.3 242.821 409.034 241.548 409.034 240.091C409.034 238.621 409.3 237.338 409.833 236.242C410.372 235.146 411.119 234.295 412.074 233.689C413.035 233.083 414.153 232.78 415.426 232.78C416.7 232.78 417.814 233.083 418.769 233.689C419.73 234.295 420.477 235.146 421.01 236.242C421.549 237.338 421.818 238.621 421.818 240.091C421.818 241.548 421.549 242.821 421.01 243.911C420.477 245.001 419.73 245.849 418.769 246.455C417.814 247.061 416.7 247.364 415.426 247.364ZM415.426 245.417C416.394 245.417 417.189 245.169 417.814 244.673C418.439 244.177 418.901 243.525 419.201 242.717C419.501 241.909 419.651 241.033 419.651 240.091C419.651 239.148 419.501 238.269 419.201 237.455C418.901 236.64 418.439 235.982 417.814 235.48C417.189 234.978 416.394 234.727 415.426 234.727C414.459 234.727 413.663 234.978 413.038 235.48C412.414 235.982 411.952 236.64 411.651 237.455C411.351 238.269 411.201 239.148 411.201 240.091C411.201 241.033 411.351 241.909 411.651 242.717C411.952 243.525 412.414 244.177 413.038 244.673C413.663 245.169 414.459 245.417 415.426 245.417ZM427.294 238.584V247.07H425.127V232.964H427.221V235.168H427.405C427.735 234.451 428.237 233.876 428.911 233.441C429.584 233 430.454 232.78 431.519 232.78C432.474 232.78 433.31 232.976 434.026 233.368C434.743 233.754 435.3 234.341 435.698 235.131C436.096 235.915 436.295 236.907 436.295 238.107V247.07H434.127V238.254C434.127 237.145 433.839 236.282 433.264 235.664C432.688 235.039 431.899 234.727 430.894 234.727C430.203 234.727 429.584 234.877 429.039 235.177C428.5 235.477 428.075 235.915 427.763 236.49C427.45 237.066 427.294 237.764 427.294 238.584ZM442.423 228.261V247.07H440.255V228.261H442.423ZM447.789 252.36C447.421 252.36 447.094 252.33 446.806 252.269C446.518 252.214 446.319 252.158 446.209 252.103L446.76 250.193C447.287 250.328 447.752 250.377 448.156 250.34C448.56 250.303 448.918 250.123 449.23 249.798C449.549 249.48 449.84 248.962 450.103 248.246L450.507 247.144L445.291 232.964H447.642L451.536 244.205H451.683L455.577 232.964H457.928L451.94 249.128C451.67 249.856 451.337 250.459 450.939 250.937C450.541 251.421 450.078 251.779 449.552 252.011C449.032 252.244 448.444 252.36 447.789 252.36ZM471.259 247.07L466.96 232.964H469.238L472.287 243.764H472.434L475.446 232.964H477.761L480.737 243.727H480.883L483.933 232.964H486.21L481.912 247.07H479.781L476.696 236.233H476.475L473.389 247.07H471.259ZM491.243 238.584V247.07H489.076V228.261H491.243V235.168H491.427C491.757 234.439 492.253 233.861 492.915 233.432C493.582 232.997 494.47 232.78 495.578 232.78C496.539 232.78 497.381 232.973 498.104 233.359C498.826 233.738 499.386 234.323 499.784 235.113C500.188 235.896 500.39 236.894 500.39 238.107V247.07H498.223V238.254C498.223 237.133 497.932 236.267 497.351 235.655C496.775 235.036 495.976 234.727 494.953 234.727C494.243 234.727 493.606 234.877 493.043 235.177C492.486 235.477 492.045 235.915 491.721 236.49C491.402 237.066 491.243 237.764 491.243 238.584ZM504.356 247.07V232.964H506.523V247.07H504.356ZM505.458 230.613C505.035 230.613 504.671 230.469 504.365 230.181C504.065 229.893 503.915 229.547 503.915 229.143C503.915 228.739 504.065 228.393 504.365 228.105C504.671 227.818 505.035 227.674 505.458 227.674C505.88 227.674 506.241 227.818 506.541 228.105C506.848 228.393 507.001 228.739 507.001 229.143C507.001 229.547 506.848 229.893 506.541 230.181C506.241 230.469 505.88 230.613 505.458 230.613ZM512.66 228.261V247.07H510.493V228.261H512.66ZM522.545 247.364C521.186 247.364 520.013 247.064 519.027 246.464C518.048 245.858 517.291 245.013 516.759 243.929C516.232 242.84 515.969 241.572 515.969 240.127C515.969 238.682 516.232 237.409 516.759 236.307C517.291 235.198 518.032 234.335 518.981 233.717C519.936 233.092 521.051 232.78 522.324 232.78C523.059 232.78 523.785 232.902 524.501 233.147C525.217 233.392 525.869 233.79 526.457 234.341C527.045 234.886 527.513 235.609 527.862 236.509C528.211 237.409 528.386 238.517 528.386 239.833V240.752H517.512V238.878H526.182C526.182 238.082 526.022 237.372 525.704 236.748C525.392 236.123 524.945 235.63 524.363 235.269C523.788 234.908 523.108 234.727 522.324 234.727C521.461 234.727 520.714 234.941 520.083 235.37C519.459 235.792 518.978 236.343 518.642 237.023C518.305 237.703 518.136 238.431 518.136 239.209V240.458C518.136 241.523 518.32 242.426 518.687 243.167C519.061 243.902 519.578 244.462 520.24 244.848C520.901 245.227 521.669 245.417 522.545 245.417C523.114 245.417 523.628 245.338 524.088 245.179C524.553 245.013 524.954 244.768 525.291 244.444C525.628 244.113 525.888 243.703 526.071 243.213L528.165 243.801C527.945 244.511 527.575 245.136 527.054 245.674C526.534 246.207 525.891 246.623 525.125 246.923C524.36 247.217 523.5 247.364 522.545 247.364ZM170.98 295.36C170.613 295.36 170.285 295.33 169.997 295.269C169.71 295.214 169.511 295.158 169.4 295.103L169.952 293.193C170.478 293.328 170.943 293.377 171.348 293.34C171.752 293.303 172.11 293.123 172.422 292.798C172.74 292.48 173.031 291.962 173.295 291.246L173.699 290.144L168.482 275.964H170.833L174.727 287.205H174.874L178.768 275.964H181.119L175.131 292.128C174.862 292.856 174.528 293.459 174.13 293.937C173.732 294.421 173.27 294.779 172.744 295.011C172.223 295.244 171.635 295.36 170.98 295.36ZM189.206 290.364C187.932 290.364 186.815 290.061 185.854 289.455C184.899 288.849 184.152 288.001 183.613 286.911C183.08 285.821 182.814 284.548 182.814 283.091C182.814 281.621 183.08 280.338 183.613 279.242C184.152 278.146 184.899 277.295 185.854 276.689C186.815 276.083 187.932 275.78 189.206 275.78C190.48 275.78 191.594 276.083 192.549 276.689C193.51 277.295 194.257 278.146 194.79 279.242C195.329 280.338 195.598 281.621 195.598 283.091C195.598 284.548 195.329 285.821 194.79 286.911C194.257 288.001 193.51 288.849 192.549 289.455C191.594 290.061 190.48 290.364 189.206 290.364ZM189.206 288.417C190.173 288.417 190.969 288.169 191.594 287.673C192.218 287.177 192.681 286.525 192.981 285.717C193.281 284.909 193.431 284.033 193.431 283.091C193.431 282.148 193.281 281.269 192.981 280.455C192.681 279.64 192.218 278.982 191.594 278.48C190.969 277.978 190.173 277.727 189.206 277.727C188.239 277.727 187.443 277.978 186.818 278.48C186.194 278.982 185.731 279.64 185.431 280.455C185.131 281.269 184.981 282.148 184.981 283.091C184.981 284.033 185.131 284.909 185.431 285.717C185.731 286.525 186.194 287.177 186.818 287.673C187.443 288.169 188.239 288.417 189.206 288.417ZM207.797 284.303V275.964H209.964V290.07H207.797V287.683H207.65C207.319 288.399 206.805 289.008 206.107 289.51C205.409 290.006 204.527 290.254 203.462 290.254C202.58 290.254 201.797 290.061 201.111 289.676C200.425 289.284 199.886 288.696 199.494 287.912C199.103 287.122 198.907 286.127 198.907 284.927V275.964H201.074V284.78C201.074 285.809 201.362 286.629 201.937 287.242C202.519 287.854 203.26 288.16 204.16 288.16C204.699 288.16 205.247 288.022 205.804 287.747C206.367 287.471 206.839 287.049 207.218 286.479C207.604 285.91 207.797 285.184 207.797 284.303ZM216.223 271.261V272.915C216.223 273.417 216.131 273.952 215.948 274.522C215.77 275.085 215.507 275.633 215.158 276.166C214.815 276.692 214.399 277.151 213.909 277.543L212.733 276.588C213.119 276.037 213.453 275.465 213.734 274.871C214.022 274.271 214.166 273.631 214.166 272.951V271.261H216.223ZM218.531 290.07V275.964H220.625V278.094H220.772C221.029 277.396 221.494 276.83 222.168 276.395C222.841 275.961 223.6 275.743 224.445 275.743C224.605 275.743 224.804 275.746 225.042 275.752C225.281 275.759 225.462 275.768 225.584 275.78V277.984C225.511 277.966 225.342 277.938 225.079 277.902C224.822 277.859 224.549 277.837 224.262 277.837C223.576 277.837 222.964 277.981 222.425 278.269C221.892 278.551 221.47 278.942 221.157 279.444C220.851 279.94 220.698 280.507 220.698 281.144V290.07H218.531ZM233.639 290.364C232.279 290.364 231.107 290.064 230.121 289.464C229.141 288.858 228.385 288.013 227.853 286.929C227.326 285.84 227.063 284.572 227.063 283.127C227.063 281.682 227.326 280.409 227.853 279.307C228.385 278.198 229.126 277.335 230.075 276.717C231.03 276.092 232.145 275.78 233.418 275.78C234.153 275.78 234.878 275.902 235.595 276.147C236.311 276.392 236.963 276.79 237.551 277.341C238.139 277.886 238.607 278.609 238.956 279.509C239.305 280.409 239.48 281.517 239.48 282.833V283.752H228.606V281.878H237.276C237.276 281.082 237.116 280.372 236.798 279.748C236.486 279.123 236.039 278.63 235.457 278.269C234.882 277.908 234.202 277.727 233.418 277.727C232.555 277.727 231.808 277.941 231.177 278.37C230.553 278.792 230.072 279.343 229.735 280.023C229.399 280.703 229.23 281.431 229.23 282.209V283.458C229.23 284.523 229.414 285.426 229.781 286.167C230.155 286.902 230.672 287.462 231.333 287.848C231.995 288.227 232.763 288.417 233.639 288.417C234.208 288.417 234.722 288.338 235.182 288.179C235.647 288.013 236.048 287.768 236.385 287.444C236.721 287.113 236.982 286.703 237.165 286.213L239.259 286.801C239.039 287.511 238.668 288.136 238.148 288.674C237.628 289.207 236.985 289.623 236.219 289.923C235.454 290.217 234.594 290.364 233.639 290.364ZM258.941 284.303V275.964H261.108V290.07H258.941V287.683H258.794C258.463 288.399 257.949 289.008 257.251 289.51C256.553 290.006 255.671 290.254 254.606 290.254C253.724 290.254 252.94 290.061 252.255 289.676C251.569 289.284 251.03 288.696 250.638 287.912C250.246 287.122 250.051 286.127 250.051 284.927V275.964H252.218V284.78C252.218 285.809 252.506 286.629 253.081 287.242C253.663 287.854 254.404 288.16 255.304 288.16C255.843 288.16 256.391 288.022 256.948 287.747C257.511 287.471 257.983 287.049 258.362 286.479C258.748 285.91 258.941 285.184 258.941 284.303ZM275.07 279.123L273.123 279.674C273.001 279.35 272.82 279.034 272.581 278.728C272.349 278.416 272.03 278.159 271.626 277.957C271.222 277.755 270.705 277.654 270.074 277.654C269.211 277.654 268.491 277.853 267.916 278.251C267.347 278.642 267.062 279.141 267.062 279.748C267.062 280.286 267.258 280.712 267.65 281.024C268.041 281.336 268.654 281.597 269.486 281.805L271.58 282.319C272.842 282.625 273.781 283.094 274.4 283.724C275.018 284.349 275.327 285.154 275.327 286.14C275.327 286.948 275.095 287.67 274.629 288.307C274.17 288.944 273.527 289.446 272.701 289.813C271.874 290.181 270.913 290.364 269.817 290.364C268.378 290.364 267.187 290.052 266.244 289.428C265.302 288.803 264.705 287.891 264.454 286.691L266.511 286.176C266.707 286.936 267.077 287.505 267.622 287.885C268.173 288.264 268.892 288.454 269.78 288.454C270.791 288.454 271.593 288.24 272.187 287.811C272.787 287.376 273.087 286.856 273.087 286.25C273.087 285.76 272.915 285.35 272.572 285.019C272.229 284.682 271.703 284.431 270.993 284.266L268.641 283.715C267.35 283.409 266.401 282.934 265.794 282.292C265.194 281.643 264.894 280.831 264.894 279.858C264.894 279.062 265.118 278.358 265.565 277.745C266.018 277.133 266.633 276.652 267.411 276.303C268.194 275.954 269.082 275.78 270.074 275.78C271.47 275.78 272.566 276.086 273.362 276.698C274.164 277.311 274.734 278.119 275.07 279.123ZM278.59 290.07V275.964H280.758V290.07H278.59ZM279.692 273.613C279.27 273.613 278.905 273.469 278.599 273.181C278.299 272.893 278.149 272.547 278.149 272.143C278.149 271.739 278.299 271.393 278.599 271.105C278.905 270.818 279.27 270.674 279.692 270.674C280.115 270.674 280.476 270.818 280.776 271.105C281.082 271.393 281.235 271.739 281.235 272.143C281.235 272.547 281.082 272.893 280.776 273.181C280.476 273.469 280.115 273.613 279.692 273.613ZM286.895 281.584V290.07H284.727V275.964H286.821V278.168H287.005C287.336 277.451 287.838 276.876 288.511 276.441C289.185 276 290.054 275.78 291.12 275.78C292.075 275.78 292.91 275.976 293.627 276.368C294.343 276.754 294.9 277.341 295.298 278.131C295.696 278.915 295.895 279.907 295.895 281.107V290.07H293.728V281.254C293.728 280.145 293.44 279.282 292.864 278.664C292.289 278.039 291.499 277.727 290.495 277.727C289.803 277.727 289.185 277.877 288.64 278.177C288.101 278.477 287.675 278.915 287.363 279.49C287.051 280.066 286.895 280.764 286.895 281.584ZM305.55 295.654C304.503 295.654 303.603 295.52 302.85 295.25C302.097 294.987 301.469 294.638 300.967 294.203C300.471 293.775 300.076 293.315 299.782 292.826L301.509 291.613C301.705 291.871 301.953 292.164 302.253 292.495C302.553 292.832 302.963 293.123 303.484 293.368C304.01 293.619 304.699 293.744 305.55 293.744C306.689 293.744 307.629 293.469 308.37 292.918C309.11 292.366 309.481 291.503 309.481 290.328V287.462H309.297C309.138 287.719 308.911 288.038 308.618 288.417C308.33 288.791 307.913 289.124 307.368 289.418C306.83 289.706 306.101 289.85 305.183 289.85C304.044 289.85 303.021 289.581 302.115 289.042C301.215 288.503 300.502 287.719 299.975 286.691C299.455 285.662 299.195 284.413 299.195 282.944C299.195 281.499 299.449 280.24 299.957 279.169C300.465 278.091 301.172 277.259 302.078 276.671C302.985 276.077 304.032 275.78 305.219 275.78C306.138 275.78 306.866 275.933 307.405 276.239C307.95 276.539 308.366 276.882 308.654 277.268C308.948 277.647 309.175 277.96 309.334 278.205H309.554V275.964H311.648V290.475C311.648 291.687 311.373 292.673 310.822 293.432C310.277 294.197 309.542 294.757 308.618 295.112C307.699 295.474 306.677 295.654 305.55 295.654ZM305.477 287.903C306.346 287.903 307.081 287.704 307.681 287.306C308.281 286.908 308.737 286.336 309.049 285.589C309.361 284.842 309.518 283.948 309.518 282.907C309.518 281.89 309.364 280.993 309.058 280.216C308.752 279.438 308.299 278.829 307.699 278.388C307.099 277.947 306.358 277.727 305.477 277.727C304.558 277.727 303.793 277.96 303.181 278.425C302.574 278.89 302.118 279.515 301.812 280.299C301.512 281.082 301.362 281.952 301.362 282.907C301.362 283.886 301.515 284.753 301.821 285.506C302.134 286.253 302.593 286.841 303.199 287.269C303.811 287.692 304.57 287.903 305.477 287.903ZM329.025 275.964V277.8H321.714V275.964H329.025ZM323.845 272.584H326.012V286.029C326.012 286.642 326.101 287.101 326.279 287.407C326.462 287.707 326.695 287.909 326.977 288.013C327.264 288.111 327.567 288.16 327.886 288.16C328.125 288.16 328.32 288.148 328.474 288.123C328.627 288.093 328.749 288.068 328.841 288.05L329.282 289.997C329.135 290.052 328.93 290.107 328.666 290.162C328.403 290.224 328.069 290.254 327.665 290.254C327.053 290.254 326.453 290.122 325.865 289.859C325.284 289.596 324.8 289.195 324.414 288.656C324.035 288.117 323.845 287.438 323.845 286.617V272.584ZM334.755 281.584V290.07H332.588V271.261H334.755V278.168H334.939C335.27 277.439 335.766 276.861 336.427 276.432C337.094 275.997 337.982 275.78 339.09 275.78C340.052 275.78 340.893 275.973 341.616 276.359C342.338 276.738 342.899 277.323 343.297 278.113C343.701 278.896 343.903 279.894 343.903 281.107V290.07H341.735V281.254C341.735 280.133 341.444 279.267 340.863 278.655C340.287 278.036 339.488 277.727 338.466 277.727C337.756 277.727 337.119 277.877 336.555 278.177C335.998 278.477 335.557 278.915 335.233 279.49C334.915 280.066 334.755 280.764 334.755 281.584ZM353.783 290.364C352.423 290.364 351.251 290.064 350.265 289.464C349.285 288.858 348.529 288.013 347.997 286.929C347.47 285.84 347.207 284.572 347.207 283.127C347.207 281.682 347.47 280.409 347.997 279.307C348.529 278.198 349.27 277.335 350.219 276.717C351.174 276.092 352.289 275.78 353.562 275.78C354.297 275.78 355.022 275.902 355.739 276.147C356.455 276.392 357.107 276.79 357.695 277.341C358.283 277.886 358.751 278.609 359.1 279.509C359.449 280.409 359.624 281.517 359.624 282.833V283.752H348.75V281.878H357.419C357.419 281.082 357.26 280.372 356.942 279.748C356.63 279.123 356.183 278.63 355.601 278.269C355.025 277.908 354.346 277.727 353.562 277.727C352.699 277.727 351.952 277.941 351.321 278.37C350.697 278.792 350.216 279.343 349.879 280.023C349.543 280.703 349.374 281.431 349.374 282.209V283.458C349.374 284.523 349.558 285.426 349.925 286.167C350.299 286.902 350.816 287.462 351.477 287.848C352.139 288.227 352.907 288.417 353.783 288.417C354.352 288.417 354.866 288.338 355.325 288.179C355.791 288.013 356.192 287.768 356.529 287.444C356.865 287.113 357.126 286.703 357.309 286.213L359.403 286.801C359.183 287.511 358.812 288.136 358.292 288.674C357.771 289.207 357.129 289.623 356.363 289.923C355.598 290.217 354.738 290.364 353.783 290.364ZM374.346 290.401C373.452 290.401 372.641 290.233 371.912 289.896C371.183 289.553 370.605 289.06 370.176 288.417C369.748 287.768 369.533 286.985 369.533 286.066C369.533 285.258 369.692 284.603 370.011 284.101C370.329 283.593 370.755 283.195 371.287 282.907C371.82 282.619 372.408 282.405 373.051 282.264C373.7 282.117 374.352 282.001 375.007 281.915C375.864 281.805 376.559 281.722 377.092 281.667C377.631 281.606 378.022 281.505 378.267 281.364C378.518 281.223 378.644 280.978 378.644 280.629V280.556C378.644 279.65 378.396 278.945 377.9 278.443C377.41 277.941 376.666 277.69 375.668 277.69C374.633 277.69 373.822 277.917 373.234 278.37C372.647 278.823 372.233 279.307 371.995 279.821L369.937 279.086C370.305 278.229 370.795 277.562 371.407 277.084C372.025 276.6 372.699 276.264 373.427 276.074C374.162 275.878 374.885 275.78 375.595 275.78C376.048 275.78 376.568 275.835 377.156 275.945C377.75 276.049 378.322 276.267 378.873 276.597C379.431 276.928 379.893 277.427 380.26 278.094C380.628 278.762 380.811 279.656 380.811 280.776V290.07H378.644V288.16H378.534C378.387 288.466 378.142 288.794 377.799 289.143C377.456 289.492 377 289.789 376.431 290.034C375.861 290.279 375.166 290.401 374.346 290.401ZM374.676 288.454C375.534 288.454 376.256 288.286 376.844 287.949C377.438 287.612 377.885 287.177 378.185 286.645C378.491 286.112 378.644 285.552 378.644 284.964V282.98C378.552 283.091 378.35 283.192 378.038 283.283C377.732 283.369 377.376 283.446 376.972 283.513C376.574 283.574 376.186 283.629 375.806 283.678C375.433 283.721 375.129 283.758 374.897 283.789C374.333 283.862 373.807 283.981 373.317 284.147C372.833 284.306 372.442 284.548 372.142 284.872C371.848 285.191 371.701 285.625 371.701 286.176C371.701 286.929 371.979 287.499 372.536 287.885C373.1 288.264 373.813 288.454 374.676 288.454ZM384.767 295.36V275.964H386.861V278.205H387.118C387.278 277.96 387.498 277.647 387.78 277.268C388.068 276.882 388.478 276.539 389.01 276.239C389.549 275.933 390.278 275.78 391.196 275.78C392.384 275.78 393.431 276.077 394.337 276.671C395.243 277.265 395.951 278.107 396.459 279.196C396.967 280.286 397.221 281.572 397.221 283.054C397.221 284.548 396.967 285.843 396.459 286.939C395.951 288.029 395.246 288.873 394.346 289.473C393.446 290.067 392.409 290.364 391.233 290.364C390.327 290.364 389.601 290.214 389.056 289.914C388.511 289.608 388.092 289.262 387.798 288.877C387.504 288.485 387.278 288.16 387.118 287.903H386.935V295.36H384.767ZM386.898 283.017C386.898 284.082 387.054 285.022 387.366 285.837C387.679 286.645 388.135 287.278 388.735 287.738C389.335 288.191 390.07 288.417 390.939 288.417C391.845 288.417 392.601 288.179 393.208 287.701C393.82 287.217 394.279 286.568 394.585 285.754C394.897 284.933 395.054 284.021 395.054 283.017C395.054 282.025 394.9 281.131 394.594 280.335C394.294 279.533 393.838 278.9 393.226 278.434C392.62 277.963 391.857 277.727 390.939 277.727C390.057 277.727 389.317 277.95 388.717 278.397C388.116 278.838 387.663 279.457 387.357 280.253C387.051 281.042 386.898 281.964 386.898 283.017ZM400.527 295.36V275.964H402.621V278.205H402.878C403.038 277.96 403.258 277.647 403.54 277.268C403.827 276.882 404.238 276.539 404.77 276.239C405.309 275.933 406.038 275.78 406.956 275.78C408.144 275.78 409.191 276.077 410.097 276.671C411.003 277.265 411.71 278.107 412.219 279.196C412.727 280.286 412.981 281.572 412.981 283.054C412.981 284.548 412.727 285.843 412.219 286.939C411.71 288.029 411.006 288.873 410.106 289.473C409.206 290.067 408.168 290.364 406.993 290.364C406.087 290.364 405.361 290.214 404.816 289.914C404.271 289.608 403.852 289.262 403.558 288.877C403.264 288.485 403.038 288.16 402.878 287.903H402.695V295.36H400.527ZM402.658 283.017C402.658 284.082 402.814 285.022 403.126 285.837C403.439 286.645 403.895 287.278 404.495 287.738C405.095 288.191 405.83 288.417 406.699 288.417C407.605 288.417 408.361 288.179 408.967 287.701C409.58 287.217 410.039 286.568 410.345 285.754C410.657 284.933 410.813 284.021 410.813 283.017C410.813 282.025 410.66 281.131 410.354 280.335C410.054 279.533 409.598 278.9 408.986 278.434C408.38 277.963 407.617 277.727 406.699 277.727C405.817 277.727 405.076 277.95 404.476 278.397C403.876 278.838 403.423 279.457 403.117 280.253C402.811 281.042 402.658 281.964 402.658 283.017Z" fill="black"/>
<rect y="337.554" width="581.904" height="1.0776" fill="#3C3C43" fill-opacity="0.29"/>
<path d="M156.697 398.183H153.514L162.722 373.105H165.857L175.066 398.183H171.882L164.388 377.072H164.192L156.697 398.183ZM157.873 388.387H170.706V391.081H157.873V388.387ZM181.47 373.105V398.183H178.58V373.105H181.47ZM189.653 373.105V398.183H186.763V373.105H189.653ZM202.587 398.575C200.889 398.575 199.399 398.171 198.118 397.363C196.844 396.555 195.848 395.424 195.13 393.971C194.42 392.518 194.064 390.82 194.064 388.877C194.064 386.917 194.42 385.207 195.13 383.746C195.848 382.285 196.844 381.15 198.118 380.342C199.399 379.533 200.889 379.129 202.587 379.129C204.285 379.129 205.771 379.533 207.045 380.342C208.326 381.15 209.322 382.285 210.032 383.746C210.751 385.207 211.11 386.917 211.11 388.877C211.11 390.82 210.751 392.518 210.032 393.971C209.322 395.424 208.326 396.555 207.045 397.363C205.771 398.171 204.285 398.575 202.587 398.575ZM202.587 395.979C203.877 395.979 204.938 395.648 205.771 394.987C206.604 394.326 207.22 393.456 207.62 392.379C208.02 391.301 208.22 390.134 208.22 388.877C208.22 387.619 208.02 386.448 207.62 385.362C207.22 384.276 206.604 383.399 205.771 382.729C204.938 382.06 203.877 381.725 202.587 381.725C201.297 381.725 200.236 382.06 199.403 382.729C198.571 383.399 197.954 384.276 197.554 385.362C197.154 386.448 196.954 387.619 196.954 388.877C196.954 390.134 197.154 391.301 197.554 392.379C197.954 393.456 198.571 394.326 199.403 394.987C200.236 395.648 201.297 395.979 202.587 395.979ZM219.143 398.183L213.412 379.374H216.449L220.515 393.775H220.71L224.727 379.374H227.813L231.78 393.726H231.976L236.042 379.374H239.079L233.348 398.183H230.507L226.392 383.734H226.098L221.984 398.183H219.143ZM258.133 398.624C256.941 398.624 255.859 398.4 254.888 397.951C253.916 397.493 253.145 396.836 252.573 395.979C252.002 395.114 251.716 394.069 251.716 392.844C251.716 391.767 251.928 390.893 252.353 390.224C252.777 389.546 253.345 389.015 254.055 388.632C254.765 388.248 255.549 387.962 256.406 387.775C257.271 387.579 258.141 387.424 259.014 387.309C260.157 387.162 261.084 387.052 261.794 386.979C262.512 386.897 263.035 386.762 263.361 386.575C263.696 386.387 263.863 386.06 263.863 385.595V385.497C263.863 384.289 263.533 383.35 262.872 382.68C262.218 382.011 261.227 381.676 259.896 381.676C258.516 381.676 257.435 381.978 256.651 382.583C255.867 383.187 255.316 383.832 254.998 384.517L252.255 383.538C252.745 382.395 253.398 381.505 254.214 380.868C255.039 380.223 255.937 379.774 256.908 379.521C257.888 379.26 258.851 379.129 259.798 379.129C260.402 379.129 261.096 379.203 261.88 379.35C262.672 379.489 263.435 379.778 264.17 380.219C264.912 380.66 265.529 381.325 266.019 382.215C266.508 383.105 266.753 384.297 266.753 385.791V398.183H263.863V395.636H263.717C263.521 396.044 263.194 396.481 262.737 396.946C262.28 397.412 261.672 397.808 260.912 398.134C260.153 398.461 259.227 398.624 258.133 398.624ZM258.573 396.028C259.716 396.028 260.68 395.804 261.463 395.355C262.255 394.906 262.851 394.326 263.251 393.616C263.659 392.905 263.863 392.158 263.863 391.375V388.73C263.741 388.877 263.472 389.011 263.055 389.134C262.647 389.248 262.174 389.35 261.635 389.44C261.104 389.522 260.586 389.595 260.08 389.66C259.582 389.718 259.178 389.767 258.867 389.807C258.116 389.905 257.414 390.064 256.761 390.285C256.116 390.497 255.594 390.82 255.194 391.252C254.802 391.677 254.606 392.256 254.606 392.991C254.606 393.995 254.977 394.755 255.72 395.269C256.471 395.775 257.422 396.028 258.573 396.028ZM274.918 373.105V398.183H272.028V373.105H274.918ZM283.101 373.105V398.183H280.211V373.105H283.101ZM306.273 379.374V381.823H296.525V379.374H306.273ZM299.366 374.868H302.256V392.795C302.256 393.612 302.374 394.224 302.611 394.632C302.856 395.032 303.166 395.301 303.542 395.44C303.925 395.571 304.33 395.636 304.754 395.636C305.072 395.636 305.334 395.62 305.538 395.587C305.742 395.546 305.905 395.514 306.028 395.489L306.615 398.085C306.419 398.159 306.146 398.232 305.795 398.306C305.444 398.387 304.999 398.428 304.46 398.428C303.644 398.428 302.844 398.253 302.06 397.902C301.285 397.551 300.64 397.016 300.125 396.297C299.619 395.579 299.366 394.673 299.366 393.579V374.868ZM313.914 386.868V398.183H311.024V373.105H313.914V382.313H314.159C314.599 381.342 315.261 380.57 316.142 379.999C317.032 379.419 318.216 379.129 319.694 379.129C320.975 379.129 322.098 379.386 323.061 379.901C324.024 380.407 324.771 381.187 325.302 382.24C325.841 383.285 326.11 384.615 326.11 386.232V398.183H323.22V386.428C323.22 384.934 322.832 383.778 322.057 382.962C321.29 382.138 320.224 381.725 318.861 381.725C317.914 381.725 317.065 381.925 316.314 382.325C315.571 382.725 314.983 383.309 314.55 384.076C314.126 384.844 313.914 385.775 313.914 386.868ZM339.283 398.575C337.471 398.575 335.908 398.175 334.593 397.375C333.287 396.567 332.279 395.44 331.569 393.995C330.866 392.542 330.515 390.852 330.515 388.926C330.515 386.999 330.866 385.301 331.569 383.832C332.279 382.354 333.267 381.203 334.532 380.378C335.805 379.546 337.291 379.129 338.989 379.129C339.969 379.129 340.936 379.293 341.891 379.619C342.847 379.946 343.716 380.476 344.5 381.211C345.283 381.938 345.908 382.901 346.373 384.101C346.839 385.301 347.071 386.779 347.071 388.534V389.758H332.573V387.26H344.132C344.132 386.199 343.92 385.252 343.496 384.419C343.079 383.587 342.483 382.929 341.708 382.448C340.94 381.966 340.034 381.725 338.989 381.725C337.838 381.725 336.842 382.011 336.001 382.583C335.169 383.146 334.528 383.881 334.079 384.787C333.63 385.693 333.405 386.664 333.405 387.701V389.367C333.405 390.787 333.65 391.991 334.14 392.979C334.638 393.959 335.328 394.706 336.21 395.22C337.091 395.726 338.116 395.979 339.283 395.979C340.042 395.979 340.728 395.873 341.34 395.661C341.961 395.44 342.496 395.114 342.945 394.681C343.394 394.24 343.741 393.693 343.985 393.04L346.777 393.824C346.484 394.771 345.99 395.604 345.296 396.322C344.602 397.032 343.745 397.587 342.724 397.987C341.704 398.379 340.557 398.575 339.283 398.575ZM369.346 379.374V381.823H359.598V379.374H369.346ZM362.439 374.868H365.329V392.795C365.329 393.612 365.448 394.224 365.684 394.632C365.929 395.032 366.24 395.301 366.615 395.44C366.999 395.571 367.403 395.636 367.827 395.636C368.146 395.636 368.407 395.62 368.611 395.587C368.815 395.546 368.978 395.514 369.101 395.489L369.689 398.085C369.493 398.159 369.219 398.232 368.868 398.306C368.517 398.387 368.072 398.428 367.533 398.428C366.717 398.428 365.917 398.253 365.133 397.902C364.358 397.551 363.713 397.016 363.199 396.297C362.692 395.579 362.439 394.673 362.439 393.579V374.868ZM373.693 398.183V379.374H376.583V398.183H373.693ZM375.162 376.239C374.599 376.239 374.113 376.048 373.705 375.664C373.305 375.28 373.105 374.819 373.105 374.28C373.105 373.741 373.305 373.28 373.705 372.896C374.113 372.513 374.599 372.321 375.162 372.321C375.726 372.321 376.207 372.513 376.607 372.896C377.016 373.28 377.22 373.741 377.22 374.28C377.22 374.819 377.016 375.28 376.607 375.664C376.207 376.048 375.726 376.239 375.162 376.239ZM381.876 398.183V379.374H384.668V382.313H384.913C385.305 381.309 385.937 380.529 386.811 379.974C387.684 379.411 388.733 379.129 389.958 379.129C391.199 379.129 392.232 379.411 393.056 379.974C393.889 380.529 394.538 381.309 395.003 382.313H395.199C395.681 381.342 396.403 380.57 397.366 379.999C398.33 379.419 399.485 379.129 400.832 379.129C402.514 379.129 403.889 379.656 404.959 380.709C406.028 381.754 406.563 383.383 406.563 385.595V398.183H403.673V385.595C403.673 384.207 403.293 383.215 402.534 382.619C401.775 382.023 400.881 381.725 399.852 381.725C398.53 381.725 397.505 382.125 396.779 382.925C396.052 383.717 395.689 384.721 395.689 385.938V398.183H392.75V385.301C392.75 384.232 392.403 383.37 391.709 382.717C391.015 382.056 390.121 381.725 389.027 381.725C388.276 381.725 387.574 381.925 386.921 382.325C386.276 382.725 385.754 383.281 385.354 383.991C384.962 384.693 384.766 385.505 384.766 386.428V398.183H381.876ZM419.733 398.575C417.92 398.575 416.357 398.175 415.043 397.375C413.737 396.567 412.728 395.44 412.018 393.995C411.316 392.542 410.965 390.852 410.965 388.926C410.965 386.999 411.316 385.301 412.018 383.832C412.728 382.354 413.716 381.203 414.982 380.378C416.255 379.546 417.741 379.129 419.439 379.129C420.418 379.129 421.386 379.293 422.341 379.619C423.296 379.946 424.166 380.476 424.949 381.211C425.733 381.938 426.358 382.901 426.823 384.101C427.288 385.301 427.521 386.779 427.521 388.534V389.758H413.022V387.26H424.582C424.582 386.199 424.37 385.252 423.945 384.419C423.529 383.587 422.933 382.929 422.157 382.448C421.39 381.966 420.484 381.725 419.439 381.725C418.288 381.725 417.292 382.011 416.451 382.583C415.618 383.146 414.977 383.881 414.528 384.787C414.079 385.693 413.855 386.664 413.855 387.701V389.367C413.855 390.787 414.1 391.991 414.59 392.979C415.088 393.959 415.777 394.706 416.659 395.22C417.541 395.726 418.565 395.979 419.733 395.979C420.492 395.979 421.178 395.873 421.79 395.661C422.41 395.44 422.945 395.114 423.394 394.681C423.843 394.24 424.19 393.693 424.435 393.04L427.227 393.824C426.933 394.771 426.439 395.604 425.745 396.322C425.051 397.032 424.194 397.587 423.174 397.987C422.153 398.379 421.006 398.575 419.733 398.575Z" fill="#007AFF"/>
<rect y="433.735" width="581.904" height="1.0776" fill="#3C3C43" fill-opacity="0.29"/>
<path d="M81.2149 494.365H78.0311L87.2396 469.286H90.3745L99.5831 494.365H96.3992L88.905 473.254H88.7091L81.2149 494.365ZM82.3904 484.568H95.2237V487.262H82.3904V484.568ZM105.987 469.286V494.365H103.097V469.286H105.987ZM114.17 469.286V494.365H111.281V469.286H114.17ZM127.105 494.757C125.407 494.757 123.917 494.353 122.635 493.544C121.362 492.736 120.366 491.605 119.647 490.152C118.937 488.699 118.582 487.001 118.582 485.058C118.582 483.099 118.937 481.389 119.647 479.927C120.366 478.466 121.362 477.331 122.635 476.523C123.917 475.715 125.407 475.311 127.105 475.311C128.803 475.311 130.289 475.715 131.562 476.523C132.844 477.331 133.84 478.466 134.55 479.927C135.268 481.389 135.628 483.099 135.628 485.058C135.628 487.001 135.268 488.699 134.55 490.152C133.84 491.605 132.844 492.736 131.562 493.544C130.289 494.353 128.803 494.757 127.105 494.757ZM127.105 492.161C128.395 492.161 129.456 491.83 130.289 491.169C131.121 490.507 131.738 489.638 132.138 488.56C132.538 487.483 132.738 486.315 132.738 485.058C132.738 483.801 132.538 482.63 132.138 481.544C131.738 480.458 131.121 479.58 130.289 478.911C129.456 478.242 128.395 477.907 127.105 477.907C125.815 477.907 124.754 478.242 123.921 478.911C123.088 479.58 122.472 480.458 122.072 481.544C121.672 482.63 121.472 483.801 121.472 485.058C121.472 486.315 121.672 487.483 122.072 488.56C122.472 489.638 123.088 490.507 123.921 491.169C124.754 491.83 125.815 492.161 127.105 492.161ZM143.661 494.365L137.93 475.556H140.967L145.032 489.956H145.228L149.244 475.556H152.33L156.298 489.907H156.494L160.559 475.556H163.596L157.865 494.365H155.024L150.91 479.915H150.616L146.502 494.365H143.661ZM182.062 494.365L175.205 469.286H178.291L183.532 489.711H183.777L189.116 469.286H192.544L197.883 489.711H198.128L203.369 469.286H206.455L199.598 494.365H196.463L190.928 474.38H190.732L185.197 494.365H182.062ZM212.737 483.05V494.365H209.847V469.286H212.737V478.495H212.982C213.423 477.523 214.084 476.752 214.966 476.18C215.856 475.601 217.039 475.311 218.517 475.311C219.799 475.311 220.921 475.568 221.885 476.082C222.848 476.588 223.595 477.368 224.125 478.421C224.664 479.466 224.934 480.797 224.934 482.413V494.365H222.044V482.609C222.044 481.115 221.656 479.96 220.88 479.144C220.113 478.319 219.048 477.907 217.684 477.907C216.737 477.907 215.888 478.107 215.137 478.507C214.394 478.907 213.807 479.491 213.374 480.258C212.949 481.025 212.737 481.956 212.737 483.05ZM230.221 494.365V475.556H233.111V494.365H230.221ZM231.69 472.421C231.127 472.421 230.641 472.229 230.233 471.845C229.833 471.462 229.633 471 229.633 470.462C229.633 469.923 229.833 469.462 230.233 469.078C230.641 468.694 231.127 468.502 231.69 468.502C232.253 468.502 232.735 468.694 233.135 469.078C233.543 469.462 233.747 469.923 233.747 470.462C233.747 471 233.543 471.462 233.135 471.845C232.735 472.229 232.253 472.421 231.69 472.421ZM241.294 469.286V494.365H238.404V469.286H241.294ZM254.473 494.757C252.66 494.757 251.097 494.357 249.783 493.557C248.477 492.748 247.468 491.622 246.758 490.177C246.056 488.724 245.705 487.034 245.705 485.107C245.705 483.181 246.056 481.483 246.758 480.013C247.468 478.535 248.456 477.384 249.721 476.56C250.995 475.727 252.481 475.311 254.179 475.311C255.158 475.311 256.126 475.474 257.081 475.801C258.036 476.127 258.906 476.658 259.689 477.393C260.473 478.119 261.097 479.082 261.563 480.282C262.028 481.483 262.261 482.96 262.261 484.715V485.94H247.762V483.442H259.322C259.322 482.381 259.11 481.434 258.685 480.601C258.269 479.768 257.673 479.111 256.897 478.629C256.13 478.148 255.224 477.907 254.179 477.907C253.028 477.907 252.032 478.193 251.191 478.764C250.358 479.327 249.717 480.062 249.268 480.968C248.819 481.874 248.595 482.846 248.595 483.883V485.548C248.595 486.968 248.84 488.173 249.33 489.16C249.828 490.14 250.517 490.887 251.399 491.401C252.281 491.907 253.305 492.161 254.473 492.161C255.232 492.161 255.918 492.054 256.53 491.842C257.15 491.622 257.685 491.295 258.134 490.863C258.583 490.422 258.93 489.875 259.175 489.222L261.967 490.005C261.673 490.952 261.179 491.785 260.485 492.503C259.791 493.214 258.934 493.769 257.914 494.169C256.893 494.561 255.746 494.757 254.473 494.757ZM293.205 469.286H296.242V485.891C296.242 487.605 295.838 489.136 295.03 490.483C294.23 491.822 293.099 492.879 291.638 493.655C290.176 494.422 288.462 494.806 286.495 494.806C284.527 494.806 282.813 494.422 281.351 493.655C279.89 492.879 278.755 491.822 277.947 490.483C277.147 489.136 276.747 487.605 276.747 485.891V469.286H279.784V485.646C279.784 486.871 280.053 487.96 280.592 488.916C281.131 489.863 281.898 490.609 282.894 491.156C283.899 491.695 285.099 491.965 286.495 491.965C287.891 491.965 289.091 491.695 290.095 491.156C291.099 490.609 291.866 489.863 292.397 488.916C292.936 487.96 293.205 486.871 293.205 485.646V469.286ZM315.238 479.768L312.642 480.503C312.478 480.07 312.238 479.65 311.919 479.242C311.609 478.825 311.184 478.482 310.646 478.213C310.107 477.944 309.417 477.809 308.576 477.809C307.425 477.809 306.466 478.074 305.699 478.605C304.939 479.127 304.56 479.793 304.56 480.601C304.56 481.319 304.821 481.887 305.343 482.303C305.866 482.719 306.682 483.066 307.792 483.344L310.584 484.03C312.266 484.438 313.519 485.062 314.344 485.903C315.168 486.736 315.581 487.809 315.581 489.124C315.581 490.201 315.27 491.165 314.65 492.014C314.038 492.863 313.18 493.532 312.078 494.022C310.976 494.512 309.695 494.757 308.233 494.757C306.315 494.757 304.727 494.34 303.47 493.508C302.213 492.675 301.417 491.458 301.082 489.858L303.825 489.173C304.086 490.185 304.58 490.944 305.307 491.45C306.041 491.956 307.001 492.21 308.184 492.21C309.531 492.21 310.601 491.924 311.393 491.352C312.193 490.773 312.593 490.079 312.593 489.271C312.593 488.618 312.364 488.071 311.907 487.63C311.45 487.181 310.748 486.846 309.801 486.626L306.666 485.891C304.943 485.483 303.678 484.85 302.87 483.993C302.07 483.128 301.67 482.046 301.67 480.748C301.67 479.687 301.968 478.748 302.564 477.931C303.168 477.115 303.988 476.474 305.025 476.009C306.07 475.543 307.254 475.311 308.576 475.311C310.437 475.311 311.899 475.719 312.96 476.535C314.029 477.352 314.789 478.429 315.238 479.768ZM319.931 494.365V475.556H322.821V494.365H319.931ZM321.4 472.421C320.837 472.421 320.351 472.229 319.943 471.845C319.543 471.462 319.343 471 319.343 470.462C319.343 469.923 319.543 469.462 319.943 469.078C320.351 468.694 320.837 468.502 321.4 468.502C321.964 468.502 322.445 468.694 322.845 469.078C323.253 469.462 323.457 469.923 323.457 470.462C323.457 471 323.253 471.462 322.845 471.845C322.445 472.229 321.964 472.421 321.4 472.421ZM331.004 483.05V494.365H328.114V475.556H330.906V478.495H331.151C331.592 477.539 332.261 476.772 333.159 476.192C334.057 475.605 335.216 475.311 336.637 475.311C337.91 475.311 339.024 475.572 339.98 476.095C340.935 476.609 341.678 477.393 342.208 478.446C342.739 479.491 343.004 480.813 343.004 482.413V494.365H340.114V482.609C340.114 481.131 339.731 479.98 338.963 479.156C338.196 478.323 337.143 477.907 335.804 477.907C334.881 477.907 334.057 478.107 333.33 478.507C332.612 478.907 332.045 479.491 331.628 480.258C331.212 481.025 331.004 481.956 331.004 483.05ZM355.877 501.81C354.481 501.81 353.281 501.63 352.277 501.271C351.273 500.92 350.436 500.455 349.767 499.875C349.106 499.304 348.579 498.691 348.187 498.038L350.489 496.422C350.751 496.765 351.081 497.157 351.481 497.598C351.881 498.047 352.428 498.434 353.122 498.761C353.824 499.096 354.743 499.263 355.877 499.263C357.396 499.263 358.649 498.896 359.637 498.161C360.624 497.426 361.118 496.275 361.118 494.708V490.887H360.873C360.661 491.23 360.359 491.654 359.967 492.161C359.584 492.659 359.028 493.103 358.302 493.495C357.584 493.879 356.612 494.071 355.387 494.071C353.869 494.071 352.506 493.712 351.298 492.993C350.097 492.275 349.146 491.23 348.444 489.858C347.75 488.487 347.403 486.822 347.403 484.862C347.403 482.936 347.742 481.258 348.42 479.829C349.097 478.393 350.04 477.282 351.249 476.499C352.457 475.707 353.853 475.311 355.436 475.311C356.661 475.311 357.632 475.515 358.351 475.923C359.077 476.323 359.633 476.78 360.016 477.295C360.408 477.801 360.71 478.217 360.922 478.544H361.216V475.556H364.008V494.904C364.008 496.52 363.641 497.834 362.906 498.847C362.18 499.867 361.2 500.614 359.967 501.087C358.743 501.569 357.379 501.81 355.877 501.81ZM355.779 491.475C356.939 491.475 357.918 491.21 358.718 490.679C359.518 490.148 360.126 489.385 360.543 488.389C360.959 487.393 361.167 486.201 361.167 484.813C361.167 483.458 360.963 482.262 360.555 481.225C360.147 480.189 359.543 479.376 358.743 478.789C357.943 478.201 356.955 477.907 355.779 477.907C354.555 477.907 353.534 478.217 352.718 478.838C351.91 479.458 351.302 480.291 350.893 481.336C350.493 482.381 350.293 483.54 350.293 484.813C350.293 486.119 350.497 487.275 350.906 488.279C351.322 489.275 351.934 490.058 352.742 490.63C353.559 491.193 354.571 491.475 355.779 491.475ZM387.177 475.556V478.005H377.429V475.556H387.177ZM380.27 471.049H383.16V488.977C383.16 489.793 383.279 490.405 383.515 490.814C383.76 491.214 384.07 491.483 384.446 491.622C384.83 491.752 385.234 491.818 385.658 491.818C385.977 491.818 386.238 491.801 386.442 491.769C386.646 491.728 386.809 491.695 386.932 491.671L387.52 494.267C387.324 494.34 387.05 494.414 386.699 494.487C386.348 494.569 385.903 494.61 385.364 494.61C384.548 494.61 383.748 494.434 382.964 494.083C382.189 493.732 381.544 493.197 381.029 492.479C380.523 491.761 380.27 490.854 380.27 489.76V471.049ZM394.818 483.05V494.365H391.928V469.286H394.818V478.495H395.063C395.504 477.523 396.165 476.752 397.047 476.18C397.936 475.601 399.12 475.311 400.598 475.311C401.879 475.311 403.002 475.568 403.965 476.082C404.929 476.588 405.675 477.368 406.206 478.421C406.745 479.466 407.014 480.797 407.014 482.413V494.365H404.124V482.609C404.124 481.115 403.737 479.96 402.961 479.144C402.194 478.319 401.128 477.907 399.765 477.907C398.818 477.907 397.969 478.107 397.218 478.507C396.475 478.907 395.887 479.491 395.455 480.258C395.03 481.025 394.818 481.956 394.818 483.05ZM420.187 494.757C418.375 494.757 416.812 494.357 415.497 493.557C414.191 492.748 413.183 491.622 412.473 490.177C411.771 488.724 411.42 487.034 411.42 485.107C411.42 483.181 411.771 481.483 412.473 480.013C413.183 478.535 414.171 477.384 415.436 476.56C416.71 475.727 418.195 475.311 419.893 475.311C420.873 475.311 421.84 475.474 422.796 475.801C423.751 476.127 424.62 476.658 425.404 477.393C426.188 478.119 426.812 479.082 427.277 480.282C427.743 481.483 427.975 482.96 427.975 484.715V485.94H413.477V483.442H425.037C425.037 482.381 424.824 481.434 424.4 480.601C423.983 479.768 423.387 479.111 422.612 478.629C421.845 478.148 420.938 477.907 419.893 477.907C418.742 477.907 417.746 478.193 416.906 478.764C416.073 479.327 415.432 480.062 414.983 480.968C414.534 481.874 414.31 482.846 414.31 483.883V485.548C414.31 486.968 414.554 488.173 415.044 489.16C415.542 490.14 416.232 490.887 417.114 491.401C417.995 491.907 419.02 492.161 420.187 492.161C420.947 492.161 421.632 492.054 422.245 491.842C422.865 491.622 423.4 491.295 423.849 490.863C424.298 490.422 424.645 489.875 424.89 489.222L427.682 490.005C427.388 490.952 426.894 491.785 426.2 492.503C425.506 493.214 424.649 493.769 423.628 494.169C422.608 494.561 421.461 494.757 420.187 494.757ZM443.49 494.365H440.307L449.515 469.286H452.65L461.859 494.365H458.675L451.181 473.254H450.985L443.49 494.365ZM444.666 484.568H457.499V487.262H444.666V484.568ZM465.373 501.418V475.556H468.165V478.544H468.508C468.72 478.217 469.014 477.801 469.39 477.295C469.773 476.78 470.32 476.323 471.03 475.923C471.749 475.515 472.72 475.311 473.945 475.311C475.529 475.311 476.925 475.707 478.133 476.499C479.341 477.291 480.284 478.413 480.962 479.866C481.639 481.319 481.978 483.034 481.978 485.009C481.978 487.001 481.639 488.728 480.962 490.189C480.284 491.642 479.345 492.769 478.145 493.569C476.945 494.361 475.561 494.757 473.994 494.757C472.786 494.757 471.818 494.557 471.092 494.157C470.365 493.748 469.806 493.287 469.414 492.773C469.022 492.25 468.72 491.818 468.508 491.475H468.263V501.418H465.373ZM468.214 484.96C468.214 486.381 468.422 487.634 468.839 488.72C469.255 489.797 469.863 490.642 470.663 491.254C471.463 491.859 472.443 492.161 473.602 492.161C474.81 492.161 475.818 491.842 476.627 491.205C477.443 490.56 478.055 489.695 478.463 488.609C478.88 487.515 479.088 486.299 479.088 484.96C479.088 483.638 478.884 482.446 478.476 481.385C478.076 480.315 477.468 479.47 476.651 478.85C475.843 478.221 474.827 477.907 473.602 477.907C472.426 477.907 471.439 478.205 470.639 478.801C469.839 479.389 469.234 480.213 468.826 481.274C468.418 482.327 468.214 483.556 468.214 484.96ZM486.386 501.418V475.556H489.178V478.544H489.521C489.733 478.217 490.027 477.801 490.403 477.295C490.786 476.78 491.333 476.323 492.044 475.923C492.762 475.515 493.734 475.311 494.958 475.311C496.542 475.311 497.938 475.707 499.146 476.499C500.354 477.291 501.297 478.413 501.975 479.866C502.652 481.319 502.991 483.034 502.991 485.009C502.991 487.001 502.652 488.728 501.975 490.189C501.297 491.642 500.358 492.769 499.158 493.569C497.958 494.361 496.574 494.757 495.007 494.757C493.799 494.757 492.831 494.557 492.105 494.157C491.378 493.748 490.819 493.287 490.427 492.773C490.035 492.25 489.733 491.818 489.521 491.475H489.276V501.418H486.386ZM489.227 484.96C489.227 486.381 489.435 487.634 489.852 488.72C490.268 489.797 490.876 490.642 491.676 491.254C492.476 491.859 493.456 492.161 494.615 492.161C495.823 492.161 496.832 491.842 497.64 491.205C498.456 490.56 499.068 489.695 499.477 488.609C499.893 487.515 500.101 486.299 500.101 484.96C500.101 483.638 499.897 482.446 499.489 481.385C499.089 480.315 498.481 479.47 497.664 478.85C496.856 478.221 495.84 477.907 494.615 477.907C493.44 477.907 492.452 478.205 491.652 478.801C490.852 479.389 490.248 480.213 489.839 481.274C489.431 482.327 489.227 483.556 489.227 484.96Z" fill="#007AFF"/>
<rect y="529.917" width="581.904" height="1.0776" fill="#3C3C43" fill-opacity="0.29"/>
<path d="M210.603 590.546H202.864V565.468H210.946C213.379 565.468 215.461 565.97 217.191 566.974C218.922 567.97 220.249 569.403 221.171 571.272C222.094 573.133 222.555 575.362 222.555 577.958C222.555 580.57 222.09 582.82 221.159 584.705C220.228 586.583 218.873 588.028 217.093 589.04C215.314 590.044 213.15 590.546 210.603 590.546ZM205.901 587.852H210.407C212.481 587.852 214.199 587.452 215.563 586.652C216.926 585.852 217.942 584.713 218.612 583.236C219.281 581.758 219.616 579.999 219.616 577.958C219.616 575.933 219.285 574.191 218.624 572.729C217.963 571.26 216.975 570.133 215.661 569.35C214.346 568.558 212.71 568.162 210.75 568.162H205.901V587.852ZM234.898 590.938C233.2 590.938 231.71 590.534 230.429 589.726C229.155 588.918 228.159 587.787 227.441 586.334C226.731 584.881 226.376 583.183 226.376 581.24C226.376 579.281 226.731 577.57 227.441 576.109C228.159 574.648 229.155 573.513 230.429 572.705C231.71 571.897 233.2 571.492 234.898 571.492C236.596 571.492 238.082 571.897 239.356 572.705C240.637 573.513 241.633 574.648 242.344 576.109C243.062 577.57 243.421 579.281 243.421 581.24C243.421 583.183 243.062 584.881 242.344 586.334C241.633 587.787 240.637 588.918 239.356 589.726C238.082 590.534 236.596 590.938 234.898 590.938ZM234.898 588.342C236.188 588.342 237.249 588.012 238.082 587.35C238.915 586.689 239.531 585.82 239.931 584.742C240.331 583.664 240.531 582.497 240.531 581.24C240.531 579.983 240.331 578.811 239.931 577.725C239.531 576.64 238.915 575.762 238.082 575.093C237.249 574.423 236.188 574.088 234.898 574.088C233.608 574.088 232.547 574.423 231.715 575.093C230.882 575.762 230.265 576.64 229.865 577.725C229.465 578.811 229.265 579.983 229.265 581.24C229.265 582.497 229.465 583.664 229.865 584.742C230.265 585.82 230.882 586.689 231.715 587.35C232.547 588.012 233.608 588.342 234.898 588.342ZM250.723 579.232V590.546H247.833V571.737H250.625V574.676H250.869C251.31 573.721 251.98 572.954 252.878 572.374C253.776 571.786 254.935 571.492 256.355 571.492C257.629 571.492 258.743 571.754 259.698 572.276C260.654 572.79 261.396 573.574 261.927 574.627C262.458 575.672 262.723 576.995 262.723 578.595V590.546H259.833V578.791C259.833 577.313 259.449 576.162 258.682 575.338C257.915 574.505 256.862 574.088 255.523 574.088C254.6 574.088 253.776 574.289 253.049 574.689C252.331 575.089 251.763 575.672 251.347 576.44C250.931 577.207 250.723 578.138 250.723 579.232ZM270.551 565.468V567.672C270.551 568.341 270.429 569.056 270.184 569.815C269.947 570.566 269.596 571.297 269.131 572.007C268.673 572.709 268.118 573.321 267.465 573.844L265.898 572.57C266.412 571.835 266.857 571.072 267.232 570.28C267.616 569.48 267.808 568.627 267.808 567.721V565.468H270.551ZM283.054 571.737V574.186H273.306V571.737H283.054ZM276.147 567.231H279.037V585.158C279.037 585.975 279.155 586.587 279.392 586.995C279.637 587.395 279.947 587.665 280.323 587.803C280.707 587.934 281.111 587.999 281.535 587.999C281.854 587.999 282.115 587.983 282.319 587.95C282.523 587.91 282.686 587.877 282.809 587.852L283.396 590.448C283.201 590.522 282.927 590.595 282.576 590.669C282.225 590.75 281.78 590.791 281.241 590.791C280.425 590.791 279.625 590.616 278.841 590.265C278.066 589.914 277.421 589.379 276.906 588.661C276.4 587.942 276.147 587.036 276.147 585.942V567.231ZM298.52 590.546H295.336L304.544 565.468H307.679L316.888 590.546H313.704L306.21 569.435H306.014L298.52 590.546ZM299.695 580.75H312.528V583.444H299.695V580.75ZM323.292 565.468V590.546H320.402V565.468H323.292ZM331.475 565.468V590.546H328.585V565.468H331.475ZM344.409 590.938C342.711 590.938 341.222 590.534 339.94 589.726C338.666 588.918 337.67 587.787 336.952 586.334C336.242 584.881 335.887 583.183 335.887 581.24C335.887 579.281 336.242 577.57 336.952 576.109C337.67 574.648 338.666 573.513 339.94 572.705C341.222 571.897 342.711 571.492 344.409 571.492C346.107 571.492 347.593 571.897 348.867 572.705C350.148 573.513 351.144 574.648 351.855 576.109C352.573 577.57 352.932 579.281 352.932 581.24C352.932 583.183 352.573 584.881 351.855 586.334C351.144 587.787 350.148 588.918 348.867 589.726C347.593 590.534 346.107 590.938 344.409 590.938ZM344.409 588.342C345.699 588.342 346.761 588.012 347.593 587.35C348.426 586.689 349.042 585.82 349.442 584.742C349.842 583.664 350.042 582.497 350.042 581.24C350.042 579.983 349.842 578.811 349.442 577.725C349.042 576.64 348.426 575.762 347.593 575.093C346.761 574.423 345.699 574.088 344.409 574.088C343.12 574.088 342.058 574.423 341.226 575.093C340.393 575.762 339.777 576.64 339.377 577.725C338.977 578.811 338.777 579.983 338.777 581.24C338.777 582.497 338.977 583.664 339.377 584.742C339.777 585.82 340.393 586.689 341.226 587.35C342.058 588.012 343.12 588.342 344.409 588.342ZM360.965 590.546L355.234 571.737H358.271L362.337 586.138H362.533L366.549 571.737H369.635L373.603 586.089H373.799L377.864 571.737H380.901L375.17 590.546H372.329L368.215 576.097H367.921L363.806 590.546H360.965Z" fill="#007AFF"/>
</g>
<mask id="mask1_3187_1239" style="mask-type:alpha" maskUnits="userSpaceOnUse" x="605" y="343" width="90" height="90">
<rect x="605.848" y="343.86" width="88.8889" height="88.8889" fill="#D9D9D9"/>
</mask>
<g mask="url(#mask1_3187_1239)">
<path d="M632.253 392.008L657.356 412.748L650.969 417.934L615.107 388.304L650.969 358.674L657.356 363.86L632.253 384.6H686.83V392.008H632.253Z" fill="#EB600A"/>
</g>
<defs>
<filter id="filter0_b_3187_1239" x="-8.6208" y="-8.6208" width="599.145" height="649.556" filterUnits="userSpaceOnUse" color-interpolation-filters="sRGB">
<feFlood flood-opacity="0" result="BackgroundImageFix"/>
<feGaussianBlur in="BackgroundImageFix" stdDeviation="4.3104"/>
<feComposite in2="SourceAlpha" operator="in" result="effect1_backgroundBlur_3187_1239"/>
<feBlend mode="normal" in="SourceGraphic" in2="effect1_backgroundBlur_3187_1239" result="shape"/>
</filter>
</defs>
</svg>
