<svg width="360" height="131" viewBox="0 0 360 131" fill="none" xmlns="http://www.w3.org/2000/svg">
<g clip-path="url(#clip0_2424_17114)">
<g filter="url(#filter0_d_2424_17114)">
<path fill-rule="evenodd" clip-rule="evenodd" d="M29.2634 97.2479C33.7361 86.083 37.9781 72.7191 44.6634 68.545C48.5999 66.0881 62.2285 64.4184 62.2285 64.4184H70.665C70.665 64.4184 85.1827 62.7963 89.4653 66.8143C92.9268 70.0654 104.75 94.1326 104.75 94.1326C104.75 94.1326 96.9244 102.372 89.4653 102.372C89.6825 112.363 89.7233 121.397 89.7233 121.397C89.7233 121.397 90.0151 122.734 90.4902 125.191C78.1308 126.222 61.2783 126.263 46.8692 122.625C47.1746 119.041 47.3647 116.883 47.385 116.659L52.2446 84.3319C52.2446 84.3319 49.1768 95.7343 46.9778 102.936C43.5435 102.936 31.9511 100.187 29.2634 97.2411V97.2479Z" fill="#F1D054"/>
<path fill-rule="evenodd" clip-rule="evenodd" d="M66.8576 70.1128H67.0137C69.6607 70.1128 71.8054 67.968 71.8054 65.321V50.2739H62.0591V65.321C62.0591 67.968 64.2038 70.1128 66.8508 70.1128H66.8576Z" fill="#EDBA8C"/>
<path opacity="0.25" fill-rule="evenodd" clip-rule="evenodd" d="M71.812 63.9027C68.5678 64.2488 65.2692 64.0995 62.0657 63.4547V56.3757C65.2896 56.8983 68.5474 57.163 71.812 57.1766V63.9027Z" fill="#561C2F" stroke="#EDBA8C" stroke-width="0.347756" stroke-miterlimit="22.93"/>
<path fill-rule="evenodd" clip-rule="evenodd" d="M84.7959 10.2773C84.7959 10.2773 84.2394 5.4924 82.1353 3.3816C80.0245 1.27759 66.4638 -1.34904 59.6156 0.802487C57.4641 3.06939 56.0863 7.54212 56.0863 7.54212L84.7959 10.2773Z" fill="#F1D054"/>
<path fill-rule="evenodd" clip-rule="evenodd" d="M31.184 18.8971C30.3899 27.6661 47.0388 36.3333 68.3708 38.2676C89.7028 40.2019 107.634 34.6568 108.429 25.8946C109.223 17.1256 92.5738 8.45846 71.2418 6.52412C49.9098 4.58978 31.9781 10.1349 31.184 18.8971Z" fill="#F1D054"/>
<mask id="mask0_2424_17114" style="mask-type:luminance" maskUnits="userSpaceOnUse" x="31" y="6" width="78" height="33">
<path d="M31.184 18.8971C30.3899 27.6661 47.0388 36.3333 68.3708 38.2676C89.7028 40.2019 107.634 34.6568 108.429 25.8946C109.223 17.1256 92.5738 8.45846 71.2418 6.52412C49.9098 4.58978 31.9781 10.1349 31.184 18.8971Z" fill="white"/>
</mask>
<g mask="url(#mask0_2424_17114)">
<path opacity="0.3" fill-rule="evenodd" clip-rule="evenodd" d="M31.184 18.8971C30.3899 27.6661 47.0388 36.3333 68.3708 38.2676C89.7028 40.2019 107.634 34.6568 108.429 25.8946C109.223 17.1256 92.5738 8.45846 71.2418 6.52412C49.9098 4.58978 31.9781 10.1349 31.184 18.8971Z" fill="#CB2E45"/>
</g>
<path fill-rule="evenodd" clip-rule="evenodd" d="M44.0459 33.5234C45.5391 36.5641 48.315 38.2541 50.2493 37.3039C52.1837 36.3537 52.5366 33.123 51.0434 30.0823C49.5503 27.0417 46.7743 25.3517 44.84 26.3019C42.9056 27.2521 42.5527 30.4828 44.0459 33.5234Z" fill="#EDBA8C"/>
<path fill-rule="evenodd" clip-rule="evenodd" d="M49.5433 40.1135L51.4166 22.4737C52.2853 14.2884 59.629 8.35641 67.8143 9.23195L74.9001 9.98532C83.0854 10.8541 89.0174 18.1978 88.1418 26.3831L86.2686 44.0229C85.3998 52.2082 78.0561 58.1401 69.8708 57.2646L62.7851 56.5112C54.5998 55.6425 48.6678 48.2988 49.5433 40.1135Z" fill="#EDBA8C"/>
<path fill-rule="evenodd" clip-rule="evenodd" d="M92.5332 38.4033C90.5106 41.1181 87.4768 42.2787 85.7461 40.9959C84.0153 39.7132 84.2529 36.4689 86.2755 33.7541C88.298 31.0392 91.3319 29.8786 93.0626 31.1614C94.7865 32.4441 94.5558 35.6884 92.5332 38.4033Z" fill="#EDBA8C"/>
<path fill-rule="evenodd" clip-rule="evenodd" d="M92.391 33.4758C89.7304 33.8084 88.7599 36.5911 88.0744 38.7969C87.959 39.1702 87.3685 39.0141 87.4839 38.634C88.2712 36.1092 89.4114 33.2383 92.391 32.865C92.7779 32.8175 92.7779 33.4215 92.391 33.4758Z" fill="#561C2F"/>
<path fill-rule="evenodd" clip-rule="evenodd" d="M90.9248 36.7607C90.3343 36.3603 89.7031 36.1024 89.004 35.9734C88.6171 35.8987 88.78 35.315 89.1669 35.3829C89.9135 35.5187 90.6058 35.8105 91.2302 36.2313C91.5492 36.4485 91.2505 36.9779 90.9248 36.7539V36.7607Z" fill="#561C2F"/>
<path fill-rule="evenodd" clip-rule="evenodd" d="M48.8986 35.9735C49.0344 33.1636 47.9756 30.5913 45.9055 28.6909C45.6137 28.4262 46.048 27.9918 46.3331 28.2633C48.5118 30.2723 49.6384 33.0211 49.5027 35.9803C49.4823 36.3739 48.8783 36.3739 48.8918 35.9803L48.8986 35.9735Z" fill="#561C2F"/>
<path fill-rule="evenodd" clip-rule="evenodd" d="M48.1725 31.9893C47.2902 32.0979 46.53 32.5458 45.9735 33.2245C45.7223 33.5299 45.2947 33.0956 45.5459 32.7969C46.211 31.9825 47.1341 31.5074 48.1725 31.3852C48.5594 31.3377 48.5594 31.9485 48.1725 31.996V31.9893Z" fill="#561C2F"/>
<path fill-rule="evenodd" clip-rule="evenodd" d="M88.1827 24.3266C86.3433 31.202 85.0674 40.3579 85.0674 40.3579C85.0674 40.3579 82.4339 39.7131 80.2485 38.5321C78.063 37.3512 71.4863 33.2042 62.5001 35.22C54.1383 37.0933 52.5773 37.0593 52.5773 37.0593C52.5773 37.0593 51.2538 25.1682 51.7085 19.9761C49.1362 30.3943 37.2519 59.1447 65.9208 61.7985C93.9042 63.8482 88.2777 39.4009 88.1894 24.3334L88.1827 24.3266Z" fill="#CB2E45"/>
<mask id="mask1_2424_17114" style="mask-type:luminance" maskUnits="userSpaceOnUse" x="47" y="19" width="42" height="43">
<path d="M88.1827 24.3266C86.3433 31.202 85.0674 40.3579 85.0674 40.3579C85.0674 40.3579 82.4339 39.7131 80.2485 38.5321C78.063 37.3512 71.4863 33.2042 62.5001 35.22C54.1383 37.0933 52.5773 37.0593 52.5773 37.0593C52.5773 37.0593 51.2538 25.1682 51.7085 19.9761C49.1362 30.3943 37.2519 59.1447 65.9208 61.7985C93.9042 63.8482 88.2777 39.4009 88.1894 24.3334L88.1827 24.3266Z" fill="white"/>
</mask>
<g mask="url(#mask1_2424_17114)">
<path opacity="0.3" fill-rule="evenodd" clip-rule="evenodd" d="M88.1827 24.3266C86.3433 31.202 85.0674 40.3579 85.0674 40.3579C85.0674 40.3579 82.4339 39.7131 80.2485 38.5321C78.063 37.3512 71.4863 33.2042 62.5001 35.22C54.1383 37.0933 52.5773 37.0593 52.5773 37.0593C52.5773 37.0593 51.2538 25.1682 51.7085 19.9761C49.1362 30.3943 37.2519 59.1447 65.9208 61.7985C93.9042 63.8482 88.2777 39.4009 88.1894 24.3334L88.1827 24.3266Z" fill="#561C2F"/>
</g>
<path fill-rule="evenodd" clip-rule="evenodd" d="M46.8692 122.618C46.9506 122.632 47.0389 122.645 47.1271 122.659L47.1474 121.824C58.5702 93.7254 50.9483 66.4207 50.9483 66.4207L56.3372 65.1583C56.3372 65.1583 60.1923 75.5766 59.4729 88.316C59.4729 88.316 73.8277 87.9631 82.5288 88.6554C82.3727 76.6693 80.4588 64.0859 80.4588 64.0859L86.1057 64.9275C86.1057 64.9275 91.1757 97.4923 89.4653 102.365L89.7232 121.39L90.239 123.955H90.2526C90.3748 124.58 90.5241 125.326 90.6802 126.168V126.182C93.5987 141.609 101.757 191.963 94.8339 241.244C83.4044 242.079 81.8298 241.224 81.8298 241.224C81.8298 241.224 79.2982 178.68 72.0698 145.579L50.1338 239.839L36.9803 238.556C36.9803 238.556 44.7719 147.106 46.8692 122.611V122.618Z" fill="#561C2F"/>
<mask id="mask2_2424_17114" style="mask-type:luminance" maskUnits="userSpaceOnUse" x="36" y="64" width="62" height="178">
<path d="M46.8692 122.618C46.9506 122.632 47.0389 122.645 47.1271 122.659L47.1474 121.824C58.5702 93.7254 50.9483 66.4207 50.9483 66.4207L56.3372 65.1583C56.3372 65.1583 60.1923 75.5766 59.4729 88.316C59.4729 88.316 73.8277 87.9631 82.5288 88.6554C82.3727 76.6693 80.4588 64.0859 80.4588 64.0859L86.1057 64.9275C86.1057 64.9275 91.1757 97.4923 89.4653 102.365L89.7232 121.39L90.239 123.955H90.2526C90.3748 124.58 90.5241 125.326 90.6802 126.168V126.182C93.5987 141.609 101.757 191.963 94.8339 241.244C83.4044 242.079 81.8298 241.224 81.8298 241.224C81.8298 241.224 79.2982 178.68 72.0698 145.579L50.1338 239.839L36.9803 238.556C36.9803 238.556 44.7719 147.106 46.8692 122.611V122.618Z" fill="white"/>
</mask>
<g mask="url(#mask2_2424_17114)">
<path opacity="0.3" fill-rule="evenodd" clip-rule="evenodd" d="M46.8692 122.618C46.9506 122.632 47.0389 122.645 47.1271 122.659L47.1474 121.824C58.5702 93.7254 50.9483 66.4207 50.9483 66.4207L56.3372 65.1583C56.3372 65.1583 60.1923 75.5766 59.4729 88.316C59.4729 88.316 73.8277 87.9631 82.5288 88.6554C82.3727 76.6693 80.4588 64.0859 80.4588 64.0859L86.1057 64.9275C86.1057 64.9275 91.1757 97.4923 89.4653 102.365L89.7232 121.39L90.239 123.955H90.2526C90.3748 124.58 90.5241 125.326 90.6802 126.168V126.182C93.5987 141.609 101.757 191.963 94.8339 241.244C83.4044 242.079 81.8298 241.224 81.8298 241.224C81.8298 241.224 79.2982 178.68 72.0698 145.579L50.1338 239.839L36.9803 238.556C36.9803 238.556 44.7719 147.106 46.8692 122.611V122.618Z" fill="#561C2F"/>
</g>
<path fill-rule="evenodd" clip-rule="evenodd" d="M69.1854 34.5006C68.9953 32.417 68.9614 30.313 69.0836 28.2225C69.1447 27.1977 69.2397 26.1728 69.3754 25.1547C69.4704 24.4081 69.4704 23.4036 69.7759 22.7046C70.1899 21.7544 71.622 21.6526 71.907 22.7181C72.1378 23.5665 71.8052 24.5167 71.717 25.3651C71.5745 26.8447 71.3708 28.3175 71.303 29.7971C71.269 30.5166 71.269 31.2292 71.3165 31.9487C71.3437 32.3898 71.1944 33.245 71.5269 33.5844C71.7102 33.7676 72.0224 33.8219 72.2396 33.6794C72.4093 33.5708 72.4907 33.3672 72.6332 33.2246C72.8776 32.9667 73.2916 32.9057 73.6242 33.0346C74.3504 33.3265 74.2622 33.9305 74.1196 34.5617C73.9092 35.4712 73.4613 36.3264 72.8029 36.9983C72.4568 37.3512 72.036 37.6567 71.5473 37.7177C70.8075 37.8128 70.0881 37.3037 69.7216 36.6589C69.3483 36.0074 69.26 35.2472 69.1922 34.5006H69.1854Z" fill="#F1D054"/>
<path fill-rule="evenodd" clip-rule="evenodd" d="M75.8911 31.4804C75.7214 32.8039 76.2983 33.9713 77.1739 34.0799C78.0494 34.1885 78.8978 33.2044 79.0607 31.8809C79.2304 30.5574 78.6535 29.39 77.7779 29.2814C76.9024 29.1728 76.054 30.1569 75.8911 31.4804Z" fill="#561C2F"/>
<path fill-rule="evenodd" clip-rule="evenodd" d="M65.8935 30.4964C65.9343 31.8334 65.2488 32.9397 64.3664 32.9601C63.4841 32.9873 62.7375 31.9217 62.6968 30.5846C62.6561 29.2475 63.3416 28.1412 64.2239 28.1209C65.1062 28.0937 65.8528 29.1593 65.8935 30.4964Z" fill="#561C2F"/>
<path fill-rule="evenodd" clip-rule="evenodd" d="M81.7824 27.0279C80.9951 25.0596 79.0743 24.0619 77.0111 24.313C76.2034 24.408 76.2102 23.1456 77.0111 23.0506C79.6852 22.7316 82.02 24.2316 83.0041 26.6953C83.3095 27.4555 82.081 27.7813 81.7824 27.0347V27.0279Z" fill="#561C2F"/>
<path fill-rule="evenodd" clip-rule="evenodd" d="M65.9685 22.9895C64.1292 22.2769 62.1813 22.8267 60.9596 24.3741C60.4574 25.0121 59.5682 24.1162 60.0637 23.4782C61.5297 21.6118 64.0953 20.9195 66.3011 21.7679C67.0545 22.0597 66.7287 23.2814 65.9617 22.9895H65.9685Z" fill="#561C2F"/>
<path fill-rule="evenodd" clip-rule="evenodd" d="M31.6796 99.3723L45.3489 104.673C45.0163 106.18 44.6837 107.687 44.3512 109.193C53.6495 109.539 62.9411 109.96 72.2328 110.422C72.9929 112.974 73.6241 115.566 73.9771 118.207C60.5656 123.507 45.152 123.541 31.7203 118.288C31.2316 118.098 30.7226 117.881 30.3832 117.48C29.942 116.958 29.8606 116.225 29.8199 115.546C29.4805 110.096 30.1185 104.592 31.6931 99.3655L31.6796 99.3723Z" fill="#EDBA8C"/>
<mask id="mask3_2424_17114" style="mask-type:luminance" maskUnits="userSpaceOnUse" x="29" y="99" width="45" height="24">
<path d="M31.6796 99.3723L45.3489 104.673C45.0163 106.18 44.6837 107.687 44.3512 109.193C53.6495 109.539 62.9411 109.96 72.2328 110.422C72.9929 112.974 73.6241 115.566 73.9771 118.207C60.5656 123.507 45.152 123.541 31.7203 118.288C31.2316 118.098 30.7226 117.881 30.3832 117.48C29.942 116.958 29.8606 116.225 29.8199 115.546C29.4805 110.096 30.1185 104.592 31.6931 99.3655L31.6796 99.3723Z" fill="white"/>
</mask>
<g mask="url(#mask3_2424_17114)">
<path opacity="0.2" fill-rule="evenodd" clip-rule="evenodd" d="M31.6796 99.3723L45.3489 104.673C45.0163 106.18 44.6837 107.687 44.3512 109.193C53.6495 109.539 62.9411 109.96 72.2328 110.422C72.9929 112.974 73.6241 115.566 73.9771 118.207C60.5656 123.507 45.152 123.541 31.7203 118.288C31.2316 118.098 30.7226 117.881 30.3832 117.48C29.942 116.958 29.8606 116.225 29.8199 115.546C29.4805 110.096 30.1185 104.592 31.6931 99.3655L31.6796 99.3723Z" fill="#CB2E45"/>
</g>
<path fill-rule="evenodd" clip-rule="evenodd" d="M72.4429 40.1134C69.857 42.0071 66.416 40.3374 66.1377 37.195C66.1037 36.7877 66.7349 36.7945 66.7689 37.195C67.0064 39.9098 69.9656 41.1451 72.1239 39.5637C72.4565 39.3193 72.7687 39.8691 72.4429 40.1134Z" fill="#EDBA8C"/>
<path opacity="0.16" fill-rule="evenodd" clip-rule="evenodd" d="M88.2576 27.9511C87.8096 27.8358 87.3685 27.7204 86.9273 27.605C80.8799 26.044 74.6765 24.9105 68.4595 24.32C64.1632 23.9128 59.8805 23.8042 55.6046 23.9399C53.9214 23.9196 52.2518 23.9196 50.6093 23.9399C50.6093 23.9399 52.245 17.465 53.6635 15.456C65.093 14.8452 77.1131 16.2297 87.606 20.5124C88.1625 22.3585 88.3662 24.3404 88.149 26.3765L88.2576 27.9444V27.9511Z" fill="#561C2F"/>
<path fill-rule="evenodd" clip-rule="evenodd" d="M49.4891 13.2094L57.6133 9.01498C60.7354 8.96069 63.8643 8.94711 66.9864 8.99462C71.0519 9.05571 75.0563 9.19824 79.0878 9.67334L79.7055 9.91089L85.6782 13.2162L93.5648 18.1708C93.5648 18.1708 96.0353 19.9423 96.0353 21.2318L96.877 26.0643C96.877 26.0643 74.1061 14.18 45.6408 19.7726C29.2702 20.4513 49.5027 13.2094 49.5027 13.2094H49.4891Z" fill="#F1D054"/>
<mask id="mask4_2424_17114" style="mask-type:luminance" maskUnits="userSpaceOnUse" x="39" y="8" width="58" height="19">
<path d="M49.4891 13.2094L57.6133 9.01498C60.7354 8.96069 63.8643 8.94711 66.9864 8.99462C71.0519 9.05571 75.0563 9.19824 79.0878 9.67334L79.7055 9.91089L85.6782 13.2162L93.5648 18.1708C93.5648 18.1708 96.0353 19.9423 96.0353 21.2318L96.877 26.0643C96.877 26.0643 74.1061 14.18 45.6408 19.7726C29.2702 20.4513 49.5027 13.2094 49.5027 13.2094H49.4891Z" fill="white"/>
</mask>
<g mask="url(#mask4_2424_17114)">
<path opacity="0.3" fill-rule="evenodd" clip-rule="evenodd" d="M49.4891 13.2094L57.6133 9.01498C60.7354 8.96069 63.8643 8.94711 66.9864 8.99462C71.0519 9.05571 75.0563 9.19824 79.0878 9.67334L79.7055 9.91089L85.6782 13.2162L93.5648 18.1708C93.5648 18.1708 96.0353 19.9423 96.0353 21.2318L96.877 26.0643C96.877 26.0643 74.1061 14.18 45.6408 19.7726C29.2702 20.4513 49.5027 13.2094 49.5027 13.2094H49.4891Z" fill="#CB2E45"/>
</g>
<path fill-rule="evenodd" clip-rule="evenodd" d="M104.03 96.9965C106.338 102.738 107.661 108.881 107.926 115.064C107.953 115.654 107.96 116.292 107.641 116.795C107.37 117.229 106.901 117.494 106.447 117.724C99.4083 121.308 91.0465 120.568 83.1938 119.733C82.2029 119.625 71.0313 118.145 71.0652 117.697C71.2484 115.193 71.6421 112.709 72.2326 110.265C76.3863 109.166 80.6351 109.078 84.911 108.704C87.3543 108.494 89.8181 108.161 92.2547 107.971C92.18 106.288 92.0986 104.605 92.0239 102.922L104.03 96.9897V96.9965Z" fill="#EDBA8C"/>
<path opacity="0.15" fill-rule="evenodd" clip-rule="evenodd" d="M31.6798 99.3721L45.3491 104.673C45.0776 105.915 44.7994 107.157 44.5211 108.399C43.6591 108.474 42.7971 108.508 41.9352 108.514C37.9443 108.548 33.9467 108.223 30.0034 107.571C30.3156 104.795 30.8653 102.046 31.673 99.3721H31.6798Z" fill="#561C2F"/>
<path opacity="0.15" fill-rule="evenodd" clip-rule="evenodd" d="M92.1667 106.119C92.1192 105.053 92.0717 103.988 92.0174 102.929L104.024 96.9968C104.838 99.0194 105.524 101.089 106.087 103.2C101.703 105.399 96.8974 106.662 92.1667 106.126V106.119Z" fill="#561C2F"/>
<path fill-rule="evenodd" clip-rule="evenodd" d="M47.2764 97.8315C43.6793 96.7863 35.2157 94.2683 31.5506 92.7548C30.5733 92.3475 29.4602 92.843 29.0869 93.8271C28.51 95.3475 28.1503 96.6506 27.9399 97.5533C27.7498 98.3474 28.096 99.1686 28.8018 99.5894C31.4963 101.191 38.6432 104.944 45.9869 104.578C46.8013 104.537 47.514 103.994 47.738 103.207C48.1181 101.863 48.3895 100.825 48.566 100.051C48.7968 99.0804 48.2266 98.1098 47.2697 97.8315H47.2764Z" fill="#F1D054"/>
<path fill-rule="evenodd" clip-rule="evenodd" d="M104.533 91.2277L106.08 94.3362C106.487 95.1506 106.352 96.128 105.727 96.7931C103.766 98.8768 98.9266 103.078 91.2978 103.669C90.2458 103.75 89.2888 103.058 89.0174 102.04C88.5694 100.35 88.2436 99.1483 88.0129 98.2999C87.7074 97.1936 88.3047 96.0465 89.3907 95.6665C92.4245 94.6009 98.2682 92.4222 101.404 90.3725C102.49 89.6598 103.956 90.0671 104.533 91.2345V91.2277Z" fill="#F1D054"/>
<path opacity="0.3" fill-rule="evenodd" clip-rule="evenodd" d="M47.2764 97.8315C43.6793 96.7863 35.2157 94.2683 31.5506 92.7548C30.5733 92.3475 29.4602 92.843 29.0869 93.8271C28.51 95.3475 28.1503 96.6506 27.9399 97.5533C27.7498 98.3474 28.096 99.1686 28.8018 99.5894C31.4963 101.191 38.6432 104.944 45.9869 104.578C46.8013 104.537 47.514 103.994 47.738 103.207C48.1181 101.863 48.3895 100.825 48.566 100.051C48.7968 99.0804 48.2266 98.1098 47.2697 97.8315H47.2764Z" fill="#CB2E45"/>
<path opacity="0.3" fill-rule="evenodd" clip-rule="evenodd" d="M104.533 91.2277L106.08 94.3362C106.487 95.1506 106.352 96.128 105.727 96.7931C103.766 98.8768 98.9266 103.078 91.2978 103.669C90.2458 103.75 89.2888 103.058 89.0174 102.04C88.5694 100.35 88.2436 99.1483 88.0129 98.2999C87.7074 97.1936 88.3047 96.0465 89.3907 95.6665C92.4245 94.6009 98.2682 92.4222 101.404 90.3725C102.49 89.6598 103.956 90.0671 104.533 91.2345V91.2277Z" fill="#CB2E45"/>
<path opacity="0.3" fill-rule="evenodd" clip-rule="evenodd" d="M69.1854 34.5006C68.9953 32.417 68.9614 30.313 69.0836 28.2225C69.1447 27.1977 69.2397 26.1728 69.3754 25.1547C69.4704 24.4081 69.4704 23.4036 69.7759 22.7046C70.1899 21.7544 71.622 21.6526 71.907 22.7181C72.1378 23.5665 71.8052 24.5167 71.717 25.3651C71.5745 26.8447 71.3708 28.3175 71.303 29.7971C71.269 30.5166 71.269 31.2292 71.3165 31.9487C71.3437 32.3898 71.1944 33.245 71.5269 33.5844C71.7102 33.7676 72.0224 33.8219 72.2396 33.6794C72.4093 33.5708 72.4907 33.3672 72.6332 33.2246C72.8776 32.9667 73.2916 32.9057 73.6242 33.0346C74.3504 33.3265 74.2622 33.9305 74.1196 34.5617C73.9092 35.4712 73.4613 36.3264 72.8029 36.9983C72.4568 37.3512 72.036 37.6567 71.5473 37.7177C70.8075 37.8128 70.0881 37.3037 69.7216 36.6589C69.3483 36.0074 69.26 35.2472 69.1922 34.5006H69.1854Z" fill="#CB2E45"/>
</g>
</g>
<path d="M168.304 18.8548C152.748 19.3607 136.962 31.3505 121.6 44.4092L151.939 64.2098C151.626 41.4838 156.408 33.533 168.304 18.8548Z" fill="white"/>
<rect x="144.099" width="199.901" height="125" rx="16" fill="white"/>
<path d="M177.704 25.6303L171.56 42.3823H167.48L161.336 25.6303H164.936L169.544 38.9503L174.128 25.6303H177.704ZM178.375 35.6863C178.375 34.3423 178.639 33.1503 179.167 32.1103C179.711 31.0703 180.439 30.2703 181.351 29.7103C182.279 29.1503 183.311 28.8703 184.447 28.8703C185.439 28.8703 186.303 29.0703 187.039 29.4703C187.791 29.8703 188.391 30.3743 188.839 30.9823V29.0863H192.223V42.3823H188.839V40.4383C188.407 41.0623 187.807 41.5823 187.039 41.9983C186.287 42.3983 185.415 42.5983 184.423 42.5983C183.303 42.5983 182.279 42.3103 181.351 41.7343C180.439 41.1583 179.711 40.3503 179.167 39.3103C178.639 38.2543 178.375 37.0463 178.375 35.6863ZM188.839 35.7343C188.839 34.9183 188.679 34.2223 188.359 33.6463C188.039 33.0543 187.607 32.6063 187.063 32.3023C186.519 31.9823 185.935 31.8223 185.311 31.8223C184.687 31.8223 184.111 31.9743 183.583 32.2783C183.055 32.5823 182.623 33.0303 182.287 33.6223C181.967 34.1983 181.807 34.8863 181.807 35.6863C181.807 36.4863 181.967 37.1903 182.287 37.7983C182.623 38.3903 183.055 38.8463 183.583 39.1663C184.127 39.4863 184.703 39.6463 185.311 39.6463C185.935 39.6463 186.519 39.4943 187.063 39.1903C187.607 38.8703 188.039 38.4223 188.359 37.8463C188.679 37.2543 188.839 36.5503 188.839 35.7343ZM211.536 28.8943C213.168 28.8943 214.48 29.3983 215.472 30.4063C216.48 31.3983 216.984 32.7903 216.984 34.5823V42.3823H213.624V35.0383C213.624 33.9983 213.36 33.2063 212.832 32.6623C212.304 32.1023 211.584 31.8223 210.672 31.8223C209.76 31.8223 209.032 32.1023 208.488 32.6623C207.96 33.2063 207.696 33.9983 207.696 35.0383V42.3823H204.336V35.0383C204.336 33.9983 204.072 33.2063 203.544 32.6623C203.016 32.1023 202.296 31.8223 201.384 31.8223C200.456 31.8223 199.72 32.1023 199.176 32.6623C198.648 33.2063 198.384 33.9983 198.384 35.0383V42.3823H195.024V29.0863H198.384V30.6943C198.816 30.1343 199.368 29.6943 200.04 29.3743C200.728 29.0543 201.48 28.8943 202.296 28.8943C203.336 28.8943 204.264 29.1183 205.08 29.5663C205.896 29.9983 206.528 30.6223 206.976 31.4383C207.408 30.6703 208.032 30.0543 208.848 29.5903C209.68 29.1263 210.576 28.8943 211.536 28.8943ZM225.597 42.5983C224.317 42.5983 223.165 42.3183 222.141 41.7583C221.117 41.1823 220.309 40.3743 219.717 39.3343C219.141 38.2943 218.853 37.0943 218.853 35.7343C218.853 34.3743 219.149 33.1743 219.741 32.1343C220.349 31.0943 221.173 30.2943 222.213 29.7343C223.253 29.1583 224.413 28.8703 225.693 28.8703C226.973 28.8703 228.133 29.1583 229.173 29.7343C230.213 30.2943 231.029 31.0943 231.621 32.1343C232.229 33.1743 232.533 34.3743 232.533 35.7343C232.533 37.0943 232.221 38.2943 231.597 39.3343C230.989 40.3743 230.157 41.1823 229.101 41.7583C228.061 42.3183 226.893 42.5983 225.597 42.5983ZM225.597 39.6703C226.205 39.6703 226.773 39.5263 227.301 39.2383C227.845 38.9343 228.277 38.4863 228.597 37.8943C228.917 37.3023 229.077 36.5823 229.077 35.7343C229.077 34.4703 228.741 33.5023 228.069 32.8303C227.413 32.1423 226.605 31.7983 225.645 31.7983C224.685 31.7983 223.877 32.1423 223.221 32.8303C222.581 33.5023 222.261 34.4703 222.261 35.7343C222.261 36.9983 222.573 37.9743 223.197 38.6623C223.837 39.3343 224.637 39.6703 225.597 39.6703ZM239.605 42.5983C238.517 42.5983 237.541 42.4063 236.677 42.0223C235.813 41.6223 235.125 41.0863 234.613 40.4143C234.117 39.7423 233.845 38.9983 233.797 38.1823H237.181C237.245 38.6943 237.493 39.1183 237.925 39.4543C238.373 39.7903 238.925 39.9583 239.581 39.9583C240.221 39.9583 240.717 39.8303 241.069 39.5743C241.437 39.3183 241.621 38.9903 241.621 38.5903C241.621 38.1583 241.397 37.8383 240.949 37.6303C240.517 37.4063 239.821 37.1663 238.861 36.9103C237.869 36.6703 237.053 36.4223 236.413 36.1663C235.789 35.9103 235.245 35.5183 234.781 34.9903C234.333 34.4623 234.109 33.7503 234.109 32.8543C234.109 32.1183 234.317 31.4463 234.733 30.8383C235.165 30.2303 235.773 29.7503 236.557 29.3983C237.357 29.0463 238.293 28.8703 239.365 28.8703C240.949 28.8703 242.213 29.2703 243.157 30.0703C244.101 30.8543 244.621 31.9183 244.717 33.2623H241.501C241.453 32.7343 241.229 32.3183 240.829 32.0143C240.445 31.6943 239.925 31.5343 239.269 31.5343C238.661 31.5343 238.189 31.6463 237.853 31.8703C237.533 32.0943 237.373 32.4063 237.373 32.8063C237.373 33.2543 237.597 33.5983 238.045 33.8383C238.493 34.0623 239.189 34.2943 240.133 34.5343C241.093 34.7743 241.885 35.0223 242.509 35.2783C243.133 35.5343 243.669 35.9343 244.117 36.4783C244.581 37.0063 244.821 37.7103 244.837 38.5903C244.837 39.3583 244.621 40.0463 244.189 40.6543C243.773 41.2623 243.165 41.7423 242.365 42.0943C241.581 42.4303 240.661 42.5983 239.605 42.5983ZM251.49 35.6863C251.49 34.3423 251.754 33.1503 252.282 32.1103C252.826 31.0703 253.554 30.2703 254.466 29.7103C255.394 29.1503 256.426 28.8703 257.562 28.8703C258.554 28.8703 259.418 29.0703 260.154 29.4703C260.906 29.8703 261.506 30.3743 261.954 30.9823V29.0863H265.338V42.3823H261.954V40.4383C261.522 41.0623 260.922 41.5823 260.154 41.9983C259.402 42.3983 258.53 42.5983 257.538 42.5983C256.418 42.5983 255.394 42.3103 254.466 41.7343C253.554 41.1583 252.826 40.3503 252.282 39.3103C251.754 38.2543 251.49 37.0463 251.49 35.6863ZM261.954 35.7343C261.954 34.9183 261.794 34.2223 261.474 33.6463C261.154 33.0543 260.722 32.6063 260.178 32.3023C259.634 31.9823 259.05 31.8223 258.426 31.8223C257.802 31.8223 257.226 31.9743 256.698 32.2783C256.17 32.5823 255.738 33.0303 255.402 33.6223C255.082 34.1983 254.922 34.8863 254.922 35.6863C254.922 36.4863 255.082 37.1903 255.402 37.7983C255.738 38.3903 256.17 38.8463 256.698 39.1663C257.242 39.4863 257.818 39.6463 258.426 39.6463C259.05 39.6463 259.634 39.4943 260.178 39.1903C260.722 38.8703 261.154 38.4223 261.474 37.8463C261.794 37.2543 261.954 36.5503 261.954 35.7343ZM278.923 39.2863L282.283 29.0863H285.859L280.939 42.3823H276.859L271.963 29.0863H275.563L278.923 39.2863ZM299.626 35.4463C299.626 35.9263 299.594 36.3583 299.53 36.7423H289.81C289.89 37.7023 290.226 38.4543 290.818 38.9983C291.41 39.5423 292.138 39.8143 293.002 39.8143C294.25 39.8143 295.138 39.2783 295.666 38.2063H299.29C298.906 39.4863 298.17 40.5423 297.082 41.3743C295.994 42.1903 294.658 42.5983 293.074 42.5983C291.794 42.5983 290.642 42.3183 289.618 41.7583C288.61 41.1823 287.818 40.3743 287.242 39.3343C286.682 38.2943 286.402 37.0943 286.402 35.7343C286.402 34.3583 286.682 33.1503 287.242 32.1103C287.802 31.0703 288.586 30.2703 289.594 29.7103C290.602 29.1503 291.762 28.8703 293.074 28.8703C294.338 28.8703 295.466 29.1423 296.458 29.6863C297.466 30.2303 298.242 31.0063 298.786 32.0143C299.346 33.0063 299.626 34.1503 299.626 35.4463ZM296.146 34.4863C296.13 33.6223 295.818 32.9343 295.21 32.4223C294.602 31.8943 293.858 31.6303 292.978 31.6303C292.146 31.6303 291.442 31.8863 290.866 32.3983C290.306 32.8943 289.962 33.5903 289.834 34.4863H296.146ZM304.958 31.1503C305.39 30.4463 305.95 29.8943 306.638 29.4943C307.342 29.0943 308.142 28.8943 309.038 28.8943V32.4223H308.15C307.094 32.4223 306.294 32.6703 305.75 33.1663C305.222 33.6623 304.958 34.5263 304.958 35.7583V42.3823H301.598V29.0863H304.958V31.1503ZM161.792 66.6863C161.792 65.3423 162.056 64.1503 162.584 63.1103C163.128 62.0703 163.864 61.2703 164.792 60.7103C165.72 60.1503 166.752 59.8703 167.888 59.8703C168.752 59.8703 169.576 60.0623 170.36 60.4463C171.144 60.8143 171.768 61.3103 172.232 61.9343V55.6223H175.64V73.3823H172.232V71.4143C171.816 72.0703 171.232 72.5983 170.48 72.9983C169.728 73.3983 168.856 73.5983 167.864 73.5983C166.744 73.5983 165.72 73.3103 164.792 72.7343C163.864 72.1583 163.128 71.3503 162.584 70.3103C162.056 69.2543 161.792 68.0463 161.792 66.6863ZM172.256 66.7343C172.256 65.9183 172.096 65.2223 171.776 64.6463C171.456 64.0543 171.024 63.6063 170.48 63.3023C169.936 62.9823 169.352 62.8223 168.728 62.8223C168.104 62.8223 167.528 62.9743 167 63.2783C166.472 63.5823 166.04 64.0303 165.704 64.6223C165.384 65.1983 165.224 65.8863 165.224 66.6863C165.224 67.4863 165.384 68.1903 165.704 68.7983C166.04 69.3903 166.472 69.8463 167 70.1663C167.544 70.4863 168.12 70.6463 168.728 70.6463C169.352 70.6463 169.936 70.4943 170.48 70.1903C171.024 69.8703 171.456 69.4223 171.776 68.8463C172.096 68.2543 172.256 67.5503 172.256 66.7343ZM184.346 73.5983C183.066 73.5983 181.914 73.3183 180.89 72.7583C179.866 72.1823 179.058 71.3743 178.466 70.3343C177.89 69.2943 177.602 68.0943 177.602 66.7343C177.602 65.3743 177.898 64.1743 178.49 63.1343C179.098 62.0943 179.922 61.2943 180.962 60.7343C182.002 60.1583 183.162 59.8703 184.442 59.8703C185.722 59.8703 186.882 60.1583 187.922 60.7343C188.962 61.2943 189.778 62.0943 190.37 63.1343C190.978 64.1743 191.282 65.3743 191.282 66.7343C191.282 68.0943 190.97 69.2943 190.346 70.3343C189.738 71.3743 188.906 72.1823 187.85 72.7583C186.81 73.3183 185.642 73.5983 184.346 73.5983ZM184.346 70.6703C184.954 70.6703 185.522 70.5263 186.05 70.2383C186.594 69.9343 187.026 69.4863 187.346 68.8943C187.666 68.3023 187.826 67.5823 187.826 66.7343C187.826 65.4703 187.49 64.5023 186.818 63.8303C186.162 63.1423 185.354 62.7983 184.394 62.7983C183.434 62.7983 182.626 63.1423 181.97 63.8303C181.33 64.5023 181.01 65.4703 181.01 66.7343C181.01 67.9983 181.322 68.9743 181.946 69.6623C182.586 70.3343 183.386 70.6703 184.346 70.6703ZM200.634 59.8943C202.218 59.8943 203.498 60.3983 204.474 61.4063C205.45 62.3983 205.938 63.7903 205.938 65.5823V73.3823H202.578V66.0383C202.578 64.9823 202.314 64.1743 201.786 63.6143C201.258 63.0383 200.538 62.7503 199.626 62.7503C198.698 62.7503 197.962 63.0383 197.418 63.6143C196.89 64.1743 196.626 64.9823 196.626 66.0383V73.3823H193.266V60.0863H196.626V61.7423C197.074 61.1663 197.642 60.7183 198.33 60.3983C199.034 60.0623 199.802 59.8943 200.634 59.8943ZM207.79 66.6863C207.79 65.3423 208.054 64.1503 208.582 63.1103C209.126 62.0703 209.862 61.2703 210.79 60.7103C211.718 60.1503 212.75 59.8703 213.886 59.8703C214.75 59.8703 215.574 60.0623 216.358 60.4463C217.142 60.8143 217.766 61.3103 218.23 61.9343V55.6223H221.638V73.3823H218.23V71.4143C217.814 72.0703 217.23 72.5983 216.478 72.9983C215.726 73.3983 214.854 73.5983 213.862 73.5983C212.742 73.5983 211.718 73.3103 210.79 72.7343C209.862 72.1583 209.126 71.3503 208.582 70.3103C208.054 69.2543 207.79 68.0463 207.79 66.6863ZM218.254 66.7343C218.254 65.9183 218.094 65.2223 217.774 64.6463C217.454 64.0543 217.022 63.6063 216.478 63.3023C215.934 62.9823 215.35 62.8223 214.726 62.8223C214.102 62.8223 213.526 62.9743 212.998 63.2783C212.47 63.5823 212.038 64.0303 211.702 64.6223C211.382 65.1983 211.222 65.8863 211.222 66.6863C211.222 67.4863 211.382 68.1903 211.702 68.7983C212.038 69.3903 212.47 69.8463 212.998 70.1663C213.542 70.4863 214.118 70.6463 214.726 70.6463C215.35 70.6463 215.934 70.4943 216.478 70.1903C217.022 69.8703 217.454 69.4223 217.774 68.8463C218.094 68.2543 218.254 67.5503 218.254 66.7343ZM236.799 66.4463C236.799 66.9263 236.767 67.3583 236.703 67.7423H226.983C227.063 68.7023 227.399 69.4543 227.991 69.9983C228.583 70.5423 229.311 70.8143 230.175 70.8143C231.423 70.8143 232.311 70.2783 232.839 69.2063H236.463C236.079 70.4863 235.343 71.5423 234.255 72.3743C233.167 73.1903 231.831 73.5983 230.247 73.5983C228.967 73.5983 227.815 73.3183 226.791 72.7583C225.783 72.1823 224.991 71.3743 224.415 70.3343C223.855 69.2943 223.575 68.0943 223.575 66.7343C223.575 65.3583 223.855 64.1503 224.415 63.1103C224.975 62.0703 225.759 61.2703 226.767 60.7103C227.775 60.1503 228.935 59.8703 230.247 59.8703C231.511 59.8703 232.639 60.1423 233.631 60.6863C234.639 61.2303 235.415 62.0063 235.959 63.0143C236.519 64.0063 236.799 65.1503 236.799 66.4463ZM233.319 65.4863C233.303 64.6223 232.991 63.9343 232.383 63.4223C231.775 62.8943 231.031 62.6303 230.151 62.6303C229.319 62.6303 228.615 62.8863 228.039 63.3983C227.479 63.8943 227.135 64.5903 227.007 65.4863H233.319ZM247.922 62.8463V69.2783C247.922 69.7263 248.026 70.0543 248.234 70.2623C248.458 70.4543 248.826 70.5503 249.338 70.5503H250.898V73.3823H248.786C245.954 73.3823 244.538 72.0063 244.538 69.2543V62.8463H242.954V60.0863H244.538V56.7983H247.922V60.0863H250.898V62.8463H247.922ZM265.195 66.4463C265.195 66.9263 265.163 67.3583 265.099 67.7423H255.379C255.459 68.7023 255.795 69.4543 256.387 69.9983C256.979 70.5423 257.707 70.8143 258.571 70.8143C259.819 70.8143 260.707 70.2783 261.235 69.2063H264.859C264.475 70.4863 263.739 71.5423 262.651 72.3743C261.563 73.1903 260.227 73.5983 258.643 73.5983C257.363 73.5983 256.211 73.3183 255.187 72.7583C254.179 72.1823 253.387 71.3743 252.811 70.3343C252.251 69.2943 251.971 68.0943 251.971 66.7343C251.971 65.3583 252.251 64.1503 252.811 63.1103C253.371 62.0703 254.155 61.2703 255.163 60.7103C256.171 60.1503 257.331 59.8703 258.643 59.8703C259.907 59.8703 261.035 60.1423 262.027 60.6863C263.035 61.2303 263.811 62.0063 264.355 63.0143C264.915 64.0063 265.195 65.1503 265.195 66.4463ZM261.715 65.4863C261.699 64.6223 261.387 63.9343 260.779 63.4223C260.171 62.8943 259.427 62.6303 258.547 62.6303C257.715 62.6303 257.011 62.8863 256.435 63.3983C255.875 63.8943 255.531 64.5903 255.403 65.4863H261.715ZM175.016 97.4463C175.016 97.9263 174.984 98.3583 174.92 98.7423H165.2C165.28 99.7023 165.616 100.454 166.208 100.998C166.8 101.542 167.528 101.814 168.392 101.814C169.64 101.814 170.528 101.278 171.056 100.206H174.68C174.296 101.486 173.56 102.542 172.472 103.374C171.384 104.19 170.048 104.598 168.464 104.598C167.184 104.598 166.032 104.318 165.008 103.758C164 103.182 163.208 102.374 162.632 101.334C162.072 100.294 161.792 99.0943 161.792 97.7343C161.792 96.3583 162.072 95.1503 162.632 94.1103C163.192 93.0703 163.976 92.2703 164.984 91.7103C165.992 91.1503 167.152 90.8703 168.464 90.8703C169.728 90.8703 170.856 91.1423 171.848 91.6863C172.856 92.2303 173.632 93.0063 174.176 94.0143C174.736 95.0063 175.016 96.1503 175.016 97.4463ZM171.536 96.4863C171.52 95.6223 171.208 94.9343 170.6 94.4223C169.992 93.8943 169.248 93.6303 168.368 93.6303C167.536 93.6303 166.832 93.8863 166.256 94.3983C165.696 94.8943 165.352 95.5903 165.224 96.4863H171.536ZM184.357 90.8943C185.941 90.8943 187.221 91.3983 188.197 92.4063C189.173 93.3983 189.661 94.7903 189.661 96.5823V104.382H186.301V97.0383C186.301 95.9823 186.037 95.1743 185.509 94.6143C184.981 94.0383 184.261 93.7503 183.349 93.7503C182.421 93.7503 181.685 94.0383 181.141 94.6143C180.613 95.1743 180.349 95.9823 180.349 97.0383V104.382H176.989V91.0863H180.349V92.7423C180.797 92.1663 181.365 91.7183 182.053 91.3983C182.757 91.0623 183.525 90.8943 184.357 90.8943ZM191.512 97.7343C191.512 96.3583 191.792 95.1583 192.352 94.1343C192.912 93.0943 193.688 92.2943 194.68 91.7343C195.672 91.1583 196.808 90.8703 198.088 90.8703C199.736 90.8703 201.096 91.2863 202.168 92.1183C203.256 92.9343 203.984 94.0863 204.352 95.5743H200.728C200.536 94.9983 200.208 94.5503 199.744 94.2303C199.296 93.8943 198.736 93.7263 198.064 93.7263C197.104 93.7263 196.344 94.0783 195.784 94.7823C195.224 95.4703 194.944 96.4543 194.944 97.7343C194.944 98.9983 195.224 99.9823 195.784 100.686C196.344 101.374 197.104 101.718 198.064 101.718C199.424 101.718 200.312 101.11 200.728 99.8943H204.352C203.984 101.334 203.256 102.478 202.168 103.326C201.08 104.174 199.72 104.598 198.088 104.598C196.808 104.598 195.672 104.318 194.68 103.758C193.688 103.182 192.912 102.382 192.352 101.358C191.792 100.318 191.512 99.1103 191.512 97.7343ZM218.885 91.0863V104.382H215.501V102.702C215.069 103.278 214.501 103.734 213.797 104.07C213.109 104.39 212.357 104.55 211.541 104.55C210.501 104.55 209.581 104.334 208.781 103.902C207.981 103.454 207.349 102.806 206.885 101.958C206.437 101.094 206.213 100.07 206.213 98.8863V91.0863H209.573V98.4063C209.573 99.4623 209.837 100.278 210.365 100.854C210.893 101.414 211.613 101.694 212.525 101.694C213.453 101.694 214.181 101.414 214.709 100.854C215.237 100.278 215.501 99.4623 215.501 98.4063V91.0863H218.885ZM234.08 97.4463C234.08 97.9263 234.048 98.3583 233.984 98.7423H224.264C224.344 99.7023 224.68 100.454 225.272 100.998C225.864 101.542 226.592 101.814 227.456 101.814C228.704 101.814 229.592 101.278 230.12 100.206H233.744C233.36 101.486 232.624 102.542 231.536 103.374C230.448 104.19 229.112 104.598 227.528 104.598C226.248 104.598 225.096 104.318 224.072 103.758C223.064 103.182 222.272 102.374 221.696 101.334C221.136 100.294 220.856 99.0943 220.856 97.7343C220.856 96.3583 221.136 95.1503 221.696 94.1103C222.256 93.0703 223.04 92.2703 224.048 91.7103C225.056 91.1503 226.216 90.8703 227.528 90.8703C228.792 90.8703 229.92 91.1423 230.912 91.6863C231.92 92.2303 232.696 93.0063 233.24 94.0143C233.8 95.0063 234.08 96.1503 234.08 97.4463ZM230.6 96.4863C230.584 95.6223 230.272 94.9343 229.664 94.4223C229.056 93.8943 228.312 93.6303 227.432 93.6303C226.6 93.6303 225.896 93.8863 225.32 94.3983C224.76 94.8943 224.416 95.5903 224.288 96.4863H230.6ZM243.421 90.8943C245.005 90.8943 246.285 91.3983 247.261 92.4063C248.237 93.3983 248.725 94.7903 248.725 96.5823V104.382H245.365V97.0383C245.365 95.9823 245.101 95.1743 244.573 94.6143C244.045 94.0383 243.325 93.7503 242.413 93.7503C241.485 93.7503 240.749 94.0383 240.205 94.6143C239.677 95.1743 239.413 95.9823 239.413 97.0383V104.382H236.053V91.0863H239.413V92.7423C239.861 92.1663 240.429 91.7183 241.117 91.3983C241.821 91.0623 242.589 90.8943 243.421 90.8943ZM255.352 93.8463V100.278C255.352 100.726 255.456 101.054 255.664 101.262C255.888 101.454 256.256 101.55 256.768 101.55H258.328V104.382H256.216C253.384 104.382 251.968 103.006 251.968 100.254V93.8463H250.384V91.0863H251.968V87.7983H255.352V91.0863H258.328V93.8463H255.352ZM263.625 93.1503C264.057 92.4463 264.617 91.8943 265.305 91.4943C266.009 91.0943 266.809 90.8943 267.705 90.8943V94.4223H266.817C265.761 94.4223 264.961 94.6703 264.417 95.1663C263.889 95.6623 263.625 96.5263 263.625 97.7583V104.382H260.265V91.0863H263.625V93.1503ZM268.624 97.6863C268.624 96.3423 268.888 95.1503 269.416 94.1103C269.96 93.0703 270.688 92.2703 271.6 91.7103C272.528 91.1503 273.56 90.8703 274.696 90.8703C275.688 90.8703 276.552 91.0703 277.288 91.4703C278.04 91.8703 278.64 92.3743 279.088 92.9823V91.0863H282.472V104.382H279.088V102.438C278.656 103.062 278.056 103.582 277.288 103.998C276.536 104.398 275.664 104.598 274.672 104.598C273.552 104.598 272.528 104.31 271.6 103.734C270.688 103.158 269.96 102.35 269.416 101.31C268.888 100.254 268.624 99.0463 268.624 97.6863ZM279.088 97.7343C279.088 96.9183 278.928 96.2223 278.608 95.6463C278.288 95.0543 277.856 94.6063 277.312 94.3023C276.768 93.9823 276.184 93.8223 275.56 93.8223C274.936 93.8223 274.36 93.9743 273.832 94.2783C273.304 94.5823 272.872 95.0303 272.536 95.6223C272.216 96.1983 272.056 96.8863 272.056 97.6863C272.056 98.4863 272.216 99.1903 272.536 99.7983C272.872 100.39 273.304 100.846 273.832 101.166C274.376 101.486 274.952 101.646 275.56 101.646C276.184 101.646 276.768 101.494 277.312 101.19C277.856 100.87 278.288 100.422 278.608 99.8463C278.928 99.2543 279.088 98.5503 279.088 97.7343ZM290.362 104.598C289.274 104.598 288.298 104.406 287.434 104.022C286.57 103.622 285.882 103.086 285.37 102.414C284.874 101.742 284.602 100.998 284.554 100.182H287.938C288.002 100.694 288.25 101.118 288.682 101.454C289.13 101.79 289.682 101.958 290.338 101.958C290.978 101.958 291.474 101.83 291.826 101.574C292.194 101.318 292.378 100.99 292.378 100.59C292.378 100.158 292.154 99.8383 291.706 99.6303C291.274 99.4063 290.578 99.1663 289.618 98.9103C288.626 98.6703 287.81 98.4223 287.17 98.1663C286.546 97.9103 286.002 97.5183 285.538 96.9903C285.09 96.4623 284.866 95.7503 284.866 94.8543C284.866 94.1183 285.074 93.4463 285.49 92.8383C285.922 92.2303 286.53 91.7503 287.314 91.3983C288.114 91.0463 289.05 90.8703 290.122 90.8703C291.706 90.8703 292.97 91.2703 293.914 92.0703C294.858 92.8543 295.378 93.9183 295.474 95.2623H292.258C292.21 94.7343 291.986 94.3183 291.586 94.0143C291.202 93.6943 290.682 93.5343 290.026 93.5343C289.418 93.5343 288.946 93.6463 288.61 93.8703C288.29 94.0943 288.13 94.4063 288.13 94.8063C288.13 95.2543 288.354 95.5983 288.802 95.8383C289.25 96.0623 289.946 96.2943 290.89 96.5343C291.85 96.7743 292.642 97.0223 293.266 97.2783C293.89 97.5343 294.426 97.9343 294.874 98.4783C295.338 99.0063 295.578 99.7103 295.594 100.59C295.594 101.358 295.378 102.046 294.946 102.654C294.53 103.262 293.922 103.742 293.122 104.094C292.338 104.43 291.418 104.598 290.362 104.598Z" fill="#8F3B06"/>
<defs>
<filter id="filter0_d_2424_17114" x="12.881" y="0" width="106.238" height="257.697" filterUnits="userSpaceOnUse" color-interpolation-filters="sRGB">
<feFlood flood-opacity="0" result="BackgroundImageFix"/>
<feColorMatrix in="SourceAlpha" type="matrix" values="0 0 0 0 0 0 0 0 0 0 0 0 0 0 0 0 0 0 127 0" result="hardAlpha"/>
<feOffset dy="3.11898"/>
<feGaussianBlur stdDeviation="1.55949"/>
<feComposite in2="hardAlpha" operator="out"/>
<feColorMatrix type="matrix" values="0 0 0 0 0 0 0 0 0 0 0 0 0 0 0 0 0 0 0.25 0"/>
<feBlend mode="normal" in2="BackgroundImageFix" result="effect1_dropShadow_2424_17114"/>
<feBlend mode="normal" in="SourceGraphic" in2="effect1_dropShadow_2424_17114" result="shape"/>
</filter>
<clipPath id="clip0_2424_17114">
<rect width="100" height="104" fill="white" transform="matrix(-1 0 0 1 116 0)"/>
</clipPath>
</defs>
</svg>
