<svg width="145" height="144" viewBox="0 0 145 144" fill="none" xmlns="http://www.w3.org/2000/svg">
<g clip-path="url(#clip0_2424_18682)">
<g filter="url(#filter0_d_2424_18682)">
<path fill-rule="evenodd" clip-rule="evenodd" d="M125.768 141.009C119.283 124.82 113.132 105.443 103.438 99.3902C97.73 95.8276 77.9685 93.4067 77.9685 93.4067H65.7357C65.7357 93.4067 44.685 91.0546 38.4751 96.8807C33.456 101.595 16.3124 136.492 16.3124 136.492C16.3124 136.492 27.6595 148.44 38.4751 148.44C38.1602 162.926 38.1012 176.025 38.1012 176.025C38.1012 176.025 37.678 177.964 36.9891 181.526C54.9102 183.022 79.3463 183.081 100.24 177.806C99.7966 172.61 99.5211 169.48 99.4916 169.156L92.4452 122.281C92.4452 122.281 96.8934 138.815 100.082 149.256C105.062 149.256 121.871 145.271 125.768 140.999V141.009Z" fill="#F1D054"/>
<path fill-rule="evenodd" clip-rule="evenodd" d="M71.2566 101.664H71.0303C67.1921 101.664 64.0823 98.5536 64.0823 94.7155V72.8972H78.2145V94.7155C78.2145 98.5536 75.1046 101.664 71.2665 101.664H71.2566Z" fill="#EDBA8C"/>
<path opacity="0.25" fill-rule="evenodd" clip-rule="evenodd" d="M64.0725 92.6589C68.7767 93.1609 73.5596 92.9443 78.2047 92.0094V81.7449C73.5301 82.5027 68.8062 82.8865 64.0725 82.9062V92.6589Z" fill="#561C2F" stroke="#EDBA8C" stroke-width="0.347756" stroke-miterlimit="22.93"/>
<path fill-rule="evenodd" clip-rule="evenodd" d="M45.2461 14.9021C45.2461 14.9021 46.0531 7.96399 49.1039 4.90332C52.1646 1.8525 71.8276 -1.9561 81.7575 1.16361C84.8773 4.45062 86.8751 10.9361 86.8751 10.9361L45.2461 14.9021Z" fill="#F1D054"/>
<path fill-rule="evenodd" clip-rule="evenodd" d="M122.983 27.4006C124.134 40.1156 99.9935 52.6831 69.0621 55.4879C38.1307 58.2926 12.1298 50.2523 10.9784 37.5471C9.82694 24.832 33.9678 12.2646 64.8992 9.4598C95.8306 6.65502 121.831 14.6954 122.983 27.4006Z" fill="#F1D054"/>
<mask id="mask0_2424_18682" style="mask-type:luminance" maskUnits="userSpaceOnUse" x="10" y="8" width="114" height="49">
<path d="M122.983 27.4006C124.134 40.1156 99.9935 52.6831 69.0621 55.4879C38.1307 58.2926 12.1298 50.2523 10.9784 37.5471C9.82694 24.832 33.9678 12.2646 64.8992 9.4598C95.8306 6.65502 121.831 14.6954 122.983 27.4006Z" fill="white"/>
</mask>
<g mask="url(#mask0_2424_18682)">
<path opacity="0.3" fill-rule="evenodd" clip-rule="evenodd" d="M122.983 27.4006C124.134 40.1156 99.9935 52.6831 69.0621 55.4879C38.1307 58.2926 12.1298 50.2523 10.9784 37.5471C9.82694 24.832 33.9678 12.2646 64.8992 9.4598C95.8306 6.65502 121.831 14.6954 122.983 27.4006Z" fill="#CB2E45"/>
</g>
<path fill-rule="evenodd" clip-rule="evenodd" d="M104.333 48.6089C102.168 53.0179 98.1432 55.4684 95.3384 54.0906C92.5336 52.7128 92.0219 48.0283 94.187 43.6194C96.3521 39.2104 100.377 36.7599 103.182 38.1377C105.987 39.5155 106.499 44.2 104.333 48.6089Z" fill="#EDBA8C"/>
<path fill-rule="evenodd" clip-rule="evenodd" d="M96.362 58.1647L93.6458 32.587C92.3861 20.7183 81.7377 12.1169 69.8691 13.3865L59.5947 14.4789C47.726 15.7386 39.1246 26.3869 40.3942 38.2556L43.1104 63.8333C44.3701 75.702 55.0184 84.3033 66.8871 83.0338L77.1615 81.9414C89.0302 80.6817 97.6315 70.0334 96.362 58.1647Z" fill="#EDBA8C"/>
<path fill-rule="evenodd" clip-rule="evenodd" d="M34.0269 55.6846C36.9596 59.6211 41.3587 61.304 43.8682 59.444C46.3778 57.5839 46.0333 52.8798 43.1006 48.9432C40.1679 45.0067 35.7688 43.3238 33.2592 45.1838C30.7595 47.0438 31.0941 51.748 34.0269 55.6846Z" fill="#EDBA8C"/>
<path fill-rule="evenodd" clip-rule="evenodd" d="M34.2335 48.54C38.0913 49.0222 39.4986 53.0572 40.4926 56.2556C40.6599 56.7969 41.5161 56.5705 41.3488 56.0194C40.2072 52.3584 38.5538 48.1955 34.2335 47.6542C33.6725 47.5854 33.6725 48.4612 34.2335 48.54Z" fill="#561C2F"/>
<path fill-rule="evenodd" clip-rule="evenodd" d="M36.3592 53.3031C37.2154 52.7225 38.1307 52.3485 39.1443 52.1615C39.7053 52.0533 39.4691 51.2069 38.9081 51.3053C37.8256 51.5021 36.8218 51.9253 35.9164 52.5355C35.4538 52.8504 35.8868 53.618 36.3592 53.2933V53.3031Z" fill="#561C2F"/>
<path fill-rule="evenodd" clip-rule="evenodd" d="M97.2972 52.1615C97.1004 48.0871 98.6356 44.3573 101.637 41.6017C102.06 41.2179 101.431 40.588 101.017 40.9817C97.8582 43.8947 96.2245 47.8805 96.4213 52.1713C96.4508 52.7421 97.3267 52.7421 97.307 52.1713L97.2972 52.1615Z" fill="#561C2F"/>
<path fill-rule="evenodd" clip-rule="evenodd" d="M98.35 46.3846C99.6294 46.542 100.732 47.1916 101.539 48.1757C101.903 48.6186 102.523 47.9887 102.159 47.5557C101.194 46.3747 99.8558 45.6858 98.35 45.5087C97.7891 45.4398 97.7891 46.3255 98.35 46.3944V46.3846Z" fill="#561C2F"/>
<path fill-rule="evenodd" clip-rule="evenodd" d="M40.3351 35.2736C43.0021 45.2429 44.8523 58.5189 44.8523 58.5189C44.8523 58.5189 48.6707 57.584 51.8396 55.8716C55.0086 54.1592 64.5448 48.1461 77.5748 51.069C89.6994 53.7852 91.9629 53.736 91.9629 53.736C91.9629 53.736 93.8819 36.494 93.2226 28.9653C96.9524 44.0718 114.185 85.7598 72.6148 89.6078C32.0388 92.5799 40.1973 57.1313 40.3253 35.2835L40.3351 35.2736Z" fill="#CB2E45"/>
<mask id="mask1_2424_18682" style="mask-type:luminance" maskUnits="userSpaceOnUse" x="39" y="28" width="61" height="62">
<path d="M40.3351 35.2736C43.0021 45.2429 44.8523 58.5189 44.8523 58.5189C44.8523 58.5189 48.6707 57.584 51.8396 55.8716C55.0086 54.1592 64.5448 48.1461 77.5748 51.069C89.6994 53.7852 91.9629 53.736 91.9629 53.736C91.9629 53.736 93.8819 36.494 93.2226 28.9653C96.9524 44.0718 114.185 85.7598 72.6148 89.6078C32.0388 92.5799 40.1973 57.1313 40.3253 35.2835L40.3351 35.2736Z" fill="white"/>
</mask>
<g mask="url(#mask1_2424_18682)">
<path opacity="0.3" fill-rule="evenodd" clip-rule="evenodd" d="M40.3351 35.2736C43.0021 45.2429 44.8523 58.5189 44.8523 58.5189C44.8523 58.5189 48.6707 57.584 51.8396 55.8716C55.0086 54.1592 64.5448 48.1461 77.5748 51.069C89.6994 53.7852 91.9629 53.736 91.9629 53.736C91.9629 53.736 93.8819 36.494 93.2226 28.9653C96.9524 44.0718 114.185 85.7598 72.6148 89.6078C32.0388 92.5799 40.1973 57.1313 40.3253 35.2835L40.3351 35.2736Z" fill="#561C2F"/>
</g>
<path fill-rule="evenodd" clip-rule="evenodd" d="M100.24 177.796C100.121 177.816 99.9935 177.836 99.8656 177.856L99.836 176.645C83.273 135.902 94.3249 96.31 94.3249 96.31L86.5108 94.4795C86.5108 94.4795 80.9209 109.586 81.9641 128.058C81.9641 128.058 61.1496 127.546 48.533 128.55C48.7594 111.17 51.5346 92.9246 51.5346 92.9246L43.3466 94.1449C43.3466 94.1449 35.9951 141.364 38.4752 148.43L38.1012 176.015L37.3532 179.735H37.3336C37.1564 180.641 36.9399 181.723 36.7135 182.943V182.963C32.4818 205.333 20.6524 278.346 30.6906 349.804C47.2635 351.014 49.5467 349.774 49.5467 349.774C49.5467 349.774 53.2175 259.086 63.6986 211.09L95.5058 347.767L114.578 345.907C114.578 345.907 103.281 213.304 100.24 177.787V177.796Z" fill="#561C2F"/>
<mask id="mask2_2424_18682" style="mask-type:luminance" maskUnits="userSpaceOnUse" x="26" y="92" width="89" height="259">
<path d="M100.24 177.796C100.121 177.816 99.9935 177.836 99.8656 177.856L99.836 176.645C83.273 135.902 94.3249 96.31 94.3249 96.31L86.5108 94.4795C86.5108 94.4795 80.9209 109.586 81.9641 128.058C81.9641 128.058 61.1496 127.546 48.533 128.55C48.7594 111.17 51.5346 92.9246 51.5346 92.9246L43.3466 94.1449C43.3466 94.1449 35.9951 141.364 38.4752 148.43L38.1012 176.015L37.3532 179.735H37.3336C37.1564 180.641 36.9399 181.723 36.7135 182.943V182.963C32.4818 205.333 20.6524 278.346 30.6906 349.804C47.2635 351.014 49.5467 349.774 49.5467 349.774C49.5467 349.774 53.2175 259.086 63.6986 211.09L95.5058 347.767L114.578 345.907C114.578 345.907 103.281 213.304 100.24 177.787V177.796Z" fill="white"/>
</mask>
<g mask="url(#mask2_2424_18682)">
<path opacity="0.3" fill-rule="evenodd" clip-rule="evenodd" d="M100.24 177.796C100.121 177.816 99.9935 177.836 99.8656 177.856L99.836 176.645C83.273 135.902 94.3249 96.31 94.3249 96.31L86.5108 94.4795C86.5108 94.4795 80.9209 109.586 81.9641 128.058C81.9641 128.058 61.1496 127.546 48.533 128.55C48.7594 111.17 51.5346 92.9246 51.5346 92.9246L43.3466 94.1449C43.3466 94.1449 35.9951 141.364 38.4752 148.43L38.1012 176.015L37.3532 179.735H37.3336C37.1564 180.641 36.9399 181.723 36.7135 182.943V182.963C32.4818 205.333 20.6524 278.346 30.6906 349.804C47.2635 351.014 49.5467 349.774 49.5467 349.774C49.5467 349.774 53.2175 259.086 63.6986 211.09L95.5058 347.767L114.578 345.907C114.578 345.907 103.281 213.304 100.24 177.787V177.796Z" fill="#561C2F"/>
</g>
<path fill-rule="evenodd" clip-rule="evenodd" d="M67.8812 50.026C68.1568 47.0047 68.206 43.9539 68.0289 40.9228C67.9403 39.4367 67.8025 37.9507 67.6057 36.4745C67.4679 35.3919 67.4679 33.9354 67.025 32.9217C66.4247 31.5439 64.3482 31.3963 63.9349 32.9414C63.6002 34.1716 64.0825 35.5494 64.2104 36.7795C64.4171 38.925 64.7123 41.0605 64.8107 43.2059C64.8599 44.2491 64.8599 45.2825 64.7911 46.3257C64.7517 46.9653 64.9682 48.2054 64.486 48.6974C64.2203 48.9631 63.7676 49.0419 63.4526 48.8352C63.2066 48.6777 63.0885 48.3825 62.8818 48.1758C62.5275 47.8019 61.9272 47.7133 61.445 47.9003C60.392 48.3235 60.5199 49.1993 60.7266 50.1146C61.0317 51.4333 61.6812 52.6733 62.6358 53.6476C63.1377 54.1594 63.7479 54.6022 64.4564 54.6908C65.5292 54.8286 66.5723 54.0905 67.1038 53.1556C67.6451 52.2108 67.773 51.1086 67.8714 50.026H67.8812Z" fill="#F1D054"/>
<path fill-rule="evenodd" clip-rule="evenodd" d="M58.1578 45.6465C58.4038 47.5656 57.5673 49.2583 56.2978 49.4158C55.0282 49.5732 53.7981 48.1462 53.5619 46.2272C53.3158 44.3081 54.1523 42.6154 55.4219 42.4579C56.6914 42.3005 57.9216 43.7275 58.1578 45.6465Z" fill="#561C2F"/>
<path fill-rule="evenodd" clip-rule="evenodd" d="M72.6542 44.2196C72.5952 46.1584 73.5892 47.7625 74.8685 47.792C76.1479 47.8314 77.2305 46.2863 77.2895 44.3476C77.3486 42.4088 76.3546 40.8047 75.0752 40.7751C73.7958 40.7358 72.7133 42.2809 72.6542 44.2196Z" fill="#561C2F"/>
<path fill-rule="evenodd" clip-rule="evenodd" d="M49.6155 39.1906C50.7571 36.3366 53.5422 34.8899 56.534 35.254C57.7051 35.3918 57.6953 33.5613 56.534 33.4235C52.6565 32.961 49.2711 35.1359 47.8441 38.7083C47.4012 39.8106 49.1825 40.2829 49.6155 39.2004V39.1906Z" fill="#561C2F"/>
<path fill-rule="evenodd" clip-rule="evenodd" d="M72.5459 33.3349C75.2129 32.3015 78.0373 33.0987 79.8088 35.3425C80.5371 36.2676 81.8263 34.9685 81.1079 34.0435C78.9821 31.3371 75.2621 30.3333 72.0636 31.5634C70.9713 31.9866 71.4436 33.7581 72.5557 33.3349H72.5459Z" fill="#561C2F"/>
<path fill-rule="evenodd" clip-rule="evenodd" d="M63.1573 58.1646C66.9069 60.9104 71.8965 58.4894 72.2999 53.9328C72.3492 53.3423 71.4339 53.3522 71.3847 53.9328C71.0403 57.8694 66.7494 59.6605 63.6199 57.3675C63.1376 57.0132 62.6849 57.8103 63.1573 58.1646Z" fill="#EDBA8C"/>
<path opacity="0.16" fill-rule="evenodd" clip-rule="evenodd" d="M40.2268 40.529C40.8763 40.3617 41.516 40.1944 42.1557 40.0271C50.9244 37.7636 59.9194 36.1201 68.9341 35.2639C75.1636 34.6734 81.3736 34.5159 87.5736 34.7127C90.0143 34.6832 92.4352 34.6832 94.8168 34.7127C94.8168 34.7127 92.4451 25.3241 90.3882 22.411C73.8154 21.5253 56.3863 23.533 41.1716 29.7429C40.3646 32.4197 40.0693 35.2934 40.3843 38.2458L40.2268 40.5191V40.529Z" fill="#561C2F"/>
<path fill-rule="evenodd" clip-rule="evenodd" d="M96.4408 19.1536L84.6607 13.0716C80.1336 12.9929 75.5968 12.9732 71.0698 13.0421C65.1748 13.1307 59.3684 13.3374 53.5226 14.0263L52.627 14.3707L43.9666 19.1634L32.531 26.3476C32.531 26.3476 28.9487 28.9162 28.9487 30.7861L27.7284 37.7931C27.7284 37.7931 60.7462 20.5609 102.021 28.6702C125.758 29.6543 96.4211 19.1536 96.4211 19.1536H96.4408Z" fill="#F1D054"/>
<mask id="mask3_2424_18682" style="mask-type:luminance" maskUnits="userSpaceOnUse" x="27" y="13" width="85" height="25">
<path d="M96.4408 19.1536L84.6607 13.0716C80.1336 12.9929 75.5968 12.9732 71.0698 13.0421C65.1748 13.1307 59.3684 13.3374 53.5226 14.0263L52.627 14.3707L43.9666 19.1634L32.531 26.3476C32.531 26.3476 28.9487 28.9162 28.9487 30.7861L27.7284 37.7931C27.7284 37.7931 60.7462 20.5609 102.021 28.6702C125.758 29.6543 96.4211 19.1536 96.4211 19.1536H96.4408Z" fill="white"/>
</mask>
<g mask="url(#mask3_2424_18682)">
<path opacity="0.3" fill-rule="evenodd" clip-rule="evenodd" d="M96.4408 19.1536L84.6607 13.0716C80.1336 12.9929 75.5968 12.9732 71.0698 13.0421C65.1748 13.1307 59.3684 13.3374 53.5226 14.0263L52.627 14.3707L43.9666 19.1634L32.531 26.3476C32.531 26.3476 28.9487 28.9162 28.9487 30.7861L27.7284 37.7931C27.7284 37.7931 60.7462 20.5609 102.021 28.6702C125.758 29.6543 96.4211 19.1536 96.4211 19.1536H96.4408Z" fill="#CB2E45"/>
</g>
<path fill-rule="evenodd" clip-rule="evenodd" d="M17.3558 140.645C14.0097 148.971 12.0906 157.877 11.7068 166.843C11.6675 167.699 11.6576 168.624 12.1202 169.352C12.5138 169.982 13.1929 170.366 13.8522 170.701C24.0577 175.897 36.1823 174.824 47.5687 173.614C49.0056 173.456 65.2045 171.311 65.1553 170.661C64.8895 167.03 64.3187 163.428 63.4625 159.885C57.4396 158.291 51.2789 158.163 45.0789 157.621C41.536 157.316 37.9636 156.834 34.4305 156.559C34.5388 154.118 34.6569 151.677 34.7651 149.237L17.3558 140.635V140.645Z" fill="#EDBA8C"/>
<path opacity="0.15" fill-rule="evenodd" clip-rule="evenodd" d="M34.5584 153.872C34.6273 152.327 34.6962 150.782 34.7749 149.247L17.3656 140.645C16.1846 143.578 15.1906 146.58 14.3738 149.64C20.7313 152.829 27.699 154.659 34.5584 153.882V153.872Z" fill="#561C2F"/>
<path fill-rule="evenodd" clip-rule="evenodd" d="M99.649 141.856C104.865 140.34 117.137 136.689 122.451 134.494C123.869 133.904 125.483 134.622 126.024 136.049C126.86 138.254 127.382 140.143 127.687 141.452C127.963 142.604 127.461 143.794 126.437 144.405C122.53 146.727 112.167 152.169 101.519 151.638C100.338 151.579 99.3046 150.792 98.9798 149.65C98.4287 147.701 98.035 146.196 97.7792 145.074C97.4446 143.667 98.2712 142.259 99.6589 141.856H99.649Z" fill="#F1D054"/>
<path fill-rule="evenodd" clip-rule="evenodd" d="M16.6275 132.28L14.3837 136.787C13.7932 137.968 13.99 139.385 14.8954 140.35C17.7396 143.371 24.7565 149.463 35.8181 150.319C37.3436 150.437 38.7312 149.433 39.1248 147.957C39.7744 145.507 40.2468 143.765 40.5814 142.535C41.0242 140.931 40.1582 139.267 38.5836 138.716C34.1845 137.171 25.7111 134.012 21.1644 131.04C19.5897 130.007 17.464 130.597 16.6275 132.29V132.28Z" fill="#F1D054"/>
<path opacity="0.3" fill-rule="evenodd" clip-rule="evenodd" d="M99.649 141.856C104.865 140.34 117.137 136.689 122.451 134.494C123.869 133.904 125.483 134.622 126.024 136.049C126.86 138.254 127.382 140.143 127.687 141.452C127.963 142.604 127.461 143.794 126.437 144.405C122.53 146.727 112.167 152.169 101.519 151.638C100.338 151.579 99.3046 150.792 98.9798 149.65C98.4287 147.701 98.035 146.196 97.7792 145.074C97.4446 143.667 98.2712 142.259 99.6589 141.856H99.649Z" fill="#CB2E45"/>
<path opacity="0.3" fill-rule="evenodd" clip-rule="evenodd" d="M16.6275 132.28L14.3837 136.787C13.7932 137.968 13.99 139.385 14.8954 140.35C17.7396 143.371 24.7565 149.463 35.8181 150.319C37.3436 150.437 38.7312 149.433 39.1248 147.957C39.7744 145.507 40.2468 143.765 40.5814 142.535C41.0242 140.931 40.1582 139.267 38.5836 138.716C34.1845 137.171 25.7111 134.012 21.1644 131.04C19.5897 130.007 17.464 130.597 16.6275 132.29V132.28Z" fill="#CB2E45"/>
<path opacity="0.3" fill-rule="evenodd" clip-rule="evenodd" d="M67.8812 50.026C68.1568 47.0047 68.206 43.9539 68.0289 40.9228C67.9403 39.4367 67.8025 37.9507 67.6057 36.4745C67.4679 35.3919 67.4679 33.9354 67.025 32.9217C66.4247 31.5439 64.3482 31.3963 63.9349 32.9414C63.6002 34.1716 64.0825 35.5494 64.2104 36.7795C64.4171 38.925 64.7123 41.0605 64.8107 43.2059C64.8599 44.2491 64.8599 45.2825 64.7911 46.3257C64.7517 46.9653 64.9682 48.2054 64.486 48.6974C64.2203 48.9631 63.7676 49.0419 63.4526 48.8352C63.2066 48.6777 63.0885 48.3825 62.8818 48.1758C62.5275 47.8019 61.9272 47.7133 61.445 47.9003C60.392 48.3235 60.5199 49.1993 60.7266 50.1146C61.0317 51.4333 61.6812 52.6733 62.6358 53.6476C63.1377 54.1594 63.7479 54.6022 64.4564 54.6908C65.5292 54.8286 66.5723 54.0905 67.1038 53.1556C67.6451 52.2108 67.773 51.1086 67.8714 50.026H67.8812Z" fill="#CB2E45"/>
</g>
</g>
<defs>
<filter id="filter0_d_2424_18682" x="-3.11898" y="0" width="151.238" height="370.854" filterUnits="userSpaceOnUse" color-interpolation-filters="sRGB">
<feFlood flood-opacity="0" result="BackgroundImageFix"/>
<feColorMatrix in="SourceAlpha" type="matrix" values="0 0 0 0 0 0 0 0 0 0 0 0 0 0 0 0 0 0 127 0" result="hardAlpha"/>
<feOffset dy="3.11898"/>
<feGaussianBlur stdDeviation="1.55949"/>
<feComposite in2="hardAlpha" operator="out"/>
<feColorMatrix type="matrix" values="0 0 0 0 0 0 0 0 0 0 0 0 0 0 0 0 0 0 0.25 0"/>
<feBlend mode="normal" in2="BackgroundImageFix" result="effect1_dropShadow_2424_18682"/>
<feBlend mode="normal" in="SourceGraphic" in2="effect1_dropShadow_2424_18682" result="shape"/>
</filter>
<clipPath id="clip0_2424_18682">
<rect width="145" height="144" fill="white"/>
</clipPath>
</defs>
</svg>
