<svg width="360" height="104" viewBox="0 0 360 104" fill="none" xmlns="http://www.w3.org/2000/svg">
<g clip-path="url(#clip0_4156_1310)">
<g filter="url(#filter0_d_4156_1310)">
<path fill-rule="evenodd" clip-rule="evenodd" d="M29.2634 97.2479C33.7361 86.083 37.9781 72.7191 44.6634 68.545C48.5999 66.0881 62.2285 64.4184 62.2285 64.4184H70.665C70.665 64.4184 85.1827 62.7963 89.4653 66.8143C92.9268 70.0654 104.75 94.1326 104.75 94.1326C104.75 94.1326 96.9244 102.372 89.4653 102.372C89.6825 112.363 89.7233 121.397 89.7233 121.397C89.7233 121.397 90.0151 122.734 90.4902 125.191C78.1308 126.222 61.2783 126.263 46.8692 122.625C47.1746 119.041 47.3647 116.883 47.385 116.659L52.2446 84.3319C52.2446 84.3319 49.1768 95.7343 46.9778 102.936C43.5435 102.936 31.9511 100.187 29.2634 97.2411V97.2479Z" fill="#F1D054"/>
<path fill-rule="evenodd" clip-rule="evenodd" d="M66.8578 70.1128H67.0139C69.6609 70.1128 71.8057 67.968 71.8057 65.321V50.2739H62.0593V65.321C62.0593 67.968 64.2041 70.1128 66.851 70.1128H66.8578Z" fill="#EDBA8C"/>
<path opacity="0.25" fill-rule="evenodd" clip-rule="evenodd" d="M71.812 63.9027C68.5678 64.2488 65.2692 64.0995 62.0657 63.4547V56.3757C65.2896 56.8983 68.5474 57.163 71.812 57.1766V63.9027Z" fill="#561C2F" stroke="#EDBA8C" stroke-width="0.347756" stroke-miterlimit="22.93"/>
<path fill-rule="evenodd" clip-rule="evenodd" d="M84.7959 10.2773C84.7959 10.2773 84.2394 5.4924 82.1353 3.3816C80.0245 1.27759 66.4638 -1.34904 59.6156 0.802487C57.4641 3.06939 56.0863 7.54212 56.0863 7.54212L84.7959 10.2773Z" fill="#F1D054"/>
<path fill-rule="evenodd" clip-rule="evenodd" d="M31.1843 18.8971C30.3902 27.6661 47.039 36.3333 68.371 38.2676C89.7031 40.2019 107.635 34.6568 108.429 25.8946C109.223 17.1256 92.574 8.45846 71.242 6.52412C49.91 4.58978 31.9784 10.1349 31.1843 18.8971Z" fill="#F1D054"/>
<mask id="mask0_4156_1310" style="mask-type:luminance" maskUnits="userSpaceOnUse" x="31" y="6" width="78" height="33">
<path d="M31.1843 18.8971C30.3902 27.6661 47.039 36.3333 68.371 38.2676C89.7031 40.2019 107.635 34.6568 108.429 25.8946C109.223 17.1256 92.574 8.45846 71.242 6.52412C49.91 4.58978 31.9784 10.1349 31.1843 18.8971Z" fill="white"/>
</mask>
<g mask="url(#mask0_4156_1310)">
<path opacity="0.3" fill-rule="evenodd" clip-rule="evenodd" d="M31.1843 18.8971C30.3902 27.6661 47.039 36.3333 68.371 38.2676C89.7031 40.2019 107.635 34.6568 108.429 25.8946C109.223 17.1256 92.574 8.45846 71.242 6.52412C49.91 4.58978 31.9784 10.1349 31.1843 18.8971Z" fill="#CB2E45"/>
</g>
<path fill-rule="evenodd" clip-rule="evenodd" d="M44.0456 33.5234C45.5388 36.5641 48.3147 38.2541 50.2491 37.3039C52.1834 36.3537 52.5364 33.123 51.0432 30.0823C49.55 27.0417 46.7741 25.3517 44.8397 26.3019C42.9054 27.2521 42.5525 30.4828 44.0456 33.5234Z" fill="#EDBA8C"/>
<path fill-rule="evenodd" clip-rule="evenodd" d="M49.5433 40.1135L51.4166 22.4737C52.2853 14.2884 59.629 8.35641 67.8143 9.23195L74.9001 9.98532C83.0854 10.8541 89.0174 18.1978 88.1418 26.3831L86.2686 44.0229C85.3998 52.2082 78.0561 58.1401 69.8708 57.2646L62.7851 56.5112C54.5998 55.6425 48.6678 48.2988 49.5433 40.1135Z" fill="#EDBA8C"/>
<path fill-rule="evenodd" clip-rule="evenodd" d="M92.5332 38.4033C90.5106 41.1181 87.4768 42.2787 85.7461 40.9959C84.0153 39.7132 84.2529 36.4689 86.2755 33.7541C88.298 31.0392 91.3319 29.8786 93.0626 31.1614C94.7865 32.4441 94.5558 35.6884 92.5332 38.4033Z" fill="#EDBA8C"/>
<path fill-rule="evenodd" clip-rule="evenodd" d="M92.391 33.4758C89.7304 33.8084 88.7599 36.5911 88.0744 38.7969C87.959 39.1702 87.3685 39.0141 87.4839 38.634C88.2712 36.1092 89.4114 33.2383 92.391 32.865C92.7779 32.8175 92.7779 33.4215 92.391 33.4758Z" fill="#561C2F"/>
<path fill-rule="evenodd" clip-rule="evenodd" d="M90.9245 36.7607C90.334 36.3603 89.7028 36.1024 89.0037 35.9734C88.6169 35.8987 88.7798 35.315 89.1666 35.3829C89.9132 35.5187 90.6055 35.8105 91.2299 36.2313C91.5489 36.4485 91.2503 36.9779 90.9245 36.7539V36.7607Z" fill="#561C2F"/>
<path fill-rule="evenodd" clip-rule="evenodd" d="M48.8986 35.9735C49.0344 33.1636 47.9756 30.5913 45.9055 28.6909C45.6137 28.4262 46.048 27.9918 46.3331 28.2633C48.5118 30.2723 49.6384 33.0211 49.5027 35.9803C49.4823 36.3739 48.8783 36.3739 48.8918 35.9803L48.8986 35.9735Z" fill="#561C2F"/>
<path fill-rule="evenodd" clip-rule="evenodd" d="M48.1723 31.9893C47.2899 32.0979 46.5298 32.5458 45.9732 33.2245C45.7221 33.5299 45.2945 33.0956 45.5456 32.7969C46.2108 31.9825 47.1338 31.5074 48.1723 31.3852C48.5591 31.3377 48.5591 31.9485 48.1723 31.996V31.9893Z" fill="#561C2F"/>
<path fill-rule="evenodd" clip-rule="evenodd" d="M88.1829 24.3266C86.3436 31.202 85.0676 40.3579 85.0676 40.3579C85.0676 40.3579 82.4342 39.7131 80.2487 38.5321C78.0633 37.3512 71.4865 33.2042 62.5003 35.22C54.1386 37.0933 52.5775 37.0593 52.5775 37.0593C52.5775 37.0593 51.254 25.1682 51.7088 19.9761C49.1364 30.3943 37.2522 59.1447 65.9211 61.7985C93.9045 63.8482 88.2779 39.4009 88.1897 24.3334L88.1829 24.3266Z" fill="#CB2E45"/>
<mask id="mask1_4156_1310" style="mask-type:luminance" maskUnits="userSpaceOnUse" x="47" y="19" width="42" height="43">
<path d="M88.1829 24.3266C86.3436 31.202 85.0676 40.3579 85.0676 40.3579C85.0676 40.3579 82.4342 39.7131 80.2487 38.5321C78.0633 37.3512 71.4865 33.2042 62.5003 35.22C54.1386 37.0933 52.5775 37.0593 52.5775 37.0593C52.5775 37.0593 51.254 25.1682 51.7088 19.9761C49.1364 30.3943 37.2522 59.1447 65.9211 61.7985C93.9045 63.8482 88.2779 39.4009 88.1897 24.3334L88.1829 24.3266Z" fill="white"/>
</mask>
<g mask="url(#mask1_4156_1310)">
<path opacity="0.3" fill-rule="evenodd" clip-rule="evenodd" d="M88.1829 24.3266C86.3436 31.202 85.0676 40.3579 85.0676 40.3579C85.0676 40.3579 82.4342 39.7131 80.2487 38.5321C78.0633 37.3512 71.4865 33.2042 62.5003 35.22C54.1386 37.0933 52.5775 37.0593 52.5775 37.0593C52.5775 37.0593 51.254 25.1682 51.7088 19.9761C49.1364 30.3943 37.2522 59.1447 65.9211 61.7985C93.9045 63.8482 88.2779 39.4009 88.1897 24.3334L88.1829 24.3266Z" fill="#561C2F"/>
</g>
<path fill-rule="evenodd" clip-rule="evenodd" d="M46.8694 122.618C46.9509 122.632 47.0391 122.645 47.1273 122.659L47.1477 121.824C58.5705 93.7254 50.9485 66.4207 50.9485 66.4207L56.3375 65.1583C56.3375 65.1583 60.1926 75.5766 59.4732 88.316C59.4732 88.316 73.828 87.9631 82.5291 88.6554C82.373 76.6693 80.459 64.0859 80.459 64.0859L86.1059 64.9275C86.1059 64.9275 91.1759 97.4923 89.4655 102.365L89.7235 121.39L90.2393 123.955H90.2529C90.375 124.58 90.5243 125.326 90.6804 126.168V126.182C93.5989 141.609 101.757 191.963 94.8342 241.244C83.4046 242.079 81.83 241.224 81.83 241.224C81.83 241.224 79.2984 178.68 72.0701 145.579L50.134 239.839L36.9805 238.556C36.9805 238.556 44.7722 147.106 46.8694 122.611V122.618Z" fill="#561C2F"/>
<mask id="mask2_4156_1310" style="mask-type:luminance" maskUnits="userSpaceOnUse" x="36" y="64" width="62" height="178">
<path d="M46.8694 122.618C46.9509 122.632 47.0391 122.645 47.1273 122.659L47.1477 121.824C58.5705 93.7254 50.9485 66.4207 50.9485 66.4207L56.3375 65.1583C56.3375 65.1583 60.1926 75.5766 59.4732 88.316C59.4732 88.316 73.828 87.9631 82.5291 88.6554C82.373 76.6693 80.459 64.0859 80.459 64.0859L86.1059 64.9275C86.1059 64.9275 91.1759 97.4923 89.4655 102.365L89.7235 121.39L90.2393 123.955H90.2529C90.375 124.58 90.5243 125.326 90.6804 126.168V126.182C93.5989 141.609 101.757 191.963 94.8342 241.244C83.4046 242.079 81.83 241.224 81.83 241.224C81.83 241.224 79.2984 178.68 72.0701 145.579L50.134 239.839L36.9805 238.556C36.9805 238.556 44.7722 147.106 46.8694 122.611V122.618Z" fill="white"/>
</mask>
<g mask="url(#mask2_4156_1310)">
<path opacity="0.3" fill-rule="evenodd" clip-rule="evenodd" d="M46.8694 122.618C46.9509 122.632 47.0391 122.645 47.1273 122.659L47.1477 121.824C58.5705 93.7254 50.9485 66.4207 50.9485 66.4207L56.3375 65.1583C56.3375 65.1583 60.1926 75.5766 59.4732 88.316C59.4732 88.316 73.828 87.9631 82.5291 88.6554C82.373 76.6693 80.459 64.0859 80.459 64.0859L86.1059 64.9275C86.1059 64.9275 91.1759 97.4923 89.4655 102.365L89.7235 121.39L90.2393 123.955H90.2529C90.375 124.58 90.5243 125.326 90.6804 126.168V126.182C93.5989 141.609 101.757 191.963 94.8342 241.244C83.4046 242.079 81.83 241.224 81.83 241.224C81.83 241.224 79.2984 178.68 72.0701 145.579L50.134 239.839L36.9805 238.556C36.9805 238.556 44.7722 147.106 46.8694 122.611V122.618Z" fill="#561C2F"/>
</g>
<path fill-rule="evenodd" clip-rule="evenodd" d="M69.1851 34.5006C68.9951 32.417 68.9612 30.313 69.0833 28.2225C69.1444 27.1977 69.2394 26.1728 69.3752 25.1547C69.4702 24.4081 69.4702 23.4036 69.7756 22.7046C70.1896 21.7544 71.6217 21.6526 71.9068 22.7181C72.1375 23.5665 71.805 24.5167 71.7167 25.3651C71.5742 26.8447 71.3706 28.3175 71.3027 29.7971C71.2688 30.5166 71.2688 31.2292 71.3163 31.9487C71.3434 32.3898 71.1941 33.245 71.5267 33.5844C71.71 33.7676 72.0222 33.8219 72.2393 33.6794C72.409 33.5708 72.4905 33.3672 72.633 33.2246C72.8773 32.9667 73.2914 32.9057 73.6239 33.0346C74.3501 33.3265 74.2619 33.9305 74.1194 34.5617C73.909 35.4712 73.461 36.3264 72.8027 36.9983C72.4565 37.3512 72.0357 37.6567 71.5471 37.7177C70.8073 37.8128 70.0878 37.3037 69.7213 36.6589C69.348 36.0074 69.2598 35.2472 69.1919 34.5006H69.1851Z" fill="#F1D054"/>
<path fill-rule="evenodd" clip-rule="evenodd" d="M75.8911 31.4804C75.7214 32.8039 76.2983 33.9713 77.1739 34.0799C78.0494 34.1885 78.8978 33.2044 79.0607 31.8809C79.2304 30.5574 78.6535 29.39 77.7779 29.2814C76.9024 29.1728 76.054 30.1569 75.8911 31.4804Z" fill="#561C2F"/>
<path fill-rule="evenodd" clip-rule="evenodd" d="M65.8938 30.4964C65.9345 31.8334 65.249 32.9397 64.3667 32.9601C63.4843 32.9873 62.7378 31.9217 62.697 30.5846C62.6563 29.2475 63.3418 28.1412 64.2241 28.1209C65.1065 28.0937 65.8531 29.1593 65.8938 30.4964Z" fill="#561C2F"/>
<path fill-rule="evenodd" clip-rule="evenodd" d="M81.7822 27.0279C80.9949 25.0596 79.0741 24.0619 77.0108 24.313C76.2031 24.408 76.2099 23.1456 77.0108 23.0506C79.6849 22.7316 82.0197 24.2316 83.0039 26.6953C83.3093 27.4555 82.0808 27.7813 81.7822 27.0347V27.0279Z" fill="#561C2F"/>
<path fill-rule="evenodd" clip-rule="evenodd" d="M65.9685 22.9895C64.1292 22.2769 62.1813 22.8267 60.9596 24.3741C60.4574 25.0121 59.5682 24.1162 60.0637 23.4782C61.5297 21.6118 64.0953 20.9195 66.3011 21.7679C67.0545 22.0597 66.7287 23.2814 65.9617 22.9895H65.9685Z" fill="#561C2F"/>
<path fill-rule="evenodd" clip-rule="evenodd" d="M31.6796 99.3723L45.3489 104.673C45.0163 106.18 44.6837 107.687 44.3512 109.193C53.6495 109.539 62.9411 109.96 72.2328 110.422C72.9929 112.974 73.6241 115.566 73.9771 118.207C60.5656 123.507 45.152 123.541 31.7203 118.288C31.2316 118.098 30.7226 117.881 30.3832 117.48C29.942 116.958 29.8606 116.225 29.8199 115.546C29.4805 110.096 30.1185 104.592 31.6931 99.3655L31.6796 99.3723Z" fill="#EDBA8C"/>
<mask id="mask3_4156_1310" style="mask-type:luminance" maskUnits="userSpaceOnUse" x="29" y="99" width="45" height="24">
<path d="M31.6796 99.3723L45.3489 104.673C45.0163 106.18 44.6837 107.687 44.3512 109.193C53.6495 109.539 62.9411 109.96 72.2328 110.422C72.9929 112.974 73.6241 115.566 73.9771 118.207C60.5656 123.507 45.152 123.541 31.7203 118.288C31.2316 118.098 30.7226 117.881 30.3832 117.48C29.942 116.958 29.8606 116.225 29.8199 115.546C29.4805 110.096 30.1185 104.592 31.6931 99.3655L31.6796 99.3723Z" fill="white"/>
</mask>
<g mask="url(#mask3_4156_1310)">
<path opacity="0.2" fill-rule="evenodd" clip-rule="evenodd" d="M31.6796 99.3723L45.3489 104.673C45.0163 106.18 44.6837 107.687 44.3512 109.193C53.6495 109.539 62.9411 109.96 72.2328 110.422C72.9929 112.974 73.6241 115.566 73.9771 118.207C60.5656 123.507 45.152 123.541 31.7203 118.288C31.2316 118.098 30.7226 117.881 30.3832 117.48C29.942 116.958 29.8606 116.225 29.8199 115.546C29.4805 110.096 30.1185 104.592 31.6931 99.3655L31.6796 99.3723Z" fill="#CB2E45"/>
</g>
<path fill-rule="evenodd" clip-rule="evenodd" d="M72.4429 40.1134C69.857 42.0071 66.416 40.3374 66.1377 37.195C66.1037 36.7877 66.7349 36.7945 66.7689 37.195C67.0064 39.9098 69.9656 41.1451 72.1239 39.5637C72.4565 39.3193 72.7687 39.8691 72.4429 40.1134Z" fill="#EDBA8C"/>
<path opacity="0.16" fill-rule="evenodd" clip-rule="evenodd" d="M88.2573 27.9511C87.8094 27.8358 87.3682 27.7204 86.927 27.605C80.8797 26.044 74.6762 24.9105 68.4592 24.32C64.1629 23.9128 59.8803 23.8042 55.6044 23.9399C53.9211 23.9196 52.2515 23.9196 50.609 23.9399C50.609 23.9399 52.2447 17.465 53.6632 15.456C65.0928 14.8452 77.1128 16.2297 87.6058 20.5124C88.1623 22.3585 88.3659 24.3404 88.1487 26.3765L88.2573 27.9444V27.9511Z" fill="#561C2F"/>
<path fill-rule="evenodd" clip-rule="evenodd" d="M49.4891 13.2094L57.6133 9.01498C60.7354 8.96069 63.8643 8.94711 66.9864 8.99462C71.0519 9.05571 75.0563 9.19824 79.0878 9.67334L79.7055 9.91089L85.6782 13.2162L93.5648 18.1708C93.5648 18.1708 96.0353 19.9423 96.0353 21.2318L96.877 26.0643C96.877 26.0643 74.1061 14.18 45.6408 19.7726C29.2702 20.4513 49.5027 13.2094 49.5027 13.2094H49.4891Z" fill="#F1D054"/>
<mask id="mask4_4156_1310" style="mask-type:luminance" maskUnits="userSpaceOnUse" x="39" y="8" width="58" height="19">
<path d="M49.4891 13.2094L57.6133 9.01498C60.7354 8.96069 63.8643 8.94711 66.9864 8.99462C71.0519 9.05571 75.0563 9.19824 79.0878 9.67334L79.7055 9.91089L85.6782 13.2162L93.5648 18.1708C93.5648 18.1708 96.0353 19.9423 96.0353 21.2318L96.877 26.0643C96.877 26.0643 74.1061 14.18 45.6408 19.7726C29.2702 20.4513 49.5027 13.2094 49.5027 13.2094H49.4891Z" fill="white"/>
</mask>
<g mask="url(#mask4_4156_1310)">
<path opacity="0.3" fill-rule="evenodd" clip-rule="evenodd" d="M49.4891 13.2094L57.6133 9.01498C60.7354 8.96069 63.8643 8.94711 66.9864 8.99462C71.0519 9.05571 75.0563 9.19824 79.0878 9.67334L79.7055 9.91089L85.6782 13.2162L93.5648 18.1708C93.5648 18.1708 96.0353 19.9423 96.0353 21.2318L96.877 26.0643C96.877 26.0643 74.1061 14.18 45.6408 19.7726C29.2702 20.4513 49.5027 13.2094 49.5027 13.2094H49.4891Z" fill="#CB2E45"/>
</g>
<path fill-rule="evenodd" clip-rule="evenodd" d="M104.03 96.9965C106.338 102.738 107.661 108.881 107.926 115.064C107.953 115.654 107.96 116.292 107.641 116.795C107.37 117.229 106.901 117.494 106.447 117.724C99.4083 121.308 91.0465 120.568 83.1938 119.733C82.2029 119.625 71.0313 118.145 71.0652 117.697C71.2484 115.193 71.6421 112.709 72.2326 110.265C76.3863 109.166 80.6351 109.078 84.911 108.704C87.3543 108.494 89.8181 108.161 92.2547 107.971C92.18 106.288 92.0986 104.605 92.0239 102.922L104.03 96.9897V96.9965Z" fill="#EDBA8C"/>
<path opacity="0.15" fill-rule="evenodd" clip-rule="evenodd" d="M31.6798 99.3721L45.3491 104.673C45.0776 105.915 44.7994 107.157 44.5211 108.399C43.6591 108.474 42.7971 108.508 41.9352 108.514C37.9443 108.548 33.9467 108.223 30.0034 107.571C30.3156 104.795 30.8653 102.046 31.673 99.3721H31.6798Z" fill="#561C2F"/>
<path opacity="0.15" fill-rule="evenodd" clip-rule="evenodd" d="M92.167 106.119C92.1195 105.053 92.0719 103.988 92.0176 102.929L104.024 96.9968C104.839 99.0194 105.524 101.089 106.087 103.2C101.703 105.399 96.8976 106.662 92.167 106.126V106.119Z" fill="#561C2F"/>
<path fill-rule="evenodd" clip-rule="evenodd" d="M47.2764 97.8315C43.6793 96.7863 35.2157 94.2683 31.5506 92.7548C30.5733 92.3475 29.4602 92.843 29.0869 93.8271C28.51 95.3475 28.1503 96.6506 27.9399 97.5533C27.7498 98.3474 28.096 99.1686 28.8018 99.5894C31.4963 101.191 38.6432 104.944 45.9869 104.578C46.8013 104.537 47.514 103.994 47.738 103.207C48.1181 101.863 48.3895 100.825 48.566 100.051C48.7968 99.0804 48.2266 98.1098 47.2697 97.8315H47.2764Z" fill="#F1D054"/>
<path fill-rule="evenodd" clip-rule="evenodd" d="M104.533 91.2277L106.08 94.3362C106.487 95.1506 106.351 96.128 105.727 96.7931C103.766 98.8768 98.9263 103.078 91.2976 103.669C90.2456 103.75 89.2886 103.058 89.0171 102.04C88.5692 100.35 88.2434 99.1483 88.0126 98.2999C87.7072 97.1936 88.3045 96.0465 89.3904 95.6665C92.4243 94.6009 98.268 92.4222 101.404 90.3725C102.49 89.6598 103.956 90.0671 104.533 91.2345V91.2277Z" fill="#F1D054"/>
<path opacity="0.3" fill-rule="evenodd" clip-rule="evenodd" d="M47.2764 97.8315C43.6793 96.7863 35.2157 94.2683 31.5506 92.7548C30.5733 92.3475 29.4602 92.843 29.0869 93.8271C28.51 95.3475 28.1503 96.6506 27.9399 97.5533C27.7498 98.3474 28.096 99.1686 28.8018 99.5894C31.4963 101.191 38.6432 104.944 45.9869 104.578C46.8013 104.537 47.514 103.994 47.738 103.207C48.1181 101.863 48.3895 100.825 48.566 100.051C48.7968 99.0804 48.2266 98.1098 47.2697 97.8315H47.2764Z" fill="#CB2E45"/>
<path opacity="0.3" fill-rule="evenodd" clip-rule="evenodd" d="M104.533 91.2277L106.08 94.3362C106.487 95.1506 106.351 96.128 105.727 96.7931C103.766 98.8768 98.9263 103.078 91.2976 103.669C90.2456 103.75 89.2886 103.058 89.0171 102.04C88.5692 100.35 88.2434 99.1483 88.0126 98.2999C87.7072 97.1936 88.3045 96.0465 89.3904 95.6665C92.4243 94.6009 98.268 92.4222 101.404 90.3725C102.49 89.6598 103.956 90.0671 104.533 91.2345V91.2277Z" fill="#CB2E45"/>
<path opacity="0.3" fill-rule="evenodd" clip-rule="evenodd" d="M69.1851 34.5006C68.9951 32.417 68.9612 30.313 69.0833 28.2225C69.1444 27.1977 69.2394 26.1728 69.3752 25.1547C69.4702 24.4081 69.4702 23.4036 69.7756 22.7046C70.1896 21.7544 71.6217 21.6526 71.9068 22.7181C72.1375 23.5665 71.805 24.5167 71.7167 25.3651C71.5742 26.8447 71.3706 28.3175 71.3027 29.7971C71.2688 30.5166 71.2688 31.2292 71.3163 31.9487C71.3434 32.3898 71.1941 33.245 71.5267 33.5844C71.71 33.7676 72.0222 33.8219 72.2393 33.6794C72.409 33.5708 72.4905 33.3672 72.633 33.2246C72.8773 32.9667 73.2914 32.9057 73.6239 33.0346C74.3501 33.3265 74.2619 33.9305 74.1194 34.5617C73.909 35.4712 73.461 36.3264 72.8027 36.9983C72.4565 37.3512 72.0357 37.6567 71.5471 37.7177C70.8073 37.8128 70.0878 37.3037 69.7213 36.6589C69.348 36.0074 69.2598 35.2472 69.1919 34.5006H69.1851Z" fill="#CB2E45"/>
</g>
</g>
<path d="M168.304 12.8213C152.749 13.1653 136.962 21.3183 121.6 30.1983L151.939 43.6627C151.626 28.209 156.408 22.8025 168.304 12.8213Z" fill="white"/>
<rect x="144.099" width="199.901" height="85" rx="16" fill="white"/>
<path d="M168.44 36.668C167.272 36.668 166.216 36.468 165.272 36.068C164.344 35.668 163.608 35.092 163.064 34.34C162.52 33.588 162.24 32.7 162.224 31.676H165.824C165.872 32.364 166.112 32.908 166.544 33.308C166.992 33.708 167.6 33.908 168.368 33.908C169.152 33.908 169.768 33.724 170.216 33.356C170.664 32.972 170.888 32.476 170.888 31.868C170.888 31.372 170.736 30.964 170.432 30.644C170.128 30.324 169.744 30.076 169.28 29.9C168.832 29.708 168.208 29.5 167.408 29.276C166.32 28.956 165.432 28.644 164.744 28.34C164.072 28.02 163.488 27.548 162.992 26.924C162.512 26.284 162.272 25.436 162.272 24.38C162.272 23.388 162.52 22.524 163.016 21.788C163.512 21.052 164.208 20.492 165.104 20.108C166 19.708 167.024 19.508 168.176 19.508C169.904 19.508 171.304 19.932 172.376 20.78C173.464 21.612 174.064 22.78 174.176 24.284H170.48C170.448 23.708 170.2 23.236 169.736 22.868C169.288 22.484 168.688 22.292 167.936 22.292C167.28 22.292 166.752 22.46 166.352 22.796C165.968 23.132 165.776 23.62 165.776 24.26C165.776 24.708 165.92 25.084 166.208 25.388C166.512 25.676 166.88 25.916 167.312 26.108C167.76 26.284 168.384 26.492 169.184 26.732C170.272 27.052 171.16 27.372 171.848 27.692C172.536 28.012 173.128 28.492 173.624 29.132C174.12 29.772 174.368 30.612 174.368 31.652C174.368 32.548 174.136 33.38 173.672 34.148C173.208 34.916 172.528 35.532 171.632 35.996C170.736 36.444 169.672 36.668 168.44 36.668ZM189.161 29.564C189.161 30.044 189.129 30.476 189.065 30.86H179.345C179.425 31.82 179.761 32.572 180.353 33.116C180.945 33.66 181.673 33.932 182.537 33.932C183.785 33.932 184.673 33.396 185.201 32.324H188.825C188.441 33.604 187.705 34.66 186.617 35.492C185.529 36.308 184.193 36.716 182.609 36.716C181.329 36.716 180.177 36.436 179.153 35.876C178.145 35.3 177.353 34.492 176.777 33.452C176.217 32.412 175.937 31.212 175.937 29.852C175.937 28.476 176.217 27.268 176.777 26.228C177.337 25.188 178.121 24.388 179.129 23.828C180.137 23.268 181.297 22.988 182.609 22.988C183.873 22.988 185.001 23.26 185.993 23.804C187.001 24.348 187.777 25.124 188.321 26.132C188.881 27.124 189.161 28.268 189.161 29.564ZM185.681 28.604C185.665 27.74 185.353 27.052 184.745 26.54C184.137 26.012 183.393 25.748 182.513 25.748C181.681 25.748 180.977 26.004 180.401 26.516C179.841 27.012 179.497 27.708 179.369 28.604H185.681ZM194.494 18.74V36.5H191.134V18.74H194.494ZM209.693 29.564C209.693 30.044 209.661 30.476 209.597 30.86H199.877C199.957 31.82 200.293 32.572 200.885 33.116C201.477 33.66 202.205 33.932 203.069 33.932C204.317 33.932 205.205 33.396 205.733 32.324H209.357C208.973 33.604 208.237 34.66 207.149 35.492C206.061 36.308 204.725 36.716 203.141 36.716C201.861 36.716 200.709 36.436 199.685 35.876C198.677 35.3 197.885 34.492 197.309 33.452C196.749 32.412 196.469 31.212 196.469 29.852C196.469 28.476 196.749 27.268 197.309 26.228C197.869 25.188 198.653 24.388 199.661 23.828C200.669 23.268 201.829 22.988 203.141 22.988C204.405 22.988 205.533 23.26 206.525 23.804C207.533 24.348 208.309 25.124 208.853 26.132C209.413 27.124 209.693 28.268 209.693 29.564ZM206.213 28.604C206.197 27.74 205.885 27.052 205.277 26.54C204.669 26.012 203.925 25.748 203.045 25.748C202.213 25.748 201.509 26.004 200.933 26.516C200.373 27.012 200.029 27.708 199.901 28.604H206.213ZM210.802 29.852C210.802 28.476 211.082 27.276 211.642 26.252C212.202 25.212 212.978 24.412 213.97 23.852C214.962 23.276 216.098 22.988 217.378 22.988C219.026 22.988 220.386 23.404 221.458 24.236C222.546 25.052 223.274 26.204 223.642 27.692H220.018C219.826 27.116 219.498 26.668 219.034 26.348C218.586 26.012 218.026 25.844 217.354 25.844C216.394 25.844 215.634 26.196 215.074 26.9C214.514 27.588 214.234 28.572 214.234 29.852C214.234 31.116 214.514 32.1 215.074 32.804C215.634 33.492 216.394 33.836 217.354 33.836C218.714 33.836 219.602 33.228 220.018 32.012H223.642C223.274 33.452 222.546 34.596 221.458 35.444C220.37 36.292 219.01 36.716 217.378 36.716C216.098 36.716 214.962 36.436 213.97 35.876C212.978 35.3 212.202 34.5 211.642 33.476C211.082 32.436 210.802 31.228 210.802 29.852ZM224.759 29.852C224.759 28.476 225.039 27.276 225.599 26.252C226.159 25.212 226.935 24.412 227.927 23.852C228.919 23.276 230.055 22.988 231.335 22.988C232.983 22.988 234.343 23.404 235.415 24.236C236.503 25.052 237.231 26.204 237.599 27.692H233.975C233.783 27.116 233.455 26.668 232.991 26.348C232.543 26.012 231.983 25.844 231.311 25.844C230.351 25.844 229.591 26.196 229.031 26.9C228.471 27.588 228.191 28.572 228.191 29.852C228.191 31.116 228.471 32.1 229.031 32.804C229.591 33.492 230.351 33.836 231.311 33.836C232.671 33.836 233.559 33.228 233.975 32.012H237.599C237.231 33.452 236.503 34.596 235.415 35.444C234.327 36.292 232.967 36.716 231.335 36.716C230.055 36.716 228.919 36.436 227.927 35.876C226.935 35.3 226.159 34.5 225.599 33.476C225.039 32.436 224.759 31.228 224.759 29.852ZM241.285 21.62C240.693 21.62 240.197 21.436 239.797 21.068C239.413 20.684 239.221 20.212 239.221 19.652C239.221 19.092 239.413 18.628 239.797 18.26C240.197 17.876 240.693 17.684 241.285 17.684C241.877 17.684 242.365 17.876 242.749 18.26C243.149 18.628 243.349 19.092 243.349 19.652C243.349 20.212 243.149 20.684 242.749 21.068C242.365 21.436 241.877 21.62 241.285 21.62ZM242.941 23.204V36.5H239.581V23.204H242.941ZM251.684 36.716C250.404 36.716 249.252 36.436 248.228 35.876C247.204 35.3 246.396 34.492 245.804 33.452C245.228 32.412 244.94 31.212 244.94 29.852C244.94 28.492 245.236 27.292 245.828 26.252C246.436 25.212 247.26 24.412 248.3 23.852C249.34 23.276 250.5 22.988 251.78 22.988C253.06 22.988 254.22 23.276 255.26 23.852C256.3 24.412 257.116 25.212 257.708 26.252C258.316 27.292 258.62 28.492 258.62 29.852C258.62 31.212 258.308 32.412 257.684 33.452C257.076 34.492 256.244 35.3 255.188 35.876C254.148 36.436 252.98 36.716 251.684 36.716ZM251.684 33.788C252.292 33.788 252.86 33.644 253.388 33.356C253.932 33.052 254.364 32.604 254.684 32.012C255.004 31.42 255.164 30.7 255.164 29.852C255.164 28.588 254.828 27.62 254.156 26.948C253.5 26.26 252.692 25.916 251.732 25.916C250.772 25.916 249.964 26.26 249.308 26.948C248.668 27.62 248.348 28.588 248.348 29.852C248.348 31.116 248.66 32.092 249.284 32.78C249.924 33.452 250.724 33.788 251.684 33.788ZM267.973 23.012C269.557 23.012 270.837 23.516 271.813 24.524C272.789 25.516 273.277 26.908 273.277 28.7V36.5H269.917V29.156C269.917 28.1 269.653 27.292 269.125 26.732C268.597 26.156 267.877 25.868 266.965 25.868C266.037 25.868 265.301 26.156 264.757 26.732C264.229 27.292 263.965 28.1 263.965 29.156V36.5H260.605V23.204H263.965V24.86C264.413 24.284 264.981 23.836 265.669 23.516C266.373 23.18 267.141 23.012 267.973 23.012ZM275.128 29.804C275.128 28.46 275.392 27.268 275.92 26.228C276.464 25.188 277.192 24.388 278.104 23.828C279.032 23.268 280.064 22.988 281.2 22.988C282.192 22.988 283.056 23.188 283.792 23.588C284.544 23.988 285.144 24.492 285.592 25.1V23.204H288.976V36.5H285.592V34.556C285.16 35.18 284.56 35.7 283.792 36.116C283.04 36.516 282.168 36.716 281.176 36.716C280.056 36.716 279.032 36.428 278.104 35.852C277.192 35.276 276.464 34.468 275.92 33.428C275.392 32.372 275.128 31.164 275.128 29.804ZM285.592 29.852C285.592 29.036 285.432 28.34 285.112 27.764C284.792 27.172 284.36 26.724 283.816 26.42C283.272 26.1 282.688 25.94 282.064 25.94C281.44 25.94 280.864 26.092 280.336 26.396C279.808 26.7 279.376 27.148 279.04 27.74C278.72 28.316 278.56 29.004 278.56 29.804C278.56 30.604 278.72 31.308 279.04 31.916C279.376 32.508 279.808 32.964 280.336 33.284C280.88 33.604 281.456 33.764 282.064 33.764C282.688 33.764 283.272 33.612 283.816 33.308C284.36 32.988 284.792 32.54 285.112 31.964C285.432 31.372 285.592 30.668 285.592 29.852ZM300.929 25.964V32.396C300.929 32.844 301.033 33.172 301.241 33.38C301.465 33.572 301.833 33.668 302.345 33.668H303.905V36.5H301.793C298.961 36.5 297.545 35.124 297.545 32.372V25.964H295.961V23.204H297.545V19.916H300.929V23.204H303.905V25.964H300.929ZM318.393 23.204V36.5H315.009V34.82C314.577 35.396 314.009 35.852 313.305 36.188C312.617 36.508 311.865 36.668 311.049 36.668C310.009 36.668 309.089 36.452 308.289 36.02C307.489 35.572 306.857 34.924 306.393 34.076C305.945 33.212 305.721 32.188 305.721 31.004V23.204H309.081V30.524C309.081 31.58 309.345 32.396 309.873 32.972C310.401 33.532 311.121 33.812 312.033 33.812C312.961 33.812 313.689 33.532 314.217 32.972C314.745 32.396 315.009 31.58 315.009 30.524V23.204H318.393ZM314.745 19.748L309.225 22.268V19.868L314.745 17.012V19.748ZM179.168 54.012C180.8 54.012 182.112 54.516 183.104 55.524C184.112 56.516 184.616 57.908 184.616 59.7V67.5H181.256V60.156C181.256 59.116 180.992 58.324 180.464 57.78C179.936 57.22 179.216 56.94 178.304 56.94C177.392 56.94 176.664 57.22 176.12 57.78C175.592 58.324 175.328 59.116 175.328 60.156V67.5H171.968V60.156C171.968 59.116 171.704 58.324 171.176 57.78C170.648 57.22 169.928 56.94 169.016 56.94C168.088 56.94 167.352 57.22 166.808 57.78C166.28 58.324 166.016 59.116 166.016 60.156V67.5H162.656V54.204H166.016V55.812C166.448 55.252 167 54.812 167.672 54.492C168.36 54.172 169.112 54.012 169.928 54.012C170.968 54.012 171.896 54.236 172.712 54.684C173.528 55.116 174.16 55.74 174.608 56.556C175.04 55.788 175.664 55.172 176.48 54.708C177.312 54.244 178.208 54.012 179.168 54.012ZM199.876 54.204V67.5H196.492V65.82C196.06 66.396 195.492 66.852 194.788 67.188C194.1 67.508 193.348 67.668 192.532 67.668C191.492 67.668 190.572 67.452 189.772 67.02C188.972 66.572 188.34 65.924 187.876 65.076C187.428 64.212 187.204 63.188 187.204 62.004V54.204H190.564V61.524C190.564 62.58 190.828 63.396 191.356 63.972C191.884 64.532 192.604 64.812 193.516 64.812C194.444 64.812 195.172 64.532 195.7 63.972C196.228 63.396 196.492 62.58 196.492 61.524V54.204H199.876ZM210.08 54.012C211.664 54.012 212.944 54.516 213.92 55.524C214.896 56.516 215.384 57.908 215.384 59.7V67.5H212.024V60.156C212.024 59.1 211.76 58.292 211.232 57.732C210.704 57.156 209.984 56.868 209.072 56.868C208.144 56.868 207.408 57.156 206.864 57.732C206.336 58.292 206.072 59.1 206.072 60.156V67.5H202.712V54.204H206.072V55.86C206.52 55.284 207.088 54.836 207.776 54.516C208.48 54.18 209.248 54.012 210.08 54.012ZM219.803 52.62C219.211 52.62 218.715 52.436 218.315 52.068C217.931 51.684 217.739 51.212 217.739 50.652C217.739 50.092 217.931 49.628 218.315 49.26C218.715 48.876 219.211 48.684 219.803 48.684C220.395 48.684 220.883 48.876 221.267 49.26C221.667 49.628 221.867 50.092 221.867 50.652C221.867 51.212 221.667 51.684 221.267 52.068C220.883 52.436 220.395 52.62 219.803 52.62ZM221.459 54.204V67.5H218.099V54.204H221.459ZM223.435 60.852C223.435 59.476 223.715 58.276 224.275 57.252C224.835 56.212 225.611 55.412 226.603 54.852C227.595 54.276 228.731 53.988 230.011 53.988C231.659 53.988 233.019 54.404 234.091 55.236C235.179 56.052 235.907 57.204 236.275 58.692H232.651C232.459 58.116 232.131 57.668 231.667 57.348C231.219 57.012 230.659 56.844 229.987 56.844C229.027 56.844 228.267 57.196 227.707 57.9C227.147 58.588 226.867 59.572 226.867 60.852C226.867 62.116 227.147 63.1 227.707 63.804C228.267 64.492 229.027 64.836 229.987 64.836C231.347 64.836 232.235 64.228 232.651 63.012H236.275C235.907 64.452 235.179 65.596 234.091 66.444C233.003 67.292 231.643 67.716 230.011 67.716C228.731 67.716 227.595 67.436 226.603 66.876C225.611 66.3 224.835 65.5 224.275 64.476C223.715 63.436 223.435 62.228 223.435 60.852ZM239.96 52.62C239.368 52.62 238.872 52.436 238.472 52.068C238.088 51.684 237.896 51.212 237.896 50.652C237.896 50.092 238.088 49.628 238.472 49.26C238.872 48.876 239.368 48.684 239.96 48.684C240.552 48.684 241.04 48.876 241.424 49.26C241.824 49.628 242.024 50.092 242.024 50.652C242.024 51.212 241.824 51.684 241.424 52.068C241.04 52.436 240.552 52.62 239.96 52.62ZM241.616 54.204V67.5H238.256V54.204H241.616ZM247.816 56.124C248.248 55.516 248.84 55.012 249.592 54.612C250.36 54.196 251.232 53.988 252.208 53.988C253.344 53.988 254.368 54.268 255.28 54.828C256.208 55.388 256.936 56.188 257.464 57.228C258.008 58.252 258.28 59.444 258.28 60.804C258.28 62.164 258.008 63.372 257.464 64.428C256.936 65.468 256.208 66.276 255.28 66.852C254.368 67.428 253.344 67.716 252.208 67.716C251.232 67.716 250.368 67.516 249.616 67.116C248.88 66.716 248.28 66.212 247.816 65.604V73.836H244.456V54.204H247.816V56.124ZM254.848 60.804C254.848 60.004 254.68 59.316 254.344 58.74C254.024 58.148 253.592 57.7 253.048 57.396C252.52 57.092 251.944 56.94 251.32 56.94C250.712 56.94 250.136 57.1 249.592 57.42C249.064 57.724 248.632 58.172 248.296 58.764C247.976 59.356 247.816 60.052 247.816 60.852C247.816 61.652 247.976 62.348 248.296 62.94C248.632 63.532 249.064 63.988 249.592 64.308C250.136 64.612 250.712 64.764 251.32 64.764C251.944 64.764 252.52 64.604 253.048 64.284C253.592 63.964 254.024 63.508 254.344 62.916C254.68 62.324 254.848 61.62 254.848 60.804ZM261.945 52.62C261.353 52.62 260.857 52.436 260.457 52.068C260.073 51.684 259.881 51.212 259.881 50.652C259.881 50.092 260.073 49.628 260.457 49.26C260.857 48.876 261.353 48.684 261.945 48.684C262.537 48.684 263.025 48.876 263.409 49.26C263.809 49.628 264.009 50.092 264.009 50.652C264.009 51.212 263.809 51.684 263.409 52.068C263.025 52.436 262.537 52.62 261.945 52.62ZM263.601 54.204V67.5H260.241V54.204H263.601ZM272.345 67.716C271.065 67.716 269.913 67.436 268.889 66.876C267.865 66.3 267.057 65.492 266.465 64.452C265.889 63.412 265.601 62.212 265.601 60.852C265.601 59.492 265.897 58.292 266.489 57.252C267.097 56.212 267.921 55.412 268.961 54.852C270.001 54.276 271.161 53.988 272.441 53.988C273.721 53.988 274.881 54.276 275.921 54.852C276.961 55.412 277.777 56.212 278.369 57.252C278.977 58.292 279.281 59.492 279.281 60.852C279.281 62.212 278.969 63.412 278.345 64.452C277.737 65.492 276.905 66.3 275.849 66.876C274.809 67.436 273.641 67.716 272.345 67.716ZM272.345 64.788C272.953 64.788 273.521 64.644 274.049 64.356C274.593 64.052 275.025 63.604 275.345 63.012C275.665 62.42 275.825 61.7 275.825 60.852C275.825 59.588 275.489 58.62 274.817 57.948C274.161 57.26 273.353 56.916 272.393 56.916C271.433 56.916 270.625 57.26 269.969 57.948C269.329 58.62 269.009 59.588 269.009 60.852C269.009 62.116 269.321 63.092 269.945 63.78C270.585 64.452 271.385 64.788 272.345 64.788Z" fill="#8F3B06"/>
<defs>
<filter id="filter0_d_4156_1310" x="12.881" y="0" width="106.238" height="257.697" filterUnits="userSpaceOnUse" color-interpolation-filters="sRGB">
<feFlood flood-opacity="0" result="BackgroundImageFix"/>
<feColorMatrix in="SourceAlpha" type="matrix" values="0 0 0 0 0 0 0 0 0 0 0 0 0 0 0 0 0 0 127 0" result="hardAlpha"/>
<feOffset dy="3.11898"/>
<feGaussianBlur stdDeviation="1.55949"/>
<feComposite in2="hardAlpha" operator="out"/>
<feColorMatrix type="matrix" values="0 0 0 0 0 0 0 0 0 0 0 0 0 0 0 0 0 0 0.25 0"/>
<feBlend mode="normal" in2="BackgroundImageFix" result="effect1_dropShadow_4156_1310"/>
<feBlend mode="normal" in="SourceGraphic" in2="effect1_dropShadow_4156_1310" result="shape"/>
</filter>
<clipPath id="clip0_4156_1310">
<rect width="100" height="104" fill="white" transform="matrix(-1 0 0 1 116 0)"/>
</clipPath>
</defs>
</svg>
