<svg width="360" height="125" viewBox="0 0 360 125" fill="none" xmlns="http://www.w3.org/2000/svg">
<g clip-path="url(#clip0_2419_3076)">
<g filter="url(#filter0_d_2419_3076)">
<path fill-rule="evenodd" clip-rule="evenodd" d="M29.2636 97.2476C33.7364 86.0828 37.9783 72.7189 44.6637 68.5448C48.6002 66.0878 62.2288 64.4182 62.2288 64.4182H70.6652C70.6652 64.4182 85.1829 62.7961 89.4656 66.8141C92.927 70.0651 104.75 94.1323 104.75 94.1323C104.75 94.1323 96.9247 102.372 89.4656 102.372C89.6828 112.363 89.7235 121.396 89.7235 121.396C89.7235 121.396 90.0154 122.733 90.4905 125.19C78.1311 126.222 61.2786 126.263 46.8695 122.625C47.1749 119.041 47.3649 116.883 47.3853 116.659L52.2449 84.3317C52.2449 84.3317 49.1771 95.7341 46.9781 102.935C43.5438 102.935 31.9513 100.186 29.2636 97.2408V97.2476Z" fill="#C36363"/>
<path fill-rule="evenodd" clip-rule="evenodd" d="M66.8576 70.1127H67.0137C69.6607 70.1127 71.8054 67.968 71.8054 65.321V50.2739H62.0591V65.321C62.0591 67.968 64.2038 70.1127 66.8508 70.1127H66.8576Z" fill="#EDBA8C"/>
<path opacity="0.25" fill-rule="evenodd" clip-rule="evenodd" d="M71.812 63.9027C68.5678 64.2488 65.2692 64.0995 62.0657 63.4547V56.3757C65.2896 56.8983 68.5474 57.163 71.812 57.1766V63.9027Z" fill="#561C2F" stroke="#EDBA8C" stroke-width="0.347756" stroke-miterlimit="22.93"/>
<path fill-rule="evenodd" clip-rule="evenodd" d="M84.7959 10.2773C84.7959 10.2773 84.2394 5.4924 82.1353 3.3816C80.0245 1.27759 66.4638 -1.34904 59.6156 0.802487C57.4641 3.06939 56.0863 7.54212 56.0863 7.54212L84.7959 10.2773Z" fill="#845E40"/>
<path fill-rule="evenodd" clip-rule="evenodd" d="M31.1843 18.8971C30.3902 27.6661 47.0391 36.3333 68.3711 38.2676C89.7031 40.2019 107.635 34.6568 108.429 25.8946C109.223 17.1256 92.574 8.45846 71.242 6.52412C49.91 4.58979 31.9784 10.1349 31.1843 18.8971Z" fill="#F1D054"/>
<mask id="mask0_2419_3076" style="mask-type:luminance" maskUnits="userSpaceOnUse" x="31" y="6" width="78" height="33">
<path d="M31.1843 18.8971C30.3902 27.6661 47.0391 36.3333 68.3711 38.2676C89.7031 40.2019 107.635 34.6568 108.429 25.8946C109.223 17.1256 92.574 8.45846 71.242 6.52412C49.91 4.58979 31.9784 10.1349 31.1843 18.8971Z" fill="white"/>
</mask>
<g mask="url(#mask0_2419_3076)">
<path opacity="0.3" fill-rule="evenodd" clip-rule="evenodd" d="M31.1843 18.8971C30.3902 27.6661 47.0391 36.3333 68.3711 38.2676C89.7031 40.2019 107.635 34.6568 108.429 25.8946C109.223 17.1256 92.574 8.45846 71.242 6.52412C49.91 4.58979 31.9784 10.1349 31.1843 18.8971Z" fill="#CB2E45"/>
</g>
<path fill-rule="evenodd" clip-rule="evenodd" d="M64.0755 20.1189L54.9772 18.0583C52.5924 17.514 50.0775 18.428 48.6615 20.3854C44.2286 26.5307 35.7819 41.1408 38.4546 60.6343C38.8232 63.3225 41.1896 65.3183 44.0386 65.4025C48.7666 65.5355 52.1315 65.6485 54.5082 65.73C57.61 65.8476 60.3182 63.6757 60.7224 60.7272C61.8613 52.4876 64.3894 36.5427 68.0801 27.4703C69.3656 24.3267 67.4719 20.886 64.0575 20.1229L64.0755 20.1189Z" fill="black"/>
<path fill-rule="evenodd" clip-rule="evenodd" d="M44.0461 33.5234C45.5393 36.5641 48.3152 38.2541 50.2496 37.3039C52.1839 36.3537 52.5368 33.123 51.0437 30.0823C49.5505 27.0417 46.7746 25.3517 44.8402 26.3019C42.9059 27.2521 42.553 30.4828 44.0461 33.5234Z" fill="#EDBA8C"/>
<path fill-rule="evenodd" clip-rule="evenodd" d="M70.6182 14.6621L80.5589 13.1008C83.1648 12.687 85.8056 13.8521 87.1884 16.0609C91.516 22.9945 99.5528 39.3282 95.2701 60.1153C94.6796 62.9819 91.9887 64.9592 88.9163 64.8443C83.8183 64.6464 80.1886 64.5252 77.6248 64.4415C74.278 64.3444 71.5199 61.8115 71.2976 58.609C70.6663 49.6589 69.0955 32.3157 65.7779 22.2852C64.6211 18.8092 66.9074 15.2428 70.6372 14.6677L70.6182 14.6621Z" fill="black"/>
<path fill-rule="evenodd" clip-rule="evenodd" d="M49.5436 40.1137L51.4168 22.4739C52.2856 14.2886 59.6293 8.35665 67.8146 9.23219L74.9004 9.98556C83.0857 10.8543 89.0176 18.198 88.1421 26.3833L86.2688 44.0231C85.4001 52.2084 78.0564 58.1403 69.8711 57.2648L62.7853 56.5114C54.6 55.6427 48.668 48.299 49.5436 40.1137Z" fill="#EDBA8C"/>
<path fill-rule="evenodd" clip-rule="evenodd" d="M92.5332 38.4032C90.5106 41.1181 87.4768 42.2787 85.7461 40.9959C84.0153 39.7132 84.2529 36.4689 86.2755 33.7541C88.298 31.0392 91.3319 29.8786 93.0626 31.1614C94.7865 32.4441 94.5558 35.6884 92.5332 38.4032Z" fill="#EDBA8C"/>
<path fill-rule="evenodd" clip-rule="evenodd" d="M92.3908 33.4758C89.7302 33.8084 88.7596 36.5911 88.0741 38.7969C87.9588 39.1702 87.3683 39.0141 87.4837 38.634C88.271 36.1092 89.4112 33.2383 92.3908 32.865C92.7776 32.8175 92.7776 33.4215 92.3908 33.4758Z" fill="#561C2F"/>
<path fill-rule="evenodd" clip-rule="evenodd" d="M90.9248 36.7607C90.3343 36.3603 89.7031 36.1024 89.004 35.9734C88.6171 35.8987 88.78 35.315 89.1669 35.3829C89.9135 35.5187 90.6058 35.8105 91.2302 36.2313C91.5492 36.4485 91.2505 36.9779 90.9248 36.7539V36.7607Z" fill="#561C2F"/>
<path fill-rule="evenodd" clip-rule="evenodd" d="M48.8984 35.9735C49.0341 33.1636 47.9753 30.5913 45.9053 28.6909C45.6134 28.4262 46.0478 27.9918 46.3329 28.2633C48.5115 30.2723 49.6382 33.0211 49.5024 35.9803C49.4821 36.3739 48.878 36.3739 48.8916 35.9803L48.8984 35.9735Z" fill="#561C2F"/>
<path fill-rule="evenodd" clip-rule="evenodd" d="M48.1725 31.9893C47.2902 32.0978 46.53 32.5458 45.9735 33.2245C45.7223 33.5299 45.2947 33.0956 45.5459 32.7969C46.211 31.9825 47.1341 31.5074 48.1725 31.3852C48.5594 31.3377 48.5594 31.9485 48.1725 31.996V31.9893Z" fill="#561C2F"/>
<path fill-rule="evenodd" clip-rule="evenodd" d="M46.8692 122.618C46.9506 122.632 47.0389 122.645 47.1271 122.659L47.1475 121.824C58.5702 93.7254 50.9483 66.4207 50.9483 66.4207L56.3373 65.1583C56.3373 65.1583 60.1924 75.5766 59.4729 88.316C59.4729 88.316 73.8277 87.9631 82.5288 88.6554C82.3727 76.6693 80.4588 64.0859 80.4588 64.0859L86.1057 64.9275C86.1057 64.9275 91.1757 97.4923 89.4653 102.365L89.7232 121.39L90.239 123.955H90.2526C90.3748 124.58 90.5241 125.326 90.6802 126.168V126.182C93.5987 141.609 101.757 191.963 94.8339 241.244C83.4044 242.079 81.8298 241.224 81.8298 241.224C81.8298 241.224 79.2982 178.68 72.0699 145.579L50.1338 239.839L36.9803 238.556C36.9803 238.556 44.772 147.106 46.8692 122.611V122.618Z" fill="#1E4A47"/>
<mask id="mask1_2419_3076" style="mask-type:luminance" maskUnits="userSpaceOnUse" x="36" y="64" width="62" height="178">
<path d="M46.8692 122.618C46.9506 122.632 47.0389 122.645 47.1271 122.659L47.1475 121.824C58.5702 93.7254 50.9483 66.4207 50.9483 66.4207L56.3373 65.1583C56.3373 65.1583 60.1924 75.5766 59.4729 88.316C59.4729 88.316 73.8277 87.9631 82.5288 88.6554C82.3727 76.6693 80.4588 64.0859 80.4588 64.0859L86.1057 64.9275C86.1057 64.9275 91.1757 97.4923 89.4653 102.365L89.7232 121.39L90.239 123.955H90.2526C90.3748 124.58 90.5241 125.326 90.6802 126.168V126.182C93.5987 141.609 101.757 191.963 94.8339 241.244C83.4044 242.079 81.8298 241.224 81.8298 241.224C81.8298 241.224 79.2982 178.68 72.0699 145.579L50.1338 239.839L36.9803 238.556C36.9803 238.556 44.772 147.106 46.8692 122.611V122.618Z" fill="white"/>
</mask>
<g mask="url(#mask1_2419_3076)">
<path opacity="0.3" fill-rule="evenodd" clip-rule="evenodd" d="M46.8692 122.618C46.9506 122.632 47.0389 122.645 47.1271 122.659L47.1475 121.824C58.5702 93.7254 50.9483 66.4207 50.9483 66.4207L56.3373 65.1583C56.3373 65.1583 60.1924 75.5766 59.4729 88.316C59.4729 88.316 73.8277 87.9631 82.5288 88.6554C82.3727 76.6693 80.4588 64.0859 80.4588 64.0859L86.1057 64.9275C86.1057 64.9275 91.1757 97.4923 89.4653 102.365L89.7232 121.39L90.239 123.955H90.2526C90.3748 124.58 90.5241 125.326 90.6802 126.168V126.182C93.5987 141.609 101.757 191.963 94.8339 241.244C83.4044 242.079 81.8298 241.224 81.8298 241.224C81.8298 241.224 79.2982 178.68 72.0699 145.579L50.1338 239.839L36.9803 238.556C36.9803 238.556 44.772 147.106 46.8692 122.611V122.618Z" fill="#1E4A47"/>
</g>
<path fill-rule="evenodd" clip-rule="evenodd" d="M69.1851 34.5006C68.9951 32.417 68.9612 30.313 69.0833 28.2225C69.1444 27.1977 69.2394 26.1728 69.3752 25.1547C69.4702 24.4081 69.4702 23.4036 69.7756 22.7046C70.1896 21.7544 71.6217 21.6526 71.9068 22.7181C72.1375 23.5665 71.805 24.5167 71.7167 25.3651C71.5742 26.8447 71.3706 28.3175 71.3027 29.7971C71.2688 30.5166 71.2688 31.2292 71.3163 31.9487C71.3434 32.3898 71.1941 33.245 71.5267 33.5844C71.71 33.7676 72.0222 33.8219 72.2393 33.6794C72.409 33.5708 72.4905 33.3672 72.633 33.2246C72.8773 32.9667 73.2914 32.9056 73.6239 33.0346C74.3501 33.3264 74.2619 33.9305 74.1194 34.5617C73.909 35.4712 73.461 36.3264 72.8027 36.9983C72.4565 37.3512 72.0357 37.6566 71.5471 37.7177C70.8073 37.8128 70.0878 37.3037 69.7213 36.6589C69.348 36.0074 69.2598 35.2472 69.1919 34.5006H69.1851Z" fill="#F1D054"/>
<path fill-rule="evenodd" clip-rule="evenodd" d="M75.8911 31.4804C75.7214 32.8039 76.2983 33.9713 77.1739 34.0799C78.0494 34.1885 78.8978 33.2044 79.0607 31.8809C79.2304 30.5574 78.6535 29.39 77.7779 29.2814C76.9024 29.1728 76.054 30.1569 75.8911 31.4804Z" fill="#561C2F"/>
<path fill-rule="evenodd" clip-rule="evenodd" d="M65.8938 30.4961C65.9345 31.8332 65.249 32.9395 64.3667 32.9599C63.4843 32.987 62.7378 31.9214 62.697 30.5844C62.6563 29.2473 63.3418 28.141 64.2241 28.1206C65.1065 28.0935 65.8531 29.1591 65.8938 30.4961Z" fill="#561C2F"/>
<path fill-rule="evenodd" clip-rule="evenodd" d="M81.7824 27.0281C80.9951 25.0598 79.0743 24.0621 77.0111 24.3133C76.2034 24.4083 76.2102 23.1459 77.0111 23.0509C79.6852 22.7319 82.02 24.2318 83.0041 26.6956C83.3095 27.4557 82.081 27.7815 81.7824 27.0349V27.0281Z" fill="#561C2F"/>
<path fill-rule="evenodd" clip-rule="evenodd" d="M65.9685 22.9895C64.1292 22.2769 62.1813 22.8267 60.9596 24.3741C60.4574 25.0121 59.5682 24.1162 60.0637 23.4782C61.5297 21.6118 64.0953 20.9195 66.3011 21.7679C67.0545 22.0597 66.7287 23.2814 65.9617 22.9895H65.9685Z" fill="#561C2F"/>
<path fill-rule="evenodd" clip-rule="evenodd" d="M31.6798 99.372L45.3491 104.673C45.0166 106.18 44.684 107.686 44.3514 109.193C53.6498 109.539 62.9414 109.96 72.233 110.421C72.9932 112.973 73.6244 115.566 73.9773 118.206C60.5659 123.507 45.1523 123.541 31.7205 118.288C31.2319 118.098 30.7228 117.881 30.3835 117.48C29.9423 116.958 29.8609 116.225 29.8201 115.546C29.4808 110.096 30.1188 104.591 31.6934 99.3652L31.6798 99.372Z" fill="#EDBA8C"/>
<mask id="mask2_2419_3076" style="mask-type:luminance" maskUnits="userSpaceOnUse" x="29" y="99" width="45" height="24">
<path d="M31.6798 99.372L45.3491 104.673C45.0166 106.18 44.684 107.686 44.3514 109.193C53.6498 109.539 62.9414 109.96 72.233 110.421C72.9932 112.973 73.6244 115.566 73.9773 118.206C60.5659 123.507 45.1523 123.541 31.7205 118.288C31.2319 118.098 30.7228 117.881 30.3835 117.48C29.9423 116.958 29.8609 116.225 29.8201 115.546C29.4808 110.096 30.1188 104.591 31.6934 99.3652L31.6798 99.372Z" fill="white"/>
</mask>
<g mask="url(#mask2_2419_3076)">
<path opacity="0.2" fill-rule="evenodd" clip-rule="evenodd" d="M31.6798 99.372L45.3491 104.673C45.0166 106.18 44.684 107.686 44.3514 109.193C53.6498 109.539 62.9414 109.96 72.233 110.421C72.9932 112.973 73.6244 115.566 73.9773 118.206C60.5659 123.507 45.1523 123.541 31.7205 118.288C31.2319 118.098 30.7228 117.881 30.3835 117.48C29.9423 116.958 29.8609 116.225 29.8201 115.546C29.4808 110.096 30.1188 104.591 31.6934 99.3652L31.6798 99.372Z" fill="#CB2E45"/>
</g>
<path fill-rule="evenodd" clip-rule="evenodd" d="M72.4432 40.1134C69.8573 42.0071 66.4162 40.3374 66.1379 37.195C66.104 36.7877 66.7352 36.7945 66.7691 37.195C67.0067 39.9098 69.9659 41.1451 72.1242 39.5637C72.4568 39.3193 72.769 39.8691 72.4432 40.1134Z" fill="#561C2F"/>
<path opacity="0.16" fill-rule="evenodd" clip-rule="evenodd" d="M88.2573 27.9511C87.8094 27.8358 87.3682 27.7204 86.927 27.605C80.8797 26.044 74.6762 24.9105 68.4592 24.32C64.163 23.9128 59.8803 23.8042 55.6044 23.9399C53.9212 23.9196 52.2515 23.9196 50.609 23.9399C50.609 23.9399 52.2447 17.465 53.6633 15.456C65.0928 14.8452 77.1128 16.2297 87.6058 20.5124C88.1623 22.3585 88.3659 24.3404 88.1487 26.3765L88.2573 27.9444V27.9511Z" fill="#561C2F"/>
<path fill-rule="evenodd" clip-rule="evenodd" d="M49.4889 13.2092L57.6131 9.01474C60.7352 8.96044 63.864 8.94687 66.9861 8.99438C71.0516 9.05546 75.056 9.19799 79.0876 9.67309L79.7052 9.91064L85.6779 13.216L93.5646 18.1706C93.5646 18.1706 96.0351 19.942 96.0351 21.2316L96.8767 26.064C96.8767 26.064 74.1058 14.1798 45.6406 19.7724C29.27 20.4511 49.5024 13.2092 49.5024 13.2092H49.4889Z" fill="#E6A050"/>
<path fill-rule="evenodd" clip-rule="evenodd" d="M104.03 96.9968C106.338 102.739 107.661 108.881 107.926 115.064C107.953 115.655 107.96 116.293 107.641 116.795C107.37 117.229 106.901 117.494 106.447 117.725C99.4083 121.308 91.0466 120.569 83.1938 119.734C82.2029 119.625 71.0313 118.146 71.0652 117.698C71.2485 115.193 71.6421 112.709 72.2326 110.266C76.3863 109.166 80.6351 109.078 84.911 108.705C87.3543 108.494 89.8181 108.162 92.2547 107.972C92.18 106.288 92.0986 104.605 92.0239 102.922L104.03 96.99V96.9968Z" fill="#EDBA8C"/>
<path opacity="0.15" fill-rule="evenodd" clip-rule="evenodd" d="M31.6796 99.3721L45.3489 104.673C45.0774 105.915 44.7991 107.157 44.5208 108.399C43.6589 108.474 42.7969 108.508 41.9349 108.514C37.9441 108.548 33.9465 108.223 30.0031 107.571C30.3154 104.795 30.8651 102.046 31.6728 99.3721H31.6796Z" fill="#561C2F"/>
<path opacity="0.15" fill-rule="evenodd" clip-rule="evenodd" d="M92.1667 106.119C92.1192 105.053 92.0717 103.987 92.0174 102.929L104.024 96.9966C104.838 99.0192 105.524 101.089 106.087 103.2C101.703 105.399 96.8974 106.661 92.1667 106.125V106.119Z" fill="#561C2F"/>
<path fill-rule="evenodd" clip-rule="evenodd" d="M47.2764 97.8315C43.6793 96.7863 35.2157 94.2683 31.5506 92.7548C30.5733 92.3475 29.4602 92.843 29.0869 93.8271C28.51 95.3475 28.1503 96.6506 27.9399 97.5533C27.7498 98.3474 28.096 99.1686 28.8018 99.5894C31.4963 101.191 38.6432 104.944 45.9869 104.578C46.8013 104.537 47.514 103.994 47.738 103.207C48.1181 101.863 48.3895 100.825 48.566 100.051C48.7968 99.0804 48.2266 98.1098 47.2697 97.8315H47.2764Z" fill="#CA4040"/>
<path fill-rule="evenodd" clip-rule="evenodd" d="M104.533 91.2277L106.08 94.3362C106.487 95.1506 106.352 96.128 105.727 96.7931C103.766 98.8768 98.9266 103.078 91.2978 103.669C90.2458 103.75 89.2889 103.058 89.0174 102.04C88.5694 100.35 88.2436 99.1483 88.0129 98.2999C87.7074 97.1936 88.3047 96.0465 89.3907 95.6665C92.4245 94.6009 98.2682 92.4222 101.404 90.3725C102.49 89.6598 103.956 90.0671 104.533 91.2345V91.2277Z" fill="#CA4040"/>
<path opacity="0.3" fill-rule="evenodd" clip-rule="evenodd" d="M47.2764 97.8315C43.6793 96.7863 35.2157 94.2683 31.5506 92.7548C30.5733 92.3475 29.4602 92.843 29.0869 93.8271C28.51 95.3475 28.1503 96.6506 27.9399 97.5533C27.7498 98.3474 28.096 99.1686 28.8018 99.5894C31.4963 101.191 38.6432 104.944 45.9869 104.578C46.8013 104.537 47.514 103.994 47.738 103.207C48.1181 101.863 48.3895 100.825 48.566 100.051C48.7968 99.0804 48.2266 98.1098 47.2697 97.8315H47.2764Z" fill="#CB2E45"/>
<path opacity="0.3" fill-rule="evenodd" clip-rule="evenodd" d="M104.533 91.2277L106.08 94.3362C106.487 95.1506 106.352 96.128 105.727 96.7931C103.766 98.8768 98.9266 103.078 91.2978 103.669C90.2458 103.75 89.2889 103.058 89.0174 102.04C88.5694 100.35 88.2436 99.1483 88.0129 98.2999C87.7074 97.1936 88.3047 96.0465 89.3907 95.6665C92.4245 94.6009 98.2682 92.4222 101.404 90.3725C102.49 89.6598 103.956 90.0671 104.533 91.2345V91.2277Z" fill="#CB2E45"/>
<path opacity="0.3" fill-rule="evenodd" clip-rule="evenodd" d="M69.1851 34.5006C68.9951 32.417 68.9612 30.313 69.0833 28.2225C69.1444 27.1977 69.2394 26.1728 69.3752 25.1547C69.4702 24.4081 69.4702 23.4036 69.7756 22.7046C70.1896 21.7544 71.6217 21.6526 71.9068 22.7181C72.1375 23.5665 71.805 24.5167 71.7167 25.3651C71.5742 26.8447 71.3706 28.3175 71.3027 29.7971C71.2688 30.5166 71.2688 31.2292 71.3163 31.9487C71.3434 32.3898 71.1941 33.245 71.5267 33.5844C71.71 33.7676 72.0222 33.8219 72.2393 33.6794C72.409 33.5708 72.4905 33.3672 72.633 33.2246C72.8773 32.9667 73.2914 32.9056 73.6239 33.0346C74.3501 33.3264 74.2619 33.9305 74.1194 34.5617C73.909 35.4712 73.461 36.3264 72.8027 36.9983C72.4565 37.3512 72.0357 37.6566 71.5471 37.7177C70.8073 37.8128 70.0878 37.3037 69.7213 36.6589C69.348 36.0074 69.2598 35.2472 69.1919 34.5006H69.1851Z" fill="#CB2E45"/>
</g>
</g>
<path d="M168.304 18.8548C152.748 19.3607 136.962 31.3505 121.6 44.4092L151.939 64.2098C151.626 41.4838 156.408 33.533 168.304 18.8548Z" fill="white"/>
<rect x="144.099" width="199.901" height="125" rx="16" fill="white"/>
<path d="M166.016 28.3423V32.5423H171.656V35.2063H166.016V39.6463H172.376V42.3823H162.656V25.6063H172.376V28.3423H166.016ZM180.037 42.5983C178.949 42.5983 177.973 42.4063 177.109 42.0223C176.245 41.6223 175.557 41.0863 175.045 40.4143C174.549 39.7423 174.277 38.9983 174.229 38.1823H177.613C177.677 38.6943 177.925 39.1183 178.357 39.4543C178.805 39.7903 179.357 39.9583 180.013 39.9583C180.653 39.9583 181.149 39.8303 181.501 39.5743C181.869 39.3183 182.053 38.9903 182.053 38.5903C182.053 38.1583 181.829 37.8383 181.381 37.6303C180.949 37.4063 180.253 37.1663 179.293 36.9103C178.301 36.6703 177.485 36.4223 176.845 36.1663C176.221 35.9103 175.677 35.5183 175.213 34.9903C174.765 34.4623 174.541 33.7503 174.541 32.8543C174.541 32.1183 174.749 31.4463 175.165 30.8383C175.597 30.2303 176.205 29.7503 176.989 29.3983C177.789 29.0463 178.725 28.8703 179.797 28.8703C181.381 28.8703 182.645 29.2703 183.589 30.0703C184.533 30.8543 185.053 31.9183 185.149 33.2623H181.933C181.885 32.7343 181.661 32.3183 181.261 32.0143C180.877 31.6943 180.357 31.5343 179.701 31.5343C179.093 31.5343 178.621 31.6463 178.285 31.8703C177.965 32.0943 177.805 32.4063 177.805 32.8063C177.805 33.2543 178.029 33.5983 178.477 33.8383C178.925 34.0623 179.621 34.2943 180.565 34.5343C181.525 34.7743 182.317 35.0223 182.941 35.2783C183.565 35.5343 184.101 35.9343 184.549 36.4783C185.013 37.0063 185.253 37.7103 185.269 38.5903C185.269 39.3583 185.053 40.0463 184.621 40.6543C184.205 41.2623 183.597 41.7423 182.797 42.0943C182.013 42.4303 181.093 42.5983 180.037 42.5983ZM186.684 35.7343C186.684 34.3583 186.964 33.1583 187.524 32.1343C188.084 31.0943 188.86 30.2943 189.852 29.7343C190.844 29.1583 191.98 28.8703 193.26 28.8703C194.908 28.8703 196.268 29.2863 197.34 30.1183C198.428 30.9343 199.156 32.0863 199.524 33.5743H195.9C195.708 32.9983 195.38 32.5503 194.916 32.2303C194.468 31.8943 193.908 31.7263 193.236 31.7263C192.276 31.7263 191.516 32.0783 190.956 32.7823C190.396 33.4703 190.116 34.4543 190.116 35.7343C190.116 36.9983 190.396 37.9823 190.956 38.6863C191.516 39.3743 192.276 39.7183 193.236 39.7183C194.596 39.7183 195.484 39.1103 195.9 37.8943H199.524C199.156 39.3343 198.428 40.4783 197.34 41.3263C196.252 42.1743 194.892 42.5983 193.26 42.5983C191.98 42.5983 190.844 42.3183 189.852 41.7583C188.86 41.1823 188.084 40.3823 187.524 39.3583C186.964 38.3183 186.684 37.1103 186.684 35.7343ZM204.865 31.1503C205.297 30.4463 205.857 29.8943 206.545 29.4943C207.249 29.0943 208.049 28.8943 208.945 28.8943V32.4223H208.057C207.001 32.4223 206.201 32.6703 205.657 33.1663C205.129 33.6623 204.865 34.5263 204.865 35.7583V42.3823H201.505V29.0863H204.865V31.1503ZM212.432 27.5023C211.84 27.5023 211.344 27.3183 210.944 26.9503C210.56 26.5663 210.368 26.0943 210.368 25.5343C210.368 24.9743 210.56 24.5103 210.944 24.1423C211.344 23.7583 211.84 23.5663 212.432 23.5663C213.024 23.5663 213.512 23.7583 213.896 24.1423C214.296 24.5103 214.496 24.9743 214.496 25.5343C214.496 26.0943 214.296 26.5663 213.896 26.9503C213.512 27.3183 213.024 27.5023 212.432 27.5023ZM214.088 29.0863V42.3823H210.728V29.0863H214.088ZM220.288 31.0303C220.72 30.3903 221.312 29.8703 222.064 29.4703C222.832 29.0703 223.704 28.8703 224.68 28.8703C225.816 28.8703 226.84 29.1503 227.752 29.7103C228.68 30.2703 229.408 31.0703 229.936 32.1103C230.48 33.1343 230.752 34.3263 230.752 35.6863C230.752 37.0463 230.48 38.2543 229.936 39.3103C229.408 40.3503 228.68 41.1583 227.752 41.7343C226.84 42.3103 225.816 42.5983 224.68 42.5983C223.688 42.5983 222.816 42.4063 222.064 42.0223C221.328 41.6223 220.736 41.1103 220.288 40.4863V42.3823H216.928V24.6223H220.288V31.0303ZM227.32 35.6863C227.32 34.8863 227.152 34.1983 226.816 33.6223C226.496 33.0303 226.064 32.5823 225.52 32.2783C224.992 31.9743 224.416 31.8223 223.792 31.8223C223.184 31.8223 222.608 31.9823 222.064 32.3023C221.536 32.6063 221.104 33.0543 220.768 33.6463C220.448 34.2383 220.288 34.9343 220.288 35.7343C220.288 36.5343 220.448 37.2303 220.768 37.8223C221.104 38.4143 221.536 38.8703 222.064 39.1903C222.608 39.4943 223.184 39.6463 223.792 39.6463C224.416 39.6463 224.992 39.4863 225.52 39.1663C226.064 38.8463 226.496 38.3903 226.816 37.7983C227.152 37.2063 227.32 36.5023 227.32 35.6863ZM245.074 35.4463C245.074 35.9263 245.042 36.3583 244.978 36.7423H235.258C235.338 37.7023 235.674 38.4543 236.266 38.9983C236.858 39.5423 237.586 39.8143 238.45 39.8143C239.698 39.8143 240.586 39.2783 241.114 38.2063H244.738C244.354 39.4863 243.618 40.5423 242.53 41.3743C241.442 42.1903 240.106 42.5983 238.522 42.5983C237.242 42.5983 236.09 42.3183 235.066 41.7583C234.058 41.1823 233.266 40.3743 232.69 39.3343C232.13 38.2943 231.85 37.0943 231.85 35.7343C231.85 34.3583 232.13 33.1503 232.69 32.1103C233.25 31.0703 234.034 30.2703 235.042 29.7103C236.05 29.1503 237.21 28.8703 238.522 28.8703C239.786 28.8703 240.914 29.1423 241.906 29.6863C242.914 30.2303 243.69 31.0063 244.234 32.0143C244.794 33.0063 245.074 34.1503 245.074 35.4463ZM241.594 34.4863C241.578 33.6223 241.266 32.9343 240.658 32.4223C240.05 31.8943 239.306 31.6303 238.426 31.6303C237.594 31.6303 236.89 31.8863 236.314 32.3983C235.754 32.8943 235.41 33.5903 235.282 34.4863H241.594ZM256.197 31.8463V38.2783C256.197 38.7263 256.301 39.0543 256.509 39.2623C256.733 39.4543 257.101 39.5503 257.613 39.5503H259.173V42.3823H257.061C254.229 42.3823 252.813 41.0063 252.813 38.2543V31.8463H251.229V29.0863H252.813V25.7983H256.197V29.0863H259.173V31.8463H256.197ZM273.661 29.0863V42.3823H270.277V40.7023C269.845 41.2783 269.277 41.7343 268.573 42.0703C267.885 42.3903 267.133 42.5503 266.317 42.5503C265.277 42.5503 264.357 42.3343 263.557 41.9023C262.757 41.4543 262.125 40.8063 261.661 39.9583C261.213 39.0943 260.989 38.0703 260.989 36.8863V29.0863H264.349V36.4063C264.349 37.4623 264.613 38.2783 265.141 38.8543C265.669 39.4143 266.389 39.6943 267.301 39.6943C268.229 39.6943 268.957 39.4143 269.485 38.8543C270.013 38.2783 270.277 37.4623 270.277 36.4063V29.0863H273.661ZM170.024 59.8943C171.608 59.8943 172.888 60.3983 173.864 61.4063C174.84 62.3983 175.328 63.7903 175.328 65.5823V73.3823H171.968V66.0383C171.968 64.9823 171.704 64.1743 171.176 63.6143C170.648 63.0383 169.928 62.7503 169.016 62.7503C168.088 62.7503 167.352 63.0383 166.808 63.6143C166.28 64.1743 166.016 64.9823 166.016 66.0383V73.3823H162.656V60.0863H166.016V61.7423C166.464 61.1663 167.032 60.7183 167.72 60.3983C168.424 60.0623 169.192 59.8943 170.024 59.8943ZM183.947 73.5983C182.667 73.5983 181.515 73.3183 180.491 72.7583C179.467 72.1823 178.659 71.3743 178.067 70.3343C177.491 69.2943 177.203 68.0943 177.203 66.7343C177.203 65.3743 177.499 64.1743 178.091 63.1343C178.699 62.0943 179.523 61.2943 180.563 60.7343C181.603 60.1583 182.763 59.8703 184.043 59.8703C185.323 59.8703 186.483 60.1583 187.523 60.7343C188.563 61.2943 189.379 62.0943 189.971 63.1343C190.579 64.1743 190.883 65.3743 190.883 66.7343C190.883 68.0943 190.571 69.2943 189.947 70.3343C189.339 71.3743 188.507 72.1823 187.451 72.7583C186.411 73.3183 185.243 73.5983 183.947 73.5983ZM183.947 70.6703C184.555 70.6703 185.123 70.5263 185.651 70.2383C186.195 69.9343 186.627 69.4863 186.947 68.8943C187.267 68.3023 187.427 67.5823 187.427 66.7343C187.427 65.4703 187.091 64.5023 186.419 63.8303C185.763 63.1423 184.955 62.7983 183.995 62.7983C183.035 62.7983 182.227 63.1423 181.571 63.8303C180.931 64.5023 180.611 65.4703 180.611 66.7343C180.611 67.9983 180.923 68.9743 181.547 69.6623C182.187 70.3343 182.987 70.6703 183.947 70.6703ZM209.38 59.8943C211.012 59.8943 212.324 60.3983 213.316 61.4063C214.324 62.3983 214.828 63.7903 214.828 65.5823V73.3823H211.468V66.0383C211.468 64.9983 211.204 64.2063 210.676 63.6623C210.148 63.1023 209.428 62.8223 208.516 62.8223C207.604 62.8223 206.876 63.1023 206.332 63.6623C205.804 64.2063 205.54 64.9983 205.54 66.0383V73.3823H202.18V66.0383C202.18 64.9983 201.916 64.2063 201.388 63.6623C200.86 63.1023 200.14 62.8223 199.228 62.8223C198.3 62.8223 197.564 63.1023 197.02 63.6623C196.492 64.2063 196.228 64.9983 196.228 66.0383V73.3823H192.868V60.0863H196.228V61.6943C196.66 61.1343 197.212 60.6943 197.884 60.3743C198.572 60.0543 199.324 59.8943 200.14 59.8943C201.18 59.8943 202.108 60.1183 202.924 60.5663C203.74 60.9983 204.372 61.6223 204.82 62.4383C205.252 61.6703 205.876 61.0543 206.692 60.5903C207.524 60.1263 208.42 59.8943 209.38 59.8943ZM220.896 62.0303C221.328 61.3903 221.92 60.8703 222.672 60.4703C223.44 60.0703 224.312 59.8703 225.288 59.8703C226.424 59.8703 227.448 60.1503 228.36 60.7103C229.288 61.2703 230.016 62.0703 230.544 63.1103C231.088 64.1343 231.36 65.3263 231.36 66.6863C231.36 68.0463 231.088 69.2543 230.544 70.3103C230.016 71.3503 229.288 72.1583 228.36 72.7343C227.448 73.3103 226.424 73.5983 225.288 73.5983C224.296 73.5983 223.424 73.4063 222.672 73.0223C221.936 72.6223 221.344 72.1103 220.896 71.4863V73.3823H217.536V55.6223H220.896V62.0303ZM227.928 66.6863C227.928 65.8863 227.76 65.1983 227.424 64.6223C227.104 64.0303 226.672 63.5823 226.128 63.2783C225.6 62.9743 225.024 62.8223 224.4 62.8223C223.792 62.8223 223.216 62.9823 222.672 63.3023C222.144 63.6063 221.712 64.0543 221.376 64.6463C221.056 65.2383 220.896 65.9343 220.896 66.7343C220.896 67.5343 221.056 68.2303 221.376 68.8223C221.712 69.4143 222.144 69.8703 222.672 70.1903C223.216 70.4943 223.792 70.6463 224.4 70.6463C225.024 70.6463 225.6 70.4863 226.128 70.1663C226.672 69.8463 227.104 69.3903 227.424 68.7983C227.76 68.2063 227.928 67.5023 227.928 66.6863ZM236.682 62.1503C237.114 61.4463 237.674 60.8943 238.362 60.4943C239.066 60.0943 239.866 59.8943 240.762 59.8943V63.4223H239.874C238.818 63.4223 238.018 63.6703 237.474 64.1663C236.946 64.6623 236.682 65.5263 236.682 66.7583V73.3823H233.322V60.0863H236.682V62.1503ZM254.905 66.4463C254.905 66.9263 254.873 67.3583 254.809 67.7423H245.089C245.169 68.7023 245.505 69.4543 246.097 69.9983C246.689 70.5423 247.417 70.8143 248.281 70.8143C249.529 70.8143 250.417 70.2783 250.945 69.2063H254.569C254.185 70.4863 253.449 71.5423 252.361 72.3743C251.273 73.1903 249.937 73.5983 248.353 73.5983C247.073 73.5983 245.921 73.3183 244.897 72.7583C243.889 72.1823 243.097 71.3743 242.521 70.3343C241.961 69.2943 241.681 68.0943 241.681 66.7343C241.681 65.3583 241.961 64.1503 242.521 63.1103C243.081 62.0703 243.865 61.2703 244.873 60.7103C245.881 60.1503 247.041 59.8703 248.353 59.8703C249.617 59.8703 250.745 60.1423 251.737 60.6863C252.745 61.2303 253.521 62.0063 254.065 63.0143C254.625 64.0063 254.905 65.1503 254.905 66.4463ZM251.425 65.4863C251.409 64.6223 251.097 63.9343 250.489 63.4223C249.881 62.8943 249.137 62.6303 248.257 62.6303C247.425 62.6303 246.721 62.8863 246.145 63.3983C245.585 63.8943 245.241 64.5903 245.113 65.4863H251.425ZM161.792 97.7343C161.792 96.3583 162.072 95.1583 162.632 94.1343C163.192 93.0943 163.968 92.2943 164.96 91.7343C165.952 91.1583 167.088 90.8703 168.368 90.8703C170.016 90.8703 171.376 91.2863 172.448 92.1183C173.536 92.9343 174.264 94.0863 174.632 95.5743H171.008C170.816 94.9983 170.488 94.5503 170.024 94.2303C169.576 93.8943 169.016 93.7263 168.344 93.7263C167.384 93.7263 166.624 94.0783 166.064 94.7823C165.504 95.4703 165.224 96.4543 165.224 97.7343C165.224 98.9983 165.504 99.9823 166.064 100.686C166.624 101.374 167.384 101.718 168.344 101.718C169.704 101.718 170.592 101.11 171.008 99.8943H174.632C174.264 101.334 173.536 102.478 172.448 103.326C171.36 104.174 170 104.598 168.368 104.598C167.088 104.598 165.952 104.318 164.96 103.758C163.968 103.182 163.192 102.382 162.632 101.358C162.072 100.318 161.792 99.1103 161.792 97.7343ZM182.518 104.598C181.238 104.598 180.086 104.318 179.062 103.758C178.038 103.182 177.23 102.374 176.638 101.334C176.062 100.294 175.774 99.0943 175.774 97.7343C175.774 96.3743 176.07 95.1743 176.662 94.1343C177.27 93.0943 178.094 92.2943 179.134 91.7343C180.174 91.1583 181.334 90.8703 182.614 90.8703C183.894 90.8703 185.054 91.1583 186.094 91.7343C187.134 92.2943 187.95 93.0943 188.542 94.1343C189.15 95.1743 189.454 96.3743 189.454 97.7343C189.454 99.0943 189.142 100.294 188.518 101.334C187.91 102.374 187.078 103.182 186.022 103.758C184.982 104.318 183.814 104.598 182.518 104.598ZM182.518 101.67C183.126 101.67 183.694 101.526 184.222 101.238C184.766 100.934 185.198 100.486 185.518 99.8943C185.838 99.3023 185.998 98.5823 185.998 97.7343C185.998 96.4703 185.662 95.5023 184.99 94.8303C184.334 94.1423 183.526 93.7983 182.566 93.7983C181.606 93.7983 180.798 94.1423 180.142 94.8303C179.502 95.5023 179.182 96.4703 179.182 97.7343C179.182 98.9983 179.494 99.9743 180.118 100.662C180.758 101.334 181.558 101.67 182.518 101.67ZM207.95 90.8943C209.582 90.8943 210.894 91.3983 211.886 92.4063C212.894 93.3983 213.398 94.7903 213.398 96.5823V104.382H210.038V97.0383C210.038 95.9983 209.774 95.2063 209.246 94.6623C208.718 94.1023 207.998 93.8223 207.086 93.8223C206.174 93.8223 205.446 94.1023 204.902 94.6623C204.374 95.2063 204.11 95.9983 204.11 97.0383V104.382H200.75V97.0383C200.75 95.9983 200.486 95.2063 199.958 94.6623C199.43 94.1023 198.71 93.8223 197.798 93.8223C196.87 93.8223 196.134 94.1023 195.59 94.6623C195.062 95.2063 194.798 95.9983 194.798 97.0383V104.382H191.438V91.0863H194.798V92.6943C195.23 92.1343 195.782 91.6943 196.454 91.3743C197.142 91.0543 197.894 90.8943 198.71 90.8943C199.75 90.8943 200.678 91.1183 201.494 91.5663C202.31 91.9983 202.942 92.6223 203.39 93.4383C203.822 92.6703 204.446 92.0543 205.262 91.5903C206.094 91.1263 206.99 90.8943 207.95 90.8943ZM219.467 93.0063C219.899 92.3983 220.491 91.8943 221.243 91.4943C222.011 91.0783 222.883 90.8703 223.859 90.8703C224.995 90.8703 226.019 91.1503 226.931 91.7103C227.859 92.2703 228.587 93.0703 229.115 94.1103C229.659 95.1343 229.931 96.3263 229.931 97.6863C229.931 99.0463 229.659 100.254 229.115 101.31C228.587 102.35 227.859 103.158 226.931 103.734C226.019 104.31 224.995 104.598 223.859 104.598C222.883 104.598 222.019 104.398 221.267 103.998C220.531 103.598 219.931 103.094 219.467 102.486V110.718H216.107V91.0863H219.467V93.0063ZM226.499 97.6863C226.499 96.8863 226.331 96.1983 225.995 95.6223C225.675 95.0303 225.243 94.5823 224.699 94.2783C224.171 93.9743 223.595 93.8223 222.971 93.8223C222.363 93.8223 221.787 93.9823 221.243 94.3023C220.715 94.6063 220.283 95.0543 219.947 95.6463C219.627 96.2383 219.467 96.9343 219.467 97.7343C219.467 98.5343 219.627 99.2303 219.947 99.8223C220.283 100.414 220.715 100.87 221.243 101.19C221.787 101.494 222.363 101.646 222.971 101.646C223.595 101.646 224.171 101.486 224.699 101.166C225.243 100.846 225.675 100.39 225.995 99.7983C226.331 99.2063 226.499 98.5023 226.499 97.6863ZM235.252 86.6223V104.382H231.892V86.6223H235.252ZM250.452 97.4463C250.452 97.9263 250.42 98.3583 250.356 98.7423H240.636C240.716 99.7023 241.052 100.454 241.644 100.998C242.236 101.542 242.964 101.814 243.828 101.814C245.076 101.814 245.964 101.278 246.492 100.206H250.116C249.732 101.486 248.996 102.542 247.908 103.374C246.82 104.19 245.484 104.598 243.9 104.598C242.62 104.598 241.468 104.318 240.444 103.758C239.436 103.182 238.644 102.374 238.068 101.334C237.508 100.294 237.228 99.0943 237.228 97.7343C237.228 96.3583 237.508 95.1503 238.068 94.1103C238.628 93.0703 239.412 92.2703 240.42 91.7103C241.428 91.1503 242.588 90.8703 243.9 90.8703C245.164 90.8703 246.292 91.1423 247.284 91.6863C248.292 92.2303 249.068 93.0063 249.612 94.0143C250.172 95.0063 250.452 96.1503 250.452 97.4463ZM246.972 96.4863C246.956 95.6223 246.644 94.9343 246.036 94.4223C245.428 93.8943 244.684 93.6303 243.804 93.6303C242.972 93.6303 242.268 93.8863 241.692 94.3983C241.132 94.8943 240.788 95.5903 240.66 96.4863H246.972ZM256.336 93.8463V100.278C256.336 100.726 256.44 101.054 256.648 101.262C256.872 101.454 257.24 101.55 257.752 101.55H259.312V104.382H257.2C254.368 104.382 252.952 103.006 252.952 100.254V93.8463H251.368V91.0863H252.952V87.7983H256.336V91.0863H259.312V93.8463H256.336ZM267.153 104.598C265.873 104.598 264.721 104.318 263.697 103.758C262.673 103.182 261.865 102.374 261.273 101.334C260.697 100.294 260.409 99.0943 260.409 97.7343C260.409 96.3743 260.705 95.1743 261.297 94.1343C261.905 93.0943 262.729 92.2943 263.769 91.7343C264.809 91.1583 265.969 90.8703 267.249 90.8703C268.529 90.8703 269.689 91.1583 270.729 91.7343C271.769 92.2943 272.585 93.0943 273.177 94.1343C273.785 95.1743 274.089 96.3743 274.089 97.7343C274.089 99.0943 273.777 100.294 273.153 101.334C272.545 102.374 271.713 103.182 270.657 103.758C269.617 104.318 268.449 104.598 267.153 104.598ZM267.153 101.67C267.761 101.67 268.329 101.526 268.857 101.238C269.401 100.934 269.833 100.486 270.153 99.8943C270.473 99.3023 270.633 98.5823 270.633 97.7343C270.633 96.4703 270.297 95.5023 269.625 94.8303C268.969 94.1423 268.161 93.7983 267.201 93.7983C266.241 93.7983 265.433 94.1423 264.777 94.8303C264.137 95.5023 263.817 96.4703 263.817 97.7343C263.817 98.9983 264.129 99.9743 264.753 100.662C265.393 101.334 266.193 101.67 267.153 101.67Z" fill="#8F3B06"/>
<defs>
<filter id="filter0_d_2419_3076" x="12.881" y="0" width="106.238" height="257.697" filterUnits="userSpaceOnUse" color-interpolation-filters="sRGB">
<feFlood flood-opacity="0" result="BackgroundImageFix"/>
<feColorMatrix in="SourceAlpha" type="matrix" values="0 0 0 0 0 0 0 0 0 0 0 0 0 0 0 0 0 0 127 0" result="hardAlpha"/>
<feOffset dy="3.11898"/>
<feGaussianBlur stdDeviation="1.55949"/>
<feComposite in2="hardAlpha" operator="out"/>
<feColorMatrix type="matrix" values="0 0 0 0 0 0 0 0 0 0 0 0 0 0 0 0 0 0 0.25 0"/>
<feBlend mode="normal" in2="BackgroundImageFix" result="effect1_dropShadow_2419_3076"/>
<feBlend mode="normal" in="SourceGraphic" in2="effect1_dropShadow_2419_3076" result="shape"/>
</filter>
<clipPath id="clip0_2419_3076">
<rect width="100" height="104" fill="white" transform="matrix(-1 0 0 1 116 0)"/>
</clipPath>
</defs>
</svg>
