<svg width="360" height="125" viewBox="0 0 360 125" fill="none" xmlns="http://www.w3.org/2000/svg">
<g clip-path="url(#clip0_2434_960)">
<g filter="url(#filter0_d_2434_960)">
<path fill-rule="evenodd" clip-rule="evenodd" d="M29.2634 97.2479C33.7361 86.083 37.9781 72.7191 44.6634 68.545C48.5999 66.0881 62.2285 64.4184 62.2285 64.4184H70.665C70.665 64.4184 85.1827 62.7963 89.4653 66.8143C92.9268 70.0654 104.75 94.1326 104.75 94.1326C104.75 94.1326 96.9244 102.372 89.4653 102.372C89.6825 112.363 89.7233 121.397 89.7233 121.397C89.7233 121.397 90.0151 122.734 90.4902 125.191C78.1308 126.222 61.2783 126.263 46.8692 122.625C47.1746 119.041 47.3647 116.883 47.385 116.659L52.2446 84.3319C52.2446 84.3319 49.1768 95.7343 46.9778 102.936C43.5435 102.936 31.9511 100.187 29.2634 97.2411V97.2479Z" fill="#F1D054"/>
<path fill-rule="evenodd" clip-rule="evenodd" d="M66.8577 70.1128H67.0138C69.6608 70.1128 71.8055 67.968 71.8055 65.321V50.2739H62.0592V65.321C62.0592 67.968 64.2039 70.1128 66.8509 70.1128H66.8577Z" fill="#EDBA8C"/>
<path opacity="0.25" fill-rule="evenodd" clip-rule="evenodd" d="M71.8119 63.9029C68.5676 64.2491 65.2691 64.0998 62.0656 63.455V56.376C65.2894 56.8986 68.5473 57.1633 71.8119 57.1769V63.9029Z" fill="#561C2F" stroke="#EDBA8C" stroke-width="0.347756" stroke-miterlimit="22.93"/>
<path fill-rule="evenodd" clip-rule="evenodd" d="M84.7958 10.2773C84.7958 10.2773 84.2393 5.4924 82.1352 3.3816C80.0244 1.27759 66.4637 -1.34904 59.6155 0.802487C57.464 3.06939 56.0862 7.54212 56.0862 7.54212L84.7958 10.2773Z" fill="#F1D054"/>
<path fill-rule="evenodd" clip-rule="evenodd" d="M31.1841 18.8971C30.39 27.6661 47.0389 36.3333 68.3709 38.2676C89.7029 40.2019 107.635 34.6568 108.429 25.8946C109.223 17.1256 92.5738 8.45846 71.2418 6.52412C49.9098 4.58978 31.9782 10.1349 31.1841 18.8971Z" fill="#F1D054"/>
<mask id="mask0_2434_960" style="mask-type:luminance" maskUnits="userSpaceOnUse" x="31" y="6" width="78" height="33">
<path d="M31.1841 18.8971C30.39 27.6661 47.0389 36.3333 68.3709 38.2676C89.7029 40.2019 107.635 34.6568 108.429 25.8946C109.223 17.1256 92.5738 8.45846 71.2418 6.52412C49.9098 4.58978 31.9782 10.1349 31.1841 18.8971Z" fill="white"/>
</mask>
<g mask="url(#mask0_2434_960)">
<path opacity="0.3" fill-rule="evenodd" clip-rule="evenodd" d="M31.1841 18.8971C30.39 27.6661 47.0389 36.3333 68.3709 38.2676C89.7029 40.2019 107.635 34.6568 108.429 25.8946C109.223 17.1256 92.5738 8.45846 71.2418 6.52412C49.9098 4.58978 31.9782 10.1349 31.1841 18.8971Z" fill="#CB2E45"/>
</g>
<path fill-rule="evenodd" clip-rule="evenodd" d="M44.0458 33.5232C45.539 36.5638 48.3149 38.2538 50.2493 37.3036C52.1836 36.3534 52.5365 33.1227 51.0434 30.0821C49.5502 27.0414 46.7743 25.3514 44.8399 26.3016C42.9056 27.2518 42.5526 30.4825 44.0458 33.5232Z" fill="#EDBA8C"/>
<path fill-rule="evenodd" clip-rule="evenodd" d="M49.5434 40.1137L51.4166 22.4739C52.2854 14.2886 59.6291 8.35665 67.8144 9.23219L74.9001 9.98556C83.0854 10.8543 89.0174 18.198 88.1419 26.3833L86.2686 44.0231C85.3999 52.2084 78.0562 58.1404 69.8709 57.2648L62.7851 56.5115C54.5998 55.6427 48.6678 48.299 49.5434 40.1137Z" fill="#EDBA8C"/>
<path fill-rule="evenodd" clip-rule="evenodd" d="M92.5332 38.403C90.5106 41.1179 87.4768 42.2785 85.746 40.9957C84.0153 39.7129 84.2529 36.4687 86.2754 33.7538C88.298 31.039 91.3319 29.8784 93.0626 31.1611C94.7865 32.4439 94.5558 35.6881 92.5332 38.403Z" fill="#EDBA8C"/>
<path fill-rule="evenodd" clip-rule="evenodd" d="M92.3909 33.4758C89.7303 33.8084 88.7598 36.5911 88.0743 38.7969C87.9589 39.1702 87.3684 39.0141 87.4838 38.634C88.2711 36.1092 89.4113 33.2383 92.3909 32.865C92.7778 32.8175 92.7778 33.4215 92.3909 33.4758Z" fill="#561C2F"/>
<path fill-rule="evenodd" clip-rule="evenodd" d="M90.9247 36.7607C90.3342 36.3603 89.703 36.1024 89.0039 35.9734C88.617 35.8987 88.7799 35.315 89.1668 35.3829C89.9134 35.5187 90.6057 35.8105 91.2301 36.2313C91.5491 36.4485 91.2505 36.9779 90.9247 36.7539V36.7607Z" fill="#561C2F"/>
<path fill-rule="evenodd" clip-rule="evenodd" d="M48.8986 35.9735C49.0343 33.1636 47.9755 30.5913 45.9054 28.6909C45.6136 28.4262 46.048 27.9918 46.333 28.2633C48.5117 30.2723 49.6384 33.0211 49.5026 35.9803C49.4823 36.3739 48.8782 36.3739 48.8918 35.9803L48.8986 35.9735Z" fill="#561C2F"/>
<path fill-rule="evenodd" clip-rule="evenodd" d="M48.1725 31.9895C47.2901 32.0981 46.53 32.546 45.9734 33.2248C45.7223 33.5302 45.2947 33.0958 45.5458 32.7972C46.211 31.9827 47.134 31.5076 48.1725 31.3854C48.5593 31.3379 48.5593 31.9488 48.1725 31.9963V31.9895Z" fill="#561C2F"/>
<path fill-rule="evenodd" clip-rule="evenodd" d="M88.1827 24.3266C86.3434 31.202 85.0674 40.3579 85.0674 40.3579C85.0674 40.3579 82.434 39.7131 80.2485 38.5321C78.0631 37.3512 71.4863 33.2042 62.5001 35.22C54.1384 37.0933 52.5773 37.0593 52.5773 37.0593C52.5773 37.0593 51.2538 25.1682 51.7086 19.9761C49.1362 30.3943 37.2519 59.1447 65.9209 61.7985C93.9043 63.8482 88.2777 39.4009 88.1895 24.3334L88.1827 24.3266Z" fill="#CB2E45"/>
<mask id="mask1_2434_960" style="mask-type:luminance" maskUnits="userSpaceOnUse" x="47" y="19" width="42" height="43">
<path d="M88.1827 24.3266C86.3434 31.202 85.0674 40.3579 85.0674 40.3579C85.0674 40.3579 82.434 39.7131 80.2485 38.5321C78.0631 37.3512 71.4863 33.2042 62.5001 35.22C54.1384 37.0933 52.5773 37.0593 52.5773 37.0593C52.5773 37.0593 51.2538 25.1682 51.7086 19.9761C49.1362 30.3943 37.2519 59.1447 65.9209 61.7985C93.9043 63.8482 88.2777 39.4009 88.1895 24.3334L88.1827 24.3266Z" fill="white"/>
</mask>
<g mask="url(#mask1_2434_960)">
<path opacity="0.3" fill-rule="evenodd" clip-rule="evenodd" d="M88.1827 24.3266C86.3434 31.202 85.0674 40.3579 85.0674 40.3579C85.0674 40.3579 82.434 39.7131 80.2485 38.5321C78.0631 37.3512 71.4863 33.2042 62.5001 35.22C54.1384 37.0933 52.5773 37.0593 52.5773 37.0593C52.5773 37.0593 51.2538 25.1682 51.7086 19.9761C49.1362 30.3943 37.2519 59.1447 65.9209 61.7985C93.9043 63.8482 88.2777 39.4009 88.1895 24.3334L88.1827 24.3266Z" fill="#561C2F"/>
</g>
<path fill-rule="evenodd" clip-rule="evenodd" d="M46.8693 122.618C46.9507 122.632 47.039 122.645 47.1272 122.659L47.1476 121.824C58.5703 93.7254 50.9484 66.4207 50.9484 66.4207L56.3374 65.1583C56.3374 65.1583 60.1925 75.5766 59.473 88.316C59.473 88.316 73.8278 87.9631 82.5289 88.6554C82.3728 76.6693 80.4589 64.0859 80.4589 64.0859L86.1058 64.9275C86.1058 64.9275 91.1758 97.4923 89.4654 102.365L89.7233 121.39L90.2391 123.955H90.2527C90.3749 124.58 90.5242 125.326 90.6803 126.168V126.182C93.5988 141.609 101.757 191.963 94.834 241.244C83.4045 242.079 81.8299 241.224 81.8299 241.224C81.8299 241.224 79.2983 178.68 72.07 145.579L50.1339 239.839L36.9804 238.556C36.9804 238.556 44.7721 147.106 46.8693 122.611V122.618Z" fill="#561C2F"/>
<mask id="mask2_2434_960" style="mask-type:luminance" maskUnits="userSpaceOnUse" x="36" y="64" width="62" height="178">
<path d="M46.8693 122.618C46.9507 122.632 47.039 122.645 47.1272 122.659L47.1476 121.824C58.5703 93.7254 50.9484 66.4207 50.9484 66.4207L56.3374 65.1583C56.3374 65.1583 60.1925 75.5766 59.473 88.316C59.473 88.316 73.8278 87.9631 82.5289 88.6554C82.3728 76.6693 80.4589 64.0859 80.4589 64.0859L86.1058 64.9275C86.1058 64.9275 91.1758 97.4923 89.4654 102.365L89.7233 121.39L90.2391 123.955H90.2527C90.3749 124.58 90.5242 125.326 90.6803 126.168V126.182C93.5988 141.609 101.757 191.963 94.834 241.244C83.4045 242.079 81.8299 241.224 81.8299 241.224C81.8299 241.224 79.2983 178.68 72.07 145.579L50.1339 239.839L36.9804 238.556C36.9804 238.556 44.7721 147.106 46.8693 122.611V122.618Z" fill="white"/>
</mask>
<g mask="url(#mask2_2434_960)">
<path opacity="0.3" fill-rule="evenodd" clip-rule="evenodd" d="M46.8693 122.618C46.9507 122.632 47.039 122.645 47.1272 122.659L47.1476 121.824C58.5703 93.7254 50.9484 66.4207 50.9484 66.4207L56.3374 65.1583C56.3374 65.1583 60.1925 75.5766 59.473 88.316C59.473 88.316 73.8278 87.9631 82.5289 88.6554C82.3728 76.6693 80.4589 64.0859 80.4589 64.0859L86.1058 64.9275C86.1058 64.9275 91.1758 97.4923 89.4654 102.365L89.7233 121.39L90.2391 123.955H90.2527C90.3749 124.58 90.5242 125.326 90.6803 126.168V126.182C93.5988 141.609 101.757 191.963 94.834 241.244C83.4045 242.079 81.8299 241.224 81.8299 241.224C81.8299 241.224 79.2983 178.68 72.07 145.579L50.1339 239.839L36.9804 238.556C36.9804 238.556 44.7721 147.106 46.8693 122.611V122.618Z" fill="#561C2F"/>
</g>
<path fill-rule="evenodd" clip-rule="evenodd" d="M69.1853 34.5006C68.9952 32.417 68.9613 30.313 69.0835 28.2225C69.1445 27.1977 69.2396 26.1728 69.3753 25.1547C69.4703 24.4081 69.4703 23.4036 69.7757 22.7046C70.1898 21.7544 71.6219 21.6526 71.9069 22.7181C72.1377 23.5665 71.8051 24.5167 71.7169 25.3651C71.5743 26.8447 71.3707 28.3175 71.3029 29.7971C71.2689 30.5166 71.2689 31.2292 71.3164 31.9487C71.3436 32.3898 71.1943 33.245 71.5268 33.5844C71.7101 33.7676 72.0223 33.8219 72.2395 33.6794C72.4092 33.5708 72.4906 33.3672 72.6331 33.2246C72.8775 32.9667 73.2915 32.9057 73.6241 33.0346C74.3503 33.3265 74.262 33.9305 74.1195 34.5617C73.9091 35.4712 73.4612 36.3264 72.8028 36.9983C72.4567 37.3512 72.0359 37.6567 71.5472 37.7177C70.8074 37.8128 70.088 37.3037 69.7214 36.6589C69.3482 36.0074 69.2599 35.2472 69.1921 34.5006H69.1853Z" fill="#F1D054"/>
<path fill-rule="evenodd" clip-rule="evenodd" d="M75.8911 31.4802C75.7214 32.8037 76.2983 33.9711 77.1739 34.0797C78.0494 34.1882 78.8978 33.2041 79.0607 31.8806C79.2304 30.5571 78.6535 29.3897 77.7779 29.2811C76.9024 29.1725 76.054 30.1567 75.8911 31.4802Z" fill="#561C2F"/>
<path fill-rule="evenodd" clip-rule="evenodd" d="M65.8935 30.4961C65.9343 31.8332 65.2488 32.9395 64.3664 32.9599C63.4841 32.987 62.7375 31.9214 62.6968 30.5844C62.6561 29.2473 63.3416 28.141 64.2239 28.1206C65.1062 28.0935 65.8528 29.1591 65.8935 30.4961Z" fill="#561C2F"/>
<path fill-rule="evenodd" clip-rule="evenodd" d="M81.7824 27.0281C80.9951 25.0598 79.0743 24.0621 77.011 24.3133C76.2034 24.4083 76.2101 23.1459 77.011 23.0509C79.6852 22.7319 82.0199 24.2318 83.0041 26.6956C83.3095 27.4557 82.081 27.7815 81.7824 27.0349V27.0281Z" fill="#561C2F"/>
<path fill-rule="evenodd" clip-rule="evenodd" d="M65.9685 22.9898C64.1292 22.2771 62.1813 22.8269 60.9596 24.3744C60.4574 25.0124 59.5683 24.1165 60.0637 23.4785C61.5297 21.612 64.0953 20.9197 66.3011 21.7681C67.0545 22.0599 66.7287 23.2816 65.9617 22.9898H65.9685Z" fill="#561C2F"/>
<path fill-rule="evenodd" clip-rule="evenodd" d="M31.6797 99.372L45.349 104.673C45.0164 106.18 44.6838 107.686 44.3513 109.193C53.6497 109.539 62.9413 109.96 72.2329 110.422C72.993 112.973 73.6242 115.566 73.9772 118.206C60.5658 123.507 45.1522 123.541 31.7204 118.288C31.2317 118.098 30.7227 117.881 30.3833 117.48C29.9422 116.958 29.8607 116.225 29.82 115.546C29.4806 110.096 30.1186 104.591 31.6932 99.3652L31.6797 99.372Z" fill="#EDBA8C"/>
<mask id="mask3_2434_960" style="mask-type:luminance" maskUnits="userSpaceOnUse" x="29" y="99" width="45" height="24">
<path d="M31.6797 99.372L45.349 104.673C45.0164 106.18 44.6838 107.686 44.3513 109.193C53.6497 109.539 62.9413 109.96 72.2329 110.422C72.993 112.973 73.6242 115.566 73.9772 118.206C60.5658 123.507 45.1522 123.541 31.7204 118.288C31.2317 118.098 30.7227 117.881 30.3833 117.48C29.9422 116.958 29.8607 116.225 29.82 115.546C29.4806 110.096 30.1186 104.591 31.6932 99.3652L31.6797 99.372Z" fill="white"/>
</mask>
<g mask="url(#mask3_2434_960)">
<path opacity="0.2" fill-rule="evenodd" clip-rule="evenodd" d="M31.6797 99.372L45.349 104.673C45.0164 106.18 44.6838 107.686 44.3513 109.193C53.6497 109.539 62.9413 109.96 72.2329 110.422C72.993 112.973 73.6242 115.566 73.9772 118.206C60.5658 123.507 45.1522 123.541 31.7204 118.288C31.2317 118.098 30.7227 117.881 30.3833 117.48C29.9422 116.958 29.8607 116.225 29.82 115.546C29.4806 110.096 30.1186 104.591 31.6932 99.3652L31.6797 99.372Z" fill="#CB2E45"/>
</g>
<path fill-rule="evenodd" clip-rule="evenodd" d="M72.4431 40.1134C69.8572 42.0071 66.4161 40.3374 66.1378 37.195C66.1039 36.7877 66.7351 36.7945 66.769 37.195C67.0066 39.9098 69.9657 41.1451 72.1241 39.5637C72.4566 39.3193 72.7688 39.8691 72.4431 40.1134Z" fill="#EDBA8C"/>
<path opacity="0.16" fill-rule="evenodd" clip-rule="evenodd" d="M88.2575 27.9511C87.8096 27.8358 87.3684 27.7204 86.9273 27.605C80.8799 26.044 74.6765 24.9105 68.4594 24.32C64.1632 23.9128 59.8805 23.8042 55.6046 23.9399C53.9214 23.9196 52.2517 23.9196 50.6092 23.9399C50.6092 23.9399 52.2449 17.465 53.6635 15.456C65.093 14.8452 77.113 16.2297 87.606 20.5124C88.1625 22.3585 88.3661 24.3404 88.1489 26.3765L88.2575 27.9444V27.9511Z" fill="#561C2F"/>
<path fill-rule="evenodd" clip-rule="evenodd" d="M49.489 13.2092L57.6132 9.01474C60.7353 8.96044 63.8642 8.94687 66.9863 8.99438C71.0518 9.05546 75.0562 9.19799 79.0878 9.67309L79.7054 9.91064L85.6781 13.216L93.5648 18.1706C93.5648 18.1706 96.0353 19.942 96.0353 21.2316L96.8769 26.0641C96.8769 26.0641 74.106 14.1798 45.6407 19.7724C29.2701 20.4511 49.5026 13.2092 49.5026 13.2092H49.489Z" fill="#F1D054"/>
<mask id="mask4_2434_960" style="mask-type:luminance" maskUnits="userSpaceOnUse" x="39" y="8" width="58" height="19">
<path d="M49.489 13.2092L57.6132 9.01474C60.7353 8.96044 63.8642 8.94687 66.9863 8.99438C71.0518 9.05546 75.0562 9.19799 79.0878 9.67309L79.7054 9.91064L85.6781 13.216L93.5648 18.1706C93.5648 18.1706 96.0353 19.942 96.0353 21.2316L96.8769 26.0641C96.8769 26.0641 74.106 14.1798 45.6407 19.7724C29.2701 20.4511 49.5026 13.2092 49.5026 13.2092H49.489Z" fill="white"/>
</mask>
<g mask="url(#mask4_2434_960)">
<path opacity="0.3" fill-rule="evenodd" clip-rule="evenodd" d="M49.489 13.2092L57.6132 9.01474C60.7353 8.96044 63.8642 8.94687 66.9863 8.99438C71.0518 9.05546 75.0562 9.19799 79.0878 9.67309L79.7054 9.91064L85.6781 13.216L93.5648 18.1706C93.5648 18.1706 96.0353 19.942 96.0353 21.2316L96.8769 26.0641C96.8769 26.0641 74.106 14.1798 45.6407 19.7724C29.2701 20.4511 49.5026 13.2092 49.5026 13.2092H49.489Z" fill="#CB2E45"/>
</g>
<path fill-rule="evenodd" clip-rule="evenodd" d="M104.03 96.9965C106.338 102.738 107.661 108.881 107.926 115.064C107.953 115.654 107.96 116.292 107.641 116.795C107.37 117.229 106.901 117.494 106.447 117.724C99.4083 121.308 91.0465 120.568 83.1938 119.733C82.2029 119.625 71.0312 118.145 71.0652 117.697C71.2484 115.193 71.6421 112.709 72.2326 110.265C76.3863 109.166 80.635 109.078 84.911 108.704C87.3543 108.494 89.8181 108.161 92.2546 107.971C92.18 106.288 92.0985 104.605 92.0239 102.922L104.03 96.9897V96.9965Z" fill="#EDBA8C"/>
<path opacity="0.15" fill-rule="evenodd" clip-rule="evenodd" d="M31.6797 99.3721L45.3491 104.673C45.0776 105.915 44.7993 107.157 44.521 108.399C43.6591 108.474 42.7971 108.508 41.9351 108.514C37.9443 108.548 33.9467 108.223 30.0033 107.571C30.3155 104.795 30.8653 102.046 31.673 99.3721H31.6797Z" fill="#561C2F"/>
<path opacity="0.15" fill-rule="evenodd" clip-rule="evenodd" d="M92.1668 106.119C92.1193 105.053 92.0718 103.987 92.0175 102.929L104.024 96.9966C104.838 99.0192 105.524 101.089 106.087 103.2C101.703 105.399 96.8974 106.661 92.1668 106.125V106.119Z" fill="#561C2F"/>
<path fill-rule="evenodd" clip-rule="evenodd" d="M47.2764 97.8315C43.6793 96.7863 35.2157 94.2683 31.5506 92.7548C30.5733 92.3475 29.4602 92.843 29.0869 93.8271C28.51 95.3475 28.1503 96.6506 27.9399 97.5533C27.7498 98.3474 28.096 99.1686 28.8018 99.5894C31.4963 101.191 38.6432 104.944 45.9869 104.578C46.8013 104.537 47.514 103.994 47.738 103.207C48.1181 101.863 48.3895 100.825 48.566 100.051C48.7968 99.0804 48.2266 98.1098 47.2697 97.8315H47.2764Z" fill="#F1D054"/>
<path fill-rule="evenodd" clip-rule="evenodd" d="M104.533 91.2274L106.08 94.3359C106.487 95.1504 106.352 96.1277 105.727 96.7929C103.766 98.8765 98.9265 103.078 91.2977 103.668C90.2457 103.75 89.2888 103.057 89.0173 102.039C88.5693 100.349 88.2435 99.148 88.0128 98.2996C87.7073 97.1933 88.3046 96.0463 89.3906 95.6662C92.4244 94.6006 98.2681 92.422 101.404 90.3722C102.49 89.6596 103.956 90.0668 104.533 91.2342V91.2274Z" fill="#F1D054"/>
<path opacity="0.3" fill-rule="evenodd" clip-rule="evenodd" d="M47.2764 97.8315C43.6793 96.7863 35.2157 94.2683 31.5506 92.7548C30.5733 92.3475 29.4602 92.843 29.0869 93.8271C28.51 95.3475 28.1503 96.6506 27.9399 97.5533C27.7498 98.3474 28.096 99.1686 28.8018 99.5894C31.4963 101.191 38.6432 104.944 45.9869 104.578C46.8013 104.537 47.514 103.994 47.738 103.207C48.1181 101.863 48.3895 100.825 48.566 100.051C48.7968 99.0804 48.2266 98.1098 47.2697 97.8315H47.2764Z" fill="#CB2E45"/>
<path opacity="0.3" fill-rule="evenodd" clip-rule="evenodd" d="M104.533 91.2274L106.08 94.3359C106.487 95.1504 106.352 96.1277 105.727 96.7929C103.766 98.8765 98.9265 103.078 91.2977 103.668C90.2457 103.75 89.2888 103.057 89.0173 102.039C88.5693 100.349 88.2435 99.148 88.0128 98.2996C87.7073 97.1933 88.3046 96.0463 89.3906 95.6662C92.4244 94.6006 98.2681 92.422 101.404 90.3722C102.49 89.6596 103.956 90.0668 104.533 91.2342V91.2274Z" fill="#CB2E45"/>
<path opacity="0.3" fill-rule="evenodd" clip-rule="evenodd" d="M69.1853 34.5006C68.9952 32.417 68.9613 30.313 69.0835 28.2225C69.1445 27.1977 69.2396 26.1728 69.3753 25.1547C69.4703 24.4081 69.4703 23.4036 69.7757 22.7046C70.1898 21.7544 71.6219 21.6526 71.9069 22.7181C72.1377 23.5665 71.8051 24.5167 71.7169 25.3651C71.5743 26.8447 71.3707 28.3175 71.3029 29.7971C71.2689 30.5166 71.2689 31.2292 71.3164 31.9487C71.3436 32.3898 71.1943 33.245 71.5268 33.5844C71.7101 33.7676 72.0223 33.8219 72.2395 33.6794C72.4092 33.5708 72.4906 33.3672 72.6331 33.2246C72.8775 32.9667 73.2915 32.9057 73.6241 33.0346C74.3503 33.3265 74.262 33.9305 74.1195 34.5617C73.9091 35.4712 73.4612 36.3264 72.8028 36.9983C72.4567 37.3512 72.0359 37.6567 71.5472 37.7177C70.8074 37.8128 70.088 37.3037 69.7214 36.6589C69.3482 36.0074 69.2599 35.2472 69.1921 34.5006H69.1853Z" fill="#CB2E45"/>
</g>
</g>
<path d="M168.304 18.855C152.749 19.3609 136.962 31.3507 121.6 44.4094L151.939 64.2101C151.626 41.484 156.408 33.5332 168.304 18.855Z" fill="white"/>
<rect x="144.099" width="199.901" height="125" rx="16" fill="white"/>
<path d="M168.511 25.6303C170.271 25.6303 171.815 25.9743 173.143 26.6623C174.487 27.3503 175.519 28.3343 176.239 29.6143C176.975 30.8783 177.343 32.3503 177.343 34.0303C177.343 35.7103 176.975 37.1823 176.239 38.4463C175.519 39.6943 174.487 40.6623 173.143 41.3503C171.815 42.0383 170.271 42.3823 168.511 42.3823H162.655V25.6303H168.511ZM168.391 39.5263C170.151 39.5263 171.511 39.0463 172.471 38.0863C173.431 37.1263 173.911 35.7743 173.911 34.0303C173.911 32.2863 173.431 30.9263 172.471 29.9503C171.511 28.9583 170.151 28.4623 168.391 28.4623H166.015V39.5263H168.391ZM178.514 35.6863C178.514 34.3423 178.778 33.1503 179.306 32.1103C179.85 31.0703 180.578 30.2703 181.49 29.7103C182.418 29.1503 183.45 28.8703 184.586 28.8703C185.578 28.8703 186.442 29.0703 187.178 29.4703C187.93 29.8703 188.53 30.3743 188.978 30.9823V29.0863H192.362V42.3823H188.978V40.4383C188.546 41.0623 187.946 41.5823 187.178 41.9983C186.426 42.3983 185.554 42.5983 184.562 42.5983C183.442 42.5983 182.418 42.3103 181.49 41.7343C180.578 41.1583 179.85 40.3503 179.306 39.3103C178.778 38.2543 178.514 37.0463 178.514 35.6863ZM188.978 35.7343C188.978 34.9183 188.818 34.2223 188.498 33.6463C188.178 33.0543 187.746 32.6063 187.202 32.3023C186.658 31.9823 186.074 31.8223 185.45 31.8223C184.826 31.8223 184.25 31.9743 183.722 32.2783C183.194 32.5823 182.762 33.0303 182.426 33.6223C182.106 34.1983 181.946 34.8863 181.946 35.6863C181.946 36.4863 182.106 37.1903 182.426 37.7983C182.762 38.3903 183.194 38.8463 183.722 39.1663C184.266 39.4863 184.842 39.6463 185.45 39.6463C186.074 39.6463 186.658 39.4943 187.202 39.1903C187.746 38.8703 188.178 38.4223 188.498 37.8463C188.818 37.2543 188.978 36.5503 188.978 35.7343ZM198.524 24.6223V42.3823H195.164V24.6223H198.524ZM213.724 35.4463C213.724 35.9263 213.692 36.3583 213.628 36.7423H203.908C203.988 37.7023 204.324 38.4543 204.916 38.9983C205.508 39.5423 206.236 39.8143 207.1 39.8143C208.348 39.8143 209.236 39.2783 209.764 38.2063H213.388C213.004 39.4863 212.268 40.5423 211.18 41.3743C210.092 42.1903 208.756 42.5983 207.172 42.5983C205.892 42.5983 204.74 42.3183 203.716 41.7583C202.708 41.1823 201.916 40.3743 201.34 39.3343C200.78 38.2943 200.5 37.0943 200.5 35.7343C200.5 34.3583 200.78 33.1503 201.34 32.1103C201.9 31.0703 202.684 30.2703 203.692 29.7103C204.7 29.1503 205.86 28.8703 207.172 28.8703C208.436 28.8703 209.564 29.1423 210.556 29.6863C211.564 30.2303 212.34 31.0063 212.884 32.0143C213.444 33.0063 213.724 34.1503 213.724 35.4463ZM210.244 34.4863C210.228 33.6223 209.916 32.9343 209.308 32.4223C208.7 31.8943 207.956 31.6303 207.076 31.6303C206.244 31.6303 205.54 31.8863 204.964 32.3983C204.404 32.8943 204.06 33.5903 203.932 34.4863H210.244ZM233.487 29.0863V42.3823H230.103V40.7023C229.671 41.2783 229.103 41.7343 228.399 42.0703C227.711 42.3903 226.959 42.5503 226.143 42.5503C225.103 42.5503 224.183 42.3343 223.383 41.9023C222.583 41.4543 221.951 40.8063 221.487 39.9583C221.039 39.0943 220.815 38.0703 220.815 36.8863V29.0863H224.175V36.4063C224.175 37.4623 224.439 38.2783 224.967 38.8543C225.495 39.4143 226.215 39.6943 227.127 39.6943C228.055 39.6943 228.783 39.4143 229.311 38.8543C229.839 38.2783 230.103 37.4623 230.103 36.4063V29.0863H233.487ZM243.69 28.8943C245.274 28.8943 246.554 29.3983 247.53 30.4063C248.506 31.3983 248.994 32.7903 248.994 34.5823V42.3823H245.634V35.0383C245.634 33.9823 245.37 33.1743 244.842 32.6143C244.314 32.0383 243.594 31.7503 242.682 31.7503C241.754 31.7503 241.018 32.0383 240.474 32.6143C239.946 33.1743 239.682 33.9823 239.682 35.0383V42.3823H236.322V29.0863H239.682V30.7423C240.13 30.1663 240.698 29.7183 241.386 29.3983C242.09 29.0623 242.858 28.8943 243.69 28.8943ZM170.023 59.8943C171.607 59.8943 172.887 60.3983 173.863 61.4063C174.839 62.3983 175.327 63.7903 175.327 65.5823V73.3823H171.967V66.0383C171.967 64.9823 171.703 64.1743 171.175 63.6143C170.647 63.0383 169.927 62.7503 169.015 62.7503C168.087 62.7503 167.351 63.0383 166.807 63.6143C166.279 64.1743 166.015 64.9823 166.015 66.0383V73.3823H162.655V60.0863H166.015V61.7423C166.463 61.1663 167.031 60.7183 167.719 60.3983C168.423 60.0623 169.191 59.8943 170.023 59.8943ZM183.946 73.5983C182.666 73.5983 181.514 73.3183 180.49 72.7583C179.466 72.1823 178.658 71.3743 178.066 70.3343C177.49 69.2943 177.202 68.0943 177.202 66.7343C177.202 65.3743 177.498 64.1743 178.09 63.1343C178.698 62.0943 179.522 61.2943 180.562 60.7343C181.602 60.1583 182.762 59.8703 184.042 59.8703C185.322 59.8703 186.482 60.1583 187.522 60.7343C188.562 61.2943 189.378 62.0943 189.97 63.1343C190.578 64.1743 190.882 65.3743 190.882 66.7343C190.882 68.0943 190.57 69.2943 189.946 70.3343C189.338 71.3743 188.506 72.1823 187.45 72.7583C186.41 73.3183 185.242 73.5983 183.946 73.5983ZM183.946 70.6703C184.554 70.6703 185.122 70.5263 185.65 70.2383C186.194 69.9343 186.626 69.4863 186.946 68.8943C187.266 68.3023 187.426 67.5823 187.426 66.7343C187.426 65.4703 187.09 64.5023 186.418 63.8303C185.762 63.1423 184.954 62.7983 183.994 62.7983C183.034 62.7983 182.226 63.1423 181.57 63.8303C180.93 64.5023 180.61 65.4703 180.61 66.7343C180.61 67.9983 180.922 68.9743 181.546 69.6623C182.186 70.3343 182.986 70.6703 183.946 70.6703ZM209.379 59.8943C211.011 59.8943 212.323 60.3983 213.315 61.4063C214.323 62.3983 214.827 63.7903 214.827 65.5823V73.3823H211.467V66.0383C211.467 64.9983 211.203 64.2063 210.675 63.6623C210.147 63.1023 209.427 62.8223 208.515 62.8223C207.603 62.8223 206.875 63.1023 206.331 63.6623C205.803 64.2063 205.539 64.9983 205.539 66.0383V73.3823H202.179V66.0383C202.179 64.9983 201.915 64.2063 201.387 63.6623C200.859 63.1023 200.139 62.8223 199.227 62.8223C198.299 62.8223 197.563 63.1023 197.019 63.6623C196.491 64.2063 196.227 64.9983 196.227 66.0383V73.3823H192.867V60.0863H196.227V61.6943C196.659 61.1343 197.211 60.6943 197.883 60.3743C198.571 60.0543 199.323 59.8943 200.139 59.8943C201.179 59.8943 202.107 60.1183 202.923 60.5663C203.739 60.9983 204.371 61.6223 204.819 62.4383C205.251 61.6703 205.875 61.0543 206.691 60.5903C207.523 60.1263 208.419 59.8943 209.379 59.8943ZM220.896 62.0303C221.328 61.3903 221.92 60.8703 222.672 60.4703C223.44 60.0703 224.312 59.8703 225.288 59.8703C226.424 59.8703 227.448 60.1503 228.36 60.7103C229.288 61.2703 230.016 62.0703 230.544 63.1103C231.088 64.1343 231.36 65.3263 231.36 66.6863C231.36 68.0463 231.088 69.2543 230.544 70.3103C230.016 71.3503 229.288 72.1583 228.36 72.7343C227.448 73.3103 226.424 73.5983 225.288 73.5983C224.296 73.5983 223.424 73.4063 222.672 73.0223C221.936 72.6223 221.344 72.1103 220.896 71.4863V73.3823H217.536V55.6223H220.896V62.0303ZM227.928 66.6863C227.928 65.8863 227.76 65.1983 227.424 64.6223C227.104 64.0303 226.672 63.5823 226.128 63.2783C225.6 62.9743 225.024 62.8223 224.4 62.8223C223.792 62.8223 223.216 62.9823 222.672 63.3023C222.144 63.6063 221.712 64.0543 221.376 64.6463C221.056 65.2383 220.896 65.9343 220.896 66.7343C220.896 67.5343 221.056 68.2303 221.376 68.8223C221.712 69.4143 222.144 69.8703 222.672 70.1903C223.216 70.4943 223.792 70.6463 224.4 70.6463C225.024 70.6463 225.6 70.4863 226.128 70.1663C226.672 69.8463 227.104 69.3903 227.424 68.7983C227.76 68.2063 227.928 67.5023 227.928 66.6863ZM236.681 62.1503C237.113 61.4463 237.673 60.8943 238.361 60.4943C239.065 60.0943 239.865 59.8943 240.761 59.8943V63.4223H239.873C238.817 63.4223 238.017 63.6703 237.473 64.1663C236.945 64.6623 236.681 65.5263 236.681 66.7583V73.3823H233.321V60.0863H236.681V62.1503ZM254.904 66.4463C254.904 66.9263 254.872 67.3583 254.808 67.7423H245.088C245.168 68.7023 245.504 69.4543 246.096 69.9983C246.688 70.5423 247.416 70.8143 248.28 70.8143C249.528 70.8143 250.416 70.2783 250.944 69.2063H254.568C254.184 70.4863 253.448 71.5423 252.36 72.3743C251.272 73.1903 249.936 73.5983 248.352 73.5983C247.072 73.5983 245.92 73.3183 244.896 72.7583C243.888 72.1823 243.096 71.3743 242.52 70.3343C241.96 69.2943 241.68 68.0943 241.68 66.7343C241.68 65.3583 241.96 64.1503 242.52 63.1103C243.08 62.0703 243.864 61.2703 244.872 60.7103C245.88 60.1503 247.04 59.8703 248.352 59.8703C249.616 59.8703 250.744 60.1423 251.736 60.6863C252.744 61.2303 253.52 62.0063 254.064 63.0143C254.624 64.0063 254.904 65.1503 254.904 66.4463ZM251.424 65.4863C251.408 64.6223 251.096 63.9343 250.488 63.4223C249.88 62.8943 249.136 62.6303 248.256 62.6303C247.424 62.6303 246.72 62.8863 246.144 63.3983C245.584 63.8943 245.24 64.5903 245.112 65.4863H251.424ZM261.252 66.6863C261.252 65.3423 261.516 64.1503 262.044 63.1103C262.588 62.0703 263.316 61.2703 264.228 60.7103C265.156 60.1503 266.188 59.8703 267.324 59.8703C268.316 59.8703 269.18 60.0703 269.916 60.4703C270.668 60.8703 271.268 61.3743 271.716 61.9823V60.0863H275.1V73.3823H271.716V71.4383C271.284 72.0623 270.684 72.5823 269.916 72.9983C269.164 73.3983 268.292 73.5983 267.3 73.5983C266.18 73.5983 265.156 73.3103 264.228 72.7343C263.316 72.1583 262.588 71.3503 262.044 70.3103C261.516 69.2543 261.252 68.0463 261.252 66.6863ZM271.716 66.7343C271.716 65.9183 271.556 65.2223 271.236 64.6463C270.916 64.0543 270.484 63.6063 269.94 63.3023C269.396 62.9823 268.812 62.8223 268.188 62.8223C267.564 62.8223 266.988 62.9743 266.46 63.2783C265.932 63.5823 265.5 64.0303 265.164 64.6223C264.844 65.1983 264.684 65.8863 264.684 66.6863C264.684 67.4863 264.844 68.1903 265.164 68.7983C265.5 69.3903 265.932 69.8463 266.46 70.1663C267.004 70.4863 267.58 70.6463 268.188 70.6463C268.812 70.6463 269.396 70.4943 269.94 70.1903C270.484 69.8703 270.916 69.4223 271.236 68.8463C271.556 68.2543 271.716 67.5503 271.716 66.7343ZM287.052 62.8463V69.2783C287.052 69.7263 287.156 70.0543 287.364 70.2623C287.588 70.4543 287.956 70.5503 288.468 70.5503H290.028V73.3823H287.916C285.084 73.3823 283.668 72.0063 283.668 69.2543V62.8463H282.084V60.0863H283.668V56.7983H287.052V60.0863H290.028V62.8463H287.052ZM304.517 60.0863V73.3823H301.133V71.7023C300.701 72.2783 300.133 72.7343 299.429 73.0703C298.741 73.3903 297.989 73.5503 297.173 73.5503C296.133 73.5503 295.213 73.3343 294.413 72.9023C293.613 72.4543 292.981 71.8063 292.517 70.9583C292.069 70.0943 291.845 69.0703 291.845 67.8863V60.0863H295.205V67.4063C295.205 68.4623 295.469 69.2783 295.997 69.8543C296.525 70.4143 297.245 70.6943 298.157 70.6943C299.085 70.6943 299.813 70.4143 300.341 69.8543C300.869 69.2783 301.133 68.4623 301.133 67.4063V60.0863H304.517ZM166.015 93.0063C166.447 92.3983 167.039 91.8943 167.791 91.4943C168.559 91.0783 169.431 90.8703 170.407 90.8703C171.543 90.8703 172.567 91.1503 173.479 91.7103C174.407 92.2703 175.135 93.0703 175.663 94.1103C176.207 95.1343 176.479 96.3263 176.479 97.6863C176.479 99.0463 176.207 100.254 175.663 101.31C175.135 102.35 174.407 103.158 173.479 103.734C172.567 104.31 171.543 104.598 170.407 104.598C169.431 104.598 168.567 104.398 167.815 103.998C167.079 103.598 166.479 103.094 166.015 102.486V110.718H162.655V91.0863H166.015V93.0063ZM173.047 97.6863C173.047 96.8863 172.879 96.1983 172.543 95.6223C172.223 95.0303 171.791 94.5823 171.247 94.2783C170.719 93.9743 170.143 93.8223 169.519 93.8223C168.911 93.8223 168.335 93.9823 167.791 94.3023C167.263 94.6063 166.831 95.0543 166.495 95.6463C166.175 96.2383 166.015 96.9343 166.015 97.7343C166.015 98.5343 166.175 99.2303 166.495 99.8223C166.831 100.414 167.263 100.87 167.791 101.19C168.335 101.494 168.911 101.646 169.519 101.646C170.143 101.646 170.719 101.486 171.247 101.166C171.791 100.846 172.223 100.39 172.543 99.7983C172.879 99.2063 173.047 98.5023 173.047 97.6863ZM177.577 97.6863C177.577 96.3423 177.841 95.1503 178.369 94.1103C178.913 93.0703 179.641 92.2703 180.553 91.7103C181.481 91.1503 182.513 90.8703 183.649 90.8703C184.641 90.8703 185.505 91.0703 186.241 91.4703C186.993 91.8703 187.593 92.3743 188.041 92.9823V91.0863H191.425V104.382H188.041V102.438C187.609 103.062 187.009 103.582 186.241 103.998C185.489 104.398 184.617 104.598 183.625 104.598C182.505 104.598 181.481 104.31 180.553 103.734C179.641 103.158 178.913 102.35 178.369 101.31C177.841 100.254 177.577 99.0463 177.577 97.6863ZM188.041 97.7343C188.041 96.9183 187.881 96.2223 187.561 95.6463C187.241 95.0543 186.809 94.6063 186.265 94.3023C185.721 93.9823 185.137 93.8223 184.513 93.8223C183.889 93.8223 183.313 93.9743 182.785 94.2783C182.257 94.5823 181.825 95.0303 181.489 95.6223C181.169 96.1983 181.009 96.8863 181.009 97.6863C181.009 98.4863 181.169 99.1903 181.489 99.7983C181.825 100.39 182.257 100.846 182.785 101.166C183.329 101.486 183.905 101.646 184.513 101.646C185.137 101.646 185.721 101.494 186.265 101.19C186.809 100.87 187.241 100.422 187.561 99.8463C187.881 99.2543 188.041 98.5503 188.041 97.7343ZM197.586 93.1503C198.018 92.4463 198.578 91.8943 199.266 91.4943C199.97 91.0943 200.77 90.8943 201.666 90.8943V94.4223H200.778C199.722 94.4223 198.922 94.6703 198.378 95.1663C197.85 95.6623 197.586 96.5263 197.586 97.7583V104.382H194.226V91.0863H197.586V93.1503ZM202.586 97.7343C202.586 96.3583 202.866 95.1583 203.426 94.1343C203.986 93.0943 204.762 92.2943 205.754 91.7343C206.746 91.1583 207.882 90.8703 209.162 90.8703C210.81 90.8703 212.17 91.2863 213.242 92.1183C214.33 92.9343 215.058 94.0863 215.426 95.5743H211.802C211.61 94.9983 211.282 94.5503 210.818 94.2303C210.37 93.8943 209.81 93.7263 209.138 93.7263C208.178 93.7263 207.418 94.0783 206.858 94.7823C206.298 95.4703 206.018 96.4543 206.018 97.7343C206.018 98.9983 206.298 99.9823 206.858 100.686C207.418 101.374 208.178 101.718 209.138 101.718C210.498 101.718 211.386 101.11 211.802 99.8943H215.426C215.058 101.334 214.33 102.478 213.242 103.326C212.154 104.174 210.794 104.598 209.162 104.598C207.882 104.598 206.746 104.318 205.754 103.758C204.762 103.182 203.986 102.382 203.426 101.358C202.866 100.318 202.586 99.1103 202.586 97.7343ZM229.767 97.4463C229.767 97.9263 229.735 98.3583 229.671 98.7423H219.951C220.031 99.7023 220.367 100.454 220.959 100.998C221.551 101.542 222.279 101.814 223.143 101.814C224.391 101.814 225.279 101.278 225.807 100.206H229.431C229.047 101.486 228.311 102.542 227.223 103.374C226.135 104.19 224.799 104.598 223.215 104.598C221.935 104.598 220.783 104.318 219.759 103.758C218.751 103.182 217.959 102.374 217.383 101.334C216.823 100.294 216.543 99.0943 216.543 97.7343C216.543 96.3583 216.823 95.1503 217.383 94.1103C217.943 93.0703 218.727 92.2703 219.735 91.7103C220.743 91.1503 221.903 90.8703 223.215 90.8703C224.479 90.8703 225.607 91.1423 226.599 91.6863C227.607 92.2303 228.383 93.0063 228.927 94.0143C229.487 95.0063 229.767 96.1503 229.767 97.4463ZM226.287 96.4863C226.271 95.6223 225.959 94.9343 225.351 94.4223C224.743 93.8943 223.999 93.6303 223.119 93.6303C222.287 93.6303 221.583 93.8863 221.007 94.3983C220.447 94.8943 220.103 95.5903 219.975 96.4863H226.287ZM235.1 86.6223V104.382H231.74V86.6223H235.1ZM237.075 97.6863C237.075 96.3423 237.339 95.1503 237.867 94.1103C238.411 93.0703 239.139 92.2703 240.051 91.7103C240.979 91.1503 242.011 90.8703 243.147 90.8703C244.139 90.8703 245.003 91.0703 245.739 91.4703C246.491 91.8703 247.091 92.3743 247.539 92.9823V91.0863H250.923V104.382H247.539V102.438C247.107 103.062 246.507 103.582 245.739 103.998C244.987 104.398 244.115 104.598 243.123 104.598C242.003 104.598 240.979 104.31 240.051 103.734C239.139 103.158 238.411 102.35 237.867 101.31C237.339 100.254 237.075 99.0463 237.075 97.6863ZM247.539 97.7343C247.539 96.9183 247.379 96.2223 247.059 95.6463C246.739 95.0543 246.307 94.6063 245.763 94.3023C245.219 93.9823 244.635 93.8223 244.011 93.8223C243.387 93.8223 242.811 93.9743 242.283 94.2783C241.755 94.5823 241.323 95.0303 240.987 95.6223C240.667 96.1983 240.507 96.8863 240.507 97.6863C240.507 98.4863 240.667 99.1903 240.987 99.7983C241.323 100.39 241.755 100.846 242.283 101.166C242.827 101.486 243.403 101.646 244.011 101.646C244.635 101.646 245.219 101.494 245.763 101.19C246.307 100.87 246.739 100.422 247.059 99.8463C247.379 99.2543 247.539 98.5503 247.539 97.7343ZM255.213 104.55C254.605 104.55 254.101 104.366 253.701 103.998C253.317 103.614 253.125 103.142 253.125 102.582C253.125 102.022 253.317 101.558 253.701 101.19C254.101 100.806 254.605 100.614 255.213 100.614C255.805 100.614 256.293 100.806 256.677 101.19C257.061 101.558 257.253 102.022 257.253 102.582C257.253 103.142 257.061 103.614 256.677 103.998C256.293 104.366 255.805 104.55 255.213 104.55Z" fill="#8F3B06"/>
<defs>
<filter id="filter0_d_2434_960" x="12.8809" y="0" width="106.238" height="257.697" filterUnits="userSpaceOnUse" color-interpolation-filters="sRGB">
<feFlood flood-opacity="0" result="BackgroundImageFix"/>
<feColorMatrix in="SourceAlpha" type="matrix" values="0 0 0 0 0 0 0 0 0 0 0 0 0 0 0 0 0 0 127 0" result="hardAlpha"/>
<feOffset dy="3.11898"/>
<feGaussianBlur stdDeviation="1.55949"/>
<feComposite in2="hardAlpha" operator="out"/>
<feColorMatrix type="matrix" values="0 0 0 0 0 0 0 0 0 0 0 0 0 0 0 0 0 0 0.25 0"/>
<feBlend mode="normal" in2="BackgroundImageFix" result="effect1_dropShadow_2434_960"/>
<feBlend mode="normal" in="SourceGraphic" in2="effect1_dropShadow_2434_960" result="shape"/>
</filter>
<clipPath id="clip0_2434_960">
<rect width="100" height="104" fill="white" transform="matrix(-1 0 0 1 116 0)"/>
</clipPath>
</defs>
</svg>
