<svg width="109" height="72" viewBox="0 0 109 72" fill="none" xmlns="http://www.w3.org/2000/svg">
<path d="M108.241 13.9842V58.2773C108.241 65.3794 101.906 70.1703 94.2504 71.1368C90.9222 71.5568 87.5565 71.7564 83.6709 71.7786C77.4113 71.8151 69.8022 71.3946 58.8248 70.7099C58.3261 70.6786 57.82 70.6468 57.3065 70.6146C52.0626 70.2851 44.1865 70.3903 36.2878 70.5899C28.2813 70.7929 20.2513 71.0929 14.9161 71.1368C10.5278 71.1729 6.6113 69.3107 4.04652 66.3942C2.09435 64.1751 0.925217 61.3455 0.925217 58.2773V13.9842C0.925217 6.88204 7.20261 0.706819 14.9161 1.12421C22.0791 1.51204 32.6152 3.04812 43.5987 2.10769C56.6617 0.989427 81.4561 0.0385581 94.2496 1.12421C101.944 1.77725 108.24 6.88204 108.24 13.9842H108.241Z" fill="#DEEBE9"/>
</svg>
