<svg width="360" height="125" viewBox="0 0 360 125" fill="none" xmlns="http://www.w3.org/2000/svg">
<g clip-path="url(#clip0_2419_8534)">
<g filter="url(#filter0_d_2419_8534)">
<path fill-rule="evenodd" clip-rule="evenodd" d="M29.2636 97.2479C33.7363 86.083 37.9783 72.7191 44.6636 68.545C48.6002 66.0881 62.2287 64.4184 62.2287 64.4184H70.6652C70.6652 64.4184 85.1829 62.7963 89.4656 66.8143C92.927 70.0654 104.75 94.1326 104.75 94.1326C104.75 94.1326 96.9246 102.372 89.4656 102.372C89.6827 112.363 89.7235 121.397 89.7235 121.397C89.7235 121.397 90.0153 122.734 90.4904 125.191C78.131 126.222 61.2785 126.263 46.8694 122.625C47.1749 119.041 47.3649 116.883 47.3853 116.659L52.2449 84.3319C52.2449 84.3319 49.1771 95.7343 46.978 102.935C43.5437 102.935 31.9513 100.187 29.2636 97.2411V97.2479Z" fill="#C36363"/>
<path fill-rule="evenodd" clip-rule="evenodd" d="M66.8576 70.1127H67.0137C69.6607 70.1127 71.8054 67.968 71.8054 65.321V50.2739H62.0591V65.321C62.0591 67.968 64.2038 70.1127 66.8508 70.1127H66.8576Z" fill="#EDBA8C"/>
<path opacity="0.25" fill-rule="evenodd" clip-rule="evenodd" d="M71.8121 63.9024C68.5679 64.2486 65.2693 64.0993 62.0658 63.4545V56.3755C65.2897 56.8981 68.5475 57.1628 71.8121 57.1764V63.9024Z" fill="#561C2F" stroke="#EDBA8C" stroke-width="0.347756" stroke-miterlimit="22.93"/>
<path fill-rule="evenodd" clip-rule="evenodd" d="M84.7958 10.2773C84.7958 10.2773 84.2393 5.4924 82.1353 3.3816C80.0245 1.27759 66.4638 -1.34904 59.6155 0.802487C57.464 3.06939 56.0862 7.54212 56.0862 7.54212L84.7958 10.2773Z" fill="#845E40"/>
<path fill-rule="evenodd" clip-rule="evenodd" d="M31.1842 18.8971C30.3901 27.6661 47.039 36.3333 68.371 38.2676C89.703 40.2019 107.635 34.6568 108.429 25.8946C109.223 17.1256 92.574 8.45846 71.242 6.52412C49.91 4.58979 31.9783 10.1349 31.1842 18.8971Z" fill="#F1D054"/>
<mask id="mask0_2419_8534" style="mask-type:luminance" maskUnits="userSpaceOnUse" x="31" y="6" width="78" height="33">
<path d="M31.1842 18.8971C30.3901 27.6661 47.039 36.3333 68.371 38.2676C89.703 40.2019 107.635 34.6568 108.429 25.8946C109.223 17.1256 92.574 8.45846 71.242 6.52412C49.91 4.58979 31.9783 10.1349 31.1842 18.8971Z" fill="white"/>
</mask>
<g mask="url(#mask0_2419_8534)">
<path opacity="0.3" fill-rule="evenodd" clip-rule="evenodd" d="M31.1842 18.8971C30.3901 27.6661 47.039 36.3333 68.371 38.2676C89.703 40.2019 107.635 34.6568 108.429 25.8946C109.223 17.1256 92.574 8.45846 71.242 6.52412C49.91 4.58979 31.9783 10.1349 31.1842 18.8971Z" fill="#CB2E45"/>
</g>
<path fill-rule="evenodd" clip-rule="evenodd" d="M64.0755 20.1191L54.9772 18.0586C52.5924 17.5143 50.0775 18.4282 48.6615 20.3856C44.2287 26.5309 35.782 41.1411 38.4547 60.6346C38.8232 63.3227 41.1896 65.3185 44.0387 65.4027C48.7666 65.5357 52.1315 65.6487 54.5083 65.7302C57.61 65.8479 60.3183 63.676 60.7224 60.7275C61.8613 52.4879 64.3895 36.5429 68.0801 27.4705C69.3657 24.3269 67.472 20.8863 64.0575 20.1231L64.0755 20.1191Z" fill="black"/>
<path fill-rule="evenodd" clip-rule="evenodd" d="M44.046 33.5232C45.5392 36.5638 48.3151 38.2538 50.2495 37.3036C52.1838 36.3534 52.5368 33.1227 51.0436 30.0821C49.5504 27.0414 46.7745 25.3514 44.8401 26.3016C42.9058 27.2518 42.5529 30.4825 44.046 33.5232Z" fill="#EDBA8C"/>
<path fill-rule="evenodd" clip-rule="evenodd" d="M70.6181 14.6621L80.5589 13.1008C83.1648 12.687 85.8055 13.8521 87.1883 16.0609C91.5159 22.9945 99.5528 39.3282 95.2701 60.1153C94.6795 62.9819 91.9887 64.9592 88.9163 64.8443C83.8182 64.6464 80.1886 64.5252 77.6247 64.4415C74.2779 64.3444 71.5198 61.8115 71.2976 58.609C70.6662 49.6589 69.0955 32.3157 65.7778 22.2852C64.621 18.8092 66.9073 15.2428 70.6372 14.6677L70.6181 14.6621Z" fill="black"/>
<path fill-rule="evenodd" clip-rule="evenodd" d="M49.5435 40.1137L51.4168 22.4739C52.2855 14.2886 59.6292 8.35665 67.8145 9.23219L74.9003 9.98556C83.0856 10.8543 89.0176 18.198 88.142 26.3833L86.2688 44.0231C85.4 52.2084 78.0563 58.1403 69.871 57.2648L62.7852 56.5114C54.6 55.6427 48.668 48.299 49.5435 40.1137Z" fill="#EDBA8C"/>
<path fill-rule="evenodd" clip-rule="evenodd" d="M92.5332 38.4035C90.5106 41.1184 87.4768 42.279 85.7461 40.9962C84.0153 39.7134 84.2529 36.4692 86.2755 33.7543C88.298 31.0394 91.3319 29.8788 93.0626 31.1616C94.7865 32.4444 94.5558 35.6886 92.5332 38.4035Z" fill="#EDBA8C"/>
<path fill-rule="evenodd" clip-rule="evenodd" d="M92.3908 33.4758C89.7303 33.8084 88.7597 36.5911 88.0742 38.7969C87.9588 39.1702 87.3684 39.0141 87.4837 38.634C88.271 36.1092 89.4113 33.2383 92.3908 32.865C92.7777 32.8175 92.7777 33.4215 92.3908 33.4758Z" fill="#561C2F"/>
<path fill-rule="evenodd" clip-rule="evenodd" d="M90.9248 36.7607C90.3343 36.3603 89.7031 36.1024 89.0041 35.9734C88.6172 35.8987 88.7801 35.315 89.167 35.3829C89.9135 35.5187 90.6058 35.8105 91.2302 36.2313C91.5492 36.4485 91.2506 36.9779 90.9248 36.7539V36.7607Z" fill="#561C2F"/>
<path fill-rule="evenodd" clip-rule="evenodd" d="M48.8985 35.9735C49.0342 33.1636 47.9754 30.5913 45.9053 28.6909C45.6135 28.4262 46.0479 27.9918 46.3329 28.2633C48.5116 30.2723 49.6383 33.0211 49.5025 35.9803C49.4822 36.3739 48.8781 36.3739 48.8917 35.9803L48.8985 35.9735Z" fill="#561C2F"/>
<path fill-rule="evenodd" clip-rule="evenodd" d="M48.1724 31.9895C47.2901 32.0981 46.5299 32.546 45.9734 33.2248C45.7222 33.5302 45.2946 33.0958 45.5458 32.7972C46.2109 31.9827 47.134 31.5076 48.1724 31.3854C48.5593 31.3379 48.5593 31.9488 48.1724 31.9963V31.9895Z" fill="#561C2F"/>
<path fill-rule="evenodd" clip-rule="evenodd" d="M46.8693 122.618C46.9507 122.632 47.039 122.645 47.1272 122.659L47.1476 121.824C58.5703 93.7254 50.9484 66.4207 50.9484 66.4207L56.3373 65.1583C56.3373 65.1583 60.1924 75.5766 59.473 88.316C59.473 88.316 73.8278 87.9631 82.5289 88.6554C82.3728 76.6693 80.4589 64.0859 80.4589 64.0859L86.1058 64.9275C86.1058 64.9275 91.1758 97.4923 89.4654 102.365L89.7233 121.39L90.2391 123.955H90.2527C90.3749 124.58 90.5242 125.326 90.6803 126.168V126.182C93.5988 141.609 101.757 191.963 94.834 241.244C83.4045 242.079 81.8299 241.224 81.8299 241.224C81.8299 241.224 79.2983 178.68 72.0699 145.579L50.1339 239.839L36.9804 238.556C36.9804 238.556 44.7721 147.106 46.8693 122.611V122.618Z" fill="#1E4A47"/>
<mask id="mask1_2419_8534" style="mask-type:luminance" maskUnits="userSpaceOnUse" x="36" y="64" width="62" height="178">
<path d="M46.8693 122.618C46.9507 122.632 47.039 122.645 47.1272 122.659L47.1476 121.824C58.5703 93.7254 50.9484 66.4207 50.9484 66.4207L56.3373 65.1583C56.3373 65.1583 60.1924 75.5766 59.473 88.316C59.473 88.316 73.8278 87.9631 82.5289 88.6554C82.3728 76.6693 80.4589 64.0859 80.4589 64.0859L86.1058 64.9275C86.1058 64.9275 91.1758 97.4923 89.4654 102.365L89.7233 121.39L90.2391 123.955H90.2527C90.3749 124.58 90.5242 125.326 90.6803 126.168V126.182C93.5988 141.609 101.757 191.963 94.834 241.244C83.4045 242.079 81.8299 241.224 81.8299 241.224C81.8299 241.224 79.2983 178.68 72.0699 145.579L50.1339 239.839L36.9804 238.556C36.9804 238.556 44.7721 147.106 46.8693 122.611V122.618Z" fill="white"/>
</mask>
<g mask="url(#mask1_2419_8534)">
<path opacity="0.3" fill-rule="evenodd" clip-rule="evenodd" d="M46.8693 122.618C46.9507 122.632 47.039 122.645 47.1272 122.659L47.1476 121.824C58.5703 93.7254 50.9484 66.4207 50.9484 66.4207L56.3373 65.1583C56.3373 65.1583 60.1924 75.5766 59.473 88.316C59.473 88.316 73.8278 87.9631 82.5289 88.6554C82.3728 76.6693 80.4589 64.0859 80.4589 64.0859L86.1058 64.9275C86.1058 64.9275 91.1758 97.4923 89.4654 102.365L89.7233 121.39L90.2391 123.955H90.2527C90.3749 124.58 90.5242 125.326 90.6803 126.168V126.182C93.5988 141.609 101.757 191.963 94.834 241.244C83.4045 242.079 81.8299 241.224 81.8299 241.224C81.8299 241.224 79.2983 178.68 72.0699 145.579L50.1339 239.839L36.9804 238.556C36.9804 238.556 44.7721 147.106 46.8693 122.611V122.618Z" fill="#1E4A47"/>
</g>
<path fill-rule="evenodd" clip-rule="evenodd" d="M69.1852 34.5006C68.9952 32.417 68.9613 30.313 69.0834 28.2225C69.1445 27.1977 69.2395 26.1728 69.3753 25.1547C69.4703 24.4081 69.4703 23.4036 69.7757 22.7046C70.1897 21.7544 71.6218 21.6526 71.9069 22.7181C72.1376 23.5665 71.8051 24.5167 71.7168 25.3651C71.5743 26.8447 71.3707 28.3175 71.3028 29.7971C71.2689 30.5166 71.2689 31.2292 71.3164 31.9487C71.3435 32.3898 71.1942 33.245 71.5268 33.5844C71.71 33.7676 72.0223 33.8219 72.2394 33.6794C72.4091 33.5708 72.4906 33.3672 72.6331 33.2246C72.8774 32.9667 73.2915 32.9056 73.624 33.0346C74.3502 33.3264 74.262 33.9305 74.1195 34.5617C73.9091 35.4712 73.4611 36.3264 72.8028 36.9983C72.4566 37.3512 72.0358 37.6566 71.5472 37.7177C70.8074 37.8128 70.0879 37.3037 69.7214 36.6589C69.3481 36.0074 69.2599 35.2472 69.192 34.5006H69.1852Z" fill="#F1D054"/>
<path fill-rule="evenodd" clip-rule="evenodd" d="M75.8911 31.4802C75.7214 32.8037 76.2983 33.9711 77.1738 34.0796C78.0494 34.1882 78.8978 33.2041 79.0607 31.8806C79.2303 30.5571 78.6534 29.3897 77.7779 29.2811C76.9024 29.1725 76.054 30.1567 75.8911 31.4802Z" fill="#561C2F"/>
<path fill-rule="evenodd" clip-rule="evenodd" d="M65.8938 30.4961C65.9345 31.8332 65.249 32.9395 64.3667 32.9599C63.4843 32.987 62.7378 31.9214 62.697 30.5844C62.6563 29.2473 63.3418 28.141 64.2241 28.1206C65.1065 28.0935 65.853 29.1591 65.8938 30.4961Z" fill="#561C2F"/>
<path fill-rule="evenodd" clip-rule="evenodd" d="M81.7824 27.0281C80.9951 25.0598 79.0744 24.0621 77.0111 24.3133C76.2034 24.4083 76.2102 23.1459 77.0111 23.0509C79.6852 22.7319 82.02 24.2318 83.0041 26.6956C83.3095 27.4557 82.0811 27.7815 81.7824 27.0349V27.0281Z" fill="#561C2F"/>
<path fill-rule="evenodd" clip-rule="evenodd" d="M65.9685 22.9898C64.1292 22.2771 62.1813 22.8269 60.9596 24.3744C60.4573 25.0124 59.5682 24.1165 60.0637 23.4785C61.5297 21.612 64.0952 20.9197 66.3011 21.7681C67.0544 22.0599 66.7287 23.2816 65.9617 22.9898H65.9685Z" fill="#561C2F"/>
<path fill-rule="evenodd" clip-rule="evenodd" d="M31.6798 99.372L45.3491 104.673C45.0165 106.18 44.6839 107.686 44.3514 109.193C53.6498 109.539 62.9414 109.96 72.233 110.421C72.9931 112.973 73.6243 115.566 73.9773 118.206C60.5659 123.507 45.1523 123.541 31.7205 118.288C31.2318 118.098 30.7228 117.881 30.3834 117.48C29.9423 116.958 29.8608 116.225 29.8201 115.546C29.4807 110.096 30.1187 104.591 31.6934 99.3652L31.6798 99.372Z" fill="#EDBA8C"/>
<mask id="mask2_2419_8534" style="mask-type:luminance" maskUnits="userSpaceOnUse" x="29" y="99" width="45" height="24">
<path d="M31.6798 99.372L45.3491 104.673C45.0165 106.18 44.6839 107.686 44.3514 109.193C53.6498 109.539 62.9414 109.96 72.233 110.421C72.9931 112.973 73.6243 115.566 73.9773 118.206C60.5659 123.507 45.1523 123.541 31.7205 118.288C31.2318 118.098 30.7228 117.881 30.3834 117.48C29.9423 116.958 29.8608 116.225 29.8201 115.546C29.4807 110.096 30.1187 104.591 31.6934 99.3652L31.6798 99.372Z" fill="white"/>
</mask>
<g mask="url(#mask2_2419_8534)">
<path opacity="0.2" fill-rule="evenodd" clip-rule="evenodd" d="M31.6798 99.372L45.3491 104.673C45.0165 106.18 44.6839 107.686 44.3514 109.193C53.6498 109.539 62.9414 109.96 72.233 110.421C72.9931 112.973 73.6243 115.566 73.9773 118.206C60.5659 123.507 45.1523 123.541 31.7205 118.288C31.2318 118.098 30.7228 117.881 30.3834 117.48C29.9423 116.958 29.8608 116.225 29.8201 115.546C29.4807 110.096 30.1187 104.591 31.6934 99.3652L31.6798 99.372Z" fill="#CB2E45"/>
</g>
<path fill-rule="evenodd" clip-rule="evenodd" d="M72.4432 40.1134C69.8573 42.0071 66.4162 40.3374 66.1379 37.195C66.104 36.7877 66.7352 36.7945 66.7691 37.195C67.0067 39.9098 69.9658 41.1451 72.1242 39.5637C72.4567 39.3193 72.7689 39.8691 72.4432 40.1134Z" fill="#561C2F"/>
<path opacity="0.16" fill-rule="evenodd" clip-rule="evenodd" d="M88.2573 27.9511C87.8093 27.8358 87.3682 27.7204 86.927 27.605C80.8797 26.044 74.6762 24.9105 68.4592 24.32C64.1629 23.9128 59.8802 23.8042 55.6043 23.9399C53.9211 23.9196 52.2515 23.9196 50.609 23.9399C50.609 23.9399 52.2447 17.465 53.6632 15.456C65.0928 14.8452 77.1128 16.2297 87.6057 20.5124C88.1623 22.3585 88.3659 24.3404 88.1487 26.3765L88.2573 27.9444V27.9511Z" fill="#561C2F"/>
<path fill-rule="evenodd" clip-rule="evenodd" d="M49.489 13.2092L57.6132 9.01474C60.7353 8.96044 63.8641 8.94687 66.9862 8.99438C71.0517 9.05546 75.0561 9.19799 79.0877 9.67309L79.7053 9.91064L85.678 13.216L93.5647 18.1706C93.5647 18.1706 96.0352 19.942 96.0352 21.2316L96.8768 26.064C96.8768 26.064 74.1059 14.1798 45.6407 19.7724C29.2701 20.4511 49.5025 13.2092 49.5025 13.2092H49.489Z" fill="#E6A050"/>
<path fill-rule="evenodd" clip-rule="evenodd" d="M104.03 96.9965C106.338 102.738 107.662 108.881 107.926 115.064C107.953 115.654 107.96 116.292 107.641 116.795C107.37 117.229 106.901 117.494 106.447 117.724C99.4084 121.308 91.0466 120.568 83.1939 119.733C82.203 119.625 71.0313 118.145 71.0653 117.697C71.2485 115.193 71.6422 112.709 72.2327 110.265C76.3864 109.166 80.6352 109.078 84.9111 108.704C87.3544 108.494 89.8182 108.161 92.2547 107.971C92.1801 106.288 92.0986 104.605 92.024 102.922L104.03 96.9897V96.9965Z" fill="#EDBA8C"/>
<path opacity="0.15" fill-rule="evenodd" clip-rule="evenodd" d="M31.6796 99.3721L45.3489 104.673C45.0775 105.915 44.7992 107.157 44.5209 108.399C43.6589 108.474 42.797 108.508 41.935 108.514C37.9442 108.548 33.9465 108.223 30.0032 107.571C30.3154 104.795 30.8652 102.046 31.6729 99.3721H31.6796Z" fill="#561C2F"/>
<path opacity="0.15" fill-rule="evenodd" clip-rule="evenodd" d="M92.1668 106.119C92.1192 105.053 92.0717 103.987 92.0174 102.929L104.024 96.9966C104.838 99.0192 105.524 101.089 106.087 103.2C101.703 105.399 96.8974 106.661 92.1668 106.125V106.119Z" fill="#561C2F"/>
<path fill-rule="evenodd" clip-rule="evenodd" d="M47.2764 97.8315C43.6792 96.7863 35.2156 94.2683 31.5506 92.7548C30.5732 92.3475 29.4601 92.843 29.0869 93.8271C28.5099 95.3475 28.1502 96.6506 27.9398 97.5533C27.7498 98.3474 28.0959 99.1686 28.8018 99.5894C31.4963 101.191 38.6432 104.944 45.9868 104.578C46.8013 104.537 47.514 103.994 47.7379 103.207C48.118 101.863 48.3895 100.825 48.566 100.051C48.7967 99.0804 48.2266 98.1098 47.2696 97.8315H47.2764Z" fill="#CA4040"/>
<path fill-rule="evenodd" clip-rule="evenodd" d="M104.533 91.2274L106.08 94.3359C106.488 95.1504 106.352 96.1277 105.727 96.7929C103.766 98.8765 98.9267 103.078 91.298 103.668C90.246 103.75 89.289 103.057 89.0175 102.039C88.5695 100.349 88.2437 99.148 88.013 98.2996C87.7076 97.1933 88.3048 96.0463 89.3908 95.6662C92.4246 94.6006 98.2684 92.422 101.404 90.3722C102.49 89.6596 103.956 90.0668 104.533 91.2342V91.2274Z" fill="#CA4040"/>
<path opacity="0.3" fill-rule="evenodd" clip-rule="evenodd" d="M47.2764 97.8315C43.6792 96.7863 35.2156 94.2683 31.5506 92.7548C30.5732 92.3475 29.4601 92.843 29.0869 93.8271C28.5099 95.3475 28.1502 96.6506 27.9398 97.5533C27.7498 98.3474 28.0959 99.1686 28.8018 99.5894C31.4963 101.191 38.6432 104.944 45.9868 104.578C46.8013 104.537 47.514 103.994 47.7379 103.207C48.118 101.863 48.3895 100.825 48.566 100.051C48.7967 99.0804 48.2266 98.1098 47.2696 97.8315H47.2764Z" fill="#CB2E45"/>
<path opacity="0.3" fill-rule="evenodd" clip-rule="evenodd" d="M104.533 91.2274L106.08 94.3359C106.488 95.1504 106.352 96.1277 105.727 96.7929C103.766 98.8765 98.9267 103.078 91.298 103.668C90.246 103.75 89.289 103.057 89.0175 102.039C88.5695 100.349 88.2437 99.148 88.013 98.2996C87.7076 97.1933 88.3048 96.0463 89.3908 95.6662C92.4246 94.6006 98.2684 92.422 101.404 90.3722C102.49 89.6596 103.956 90.0668 104.533 91.2342V91.2274Z" fill="#CB2E45"/>
<path opacity="0.3" fill-rule="evenodd" clip-rule="evenodd" d="M69.1852 34.5006C68.9952 32.417 68.9613 30.313 69.0834 28.2225C69.1445 27.1977 69.2395 26.1728 69.3753 25.1547C69.4703 24.4081 69.4703 23.4036 69.7757 22.7046C70.1897 21.7544 71.6218 21.6526 71.9069 22.7181C72.1376 23.5665 71.8051 24.5167 71.7168 25.3651C71.5743 26.8447 71.3707 28.3175 71.3028 29.7971C71.2689 30.5166 71.2689 31.2292 71.3164 31.9487C71.3435 32.3898 71.1942 33.245 71.5268 33.5844C71.71 33.7676 72.0223 33.8219 72.2394 33.6794C72.4091 33.5708 72.4906 33.3672 72.6331 33.2246C72.8774 32.9667 73.2915 32.9056 73.624 33.0346C74.3502 33.3264 74.262 33.9305 74.1195 34.5617C73.9091 35.4712 73.4611 36.3264 72.8028 36.9983C72.4566 37.3512 72.0358 37.6566 71.5472 37.7177C70.8074 37.8128 70.0879 37.3037 69.7214 36.6589C69.3481 36.0074 69.2599 35.2472 69.192 34.5006H69.1852Z" fill="#CB2E45"/>
</g>
</g>
<path d="M168.304 18.855C152.748 19.3609 136.962 31.3507 121.6 44.4094L151.939 64.2101C151.626 41.484 156.408 33.5332 168.304 18.855Z" fill="white"/>
<rect x="144.099" width="199.901" height="125" rx="16" fill="white"/>
<path d="M168.511 25.6303C170.271 25.6303 171.815 25.9743 173.143 26.6623C174.487 27.3503 175.519 28.3343 176.239 29.6143C176.975 30.8783 177.343 32.3503 177.343 34.0303C177.343 35.7103 176.975 37.1823 176.239 38.4463C175.519 39.6943 174.487 40.6623 173.143 41.3503C171.815 42.0383 170.271 42.3823 168.511 42.3823H162.655V25.6303H168.511ZM168.391 39.5263C170.151 39.5263 171.511 39.0463 172.471 38.0863C173.431 37.1263 173.911 35.7743 173.911 34.0303C173.911 32.2863 173.431 30.9263 172.471 29.9503C171.511 28.9583 170.151 28.4623 168.391 28.4623H166.015V39.5263H168.391ZM178.514 35.6863C178.514 34.3423 178.778 33.1503 179.306 32.1103C179.85 31.0703 180.578 30.2703 181.49 29.7103C182.418 29.1503 183.45 28.8703 184.586 28.8703C185.578 28.8703 186.442 29.0703 187.178 29.4703C187.93 29.8703 188.53 30.3743 188.978 30.9823V29.0863H192.362V42.3823H188.978V40.4383C188.546 41.0623 187.946 41.5823 187.178 41.9983C186.426 42.3983 185.554 42.5983 184.562 42.5983C183.442 42.5983 182.418 42.3103 181.49 41.7343C180.578 41.1583 179.85 40.3503 179.306 39.3103C178.778 38.2543 178.514 37.0463 178.514 35.6863ZM188.978 35.7343C188.978 34.9183 188.818 34.2223 188.498 33.6463C188.178 33.0543 187.746 32.6063 187.202 32.3023C186.658 31.9823 186.074 31.8223 185.45 31.8223C184.826 31.8223 184.25 31.9743 183.722 32.2783C183.194 32.5823 182.762 33.0303 182.426 33.6223C182.106 34.1983 181.946 34.8863 181.946 35.6863C181.946 36.4863 182.106 37.1903 182.426 37.7983C182.762 38.3903 183.194 38.8463 183.722 39.1663C184.266 39.4863 184.842 39.6463 185.45 39.6463C186.074 39.6463 186.658 39.4943 187.202 39.1903C187.746 38.8703 188.178 38.4223 188.498 37.8463C188.818 37.2543 188.978 36.5503 188.978 35.7343ZM198.524 24.6223V42.3823H195.164V24.6223H198.524ZM213.724 35.4463C213.724 35.9263 213.692 36.3583 213.628 36.7423H203.908C203.988 37.7023 204.324 38.4543 204.916 38.9983C205.508 39.5423 206.236 39.8143 207.1 39.8143C208.348 39.8143 209.236 39.2783 209.764 38.2063H213.388C213.004 39.4863 212.268 40.5423 211.18 41.3743C210.092 42.1903 208.756 42.5983 207.172 42.5983C205.892 42.5983 204.74 42.3183 203.716 41.7583C202.708 41.1823 201.916 40.3743 201.34 39.3343C200.78 38.2943 200.5 37.0943 200.5 35.7343C200.5 34.3583 200.78 33.1503 201.34 32.1103C201.9 31.0703 202.684 30.2703 203.692 29.7103C204.7 29.1503 205.86 28.8703 207.172 28.8703C208.436 28.8703 209.564 29.1423 210.556 29.6863C211.564 30.2303 212.34 31.0063 212.884 32.0143C213.444 33.0063 213.724 34.1503 213.724 35.4463ZM210.244 34.4863C210.228 33.6223 209.916 32.9343 209.308 32.4223C208.7 31.8943 207.956 31.6303 207.076 31.6303C206.244 31.6303 205.54 31.8863 204.964 32.3983C204.404 32.8943 204.06 33.5903 203.932 34.4863H210.244ZM233.487 29.0863V42.3823H230.103V40.7023C229.671 41.2783 229.103 41.7343 228.399 42.0703C227.711 42.3903 226.959 42.5503 226.143 42.5503C225.103 42.5503 224.183 42.3343 223.383 41.9023C222.583 41.4543 221.951 40.8063 221.487 39.9583C221.039 39.0943 220.815 38.0703 220.815 36.8863V29.0863H224.175V36.4063C224.175 37.4623 224.439 38.2783 224.967 38.8543C225.495 39.4143 226.215 39.6943 227.127 39.6943C228.055 39.6943 228.783 39.4143 229.311 38.8543C229.839 38.2783 230.103 37.4623 230.103 36.4063V29.0863H233.487ZM243.69 28.8943C245.274 28.8943 246.554 29.3983 247.53 30.4063C248.506 31.3983 248.994 32.7903 248.994 34.5823V42.3823H245.634V35.0383C245.634 33.9823 245.37 33.1743 244.842 32.6143C244.314 32.0383 243.594 31.7503 242.682 31.7503C241.754 31.7503 241.018 32.0383 240.474 32.6143C239.946 33.1743 239.682 33.9823 239.682 35.0383V42.3823H236.322V29.0863H239.682V30.7423C240.13 30.1663 240.698 29.7183 241.386 29.3983C242.09 29.0623 242.858 28.8943 243.69 28.8943ZM170.023 59.8943C171.607 59.8943 172.887 60.3983 173.863 61.4063C174.839 62.3983 175.327 63.7903 175.327 65.5823V73.3823H171.967V66.0383C171.967 64.9823 171.703 64.1743 171.175 63.6143C170.647 63.0383 169.927 62.7503 169.015 62.7503C168.087 62.7503 167.351 63.0383 166.807 63.6143C166.279 64.1743 166.015 64.9823 166.015 66.0383V73.3823H162.655V60.0863H166.015V61.7423C166.463 61.1663 167.031 60.7183 167.719 60.3983C168.423 60.0623 169.191 59.8943 170.023 59.8943ZM183.946 73.5983C182.666 73.5983 181.514 73.3183 180.49 72.7583C179.466 72.1823 178.658 71.3743 178.066 70.3343C177.49 69.2943 177.202 68.0943 177.202 66.7343C177.202 65.3743 177.498 64.1743 178.09 63.1343C178.698 62.0943 179.522 61.2943 180.562 60.7343C181.602 60.1583 182.762 59.8703 184.042 59.8703C185.322 59.8703 186.482 60.1583 187.522 60.7343C188.562 61.2943 189.378 62.0943 189.97 63.1343C190.578 64.1743 190.882 65.3743 190.882 66.7343C190.882 68.0943 190.57 69.2943 189.946 70.3343C189.338 71.3743 188.506 72.1823 187.45 72.7583C186.41 73.3183 185.242 73.5983 183.946 73.5983ZM183.946 70.6703C184.554 70.6703 185.122 70.5263 185.65 70.2383C186.194 69.9343 186.626 69.4863 186.946 68.8943C187.266 68.3023 187.426 67.5823 187.426 66.7343C187.426 65.4703 187.09 64.5023 186.418 63.8303C185.762 63.1423 184.954 62.7983 183.994 62.7983C183.034 62.7983 182.226 63.1423 181.57 63.8303C180.93 64.5023 180.61 65.4703 180.61 66.7343C180.61 67.9983 180.922 68.9743 181.546 69.6623C182.186 70.3343 182.986 70.6703 183.946 70.6703ZM209.379 59.8943C211.011 59.8943 212.323 60.3983 213.315 61.4063C214.323 62.3983 214.827 63.7903 214.827 65.5823V73.3823H211.467V66.0383C211.467 64.9983 211.203 64.2063 210.675 63.6623C210.147 63.1023 209.427 62.8223 208.515 62.8223C207.603 62.8223 206.875 63.1023 206.331 63.6623C205.803 64.2063 205.539 64.9983 205.539 66.0383V73.3823H202.179V66.0383C202.179 64.9983 201.915 64.2063 201.387 63.6623C200.859 63.1023 200.139 62.8223 199.227 62.8223C198.299 62.8223 197.563 63.1023 197.019 63.6623C196.491 64.2063 196.227 64.9983 196.227 66.0383V73.3823H192.867V60.0863H196.227V61.6943C196.659 61.1343 197.211 60.6943 197.883 60.3743C198.571 60.0543 199.323 59.8943 200.139 59.8943C201.179 59.8943 202.107 60.1183 202.923 60.5663C203.739 60.9983 204.371 61.6223 204.819 62.4383C205.251 61.6703 205.875 61.0543 206.691 60.5903C207.523 60.1263 208.419 59.8943 209.379 59.8943ZM220.895 62.0303C221.327 61.3903 221.919 60.8703 222.671 60.4703C223.439 60.0703 224.311 59.8703 225.287 59.8703C226.423 59.8703 227.447 60.1503 228.359 60.7103C229.287 61.2703 230.015 62.0703 230.543 63.1103C231.087 64.1343 231.359 65.3263 231.359 66.6863C231.359 68.0463 231.087 69.2543 230.543 70.3103C230.015 71.3503 229.287 72.1583 228.359 72.7343C227.447 73.3103 226.423 73.5983 225.287 73.5983C224.295 73.5983 223.423 73.4063 222.671 73.0223C221.935 72.6223 221.343 72.1103 220.895 71.4863V73.3823H217.535V55.6223H220.895V62.0303ZM227.927 66.6863C227.927 65.8863 227.759 65.1983 227.423 64.6223C227.103 64.0303 226.671 63.5823 226.127 63.2783C225.599 62.9743 225.023 62.8223 224.399 62.8223C223.791 62.8223 223.215 62.9823 222.671 63.3023C222.143 63.6063 221.711 64.0543 221.375 64.6463C221.055 65.2383 220.895 65.9343 220.895 66.7343C220.895 67.5343 221.055 68.2303 221.375 68.8223C221.711 69.4143 222.143 69.8703 222.671 70.1903C223.215 70.4943 223.791 70.6463 224.399 70.6463C225.023 70.6463 225.599 70.4863 226.127 70.1663C226.671 69.8463 227.103 69.3903 227.423 68.7983C227.759 68.2063 227.927 67.5023 227.927 66.6863ZM236.681 62.1503C237.113 61.4463 237.673 60.8943 238.361 60.4943C239.065 60.0943 239.865 59.8943 240.761 59.8943V63.4223H239.873C238.817 63.4223 238.017 63.6703 237.473 64.1663C236.945 64.6623 236.681 65.5263 236.681 66.7583V73.3823H233.321V60.0863H236.681V62.1503ZM254.904 66.4463C254.904 66.9263 254.872 67.3583 254.808 67.7423H245.088C245.168 68.7023 245.504 69.4543 246.096 69.9983C246.688 70.5423 247.416 70.8143 248.28 70.8143C249.528 70.8143 250.416 70.2783 250.944 69.2063H254.568C254.184 70.4863 253.448 71.5423 252.36 72.3743C251.272 73.1903 249.936 73.5983 248.352 73.5983C247.072 73.5983 245.92 73.3183 244.896 72.7583C243.888 72.1823 243.096 71.3743 242.52 70.3343C241.96 69.2943 241.68 68.0943 241.68 66.7343C241.68 65.3583 241.96 64.1503 242.52 63.1103C243.08 62.0703 243.864 61.2703 244.872 60.7103C245.88 60.1503 247.04 59.8703 248.352 59.8703C249.616 59.8703 250.744 60.1423 251.736 60.6863C252.744 61.2303 253.52 62.0063 254.064 63.0143C254.624 64.0063 254.904 65.1503 254.904 66.4463ZM251.424 65.4863C251.408 64.6223 251.096 63.9343 250.488 63.4223C249.88 62.8943 249.136 62.6303 248.256 62.6303C247.424 62.6303 246.72 62.8863 246.144 63.3983C245.584 63.8943 245.24 64.5903 245.112 65.4863H251.424ZM261.251 66.6863C261.251 65.3423 261.515 64.1503 262.043 63.1103C262.587 62.0703 263.315 61.2703 264.227 60.7103C265.155 60.1503 266.187 59.8703 267.323 59.8703C268.315 59.8703 269.179 60.0703 269.915 60.4703C270.667 60.8703 271.267 61.3743 271.715 61.9823V60.0863H275.099V73.3823H271.715V71.4383C271.283 72.0623 270.683 72.5823 269.915 72.9983C269.163 73.3983 268.291 73.5983 267.299 73.5983C266.179 73.5983 265.155 73.3103 264.227 72.7343C263.315 72.1583 262.587 71.3503 262.043 70.3103C261.515 69.2543 261.251 68.0463 261.251 66.6863ZM271.715 66.7343C271.715 65.9183 271.555 65.2223 271.235 64.6463C270.915 64.0543 270.483 63.6063 269.939 63.3023C269.395 62.9823 268.811 62.8223 268.187 62.8223C267.563 62.8223 266.987 62.9743 266.459 63.2783C265.931 63.5823 265.499 64.0303 265.163 64.6223C264.843 65.1983 264.683 65.8863 264.683 66.6863C264.683 67.4863 264.843 68.1903 265.163 68.7983C265.499 69.3903 265.931 69.8463 266.459 70.1663C267.003 70.4863 267.579 70.6463 268.187 70.6463C268.811 70.6463 269.395 70.4943 269.939 70.1903C270.483 69.8703 270.915 69.4223 271.235 68.8463C271.555 68.2543 271.715 67.5503 271.715 66.7343ZM287.052 62.8463V69.2783C287.052 69.7263 287.156 70.0543 287.364 70.2623C287.588 70.4543 287.956 70.5503 288.468 70.5503H290.028V73.3823H287.916C285.084 73.3823 283.668 72.0063 283.668 69.2543V62.8463H282.084V60.0863H283.668V56.7983H287.052V60.0863H290.028V62.8463H287.052ZM304.517 60.0863V73.3823H301.133V71.7023C300.701 72.2783 300.133 72.7343 299.429 73.0703C298.741 73.3903 297.989 73.5503 297.173 73.5503C296.133 73.5503 295.213 73.3343 294.413 72.9023C293.613 72.4543 292.981 71.8063 292.517 70.9583C292.069 70.0943 291.845 69.0703 291.845 67.8863V60.0863H295.205V67.4063C295.205 68.4623 295.469 69.2783 295.997 69.8543C296.525 70.4143 297.245 70.6943 298.157 70.6943C299.085 70.6943 299.813 70.4143 300.341 69.8543C300.869 69.2783 301.133 68.4623 301.133 67.4063V60.0863H304.517ZM166.015 93.0063C166.447 92.3983 167.039 91.8943 167.791 91.4943C168.559 91.0783 169.431 90.8703 170.407 90.8703C171.543 90.8703 172.567 91.1503 173.479 91.7103C174.407 92.2703 175.135 93.0703 175.663 94.1103C176.207 95.1343 176.479 96.3263 176.479 97.6863C176.479 99.0463 176.207 100.254 175.663 101.31C175.135 102.35 174.407 103.158 173.479 103.734C172.567 104.31 171.543 104.598 170.407 104.598C169.431 104.598 168.567 104.398 167.815 103.998C167.079 103.598 166.479 103.094 166.015 102.486V110.718H162.655V91.0863H166.015V93.0063ZM173.047 97.6863C173.047 96.8863 172.879 96.1983 172.543 95.6223C172.223 95.0303 171.791 94.5823 171.247 94.2783C170.719 93.9743 170.143 93.8223 169.519 93.8223C168.911 93.8223 168.335 93.9823 167.791 94.3023C167.263 94.6063 166.831 95.0543 166.495 95.6463C166.175 96.2383 166.015 96.9343 166.015 97.7343C166.015 98.5343 166.175 99.2303 166.495 99.8223C166.831 100.414 167.263 100.87 167.791 101.19C168.335 101.494 168.911 101.646 169.519 101.646C170.143 101.646 170.719 101.486 171.247 101.166C171.791 100.846 172.223 100.39 172.543 99.7983C172.879 99.2063 173.047 98.5023 173.047 97.6863ZM177.577 97.6863C177.577 96.3423 177.841 95.1503 178.369 94.1103C178.913 93.0703 179.641 92.2703 180.553 91.7103C181.481 91.1503 182.513 90.8703 183.649 90.8703C184.641 90.8703 185.505 91.0703 186.241 91.4703C186.993 91.8703 187.593 92.3743 188.041 92.9823V91.0863H191.425V104.382H188.041V102.438C187.609 103.062 187.009 103.582 186.241 103.998C185.489 104.398 184.617 104.598 183.625 104.598C182.505 104.598 181.481 104.31 180.553 103.734C179.641 103.158 178.913 102.35 178.369 101.31C177.841 100.254 177.577 99.0463 177.577 97.6863ZM188.041 97.7343C188.041 96.9183 187.881 96.2223 187.561 95.6463C187.241 95.0543 186.809 94.6063 186.265 94.3023C185.721 93.9823 185.137 93.8223 184.513 93.8223C183.889 93.8223 183.313 93.9743 182.785 94.2783C182.257 94.5823 181.825 95.0303 181.489 95.6223C181.169 96.1983 181.009 96.8863 181.009 97.6863C181.009 98.4863 181.169 99.1903 181.489 99.7983C181.825 100.39 182.257 100.846 182.785 101.166C183.329 101.486 183.905 101.646 184.513 101.646C185.137 101.646 185.721 101.494 186.265 101.19C186.809 100.87 187.241 100.422 187.561 99.8463C187.881 99.2543 188.041 98.5503 188.041 97.7343ZM197.586 93.1503C198.018 92.4463 198.578 91.8943 199.266 91.4943C199.97 91.0943 200.77 90.8943 201.666 90.8943V94.4223H200.778C199.722 94.4223 198.922 94.6703 198.378 95.1663C197.85 95.6623 197.586 96.5263 197.586 97.7583V104.382H194.226V91.0863H197.586V93.1503ZM202.586 97.7343C202.586 96.3583 202.866 95.1583 203.426 94.1343C203.986 93.0943 204.762 92.2943 205.754 91.7343C206.746 91.1583 207.882 90.8703 209.162 90.8703C210.81 90.8703 212.17 91.2863 213.242 92.1183C214.33 92.9343 215.058 94.0863 215.426 95.5743H211.802C211.61 94.9983 211.282 94.5503 210.818 94.2303C210.37 93.8943 209.81 93.7263 209.138 93.7263C208.178 93.7263 207.418 94.0783 206.858 94.7823C206.298 95.4703 206.018 96.4543 206.018 97.7343C206.018 98.9983 206.298 99.9823 206.858 100.686C207.418 101.374 208.178 101.718 209.138 101.718C210.498 101.718 211.386 101.11 211.802 99.8943H215.426C215.058 101.334 214.33 102.478 213.242 103.326C212.154 104.174 210.794 104.598 209.162 104.598C207.882 104.598 206.746 104.318 205.754 103.758C204.762 103.182 203.986 102.382 203.426 101.358C202.866 100.318 202.586 99.1103 202.586 97.7343ZM229.767 97.4463C229.767 97.9263 229.735 98.3583 229.671 98.7423H219.951C220.031 99.7023 220.367 100.454 220.959 100.998C221.551 101.542 222.279 101.814 223.143 101.814C224.391 101.814 225.279 101.278 225.807 100.206H229.431C229.047 101.486 228.311 102.542 227.223 103.374C226.135 104.19 224.799 104.598 223.215 104.598C221.935 104.598 220.783 104.318 219.759 103.758C218.751 103.182 217.959 102.374 217.383 101.334C216.823 100.294 216.543 99.0943 216.543 97.7343C216.543 96.3583 216.823 95.1503 217.383 94.1103C217.943 93.0703 218.727 92.2703 219.735 91.7103C220.743 91.1503 221.903 90.8703 223.215 90.8703C224.479 90.8703 225.607 91.1423 226.599 91.6863C227.607 92.2303 228.383 93.0063 228.927 94.0143C229.487 95.0063 229.767 96.1503 229.767 97.4463ZM226.287 96.4863C226.271 95.6223 225.959 94.9343 225.351 94.4223C224.743 93.8943 223.999 93.6303 223.119 93.6303C222.287 93.6303 221.583 93.8863 221.007 94.3983C220.447 94.8943 220.103 95.5903 219.975 96.4863H226.287ZM235.1 86.6223V104.382H231.74V86.6223H235.1ZM237.075 97.6863C237.075 96.3423 237.339 95.1503 237.867 94.1103C238.411 93.0703 239.139 92.2703 240.051 91.7103C240.979 91.1503 242.011 90.8703 243.147 90.8703C244.139 90.8703 245.003 91.0703 245.739 91.4703C246.491 91.8703 247.091 92.3743 247.539 92.9823V91.0863H250.923V104.382H247.539V102.438C247.107 103.062 246.507 103.582 245.739 103.998C244.987 104.398 244.115 104.598 243.123 104.598C242.003 104.598 240.979 104.31 240.051 103.734C239.139 103.158 238.411 102.35 237.867 101.31C237.339 100.254 237.075 99.0463 237.075 97.6863ZM247.539 97.7343C247.539 96.9183 247.379 96.2223 247.059 95.6463C246.739 95.0543 246.307 94.6063 245.763 94.3023C245.219 93.9823 244.635 93.8223 244.011 93.8223C243.387 93.8223 242.811 93.9743 242.283 94.2783C241.755 94.5823 241.323 95.0303 240.987 95.6223C240.667 96.1983 240.507 96.8863 240.507 97.6863C240.507 98.4863 240.667 99.1903 240.987 99.7983C241.323 100.39 241.755 100.846 242.283 101.166C242.827 101.486 243.403 101.646 244.011 101.646C244.635 101.646 245.219 101.494 245.763 101.19C246.307 100.87 246.739 100.422 247.059 99.8463C247.379 99.2543 247.539 98.5503 247.539 97.7343ZM255.213 104.55C254.605 104.55 254.101 104.366 253.701 103.998C253.317 103.614 253.125 103.142 253.125 102.582C253.125 102.022 253.317 101.558 253.701 101.19C254.101 100.806 254.605 100.614 255.213 100.614C255.805 100.614 256.293 100.806 256.677 101.19C257.061 101.558 257.253 102.022 257.253 102.582C257.253 103.142 257.061 103.614 256.677 103.998C256.293 104.366 255.805 104.55 255.213 104.55Z" fill="#8F3B06"/>
<defs>
<filter id="filter0_d_2419_8534" x="12.8809" y="0" width="106.238" height="257.697" filterUnits="userSpaceOnUse" color-interpolation-filters="sRGB">
<feFlood flood-opacity="0" result="BackgroundImageFix"/>
<feColorMatrix in="SourceAlpha" type="matrix" values="0 0 0 0 0 0 0 0 0 0 0 0 0 0 0 0 0 0 127 0" result="hardAlpha"/>
<feOffset dy="3.11898"/>
<feGaussianBlur stdDeviation="1.55949"/>
<feComposite in2="hardAlpha" operator="out"/>
<feColorMatrix type="matrix" values="0 0 0 0 0 0 0 0 0 0 0 0 0 0 0 0 0 0 0.25 0"/>
<feBlend mode="normal" in2="BackgroundImageFix" result="effect1_dropShadow_2419_8534"/>
<feBlend mode="normal" in="SourceGraphic" in2="effect1_dropShadow_2419_8534" result="shape"/>
</filter>
<clipPath id="clip0_2419_8534">
<rect width="100" height="104" fill="white" transform="matrix(-1 0 0 1 116 0)"/>
</clipPath>
</defs>
</svg>
