<svg width="360" height="125" viewBox="0 0 360 125" fill="none" xmlns="http://www.w3.org/2000/svg">
<g clip-path="url(#clip0_2424_17987)">
<g filter="url(#filter0_d_2424_17987)">
<path fill-rule="evenodd" clip-rule="evenodd" d="M29.2634 97.2479C33.7361 86.083 37.9781 72.7191 44.6634 68.545C48.5999 66.0881 62.2285 64.4184 62.2285 64.4184H70.665C70.665 64.4184 85.1827 62.7963 89.4653 66.8143C92.9268 70.0654 104.75 94.1326 104.75 94.1326C104.75 94.1326 96.9244 102.372 89.4653 102.372C89.6825 112.363 89.7233 121.397 89.7233 121.397C89.7233 121.397 90.0151 122.734 90.4902 125.191C78.1308 126.222 61.2783 126.263 46.8692 122.625C47.1746 119.041 47.3647 116.883 47.385 116.659L52.2446 84.3319C52.2446 84.3319 49.1768 95.7343 46.9778 102.936C43.5435 102.936 31.9511 100.187 29.2634 97.2411V97.2479Z" fill="#F1D054"/>
<path fill-rule="evenodd" clip-rule="evenodd" d="M66.8578 70.1128H67.0139C69.6609 70.1128 71.8057 67.968 71.8057 65.321V50.2739H62.0593V65.321C62.0593 67.968 64.2041 70.1128 66.851 70.1128H66.8578Z" fill="#EDBA8C"/>
<path opacity="0.25" fill-rule="evenodd" clip-rule="evenodd" d="M71.812 63.9027C68.5678 64.2488 65.2692 64.0995 62.0657 63.4547V56.3757C65.2896 56.8983 68.5474 57.163 71.812 57.1766V63.9027Z" fill="#561C2F" stroke="#EDBA8C" stroke-width="0.347756" stroke-miterlimit="22.93"/>
<path fill-rule="evenodd" clip-rule="evenodd" d="M84.7959 10.2773C84.7959 10.2773 84.2394 5.4924 82.1353 3.3816C80.0245 1.27759 66.4638 -1.34904 59.6156 0.802487C57.4641 3.06939 56.0863 7.54212 56.0863 7.54212L84.7959 10.2773Z" fill="#F1D054"/>
<path fill-rule="evenodd" clip-rule="evenodd" d="M31.1843 18.8971C30.3902 27.6661 47.039 36.3333 68.371 38.2676C89.7031 40.2019 107.635 34.6568 108.429 25.8946C109.223 17.1256 92.574 8.45846 71.242 6.52412C49.91 4.58978 31.9784 10.1349 31.1843 18.8971Z" fill="#F1D054"/>
<mask id="mask0_2424_17987" style="mask-type:luminance" maskUnits="userSpaceOnUse" x="31" y="6" width="78" height="33">
<path d="M31.1843 18.8971C30.3902 27.6661 47.039 36.3333 68.371 38.2676C89.7031 40.2019 107.635 34.6568 108.429 25.8946C109.223 17.1256 92.574 8.45846 71.242 6.52412C49.91 4.58978 31.9784 10.1349 31.1843 18.8971Z" fill="white"/>
</mask>
<g mask="url(#mask0_2424_17987)">
<path opacity="0.3" fill-rule="evenodd" clip-rule="evenodd" d="M31.1843 18.8971C30.3902 27.6661 47.039 36.3333 68.371 38.2676C89.7031 40.2019 107.635 34.6568 108.429 25.8946C109.223 17.1256 92.574 8.45846 71.242 6.52412C49.91 4.58978 31.9784 10.1349 31.1843 18.8971Z" fill="#CB2E45"/>
</g>
<path fill-rule="evenodd" clip-rule="evenodd" d="M44.0456 33.5234C45.5388 36.5641 48.3147 38.2541 50.2491 37.3039C52.1834 36.3537 52.5364 33.123 51.0432 30.0823C49.55 27.0417 46.7741 25.3517 44.8397 26.3019C42.9054 27.2521 42.5525 30.4828 44.0456 33.5234Z" fill="#EDBA8C"/>
<path fill-rule="evenodd" clip-rule="evenodd" d="M49.5433 40.1135L51.4166 22.4737C52.2853 14.2884 59.629 8.35641 67.8143 9.23195L74.9001 9.98532C83.0854 10.8541 89.0174 18.1978 88.1418 26.3831L86.2686 44.0229C85.3998 52.2082 78.0561 58.1401 69.8708 57.2646L62.7851 56.5112C54.5998 55.6425 48.6678 48.2988 49.5433 40.1135Z" fill="#EDBA8C"/>
<path fill-rule="evenodd" clip-rule="evenodd" d="M92.5332 38.4033C90.5106 41.1181 87.4768 42.2787 85.7461 40.9959C84.0153 39.7132 84.2529 36.4689 86.2755 33.7541C88.298 31.0392 91.3319 29.8786 93.0626 31.1614C94.7865 32.4441 94.5558 35.6884 92.5332 38.4033Z" fill="#EDBA8C"/>
<path fill-rule="evenodd" clip-rule="evenodd" d="M92.391 33.4758C89.7304 33.8084 88.7599 36.5911 88.0744 38.7969C87.959 39.1702 87.3685 39.0141 87.4839 38.634C88.2712 36.1092 89.4114 33.2383 92.391 32.865C92.7779 32.8175 92.7779 33.4215 92.391 33.4758Z" fill="#561C2F"/>
<path fill-rule="evenodd" clip-rule="evenodd" d="M90.9245 36.7607C90.334 36.3603 89.7028 36.1024 89.0037 35.9734C88.6169 35.8987 88.7798 35.315 89.1666 35.3829C89.9132 35.5187 90.6055 35.8105 91.2299 36.2313C91.5489 36.4485 91.2503 36.9779 90.9245 36.7539V36.7607Z" fill="#561C2F"/>
<path fill-rule="evenodd" clip-rule="evenodd" d="M48.8986 35.9735C49.0344 33.1636 47.9756 30.5913 45.9055 28.6909C45.6137 28.4262 46.048 27.9918 46.3331 28.2633C48.5118 30.2723 49.6384 33.0211 49.5027 35.9803C49.4823 36.3739 48.8783 36.3739 48.8918 35.9803L48.8986 35.9735Z" fill="#561C2F"/>
<path fill-rule="evenodd" clip-rule="evenodd" d="M48.1723 31.9893C47.2899 32.0979 46.5298 32.5458 45.9732 33.2245C45.7221 33.5299 45.2945 33.0956 45.5456 32.7969C46.2108 31.9825 47.1338 31.5074 48.1723 31.3852C48.5591 31.3377 48.5591 31.9485 48.1723 31.996V31.9893Z" fill="#561C2F"/>
<path fill-rule="evenodd" clip-rule="evenodd" d="M88.1829 24.3266C86.3436 31.202 85.0676 40.3579 85.0676 40.3579C85.0676 40.3579 82.4342 39.7131 80.2487 38.5321C78.0633 37.3512 71.4865 33.2042 62.5003 35.22C54.1386 37.0933 52.5775 37.0593 52.5775 37.0593C52.5775 37.0593 51.254 25.1682 51.7088 19.9761C49.1364 30.3943 37.2522 59.1447 65.9211 61.7985C93.9045 63.8482 88.2779 39.4009 88.1897 24.3334L88.1829 24.3266Z" fill="#CB2E45"/>
<mask id="mask1_2424_17987" style="mask-type:luminance" maskUnits="userSpaceOnUse" x="47" y="19" width="42" height="43">
<path d="M88.1829 24.3266C86.3436 31.202 85.0676 40.3579 85.0676 40.3579C85.0676 40.3579 82.4342 39.7131 80.2487 38.5321C78.0633 37.3512 71.4865 33.2042 62.5003 35.22C54.1386 37.0933 52.5775 37.0593 52.5775 37.0593C52.5775 37.0593 51.254 25.1682 51.7088 19.9761C49.1364 30.3943 37.2522 59.1447 65.9211 61.7985C93.9045 63.8482 88.2779 39.4009 88.1897 24.3334L88.1829 24.3266Z" fill="white"/>
</mask>
<g mask="url(#mask1_2424_17987)">
<path opacity="0.3" fill-rule="evenodd" clip-rule="evenodd" d="M88.1829 24.3266C86.3436 31.202 85.0676 40.3579 85.0676 40.3579C85.0676 40.3579 82.4342 39.7131 80.2487 38.5321C78.0633 37.3512 71.4865 33.2042 62.5003 35.22C54.1386 37.0933 52.5775 37.0593 52.5775 37.0593C52.5775 37.0593 51.254 25.1682 51.7088 19.9761C49.1364 30.3943 37.2522 59.1447 65.9211 61.7985C93.9045 63.8482 88.2779 39.4009 88.1897 24.3334L88.1829 24.3266Z" fill="#561C2F"/>
</g>
<path fill-rule="evenodd" clip-rule="evenodd" d="M46.8694 122.618C46.9509 122.632 47.0391 122.645 47.1273 122.659L47.1477 121.824C58.5705 93.7254 50.9485 66.4207 50.9485 66.4207L56.3375 65.1583C56.3375 65.1583 60.1926 75.5766 59.4732 88.316C59.4732 88.316 73.828 87.9631 82.5291 88.6554C82.373 76.6693 80.459 64.0859 80.459 64.0859L86.1059 64.9275C86.1059 64.9275 91.1759 97.4923 89.4655 102.365L89.7235 121.39L90.2393 123.955H90.2529C90.375 124.58 90.5243 125.326 90.6804 126.168V126.182C93.5989 141.609 101.757 191.963 94.8342 241.244C83.4046 242.079 81.83 241.224 81.83 241.224C81.83 241.224 79.2984 178.68 72.0701 145.579L50.134 239.839L36.9805 238.556C36.9805 238.556 44.7722 147.106 46.8694 122.611V122.618Z" fill="#561C2F"/>
<mask id="mask2_2424_17987" style="mask-type:luminance" maskUnits="userSpaceOnUse" x="36" y="64" width="62" height="178">
<path d="M46.8694 122.618C46.9509 122.632 47.0391 122.645 47.1273 122.659L47.1477 121.824C58.5705 93.7254 50.9485 66.4207 50.9485 66.4207L56.3375 65.1583C56.3375 65.1583 60.1926 75.5766 59.4732 88.316C59.4732 88.316 73.828 87.9631 82.5291 88.6554C82.373 76.6693 80.459 64.0859 80.459 64.0859L86.1059 64.9275C86.1059 64.9275 91.1759 97.4923 89.4655 102.365L89.7235 121.39L90.2393 123.955H90.2529C90.375 124.58 90.5243 125.326 90.6804 126.168V126.182C93.5989 141.609 101.757 191.963 94.8342 241.244C83.4046 242.079 81.83 241.224 81.83 241.224C81.83 241.224 79.2984 178.68 72.0701 145.579L50.134 239.839L36.9805 238.556C36.9805 238.556 44.7722 147.106 46.8694 122.611V122.618Z" fill="white"/>
</mask>
<g mask="url(#mask2_2424_17987)">
<path opacity="0.3" fill-rule="evenodd" clip-rule="evenodd" d="M46.8694 122.618C46.9509 122.632 47.0391 122.645 47.1273 122.659L47.1477 121.824C58.5705 93.7254 50.9485 66.4207 50.9485 66.4207L56.3375 65.1583C56.3375 65.1583 60.1926 75.5766 59.4732 88.316C59.4732 88.316 73.828 87.9631 82.5291 88.6554C82.373 76.6693 80.459 64.0859 80.459 64.0859L86.1059 64.9275C86.1059 64.9275 91.1759 97.4923 89.4655 102.365L89.7235 121.39L90.2393 123.955H90.2529C90.375 124.58 90.5243 125.326 90.6804 126.168V126.182C93.5989 141.609 101.757 191.963 94.8342 241.244C83.4046 242.079 81.83 241.224 81.83 241.224C81.83 241.224 79.2984 178.68 72.0701 145.579L50.134 239.839L36.9805 238.556C36.9805 238.556 44.7722 147.106 46.8694 122.611V122.618Z" fill="#561C2F"/>
</g>
<path fill-rule="evenodd" clip-rule="evenodd" d="M69.1851 34.5006C68.9951 32.417 68.9612 30.313 69.0833 28.2225C69.1444 27.1977 69.2394 26.1728 69.3752 25.1547C69.4702 24.4081 69.4702 23.4036 69.7756 22.7046C70.1896 21.7544 71.6217 21.6526 71.9068 22.7181C72.1375 23.5665 71.805 24.5167 71.7167 25.3651C71.5742 26.8447 71.3706 28.3175 71.3027 29.7971C71.2688 30.5166 71.2688 31.2292 71.3163 31.9487C71.3434 32.3898 71.1941 33.245 71.5267 33.5844C71.71 33.7676 72.0222 33.8219 72.2393 33.6794C72.409 33.5708 72.4905 33.3672 72.633 33.2246C72.8773 32.9667 73.2914 32.9057 73.6239 33.0346C74.3501 33.3265 74.2619 33.9305 74.1194 34.5617C73.909 35.4712 73.461 36.3264 72.8027 36.9983C72.4565 37.3512 72.0357 37.6567 71.5471 37.7177C70.8073 37.8128 70.0878 37.3037 69.7213 36.6589C69.348 36.0074 69.2598 35.2472 69.1919 34.5006H69.1851Z" fill="#F1D054"/>
<path fill-rule="evenodd" clip-rule="evenodd" d="M75.8911 31.4804C75.7214 32.8039 76.2983 33.9713 77.1739 34.0799C78.0494 34.1885 78.8978 33.2044 79.0607 31.8809C79.2304 30.5574 78.6535 29.39 77.7779 29.2814C76.9024 29.1728 76.054 30.1569 75.8911 31.4804Z" fill="#561C2F"/>
<path fill-rule="evenodd" clip-rule="evenodd" d="M65.8938 30.4964C65.9345 31.8334 65.249 32.9397 64.3667 32.9601C63.4843 32.9873 62.7378 31.9217 62.697 30.5846C62.6563 29.2475 63.3418 28.1412 64.2241 28.1209C65.1065 28.0937 65.8531 29.1593 65.8938 30.4964Z" fill="#561C2F"/>
<path fill-rule="evenodd" clip-rule="evenodd" d="M81.7822 27.0279C80.9949 25.0596 79.0741 24.0619 77.0108 24.313C76.2031 24.408 76.2099 23.1456 77.0108 23.0506C79.6849 22.7316 82.0197 24.2316 83.0039 26.6953C83.3093 27.4555 82.0808 27.7813 81.7822 27.0347V27.0279Z" fill="#561C2F"/>
<path fill-rule="evenodd" clip-rule="evenodd" d="M65.9685 22.9895C64.1292 22.2769 62.1813 22.8267 60.9596 24.3741C60.4574 25.0121 59.5682 24.1162 60.0637 23.4782C61.5297 21.6118 64.0953 20.9195 66.3011 21.7679C67.0545 22.0597 66.7287 23.2814 65.9617 22.9895H65.9685Z" fill="#561C2F"/>
<path fill-rule="evenodd" clip-rule="evenodd" d="M31.6796 99.3723L45.3489 104.673C45.0163 106.18 44.6837 107.687 44.3512 109.193C53.6495 109.539 62.9411 109.96 72.2328 110.422C72.9929 112.974 73.6241 115.566 73.9771 118.207C60.5656 123.507 45.152 123.541 31.7203 118.288C31.2316 118.098 30.7226 117.881 30.3832 117.48C29.942 116.958 29.8606 116.225 29.8199 115.546C29.4805 110.096 30.1185 104.592 31.6931 99.3655L31.6796 99.3723Z" fill="#EDBA8C"/>
<mask id="mask3_2424_17987" style="mask-type:luminance" maskUnits="userSpaceOnUse" x="29" y="99" width="45" height="24">
<path d="M31.6796 99.3723L45.3489 104.673C45.0163 106.18 44.6837 107.687 44.3512 109.193C53.6495 109.539 62.9411 109.96 72.2328 110.422C72.9929 112.974 73.6241 115.566 73.9771 118.207C60.5656 123.507 45.152 123.541 31.7203 118.288C31.2316 118.098 30.7226 117.881 30.3832 117.48C29.942 116.958 29.8606 116.225 29.8199 115.546C29.4805 110.096 30.1185 104.592 31.6931 99.3655L31.6796 99.3723Z" fill="white"/>
</mask>
<g mask="url(#mask3_2424_17987)">
<path opacity="0.2" fill-rule="evenodd" clip-rule="evenodd" d="M31.6796 99.3723L45.3489 104.673C45.0163 106.18 44.6837 107.687 44.3512 109.193C53.6495 109.539 62.9411 109.96 72.2328 110.422C72.9929 112.974 73.6241 115.566 73.9771 118.207C60.5656 123.507 45.152 123.541 31.7203 118.288C31.2316 118.098 30.7226 117.881 30.3832 117.48C29.942 116.958 29.8606 116.225 29.8199 115.546C29.4805 110.096 30.1185 104.592 31.6931 99.3655L31.6796 99.3723Z" fill="#CB2E45"/>
</g>
<path fill-rule="evenodd" clip-rule="evenodd" d="M72.4429 40.1134C69.857 42.0071 66.416 40.3374 66.1377 37.195C66.1037 36.7877 66.7349 36.7945 66.7689 37.195C67.0064 39.9098 69.9656 41.1451 72.1239 39.5637C72.4565 39.3193 72.7687 39.8691 72.4429 40.1134Z" fill="#EDBA8C"/>
<path opacity="0.16" fill-rule="evenodd" clip-rule="evenodd" d="M88.2573 27.9511C87.8094 27.8358 87.3682 27.7204 86.927 27.605C80.8797 26.044 74.6762 24.9105 68.4592 24.32C64.1629 23.9128 59.8803 23.8042 55.6044 23.9399C53.9211 23.9196 52.2515 23.9196 50.609 23.9399C50.609 23.9399 52.2447 17.465 53.6632 15.456C65.0928 14.8452 77.1128 16.2297 87.6058 20.5124C88.1623 22.3585 88.3659 24.3404 88.1487 26.3765L88.2573 27.9444V27.9511Z" fill="#561C2F"/>
<path fill-rule="evenodd" clip-rule="evenodd" d="M49.4891 13.2094L57.6133 9.01498C60.7354 8.96069 63.8643 8.94711 66.9864 8.99462C71.0519 9.05571 75.0563 9.19824 79.0878 9.67334L79.7055 9.91089L85.6782 13.2162L93.5648 18.1708C93.5648 18.1708 96.0353 19.9423 96.0353 21.2318L96.877 26.0643C96.877 26.0643 74.1061 14.18 45.6408 19.7726C29.2702 20.4513 49.5027 13.2094 49.5027 13.2094H49.4891Z" fill="#F1D054"/>
<mask id="mask4_2424_17987" style="mask-type:luminance" maskUnits="userSpaceOnUse" x="39" y="8" width="58" height="19">
<path d="M49.4891 13.2094L57.6133 9.01498C60.7354 8.96069 63.8643 8.94711 66.9864 8.99462C71.0519 9.05571 75.0563 9.19824 79.0878 9.67334L79.7055 9.91089L85.6782 13.2162L93.5648 18.1708C93.5648 18.1708 96.0353 19.9423 96.0353 21.2318L96.877 26.0643C96.877 26.0643 74.1061 14.18 45.6408 19.7726C29.2702 20.4513 49.5027 13.2094 49.5027 13.2094H49.4891Z" fill="white"/>
</mask>
<g mask="url(#mask4_2424_17987)">
<path opacity="0.3" fill-rule="evenodd" clip-rule="evenodd" d="M49.4891 13.2094L57.6133 9.01498C60.7354 8.96069 63.8643 8.94711 66.9864 8.99462C71.0519 9.05571 75.0563 9.19824 79.0878 9.67334L79.7055 9.91089L85.6782 13.2162L93.5648 18.1708C93.5648 18.1708 96.0353 19.9423 96.0353 21.2318L96.877 26.0643C96.877 26.0643 74.1061 14.18 45.6408 19.7726C29.2702 20.4513 49.5027 13.2094 49.5027 13.2094H49.4891Z" fill="#CB2E45"/>
</g>
<path fill-rule="evenodd" clip-rule="evenodd" d="M104.03 96.9965C106.338 102.738 107.661 108.881 107.926 115.064C107.953 115.654 107.96 116.292 107.641 116.795C107.37 117.229 106.901 117.494 106.447 117.724C99.4083 121.308 91.0465 120.568 83.1938 119.733C82.2029 119.625 71.0313 118.145 71.0652 117.697C71.2484 115.193 71.6421 112.709 72.2326 110.265C76.3863 109.166 80.6351 109.078 84.911 108.704C87.3543 108.494 89.8181 108.161 92.2547 107.971C92.18 106.288 92.0986 104.605 92.0239 102.922L104.03 96.9897V96.9965Z" fill="#EDBA8C"/>
<path opacity="0.15" fill-rule="evenodd" clip-rule="evenodd" d="M31.6798 99.3721L45.3491 104.673C45.0776 105.915 44.7994 107.157 44.5211 108.399C43.6591 108.474 42.7971 108.508 41.9352 108.514C37.9443 108.548 33.9467 108.223 30.0034 107.571C30.3156 104.795 30.8653 102.046 31.673 99.3721H31.6798Z" fill="#561C2F"/>
<path opacity="0.15" fill-rule="evenodd" clip-rule="evenodd" d="M92.167 106.119C92.1195 105.053 92.0719 103.988 92.0176 102.929L104.024 96.9968C104.839 99.0194 105.524 101.089 106.087 103.2C101.703 105.399 96.8976 106.662 92.167 106.126V106.119Z" fill="#561C2F"/>
<path fill-rule="evenodd" clip-rule="evenodd" d="M47.2764 97.8315C43.6793 96.7863 35.2157 94.2683 31.5506 92.7548C30.5733 92.3475 29.4602 92.843 29.0869 93.8271C28.51 95.3475 28.1503 96.6506 27.9399 97.5533C27.7498 98.3474 28.096 99.1686 28.8018 99.5894C31.4963 101.191 38.6432 104.944 45.9869 104.578C46.8013 104.537 47.514 103.994 47.738 103.207C48.1181 101.863 48.3895 100.825 48.566 100.051C48.7968 99.0804 48.2266 98.1098 47.2697 97.8315H47.2764Z" fill="#F1D054"/>
<path fill-rule="evenodd" clip-rule="evenodd" d="M104.533 91.2277L106.08 94.3362C106.487 95.1506 106.351 96.128 105.727 96.7931C103.766 98.8768 98.9263 103.078 91.2976 103.669C90.2456 103.75 89.2886 103.058 89.0171 102.04C88.5692 100.35 88.2434 99.1483 88.0126 98.2999C87.7072 97.1936 88.3045 96.0465 89.3904 95.6665C92.4243 94.6009 98.268 92.4222 101.404 90.3725C102.49 89.6598 103.956 90.0671 104.533 91.2345V91.2277Z" fill="#F1D054"/>
<path opacity="0.3" fill-rule="evenodd" clip-rule="evenodd" d="M47.2764 97.8315C43.6793 96.7863 35.2157 94.2683 31.5506 92.7548C30.5733 92.3475 29.4602 92.843 29.0869 93.8271C28.51 95.3475 28.1503 96.6506 27.9399 97.5533C27.7498 98.3474 28.096 99.1686 28.8018 99.5894C31.4963 101.191 38.6432 104.944 45.9869 104.578C46.8013 104.537 47.514 103.994 47.738 103.207C48.1181 101.863 48.3895 100.825 48.566 100.051C48.7968 99.0804 48.2266 98.1098 47.2697 97.8315H47.2764Z" fill="#CB2E45"/>
<path opacity="0.3" fill-rule="evenodd" clip-rule="evenodd" d="M104.533 91.2277L106.08 94.3362C106.487 95.1506 106.351 96.128 105.727 96.7931C103.766 98.8768 98.9263 103.078 91.2976 103.669C90.2456 103.75 89.2886 103.058 89.0171 102.04C88.5692 100.35 88.2434 99.1483 88.0126 98.2999C87.7072 97.1936 88.3045 96.0465 89.3904 95.6665C92.4243 94.6009 98.268 92.4222 101.404 90.3725C102.49 89.6598 103.956 90.0671 104.533 91.2345V91.2277Z" fill="#CB2E45"/>
<path opacity="0.3" fill-rule="evenodd" clip-rule="evenodd" d="M69.1851 34.5006C68.9951 32.417 68.9612 30.313 69.0833 28.2225C69.1444 27.1977 69.2394 26.1728 69.3752 25.1547C69.4702 24.4081 69.4702 23.4036 69.7756 22.7046C70.1896 21.7544 71.6217 21.6526 71.9068 22.7181C72.1375 23.5665 71.805 24.5167 71.7167 25.3651C71.5742 26.8447 71.3706 28.3175 71.3027 29.7971C71.2688 30.5166 71.2688 31.2292 71.3163 31.9487C71.3434 32.3898 71.1941 33.245 71.5267 33.5844C71.71 33.7676 72.0222 33.8219 72.2393 33.6794C72.409 33.5708 72.4905 33.3672 72.633 33.2246C72.8773 32.9667 73.2914 32.9057 73.6239 33.0346C74.3501 33.3265 74.2619 33.9305 74.1194 34.5617C73.909 35.4712 73.461 36.3264 72.8027 36.9983C72.4565 37.3512 72.0357 37.6567 71.5471 37.7177C70.8073 37.8128 70.0878 37.3037 69.7213 36.6589C69.348 36.0074 69.2598 35.2472 69.1919 34.5006H69.1851Z" fill="#CB2E45"/>
</g>
</g>
<path d="M168.304 18.8548C152.749 19.3607 136.962 31.3505 121.6 44.4092L151.939 64.2098C151.627 41.4838 156.408 33.533 168.304 18.8548Z" fill="white"/>
<rect x="144.098" width="199.902" height="125" rx="16" fill="white"/>
<path d="M161.839 33.9823C161.839 32.3343 162.207 30.8623 162.943 29.5663C163.695 28.2543 164.711 27.2383 165.991 26.5183C167.287 25.7823 168.735 25.4143 170.335 25.4143C172.207 25.4143 173.847 25.8943 175.255 26.8543C176.663 27.8143 177.647 29.1423 178.207 30.8383H174.343C173.959 30.0383 173.415 29.4383 172.711 29.0383C172.023 28.6383 171.223 28.4383 170.311 28.4383C169.335 28.4383 168.463 28.6703 167.695 29.1343C166.943 29.5823 166.351 30.2223 165.919 31.0543C165.503 31.8863 165.295 32.8623 165.295 33.9823C165.295 35.0863 165.503 36.0623 165.919 36.9103C166.351 37.7423 166.943 38.3903 167.695 38.8543C168.463 39.3023 169.335 39.5263 170.311 39.5263C171.223 39.5263 172.023 39.3263 172.711 38.9263C173.415 38.5103 173.959 37.9023 174.343 37.1023H178.207C177.647 38.8143 176.663 40.1503 175.255 41.1103C173.863 42.0543 172.223 42.5263 170.335 42.5263C168.735 42.5263 167.287 42.1663 165.991 41.4463C164.711 40.7103 163.695 39.6943 162.943 38.3983C162.207 37.1023 161.839 35.6303 161.839 33.9823ZM183.957 31.1503C184.389 30.4463 184.949 29.8943 185.637 29.4943C186.341 29.0943 187.141 28.8943 188.037 28.8943V32.4223H187.149C186.093 32.4223 185.293 32.6703 184.749 33.1663C184.221 33.6623 183.957 34.5263 183.957 35.7583V42.3823H180.597V29.0863H183.957V31.1503ZM202.18 35.4463C202.18 35.9263 202.148 36.3583 202.084 36.7423H192.364C192.444 37.7023 192.78 38.4543 193.372 38.9983C193.964 39.5423 194.692 39.8143 195.556 39.8143C196.804 39.8143 197.692 39.2783 198.22 38.2063H201.844C201.46 39.4863 200.724 40.5423 199.636 41.3743C198.548 42.1903 197.212 42.5983 195.628 42.5983C194.348 42.5983 193.196 42.3183 192.172 41.7583C191.164 41.1823 190.372 40.3743 189.796 39.3343C189.236 38.2943 188.956 37.0943 188.956 35.7343C188.956 34.3583 189.236 33.1503 189.796 32.1103C190.356 31.0703 191.14 30.2703 192.148 29.7103C193.156 29.1503 194.316 28.8703 195.628 28.8703C196.892 28.8703 198.02 29.1423 199.012 29.6863C200.02 30.2303 200.796 31.0063 201.34 32.0143C201.9 33.0063 202.18 34.1503 202.18 35.4463ZM198.7 34.4863C198.684 33.6223 198.372 32.9343 197.764 32.4223C197.156 31.8943 196.412 31.6303 195.532 31.6303C194.7 31.6303 193.996 31.8863 193.42 32.3983C192.86 32.8943 192.516 33.5903 192.388 34.4863H198.7ZM203.289 35.6863C203.289 34.3423 203.553 33.1503 204.081 32.1103C204.625 31.0703 205.353 30.2703 206.265 29.7103C207.193 29.1503 208.225 28.8703 209.361 28.8703C210.353 28.8703 211.217 29.0703 211.953 29.4703C212.705 29.8703 213.305 30.3743 213.753 30.9823V29.0863H217.137V42.3823H213.753V40.4383C213.321 41.0623 212.721 41.5823 211.953 41.9983C211.201 42.3983 210.329 42.5983 209.337 42.5983C208.217 42.5983 207.193 42.3103 206.265 41.7343C205.353 41.1583 204.625 40.3503 204.081 39.3103C203.553 38.2543 203.289 37.0463 203.289 35.6863ZM213.753 35.7343C213.753 34.9183 213.593 34.2223 213.273 33.6463C212.953 33.0543 212.521 32.6063 211.977 32.3023C211.433 31.9823 210.849 31.8223 210.225 31.8223C209.601 31.8223 209.025 31.9743 208.497 32.2783C207.969 32.5823 207.537 33.0303 207.201 33.6223C206.881 34.1983 206.721 34.8863 206.721 35.6863C206.721 36.4863 206.881 37.1903 207.201 37.7983C207.537 38.3903 207.969 38.8463 208.497 39.1663C209.041 39.4863 209.617 39.6463 210.225 39.6463C210.849 39.6463 211.433 39.4943 211.977 39.1903C212.521 38.8703 212.953 38.4223 213.273 37.8463C213.593 37.2543 213.753 36.5503 213.753 35.7343ZM237.729 29.0863V42.3823H234.345V40.7023C233.913 41.2783 233.345 41.7343 232.641 42.0703C231.953 42.3903 231.201 42.5503 230.385 42.5503C229.345 42.5503 228.425 42.3343 227.625 41.9023C226.825 41.4543 226.193 40.8063 225.729 39.9583C225.281 39.0943 225.057 38.0703 225.057 36.8863V29.0863H228.417V36.4063C228.417 37.4623 228.681 38.2783 229.209 38.8543C229.737 39.4143 230.457 39.6943 231.369 39.6943C232.297 39.6943 233.025 39.4143 233.553 38.8543C234.081 38.2783 234.345 37.4623 234.345 36.4063V29.0863H237.729ZM247.932 28.8943C249.516 28.8943 250.796 29.3983 251.772 30.4063C252.748 31.3983 253.236 32.7903 253.236 34.5823V42.3823H249.876V35.0383C249.876 33.9823 249.612 33.1743 249.084 32.6143C248.556 32.0383 247.836 31.7503 246.924 31.7503C245.996 31.7503 245.26 32.0383 244.716 32.6143C244.188 33.1743 243.924 33.9823 243.924 35.0383V42.3823H240.564V29.0863H243.924V30.7423C244.372 30.1663 244.94 29.7183 245.628 29.3983C246.332 29.0623 247.1 28.8943 247.932 28.8943ZM255.087 35.6863C255.087 34.3423 255.351 33.1503 255.879 32.1103C256.423 31.0703 257.151 30.2703 258.063 29.7103C258.991 29.1503 260.023 28.8703 261.159 28.8703C262.151 28.8703 263.015 29.0703 263.751 29.4703C264.503 29.8703 265.103 30.3743 265.551 30.9823V29.0863H268.935V42.3823H265.551V40.4383C265.119 41.0623 264.519 41.5823 263.751 41.9983C262.999 42.3983 262.127 42.5983 261.135 42.5983C260.015 42.5983 258.991 42.3103 258.063 41.7343C257.151 41.1583 256.423 40.3503 255.879 39.3103C255.351 38.2543 255.087 37.0463 255.087 35.6863ZM265.551 35.7343C265.551 34.9183 265.391 34.2223 265.071 33.6463C264.751 33.0543 264.319 32.6063 263.775 32.3023C263.231 31.9823 262.647 31.8223 262.023 31.8223C261.399 31.8223 260.823 31.9743 260.295 32.2783C259.767 32.5823 259.335 33.0303 258.999 33.6223C258.679 34.1983 258.519 34.8863 258.519 35.6863C258.519 36.4863 258.679 37.1903 258.999 37.7983C259.335 38.3903 259.767 38.8463 260.295 39.1663C260.839 39.4863 261.415 39.6463 262.023 39.6463C262.647 39.6463 263.231 39.4943 263.775 39.1903C264.319 38.8703 264.751 38.4223 265.071 37.8463C265.391 37.2543 265.551 36.5503 265.551 35.7343ZM161.791 66.7343C161.791 65.3583 162.071 64.1583 162.631 63.1343C163.191 62.0943 163.967 61.2943 164.959 60.7343C165.951 60.1583 167.087 59.8703 168.367 59.8703C170.015 59.8703 171.375 60.2863 172.447 61.1183C173.535 61.9343 174.263 63.0863 174.631 64.5743H171.007C170.815 63.9983 170.487 63.5503 170.023 63.2303C169.575 62.8943 169.015 62.7263 168.343 62.7263C167.383 62.7263 166.623 63.0783 166.063 63.7823C165.503 64.4703 165.223 65.4543 165.223 66.7343C165.223 67.9983 165.503 68.9823 166.063 69.6863C166.623 70.3743 167.383 70.7183 168.343 70.7183C169.703 70.7183 170.591 70.1103 171.007 68.8943H174.631C174.263 70.3343 173.535 71.4783 172.447 72.3263C171.359 73.1743 169.999 73.5983 168.367 73.5983C167.087 73.5983 165.951 73.3183 164.959 72.7583C163.967 72.1823 163.191 71.3823 162.631 70.3583C162.071 69.3183 161.791 68.1103 161.791 66.7343ZM182.517 73.5983C181.237 73.5983 180.085 73.3183 179.061 72.7583C178.037 72.1823 177.229 71.3743 176.637 70.3343C176.061 69.2943 175.773 68.0943 175.773 66.7343C175.773 65.3743 176.069 64.1743 176.661 63.1343C177.269 62.0943 178.093 61.2943 179.133 60.7343C180.173 60.1583 181.333 59.8703 182.613 59.8703C183.893 59.8703 185.053 60.1583 186.093 60.7343C187.133 61.2943 187.949 62.0943 188.541 63.1343C189.149 64.1743 189.453 65.3743 189.453 66.7343C189.453 68.0943 189.141 69.2943 188.517 70.3343C187.909 71.3743 187.077 72.1823 186.021 72.7583C184.981 73.3183 183.813 73.5983 182.517 73.5983ZM182.517 70.6703C183.125 70.6703 183.693 70.5263 184.221 70.2383C184.765 69.9343 185.197 69.4863 185.517 68.8943C185.837 68.3023 185.997 67.5823 185.997 66.7343C185.997 65.4703 185.661 64.5023 184.989 63.8303C184.333 63.1423 183.525 62.7983 182.565 62.7983C181.605 62.7983 180.797 63.1423 180.141 63.8303C179.501 64.5023 179.181 65.4703 179.181 66.7343C179.181 67.9983 179.493 68.9743 180.117 69.6623C180.757 70.3343 181.557 70.6703 182.517 70.6703ZM198.805 59.8943C200.389 59.8943 201.669 60.3983 202.645 61.4063C203.621 62.3983 204.109 63.7903 204.109 65.5823V73.3823H200.749V66.0383C200.749 64.9823 200.485 64.1743 199.957 63.6143C199.429 63.0383 198.709 62.7503 197.797 62.7503C196.869 62.7503 196.133 63.0383 195.589 63.6143C195.061 64.1743 194.797 64.9823 194.797 66.0383V73.3823H191.437V60.0863H194.797V61.7423C195.245 61.1663 195.813 60.7183 196.501 60.3983C197.205 60.0623 197.973 59.8943 198.805 59.8943ZM210.736 62.8463V69.2783C210.736 69.7263 210.84 70.0543 211.048 70.2623C211.272 70.4543 211.64 70.5503 212.152 70.5503H213.712V73.3823H211.6C208.768 73.3823 207.352 72.0063 207.352 69.2543V62.8463H205.768V60.0863H207.352V56.7983H210.736V60.0863H213.712V62.8463H210.736ZM219.009 62.1503C219.441 61.4463 220.001 60.8943 220.689 60.4943C221.393 60.0943 222.193 59.8943 223.089 59.8943V63.4223H222.201C221.145 63.4223 220.345 63.6703 219.801 64.1663C219.273 64.6623 219.009 65.5263 219.009 66.7583V73.3823H215.649V60.0863H219.009V62.1503ZM224.008 66.6863C224.008 65.3423 224.272 64.1503 224.8 63.1103C225.344 62.0703 226.072 61.2703 226.984 60.7103C227.912 60.1503 228.944 59.8703 230.08 59.8703C231.072 59.8703 231.936 60.0703 232.672 60.4703C233.424 60.8703 234.024 61.3743 234.472 61.9823V60.0863H237.856V73.3823H234.472V71.4383C234.04 72.0623 233.44 72.5823 232.672 72.9983C231.92 73.3983 231.048 73.5983 230.056 73.5983C228.936 73.5983 227.912 73.3103 226.984 72.7343C226.072 72.1583 225.344 71.3503 224.8 70.3103C224.272 69.2543 224.008 68.0463 224.008 66.6863ZM234.472 66.7343C234.472 65.9183 234.312 65.2223 233.992 64.6463C233.672 64.0543 233.24 63.6063 232.696 63.3023C232.152 62.9823 231.568 62.8223 230.944 62.8223C230.32 62.8223 229.744 62.9743 229.216 63.2783C228.688 63.5823 228.256 64.0303 227.92 64.6223C227.6 65.1983 227.44 65.8863 227.44 66.6863C227.44 67.4863 227.6 68.1903 227.92 68.7983C228.256 69.3903 228.688 69.8463 229.216 70.1663C229.76 70.4863 230.336 70.6463 230.944 70.6463C231.568 70.6463 232.152 70.4943 232.696 70.1903C233.24 69.8703 233.672 69.4223 233.992 68.8463C234.312 68.2543 234.472 67.5503 234.472 66.7343ZM245.746 73.5983C244.658 73.5983 243.682 73.4063 242.818 73.0223C241.954 72.6223 241.266 72.0863 240.754 71.4143C240.258 70.7423 239.986 69.9983 239.938 69.1823H243.322C243.386 69.6943 243.634 70.1183 244.066 70.4543C244.514 70.7903 245.066 70.9583 245.722 70.9583C246.362 70.9583 246.858 70.8303 247.21 70.5743C247.578 70.3183 247.762 69.9903 247.762 69.5903C247.762 69.1583 247.538 68.8383 247.09 68.6303C246.658 68.4063 245.962 68.1663 245.002 67.9103C244.01 67.6703 243.194 67.4223 242.554 67.1663C241.93 66.9103 241.386 66.5183 240.922 65.9903C240.474 65.4623 240.25 64.7503 240.25 63.8543C240.25 63.1183 240.458 62.4463 240.874 61.8383C241.306 61.2303 241.914 60.7503 242.698 60.3983C243.498 60.0463 244.434 59.8703 245.506 59.8703C247.09 59.8703 248.354 60.2703 249.298 61.0703C250.242 61.8543 250.762 62.9183 250.858 64.2623H247.642C247.594 63.7343 247.37 63.3183 246.97 63.0143C246.586 62.6943 246.066 62.5343 245.41 62.5343C244.802 62.5343 244.33 62.6463 243.994 62.8703C243.674 63.0943 243.514 63.4063 243.514 63.8063C243.514 64.2543 243.738 64.5983 244.186 64.8383C244.634 65.0623 245.33 65.2943 246.274 65.5343C247.234 65.7743 248.026 66.0223 248.65 66.2783C249.274 66.5343 249.81 66.9343 250.258 67.4783C250.722 68.0063 250.962 68.7103 250.978 69.5903C250.978 70.3583 250.762 71.0463 250.33 71.6543C249.914 72.2623 249.306 72.7423 248.506 73.0943C247.722 73.4303 246.802 73.5983 245.746 73.5983ZM265.616 66.4463C265.616 66.9263 265.584 67.3583 265.52 67.7423H255.8C255.88 68.7023 256.216 69.4543 256.808 69.9983C257.4 70.5423 258.128 70.8143 258.992 70.8143C260.24 70.8143 261.128 70.2783 261.656 69.2063H265.28C264.896 70.4863 264.16 71.5423 263.072 72.3743C261.984 73.1903 260.648 73.5983 259.064 73.5983C257.784 73.5983 256.632 73.3183 255.608 72.7583C254.6 72.1823 253.808 71.3743 253.232 70.3343C252.672 69.2943 252.392 68.0943 252.392 66.7343C252.392 65.3583 252.672 64.1503 253.232 63.1103C253.792 62.0703 254.576 61.2703 255.584 60.7103C256.592 60.1503 257.752 59.8703 259.064 59.8703C260.328 59.8703 261.456 60.1423 262.448 60.6863C263.456 61.2303 264.232 62.0063 264.776 63.0143C265.336 64.0063 265.616 65.1503 265.616 66.4463ZM262.136 65.4863C262.12 64.6223 261.808 63.9343 261.2 63.4223C260.592 62.8943 259.848 62.6303 258.968 62.6303C258.136 62.6303 257.432 62.8863 256.856 63.3983C256.296 63.8943 255.952 64.5903 255.824 65.4863H262.136ZM274.956 59.8943C276.54 59.8943 277.82 60.3983 278.796 61.4063C279.772 62.3983 280.26 63.7903 280.26 65.5823V73.3823H276.9V66.0383C276.9 64.9823 276.636 64.1743 276.108 63.6143C275.58 63.0383 274.86 62.7503 273.948 62.7503C273.02 62.7503 272.284 63.0383 271.74 63.6143C271.212 64.1743 270.948 64.9823 270.948 66.0383V73.3823H267.588V60.0863H270.948V61.7423C271.396 61.1663 271.964 60.7183 272.652 60.3983C273.356 60.0623 274.124 59.8943 274.956 59.8943ZM269.94 58.8143C270.084 57.7583 270.412 56.9743 270.924 56.4623C271.452 55.9343 272.116 55.6703 272.916 55.6703C273.252 55.6703 273.548 55.7263 273.804 55.8383C274.06 55.9343 274.348 56.0783 274.668 56.2703C275.148 56.5743 275.548 56.7263 275.868 56.7263C276.46 56.7263 276.804 56.3823 276.9 55.6943H278.7C278.556 56.7503 278.22 57.5423 277.692 58.0703C277.18 58.5823 276.524 58.8383 275.724 58.8383C275.388 58.8383 275.092 58.7903 274.836 58.6943C274.58 58.5823 274.292 58.4303 273.972 58.2383C273.508 57.9183 273.108 57.7583 272.772 57.7583C272.18 57.7583 271.828 58.1103 271.716 58.8143H269.94ZM282.112 66.6863C282.112 65.3423 282.376 64.1503 282.904 63.1103C283.448 62.0703 284.176 61.2703 285.088 60.7103C286.016 60.1503 287.048 59.8703 288.184 59.8703C289.176 59.8703 290.04 60.0703 290.776 60.4703C291.528 60.8703 292.128 61.3743 292.576 61.9823V60.0863H295.96V73.3823H292.576V71.4383C292.144 72.0623 291.544 72.5823 290.776 72.9983C290.024 73.3983 289.152 73.5983 288.16 73.5983C287.04 73.5983 286.016 73.3103 285.088 72.7343C284.176 72.1583 283.448 71.3503 282.904 70.3103C282.376 69.2543 282.112 68.0463 282.112 66.6863ZM292.576 66.7343C292.576 65.9183 292.416 65.2223 292.096 64.6463C291.776 64.0543 291.344 63.6063 290.8 63.3023C290.256 62.9823 289.672 62.8223 289.048 62.8223C288.424 62.8223 287.848 62.9743 287.32 63.2783C286.792 63.5823 286.36 64.0303 286.024 64.6223C285.704 65.1983 285.544 65.8863 285.544 66.6863C285.544 67.4863 285.704 68.1903 286.024 68.7983C286.36 69.3903 286.792 69.8463 287.32 70.1663C287.864 70.4863 288.44 70.6463 289.048 70.6463C289.672 70.6463 290.256 70.4943 290.8 70.1903C291.344 69.8703 291.776 69.4223 292.096 68.8463C292.416 68.2543 292.576 67.5503 292.576 66.7343ZM303.136 66.6863C303.136 65.3423 303.4 64.1503 303.928 63.1103C304.472 62.0703 305.208 61.2703 306.136 60.7103C307.064 60.1503 308.096 59.8703 309.232 59.8703C310.096 59.8703 310.92 60.0623 311.704 60.4463C312.488 60.8143 313.112 61.3103 313.576 61.9343V55.6223H316.984V73.3823H313.576V71.4143C313.16 72.0703 312.576 72.5983 311.824 72.9983C311.072 73.3983 310.2 73.5983 309.208 73.5983C308.088 73.5983 307.064 73.3103 306.136 72.7343C305.208 72.1583 304.472 71.3503 303.928 70.3103C303.4 69.2543 303.136 68.0463 303.136 66.6863ZM313.6 66.7343C313.6 65.9183 313.44 65.2223 313.12 64.6463C312.8 64.0543 312.368 63.6063 311.824 63.3023C311.28 62.9823 310.696 62.8223 310.072 62.8223C309.448 62.8223 308.872 62.9743 308.344 63.2783C307.816 63.5823 307.384 64.0303 307.048 64.6223C306.728 65.1983 306.568 65.8863 306.568 66.6863C306.568 67.4863 306.728 68.1903 307.048 68.7983C307.384 69.3903 307.816 69.8463 308.344 70.1663C308.888 70.4863 309.464 70.6463 310.072 70.6463C310.696 70.6463 311.28 70.4943 311.824 70.1903C312.368 69.8703 312.8 69.4223 313.12 68.8463C313.44 68.2543 313.6 67.5503 313.6 66.7343ZM332.146 66.4463C332.146 66.9263 332.114 67.3583 332.05 67.7423H322.33C322.41 68.7023 322.746 69.4543 323.338 69.9983C323.93 70.5423 324.658 70.8143 325.522 70.8143C326.77 70.8143 327.658 70.2783 328.186 69.2063H331.81C331.426 70.4863 330.69 71.5423 329.602 72.3743C328.514 73.1903 327.178 73.5983 325.594 73.5983C324.314 73.5983 323.162 73.3183 322.138 72.7583C321.13 72.1823 320.338 71.3743 319.762 70.3343C319.202 69.2943 318.922 68.0943 318.922 66.7343C318.922 65.3583 319.202 64.1503 319.762 63.1103C320.322 62.0703 321.106 61.2703 322.114 60.7103C323.122 60.1503 324.282 59.8703 325.594 59.8703C326.858 59.8703 327.986 60.1423 328.978 60.6863C329.986 61.2303 330.762 62.0063 331.306 63.0143C331.866 64.0063 332.146 65.1503 332.146 66.4463ZM328.666 65.4863C328.65 64.6223 328.338 63.9343 327.73 63.4223C327.122 62.8943 326.378 62.6303 325.498 62.6303C324.666 62.6303 323.962 62.8863 323.386 63.3983C322.826 63.8943 322.482 64.5903 322.354 65.4863H328.666ZM171.343 91.2543C171.183 90.5823 170.903 90.0783 170.503 89.7423C170.119 89.4063 169.559 89.2383 168.823 89.2383C167.719 89.2383 166.903 89.6863 166.375 90.5823C165.863 91.4623 165.599 92.9023 165.583 94.9023C165.967 94.2623 166.527 93.7663 167.263 93.4143C167.999 93.0463 168.799 92.8623 169.663 92.8623C170.703 92.8623 171.623 93.0863 172.423 93.5343C173.223 93.9823 173.847 94.6383 174.295 95.5023C174.743 96.3503 174.967 97.3743 174.967 98.5743C174.967 99.7103 174.735 100.726 174.271 101.622C173.823 102.502 173.159 103.19 172.279 103.686C171.399 104.182 170.351 104.43 169.135 104.43C167.471 104.43 166.159 104.062 165.199 103.326C164.255 102.59 163.591 101.566 163.207 100.254C162.839 98.9263 162.655 97.2943 162.655 95.3583C162.655 92.4303 163.159 90.2223 164.167 88.7343C165.175 87.2303 166.767 86.4783 168.943 86.4783C170.623 86.4783 171.927 86.9343 172.855 87.8463C173.783 88.7583 174.319 89.8943 174.463 91.2543H171.343ZM168.895 95.6223C168.047 95.6223 167.335 95.8703 166.759 96.3663C166.183 96.8623 165.895 97.5823 165.895 98.5263C165.895 99.4703 166.159 100.214 166.687 100.758C167.231 101.302 167.991 101.574 168.967 101.574C169.831 101.574 170.511 101.31 171.007 100.782C171.519 100.254 171.775 99.5423 171.775 98.6463C171.775 97.7183 171.527 96.9823 171.031 96.4383C170.551 95.8943 169.839 95.6223 168.895 95.6223ZM190.133 90.8943C191.717 90.8943 192.997 91.3983 193.973 92.4063C194.949 93.3983 195.437 94.7903 195.437 96.5823V104.382H192.077V97.0383C192.077 95.9823 191.813 95.1743 191.285 94.6143C190.757 94.0383 190.037 93.7503 189.125 93.7503C188.197 93.7503 187.461 94.0383 186.917 94.6143C186.389 95.1743 186.125 95.9823 186.125 97.0383V104.382H182.765V91.0863H186.125V92.7423C186.573 92.1663 187.141 91.7183 187.829 91.3983C188.533 91.0623 189.301 90.8943 190.133 90.8943ZM210.705 91.0863V104.382H207.321V102.702C206.889 103.278 206.321 103.734 205.617 104.07C204.929 104.39 204.177 104.55 203.361 104.55C202.321 104.55 201.401 104.334 200.601 103.902C199.801 103.454 199.169 102.806 198.705 101.958C198.257 101.094 198.033 100.07 198.033 98.8863V91.0863H201.393V98.4063C201.393 99.4623 201.657 100.278 202.185 100.854C202.713 101.414 203.433 101.694 204.345 101.694C205.273 101.694 206.001 101.414 206.529 100.854C207.057 100.278 207.321 99.4623 207.321 98.4063V91.0863H210.705ZM207.057 87.6303L201.537 90.1503V87.7503L207.057 84.8943V87.6303ZM230.052 90.8943C231.684 90.8943 232.996 91.3983 233.988 92.4063C234.996 93.3983 235.5 94.7903 235.5 96.5823V104.382H232.14V97.0383C232.14 95.9983 231.876 95.2063 231.348 94.6623C230.82 94.1023 230.1 93.8223 229.188 93.8223C228.276 93.8223 227.548 94.1023 227.004 94.6623C226.476 95.2063 226.212 95.9983 226.212 97.0383V104.382H222.852V97.0383C222.852 95.9983 222.588 95.2063 222.06 94.6623C221.532 94.1023 220.812 93.8223 219.9 93.8223C218.972 93.8223 218.236 94.1023 217.692 94.6623C217.164 95.2063 216.9 95.9983 216.9 97.0383V104.382H213.54V91.0863H216.9V92.6943C217.332 92.1343 217.884 91.6943 218.556 91.3743C219.244 91.0543 219.996 90.8943 220.812 90.8943C221.852 90.8943 222.78 91.1183 223.596 91.5663C224.412 91.9983 225.044 92.6223 225.492 93.4383C225.924 92.6703 226.548 92.0543 227.364 91.5903C228.196 91.1263 229.092 90.8943 230.052 90.8943ZM250.568 97.4463C250.568 97.9263 250.536 98.3583 250.472 98.7423H240.752C240.832 99.7023 241.168 100.454 241.76 100.998C242.352 101.542 243.08 101.814 243.944 101.814C245.192 101.814 246.08 101.278 246.608 100.206H250.232C249.848 101.486 249.112 102.542 248.024 103.374C246.936 104.19 245.6 104.598 244.016 104.598C242.736 104.598 241.584 104.318 240.56 103.758C239.552 103.182 238.76 102.374 238.184 101.334C237.624 100.294 237.344 99.0943 237.344 97.7343C237.344 96.3583 237.624 95.1503 238.184 94.1103C238.744 93.0703 239.528 92.2703 240.536 91.7103C241.544 91.1503 242.704 90.8703 244.016 90.8703C245.28 90.8703 246.408 91.1423 247.4 91.6863C248.408 92.2303 249.184 93.0063 249.728 94.0143C250.288 95.0063 250.568 96.1503 250.568 97.4463ZM247.088 96.4863C247.072 95.6223 246.76 94.9343 246.152 94.4223C245.544 93.8943 244.8 93.6303 243.92 93.6303C243.088 93.6303 242.384 93.8863 241.808 94.3983C241.248 94.8943 240.904 95.5903 240.776 96.4863H247.088ZM255.901 93.1503C256.333 92.4463 256.893 91.8943 257.581 91.4943C258.285 91.0943 259.085 90.8943 259.981 90.8943V94.4223H259.093C258.037 94.4223 257.237 94.6703 256.693 95.1663C256.165 95.6623 255.901 96.5263 255.901 97.7583V104.382H252.541V91.0863H255.901V93.1503ZM267.668 104.598C266.388 104.598 265.236 104.318 264.212 103.758C263.188 103.182 262.38 102.374 261.788 101.334C261.212 100.294 260.924 99.0943 260.924 97.7343C260.924 96.3743 261.22 95.1743 261.812 94.1343C262.42 93.0943 263.244 92.2943 264.284 91.7343C265.324 91.1583 266.484 90.8703 267.764 90.8703C269.044 90.8703 270.204 91.1583 271.244 91.7343C272.284 92.2943 273.1 93.0943 273.692 94.1343C274.3 95.1743 274.604 96.3743 274.604 97.7343C274.604 99.0943 274.292 100.294 273.668 101.334C273.06 102.374 272.228 103.182 271.172 103.758C270.132 104.318 268.964 104.598 267.668 104.598ZM267.668 101.67C268.276 101.67 268.844 101.526 269.372 101.238C269.916 100.934 270.348 100.486 270.668 99.8943C270.988 99.3023 271.148 98.5823 271.148 97.7343C271.148 96.4703 270.812 95.5023 270.14 94.8303C269.484 94.1423 268.676 93.7983 267.716 93.7983C266.756 93.7983 265.948 94.1423 265.292 94.8303C264.652 95.5023 264.332 96.4703 264.332 97.7343C264.332 98.9983 264.644 99.9743 265.268 100.662C265.908 101.334 266.708 101.67 267.668 101.67ZM281.676 104.598C280.588 104.598 279.612 104.406 278.748 104.022C277.884 103.622 277.196 103.086 276.684 102.414C276.188 101.742 275.916 100.998 275.868 100.182H279.252C279.316 100.694 279.564 101.118 279.996 101.454C280.444 101.79 280.996 101.958 281.652 101.958C282.292 101.958 282.788 101.83 283.14 101.574C283.508 101.318 283.692 100.99 283.692 100.59C283.692 100.158 283.468 99.8383 283.02 99.6303C282.588 99.4063 281.892 99.1663 280.932 98.9103C279.94 98.6703 279.124 98.4223 278.484 98.1663C277.86 97.9103 277.316 97.5183 276.852 96.9903C276.404 96.4623 276.18 95.7503 276.18 94.8543C276.18 94.1183 276.388 93.4463 276.804 92.8383C277.236 92.2303 277.844 91.7503 278.628 91.3983C279.428 91.0463 280.364 90.8703 281.436 90.8703C283.02 90.8703 284.284 91.2703 285.228 92.0703C286.172 92.8543 286.692 93.9183 286.788 95.2623H283.572C283.524 94.7343 283.3 94.3183 282.9 94.0143C282.516 93.6943 281.996 93.5343 281.34 93.5343C280.732 93.5343 280.26 93.6463 279.924 93.8703C279.604 94.0943 279.444 94.4063 279.444 94.8063C279.444 95.2543 279.668 95.5983 280.116 95.8383C280.564 96.0623 281.26 96.2943 282.204 96.5343C283.164 96.7743 283.956 97.0223 284.58 97.2783C285.204 97.5343 285.74 97.9343 286.188 98.4783C286.652 99.0063 286.892 99.7103 286.908 100.59C286.908 101.358 286.692 102.046 286.26 102.654C285.844 103.262 285.236 103.742 284.436 104.094C283.652 104.43 282.732 104.598 281.676 104.598ZM290.675 104.55C290.067 104.55 289.563 104.366 289.163 103.998C288.779 103.614 288.587 103.142 288.587 102.582C288.587 102.022 288.779 101.558 289.163 101.19C289.563 100.806 290.067 100.614 290.675 100.614C291.267 100.614 291.755 100.806 292.139 101.19C292.523 101.558 292.715 102.022 292.715 102.582C292.715 103.142 292.523 103.614 292.139 103.998C291.755 104.366 291.267 104.55 290.675 104.55Z" fill="#8F3B06"/>
<defs>
<filter id="filter0_d_2424_17987" x="12.881" y="0" width="106.238" height="257.697" filterUnits="userSpaceOnUse" color-interpolation-filters="sRGB">
<feFlood flood-opacity="0" result="BackgroundImageFix"/>
<feColorMatrix in="SourceAlpha" type="matrix" values="0 0 0 0 0 0 0 0 0 0 0 0 0 0 0 0 0 0 127 0" result="hardAlpha"/>
<feOffset dy="3.11898"/>
<feGaussianBlur stdDeviation="1.55949"/>
<feComposite in2="hardAlpha" operator="out"/>
<feColorMatrix type="matrix" values="0 0 0 0 0 0 0 0 0 0 0 0 0 0 0 0 0 0 0.25 0"/>
<feBlend mode="normal" in2="BackgroundImageFix" result="effect1_dropShadow_2424_17987"/>
<feBlend mode="normal" in="SourceGraphic" in2="effect1_dropShadow_2424_17987" result="shape"/>
</filter>
<clipPath id="clip0_2424_17987">
<rect width="100" height="104" fill="white" transform="matrix(-1 0 0 1 116 0)"/>
</clipPath>
</defs>
</svg>
