<svg width="102" height="100" viewBox="0 0 102 100" fill="none" xmlns="http://www.w3.org/2000/svg">
<rect x="1.33334" y="0.5" width="99.3333" height="98.1283" rx="3.5" stroke="#64341F"/>
<path d="M51 47.0001C47.5625 47.0001 44.6198 45.7762 42.1719 43.3282C39.724 40.8803 38.5 37.9376 38.5 34.5001C38.5 31.0625 39.724 28.1198 42.1719 25.6719C44.6198 23.224 47.5625 22 51 22C54.4375 22 57.3802 23.224 59.8281 25.6719C62.2761 28.1198 63.5 31.0625 63.5 34.5001C63.5 37.9376 62.2761 40.8803 59.8281 43.3282C57.3802 45.7762 54.4375 47.0001 51 47.0001ZM21.8333 77.1283V70.2693C21.8333 68.5492 22.3341 66.94 23.3357 65.4416C24.3373 63.9432 25.6848 62.78 27.3782 61.952C31.3098 60.0663 35.2441 58.652 39.181 57.7092C43.1181 56.7663 47.0577 56.2949 51 56.2949C54.9423 56.2949 58.882 56.7663 62.819 57.7092C66.7559 58.652 70.6902 60.0663 74.6218 61.952C76.3152 62.78 77.6627 63.9432 78.6643 65.4416C79.6659 66.94 80.1667 68.5492 80.1667 70.2693V77.1283H21.8333ZM26 72.9616H76V70.2693C76 69.3452 75.7022 68.4771 75.1066 67.6651C74.5109 66.8532 73.687 66.1667 72.6346 65.6058C69.2052 63.9445 65.6692 62.6718 62.0267 61.7877C58.3842 60.9036 54.7087 60.4616 51 60.4616C47.2913 60.4616 43.6158 60.9036 39.9733 61.7877C36.3308 62.6718 32.7949 63.9445 29.3654 65.6058C28.3131 66.1667 27.4891 66.8532 26.8934 67.6651C26.2978 68.4771 26 69.3452 26 70.2693V72.9616ZM51 42.8334C53.2917 42.8334 55.2535 42.0175 56.8854 40.3855C58.5174 38.7536 59.3333 36.7918 59.3333 34.5001C59.3333 32.2084 58.5174 30.2466 56.8854 28.6147C55.2535 26.9827 53.2917 26.1668 51 26.1668C48.7083 26.1668 46.7465 26.9827 45.1146 28.6147C43.4826 30.2466 42.6667 32.2084 42.6667 34.5001C42.6667 36.7918 43.4826 38.7536 45.1146 40.3855C46.7465 42.0175 48.7083 42.8334 51 42.8334Z" fill="#8F3B06"/>
</svg>
