<svg width="48" height="48" viewBox="0 0 48 48" fill="none" xmlns="http://www.w3.org/2000/svg">
<path d="M10.5837 33.3337H14.0837V32.7503C14.0837 29.9892 15.0462 27.6462 16.9712 25.7212C18.8962 23.7962 21.2392 22.8337 24.0003 22.8337C26.7614 22.8337 29.1045 23.7962 31.0295 25.7212C32.9545 27.6462 33.917 29.9892 33.917 32.7503V33.3337H37.417V32.7503C37.417 29.017 36.1142 25.8475 33.5087 23.242C30.9031 20.6364 27.7337 19.3337 24.0003 19.3337C20.267 19.3337 17.0975 20.6364 14.492 23.242C11.8864 25.8475 10.5837 29.017 10.5837 32.7503V33.3337ZM12.567 17.5837C14.1614 17.3503 15.8434 16.7281 17.6128 15.717C19.3823 14.7059 20.792 13.5587 21.842 12.2753L19.1587 10.0587C18.3809 10.992 17.3017 11.8475 15.9212 12.6253C14.5406 13.4031 13.267 13.8892 12.1003 14.0837L12.567 17.5837ZM35.4337 17.5837L35.9003 14.0837C34.7337 13.8892 33.4601 13.4031 32.0795 12.6253C30.6989 11.8475 29.6198 10.992 28.842 10.0587L26.1587 12.2753C27.2087 13.5587 28.6184 14.7059 30.3878 15.717C32.1573 16.7281 33.8392 17.3503 35.4337 17.5837ZM24.0003 47.3337C20.7725 47.3337 17.7392 46.7212 14.9003 45.4962C12.0614 44.2712 9.59199 42.6087 7.49199 40.5087C5.39199 38.4087 3.72949 35.9392 2.50449 33.1003C1.27949 30.2614 0.666992 27.2281 0.666992 24.0003C0.666992 20.7725 1.27949 17.7392 2.50449 14.9003C3.72949 12.0614 5.39199 9.59199 7.49199 7.49199C9.59199 5.39199 12.0614 3.72949 14.9003 2.50449C17.7392 1.27949 20.7725 0.666992 24.0003 0.666992C27.2281 0.666992 30.2614 1.27949 33.1003 2.50449C35.9392 3.72949 38.4087 5.39199 40.5087 7.49199C42.6087 9.59199 44.2712 12.0614 45.4962 14.9003C46.7212 17.7392 47.3337 20.7725 47.3337 24.0003C47.3337 27.2281 46.7212 30.2614 45.4962 33.1003C44.2712 35.9392 42.6087 38.4087 40.5087 40.5087C38.4087 42.6087 35.9392 44.2712 33.1003 45.4962C30.2614 46.7212 27.2281 47.3337 24.0003 47.3337ZM24.0003 42.667C29.2114 42.667 33.6253 40.8587 37.242 37.242C40.8587 33.6253 42.667 29.2114 42.667 24.0003C42.667 18.7892 40.8587 14.3753 37.242 10.7587C33.6253 7.14199 29.2114 5.33366 24.0003 5.33366C18.7892 5.33366 14.3753 7.14199 10.7587 10.7587C7.14199 14.3753 5.33366 18.7892 5.33366 24.0003C5.33366 29.2114 7.14199 33.6253 10.7587 37.242C14.3753 40.8587 18.7892 42.667 24.0003 42.667Z" fill="#F59E0B"/>
</svg>
