<svg width="72" height="80" viewBox="0 0 72 80" fill="none" xmlns="http://www.w3.org/2000/svg">
<g style="mix-blend-mode:luminosity" opacity="0.6">
<g clip-path="url(#clip0_2419_5650)">
<rect x="0.0336151" width="71.9328" height="80" rx="8" fill="#DCD4D0"/>
<mask id="mask0_2419_5650" style="mask-type:luminance" maskUnits="userSpaceOnUse" x="0" y="0" width="72" height="80">
<path d="M1.86384 80H70.4368C71.2861 80 71.9708 79.3096 71.9664 78.4587L71.6679 20.939C71.6635 20.0727 71.1917 19.2746 70.4368 18.8546L36.9096 0.209794C36.3939 -0.0760353 35.7685 -0.0694393 35.2594 0.227383L1.13308 20.1453C0.448405 20.5454 0.0292603 21.2798 0.0336492 22.0757L0.332098 78.4741C0.336487 79.3184 1.02116 80 1.86165 80H1.86384Z" fill="white"/>
</mask>
<g mask="url(#mask0_2419_5650)">
<path d="M73.3862 44.9771L61.3166 49.06L62.2558 62.7226L73.3862 60.2117V44.9771Z" fill="#A55F4C"/>
<path d="M63.8095 50.1616L61.3407 49.4141L62.2558 62.7227L73.2677 60.2382L63.8095 50.1616Z" fill="#8C493A"/>
<path d="M-0.600555 80.6265L14.0542 74.1668C14.0542 74.1668 19.0137 74.8748 22.042 74.18C26.3674 73.1906 30.9384 70.4664 30.9384 70.4664L37.647 67.9995L15.226 63.4482L15.5201 56.6938C15.5201 56.6938 11.8575 61.3924 11.7105 61.8322C8.33974 60.5108 5.70198 63.7406 5.11605 65.3567L-0.159466 65.7964L-0.598361 80.6243L-0.600555 80.6265Z" fill="#D5A66B"/>
<path d="M17.4666 65.3988C15.2918 64.6226 12.9811 64.2313 10.6747 64.2489L13.1456 63.1627L16.9772 58.8291L17.4688 65.3988H17.4666Z" fill="#C18E56"/>
<path d="M26.9884 68.8479L27.0279 68.8457L27.458 32.7279L16.4856 29.9004L15.2326 64.6088L26.9884 68.8479Z" fill="#BC8224"/>
<path d="M27.4558 32.8532L25.3052 32.1738L16.4856 29.9004L15.2326 64.6088L20.2097 66.4051C20.2821 61.5416 20.4774 56.6716 21.4144 51.9048C22.3997 46.8852 24.2694 41.9404 27.3966 37.9234L27.458 32.8554L27.4558 32.8532Z" fill="#AD731E"/>
<path d="M63.8292 31.4155L27.458 32.7281L27.0279 68.8459L64.7641 66.335L63.9807 31.4705L63.8292 31.4155Z" fill="#E7C930"/>
<path d="M50.6558 26.6025L16.4856 29.9006L27.458 32.7281L63.8292 31.4155L50.6558 26.6025Z" fill="#DFA22D"/>
<path d="M56.1323 28.531L22.1193 31.3687L22.1375 31.5878L56.1505 28.7501L56.1323 28.531Z" fill="black"/>
<path d="M40.6249 27.2314L51.753 31.7849L51.4414 43.4072L50.1862 42.3078L49.4028 43.5633L48.4613 42.3078L47.5221 43.7216L46.5807 42.1495L45.4834 43.7216L44.5442 42.4639L43.7608 44.0338L42.8193 42.7783L42.5055 32.0993L33.7276 28.0164L40.6249 27.2314Z" fill="white"/>
<path d="M51.753 31.7849L40.6249 27.2314L33.7276 28.0164L42.5055 32.0993L42.5121 32.2972L51.753 31.8487V31.7849Z" fill="#E8E7E6"/>
<path d="M74.795 60.2117L67.1144 64.609C67.1144 64.609 65.2337 62.5665 63.6669 62.0959C62.1 61.6254 57.3972 65.0796 57.3972 65.0796C57.3972 65.0796 53.7917 62.252 51.4414 61.7815C49.0911 61.311 49.4028 63.8241 50.5 64.7651C51.5972 65.7084 53.3221 67.1199 53.3221 67.1199L39.3718 67.9049C39.3718 67.9049 39.216 69.4747 42.1939 70.2597C45.1718 71.0446 55.6746 72.7727 55.6746 72.7727C55.6746 72.7727 73.2304 75.6003 73.7 75.9147C74.1696 76.2291 74.7972 60.2095 74.7972 60.2095L74.795 60.2117Z" fill="#BF775E"/>
<path d="M36.1789 5.57018L33.2141 3.50781C33.2141 3.50781 24.6447 19.3141 22.0969 25.5782L19.5425 32.4711L22.2044 32.9592L36.1789 5.56798V5.57018Z" fill="#7FC288"/>
<path d="M25.7331 20.7365C25.7331 20.7365 30.9823 9.30552 35.7202 3.8418C45.2486 8.92955 48.8388 11.3107 48.8388 11.3107C48.8388 11.3107 34.2762 32.8886 32.8323 37.9038C21.7282 33.9044 20.3216 33.5812 20.3216 33.5812C20.3216 33.5812 23.0318 26.5322 25.7353 20.7387L25.7331 20.7365Z" fill="#5AAE88"/>
<path d="M38.8787 23.7274C40.4093 21.3108 39.6949 18.1086 37.283 16.575C34.871 15.0414 31.6749 15.7572 30.1443 18.1738C28.6136 20.5903 29.328 23.7925 31.74 25.3261C34.1519 26.8597 37.348 26.1439 38.8787 23.7274Z" fill="white"/>
<g style="mix-blend-mode:multiply">
<path d="M32.8301 37.9015C33.8615 34.3177 41.5926 22.2777 45.9223 15.6948C39.0865 16.1192 32.321 17.6582 25.9723 20.2263C25.8187 20.5539 25.7353 20.7342 25.7353 20.7342C23.0318 26.5277 20.3216 33.5767 20.3216 33.5767C20.3216 33.5767 21.7304 33.8999 32.8323 37.8993L32.8301 37.9015Z" fill="#D3D3D3"/>
</g>
<path d="M39.0778 10.0048L38.5313 9.72336C38.3404 10.0685 38.11 10.3478 37.8401 10.5589L37.0259 10.1389L37.2651 9.57604L37.5833 9.73875C37.6338 9.76513 37.6755 9.77612 37.7062 9.77393C37.7369 9.77173 37.7808 9.74534 37.8335 9.69477C37.8883 9.6442 37.9432 9.56285 38.0003 9.44852L36.9776 8.92304C36.7516 9.16709 36.5563 9.32759 36.3917 9.40455C36.2271 9.4815 36.0757 9.51668 35.9375 9.50789C35.7992 9.49909 35.6544 9.45512 35.5008 9.37596C35.2308 9.23745 35.0531 9.03517 34.9653 8.77133C34.8775 8.50748 34.8885 8.21726 34.9982 7.90505L34.4957 7.6456L34.7064 7.23445L35.1979 7.4873C35.3735 7.19047 35.5885 6.94202 35.8409 6.74414L36.6112 7.1399L36.3698 7.69397L36.0735 7.54226C36.023 7.51588 35.9814 7.50489 35.9506 7.50708C35.9199 7.50928 35.8782 7.53567 35.8299 7.58624C35.7817 7.63681 35.74 7.69177 35.707 7.74674L36.6704 8.24144V8.23485C36.8986 7.99959 37.1181 7.83249 37.3331 7.72915C37.5943 7.59723 37.8774 7.60822 38.1802 7.76433C38.483 7.92044 38.6762 8.13371 38.7639 8.40635C38.8495 8.67898 38.8386 8.9758 38.7288 9.29901L39.2928 9.58924L39.0821 10.0004L39.0778 10.0048ZM35.5293 8.17768C35.4986 8.40195 35.5754 8.56025 35.7597 8.657C35.9462 8.75154 36.1306 8.72735 36.3149 8.58224L35.5271 8.17768H35.5293ZM37.8796 8.47231C37.6974 8.37776 37.5109 8.41514 37.32 8.58004L38.1736 9.01978C38.2153 8.77792 38.1166 8.59543 37.8796 8.4745V8.47231Z" fill="black"/>
<path d="M-0.756367 33.1987L20.405 24.8745C20.405 24.8745 22.1298 18.749 23.3829 17.6496C24.6359 16.5503 26.5188 16.5503 26.5188 16.5503L25.7353 20.7916C25.7353 20.7916 36.2381 18.5929 40.1552 20.7916C41.0967 22.3614 33.416 23.3046 33.416 23.3046C33.416 23.3046 36.2381 23.7752 36.3939 25.1889C36.5497 26.6027 33.5718 27.2315 33.5718 27.2315C33.5718 27.2315 34.9829 28.4869 34.3552 29.7446C33.7276 31 31.0635 31.7872 31.0635 31.7872C31.0635 31.7872 32.7884 34.142 26.9884 35.3996C12.2525 45.9203 -1.38399 57.0698 -1.38399 57.0698L-0.756367 33.1987Z" fill="#D5A66B"/>
<path d="M-1.13821 47.7343L-1.3774 56.806L-1.33571 57.0325C-0.499613 56.3509 11.5349 46.5558 24.9848 36.8376C17.7518 35.127 3.67208 44.3703 -1.13821 47.7365V47.7343Z" fill="#C18E56"/>
<path d="M14.256 74.0571C12.2042 73.3579 10.5145 72.0717 8.87299 70.6514L-2.79723 73.314L-2.05549 82.4759L-0.600556 80.6268L14.256 74.0571Z" fill="#C18E56"/>
<path d="M53.3221 67.1201L55.036 68.1139L39.3718 67.9072L53.3221 67.1201Z" fill="#8C493A"/>
</g>
</g>
</g>
<defs>
<clipPath id="clip0_2419_5650">
<rect x="0.0336151" width="71.9328" height="80" rx="8" fill="white"/>
</clipPath>
</defs>
</svg>
