<svg width="56" height="56" viewBox="0 0 56 56" fill="none" xmlns="http://www.w3.org/2000/svg">
<mask id="mask0_3427_1230" style="mask-type:alpha" maskUnits="userSpaceOnUse" x="0" y="0" width="56" height="56">
<rect width="56" height="56" fill="#D9D9D9"/>
</mask>
<g mask="url(#mask0_3427_1230)">
<path d="M14.5834 37.3337H18.0834V36.7503C18.0834 33.9892 19.0459 31.6462 20.9709 29.7212C22.8959 27.7962 25.239 26.8337 28.0001 26.8337C30.7612 26.8337 33.1042 27.7962 35.0292 29.7212C36.9543 31.6462 37.9168 33.9892 37.9168 36.7503V37.3337H41.4168V36.7503C41.4168 33.017 40.114 29.8475 37.5084 27.242C34.9029 24.6364 31.7334 23.3337 28.0001 23.3337C24.2667 23.3337 21.0973 24.6364 18.4917 27.242C15.8862 29.8475 14.5834 33.017 14.5834 36.7503V37.3337ZM16.5667 21.5837C18.1612 21.3503 19.8431 20.7281 21.6126 19.717C23.382 18.7059 24.7917 17.5587 25.8417 16.2753L23.1584 14.0587C22.3806 14.992 21.3015 15.8475 19.9209 16.6253C18.5404 17.4031 17.2667 17.8892 16.1001 18.0837L16.5667 21.5837ZM39.4334 21.5837L39.9001 18.0837C38.7334 17.8892 37.4598 17.4031 36.0793 16.6253C34.6987 15.8475 33.6195 14.992 32.8417 14.0587L30.1584 16.2753C31.2084 17.5587 32.6181 18.7059 34.3876 19.717C36.157 20.7281 37.839 21.3503 39.4334 21.5837ZM28.0001 51.3337C24.7723 51.3337 21.739 50.7212 18.9001 49.4962C16.0612 48.2712 13.5917 46.6087 11.4917 44.5087C9.39175 42.4087 7.72925 39.9392 6.50425 37.1003C5.27925 34.2614 4.66675 31.2281 4.66675 28.0003C4.66675 24.7725 5.27925 21.7392 6.50425 18.9003C7.72925 16.0614 9.39175 13.592 11.4917 11.492C13.5917 9.39199 16.0612 7.72949 18.9001 6.50449C21.739 5.27949 24.7723 4.66699 28.0001 4.66699C31.2279 4.66699 34.2612 5.27949 37.1001 6.50449C39.939 7.72949 42.4084 9.39199 44.5084 11.492C46.6084 13.592 48.2709 16.0614 49.4959 18.9003C50.7209 21.7392 51.3334 24.7725 51.3334 28.0003C51.3334 31.2281 50.7209 34.2614 49.4959 37.1003C48.2709 39.9392 46.6084 42.4087 44.5084 44.5087C42.4084 46.6087 39.939 48.2712 37.1001 49.4962C34.2612 50.7212 31.2279 51.3337 28.0001 51.3337ZM28.0001 46.667C33.2112 46.667 37.6251 44.8587 41.2418 41.242C44.8584 37.6253 46.6668 33.2114 46.6668 28.0003C46.6668 22.7892 44.8584 18.3753 41.2418 14.7587C37.6251 11.142 33.2112 9.33366 28.0001 9.33366C22.789 9.33366 18.3751 11.142 14.7584 14.7587C11.1417 18.3753 9.33342 22.7892 9.33342 28.0003C9.33342 33.2114 11.1417 37.6253 14.7584 41.242C18.3751 44.8587 22.789 46.667 28.0001 46.667Z" fill="#EF4444"/>
</g>
</svg>
