<svg width="700" height="686" viewBox="0 0 700 686" fill="none" xmlns="http://www.w3.org/2000/svg">
<path d="M231.793 174.435C231.793 189.342 219.708 201.427 204.801 201.427C189.894 201.427 177.809 189.342 177.809 174.435C177.809 159.528 189.894 147.443 204.801 147.443C219.708 147.443 231.793 159.528 231.793 174.435Z" stroke="#BDEF12" stroke-width="12.8211"/>
<circle cx="65.118" cy="194.004" r="26.9919" stroke="#BDEF12" stroke-width="12.8211"/>
<path d="M97.1709 196.028H149.468L197.378 242.589" stroke="#BDEF12" stroke-width="12.8211"/>
<circle cx="82.6627" cy="265.533" r="26.9919" stroke="#BDEF12" stroke-width="12.8211"/>
<path d="M113.366 267.894H133.61L166.338 299.947" stroke="#BDEF12" stroke-width="12.8211"/>
<circle cx="33.4024" cy="349.882" r="26.9919" stroke="#BDEF12" stroke-width="12.8211"/>
<path d="M65.4553 348.533H97.1708L128.549 311.419H157.228" stroke="#BDEF12" stroke-width="12.8211"/>
<circle cx="69.1666" cy="426.809" r="26.9919" stroke="#BDEF12" stroke-width="12.8211"/>
<path d="M87.0488 403.866L120.451 366.415H148.455" stroke="#BDEF12" stroke-width="12.8211"/>
<path d="M156.89 124.5C156.89 139.407 144.805 151.492 129.898 151.492C114.991 151.492 102.906 139.407 102.906 124.5C102.906 109.593 114.991 97.5082 129.898 97.5082C144.805 97.5082 156.89 109.593 156.89 124.5Z" stroke="#BDEF12" stroke-width="12.8211"/>
<path d="M217.622 51.6219C217.622 66.5291 205.537 78.6138 190.63 78.6138C175.723 78.6138 163.638 66.5291 163.638 51.6219C163.638 36.7147 175.723 24.6301 190.63 24.6301C205.537 24.6301 217.622 36.7147 217.622 51.6219Z" stroke="#BDEF12" stroke-width="12.8211"/>
<path d="M381.597 33.4024C381.597 48.3096 369.513 60.3943 354.606 60.3943C339.698 60.3943 327.614 48.3096 327.614 33.4024C327.614 18.4952 339.698 6.41057 354.606 6.41057C369.513 6.41057 381.597 18.4952 381.597 33.4024Z" stroke="#BDEF12" stroke-width="12.8211"/>
<path d="M161.614 123.825H245.963L288.813 162.289" stroke="#BDEF12" stroke-width="12.8211"/>
<path d="M324.577 33.7397H297.585L216.272 123.15" stroke="#BDEF12" stroke-width="12.8211"/>
<path d="M222.008 50.9473H239.553L261.484 72.2034" stroke="#BDEF12" stroke-width="12.8211"/>
<path d="M334.362 100.882C334.362 115.789 322.277 127.874 307.37 127.874C292.463 127.874 280.378 115.789 280.378 100.882C280.378 85.9747 292.463 73.8901 307.37 73.8901C322.277 73.8901 334.362 85.9747 334.362 100.882Z" stroke="#BDEF12" stroke-width="12.8211"/>
<path d="M494.963 50.9471C494.963 65.8543 482.879 77.939 467.972 77.939C453.064 77.939 440.98 65.8543 440.98 50.9471C440.98 36.0399 453.064 23.9552 467.972 23.9552C482.879 23.9552 494.963 36.0399 494.963 50.9471Z" stroke="#BDEF12" stroke-width="12.8211"/>
<path d="M436.594 47.9104H410.277L371.813 101.894H339.085" stroke="#BDEF12" stroke-width="12.8211"/>
<path d="M461.909 479.368C464.363 464.664 478.271 454.733 492.975 457.186C507.679 459.639 517.61 473.548 515.157 488.252C512.704 502.956 498.795 512.887 484.091 510.434C469.387 507.981 459.456 494.072 461.909 479.368Z" stroke="#BDEF12" stroke-width="12.8211"/>
<circle cx="623.832" cy="471.192" r="26.9919" transform="rotate(-170.528 623.832 471.192)" stroke="#BDEF12" stroke-width="12.8211"/>
<path d="M592.549 463.921L540.965 455.315L501.37 401.504" stroke="#BDEF12" stroke-width="12.8211"/>
<circle cx="606.817" cy="385.474" r="26.9919" transform="rotate(178.541 606.817 385.474)" stroke="#BDEF12" stroke-width="12.8211"/>
<path d="M576.063 383.895L555.826 384.41L522.293 353.201" stroke="#BDEF12" stroke-width="12.8211"/>
<circle cx="661.556" cy="290.853" r="26.9919" transform="rotate(-170.528 661.556 290.853)" stroke="#BDEF12" stroke-width="12.8211"/>
<path d="M629.718 286.909L598.435 281.69L561.377 313.134L533.09 308.415" stroke="#BDEF12" stroke-width="12.8211"/>
<circle cx="620.561" cy="176.906" r="26.9919" transform="rotate(-170.528 620.561 176.906)" stroke="#BDEF12" stroke-width="12.8211"/>
<path d="M599.147 196.593L560.037 228.037L532.415 223.429" stroke="#BDEF12" stroke-width="12.8211"/>
<path d="M503.688 548.973C507.856 534.661 522.838 526.437 537.15 530.606C551.463 534.774 559.686 549.756 555.518 564.068C551.349 578.381 536.368 586.604 522.055 582.436C507.742 578.267 499.519 563.286 503.688 548.973Z" stroke="#BDEF12" stroke-width="12.8211"/>
<path d="M425 601.962C429.168 587.649 444.15 579.426 458.463 583.594C472.775 587.763 480.998 602.745 476.83 617.057C472.662 631.37 457.68 639.593 443.367 635.425C429.055 631.256 420.831 616.274 425 601.962Z" stroke="#BDEF12" stroke-width="12.8211"/>
<path d="M262.471 573.602C266.639 559.29 281.621 551.067 295.934 555.235C310.246 559.403 318.469 574.385 314.301 588.698C310.133 603.01 295.151 611.234 280.838 607.065C266.526 602.897 258.302 587.915 262.471 573.602Z" stroke="#BDEF12" stroke-width="12.8211"/>
<path d="M498.964 548.3L417.979 524.714L387.594 475.803" stroke="#BDEF12" stroke-width="12.8211"/>
<path d="M317.311 589.223L343.226 596.77L446.297 533.664" stroke="#BDEF12" stroke-width="12.8211"/>
<path d="M420.6 601.383L403.755 596.477L388.643 569.936" stroke="#BDEF12" stroke-width="12.8211"/>
<path d="M323.666 523.665C323.71 510.807 334.169 500.419 347.027 500.463C359.885 500.507 370.273 510.966 370.229 523.824C370.185 536.682 359.726 547.07 346.868 547.026C334.01 546.982 323.622 536.523 323.666 523.665Z" stroke="#BDEF12" stroke-width="12.8211"/>
<path d="M145.52 548.633C145.564 535.775 156.023 525.387 168.881 525.43C181.739 525.474 192.127 535.933 192.083 548.791C192.039 561.649 181.58 572.037 168.722 571.993C155.864 571.95 145.476 561.491 145.52 548.633Z" stroke="#BDEF12" stroke-width="12.8211"/>
<path d="M195.016 545.91L242.927 545.91L284.427 510.821L320.65 523.982" stroke="#BDEF12" stroke-width="12.8211"/>
<rect x="351.414" y="232.805" width="59.8903" height="33.8165" rx="16.9082" transform="rotate(45.5433 351.414 232.805)" fill="#EE7B34"/>
<rect x="387.178" y="204.464" width="51.3807" height="33.8165" rx="16.9082" transform="rotate(45.5433 387.178 204.464)" fill="#EE7B34"/>
<rect x="347.365" y="162.96" width="51.3807" height="33.8165" rx="16.9082" transform="rotate(45.5433 347.365 162.96)" fill="#EE7B34"/>
<rect x="318.349" y="264.52" width="61.0288" height="33.8165" rx="16.9082" transform="rotate(45.5433 318.349 264.52)" fill="#EE7B34"/>
<rect x="285.284" y="296.236" width="61.0288" height="33.8165" rx="16.9082" transform="rotate(45.5433 285.284 296.236)" fill="#EE7B34"/>
<rect x="397.3" y="280.715" width="59.8903" height="33.8165" rx="16.9082" transform="rotate(45.5433 397.3 280.715)" fill="#EE7B34"/>
<rect x="364.235" y="312.431" width="61.0288" height="33.8165" rx="16.9082" transform="rotate(45.5433 364.235 312.431)" fill="#EE7B34"/>
<rect x="331.17" y="344.146" width="61.0288" height="33.8165" rx="16.9082" transform="rotate(45.5433 331.17 344.146)" fill="#EE7B34"/>
<rect x="304.853" y="184.894" width="59.8903" height="33.8165" rx="16.9082" transform="rotate(45.5433 304.853 184.894)" fill="#EE7B34"/>
<rect x="271.788" y="216.61" width="61.0288" height="33.8165" rx="16.9082" transform="rotate(45.5433 271.788 216.61)" fill="#EE7B34"/>
<rect x="238.723" y="248.325" width="61.0288" height="33.8165" rx="16.9082" transform="rotate(45.5433 238.723 248.325)" fill="#EE7B34"/>
<rect x="255.593" y="330.65" width="52.9814" height="33.8165" rx="16.9082" transform="rotate(45.5433 255.593 330.65)" fill="#EE7B34"/>
<rect x="296.755" y="373.837" width="49.7292" height="33.8165" rx="16.9082" transform="rotate(45.5433 296.755 373.837)" fill="#EE7B34"/>
<rect x="225.248" y="367.656" width="42.1196" height="26.2823" rx="13.1412" transform="rotate(45.5433 225.248 367.656)" fill="#EE7B34"/>
<rect x="215.105" y="288.813" width="52.9814" height="33.8165" rx="16.9082" transform="rotate(45.5433 215.105 288.813)" fill="#EE7B34"/>
<rect x="192.857" y="333.916" width="42.1196" height="26.2823" rx="13.1412" transform="rotate(45.5433 192.857 333.916)" fill="#EE7B34"/>
<rect x="257.638" y="401.504" width="39.2593" height="26.2823" rx="13.1412" transform="rotate(45.5433 257.638 401.504)" fill="#EE7B34"/>
<rect x="203.015" y="397.811" width="30.74" height="19.3975" rx="9.69875" transform="rotate(45.5433 203.015 397.811)" fill="#EE7B34"/>
<rect x="429.654" y="228.308" width="42.1196" height="26.2823" rx="13.1412" transform="rotate(-134.457 429.654 228.308)" fill="#EE7B34"/>
<rect x="397.263" y="194.902" width="42.1196" height="26.2823" rx="13.1412" transform="rotate(-134.457 397.263 194.902)" fill="#EE7B34"/>
<rect x="426.316" y="245.96" width="51.3807" height="33.8165" rx="16.9082" transform="rotate(45.5433 426.316 245.96)" fill="#EE7B34"/>
<rect x="462.044" y="261.707" width="42.1196" height="26.2823" rx="13.1412" transform="rotate(-134.457 462.044 261.707)" fill="#EE7B34"/>
<rect x="451.886" y="198.828" width="30.74" height="19.3975" rx="9.69875" transform="rotate(-134.457 451.886 198.828)" fill="#EE7B34"/>
<path d="M192.317 254.398C130.776 336.723 152.054 439.293 170.049 480.793C259.797 488.553 379.573 446.715 455.15 351.906C515.612 276.059 531.29 165.887 530.728 120.788C411.626 97.8453 269.244 151.492 192.317 254.398Z" stroke="#EE7B34" stroke-width="16.1951"/>
<path d="M531.065 134.284L529.838 243.262C529.307 290.434 529.784 339.435 509.1 381.833C493.242 414.339 465.465 445.774 414.354 465.599C377.662 479.831 337.536 480.951 298.181 481.266L188.606 482.142" stroke="#EE7B34" stroke-width="14.8455" stroke-linecap="round"/>
</svg>
