<svg width="360" height="256" viewBox="0 0 360 256" fill="none" xmlns="http://www.w3.org/2000/svg">
<g filter="url(#filter0_dd_3542_1417)">
<rect width="242" height="215.944" transform="translate(30 20)" fill="white"/>
<mask id="mask0_3542_1417" style="mask-type:alpha" maskUnits="userSpaceOnUse" x="139" y="33" width="22" height="22">
<rect x="139.335" y="33.4314" width="21.5111" height="21.5111" fill="#D9D9D9"/>
</mask>
<g mask="url(#mask0_3542_1417)">
<path d="M142.92 51.3576C142.427 51.3576 142.005 51.1821 141.654 50.831C141.303 50.48 141.128 50.058 141.128 49.565V38.8094C141.128 38.3165 141.303 37.8945 141.654 37.5434C142.005 37.1924 142.427 37.0168 142.92 37.0168H153.676C154.169 37.0168 154.591 37.1924 154.942 37.5434C155.293 37.8945 155.468 38.3165 155.468 38.8094V42.8428L159.054 39.2576V49.1168L155.468 45.5317V49.565C155.468 50.058 155.293 50.48 154.942 50.831C154.591 51.1821 154.169 51.3576 153.676 51.3576H142.92ZM142.92 49.565H153.676V38.8094H142.92V49.565Z" fill="#178B83"/>
</g>
<path d="M72.6465 75.3179V75.4038C72.6436 75.9304 72.5907 76.3525 72.4877 76.6701C72.3846 76.9849 72.2387 77.2396 72.0498 77.4342C71.8609 77.626 71.6334 77.8048 71.3673 77.9708C71.1984 78.0738 71.0439 78.194 70.9036 78.3314C70.7663 78.4688 70.6575 78.6247 70.5774 78.7993C70.4973 78.971 70.4572 79.1642 70.4572 79.3788C70.4572 79.6307 70.5173 79.8496 70.6375 80.0356C70.7577 80.2245 70.9165 80.369 71.114 80.4692C71.3143 80.5722 71.5361 80.6237 71.7794 80.6237C71.9997 80.6237 72.2101 80.5765 72.4104 80.482C72.6107 80.3905 72.7767 80.2488 72.9083 80.0571C73.0428 79.8653 73.1187 79.6178 73.1359 79.3144H74.4408C74.4237 79.8296 74.2935 80.2646 74.0502 80.6194C73.8098 80.9743 73.4907 81.2433 73.0929 81.4264C72.698 81.6125 72.2601 81.7055 71.7794 81.7055C71.2528 81.7055 70.792 81.6067 70.3971 81.4093C70.0022 81.2147 69.6945 80.9414 69.4742 80.5894C69.2567 80.2374 69.1479 79.8296 69.1479 79.3659C69.1479 79.0426 69.198 78.7535 69.2982 78.4988C69.3983 78.2413 69.5414 78.0123 69.7274 77.812C69.9135 77.6117 70.1338 77.4342 70.3885 77.2797C70.6318 77.1309 70.8278 76.9749 70.9766 76.8118C71.1283 76.6458 71.2385 76.4526 71.3072 76.2323C71.3758 76.009 71.413 75.7329 71.4188 75.4038V75.3179H72.6465ZM71.9983 72.708C72.233 72.708 72.4347 72.7924 72.6036 72.9612C72.7724 73.1301 72.8568 73.3318 72.8568 73.5665C72.8568 73.8012 72.7724 74.0029 72.6036 74.1718C72.4347 74.3406 72.233 74.425 71.9983 74.425C71.7665 74.425 71.5647 74.3406 71.393 74.1718C71.2242 74.0029 71.1397 73.8012 71.1397 73.5665C71.1397 73.4091 71.1784 73.266 71.2556 73.1372C71.3358 73.0084 71.4402 72.9054 71.569 72.8282C71.7007 72.748 71.8438 72.708 71.9983 72.708ZM75.8767 79.3445V70.553H79.0104C79.6944 70.553 80.261 70.6775 80.7103 70.9265C81.1596 71.1755 81.4959 71.516 81.7191 71.9481C81.9423 72.3774 82.054 72.8611 82.054 73.3991C82.054 73.94 81.9409 74.4265 81.7148 74.8586C81.4916 75.2879 81.1539 75.6284 80.7017 75.8803C80.2524 76.1292 79.6872 76.2537 79.0061 76.2537H76.8512V75.129H78.8859C79.3181 75.129 79.6686 75.0546 79.9376 74.9058C80.2067 74.7541 80.4041 74.5481 80.53 74.2877C80.656 74.0273 80.7189 73.7311 80.7189 73.3991C80.7189 73.0671 80.656 72.7723 80.53 72.5148C80.4041 72.2572 80.2052 72.0555 79.9334 71.9095C79.6643 71.7636 79.3095 71.6906 78.8688 71.6906H77.2032V79.3445H75.8767ZM86.2651 79.4776C85.6155 79.4776 85.056 79.3388 84.5867 79.0612C84.1202 78.7807 83.7596 78.3872 83.5049 77.8807C83.2531 77.3713 83.1271 76.7746 83.1271 76.0906C83.1271 75.4152 83.2531 74.82 83.5049 74.3048C83.7596 73.7897 84.1145 73.3876 84.5695 73.0986C85.0274 72.8096 85.5625 72.665 86.175 72.665C86.547 72.665 86.9076 72.7266 87.2567 72.8496C87.6059 72.9727 87.9192 73.1658 88.1968 73.4291C88.4744 73.6924 88.6933 74.0344 88.8536 74.4551C89.0139 74.8729 89.094 75.3809 89.094 75.979V76.434H83.8526V75.4725H87.8362C87.8362 75.1348 87.7675 74.8357 87.6302 74.5753C87.4928 74.312 87.2996 74.1045 87.0507 73.9528C86.8045 73.8012 86.5155 73.7253 86.1835 73.7253C85.823 73.7253 85.5082 73.814 85.2391 73.9915C84.973 74.166 84.7669 74.395 84.621 74.6783C84.4779 74.9588 84.4064 75.2635 84.4064 75.5927V76.3439C84.4064 76.7846 84.4836 77.1595 84.6382 77.4686C84.7956 77.7776 85.0145 78.0137 85.2949 78.1769C85.5754 78.3371 85.9031 78.4173 86.278 78.4173C86.5212 78.4173 86.743 78.3829 86.9433 78.3142C87.1437 78.2427 87.3168 78.1368 87.4628 77.9966C87.6087 77.8563 87.7203 77.6832 87.7976 77.4772L89.0124 77.6961C88.9151 78.0538 88.7406 78.3672 88.4887 78.6362C88.2397 78.9023 87.9264 79.1098 87.5486 79.2586C87.1737 79.4046 86.7459 79.4776 86.2651 79.4776ZM90.5181 79.3445V72.7509H91.7587V73.7983H91.8274C91.9476 73.4434 92.1593 73.1644 92.4627 72.9612C92.7689 72.7552 93.1152 72.6522 93.5015 72.6522C93.5817 72.6522 93.6761 72.655 93.7848 72.6607C93.8965 72.6665 93.9837 72.6736 94.0467 72.6822V73.9099C93.9952 73.8956 93.9036 73.8799 93.772 73.8627C93.6403 73.8427 93.5087 73.8326 93.377 73.8326C93.0737 73.8326 92.8032 73.897 92.5657 74.0258C92.331 74.1517 92.145 74.3277 92.0077 74.5538C91.8703 74.777 91.8016 75.0317 91.8016 75.3179V79.3445H90.5181ZM95.1574 79.3445V72.7509H96.3894V73.8241H96.471C96.6084 73.4606 96.833 73.1773 97.145 72.9741C97.4569 72.7681 97.8304 72.665 98.2654 72.665C98.7061 72.665 99.0752 72.7681 99.3729 72.9741C99.6734 73.1802 99.8952 73.4635 100.038 73.8241H100.107C100.264 73.4721 100.515 73.1916 100.858 72.9827C101.202 72.7709 101.611 72.665 102.086 72.665C102.684 72.665 103.172 72.8525 103.55 73.2274C103.93 73.6023 104.121 74.1675 104.121 74.923V79.3445H102.837V75.0432C102.837 74.5967 102.715 74.2734 102.472 74.073C102.229 73.8727 101.938 73.7725 101.601 73.7725C101.183 73.7725 100.858 73.9013 100.626 74.1589C100.395 74.4136 100.279 74.7413 100.279 75.1419V79.3445H98.9994V74.9616C98.9994 74.6039 98.8878 74.3163 98.6646 74.0988C98.4414 73.8813 98.1509 73.7725 97.7932 73.7725C97.5499 73.7725 97.3253 73.8369 97.1192 73.9657C96.916 74.0916 96.7515 74.2676 96.6255 74.4937C96.5025 74.7198 96.441 74.9817 96.441 75.2793V79.3445H95.1574ZM105.841 79.3445V72.7509H107.124V79.3445H105.841ZM106.489 71.7335C106.266 71.7335 106.074 71.6591 105.914 71.5103C105.756 71.3586 105.678 71.1783 105.678 70.9694C105.678 70.7576 105.756 70.5773 105.914 70.4285C106.074 70.2769 106.266 70.201 106.489 70.201C106.712 70.201 106.903 70.2769 107.06 70.4285C107.22 70.5773 107.3 70.7576 107.3 70.9694C107.3 71.1783 107.22 71.3586 107.06 71.5103C106.903 71.6591 106.712 71.7335 106.489 71.7335ZM111.929 72.7509V73.7811H108.327V72.7509H111.929ZM109.293 71.1712H110.577V77.4085C110.577 77.6574 110.614 77.8449 110.688 77.9708C110.763 78.0939 110.859 78.1783 110.976 78.2241C111.096 78.267 111.226 78.2885 111.367 78.2885C111.47 78.2885 111.56 78.2813 111.637 78.267C111.714 78.2527 111.775 78.2413 111.817 78.2327L112.049 79.293C111.975 79.3216 111.869 79.3502 111.732 79.3788C111.594 79.4103 111.422 79.4275 111.216 79.4303C110.879 79.4361 110.564 79.376 110.272 79.25C109.98 79.1241 109.744 78.9295 109.564 78.6662C109.383 78.4029 109.293 78.0724 109.293 77.6746V71.1712ZM113.349 79.3445V72.7509H114.632V79.3445H113.349ZM113.997 71.7335C113.774 71.7335 113.582 71.6591 113.422 71.5103C113.264 71.3586 113.186 71.1783 113.186 70.9694C113.186 70.7576 113.264 70.5773 113.422 70.4285C113.582 70.2769 113.774 70.201 113.997 70.201C114.22 70.201 114.411 70.2769 114.568 70.4285C114.728 70.5773 114.808 70.7576 114.808 70.9694C114.808 71.1783 114.728 71.3586 114.568 71.5103C114.411 71.6591 114.22 71.7335 113.997 71.7335ZM116.359 79.3445V72.7509H117.6V73.7983H117.668C117.789 73.4434 118 73.1644 118.304 72.9612C118.61 72.7552 118.956 72.6522 119.343 72.6522C119.423 72.6522 119.517 72.655 119.626 72.6607C119.737 72.6665 119.825 72.6736 119.888 72.6822V73.9099C119.836 73.8956 119.745 73.8799 119.613 73.8627C119.481 73.8427 119.35 73.8326 119.218 73.8326C118.915 73.8326 118.644 73.897 118.407 74.0258C118.172 74.1517 117.986 74.3277 117.849 74.5538C117.711 74.777 117.643 75.0317 117.643 75.3179V79.3445H116.359ZM128.649 81.8171V78.3185H128.572C128.495 78.4588 128.383 78.619 128.237 78.7993C128.094 78.9796 127.896 79.137 127.645 79.2715C127.393 79.406 127.067 79.4733 126.666 79.4733C126.134 79.4733 125.659 79.3373 125.241 79.0655C124.826 78.7907 124.5 78.4001 124.262 77.8935C124.027 77.3841 123.91 76.7732 123.91 76.0606C123.91 75.348 124.029 74.7384 124.266 74.2319C124.507 73.7253 124.836 73.3376 125.254 73.0685C125.671 72.7995 126.145 72.665 126.674 72.665C127.084 72.665 127.413 72.7337 127.662 72.8711C127.914 73.0056 128.108 73.163 128.246 73.3433C128.386 73.5236 128.495 73.6824 128.572 73.8198H128.679V72.7509H129.933V81.8171H128.649ZM126.949 78.3786C127.318 78.3786 127.63 78.2813 127.885 78.0867C128.143 77.8893 128.337 77.616 128.469 77.2668C128.603 76.9177 128.671 76.5113 128.671 76.0477C128.671 75.5898 128.605 75.1891 128.473 74.8457C128.341 74.5023 128.148 74.2347 127.894 74.043C127.639 73.8512 127.324 73.7554 126.949 73.7554C126.563 73.7554 126.241 73.8555 125.983 74.0559C125.726 74.2562 125.531 74.5295 125.4 74.8758C125.271 75.2221 125.206 75.6127 125.206 76.0477C125.206 76.4884 125.272 76.8848 125.404 77.2368C125.535 77.5888 125.73 77.8678 125.988 78.0738C126.248 78.277 126.569 78.3786 126.949 78.3786ZM135.835 76.61V72.7509H137.123V79.3445H135.861V78.2026H135.792C135.641 78.5546 135.397 78.848 135.062 79.0826C134.73 79.3144 134.317 79.4303 133.822 79.4303C133.398 79.4303 133.023 79.3373 132.697 79.1513C132.374 78.9624 132.119 78.6834 131.933 78.3142C131.75 77.9451 131.658 77.4886 131.658 76.9449V72.7509H132.942V76.7903C132.942 77.2396 133.066 77.5974 133.315 77.8635C133.564 78.1296 133.888 78.2627 134.285 78.2627C134.526 78.2627 134.765 78.2026 135.002 78.0824C135.243 77.9622 135.442 77.7805 135.599 77.5373C135.759 77.294 135.838 76.9849 135.835 76.61ZM141.689 79.4776C141.04 79.4776 140.48 79.3388 140.011 79.0612C139.544 78.7807 139.184 78.3872 138.929 77.8807C138.677 77.3713 138.551 76.7746 138.551 76.0906C138.551 75.4152 138.677 74.82 138.929 74.3048C139.184 73.7897 139.539 73.3876 139.994 73.0986C140.452 72.8096 140.987 72.665 141.599 72.665C141.971 72.665 142.332 72.7266 142.681 72.8496C143.03 72.9727 143.343 73.1658 143.621 73.4291C143.899 73.6924 144.118 74.0344 144.278 74.4551C144.438 74.8729 144.518 75.3809 144.518 75.979V76.434H139.277V75.4725H143.26C143.26 75.1348 143.192 74.8357 143.054 74.5753C142.917 74.312 142.724 74.1045 142.475 73.9528C142.229 73.8012 141.94 73.7253 141.608 73.7253C141.247 73.7253 140.932 73.814 140.663 73.9915C140.397 74.166 140.191 74.395 140.045 74.6783C139.902 74.9588 139.831 75.2635 139.831 75.5927V76.3439C139.831 76.7846 139.908 77.1595 140.062 77.4686C140.22 77.7776 140.439 78.0137 140.719 78.1769C141 78.3371 141.327 78.4173 141.702 78.4173C141.945 78.4173 142.167 78.3829 142.368 78.3142C142.568 78.2427 142.741 78.1368 142.887 77.9966C143.033 77.8563 143.145 77.6832 143.222 77.4772L144.437 77.6961C144.339 78.0538 144.165 78.3672 143.913 78.6362C143.664 78.9023 143.351 79.1098 142.973 79.2586C142.598 79.4046 142.17 79.4776 141.689 79.4776ZM149.244 70.553H150.854L153.653 77.387H153.756L156.555 70.553H158.165V79.3445H156.903V72.9827H156.821L154.228 79.3316H153.181L150.588 72.9784H150.507V79.3445H149.244V70.553ZM159.99 79.3445V72.7509H161.274V79.3445H159.99ZM160.638 71.7335C160.415 71.7335 160.223 71.6591 160.063 71.5103C159.906 71.3586 159.827 71.1783 159.827 70.9694C159.827 70.7576 159.906 70.5773 160.063 70.4285C160.223 70.2769 160.415 70.201 160.638 70.201C160.862 70.201 161.052 70.2769 161.209 70.4285C161.37 70.5773 161.45 70.7576 161.45 70.9694C161.45 71.1783 161.37 71.3586 161.209 71.5103C161.052 71.6591 160.862 71.7335 160.638 71.7335ZM170.405 73.412H169.066C169.015 73.1258 168.919 72.8739 168.778 72.6564C168.638 72.4389 168.466 72.2544 168.263 72.1027C168.06 71.951 167.833 71.8365 167.581 71.7593C167.332 71.682 167.067 71.6434 166.787 71.6434C166.28 71.6434 165.826 71.7707 165.426 72.0254C165.028 72.2801 164.713 72.6536 164.481 73.1458C164.252 73.638 164.138 74.239 164.138 74.9488C164.138 75.6642 164.252 76.268 164.481 76.7603C164.713 77.2525 165.029 77.6245 165.43 77.8764C165.831 78.1282 166.281 78.2541 166.782 78.2541C167.06 78.2541 167.323 78.2169 167.572 78.1425C167.824 78.0653 168.052 77.9522 168.255 77.8034C168.458 77.6546 168.63 77.4729 168.77 77.2582C168.913 77.0407 169.012 76.7918 169.066 76.5113L170.405 76.5156C170.334 76.9477 170.195 77.3455 169.989 77.709C169.786 78.0695 169.524 78.3815 169.203 78.6448C168.886 78.9052 168.522 79.107 168.113 79.25C167.704 79.3931 167.257 79.4647 166.774 79.4647C166.012 79.4647 165.334 79.2844 164.739 78.9238C164.144 78.5603 163.674 78.0409 163.331 77.3655C162.99 76.6902 162.82 75.8846 162.82 74.9488C162.82 74.0101 162.992 73.2045 163.335 72.532C163.679 71.8566 164.148 71.3386 164.743 70.978C165.339 70.6145 166.015 70.4328 166.774 70.4328C167.24 70.4328 167.675 70.5001 168.079 70.6346C168.485 70.7662 168.85 70.9608 169.173 71.2184C169.497 71.4731 169.764 71.785 169.976 72.1542C170.188 72.5205 170.331 72.9398 170.405 73.412ZM173.808 79.4904C173.391 79.4904 173.013 79.4132 172.675 79.2586C172.337 79.1012 172.07 78.8737 171.872 78.5761C171.678 78.2785 171.58 77.9136 171.58 77.4814C171.58 77.1094 171.652 76.8032 171.795 76.5628C171.938 76.3224 172.131 76.1321 172.375 75.9919C172.618 75.8517 172.89 75.7458 173.19 75.6742C173.491 75.6027 173.797 75.5483 174.109 75.5111C174.504 75.4653 174.824 75.4281 175.07 75.3995C175.317 75.368 175.495 75.3179 175.607 75.2492C175.719 75.1806 175.774 75.0689 175.774 74.9144V74.8844C175.774 74.5095 175.669 74.219 175.457 74.0129C175.248 73.8069 174.936 73.7039 174.521 73.7039C174.089 73.7039 173.748 73.7997 173.499 73.9915C173.253 74.1804 173.083 74.3907 172.988 74.6225L171.782 74.3478C171.925 73.9471 172.134 73.6237 172.409 73.3776C172.687 73.1286 173.006 72.9483 173.366 72.8367C173.727 72.7223 174.106 72.665 174.504 72.665C174.767 72.665 175.046 72.6965 175.341 72.7595C175.639 72.8196 175.916 72.9312 176.174 73.0943C176.434 73.2574 176.647 73.4907 176.813 73.794C176.979 74.0945 177.062 74.4851 177.062 74.9659V79.3445H175.809V78.443H175.757C175.674 78.609 175.55 78.7721 175.384 78.9324C175.218 79.0926 175.005 79.2257 174.744 79.3316C174.484 79.4375 174.172 79.4904 173.808 79.4904ZM174.087 78.4602C174.442 78.4602 174.746 78.3901 174.997 78.2498C175.252 78.1096 175.445 77.9265 175.577 77.7004C175.711 77.4714 175.779 77.2267 175.779 76.9663V76.1164C175.733 76.1622 175.644 76.2051 175.513 76.2451C175.384 76.2824 175.236 76.3153 175.07 76.3439C174.904 76.3696 174.743 76.394 174.585 76.4169C174.428 76.4369 174.296 76.4541 174.19 76.4684C173.941 76.4998 173.714 76.5528 173.508 76.6272C173.305 76.7016 173.142 76.8089 173.019 76.9492C172.898 77.0865 172.838 77.2697 172.838 77.4986C172.838 77.8163 172.956 78.0567 173.19 78.2198C173.425 78.3801 173.724 78.4602 174.087 78.4602ZM181.549 79.4776C180.911 79.4776 180.362 79.333 179.901 79.044C179.443 78.7521 179.091 78.35 178.845 77.8377C178.599 77.3255 178.476 76.7388 178.476 76.0777C178.476 75.4081 178.602 74.8171 178.853 74.3048C179.105 73.7897 179.46 73.3876 179.918 73.0986C180.376 72.8096 180.915 72.665 181.536 72.665C182.037 72.665 182.484 72.758 182.876 72.9441C183.268 73.1272 183.584 73.3848 183.824 73.7167C184.068 74.0487 184.212 74.4365 184.258 74.8801H183.009C182.94 74.571 182.783 74.3048 182.537 74.0816C182.293 73.8584 181.967 73.7468 181.558 73.7468C181.2 73.7468 180.887 73.8412 180.618 74.0301C180.352 74.2161 180.144 74.4823 179.995 74.8286C179.846 75.172 179.772 75.5783 179.772 76.0477C179.772 76.5285 179.845 76.9434 179.991 77.2926C180.137 77.6417 180.343 77.9121 180.609 78.1039C180.878 78.2956 181.194 78.3915 181.558 78.3915C181.801 78.3915 182.021 78.3471 182.219 78.2584C182.419 78.1668 182.587 78.0366 182.721 77.8678C182.858 77.6989 182.954 77.4958 183.009 77.2582H184.258C184.212 77.6846 184.073 78.0653 183.842 78.4001C183.61 78.7349 183.299 78.9982 182.91 79.1899C182.524 79.3817 182.07 79.4776 181.549 79.4776ZM187.549 79.4904C187.132 79.4904 186.754 79.4132 186.416 79.2586C186.078 79.1012 185.811 78.8737 185.613 78.5761C185.419 78.2785 185.321 77.9136 185.321 77.4814C185.321 77.1094 185.393 76.8032 185.536 76.5628C185.679 76.3224 185.872 76.1321 186.116 75.9919C186.359 75.8517 186.631 75.7458 186.931 75.6742C187.232 75.6027 187.538 75.5483 187.85 75.5111C188.245 75.4653 188.565 75.4281 188.811 75.3995C189.058 75.368 189.236 75.3179 189.348 75.2492C189.46 75.1806 189.515 75.0689 189.515 74.9144V74.8844C189.515 74.5095 189.41 74.219 189.198 74.0129C188.989 73.8069 188.677 73.7039 188.262 73.7039C187.83 73.7039 187.489 73.7997 187.24 73.9915C186.994 74.1804 186.824 74.3907 186.729 74.6225L185.523 74.3478C185.666 73.9471 185.875 73.6237 186.15 73.3776C186.428 73.1286 186.747 72.9483 187.107 72.8367C187.468 72.7223 187.847 72.665 188.245 72.665C188.508 72.665 188.787 72.6965 189.082 72.7595C189.379 72.8196 189.657 72.9312 189.915 73.0943C190.175 73.2574 190.388 73.4907 190.554 73.794C190.72 74.0945 190.803 74.4851 190.803 74.9659V79.3445H189.55V78.443H189.498C189.415 78.609 189.291 78.7721 189.125 78.9324C188.959 79.0926 188.746 79.2257 188.485 79.3316C188.225 79.4375 187.913 79.4904 187.549 79.4904ZM187.828 78.4602C188.183 78.4602 188.487 78.3901 188.738 78.2498C188.993 78.1096 189.186 77.9265 189.318 77.7004C189.452 77.4714 189.52 77.2267 189.52 76.9663V76.1164C189.474 76.1622 189.385 76.2051 189.254 76.2451C189.125 76.2824 188.977 76.3153 188.811 76.3439C188.645 76.3696 188.484 76.394 188.326 76.4169C188.169 76.4369 188.037 76.4541 187.931 76.4684C187.682 76.4998 187.455 76.5528 187.249 76.6272C187.046 76.7016 186.883 76.8089 186.759 76.9492C186.639 77.0865 186.579 77.2697 186.579 77.4986C186.579 77.8163 186.697 78.0567 186.931 78.2198C187.166 78.3801 187.465 78.4602 187.828 78.4602ZM195.29 79.4776C194.672 79.4776 194.133 79.3359 193.672 79.0526C193.211 78.7693 192.853 78.3729 192.599 77.8635C192.344 77.3541 192.217 76.7588 192.217 76.0777C192.217 75.3938 192.344 74.7956 192.599 74.2834C192.853 73.7711 193.211 73.3733 193.672 73.09C194.133 72.8067 194.672 72.665 195.29 72.665C195.908 72.665 196.448 72.8067 196.909 73.09C197.369 73.3733 197.727 73.7711 197.982 74.2834C198.236 74.7956 198.364 75.3938 198.364 76.0777C198.364 76.7588 198.236 77.3541 197.982 77.8635C197.727 78.3729 197.369 78.7693 196.909 79.0526C196.448 79.3359 195.908 79.4776 195.29 79.4776ZM195.294 78.4001C195.695 78.4001 196.027 78.2942 196.29 78.0824C196.554 77.8707 196.748 77.5888 196.874 77.2368C197.003 76.8848 197.067 76.497 197.067 76.0734C197.067 75.6528 197.003 75.2664 196.874 74.9144C196.748 74.5595 196.554 74.2748 196.29 74.0602C196.027 73.8455 195.695 73.7382 195.294 73.7382C194.891 73.7382 194.556 73.8455 194.29 74.0602C194.027 74.2748 193.831 74.5595 193.702 74.9144C193.576 75.2664 193.513 75.6528 193.513 76.0734C193.513 76.497 193.576 76.8848 193.702 77.2368C193.831 77.5888 194.027 77.8707 194.29 78.0824C194.556 78.2942 194.891 78.4001 195.294 78.4001ZM206.073 72.7509V73.7811H202.472V72.7509H206.073ZM203.438 71.1712H204.721V77.4085C204.721 77.6574 204.758 77.8449 204.833 77.9708C204.907 78.0939 205.003 78.1783 205.12 78.2241C205.241 78.267 205.371 78.2885 205.511 78.2885C205.614 78.2885 205.704 78.2813 205.782 78.267C205.859 78.2527 205.919 78.2413 205.962 78.2327L206.194 79.293C206.119 79.3216 206.013 79.3502 205.876 79.3788C205.739 79.4103 205.567 79.4275 205.361 79.4303C205.023 79.4361 204.708 79.376 204.416 79.25C204.125 79.1241 203.888 78.9295 203.708 78.6662C203.528 78.4029 203.438 78.0724 203.438 77.6746V71.1712ZM210.2 79.4776C209.582 79.4776 209.042 79.3359 208.581 79.0526C208.121 78.7693 207.763 78.3729 207.508 77.8635C207.254 77.3541 207.126 76.7588 207.126 76.0777C207.126 75.3938 207.254 74.7956 207.508 74.2834C207.763 73.7711 208.121 73.3733 208.581 73.09C209.042 72.8067 209.582 72.665 210.2 72.665C210.818 72.665 211.357 72.8067 211.818 73.09C212.279 73.3733 212.637 73.7711 212.891 74.2834C213.146 74.7956 213.273 75.3938 213.273 76.0777C213.273 76.7588 213.146 77.3541 212.891 77.8635C212.637 78.3729 212.279 78.7693 211.818 79.0526C211.357 79.3359 210.818 79.4776 210.2 79.4776ZM210.204 78.4001C210.605 78.4001 210.937 78.2942 211.2 78.0824C211.463 77.8707 211.658 77.5888 211.784 77.2368C211.913 76.8848 211.977 76.497 211.977 76.0734C211.977 75.6528 211.913 75.2664 211.784 74.9144C211.658 74.5595 211.463 74.2748 211.2 74.0602C210.937 73.8455 210.605 73.7382 210.204 73.7382C209.801 73.7382 209.466 73.8455 209.2 74.0602C208.936 74.2748 208.74 74.5595 208.612 74.9144C208.486 75.2664 208.423 75.6528 208.423 76.0734C208.423 76.497 208.486 76.8848 208.612 77.2368C208.74 77.5888 208.936 77.8707 209.2 78.0824C209.466 78.2942 209.801 78.4001 210.204 78.4001ZM214.706 79.3445V72.7509H215.938V73.8241H216.02C216.157 73.4606 216.382 73.1773 216.694 72.9741C217.006 72.7681 217.379 72.665 217.814 72.665C218.255 72.665 218.624 72.7681 218.922 72.9741C219.222 73.1802 219.444 73.4635 219.587 73.8241H219.656C219.813 73.4721 220.063 73.1916 220.407 72.9827C220.75 72.7709 221.159 72.665 221.635 72.665C222.233 72.665 222.721 72.8525 223.098 73.2274C223.479 73.6023 223.669 74.1675 223.669 74.923V79.3445H222.386V75.0432C222.386 74.5967 222.264 74.2734 222.021 74.073C221.778 73.8727 221.487 73.7725 221.149 73.7725C220.732 73.7725 220.407 73.9013 220.175 74.1589C219.943 74.4136 219.827 74.7413 219.827 75.1419V79.3445H218.548V74.9616C218.548 74.6039 218.436 74.3163 218.213 74.0988C217.99 73.8813 217.7 73.7725 217.342 73.7725C217.099 73.7725 216.874 73.8369 216.668 73.9657C216.465 74.0916 216.3 74.2676 216.174 74.4937C216.051 74.7198 215.99 74.9817 215.99 75.2793V79.3445H214.706ZM228.231 79.4776C227.582 79.4776 227.022 79.3388 226.553 79.0612C226.086 78.7807 225.726 78.3872 225.471 77.8807C225.219 77.3713 225.093 76.7746 225.093 76.0906C225.093 75.4152 225.219 74.82 225.471 74.3048C225.726 73.7897 226.081 73.3876 226.536 73.0986C226.994 72.8096 227.529 72.665 228.141 72.665C228.513 72.665 228.874 72.7266 229.223 72.8496C229.572 72.9727 229.885 73.1658 230.163 73.4291C230.441 73.6924 230.66 74.0344 230.82 74.4551C230.98 74.8729 231.06 75.3809 231.06 75.979V76.434H225.819V75.4725H229.802C229.802 75.1348 229.734 74.8357 229.596 74.5753C229.459 74.312 229.266 74.1045 229.017 73.9528C228.771 73.8012 228.482 73.7253 228.15 73.7253C227.789 73.7253 227.474 73.814 227.205 73.9915C226.939 74.166 226.733 74.395 226.587 74.6783C226.444 74.9588 226.373 75.2635 226.373 75.5927V76.3439C226.373 76.7846 226.45 77.1595 226.604 77.4686C226.762 77.7776 226.981 78.0137 227.261 78.1769C227.542 78.3371 227.869 78.4173 228.244 78.4173C228.487 78.4173 228.709 78.3829 228.91 78.3142C229.11 78.2427 229.283 78.1368 229.429 77.9966C229.575 77.8563 229.687 77.6832 229.764 77.4772L230.979 77.6961C230.881 78.0538 230.707 78.3672 230.455 78.6362C230.206 78.9023 229.893 79.1098 229.515 79.2586C229.14 79.4046 228.712 79.4776 228.231 79.4776ZM75.2817 94.7509V95.7811H71.5556V94.7509H75.2817ZM72.5773 101.344V93.9868C72.5773 93.5747 72.6674 93.2327 72.8477 92.9608C73.028 92.6861 73.267 92.4815 73.5646 92.347C73.8622 92.2096 74.1856 92.1409 74.5347 92.1409C74.7923 92.1409 75.0127 92.1624 75.1958 92.2053C75.379 92.2454 75.5149 92.2826 75.6036 92.3169L75.3031 93.3558C75.243 93.3386 75.1658 93.3186 75.0713 93.2957C74.9769 93.2699 74.8624 93.257 74.7279 93.257C74.416 93.257 74.1928 93.3343 74.0582 93.4888C73.9266 93.6434 73.8608 93.8666 73.8608 94.1585V101.344H72.5773ZM79.1236 101.478C78.5055 101.478 77.966 101.336 77.5053 101.053C77.0445 100.769 76.6868 100.373 76.4321 99.8635C76.1774 99.3541 76.0501 98.7588 76.0501 98.0777C76.0501 97.3938 76.1774 96.7956 76.4321 96.2834C76.6868 95.7711 77.0445 95.3733 77.5053 95.09C77.966 94.8067 78.5055 94.665 79.1236 94.665C79.7418 94.665 80.2812 94.8067 80.742 95.09C81.2027 95.3733 81.5605 95.7711 81.8152 96.2834C82.0699 96.7956 82.1972 97.3938 82.1972 98.0777C82.1972 98.7588 82.0699 99.3541 81.8152 99.8635C81.5605 100.373 81.2027 100.769 80.742 101.053C80.2812 101.336 79.7418 101.478 79.1236 101.478ZM79.1279 100.4C79.5286 100.4 79.8606 100.294 80.1238 100.082C80.3871 99.8707 80.5817 99.5888 80.7077 99.2368C80.8364 98.8848 80.9008 98.497 80.9008 98.0734C80.9008 97.6528 80.8364 97.2664 80.7077 96.9144C80.5817 96.5595 80.3871 96.2748 80.1238 96.0602C79.8606 95.8455 79.5286 95.7382 79.1279 95.7382C78.7244 95.7382 78.3896 95.8455 78.1234 96.0602C77.8602 96.2748 77.6641 96.5595 77.5353 96.9144C77.4094 97.2664 77.3465 97.6528 77.3465 98.0734C77.3465 98.497 77.4094 98.8848 77.5353 99.2368C77.6641 99.5888 77.8602 99.8707 78.1234 100.082C78.3896 100.294 78.7244 100.4 79.1279 100.4ZM86.7078 94.7509V95.7811H83.1062V94.7509H86.7078ZM84.0721 93.1712H85.3556V99.4085C85.3556 99.6574 85.3928 99.8449 85.4672 99.9708C85.5416 100.094 85.6375 100.178 85.7548 100.224C85.875 100.267 86.0052 100.288 86.1454 100.288C86.2485 100.288 86.3386 100.281 86.4159 100.267C86.4931 100.253 86.5532 100.241 86.5962 100.233L86.828 101.293C86.7536 101.322 86.6477 101.35 86.5103 101.379C86.373 101.41 86.2012 101.427 85.9952 101.43C85.6575 101.436 85.3427 101.376 85.0508 101.25C84.7589 101.124 84.5228 100.93 84.3425 100.666C84.1622 100.403 84.0721 100.072 84.0721 99.6746V93.1712ZM90.8341 101.478C90.216 101.478 89.6765 101.336 89.2158 101.053C88.755 100.769 88.3973 100.373 88.1426 99.8635C87.8879 99.3541 87.7606 98.7588 87.7606 98.0777C87.7606 97.3938 87.8879 96.7956 88.1426 96.2834C88.3973 95.7711 88.755 95.3733 89.2158 95.09C89.6765 94.8067 90.216 94.665 90.8341 94.665C91.4523 94.665 91.9917 94.8067 92.4525 95.09C92.9132 95.3733 93.271 95.7711 93.5257 96.2834C93.7804 96.7956 93.9077 97.3938 93.9077 98.0777C93.9077 98.7588 93.7804 99.3541 93.5257 99.8635C93.271 100.373 92.9132 100.769 92.4525 101.053C91.9917 101.336 91.4523 101.478 90.8341 101.478ZM90.8384 100.4C91.2391 100.4 91.5711 100.294 91.8343 100.082C92.0976 99.8707 92.2922 99.5888 92.4182 99.2368C92.5469 98.8848 92.6113 98.497 92.6113 98.0734C92.6113 97.6528 92.5469 97.2664 92.4182 96.9144C92.2922 96.5595 92.0976 96.2748 91.8343 96.0602C91.5711 95.8455 91.2391 95.7382 90.8384 95.7382C90.4349 95.7382 90.1001 95.8455 89.8339 96.0602C89.5707 96.2748 89.3746 96.5595 89.2458 96.9144C89.1199 97.2664 89.057 97.6528 89.057 98.0734C89.057 98.497 89.1199 98.8848 89.2458 99.2368C89.3746 99.5888 89.5707 99.8707 89.8339 100.082C90.1001 100.294 90.4349 100.4 90.8384 100.4ZM98.1049 103.954C97.5812 103.954 97.1305 103.886 96.7527 103.748C96.3778 103.611 96.0716 103.429 95.8341 103.203C95.5965 102.977 95.4191 102.73 95.3018 102.461L96.405 102.006C96.4823 102.131 96.5853 102.265 96.7141 102.405C96.8457 102.548 97.0232 102.669 97.2464 102.77C97.4725 102.87 97.7629 102.92 98.1178 102.92C98.6043 102.92 99.0064 102.801 99.324 102.564C99.6417 102.329 99.8005 101.954 99.8005 101.439V100.143H99.719C99.6417 100.283 99.5301 100.439 99.3841 100.61C99.2411 100.782 99.0436 100.931 98.7918 101.057C98.5399 101.183 98.2122 101.246 97.8087 101.246C97.2879 101.246 96.8185 101.124 96.4007 100.881C95.9858 100.635 95.6566 100.273 95.4134 99.7948C95.173 99.314 95.0528 98.7231 95.0528 98.0219C95.0528 97.3208 95.1716 96.7198 95.4091 96.219C95.6495 95.7182 95.9786 95.3347 96.3964 95.0685C96.8142 94.7995 97.2879 94.665 97.8173 94.665C98.2265 94.665 98.5571 94.7337 98.8089 94.8711C99.0608 95.0056 99.2568 95.163 99.397 95.3433C99.5401 95.5236 99.6503 95.6824 99.7276 95.8198H99.822V94.7509H101.08V101.49C101.08 102.057 100.948 102.522 100.685 102.886C100.422 103.249 100.065 103.518 99.616 103.693C99.1695 103.867 98.6658 103.954 98.1049 103.954ZM98.092 100.181C98.4612 100.181 98.7731 100.095 99.0278 99.9236C99.2854 99.749 99.48 99.5 99.6117 99.1767C99.7462 98.8504 99.8134 98.4598 99.8134 98.0048C99.8134 97.5612 99.7476 97.1705 99.616 96.8328C99.4843 96.4952 99.2911 96.2319 99.0364 96.043C98.7817 95.8512 98.4669 95.7554 98.092 95.7554C97.7057 95.7554 97.3837 95.8555 97.1262 96.0559C96.8686 96.2533 96.674 96.5223 96.5424 96.8629C96.4136 97.2035 96.3492 97.5841 96.3492 98.0048C96.3492 98.4369 96.415 98.8161 96.5467 99.1423C96.6783 99.4686 96.8729 99.7233 97.1305 99.9064C97.3909 100.09 97.7114 100.181 98.092 100.181ZM102.801 101.344V94.7509H104.042V95.7983H104.11C104.231 95.4434 104.442 95.1644 104.746 94.9612C105.052 94.7552 105.398 94.6522 105.785 94.6522C105.865 94.6522 105.959 94.655 106.068 94.6607C106.179 94.6665 106.267 94.6736 106.33 94.6822V95.9099C106.278 95.8956 106.187 95.8799 106.055 95.8627C105.923 95.8427 105.792 95.8326 105.66 95.8326C105.357 95.8326 105.086 95.897 104.849 96.0258C104.614 96.1517 104.428 96.3277 104.291 96.5538C104.153 96.777 104.085 97.0317 104.085 97.3179V101.344H102.801ZM109.3 101.49C108.882 101.49 108.505 101.413 108.167 101.259C107.829 101.101 107.562 100.874 107.364 100.576C107.17 100.278 107.072 99.9136 107.072 99.4814C107.072 99.1094 107.144 98.8032 107.287 98.5628C107.43 98.3224 107.623 98.1321 107.867 97.9919C108.11 97.8517 108.382 97.7458 108.682 97.6742C108.983 97.6027 109.289 97.5483 109.601 97.5111C109.996 97.4653 110.316 97.4281 110.562 97.3995C110.808 97.368 110.987 97.3179 111.099 97.2492C111.211 97.1806 111.266 97.0689 111.266 96.9144V96.8844C111.266 96.5095 111.16 96.219 110.949 96.0129C110.74 95.8069 110.428 95.7039 110.013 95.7039C109.581 95.7039 109.24 95.7997 108.991 95.9915C108.745 96.1804 108.575 96.3907 108.48 96.6225L107.274 96.3478C107.417 95.9471 107.626 95.6237 107.901 95.3776C108.178 95.1286 108.498 94.9483 108.858 94.8367C109.219 94.7223 109.598 94.665 109.996 94.665C110.259 94.665 110.538 94.6965 110.833 94.7595C111.13 94.8196 111.408 94.9312 111.666 95.0943C111.926 95.2574 112.139 95.4907 112.305 95.794C112.471 96.0945 112.554 96.4851 112.554 96.9659V101.344H111.301V100.443H111.249C111.166 100.609 111.042 100.772 110.876 100.932C110.71 101.093 110.497 101.226 110.236 101.332C109.976 101.437 109.664 101.49 109.3 101.49ZM109.579 100.46C109.934 100.46 110.238 100.39 110.489 100.25C110.744 100.11 110.937 99.9265 111.069 99.7004C111.203 99.4714 111.271 99.2267 111.271 98.9663V98.1164C111.225 98.1622 111.136 98.2051 111.004 98.2451C110.876 98.2824 110.728 98.3153 110.562 98.3439C110.396 98.3696 110.235 98.394 110.077 98.4169C109.92 98.4369 109.788 98.4541 109.682 98.4684C109.433 98.4998 109.206 98.5528 109 98.6272C108.797 98.7016 108.633 98.8089 108.51 98.9492C108.39 99.0865 108.33 99.2697 108.33 99.4986C108.33 99.8163 108.447 100.057 108.682 100.22C108.917 100.38 109.216 100.46 109.579 100.46ZM117.402 94.7509V95.7811H113.676V94.7509H117.402ZM114.697 101.344V93.9868C114.697 93.5747 114.787 93.2327 114.968 92.9608C115.148 92.6861 115.387 92.4815 115.685 92.347C115.982 92.2096 116.306 92.1409 116.655 92.1409C116.912 92.1409 117.133 92.1624 117.316 92.2053C117.499 92.2454 117.635 92.2826 117.724 92.3169L117.423 93.3558C117.363 93.3386 117.286 93.3186 117.191 93.2957C117.097 93.2699 116.982 93.257 116.848 93.257C116.536 93.257 116.313 93.3343 116.178 93.4888C116.047 93.6434 115.981 93.8666 115.981 94.1585V101.344H114.697ZM118.726 101.344V94.7509H120.01V101.344H118.726ZM118.846 93.8709L119.851 91.8919H121.203L119.872 93.8709H118.846ZM123.655 101.49C123.237 101.49 122.86 101.413 122.522 101.259C122.184 101.101 121.917 100.874 121.719 100.576C121.524 100.278 121.427 99.9136 121.427 99.4814C121.427 99.1094 121.499 98.8032 121.642 98.5628C121.785 98.3224 121.978 98.1321 122.221 97.9919C122.465 97.8517 122.736 97.7458 123.037 97.6742C123.337 97.6027 123.644 97.5483 123.956 97.5111C124.351 97.4653 124.671 97.4281 124.917 97.3995C125.163 97.368 125.342 97.3179 125.454 97.2492C125.565 97.1806 125.621 97.0689 125.621 96.9144V96.8844C125.621 96.5095 125.515 96.219 125.304 96.0129C125.095 95.8069 124.783 95.7039 124.368 95.7039C123.936 95.7039 123.595 95.7997 123.346 95.9915C123.1 96.1804 122.93 96.3907 122.835 96.6225L121.629 96.3478C121.772 95.9471 121.981 95.6237 122.256 95.3776C122.533 95.1286 122.852 94.9483 123.213 94.8367C123.574 94.7223 123.953 94.665 124.351 94.665C124.614 94.665 124.893 94.6965 125.188 94.7595C125.485 94.8196 125.763 94.9312 126.02 95.0943C126.281 95.2574 126.494 95.4907 126.66 95.794C126.826 96.0945 126.909 96.4851 126.909 96.9659V101.344H125.656V100.443H125.604C125.521 100.609 125.397 100.772 125.231 100.932C125.065 101.093 124.851 101.226 124.591 101.332C124.33 101.437 124.019 101.49 123.655 101.49ZM123.934 100.46C124.289 100.46 124.592 100.39 124.844 100.25C125.099 100.11 125.292 99.9265 125.424 99.7004C125.558 99.4714 125.625 99.2267 125.625 98.9663V98.1164C125.58 98.1622 125.491 98.2051 125.359 98.2451C125.231 98.2824 125.083 98.3153 124.917 98.3439C124.751 98.3696 124.589 98.394 124.432 98.4169C124.275 98.4369 124.143 98.4541 124.037 98.4684C123.788 98.4998 123.561 98.5528 123.355 98.6272C123.151 98.7016 122.988 98.8089 122.865 98.9492C122.745 99.0865 122.685 99.2697 122.685 99.4986C122.685 99.8163 122.802 100.057 123.037 100.22C123.272 100.38 123.571 100.46 123.934 100.46ZM133.559 96.3607L132.396 96.5667C132.347 96.4179 132.27 96.2762 132.164 96.1417C132.061 96.0072 131.921 95.897 131.744 95.8112C131.566 95.7253 131.344 95.6824 131.078 95.6824C130.715 95.6824 130.411 95.764 130.168 95.9271C129.925 96.0873 129.803 96.2948 129.803 96.5495C129.803 96.7699 129.885 96.9473 130.048 97.0818C130.211 97.2163 130.474 97.3265 130.838 97.4124L131.885 97.6528C132.492 97.793 132.944 98.009 133.242 98.301C133.539 98.5929 133.688 98.972 133.688 99.4385C133.688 99.8334 133.574 100.185 133.345 100.495C133.119 100.801 132.802 101.041 132.396 101.216C131.993 101.39 131.525 101.478 130.992 101.478C130.254 101.478 129.652 101.32 129.185 101.005C128.719 100.688 128.433 100.237 128.327 99.6532L129.567 99.4643C129.644 99.7877 129.803 100.032 130.044 100.198C130.284 100.361 130.597 100.443 130.984 100.443C131.405 100.443 131.741 100.356 131.993 100.181C132.244 100.004 132.37 99.7877 132.37 99.533C132.37 99.3269 132.293 99.1538 132.139 99.0135C131.987 98.8733 131.754 98.7674 131.439 98.6959L130.323 98.4512C129.707 98.311 129.252 98.0877 128.958 97.7815C128.666 97.4753 128.52 97.0875 128.52 96.6182C128.52 96.229 128.629 95.8885 128.846 95.5965C129.064 95.3046 129.364 95.0771 129.748 94.914C130.131 94.748 130.57 94.665 131.065 94.665C131.778 94.665 132.339 94.8196 132.748 95.1286C133.157 95.4349 133.428 95.8455 133.559 96.3607ZM139.11 103.817C138.918 103.817 138.744 103.801 138.586 103.77C138.429 103.741 138.311 103.71 138.234 103.675L138.543 102.624C138.778 102.687 138.987 102.714 139.17 102.705C139.353 102.697 139.515 102.628 139.655 102.499C139.798 102.37 139.924 102.16 140.033 101.868L140.192 101.43L137.779 94.7509H139.153L140.823 99.8678H140.891L142.561 94.7509H143.939L141.222 102.224C141.096 102.568 140.936 102.858 140.741 103.096C140.547 103.336 140.315 103.517 140.046 103.637C139.777 103.757 139.465 103.817 139.11 103.817ZM151.109 103.954C150.585 103.954 150.135 103.886 149.757 103.748C149.382 103.611 149.076 103.429 148.838 103.203C148.601 102.977 148.423 102.73 148.306 102.461L149.409 102.006C149.486 102.131 149.589 102.265 149.718 102.405C149.85 102.548 150.027 102.669 150.251 102.77C150.477 102.87 150.767 102.92 151.122 102.92C151.608 102.92 152.011 102.801 152.328 102.564C152.646 102.329 152.805 101.954 152.805 101.439V100.143H152.723C152.646 100.283 152.534 100.439 152.388 100.61C152.245 100.782 152.048 100.931 151.796 101.057C151.544 101.183 151.216 101.246 150.813 101.246C150.292 101.246 149.823 101.124 149.405 100.881C148.99 100.635 148.661 100.273 148.418 99.7948C148.177 99.314 148.057 98.7231 148.057 98.0219C148.057 97.3208 148.176 96.7198 148.413 96.219C148.654 95.7182 148.983 95.3347 149.401 95.0685C149.818 94.7995 150.292 94.665 150.821 94.665C151.231 94.665 151.561 94.7337 151.813 94.8711C152.065 95.0056 152.261 95.163 152.401 95.3433C152.544 95.5236 152.654 95.6824 152.732 95.8198H152.826V94.7509H154.084V101.49C154.084 102.057 153.952 102.522 153.689 102.886C153.426 103.249 153.069 103.518 152.62 103.693C152.174 103.867 151.67 103.954 151.109 103.954ZM151.096 100.181C151.465 100.181 151.777 100.095 152.032 99.9236C152.29 99.749 152.484 99.5 152.616 99.1767C152.75 98.8504 152.818 98.4598 152.818 98.0048C152.818 97.5612 152.752 97.1705 152.62 96.8328C152.488 96.4952 152.295 96.2319 152.041 96.043C151.786 95.8512 151.471 95.7554 151.096 95.7554C150.71 95.7554 150.388 95.8555 150.13 96.0559C149.873 96.2533 149.678 96.5223 149.547 96.8629C149.418 97.2035 149.353 97.5841 149.353 98.0048C149.353 98.4369 149.419 98.8161 149.551 99.1423C149.683 99.4686 149.877 99.7233 150.135 99.9064C150.395 100.09 150.716 100.181 151.096 100.181ZM155.805 101.344V94.7509H157.046V95.7983H157.115C157.235 95.4434 157.447 95.1644 157.75 94.9612C158.056 94.7552 158.402 94.6522 158.789 94.6522C158.869 94.6522 158.963 94.655 159.072 94.6607C159.184 94.6665 159.271 94.6736 159.334 94.6822V95.9099C159.282 95.8956 159.191 95.8799 159.059 95.8627C158.928 95.8427 158.796 95.8326 158.664 95.8326C158.361 95.8326 158.09 95.897 157.853 96.0258C157.618 96.1517 157.432 96.3277 157.295 96.5538C157.158 96.777 157.089 97.0317 157.089 97.3179V101.344H155.805ZM162.304 101.49C161.887 101.49 161.509 101.413 161.171 101.259C160.834 101.101 160.566 100.874 160.368 100.576C160.174 100.278 160.077 99.9136 160.077 99.4814C160.077 99.1094 160.148 98.8032 160.291 98.5628C160.434 98.3224 160.627 98.1321 160.871 97.9919C161.114 97.8517 161.386 97.7458 161.686 97.6742C161.987 97.6027 162.293 97.5483 162.605 97.5111C163 97.4653 163.32 97.4281 163.567 97.3995C163.813 97.368 163.992 97.3179 164.103 97.2492C164.215 97.1806 164.271 97.0689 164.271 96.9144V96.8844C164.271 96.5095 164.165 96.219 163.953 96.0129C163.744 95.8069 163.432 95.7039 163.017 95.7039C162.585 95.7039 162.244 95.7997 161.995 95.9915C161.749 96.1804 161.579 96.3907 161.485 96.6225L160.278 96.3478C160.421 95.9471 160.63 95.6237 160.905 95.3776C161.183 95.1286 161.502 94.9483 161.862 94.8367C162.223 94.7223 162.602 94.665 163 94.665C163.263 94.665 163.542 94.6965 163.837 94.7595C164.135 94.8196 164.412 94.9312 164.67 95.0943C164.93 95.2574 165.143 95.4907 165.309 95.794C165.475 96.0945 165.558 96.4851 165.558 96.9659V101.344H164.305V100.443H164.253C164.17 100.609 164.046 100.772 163.88 100.932C163.714 101.093 163.501 101.226 163.24 101.332C162.98 101.437 162.668 101.49 162.304 101.49ZM162.584 100.46C162.938 100.46 163.242 100.39 163.494 100.25C163.748 100.11 163.941 99.9265 164.073 99.7004C164.208 99.4714 164.275 99.2267 164.275 98.9663V98.1164C164.229 98.1622 164.14 98.2051 164.009 98.2451C163.88 98.2824 163.733 98.3153 163.567 98.3439C163.401 98.3696 163.239 98.394 163.081 98.4169C162.924 98.4369 162.792 98.4541 162.687 98.4684C162.438 98.4998 162.21 98.5528 162.004 98.6272C161.801 98.7016 161.638 98.8089 161.515 98.9492C161.394 99.0865 161.334 99.2697 161.334 99.4986C161.334 99.8163 161.452 100.057 161.686 100.22C161.921 100.38 162.22 100.46 162.584 100.46ZM167.371 101.344V92.553H168.654V95.8198H168.732C168.806 95.6824 168.913 95.5236 169.054 95.3433C169.194 95.163 169.389 95.0056 169.637 94.8711C169.886 94.7337 170.216 94.665 170.625 94.665C171.157 94.665 171.632 94.7995 172.05 95.0685C172.468 95.3376 172.795 95.7253 173.033 96.2319C173.273 96.7384 173.394 97.348 173.394 98.0606C173.394 98.7732 173.275 99.3841 173.037 99.8935C172.8 100.4 172.474 100.791 172.059 101.065C171.644 101.337 171.17 101.473 170.638 101.473C170.237 101.473 169.909 101.406 169.655 101.272C169.403 101.137 169.205 100.98 169.062 100.799C168.919 100.619 168.809 100.459 168.732 100.319H168.624V101.344H167.371ZM168.629 98.0477C168.629 98.5113 168.696 98.9177 168.83 99.2668C168.965 99.616 169.16 99.8893 169.414 100.087C169.669 100.281 169.981 100.379 170.35 100.379C170.734 100.379 171.054 100.277 171.312 100.074C171.569 99.8678 171.764 99.5888 171.895 99.2368C172.03 98.8848 172.097 98.4884 172.097 98.0477C172.097 97.6127 172.031 97.2221 171.9 96.8758C171.771 96.5295 171.576 96.2562 171.316 96.0559C171.058 95.8555 170.736 95.7554 170.35 95.7554C169.978 95.7554 169.663 95.8512 169.406 96.043C169.151 96.2347 168.958 96.5023 168.826 96.8457C168.695 97.1891 168.629 97.5898 168.629 98.0477ZM177.677 101.478C177.027 101.478 176.468 101.339 175.998 101.061C175.532 100.781 175.171 100.387 174.916 99.8807C174.665 99.3713 174.539 98.7746 174.539 98.0906C174.539 97.4152 174.665 96.82 174.916 96.3048C175.171 95.7897 175.526 95.3876 175.981 95.0986C176.439 94.8096 176.974 94.665 177.587 94.665C177.959 94.665 178.319 94.7266 178.668 94.8496C179.017 94.9727 179.331 95.1658 179.608 95.4291C179.886 95.6924 180.105 96.0344 180.265 96.4551C180.425 96.8729 180.506 97.3809 180.506 97.979V98.434H175.264V97.4725H179.248C179.248 97.1348 179.179 96.8357 179.042 96.5753C178.904 96.312 178.711 96.1045 178.462 95.9528C178.216 95.8012 177.927 95.7253 177.595 95.7253C177.235 95.7253 176.92 95.814 176.651 95.9915C176.385 96.166 176.179 96.395 176.033 96.6783C175.889 96.9588 175.818 97.2635 175.818 97.5927V98.3439C175.818 98.7846 175.895 99.1595 176.05 99.4686C176.207 99.7776 176.426 100.014 176.707 100.177C176.987 100.337 177.315 100.417 177.69 100.417C177.933 100.417 178.155 100.383 178.355 100.314C178.555 100.243 178.728 100.137 178.874 99.9966C179.02 99.8563 179.132 99.6832 179.209 99.4772L180.424 99.6961C180.327 100.054 180.152 100.367 179.9 100.636C179.651 100.902 179.338 101.11 178.96 101.259C178.585 101.405 178.157 101.478 177.677 101.478ZM190.769 94.7509L188.378 101.344H187.005L184.609 94.7509H185.987L187.657 99.8249H187.726L189.391 94.7509H190.769ZM191.976 101.344V94.7509H193.259V101.344H191.976ZM192.624 93.7335C192.401 93.7335 192.209 93.6591 192.049 93.5103C191.891 93.3586 191.813 93.1783 191.813 92.9694C191.813 92.7576 191.891 92.5773 192.049 92.4285C192.209 92.2769 192.401 92.201 192.624 92.201C192.847 92.201 193.037 92.2769 193.195 92.4285C193.355 92.5773 193.435 92.7576 193.435 92.9694C193.435 93.1783 193.355 93.3586 193.195 93.5103C193.037 93.6591 192.847 93.7335 192.624 93.7335ZM197.454 101.473C196.922 101.473 196.447 101.337 196.029 101.065C195.614 100.791 195.288 100.4 195.05 99.8935C194.816 99.3841 194.698 98.7732 194.698 98.0606C194.698 97.348 194.817 96.7384 195.055 96.2319C195.295 95.7253 195.624 95.3376 196.042 95.0685C196.46 94.7995 196.933 94.665 197.463 94.665C197.872 94.665 198.201 94.7337 198.45 94.8711C198.702 95.0056 198.897 95.163 199.034 95.3433C199.174 95.5236 199.283 95.6824 199.36 95.8198H199.437V92.553H200.721V101.344H199.468V100.319H199.36C199.283 100.459 199.171 100.619 199.025 100.799C198.882 100.98 198.685 101.137 198.433 101.272C198.181 101.406 197.855 101.473 197.454 101.473ZM197.738 100.379C198.107 100.379 198.419 100.281 198.673 100.087C198.931 99.8893 199.126 99.616 199.257 99.2668C199.392 98.9177 199.459 98.5113 199.459 98.0477C199.459 97.5898 199.393 97.1891 199.261 96.8457C199.13 96.5023 198.937 96.2347 198.682 96.043C198.427 95.8512 198.112 95.7554 197.738 95.7554C197.351 95.7554 197.029 95.8555 196.772 96.0559C196.514 96.2562 196.32 96.5295 196.188 96.8758C196.059 97.2221 195.995 97.6127 195.995 98.0477C195.995 98.4884 196.061 98.8848 196.192 99.2368C196.324 99.5888 196.518 99.8678 196.776 100.074C197.036 100.277 197.357 100.379 197.738 100.379ZM205.395 101.478C204.745 101.478 204.186 101.339 203.716 101.061C203.25 100.781 202.889 100.387 202.634 99.8807C202.383 99.3713 202.257 98.7746 202.257 98.0906C202.257 97.4152 202.383 96.82 202.634 96.3048C202.889 95.7897 203.244 95.3876 203.699 95.0986C204.157 94.8096 204.692 94.665 205.305 94.665C205.677 94.665 206.037 94.7266 206.386 94.8496C206.735 94.9727 207.049 95.1658 207.326 95.4291C207.604 95.6924 207.823 96.0344 207.983 96.4551C208.143 96.8729 208.224 97.3809 208.224 97.979V98.434H202.982V97.4725H206.966C206.966 97.1348 206.897 96.8357 206.76 96.5753C206.622 96.312 206.429 96.1045 206.18 95.9528C205.934 95.8012 205.645 95.7253 205.313 95.7253C204.953 95.7253 204.638 95.814 204.369 95.9915C204.103 96.166 203.897 96.395 203.751 96.6783C203.607 96.9588 203.536 97.2635 203.536 97.5927V98.3439C203.536 98.7846 203.613 99.1595 203.768 99.4686C203.925 99.7776 204.144 100.014 204.425 100.177C204.705 100.337 205.033 100.417 205.408 100.417C205.651 100.417 205.873 100.383 206.073 100.314C206.273 100.243 206.446 100.137 206.592 99.9966C206.738 99.8563 206.85 99.6832 206.927 99.4772L208.142 99.6961C208.045 100.054 207.87 100.367 207.618 100.636C207.369 100.902 207.056 101.11 206.678 101.259C206.303 101.405 205.875 101.478 205.395 101.478ZM212.425 101.478C211.807 101.478 211.267 101.336 210.807 101.053C210.346 100.769 209.988 100.373 209.734 99.8635C209.479 99.3541 209.351 98.7588 209.351 98.0777C209.351 97.3938 209.479 96.7956 209.734 96.2834C209.988 95.7711 210.346 95.3733 210.807 95.09C211.267 94.8067 211.807 94.665 212.425 94.665C213.043 94.665 213.583 94.8067 214.043 95.09C214.504 95.3733 214.862 95.7711 215.117 96.2834C215.371 96.7956 215.499 97.3938 215.499 98.0777C215.499 98.7588 215.371 99.3541 215.117 99.8635C214.862 100.373 214.504 100.769 214.043 101.053C213.583 101.336 213.043 101.478 212.425 101.478ZM212.429 100.4C212.83 100.4 213.162 100.294 213.425 100.082C213.689 99.8707 213.883 99.5888 214.009 99.2368C214.138 98.8848 214.202 98.497 214.202 98.0734C214.202 97.6528 214.138 97.2664 214.009 96.9144C213.883 96.5595 213.689 96.2748 213.425 96.0602C213.162 95.8455 212.83 95.7382 212.429 95.7382C212.026 95.7382 211.691 95.8455 211.425 96.0602C211.162 96.2748 210.966 96.5595 210.837 96.9144C210.711 97.2664 210.648 97.6528 210.648 98.0734C210.648 98.497 210.711 98.8848 210.837 99.2368C210.966 99.5888 211.162 99.8707 211.425 100.082C211.691 100.294 212.026 100.4 212.429 100.4ZM221.872 96.3607L220.709 96.5667C220.66 96.4179 220.583 96.2762 220.477 96.1417C220.374 96.0072 220.234 95.897 220.056 95.8112C219.879 95.7253 219.657 95.6824 219.391 95.6824C219.028 95.6824 218.724 95.764 218.481 95.9271C218.238 96.0873 218.116 96.2948 218.116 96.5495C218.116 96.7699 218.198 96.9473 218.361 97.0818C218.524 97.2163 218.787 97.3265 219.151 97.4124L220.198 97.6528C220.805 97.793 221.257 98.009 221.555 98.301C221.852 98.5929 222.001 98.972 222.001 99.4385C222.001 99.8334 221.887 100.185 221.658 100.495C221.432 100.801 221.115 101.041 220.709 101.216C220.305 101.39 219.837 101.478 219.305 101.478C218.567 101.478 217.964 101.32 217.498 101.005C217.031 100.688 216.745 100.237 216.639 99.6532L217.88 99.4643C217.957 99.7877 218.116 100.032 218.356 100.198C218.597 100.361 218.91 100.443 219.297 100.443C219.717 100.443 220.054 100.356 220.305 100.181C220.557 100.004 220.683 99.7877 220.683 99.533C220.683 99.3269 220.606 99.1538 220.451 99.0135C220.3 98.8733 220.066 98.7674 219.752 98.6959L218.636 98.4512C218.02 98.311 217.565 98.0877 217.27 97.7815C216.979 97.4753 216.833 97.0875 216.833 96.6182C216.833 96.229 216.941 95.8885 217.159 95.5965C217.376 95.3046 217.677 95.0771 218.06 94.914C218.444 94.748 218.883 94.665 219.378 94.665C220.091 94.665 220.652 94.8196 221.061 95.1286C221.47 95.4349 221.741 95.8455 221.872 96.3607ZM224.816 98.8161V98.7345C224.822 98.2022 224.875 97.7787 224.975 97.4639C225.078 97.1491 225.224 96.8944 225.413 96.6998C225.602 96.5052 225.829 96.3277 226.095 96.1675C226.267 96.0587 226.421 95.9371 226.559 95.8026C226.696 95.6681 226.805 95.5136 226.885 95.339C226.965 95.1644 227.005 94.9712 227.005 94.7595C227.005 94.5048 226.945 94.2844 226.825 94.0984C226.705 93.9124 226.544 93.7693 226.344 93.6691C226.147 93.5661 225.926 93.5146 225.683 93.5146C225.463 93.5146 225.252 93.5604 225.052 93.652C224.852 93.7435 224.686 93.8866 224.554 94.0812C224.422 94.273 224.347 94.5205 224.327 94.8239H223.022C223.042 94.3087 223.172 93.8737 223.412 93.5189C223.653 93.1612 223.97 92.8907 224.365 92.7076C224.763 92.5244 225.202 92.4328 225.683 92.4328C226.21 92.4328 226.67 92.5316 227.065 92.729C227.46 92.9236 227.766 93.1969 227.984 93.5489C228.204 93.8981 228.314 94.3059 228.314 94.7723C228.314 95.0929 228.264 95.3819 228.164 95.6395C228.064 95.8942 227.921 96.1217 227.735 96.322C227.552 96.5223 227.331 96.6998 227.074 96.8543C226.831 97.006 226.633 97.1634 226.482 97.3265C226.333 97.4896 226.224 97.6828 226.155 97.906C226.087 98.1292 226.049 98.4054 226.044 98.7345V98.8161H224.816ZM225.464 101.426C225.229 101.426 225.028 101.343 224.859 101.177C224.69 101.008 224.606 100.805 224.606 100.568C224.606 100.333 224.69 100.133 224.859 99.9665C225.028 99.7977 225.229 99.7133 225.464 99.7133C225.696 99.7133 225.896 99.7977 226.065 99.9665C226.237 100.133 226.323 100.333 226.323 100.568C226.323 100.725 226.283 100.869 226.202 101.001C226.125 101.13 226.022 101.233 225.893 101.31C225.765 101.387 225.622 101.426 225.464 101.426Z" fill="black"/>
<rect x="30" y="121.776" width="242" height="0.448148" fill="#3C3C43" fill-opacity="0.29"/>
<path d="M72.4956 135.221H74.4284L77.0168 141.539H77.119L79.7074 135.221H81.6401V143.94H80.1246V137.95H80.0437L77.6341 143.914H76.5017L74.0921 137.937H74.0112V143.94H72.4956V135.221ZM83.292 143.94V137.401H84.8331V143.94H83.292ZM84.0668 136.473C83.8227 136.473 83.6127 136.392 83.4367 136.23C83.2607 136.065 83.1727 135.868 83.1727 135.638C83.1727 135.406 83.2607 135.208 83.4367 135.047C83.6127 134.882 83.8227 134.8 84.0668 134.8C84.3137 134.8 84.5237 134.882 84.6968 135.047C84.8728 135.208 84.9608 135.406 84.9608 135.638C84.9608 135.868 84.8728 136.065 84.6968 136.23C84.5237 136.392 84.3137 136.473 84.0668 136.473ZM89.3127 144.068C88.6571 144.068 88.0909 143.931 87.6141 143.659C87.1401 143.384 86.7754 142.995 86.52 142.492C86.2646 141.987 86.1368 141.393 86.1368 140.709C86.1368 140.036 86.2646 139.446 86.52 138.938C86.7783 138.427 87.1387 138.029 87.6013 137.746C88.064 137.459 88.6075 137.316 89.2319 137.316C89.6349 137.316 90.0152 137.381 90.3728 137.512C90.7332 137.639 91.0511 137.838 91.3264 138.108C91.6046 138.377 91.8231 138.721 91.982 139.138C92.141 139.552 92.2204 140.046 92.2204 140.619V141.092H86.8606V140.053H90.7432C90.7403 139.758 90.6765 139.495 90.5516 139.266C90.4267 139.033 90.2522 138.85 90.028 138.716C89.8066 138.583 89.5483 138.516 89.2531 138.516C88.9381 138.516 88.6614 138.593 88.423 138.746C88.1846 138.897 87.9987 139.095 87.8653 139.342C87.7347 139.586 87.668 139.854 87.6652 140.147V141.054C87.6652 141.434 87.7347 141.76 87.8738 142.033C88.0129 142.302 88.2073 142.51 88.457 142.654C88.7068 142.796 88.9991 142.867 89.334 142.867C89.5582 142.867 89.7612 142.836 89.9428 142.773C90.1245 142.708 90.282 142.613 90.4154 142.488C90.5488 142.363 90.6495 142.209 90.7176 142.024L92.1566 142.186C92.0658 142.566 91.8926 142.898 91.6372 143.182C91.3846 143.463 91.061 143.682 90.6665 143.838C90.272 143.991 89.8208 144.068 89.3127 144.068ZM95.0653 140.108V143.94H93.5242V137.401H94.9972V138.512H95.0738C95.2243 138.146 95.4641 137.855 95.7933 137.639C96.1254 137.424 96.5355 137.316 97.0236 137.316C97.4749 137.316 97.868 137.412 98.2029 137.605C98.5406 137.798 98.8018 138.078 98.9862 138.444C99.1735 138.81 99.2658 139.254 99.263 139.776V143.94H97.7218V140.015C97.7218 139.578 97.6083 139.236 97.3813 138.989C97.157 138.742 96.8463 138.618 96.4489 138.618C96.1793 138.618 95.9395 138.678 95.7295 138.797C95.5223 138.914 95.3591 139.082 95.2399 139.304C95.1235 139.525 95.0653 139.793 95.0653 140.108ZM104.095 137.401V138.593H100.336V137.401H104.095ZM101.264 135.834H102.805V141.973C102.805 142.18 102.836 142.339 102.899 142.45C102.964 142.558 103.049 142.632 103.154 142.671C103.259 142.711 103.375 142.731 103.503 142.731C103.6 142.731 103.688 142.724 103.767 142.71C103.849 142.695 103.912 142.683 103.954 142.671L104.214 143.876C104.132 143.904 104.014 143.936 103.861 143.97C103.71 144.004 103.526 144.024 103.307 144.029C102.921 144.041 102.574 143.983 102.264 143.855C101.955 143.724 101.709 143.523 101.528 143.25C101.349 142.978 101.261 142.637 101.264 142.229V135.834ZM105.384 143.94V137.401H106.878V138.491H106.946C107.065 138.113 107.27 137.822 107.559 137.618C107.852 137.411 108.185 137.307 108.56 137.307C108.645 137.307 108.74 137.311 108.845 137.32C108.953 137.326 109.042 137.336 109.113 137.35V138.767C109.048 138.745 108.944 138.725 108.802 138.708C108.663 138.688 108.528 138.678 108.398 138.678C108.117 138.678 107.864 138.739 107.64 138.861C107.419 138.98 107.244 139.146 107.116 139.359C106.989 139.572 106.925 139.818 106.925 140.096V143.94H105.384ZM111.902 144.072C111.487 144.072 111.114 143.998 110.782 143.851C110.453 143.7 110.192 143.479 109.999 143.186C109.808 142.894 109.713 142.534 109.713 142.105C109.713 141.736 109.781 141.431 109.918 141.19C110.054 140.949 110.24 140.756 110.475 140.611C110.711 140.466 110.976 140.357 111.272 140.283C111.57 140.206 111.877 140.151 112.195 140.117C112.578 140.077 112.889 140.042 113.128 140.011C113.366 139.976 113.539 139.925 113.647 139.857C113.758 139.786 113.813 139.677 113.813 139.529V139.504C113.813 139.183 113.718 138.935 113.528 138.759C113.338 138.583 113.064 138.495 112.706 138.495C112.329 138.495 112.029 138.577 111.808 138.742C111.589 138.906 111.442 139.101 111.365 139.325L109.926 139.121C110.04 138.723 110.227 138.391 110.488 138.125C110.749 137.855 111.069 137.653 111.446 137.52C111.824 137.384 112.241 137.316 112.698 137.316C113.013 137.316 113.326 137.353 113.639 137.426C113.951 137.5 114.236 137.622 114.494 137.793C114.753 137.96 114.96 138.188 115.116 138.478C115.275 138.767 115.354 139.129 115.354 139.564V143.94H113.873V143.042H113.822C113.728 143.223 113.596 143.394 113.426 143.553C113.258 143.709 113.047 143.835 112.791 143.931C112.539 144.025 112.242 144.072 111.902 144.072ZM112.302 142.939C112.611 142.939 112.879 142.878 113.106 142.756C113.333 142.632 113.508 142.467 113.63 142.263C113.755 142.058 113.817 141.835 113.817 141.594V140.824C113.769 140.863 113.687 140.9 113.57 140.934C113.457 140.968 113.329 140.998 113.187 141.024C113.045 141.049 112.905 141.072 112.766 141.092C112.627 141.112 112.506 141.129 112.404 141.143C112.174 141.174 111.968 141.225 111.787 141.296C111.605 141.367 111.462 141.466 111.357 141.594C111.252 141.719 111.199 141.881 111.199 142.08C111.199 142.363 111.303 142.578 111.51 142.722C111.717 142.867 111.981 142.939 112.302 142.939ZM122.072 139.129L120.667 139.283C120.628 139.141 120.558 139.007 120.459 138.882C120.362 138.757 120.232 138.657 120.067 138.58C119.902 138.503 119.701 138.465 119.462 138.465C119.142 138.465 118.872 138.535 118.654 138.674C118.438 138.813 118.331 138.993 118.334 139.214C118.331 139.405 118.401 139.559 118.543 139.678C118.688 139.798 118.926 139.896 119.258 139.972L120.373 140.211C120.992 140.344 121.452 140.555 121.753 140.845C122.057 141.134 122.21 141.513 122.213 141.982C122.21 142.393 122.089 142.756 121.851 143.071C121.615 143.384 121.287 143.628 120.867 143.804C120.447 143.98 119.965 144.068 119.42 144.068C118.62 144.068 117.975 143.9 117.487 143.565C116.999 143.228 116.708 142.758 116.614 142.156L118.117 142.011C118.185 142.307 118.33 142.529 118.551 142.68C118.773 142.83 119.061 142.905 119.416 142.905C119.782 142.905 120.075 142.83 120.297 142.68C120.521 142.529 120.633 142.343 120.633 142.122C120.633 141.935 120.561 141.78 120.416 141.658C120.274 141.536 120.053 141.442 119.752 141.377L118.637 141.143C118.009 141.012 117.545 140.792 117.244 140.483C116.944 140.171 116.795 139.776 116.797 139.3C116.795 138.897 116.904 138.547 117.125 138.252C117.349 137.954 117.66 137.724 118.058 137.563C118.458 137.398 118.919 137.316 119.441 137.316C120.207 137.316 120.811 137.479 121.25 137.805C121.693 138.132 121.967 138.573 122.072 139.129ZM129.352 144.068C128.696 144.068 128.13 143.931 127.653 143.659C127.179 143.384 126.815 142.995 126.559 142.492C126.304 141.987 126.176 141.393 126.176 140.709C126.176 140.036 126.304 139.446 126.559 138.938C126.818 138.427 127.178 138.029 127.641 137.746C128.103 137.459 128.647 137.316 129.271 137.316C129.674 137.316 130.054 137.381 130.412 137.512C130.772 137.639 131.09 137.838 131.366 138.108C131.644 138.377 131.862 138.721 132.021 139.138C132.18 139.552 132.26 140.046 132.26 140.619V141.092H126.9V140.053H130.782C130.78 139.758 130.716 139.495 130.591 139.266C130.466 139.033 130.291 138.85 130.067 138.716C129.846 138.583 129.588 138.516 129.292 138.516C128.977 138.516 128.701 138.593 128.462 138.746C128.224 138.897 128.038 139.095 127.905 139.342C127.774 139.586 127.707 139.854 127.704 140.147V141.054C127.704 141.434 127.774 141.76 127.913 142.033C128.052 142.302 128.247 142.51 128.496 142.654C128.746 142.796 129.038 142.867 129.373 142.867C129.597 142.867 129.8 142.836 129.982 142.773C130.164 142.708 130.321 142.613 130.455 142.488C130.588 142.363 130.689 142.209 130.757 142.024L132.196 142.186C132.105 142.566 131.932 142.898 131.676 143.182C131.424 143.463 131.1 143.682 130.706 143.838C130.311 143.991 129.86 144.068 129.352 144.068ZM135.105 135.221V143.94H133.563V135.221H135.105ZM141.545 144.072C141.13 144.072 140.757 143.998 140.425 143.851C140.096 143.7 139.835 143.479 139.642 143.186C139.452 142.894 139.356 142.534 139.356 142.105C139.356 141.736 139.425 141.431 139.561 141.19C139.697 140.949 139.883 140.756 140.119 140.611C140.354 140.466 140.619 140.357 140.915 140.283C141.213 140.206 141.521 140.151 141.838 140.117C142.222 140.077 142.532 140.042 142.771 140.011C143.009 139.976 143.182 139.925 143.29 139.857C143.401 139.786 143.456 139.677 143.456 139.529V139.504C143.456 139.183 143.361 138.935 143.171 138.759C142.981 138.583 142.707 138.495 142.349 138.495C141.972 138.495 141.672 138.577 141.451 138.742C141.232 138.906 141.085 139.101 141.008 139.325L139.569 139.121C139.683 138.723 139.87 138.391 140.131 138.125C140.392 137.855 140.712 137.653 141.089 137.52C141.467 137.384 141.884 137.316 142.341 137.316C142.656 137.316 142.969 137.353 143.282 137.426C143.594 137.5 143.879 137.622 144.137 137.793C144.396 137.96 144.603 138.188 144.759 138.478C144.918 138.767 144.997 139.129 144.997 139.564V143.94H143.516V143.042H143.465C143.371 143.223 143.239 143.394 143.069 143.553C142.901 143.709 142.69 143.835 142.434 143.931C142.182 144.025 141.885 144.072 141.545 144.072ZM141.945 142.939C142.254 142.939 142.522 142.878 142.749 142.756C142.977 142.632 143.151 142.467 143.273 142.263C143.398 142.058 143.46 141.835 143.46 141.594V140.824C143.412 140.863 143.33 140.9 143.214 140.934C143.1 140.968 142.972 140.998 142.83 141.024C142.688 141.049 142.548 141.072 142.409 141.092C142.27 141.112 142.149 141.129 142.047 141.143C141.817 141.174 141.611 141.225 141.43 141.296C141.248 141.367 141.105 141.466 141 141.594C140.895 141.719 140.842 141.881 140.842 142.08C140.842 142.363 140.946 142.578 141.153 142.722C141.36 142.867 141.624 142.939 141.945 142.939ZM146.547 146.392V137.401H148.063V138.482H148.152C148.231 138.323 148.343 138.154 148.488 137.976C148.633 137.794 148.829 137.639 149.076 137.512C149.323 137.381 149.638 137.316 150.021 137.316C150.526 137.316 150.982 137.445 151.387 137.703C151.796 137.959 152.12 138.337 152.358 138.84C152.599 139.339 152.72 139.952 152.72 140.679C152.72 141.397 152.602 142.007 152.367 142.51C152.131 143.012 151.81 143.395 151.404 143.659C150.999 143.923 150.539 144.055 150.025 144.055C149.65 144.055 149.34 143.992 149.093 143.868C148.846 143.743 148.647 143.592 148.497 143.416C148.349 143.237 148.234 143.069 148.152 142.91H148.088V146.392H146.547ZM148.058 140.67C148.058 141.093 148.118 141.464 148.237 141.782C148.359 142.099 148.534 142.348 148.761 142.527C148.991 142.703 149.269 142.79 149.595 142.79C149.936 142.79 150.221 142.7 150.451 142.518C150.681 142.334 150.854 142.082 150.97 141.764C151.089 141.444 151.149 141.079 151.149 140.67C151.149 140.265 151.091 139.904 150.974 139.589C150.858 139.274 150.685 139.027 150.455 138.848C150.225 138.669 149.939 138.58 149.595 138.58C149.266 138.58 148.986 138.667 148.756 138.84C148.527 139.013 148.352 139.256 148.233 139.568C148.116 139.88 148.058 140.248 148.058 140.67ZM154.04 146.392V137.401H155.555V138.482H155.645C155.724 138.323 155.836 138.154 155.981 137.976C156.126 137.794 156.322 137.639 156.568 137.512C156.815 137.381 157.13 137.316 157.514 137.316C158.019 137.316 158.474 137.445 158.88 137.703C159.289 137.959 159.612 138.337 159.851 138.84C160.092 139.339 160.213 139.952 160.213 140.679C160.213 141.397 160.095 142.007 159.859 142.51C159.624 143.012 159.303 143.395 158.897 143.659C158.491 143.923 158.032 144.055 157.518 144.055C157.143 144.055 156.832 143.992 156.585 143.868C156.339 143.743 156.14 143.592 155.989 143.416C155.842 143.237 155.727 143.069 155.645 142.91H155.581V146.392H154.04ZM155.551 140.67C155.551 141.093 155.611 141.464 155.73 141.782C155.852 142.099 156.026 142.348 156.253 142.527C156.483 142.703 156.761 142.79 157.088 142.79C157.428 142.79 157.714 142.7 157.944 142.518C158.173 142.334 158.347 142.082 158.463 141.764C158.582 141.444 158.642 141.079 158.642 140.67C158.642 140.265 158.584 139.904 158.467 139.589C158.351 139.274 158.178 139.027 157.948 138.848C157.718 138.669 157.431 138.58 157.088 138.58C156.759 138.58 156.479 138.667 156.249 138.84C156.019 139.013 155.845 139.256 155.726 139.568C155.609 139.88 155.551 140.248 155.551 140.67ZM167.401 144.068C166.745 144.068 166.179 143.931 165.702 143.659C165.228 143.384 164.864 142.995 164.608 142.492C164.353 141.987 164.225 141.393 164.225 140.709C164.225 140.036 164.353 139.446 164.608 138.938C164.867 138.427 165.227 138.029 165.69 137.746C166.152 137.459 166.696 137.316 167.32 137.316C167.723 137.316 168.103 137.381 168.461 137.512C168.821 137.639 169.139 137.838 169.415 138.108C169.693 138.377 169.911 138.721 170.07 139.138C170.229 139.552 170.309 140.046 170.309 140.619V141.092H164.949V140.053H168.831C168.829 139.758 168.765 139.495 168.64 139.266C168.515 139.033 168.34 138.85 168.116 138.716C167.895 138.583 167.637 138.516 167.341 138.516C167.026 138.516 166.75 138.593 166.511 138.746C166.273 138.897 166.087 139.095 165.954 139.342C165.823 139.586 165.756 139.854 165.753 140.147V141.054C165.753 141.434 165.823 141.76 165.962 142.033C166.101 142.302 166.296 142.51 166.545 142.654C166.795 142.796 167.087 142.867 167.422 142.867C167.646 142.867 167.849 142.836 168.031 142.773C168.213 142.708 168.37 142.613 168.504 142.488C168.637 142.363 168.738 142.209 168.806 142.024L170.245 142.186C170.154 142.566 169.981 142.898 169.725 143.182C169.473 143.463 169.149 143.682 168.755 143.838C168.36 143.991 167.909 144.068 167.401 144.068ZM176.781 139.129L175.376 139.283C175.336 139.141 175.267 139.007 175.167 138.882C175.071 138.757 174.94 138.657 174.776 138.58C174.611 138.503 174.409 138.465 174.171 138.465C173.85 138.465 173.581 138.535 173.362 138.674C173.146 138.813 173.04 138.993 173.043 139.214C173.04 139.405 173.11 139.559 173.251 139.678C173.396 139.798 173.635 139.896 173.967 139.972L175.082 140.211C175.701 140.344 176.161 140.555 176.461 140.845C176.765 141.134 176.918 141.513 176.921 141.982C176.918 142.393 176.798 142.756 176.559 143.071C176.324 143.384 175.996 143.628 175.576 143.804C175.156 143.98 174.673 144.068 174.128 144.068C173.328 144.068 172.684 143.9 172.196 143.565C171.708 143.228 171.417 142.758 171.323 142.156L172.826 142.011C172.894 142.307 173.039 142.529 173.26 142.68C173.481 142.83 173.769 142.905 174.124 142.905C174.49 142.905 174.784 142.83 175.005 142.68C175.23 142.529 175.342 142.343 175.342 142.122C175.342 141.935 175.269 141.78 175.125 141.658C174.983 141.536 174.761 141.442 174.461 141.377L173.345 141.143C172.718 141.012 172.254 140.792 171.953 140.483C171.652 140.171 171.503 139.776 171.506 139.3C171.503 138.897 171.612 138.547 171.834 138.252C172.058 137.954 172.369 137.724 172.766 137.563C173.166 137.398 173.628 137.316 174.15 137.316C174.916 137.316 175.519 137.479 175.959 137.805C176.402 138.132 176.676 138.573 176.781 139.129ZM181.457 137.401V138.593H177.698V137.401H181.457ZM178.626 135.834H180.167V141.973C180.167 142.18 180.199 142.339 180.261 142.45C180.326 142.558 180.411 142.632 180.516 142.671C180.621 142.711 180.738 142.731 180.866 142.731C180.962 142.731 181.05 142.724 181.129 142.71C181.212 142.695 181.274 142.683 181.317 142.671L181.576 143.876C181.494 143.904 181.376 143.936 181.223 143.97C181.073 144.004 180.888 144.024 180.67 144.029C180.284 144.041 179.936 143.983 179.627 143.855C179.317 143.724 179.072 143.523 178.89 143.25C178.711 142.978 178.623 142.637 178.626 142.229V135.834ZM184.628 144.072C184.213 144.072 183.84 143.998 183.508 143.851C183.179 143.7 182.918 143.479 182.725 143.186C182.535 142.894 182.44 142.534 182.44 142.105C182.44 141.736 182.508 141.431 182.644 141.19C182.78 140.949 182.966 140.756 183.202 140.611C183.437 140.466 183.703 140.357 183.998 140.283C184.296 140.206 184.604 140.151 184.922 140.117C185.305 140.077 185.616 140.042 185.854 140.011C186.092 139.976 186.265 139.925 186.373 139.857C186.484 139.786 186.539 139.677 186.539 139.529V139.504C186.539 139.183 186.444 138.935 186.254 138.759C186.064 138.583 185.79 138.495 185.432 138.495C185.055 138.495 184.756 138.577 184.534 138.742C184.316 138.906 184.168 139.101 184.091 139.325L182.653 139.121C182.766 138.723 182.953 138.391 183.214 138.125C183.476 137.855 183.795 137.653 184.172 137.52C184.55 137.384 184.967 137.316 185.424 137.316C185.739 137.316 186.053 137.353 186.365 137.426C186.677 137.5 186.962 137.622 187.221 137.793C187.479 137.96 187.686 138.188 187.842 138.478C188.001 138.767 188.08 139.129 188.08 139.564V143.94H186.599V143.042H186.548C186.454 143.223 186.322 143.394 186.152 143.553C185.984 143.709 185.773 143.835 185.518 143.931C185.265 144.025 184.968 144.072 184.628 144.072ZM185.028 142.939C185.337 142.939 185.606 142.878 185.833 142.756C186.06 142.632 186.234 142.467 186.356 142.263C186.481 142.058 186.544 141.835 186.544 141.594V140.824C186.495 140.863 186.413 140.9 186.297 140.934C186.183 140.968 186.055 140.998 185.914 141.024C185.772 141.049 185.631 141.072 185.492 141.092C185.353 141.112 185.232 141.129 185.13 141.143C184.9 141.174 184.695 141.225 184.513 141.296C184.331 141.367 184.188 141.466 184.083 141.594C183.978 141.719 183.925 141.881 183.925 142.08C183.925 142.363 184.029 142.578 184.236 142.722C184.443 142.867 184.707 142.939 185.028 142.939ZM195.499 144.068C194.843 144.068 194.277 143.931 193.8 143.659C193.326 143.384 192.961 142.995 192.706 142.492C192.451 141.987 192.323 141.393 192.323 140.709C192.323 140.036 192.451 139.446 192.706 138.938C192.964 138.427 193.325 138.029 193.787 137.746C194.25 137.459 194.793 137.316 195.418 137.316C195.821 137.316 196.201 137.381 196.559 137.512C196.919 137.639 197.237 137.838 197.512 138.108C197.791 138.377 198.009 138.721 198.168 139.138C198.327 139.552 198.406 140.046 198.406 140.619V141.092H193.047V140.053H196.929C196.926 139.758 196.862 139.495 196.738 139.266C196.613 139.033 196.438 138.85 196.214 138.716C195.993 138.583 195.734 138.516 195.439 138.516C195.124 138.516 194.847 138.593 194.609 138.746C194.371 138.897 194.185 139.095 194.051 139.342C193.921 139.586 193.854 139.854 193.851 140.147V141.054C193.851 141.434 193.921 141.76 194.06 142.033C194.199 142.302 194.393 142.51 194.643 142.654C194.893 142.796 195.185 142.867 195.52 142.867C195.744 142.867 195.947 142.836 196.129 142.773C196.31 142.708 196.468 142.613 196.601 142.488C196.735 142.363 196.835 142.209 196.904 142.024L198.343 142.186C198.252 142.566 198.079 142.898 197.823 143.182C197.571 143.463 197.247 143.682 196.852 143.838C196.458 143.991 196.007 144.068 195.499 144.068ZM201.251 140.108V143.94H199.71V137.401H201.183V138.512H201.26C201.41 138.146 201.65 137.855 201.979 137.639C202.311 137.424 202.721 137.316 203.21 137.316C203.661 137.316 204.054 137.412 204.389 137.605C204.727 137.798 204.988 138.078 205.172 138.444C205.36 138.81 205.452 139.254 205.449 139.776V143.94H203.908V140.015C203.908 139.578 203.794 139.236 203.567 138.989C203.343 138.742 203.032 138.618 202.635 138.618C202.365 138.618 202.125 138.678 201.915 138.797C201.708 138.914 201.545 139.082 201.426 139.304C201.309 139.525 201.251 139.793 201.251 140.108ZM214.157 141.19V137.401H215.698V143.94H214.204V142.778H214.136C213.988 143.144 213.746 143.443 213.408 143.676C213.073 143.909 212.66 144.025 212.169 144.025C211.74 144.025 211.361 143.93 211.032 143.74C210.706 143.547 210.45 143.267 210.266 142.901C210.081 142.532 209.989 142.087 209.989 141.564V137.401H211.53V141.326C211.53 141.74 211.644 142.07 211.871 142.314C212.098 142.558 212.396 142.68 212.765 142.68C212.992 142.68 213.212 142.624 213.425 142.514C213.638 142.403 213.812 142.238 213.948 142.02C214.088 141.799 214.157 141.522 214.157 141.19ZM222.451 139.129L221.046 139.283C221.007 139.141 220.937 139.007 220.838 138.882C220.741 138.757 220.611 138.657 220.446 138.58C220.281 138.503 220.08 138.465 219.842 138.465C219.521 138.465 219.251 138.535 219.033 138.674C218.817 138.813 218.711 138.993 218.713 139.214C218.711 139.405 218.78 139.559 218.922 139.678C219.067 139.798 219.305 139.896 219.637 139.972L220.753 140.211C221.371 140.344 221.831 140.555 222.132 140.845C222.436 141.134 222.589 141.513 222.592 141.982C222.589 142.393 222.468 142.756 222.23 143.071C221.994 143.384 221.666 143.628 221.246 143.804C220.826 143.98 220.344 144.068 219.799 144.068C218.999 144.068 218.354 143.9 217.866 143.565C217.378 143.228 217.087 142.758 216.993 142.156L218.496 142.011C218.564 142.307 218.709 142.529 218.93 142.68C219.152 142.83 219.44 142.905 219.795 142.905C220.161 142.905 220.455 142.83 220.676 142.68C220.9 142.529 221.012 142.343 221.012 142.122C221.012 141.935 220.94 141.78 220.795 141.658C220.653 141.536 220.432 141.442 220.131 141.377L219.016 141.143C218.388 141.012 217.924 140.792 217.624 140.483C217.323 140.171 217.174 139.776 217.177 139.3C217.174 138.897 217.283 138.547 217.504 138.252C217.729 137.954 218.039 137.724 218.437 137.563C218.837 137.398 219.298 137.316 219.82 137.316C220.587 137.316 221.19 137.479 221.63 137.805C222.072 138.132 222.346 138.573 222.451 139.129ZM226.715 144.068C226.076 144.068 225.523 143.927 225.055 143.646C224.586 143.365 224.223 142.972 223.965 142.467C223.709 141.962 223.582 141.371 223.582 140.696C223.582 140.02 223.709 139.429 223.965 138.921C224.223 138.413 224.586 138.018 225.055 137.737C225.523 137.456 226.076 137.316 226.715 137.316C227.353 137.316 227.907 137.456 228.375 137.737C228.843 138.018 229.205 138.413 229.461 138.921C229.719 139.429 229.848 140.02 229.848 140.696C229.848 141.371 229.719 141.962 229.461 142.467C229.205 142.972 228.843 143.365 228.375 143.646C227.907 143.927 227.353 144.068 226.715 144.068ZM226.723 142.833C227.07 142.833 227.359 142.738 227.592 142.548C227.825 142.355 227.998 142.097 228.111 141.773C228.228 141.449 228.286 141.089 228.286 140.692C228.286 140.291 228.228 139.93 228.111 139.606C227.998 139.28 227.825 139.02 227.592 138.827C227.359 138.634 227.07 138.538 226.723 138.538C226.369 138.538 226.073 138.634 225.838 138.827C225.605 139.02 225.431 139.28 225.314 139.606C225.201 139.93 225.144 140.291 225.144 140.692C225.144 141.089 225.201 141.449 225.314 141.773C225.431 142.097 225.605 142.355 225.838 142.548C226.073 142.738 226.369 142.833 226.723 142.833Z" fill="#178B83"/>
<rect x="30" y="157.146" width="242" height="0.448148" fill="#3C3C43" fill-opacity="0.29"/>
<path d="M118.052 172.988C118.012 172.616 117.845 172.326 117.549 172.119C117.257 171.912 116.877 171.808 116.408 171.808C116.079 171.808 115.797 171.858 115.561 171.957C115.326 172.057 115.145 172.191 115.021 172.362C114.896 172.532 114.832 172.726 114.829 172.945C114.829 173.127 114.87 173.284 114.952 173.418C115.038 173.551 115.153 173.664 115.297 173.758C115.442 173.849 115.602 173.926 115.778 173.988C115.954 174.05 116.132 174.103 116.31 174.146L117.128 174.35C117.457 174.427 117.774 174.53 118.077 174.661C118.384 174.791 118.658 174.956 118.899 175.155C119.143 175.353 119.336 175.593 119.478 175.874C119.62 176.155 119.691 176.484 119.691 176.862C119.691 177.373 119.56 177.822 119.299 178.211C119.038 178.597 118.66 178.899 118.167 179.118C117.676 179.334 117.081 179.442 116.383 179.442C115.705 179.442 115.116 179.337 114.616 179.127C114.119 178.916 113.731 178.61 113.45 178.207C113.171 177.804 113.021 177.313 112.998 176.734H114.552C114.575 177.038 114.669 177.29 114.833 177.492C114.998 177.693 115.212 177.844 115.476 177.943C115.743 178.042 116.041 178.092 116.37 178.092C116.714 178.092 117.014 178.041 117.273 177.939C117.534 177.834 117.738 177.689 117.886 177.505C118.033 177.317 118.108 177.099 118.111 176.849C118.108 176.622 118.042 176.435 117.911 176.287C117.781 176.137 117.598 176.012 117.362 175.912C117.129 175.81 116.857 175.719 116.545 175.64L115.553 175.384C114.835 175.2 114.267 174.92 113.85 174.546C113.435 174.168 113.228 173.667 113.228 173.043C113.228 172.529 113.367 172.079 113.645 171.693C113.926 171.307 114.308 171.008 114.791 170.795C115.273 170.579 115.819 170.472 116.43 170.472C117.048 170.472 117.591 170.579 118.056 170.795C118.524 171.008 118.892 171.305 119.159 171.685C119.425 172.062 119.563 172.497 119.572 172.988H118.052ZM123.883 179.437C123.244 179.437 122.691 179.297 122.223 179.016C121.754 178.735 121.391 178.342 121.133 177.837C120.877 177.331 120.75 176.741 120.75 176.066C120.75 175.39 120.877 174.798 121.133 174.29C121.391 173.782 121.754 173.388 122.223 173.107C122.691 172.826 123.244 172.685 123.883 172.685C124.522 172.685 125.075 172.826 125.543 173.107C126.012 173.388 126.374 173.782 126.629 174.29C126.887 174.798 127.016 175.39 127.016 176.066C127.016 176.741 126.887 177.331 126.629 177.837C126.374 178.342 126.012 178.735 125.543 179.016C125.075 179.297 124.522 179.437 123.883 179.437ZM123.892 178.203C124.238 178.203 124.527 178.108 124.76 177.917C124.993 177.724 125.166 177.466 125.279 177.143C125.396 176.819 125.454 176.459 125.454 176.061C125.454 175.661 125.396 175.299 125.279 174.976C125.166 174.649 124.993 174.39 124.76 174.197C124.527 174.004 124.238 173.907 123.892 173.907C123.537 173.907 123.242 174.004 123.006 174.197C122.773 174.39 122.599 174.649 122.482 174.976C122.369 175.299 122.312 175.661 122.312 176.061C122.312 176.459 122.369 176.819 122.482 177.143C122.599 177.466 122.773 177.724 123.006 177.917C123.242 178.108 123.537 178.203 123.892 178.203ZM129.866 170.591V179.31H128.324V170.591H129.866ZM134.303 179.437C133.664 179.437 133.111 179.297 132.642 179.016C132.174 178.735 131.811 178.342 131.552 177.837C131.297 177.331 131.169 176.741 131.169 176.066C131.169 175.39 131.297 174.798 131.552 174.29C131.811 173.782 132.174 173.388 132.642 173.107C133.111 172.826 133.664 172.685 134.303 172.685C134.941 172.685 135.495 172.826 135.963 173.107C136.431 173.388 136.793 173.782 137.049 174.29C137.307 174.798 137.436 175.39 137.436 176.066C137.436 176.741 137.307 177.331 137.049 177.837C136.793 178.342 136.431 178.735 135.963 179.016C135.495 179.297 134.941 179.437 134.303 179.437ZM134.311 178.203C134.657 178.203 134.947 178.108 135.18 177.917C135.412 177.724 135.585 177.466 135.699 177.143C135.815 176.819 135.874 176.459 135.874 176.061C135.874 175.661 135.815 175.299 135.699 174.976C135.585 174.649 135.412 174.39 135.18 174.197C134.947 174.004 134.657 173.907 134.311 173.907C133.956 173.907 133.661 174.004 133.426 174.197C133.193 174.39 133.018 174.649 132.902 174.976C132.788 175.299 132.732 175.661 132.732 176.061C132.732 176.459 132.788 176.819 132.902 177.143C133.018 177.466 133.193 177.724 133.426 177.917C133.661 178.108 133.956 178.203 134.311 178.203ZM144.613 179.437C143.957 179.437 143.391 179.301 142.914 179.029C142.44 178.753 142.075 178.364 141.82 177.862C141.564 177.357 141.437 176.762 141.437 176.078C141.437 175.406 141.564 174.815 141.82 174.307C142.078 173.796 142.439 173.399 142.901 173.115C143.364 172.829 143.907 172.685 144.532 172.685C144.935 172.685 145.315 172.751 145.673 172.881C146.033 173.009 146.351 173.208 146.626 173.477C146.904 173.747 147.123 174.09 147.282 174.507C147.441 174.922 147.52 175.416 147.52 175.989V176.461H142.16V175.423H146.043C146.04 175.128 145.976 174.865 145.851 174.635C145.727 174.402 145.552 174.219 145.328 174.086C145.106 173.953 144.848 173.886 144.553 173.886C144.238 173.886 143.961 173.962 143.723 174.116C143.484 174.266 143.298 174.465 143.165 174.712C143.035 174.956 142.968 175.224 142.965 175.516V176.423C142.965 176.803 143.035 177.13 143.174 177.402C143.313 177.672 143.507 177.879 143.757 178.024C144.007 178.166 144.299 178.237 144.634 178.237C144.858 178.237 145.061 178.206 145.243 178.143C145.424 178.078 145.582 177.983 145.715 177.858C145.849 177.733 145.949 177.578 146.017 177.394L147.456 177.556C147.366 177.936 147.192 178.268 146.937 178.552C146.684 178.833 146.361 179.051 145.966 179.207C145.572 179.361 145.121 179.437 144.613 179.437ZM153.992 174.499L152.587 174.652C152.548 174.51 152.478 174.377 152.379 174.252C152.282 174.127 152.152 174.026 151.987 173.95C151.823 173.873 151.621 173.835 151.383 173.835C151.062 173.835 150.792 173.904 150.574 174.043C150.358 174.182 150.252 174.363 150.254 174.584C150.252 174.774 150.321 174.929 150.463 175.048C150.608 175.167 150.846 175.265 151.178 175.342L152.294 175.58C152.912 175.714 153.372 175.925 153.673 176.215C153.977 176.504 154.13 176.883 154.133 177.351C154.13 177.763 154.009 178.126 153.771 178.441C153.535 178.753 153.208 178.997 152.788 179.173C152.367 179.349 151.885 179.437 151.34 179.437C150.54 179.437 149.895 179.27 149.407 178.935C148.919 178.597 148.628 178.127 148.535 177.526L150.037 177.381C150.105 177.676 150.25 177.899 150.472 178.049C150.693 178.2 150.981 178.275 151.336 178.275C151.702 178.275 151.996 178.2 152.217 178.049C152.441 177.899 152.553 177.713 152.553 177.492C152.553 177.304 152.481 177.15 152.336 177.028C152.194 176.906 151.973 176.812 151.672 176.747L150.557 176.513C149.929 176.382 149.465 176.162 149.165 175.853C148.864 175.541 148.715 175.146 148.718 174.669C148.715 174.266 148.824 173.917 149.045 173.622C149.27 173.324 149.58 173.094 149.978 172.932C150.378 172.768 150.839 172.685 151.361 172.685C152.128 172.685 152.731 172.849 153.171 173.175C153.613 173.501 153.887 173.943 153.992 174.499ZM158.669 172.77V173.962H154.91V172.77H158.669ZM155.838 171.204H157.379V177.343C157.379 177.55 157.41 177.709 157.473 177.82C157.538 177.927 157.623 178.001 157.728 178.041C157.833 178.081 157.949 178.101 158.077 178.101C158.174 178.101 158.262 178.093 158.341 178.079C158.423 178.065 158.486 178.052 158.528 178.041L158.788 179.246C158.706 179.274 158.588 179.305 158.435 179.339C158.284 179.373 158.1 179.393 157.881 179.399C157.495 179.41 157.148 179.352 156.838 179.224C156.529 179.094 156.283 178.892 156.102 178.62C155.923 178.347 155.835 178.007 155.838 177.598V171.204ZM161.839 179.442C161.425 179.442 161.052 179.368 160.72 179.22C160.391 179.07 160.129 178.848 159.936 178.556C159.746 178.264 159.651 177.903 159.651 177.475C159.651 177.106 159.719 176.801 159.856 176.559C159.992 176.318 160.178 176.125 160.413 175.98C160.649 175.836 160.914 175.726 161.209 175.653C161.507 175.576 161.815 175.521 162.133 175.487C162.516 175.447 162.827 175.411 163.066 175.38C163.304 175.346 163.477 175.295 163.585 175.227C163.696 175.156 163.751 175.047 163.751 174.899V174.874C163.751 174.553 163.656 174.304 163.466 174.129C163.276 173.953 163.002 173.865 162.644 173.865C162.267 173.865 161.967 173.947 161.746 174.111C161.527 174.276 161.38 174.471 161.303 174.695L159.864 174.49C159.978 174.093 160.165 173.761 160.426 173.494C160.687 173.225 161.006 173.023 161.384 172.89C161.761 172.753 162.179 172.685 162.636 172.685C162.951 172.685 163.264 172.722 163.576 172.796C163.889 172.87 164.174 172.992 164.432 173.162C164.69 173.33 164.898 173.558 165.054 173.848C165.213 174.137 165.292 174.499 165.292 174.933V179.31H163.811V178.411H163.759C163.666 178.593 163.534 178.763 163.364 178.922C163.196 179.078 162.985 179.205 162.729 179.301C162.477 179.395 162.18 179.442 161.839 179.442ZM162.24 178.309C162.549 178.309 162.817 178.248 163.044 178.126C163.271 178.001 163.446 177.837 163.568 177.632C163.693 177.428 163.755 177.205 163.755 176.964V176.193C163.707 176.233 163.625 176.27 163.508 176.304C163.395 176.338 163.267 176.368 163.125 176.393C162.983 176.419 162.843 176.442 162.704 176.461C162.565 176.481 162.444 176.498 162.342 176.513C162.112 176.544 161.906 176.595 161.724 176.666C161.543 176.737 161.4 176.836 161.295 176.964C161.19 177.089 161.137 177.25 161.137 177.449C161.137 177.733 161.241 177.947 161.448 178.092C161.655 178.237 161.919 178.309 162.24 178.309ZM175.656 172.77L173.328 179.31H171.625L169.296 172.77H170.939L172.442 177.628H172.51L174.017 172.77H175.656ZM179.395 179.437C178.74 179.437 178.173 179.301 177.697 179.029C177.223 178.753 176.858 178.364 176.602 177.862C176.347 177.357 176.219 176.762 176.219 176.078C176.219 175.406 176.347 174.815 176.602 174.307C176.861 173.796 177.221 173.399 177.684 173.115C178.146 172.829 178.69 172.685 179.314 172.685C179.717 172.685 180.098 172.751 180.455 172.881C180.816 173.009 181.134 173.208 181.409 173.477C181.687 173.747 181.906 174.09 182.064 174.507C182.223 174.922 182.303 175.416 182.303 175.989V176.461H176.943V175.423H180.826C180.823 175.128 180.759 174.865 180.634 174.635C180.509 174.402 180.335 174.219 180.11 174.086C179.889 173.953 179.631 173.886 179.336 173.886C179.021 173.886 178.744 173.962 178.505 174.116C178.267 174.266 178.081 174.465 177.948 174.712C177.817 174.956 177.75 175.224 177.748 175.516V176.423C177.748 176.803 177.817 177.13 177.956 177.402C178.095 177.672 178.29 177.879 178.539 178.024C178.789 178.166 179.082 178.237 179.416 178.237C179.641 178.237 179.844 178.206 180.025 178.143C180.207 178.078 180.364 177.983 180.498 177.858C180.631 177.733 180.732 177.578 180.8 177.394L182.239 177.556C182.148 177.936 181.975 178.268 181.72 178.552C181.467 178.833 181.143 179.051 180.749 179.207C180.354 179.361 179.903 179.437 179.395 179.437ZM183.522 179.31V178.33L186.893 174.103V174.048H183.632V172.77H188.779V173.822L185.569 177.977V178.032H188.89V179.31H183.522Z" fill="#178B83"/>
<rect x="30" y="192.516" width="242" height="0.448148" fill="#3C3C43" fill-opacity="0.29"/>
<path d="M126.613 205.961V214.679H125.208L121.1 208.741H121.028V214.679H119.448V205.961H120.861L124.965 211.904H125.042V205.961H126.613ZM131.118 214.807C130.48 214.807 129.926 214.667 129.458 214.386C128.99 214.105 128.626 213.712 128.368 213.206C128.113 212.701 127.985 212.111 127.985 211.435C127.985 210.76 128.113 210.168 128.368 209.66C128.626 209.152 128.99 208.758 129.458 208.477C129.926 208.196 130.48 208.055 131.118 208.055C131.757 208.055 132.31 208.196 132.779 208.477C133.247 208.758 133.609 209.152 133.864 209.66C134.122 210.168 134.252 210.76 134.252 211.435C134.252 212.111 134.122 212.701 133.864 213.206C133.609 213.712 133.247 214.105 132.779 214.386C132.31 214.667 131.757 214.807 131.118 214.807ZM131.127 213.573C131.473 213.573 131.762 213.477 131.995 213.287C132.228 213.094 132.401 212.836 132.515 212.513C132.631 212.189 132.689 211.829 132.689 211.431C132.689 211.031 132.631 210.669 132.515 210.346C132.401 210.019 132.228 209.76 131.995 209.567C131.762 209.374 131.473 209.277 131.127 209.277C130.772 209.277 130.477 209.374 130.241 209.567C130.008 209.76 129.834 210.019 129.718 210.346C129.604 210.669 129.547 211.031 129.547 211.431C129.547 211.829 129.604 212.189 129.718 212.513C129.834 212.836 130.008 213.094 130.241 213.287C130.477 213.477 130.772 213.573 131.127 213.573ZM138.533 217.132V208.14H140.049V209.222H140.138C140.218 209.063 140.33 208.894 140.475 208.715C140.619 208.533 140.815 208.379 141.062 208.251C141.309 208.12 141.624 208.055 142.007 208.055C142.512 208.055 142.968 208.184 143.374 208.443C143.782 208.698 144.106 209.077 144.344 209.579C144.586 210.079 144.706 210.692 144.706 211.418C144.706 212.136 144.588 212.747 144.353 213.249C144.117 213.751 143.797 214.135 143.391 214.398C142.985 214.662 142.525 214.794 142.011 214.794C141.637 214.794 141.326 214.732 141.079 214.607C140.832 214.482 140.633 214.332 140.483 214.156C140.335 213.977 140.221 213.808 140.138 213.649H140.074V217.132H138.533ZM140.045 211.41C140.045 211.833 140.104 212.203 140.223 212.521C140.345 212.839 140.52 213.087 140.747 213.266C140.977 213.442 141.255 213.53 141.581 213.53C141.922 213.53 142.207 213.439 142.437 213.258C142.667 213.073 142.84 212.822 142.956 212.504C143.076 212.183 143.135 211.819 143.135 211.41C143.135 211.004 143.077 210.644 142.961 210.329C142.844 210.014 142.671 209.767 142.441 209.588C142.211 209.409 141.925 209.32 141.581 209.32C141.252 209.32 140.973 209.406 140.743 209.579C140.513 209.752 140.338 209.995 140.219 210.307C140.103 210.619 140.045 210.987 140.045 211.41ZM148.921 214.807C148.265 214.807 147.699 214.671 147.222 214.398C146.748 214.123 146.384 213.734 146.128 213.232C145.873 212.727 145.745 212.132 145.745 211.448C145.745 210.776 145.873 210.185 146.128 209.677C146.386 209.166 146.747 208.769 147.209 208.485C147.672 208.199 148.216 208.055 148.84 208.055C149.243 208.055 149.623 208.12 149.981 208.251C150.341 208.379 150.659 208.577 150.935 208.847C151.213 209.117 151.431 209.46 151.59 209.877C151.749 210.292 151.829 210.785 151.829 211.359V211.831H146.469V210.793H150.351C150.348 210.497 150.285 210.235 150.16 210.005C150.035 209.772 149.86 209.589 149.636 209.456C149.415 209.322 149.156 209.256 148.861 209.256C148.546 209.256 148.27 209.332 148.031 209.486C147.793 209.636 147.607 209.835 147.473 210.082C147.343 210.326 147.276 210.594 147.273 210.886V211.793C147.273 212.173 147.343 212.5 147.482 212.772C147.621 213.042 147.815 213.249 148.065 213.394C148.315 213.536 148.607 213.607 148.942 213.607C149.166 213.607 149.369 213.575 149.551 213.513C149.733 213.448 149.89 213.353 150.023 213.228C150.157 213.103 150.258 212.948 150.326 212.764L151.765 212.925C151.674 213.306 151.501 213.638 151.245 213.922C150.993 214.203 150.669 214.421 150.275 214.577C149.88 214.731 149.429 214.807 148.921 214.807ZM153.132 214.679V208.14H154.627V209.23H154.695C154.814 208.853 155.018 208.562 155.308 208.357C155.6 208.15 155.934 208.047 156.308 208.047C156.393 208.047 156.488 208.051 156.593 208.059C156.701 208.065 156.791 208.075 156.862 208.089V209.507C156.796 209.484 156.693 209.464 156.551 209.447C156.412 209.427 156.277 209.418 156.146 209.418C155.865 209.418 155.613 209.479 155.389 209.601C155.167 209.72 154.993 209.886 154.865 210.099C154.737 210.312 154.673 210.557 154.673 210.835V214.679H153.132ZM157.886 214.679V208.14H159.359V209.251H159.435C159.571 208.877 159.797 208.585 160.112 208.374C160.427 208.162 160.803 208.055 161.24 208.055C161.683 208.055 162.056 208.163 162.36 208.379C162.666 208.592 162.882 208.883 163.007 209.251H163.075C163.22 208.888 163.464 208.599 163.807 208.383C164.154 208.164 164.564 208.055 165.038 208.055C165.639 208.055 166.13 208.245 166.511 208.626C166.891 209.006 167.081 209.561 167.081 210.29V214.679H165.536V210.529C165.536 210.123 165.428 209.826 165.212 209.639C164.997 209.449 164.733 209.354 164.42 209.354C164.049 209.354 163.758 209.47 163.548 209.703C163.34 209.933 163.237 210.232 163.237 210.601V214.679H161.726V210.465C161.726 210.127 161.623 209.857 161.419 209.656C161.218 209.454 160.954 209.354 160.627 209.354C160.406 209.354 160.204 209.41 160.023 209.524C159.841 209.635 159.696 209.792 159.588 209.996C159.481 210.198 159.427 210.434 159.427 210.703V214.679H157.886ZM168.645 214.679V208.14H170.186V214.679H168.645ZM169.419 207.212C169.175 207.212 168.965 207.131 168.789 206.97C168.613 206.805 168.525 206.608 168.525 206.378C168.525 206.145 168.613 205.948 168.789 205.786C168.965 205.621 169.175 205.539 169.419 205.539C169.666 205.539 169.876 205.621 170.05 205.786C170.225 205.948 170.313 206.145 170.313 206.378C170.313 206.608 170.225 206.805 170.05 206.97C169.876 207.131 169.666 207.212 169.419 207.212ZM175.036 208.14V209.332H171.277V208.14H175.036ZM172.205 206.574H173.746V212.713C173.746 212.92 173.777 213.079 173.84 213.189C173.905 213.297 173.99 213.371 174.095 213.411C174.2 213.451 174.316 213.47 174.444 213.47C174.541 213.47 174.629 213.463 174.708 213.449C174.79 213.435 174.853 213.422 174.895 213.411L175.155 214.616C175.073 214.644 174.955 214.675 174.802 214.709C174.651 214.743 174.467 214.763 174.248 214.769C173.862 214.78 173.515 214.722 173.205 214.594C172.896 214.464 172.65 214.262 172.469 213.99C172.29 213.717 172.202 213.377 172.205 212.968V206.574ZM176.325 214.679V208.14H177.866V214.679H176.325ZM177.099 207.212C176.855 207.212 176.645 207.131 176.469 206.97C176.293 206.805 176.205 206.608 176.205 206.378C176.205 206.145 176.293 205.948 176.469 205.786C176.645 205.621 176.855 205.539 177.099 205.539C177.346 205.539 177.556 205.621 177.73 205.786C177.906 205.948 177.993 206.145 177.993 206.378C177.993 206.608 177.906 206.805 177.73 206.97C177.556 207.131 177.346 207.212 177.099 207.212ZM179.451 214.679V208.14H180.945V209.23H181.013C181.132 208.853 181.336 208.562 181.626 208.357C181.918 208.15 182.252 208.047 182.626 208.047C182.712 208.047 182.807 208.051 182.912 208.059C183.02 208.065 183.109 208.075 183.18 208.089V209.507C183.115 209.484 183.011 209.464 182.869 209.447C182.73 209.427 182.595 209.418 182.465 209.418C182.184 209.418 181.931 209.479 181.707 209.601C181.485 209.72 181.311 209.886 181.183 210.099C181.056 210.312 180.992 210.557 180.992 210.835V214.679H179.451Z" fill="#178B83"/>
</g>
<mask id="mask1_3542_1417" style="mask-type:alpha" maskUnits="userSpaceOnUse" x="282" y="103" width="48" height="49">
<rect x="282" y="103.972" width="48" height="48" fill="#D9D9D9"/>
</mask>
<g mask="url(#mask1_3542_1417)">
<path d="M296.259 129.972L309.815 141.172L306.365 143.972L287 127.972L306.365 111.972L309.815 114.772L296.259 125.972H325.731V129.972H296.259Z" fill="#EB600A"/>
</g>
<defs>
<filter id="filter0_dd_3542_1417" x="27" y="18" width="248" height="221.944" filterUnits="userSpaceOnUse" color-interpolation-filters="sRGB">
<feFlood flood-opacity="0" result="BackgroundImageFix"/>
<feColorMatrix in="SourceAlpha" type="matrix" values="0 0 0 0 0 0 0 0 0 0 0 0 0 0 0 0 0 0 127 0" result="hardAlpha"/>
<feMorphology radius="1" operator="erode" in="SourceAlpha" result="effect1_dropShadow_3542_1417"/>
<feOffset dy="1"/>
<feGaussianBlur stdDeviation="1"/>
<feComposite in2="hardAlpha" operator="out"/>
<feColorMatrix type="matrix" values="0 0 0 0 0.0627451 0 0 0 0 0.0941176 0 0 0 0 0.156863 0 0 0 0.1 0"/>
<feBlend mode="normal" in2="BackgroundImageFix" result="effect1_dropShadow_3542_1417"/>
<feColorMatrix in="SourceAlpha" type="matrix" values="0 0 0 0 0 0 0 0 0 0 0 0 0 0 0 0 0 0 127 0" result="hardAlpha"/>
<feOffset dy="1"/>
<feGaussianBlur stdDeviation="1.5"/>
<feComposite in2="hardAlpha" operator="out"/>
<feColorMatrix type="matrix" values="0 0 0 0 0.0627451 0 0 0 0 0.0941176 0 0 0 0 0.156863 0 0 0 0.1 0"/>
<feBlend mode="normal" in2="effect1_dropShadow_3542_1417" result="effect2_dropShadow_3542_1417"/>
<feBlend mode="normal" in="SourceGraphic" in2="effect2_dropShadow_3542_1417" result="shape"/>
</filter>
</defs>
</svg>
