<svg width="325" height="174" viewBox="0 0 325 174" fill="none" xmlns="http://www.w3.org/2000/svg">
<path d="M96.9998 127.287C110.883 137.365 130.764 135.497 150.814 132.213L134.231 90.646C123.033 114.813 114.83 119.931 96.9998 127.287Z" fill="white"/>
<rect x="125.024" width="199.975" height="157.836" rx="16" fill="white"/>
<path d="M158.597 28.4347H155.41C155.319 27.9119 155.151 27.4489 154.907 27.0455C154.663 26.6364 154.359 26.2898 153.995 26.0057C153.631 25.7216 153.217 25.5085 152.751 25.3665C152.29 25.2188 151.793 25.1449 151.259 25.1449C150.31 25.1449 149.469 25.3835 148.736 25.8608C148.003 26.3324 147.43 27.0256 147.015 27.9403C146.6 28.8494 146.393 29.9602 146.393 31.2727C146.393 32.608 146.6 33.733 147.015 34.6477C147.435 35.5568 148.009 36.2443 148.736 36.7102C149.469 37.1705 150.307 37.4006 151.251 37.4006C151.773 37.4006 152.262 37.3324 152.717 37.196C153.177 37.054 153.589 36.8466 153.952 36.5739C154.322 36.3011 154.631 35.9659 154.881 35.5682C155.137 35.1705 155.313 34.7159 155.41 34.2045L158.597 34.2216C158.478 35.0511 158.219 35.8295 157.822 36.5568C157.43 37.2841 156.915 37.9261 156.279 38.483C155.643 39.0341 154.898 39.4659 154.046 39.7784C153.194 40.0852 152.248 40.2386 151.208 40.2386C149.674 40.2386 148.305 39.8835 147.1 39.1733C145.896 38.4631 144.947 37.4375 144.253 36.0966C143.56 34.7557 143.214 33.1477 143.214 31.2727C143.214 29.392 143.563 27.7841 144.262 26.4489C144.961 25.108 145.913 24.0824 147.117 23.3722C148.322 22.6619 149.685 22.3068 151.208 22.3068C152.18 22.3068 153.083 22.4432 153.918 22.7159C154.753 22.9886 155.498 23.3892 156.151 23.9176C156.805 24.4403 157.342 25.0824 157.762 25.8438C158.188 26.5994 158.467 27.4631 158.597 28.4347ZM164.644 40.2642C163.814 40.2642 163.067 40.1165 162.402 39.821C161.743 39.5199 161.22 39.0767 160.834 38.4915C160.453 37.9062 160.263 37.1847 160.263 36.3267C160.263 35.5881 160.399 34.9773 160.672 34.4943C160.945 34.0114 161.317 33.625 161.788 33.3352C162.26 33.0455 162.791 32.8267 163.382 32.679C163.979 32.5256 164.595 32.4148 165.232 32.3466C165.999 32.267 166.621 32.196 167.098 32.1335C167.575 32.0653 167.922 31.9631 168.138 31.8267C168.359 31.6847 168.47 31.4659 168.47 31.1705V31.1193C168.47 30.4773 168.28 29.9801 167.899 29.6278C167.519 29.2756 166.97 29.0994 166.254 29.0994C165.499 29.0994 164.899 29.2642 164.456 29.5938C164.019 29.9233 163.723 30.3125 163.57 30.7614L160.689 30.3523C160.916 29.5568 161.291 28.892 161.814 28.358C162.337 27.8182 162.976 27.4148 163.732 27.1477C164.487 26.875 165.322 26.7386 166.237 26.7386C166.868 26.7386 167.496 26.8125 168.121 26.9602C168.746 27.108 169.317 27.3523 169.834 27.6932C170.351 28.0284 170.766 28.4858 171.078 29.0653C171.396 29.6449 171.555 30.3693 171.555 31.2386V40H168.59V38.2017H168.487C168.3 38.5653 168.036 38.9062 167.695 39.2244C167.359 39.5369 166.936 39.7898 166.425 39.983C165.919 40.1705 165.325 40.2642 164.644 40.2642ZM165.445 37.9972C166.064 37.9972 166.601 37.875 167.055 37.6307C167.51 37.3807 167.859 37.0511 168.104 36.642C168.354 36.233 168.479 35.7869 168.479 35.304V33.7614C168.382 33.8409 168.217 33.9148 167.984 33.983C167.757 34.0511 167.501 34.1108 167.217 34.1619C166.933 34.2131 166.652 34.2585 166.374 34.2983C166.095 34.3381 165.854 34.3722 165.649 34.4006C165.189 34.4631 164.777 34.5653 164.413 34.7074C164.05 34.8494 163.763 35.0483 163.553 35.304C163.342 35.554 163.237 35.8778 163.237 36.2756C163.237 36.8438 163.445 37.2727 163.859 37.5625C164.274 37.8523 164.803 37.9972 165.445 37.9972ZM174.178 40V26.9091H177.127V29.1335H177.28C177.553 28.3835 178.004 27.7983 178.635 27.3778C179.266 26.9517 180.019 26.7386 180.894 26.7386C181.78 26.7386 182.527 26.9545 183.135 27.3864C183.749 27.8125 184.181 28.3949 184.431 29.1335H184.567C184.857 28.4062 185.345 27.8267 186.033 27.3949C186.726 26.9574 187.547 26.7386 188.496 26.7386C189.7 26.7386 190.683 27.1193 191.445 27.8807C192.206 28.642 192.587 29.7528 192.587 31.2131V40H189.493V31.6903C189.493 30.8778 189.277 30.2841 188.845 29.9091C188.414 29.5284 187.885 29.3381 187.26 29.3381C186.516 29.3381 185.933 29.571 185.513 30.0369C185.098 30.4972 184.891 31.0966 184.891 31.8352V40H181.865V31.5625C181.865 30.8864 181.661 30.3466 181.252 29.9432C180.848 29.5398 180.32 29.3381 179.666 29.3381C179.223 29.3381 178.82 29.4517 178.456 29.679C178.092 29.9006 177.803 30.2159 177.587 30.625C177.371 31.0284 177.263 31.5 177.263 32.0398V40H174.178ZM195.237 40V26.9091H198.322V40H195.237ZM196.788 25.0511C196.299 25.0511 195.879 24.8892 195.527 24.5653C195.174 24.2358 194.998 23.8409 194.998 23.3807C194.998 22.9148 195.174 22.5199 195.527 22.196C195.879 21.8665 196.299 21.7017 196.788 21.7017C197.282 21.7017 197.703 21.8665 198.049 22.196C198.402 22.5199 198.578 22.9148 198.578 23.3807C198.578 23.8409 198.402 24.2358 198.049 24.5653C197.703 24.8892 197.282 25.0511 196.788 25.0511ZM204.1 32.3295V40H201.015V26.9091H203.963V29.1335H204.117C204.418 28.4006 204.898 27.8182 205.557 27.3864C206.222 26.9545 207.043 26.7386 208.02 26.7386C208.924 26.7386 209.711 26.9318 210.381 27.3182C211.057 27.7045 211.58 28.2642 211.949 28.9972C212.324 29.7301 212.509 30.6193 212.503 31.6648V40H209.418V32.142C209.418 31.267 209.191 30.5824 208.736 30.0881C208.287 29.5937 207.665 29.3466 206.87 29.3466C206.33 29.3466 205.85 29.4659 205.429 29.7045C205.015 29.9375 204.688 30.2756 204.449 30.7188C204.216 31.1619 204.1 31.6989 204.1 32.3295ZM218.927 40.2642C218.097 40.2642 217.35 40.1165 216.685 39.821C216.026 39.5199 215.503 39.0767 215.117 38.4915C214.736 37.9062 214.546 37.1847 214.546 36.3267C214.546 35.5881 214.682 34.9773 214.955 34.4943C215.228 34.0114 215.6 33.625 216.072 33.3352C216.543 33.0455 217.074 32.8267 217.665 32.679C218.262 32.5256 218.878 32.4148 219.515 32.3466C220.282 32.267 220.904 32.196 221.381 32.1335C221.858 32.0653 222.205 31.9631 222.421 31.8267C222.643 31.6847 222.753 31.4659 222.753 31.1705V31.1193C222.753 30.4773 222.563 29.9801 222.182 29.6278C221.802 29.2756 221.253 29.0994 220.537 29.0994C219.782 29.0994 219.182 29.2642 218.739 29.5938C218.302 29.9233 218.006 30.3125 217.853 30.7614L214.972 30.3523C215.199 29.5568 215.574 28.892 216.097 28.358C216.62 27.8182 217.259 27.4148 218.015 27.1477C218.77 26.875 219.606 26.7386 220.52 26.7386C221.151 26.7386 221.779 26.8125 222.404 26.9602C223.029 27.108 223.6 27.3523 224.117 27.6932C224.634 28.0284 225.049 28.4858 225.361 29.0653C225.679 29.6449 225.839 30.3693 225.839 31.2386V40H222.873V38.2017H222.77C222.583 38.5653 222.319 38.9062 221.978 39.2244C221.643 39.5369 221.219 39.7898 220.708 39.983C220.202 40.1705 219.608 40.2642 218.927 40.2642ZM219.728 37.9972C220.347 37.9972 220.884 37.875 221.339 37.6307C221.793 37.3807 222.143 37.0511 222.387 36.642C222.637 36.233 222.762 35.7869 222.762 35.304V33.7614C222.665 33.8409 222.501 33.9148 222.268 33.983C222.04 34.0511 221.785 34.1108 221.501 34.1619C221.216 34.2131 220.935 34.2585 220.657 34.2983C220.378 34.3381 220.137 34.3722 219.932 34.4006C219.472 34.4631 219.06 34.5653 218.697 34.7074C218.333 34.8494 218.046 35.0483 217.836 35.304C217.626 35.554 217.52 35.8778 217.52 36.2756C217.52 36.8438 217.728 37.2727 218.143 37.5625C218.557 37.8523 219.086 37.9972 219.728 37.9972ZM237.019 32.3295V40H233.934V22.5455H236.951V29.1335H237.104C237.411 28.3949 237.886 27.8125 238.528 27.3864C239.175 26.9545 239.999 26.7386 240.999 26.7386C241.908 26.7386 242.701 26.929 243.377 27.3097C244.053 27.6903 244.576 28.2472 244.945 28.9801C245.32 29.7131 245.508 30.608 245.508 31.6648V40H242.423V32.142C242.423 31.2614 242.195 30.5767 241.741 30.0881C241.292 29.5937 240.661 29.3466 239.849 29.3466C239.303 29.3466 238.815 29.4659 238.383 29.7045C237.957 29.9375 237.621 30.2756 237.377 30.7188C237.139 31.1619 237.019 31.6989 237.019 32.3295ZM251.94 40.2642C251.11 40.2642 250.363 40.1165 249.698 39.821C249.039 39.5199 248.516 39.0767 248.13 38.4915C247.749 37.9062 247.559 37.1847 247.559 36.3267C247.559 35.5881 247.695 34.9773 247.968 34.4943C248.241 34.0114 248.613 33.625 249.085 33.3352C249.556 33.0455 250.087 32.8267 250.678 32.679C251.275 32.5256 251.891 32.4148 252.528 32.3466C253.295 32.267 253.917 32.196 254.394 32.1335C254.872 32.0653 255.218 31.9631 255.434 31.8267C255.656 31.6847 255.766 31.4659 255.766 31.1705V31.1193C255.766 30.4773 255.576 29.9801 255.195 29.6278C254.815 29.2756 254.266 29.0994 253.551 29.0994C252.795 29.0994 252.195 29.2642 251.752 29.5938C251.315 29.9233 251.019 30.3125 250.866 30.7614L247.985 30.3523C248.212 29.5568 248.587 28.892 249.11 28.358C249.633 27.8182 250.272 27.4148 251.028 27.1477C251.784 26.875 252.619 26.7386 253.534 26.7386C254.164 26.7386 254.792 26.8125 255.417 26.9602C256.042 27.108 256.613 27.3523 257.13 27.6932C257.647 28.0284 258.062 28.4858 258.374 29.0653C258.693 29.6449 258.852 30.3693 258.852 31.2386V40H255.886V38.2017H255.784C255.596 38.5653 255.332 38.9062 254.991 39.2244C254.656 39.5369 254.232 39.7898 253.721 39.983C253.215 40.1705 252.622 40.2642 251.94 40.2642ZM252.741 37.9972C253.36 37.9972 253.897 37.875 254.352 37.6307C254.806 37.3807 255.156 37.0511 255.4 36.642C255.65 36.233 255.775 35.7869 255.775 35.304V33.7614C255.678 33.8409 255.514 33.9148 255.281 33.983C255.053 34.0511 254.798 34.1108 254.514 34.1619C254.23 34.2131 253.948 34.2585 253.67 34.2983C253.391 34.3381 253.15 34.3722 252.945 34.4006C252.485 34.4631 252.073 34.5653 251.71 34.7074C251.346 34.8494 251.059 35.0483 250.849 35.304C250.639 35.554 250.534 35.8778 250.534 36.2756C250.534 36.8438 250.741 37.2727 251.156 37.5625C251.57 37.8523 252.099 37.9972 252.741 37.9972ZM267.184 40.2557C265.877 40.2557 264.755 39.9688 263.818 39.3949C262.886 38.821 262.167 38.0284 261.661 37.017C261.161 36 260.911 34.8295 260.911 33.5057C260.911 32.1761 261.167 31.0028 261.679 29.9858C262.19 28.9631 262.911 28.1676 263.843 27.5994C264.781 27.0256 265.889 26.7386 267.167 26.7386C268.23 26.7386 269.17 26.9347 269.988 27.3267C270.812 27.7131 271.468 28.2614 271.957 28.9716C272.446 29.6761 272.724 30.5 272.792 31.4432H269.843C269.724 30.8125 269.44 30.2869 268.991 29.8665C268.548 29.4403 267.954 29.2273 267.21 29.2273C266.579 29.2273 266.025 29.3977 265.548 29.7386C265.071 30.0739 264.698 30.5568 264.431 31.1875C264.17 31.8182 264.039 32.5739 264.039 33.4545C264.039 34.3466 264.17 35.1136 264.431 35.7557C264.693 36.392 265.059 36.8835 265.531 37.2301C266.008 37.571 266.568 37.7415 267.21 37.7415C267.664 37.7415 268.071 37.6562 268.429 37.4858C268.792 37.3097 269.096 37.0568 269.34 36.7273C269.585 36.3977 269.752 35.9972 269.843 35.5256H272.792C272.718 36.4517 272.446 37.2727 271.974 37.9886C271.502 38.6989 270.86 39.2557 270.048 39.6591C269.235 40.0568 268.281 40.2557 267.184 40.2557ZM274.846 40V26.9091H277.931V40H274.846ZM276.397 25.0511C275.908 25.0511 275.488 24.8892 275.135 24.5653C274.783 24.2358 274.607 23.8409 274.607 23.3807C274.607 22.9148 274.783 22.5199 275.135 22.196C275.488 21.8665 275.908 21.7017 276.397 21.7017C276.891 21.7017 277.311 21.8665 277.658 22.196C278.01 22.5199 278.186 22.9148 278.186 23.3807C278.186 23.8409 278.01 24.2358 277.658 24.5653C277.311 24.8892 276.891 25.0511 276.397 25.0511ZM284.39 40.2642C283.561 40.2642 282.814 40.1165 282.149 39.821C281.49 39.5199 280.967 39.0767 280.581 38.4915C280.2 37.9062 280.01 37.1847 280.01 36.3267C280.01 35.5881 280.146 34.9773 280.419 34.4943C280.692 34.0114 281.064 33.625 281.535 33.3352C282.007 33.0455 282.538 32.8267 283.129 32.679C283.726 32.5256 284.342 32.4148 284.978 32.3466C285.746 32.267 286.368 32.196 286.845 32.1335C287.322 32.0653 287.669 31.9631 287.885 31.8267C288.106 31.6847 288.217 31.4659 288.217 31.1705V31.1193C288.217 30.4773 288.027 29.9801 287.646 29.6278C287.265 29.2756 286.717 29.0994 286.001 29.0994C285.246 29.0994 284.646 29.2642 284.203 29.5938C283.765 29.9233 283.47 30.3125 283.317 30.7614L280.436 30.3523C280.663 29.5568 281.038 28.892 281.561 28.358C282.084 27.8182 282.723 27.4148 283.478 27.1477C284.234 26.875 285.069 26.7386 285.984 26.7386C286.615 26.7386 287.243 26.8125 287.868 26.9602C288.493 27.108 289.064 27.3523 289.581 27.6932C290.098 28.0284 290.513 28.4858 290.825 29.0653C291.143 29.6449 291.302 30.3693 291.302 31.2386V40H288.336V38.2017H288.234C288.047 38.5653 287.782 38.9062 287.442 39.2244C287.106 39.5369 286.683 39.7898 286.172 39.983C285.666 40.1705 285.072 40.2642 284.39 40.2642ZM285.192 37.9972C285.811 37.9972 286.348 37.875 286.802 37.6307C287.257 37.3807 287.606 37.0511 287.851 36.642C288.101 36.233 288.226 35.7869 288.226 35.304V33.7614C288.129 33.8409 287.964 33.9148 287.731 33.983C287.504 34.0511 287.248 34.1108 286.964 34.1619C286.68 34.2131 286.399 34.2585 286.121 34.2983C285.842 34.3381 285.601 34.3722 285.396 34.4006C284.936 34.4631 284.524 34.5653 284.16 34.7074C283.797 34.8494 283.51 35.0483 283.299 35.304C283.089 35.554 282.984 35.8778 282.984 36.2756C282.984 36.8438 283.192 37.2727 283.606 37.5625C284.021 37.8523 284.549 37.9972 285.192 37.9972ZM146.606 54.5455V72H143.521V54.5455H146.606ZM153.065 72.2642C152.236 72.2642 151.489 72.1165 150.824 71.821C150.165 71.5199 149.642 71.0767 149.256 70.4915C148.875 69.9062 148.685 69.1847 148.685 68.3267C148.685 67.5881 148.821 66.9773 149.094 66.4943C149.367 66.0114 149.739 65.625 150.21 65.3352C150.682 65.0455 151.213 64.8267 151.804 64.679C152.401 64.5256 153.017 64.4148 153.653 64.3466C154.421 64.267 155.043 64.196 155.52 64.1335C155.997 64.0653 156.344 63.9631 156.56 63.8267C156.781 63.6847 156.892 63.4659 156.892 63.1705V63.1193C156.892 62.4773 156.702 61.9801 156.321 61.6278C155.94 61.2756 155.392 61.0994 154.676 61.0994C153.921 61.0994 153.321 61.2642 152.878 61.5938C152.44 61.9233 152.145 62.3125 151.992 62.7614L149.111 62.3523C149.338 61.5568 149.713 60.892 150.236 60.358C150.759 59.8182 151.398 59.4148 152.153 59.1477C152.909 58.875 153.744 58.7386 154.659 58.7386C155.29 58.7386 155.918 58.8125 156.543 58.9602C157.168 59.108 157.739 59.3523 158.256 59.6932C158.773 60.0284 159.188 60.4858 159.5 61.0653C159.818 61.6449 159.977 62.3693 159.977 63.2386V72H157.011V70.2017H156.909C156.722 70.5653 156.457 70.9062 156.117 71.2244C155.781 71.5369 155.358 71.7898 154.847 71.983C154.341 72.1705 153.747 72.2642 153.065 72.2642ZM153.867 69.9972C154.486 69.9972 155.023 69.875 155.477 69.6307C155.932 69.3807 156.281 69.0511 156.526 68.642C156.776 68.233 156.901 67.7869 156.901 67.304V65.7614C156.804 65.8409 156.639 65.9148 156.406 65.983C156.179 66.0511 155.923 66.1108 155.639 66.1619C155.355 66.2131 155.074 66.2585 154.796 66.2983C154.517 66.3381 154.276 66.3722 154.071 66.4006C153.611 66.4631 153.199 66.5653 152.835 66.7074C152.472 66.8494 152.185 67.0483 151.974 67.304C151.764 67.554 151.659 67.8778 151.659 68.2756C151.659 68.8438 151.867 69.2727 152.281 69.5625C152.696 69.8523 153.224 69.9972 153.867 69.9972ZM168.005 72V54.5455H179.766V57.5881H171.695V61.7472H179.161V64.7898H171.695V68.9574H179.8V72H168.005ZM196.819 54.5455V72H193.632L186.038 61.0142H185.91V72H182.22V54.5455H185.458L192.993 65.5227H193.146V54.5455H196.819ZM198.724 57.5881V54.5455H213.059V57.5881H207.715V72H204.067V57.5881H198.724ZM214.94 72V54.5455H221.826C223.144 54.5455 224.269 54.7812 225.201 55.2528C226.138 55.7187 226.851 56.3807 227.34 57.2386C227.834 58.0909 228.082 59.0937 228.082 60.2472C228.082 61.4062 227.832 62.4034 227.332 63.2386C226.832 64.0682 226.107 64.7045 225.158 65.1477C224.215 65.5909 223.073 65.8125 221.732 65.8125H217.121V62.8466H221.136C221.84 62.8466 222.425 62.75 222.891 62.5568C223.357 62.3636 223.704 62.0739 223.931 61.6875C224.164 61.3011 224.28 60.821 224.28 60.2472C224.28 59.6676 224.164 59.179 223.931 58.7812C223.704 58.3835 223.354 58.0824 222.883 57.8778C222.417 57.6676 221.829 57.5625 221.119 57.5625H218.63V72H214.94ZM224.366 64.0568L228.704 72H224.63L220.386 64.0568H224.366ZM233.218 72H229.264L235.289 54.5455H240.045L246.062 72H242.107L237.735 58.5341H237.599L233.218 72ZM232.971 65.1392H242.312V68.0199H232.971V65.1392ZM253.87 72H247.683V54.5455H253.921C255.677 54.5455 257.188 54.8949 258.455 55.5938C259.722 56.2869 260.697 57.2841 261.379 58.5852C262.066 59.8864 262.41 61.4432 262.41 63.2557C262.41 65.0739 262.066 66.6364 261.379 67.9432C260.697 69.25 259.717 70.2528 258.438 70.9517C257.166 71.6506 255.643 72 253.87 72ZM251.373 68.8381H253.717C254.808 68.8381 255.725 68.6449 256.47 68.2585C257.22 67.8665 257.782 67.2614 258.157 66.4432C258.538 65.6193 258.728 64.5568 258.728 63.2557C258.728 61.9659 258.538 60.9119 258.157 60.0938C257.782 59.2756 257.222 58.6733 256.478 58.2869C255.734 57.9006 254.816 57.7074 253.725 57.7074H251.373V68.8381ZM266.688 72H262.733L268.759 54.5455H273.514L279.531 72H275.577L271.205 58.5341H271.068L266.688 72ZM266.441 65.1392H275.781V68.0199H266.441V65.1392ZM291.552 72.2301C290.523 72.2301 289.603 71.9659 288.79 71.4375C287.978 70.9091 287.336 70.142 286.864 69.1364C286.393 68.1307 286.157 66.9091 286.157 65.4716C286.157 64.017 286.395 62.7898 286.873 61.7898C287.356 60.7841 288.006 60.0256 288.824 59.5142C289.643 58.9972 290.554 58.7386 291.56 58.7386C292.327 58.7386 292.958 58.8693 293.452 59.1307C293.946 59.3864 294.339 59.696 294.628 60.0597C294.918 60.4176 295.143 60.7557 295.302 61.0739H295.429V54.5455H298.523V72H295.489V69.9375H295.302C295.143 70.2557 294.912 70.5937 294.611 70.9517C294.31 71.304 293.912 71.6051 293.418 71.8551C292.924 72.1051 292.302 72.2301 291.552 72.2301ZM292.412 69.6989C293.066 69.6989 293.623 69.5227 294.083 69.1705C294.543 68.8125 294.893 68.3153 295.131 67.679C295.37 67.0426 295.489 66.3011 295.489 65.4545C295.489 64.608 295.37 63.8722 295.131 63.2472C294.898 62.6222 294.552 62.1364 294.091 61.7898C293.637 61.4432 293.077 61.2699 292.412 61.2699C291.725 61.2699 291.151 61.4489 290.691 61.8068C290.231 62.1648 289.884 62.6591 289.651 63.2898C289.418 63.9205 289.302 64.642 289.302 65.4545C289.302 66.2727 289.418 67.0028 289.651 67.6449C289.89 68.2812 290.239 68.7841 290.699 69.1534C291.165 69.517 291.736 69.6989 292.412 69.6989ZM307.126 72.2557C305.814 72.2557 304.68 71.983 303.726 71.4375C302.777 70.8864 302.047 70.108 301.535 69.1023C301.024 68.0909 300.768 66.9006 300.768 65.5312C300.768 64.1847 301.024 63.0028 301.535 61.9858C302.052 60.9631 302.774 60.1676 303.7 59.5994C304.626 59.0256 305.714 58.7386 306.964 58.7386C307.771 58.7386 308.533 58.8693 309.248 59.1307C309.97 59.3864 310.606 59.7841 311.158 60.3239C311.714 60.8636 312.152 61.5511 312.47 62.3864C312.788 63.2159 312.947 64.2045 312.947 65.3523V66.2983H302.217V64.2188H309.99C309.984 63.6278 309.856 63.1023 309.606 62.642C309.356 62.1761 309.007 61.8097 308.558 61.5426C308.115 61.2756 307.598 61.142 307.007 61.142C306.376 61.142 305.822 61.2955 305.345 61.6023C304.868 61.9034 304.496 62.3011 304.229 62.7955C303.967 63.2841 303.834 63.821 303.828 64.4062V66.2216C303.828 66.983 303.967 67.6364 304.246 68.1818C304.524 68.7216 304.913 69.1364 305.413 69.4261C305.913 69.7102 306.498 69.8523 307.169 69.8523C307.618 69.8523 308.024 69.7898 308.388 69.6648C308.751 69.5341 309.067 69.3438 309.334 69.0938C309.601 68.8438 309.802 68.5341 309.939 68.1648L312.819 68.4886C312.638 69.25 312.291 69.9148 311.78 70.483C311.274 71.0455 310.626 71.483 309.837 71.7955C309.047 72.1023 308.143 72.2557 307.126 72.2557ZM150.057 90.9091V93.2955H142.532V90.9091H150.057ZM144.39 87.7727H147.475V100.062C147.475 100.477 147.538 100.795 147.663 101.017C147.793 101.233 147.964 101.381 148.174 101.46C148.384 101.54 148.617 101.58 148.873 101.58C149.066 101.58 149.242 101.565 149.401 101.537C149.566 101.509 149.691 101.483 149.776 101.46L150.296 103.872C150.131 103.929 149.896 103.991 149.589 104.06C149.288 104.128 148.918 104.168 148.481 104.179C147.708 104.202 147.012 104.085 146.393 103.83C145.773 103.568 145.282 103.165 144.918 102.619C144.56 102.074 144.384 101.392 144.39 100.574V87.7727ZM160.501 98.4943V90.9091H163.587V104H160.595V101.673H160.459C160.163 102.406 159.678 103.006 159.001 103.472C158.331 103.937 157.504 104.17 156.521 104.17C155.663 104.17 154.905 103.98 154.246 103.599C153.592 103.213 153.081 102.653 152.712 101.92C152.342 101.182 152.158 100.29 152.158 99.2443V90.9091H155.243V98.767C155.243 99.5966 155.47 100.256 155.925 100.744C156.379 101.233 156.976 101.477 157.715 101.477C158.169 101.477 158.609 101.366 159.036 101.145C159.462 100.923 159.811 100.594 160.084 100.156C160.362 99.7131 160.501 99.1591 160.501 98.4943ZM171.752 108.909V90.9091H174.786V93.0739H174.965C175.125 92.7557 175.349 92.4176 175.639 92.0597C175.929 91.696 176.321 91.3864 176.815 91.1307C177.309 90.8693 177.94 90.7386 178.707 90.7386C179.718 90.7386 180.63 90.9972 181.443 91.5142C182.261 92.0256 182.909 92.7841 183.386 93.7898C183.869 94.7898 184.11 96.017 184.11 97.4716C184.11 98.9091 183.875 100.131 183.403 101.136C182.931 102.142 182.289 102.909 181.477 103.438C180.664 103.966 179.744 104.23 178.715 104.23C177.965 104.23 177.343 104.105 176.849 103.855C176.355 103.605 175.957 103.304 175.656 102.952C175.36 102.594 175.13 102.256 174.965 101.938H174.838V108.909H171.752ZM174.778 97.4545C174.778 98.3011 174.897 99.0426 175.136 99.679C175.38 100.315 175.73 100.812 176.184 101.17C176.644 101.523 177.201 101.699 177.855 101.699C178.536 101.699 179.108 101.517 179.568 101.153C180.028 100.784 180.375 100.281 180.608 99.6449C180.846 99.0028 180.965 98.2727 180.965 97.4545C180.965 96.642 180.849 95.9205 180.616 95.2898C180.383 94.6591 180.036 94.1648 179.576 93.8068C179.116 93.4489 178.542 93.2699 177.855 93.2699C177.196 93.2699 176.636 93.4432 176.176 93.7898C175.715 94.1364 175.366 94.6222 175.127 95.2472C174.894 95.8722 174.778 96.608 174.778 97.4545ZM190.039 104.264C189.21 104.264 188.463 104.116 187.798 103.821C187.139 103.52 186.616 103.077 186.23 102.491C185.849 101.906 185.659 101.185 185.659 100.327C185.659 99.5881 185.795 98.9773 186.068 98.4943C186.341 98.0114 186.713 97.625 187.184 97.3352C187.656 97.0455 188.187 96.8267 188.778 96.679C189.375 96.5256 189.991 96.4148 190.628 96.3466C191.395 96.267 192.017 96.196 192.494 96.1335C192.971 96.0653 193.318 95.9631 193.534 95.8267C193.755 95.6847 193.866 95.4659 193.866 95.1705V95.1193C193.866 94.4773 193.676 93.9801 193.295 93.6278C192.914 93.2756 192.366 93.0994 191.65 93.0994C190.895 93.0994 190.295 93.2642 189.852 93.5938C189.414 93.9233 189.119 94.3125 188.966 94.7614L186.085 94.3523C186.312 93.5568 186.687 92.892 187.21 92.358C187.733 91.8182 188.372 91.4148 189.128 91.1477C189.883 90.875 190.718 90.7386 191.633 90.7386C192.264 90.7386 192.892 90.8125 193.517 90.9602C194.142 91.108 194.713 91.3523 195.23 91.6932C195.747 92.0284 196.162 92.4858 196.474 93.0653C196.792 93.6449 196.951 94.3693 196.951 95.2386V104H193.985V102.202H193.883C193.696 102.565 193.431 102.906 193.091 103.224C192.755 103.537 192.332 103.79 191.821 103.983C191.315 104.17 190.721 104.264 190.039 104.264ZM190.841 101.997C191.46 101.997 191.997 101.875 192.451 101.631C192.906 101.381 193.255 101.051 193.5 100.642C193.75 100.233 193.875 99.7869 193.875 99.304V97.7614C193.778 97.8409 193.613 97.9148 193.38 97.983C193.153 98.0511 192.897 98.1108 192.613 98.1619C192.329 98.2131 192.048 98.2585 191.77 98.2983C191.491 98.3381 191.25 98.3722 191.045 98.4006C190.585 98.4631 190.173 98.5653 189.809 98.7074C189.446 98.8494 189.159 99.0483 188.949 99.304C188.738 99.554 188.633 99.8778 188.633 100.276C188.633 100.844 188.841 101.273 189.255 101.562C189.67 101.852 190.199 101.997 190.841 101.997ZM199.574 104V90.9091H202.565V93.0909H202.701C202.94 92.3352 203.349 91.7528 203.929 91.3438C204.514 90.929 205.182 90.7216 205.932 90.7216C206.102 90.7216 206.292 90.7301 206.503 90.7472C206.719 90.7585 206.898 90.7784 207.04 90.8068V93.6449C206.909 93.5994 206.701 93.5597 206.417 93.5256C206.139 93.4858 205.869 93.4659 205.608 93.4659C205.045 93.4659 204.54 93.5881 204.091 93.8324C203.648 94.071 203.298 94.4034 203.042 94.8295C202.787 95.2557 202.659 95.7472 202.659 96.304V104H199.574ZM213.78 104.256C212.474 104.256 211.351 103.969 210.414 103.395C209.482 102.821 208.763 102.028 208.258 101.017C207.758 100 207.508 98.8295 207.508 97.5057C207.508 96.1761 207.763 95.0028 208.275 93.9858C208.786 92.9631 209.508 92.1676 210.44 91.5994C211.377 91.0256 212.485 90.7386 213.763 90.7386C214.826 90.7386 215.766 90.9347 216.584 91.3267C217.408 91.7131 218.065 92.2614 218.553 92.9716C219.042 93.6761 219.32 94.5 219.388 95.4432H216.44C216.32 94.8125 216.036 94.2869 215.587 93.8665C215.144 93.4403 214.55 93.2273 213.806 93.2273C213.175 93.2273 212.621 93.3977 212.144 93.7386C211.667 94.0739 211.295 94.5568 211.028 95.1875C210.766 95.8182 210.636 96.5739 210.636 97.4545C210.636 98.3466 210.766 99.1136 211.028 99.7557C211.289 100.392 211.655 100.884 212.127 101.23C212.604 101.571 213.164 101.741 213.806 101.741C214.261 101.741 214.667 101.656 215.025 101.486C215.388 101.31 215.692 101.057 215.937 100.727C216.181 100.398 216.349 99.9972 216.44 99.5256H219.388C219.315 100.452 219.042 101.273 218.57 101.989C218.099 102.699 217.457 103.256 216.644 103.659C215.832 104.057 214.877 104.256 213.78 104.256ZM227.237 104.256C225.925 104.256 224.791 103.983 223.837 103.438C222.888 102.886 222.158 102.108 221.646 101.102C221.135 100.091 220.879 98.9006 220.879 97.5312C220.879 96.1847 221.135 95.0028 221.646 93.9858C222.163 92.9631 222.885 92.1676 223.811 91.5994C224.737 91.0256 225.825 90.7386 227.075 90.7386C227.882 90.7386 228.643 90.8693 229.359 91.1307C230.081 91.3864 230.717 91.7841 231.268 92.3239C231.825 92.8636 232.263 93.5511 232.581 94.3864C232.899 95.2159 233.058 96.2045 233.058 97.3523V98.2983H222.328V96.2188H230.101C230.095 95.6278 229.967 95.1023 229.717 94.642C229.467 94.1761 229.118 93.8097 228.669 93.5426C228.226 93.2756 227.709 93.142 227.118 93.142C226.487 93.142 225.933 93.2955 225.456 93.6023C224.979 93.9034 224.607 94.3011 224.34 94.7955C224.078 95.2841 223.945 95.821 223.939 96.4062V98.2216C223.939 98.983 224.078 99.6364 224.357 100.182C224.635 100.722 225.024 101.136 225.524 101.426C226.024 101.71 226.609 101.852 227.28 101.852C227.729 101.852 228.135 101.79 228.499 101.665C228.862 101.534 229.178 101.344 229.445 101.094C229.712 100.844 229.913 100.534 230.05 100.165L232.93 100.489C232.749 101.25 232.402 101.915 231.891 102.483C231.385 103.045 230.737 103.483 229.947 103.795C229.158 104.102 228.254 104.256 227.237 104.256ZM238.274 86.5455V104H235.188V86.5455H238.274ZM244.733 104.264C243.904 104.264 243.156 104.116 242.492 103.821C241.833 103.52 241.31 103.077 240.924 102.491C240.543 101.906 240.353 101.185 240.353 100.327C240.353 99.5881 240.489 98.9773 240.762 98.4943C241.034 98.0114 241.406 97.625 241.878 97.3352C242.35 97.0455 242.881 96.8267 243.472 96.679C244.068 96.5256 244.685 96.4148 245.321 96.3466C246.088 96.267 246.71 96.196 247.188 96.1335C247.665 96.0653 248.012 95.9631 248.228 95.8267C248.449 95.6847 248.56 95.4659 248.56 95.1705V95.1193C248.56 94.4773 248.37 93.9801 247.989 93.6278C247.608 93.2756 247.06 93.0994 246.344 93.0994C245.588 93.0994 244.989 93.2642 244.546 93.5938C244.108 93.9233 243.813 94.3125 243.659 94.7614L240.779 94.3523C241.006 93.5568 241.381 92.892 241.904 92.358C242.426 91.8182 243.066 91.4148 243.821 91.1477C244.577 90.875 245.412 90.7386 246.327 90.7386C246.958 90.7386 247.585 90.8125 248.21 90.9602C248.835 91.108 249.406 91.3523 249.924 91.6932C250.441 92.0284 250.855 92.4858 251.168 93.0653C251.486 93.6449 251.645 94.3693 251.645 95.2386V104H248.679V102.202H248.577C248.389 102.565 248.125 102.906 247.784 103.224C247.449 103.537 247.026 103.79 246.514 103.983C246.009 104.17 245.415 104.264 244.733 104.264ZM245.534 101.997C246.154 101.997 246.691 101.875 247.145 101.631C247.6 101.381 247.949 101.051 248.193 100.642C248.443 100.233 248.568 99.7869 248.568 99.304V97.7614C248.472 97.8409 248.307 97.9148 248.074 97.983C247.847 98.0511 247.591 98.1108 247.307 98.1619C247.023 98.2131 246.742 98.2585 246.463 98.2983C246.185 98.3381 245.943 98.3722 245.739 98.4006C245.279 98.4631 244.867 98.5653 244.503 98.7074C244.139 98.8494 243.853 99.0483 243.642 99.304C243.432 99.554 243.327 99.8778 243.327 100.276C243.327 100.844 243.534 101.273 243.949 101.562C244.364 101.852 244.892 101.997 245.534 101.997ZM261.658 108.909C261.238 108.909 260.848 108.875 260.491 108.807C260.138 108.744 259.857 108.67 259.647 108.585L260.363 106.182C260.812 106.313 261.212 106.375 261.564 106.369C261.917 106.364 262.226 106.253 262.493 106.037C262.766 105.827 262.996 105.474 263.184 104.98L263.448 104.273L258.701 90.9091H261.973L264.991 100.795H265.127L268.152 90.9091H271.434L266.192 105.585C265.948 106.278 265.624 106.872 265.221 107.366C264.817 107.866 264.323 108.247 263.738 108.509C263.158 108.776 262.465 108.909 261.658 108.909ZM150.057 122.909V125.295H142.532V122.909H150.057ZM144.39 119.773H147.475V132.062C147.475 132.477 147.538 132.795 147.663 133.017C147.793 133.233 147.964 133.381 148.174 133.46C148.384 133.54 148.617 133.58 148.873 133.58C149.066 133.58 149.242 133.565 149.401 133.537C149.566 133.509 149.691 133.483 149.776 133.46L150.296 135.872C150.131 135.929 149.896 135.991 149.589 136.06C149.288 136.128 148.918 136.168 148.481 136.179C147.708 136.202 147.012 136.085 146.393 135.83C145.773 135.568 145.282 135.165 144.918 134.619C144.56 134.074 144.384 133.392 144.39 132.574V119.773ZM157.727 136.256C156.449 136.256 155.341 135.974 154.403 135.412C153.466 134.849 152.739 134.062 152.222 133.051C151.71 132.04 151.455 130.858 151.455 129.506C151.455 128.153 151.71 126.969 152.222 125.952C152.739 124.935 153.466 124.145 154.403 123.582C155.341 123.02 156.449 122.739 157.727 122.739C159.006 122.739 160.114 123.02 161.051 123.582C161.989 124.145 162.713 124.935 163.224 125.952C163.742 126.969 164 128.153 164 129.506C164 130.858 163.742 132.04 163.224 133.051C162.713 134.062 161.989 134.849 161.051 135.412C160.114 135.974 159.006 136.256 157.727 136.256ZM157.744 133.784C158.438 133.784 159.017 133.594 159.483 133.213C159.949 132.827 160.296 132.31 160.523 131.662C160.756 131.014 160.872 130.293 160.872 129.497C160.872 128.696 160.756 127.972 160.523 127.324C160.296 126.67 159.949 126.151 159.483 125.764C159.017 125.378 158.438 125.185 157.744 125.185C157.034 125.185 156.443 125.378 155.972 125.764C155.506 126.151 155.156 126.67 154.923 127.324C154.696 127.972 154.582 128.696 154.582 129.497C154.582 130.293 154.696 131.014 154.923 131.662C155.156 132.31 155.506 132.827 155.972 133.213C156.443 133.594 157.034 133.784 157.744 133.784ZM166.139 136V122.909H169.088V125.134H169.241C169.514 124.384 169.965 123.798 170.596 123.378C171.227 122.952 171.98 122.739 172.855 122.739C173.741 122.739 174.488 122.955 175.096 123.386C175.71 123.812 176.141 124.395 176.391 125.134H176.528C176.818 124.406 177.306 123.827 177.994 123.395C178.687 122.957 179.508 122.739 180.457 122.739C181.661 122.739 182.644 123.119 183.406 123.881C184.167 124.642 184.548 125.753 184.548 127.213V136H181.454V127.69C181.454 126.878 181.238 126.284 180.806 125.909C180.374 125.528 179.846 125.338 179.221 125.338C178.477 125.338 177.894 125.571 177.474 126.037C177.059 126.497 176.852 127.097 176.852 127.835V136H173.826V127.562C173.826 126.886 173.622 126.347 173.213 125.943C172.809 125.54 172.281 125.338 171.627 125.338C171.184 125.338 170.781 125.452 170.417 125.679C170.053 125.901 169.764 126.216 169.548 126.625C169.332 127.028 169.224 127.5 169.224 128.04V136H166.139ZM190.965 136.264C190.135 136.264 189.388 136.116 188.723 135.821C188.064 135.52 187.541 135.077 187.155 134.491C186.774 133.906 186.584 133.185 186.584 132.327C186.584 131.588 186.72 130.977 186.993 130.494C187.266 130.011 187.638 129.625 188.11 129.335C188.581 129.045 189.112 128.827 189.703 128.679C190.3 128.526 190.916 128.415 191.553 128.347C192.32 128.267 192.942 128.196 193.419 128.134C193.897 128.065 194.243 127.963 194.459 127.827C194.681 127.685 194.791 127.466 194.791 127.17V127.119C194.791 126.477 194.601 125.98 194.22 125.628C193.84 125.276 193.291 125.099 192.576 125.099C191.82 125.099 191.22 125.264 190.777 125.594C190.34 125.923 190.044 126.312 189.891 126.761L187.01 126.352C187.237 125.557 187.612 124.892 188.135 124.358C188.658 123.818 189.297 123.415 190.053 123.148C190.809 122.875 191.644 122.739 192.559 122.739C193.189 122.739 193.817 122.812 194.442 122.96C195.067 123.108 195.638 123.352 196.155 123.693C196.672 124.028 197.087 124.486 197.399 125.065C197.718 125.645 197.877 126.369 197.877 127.239V136H194.911V134.202H194.809C194.621 134.565 194.357 134.906 194.016 135.224C193.681 135.537 193.257 135.79 192.746 135.983C192.24 136.17 191.647 136.264 190.965 136.264ZM191.766 133.997C192.385 133.997 192.922 133.875 193.377 133.631C193.831 133.381 194.181 133.051 194.425 132.642C194.675 132.233 194.8 131.787 194.8 131.304V129.761C194.703 129.841 194.539 129.915 194.306 129.983C194.078 130.051 193.823 130.111 193.539 130.162C193.255 130.213 192.973 130.259 192.695 130.298C192.416 130.338 192.175 130.372 191.97 130.401C191.51 130.463 191.098 130.565 190.735 130.707C190.371 130.849 190.084 131.048 189.874 131.304C189.664 131.554 189.559 131.878 189.559 132.276C189.559 132.844 189.766 133.273 190.181 133.562C190.595 133.852 191.124 133.997 191.766 133.997ZM214.316 130.494V122.909H217.401V136H214.41V133.673H214.273C213.978 134.406 213.492 135.006 212.816 135.472C212.145 135.937 211.319 136.17 210.336 136.17C209.478 136.17 208.719 135.98 208.06 135.599C207.407 135.213 206.895 134.653 206.526 133.92C206.157 133.182 205.972 132.29 205.972 131.244V122.909H209.057V130.767C209.057 131.597 209.285 132.256 209.739 132.744C210.194 133.233 210.79 133.477 211.529 133.477C211.983 133.477 212.424 133.366 212.85 133.145C213.276 132.923 213.626 132.594 213.898 132.156C214.177 131.713 214.316 131.159 214.316 130.494ZM223.179 128.33V136H220.094V122.909H223.043V125.134H223.196C223.497 124.401 223.977 123.818 224.636 123.386C225.301 122.955 226.122 122.739 227.099 122.739C228.003 122.739 228.79 122.932 229.46 123.318C230.136 123.705 230.659 124.264 231.028 124.997C231.403 125.73 231.588 126.619 231.582 127.665V136H228.497V128.142C228.497 127.267 228.27 126.582 227.815 126.088C227.366 125.594 226.744 125.347 225.949 125.347C225.409 125.347 224.929 125.466 224.508 125.705C224.094 125.937 223.767 126.276 223.528 126.719C223.295 127.162 223.179 127.699 223.179 128.33ZM238.006 136.264C237.176 136.264 236.429 136.116 235.764 135.821C235.105 135.52 234.582 135.077 234.196 134.491C233.815 133.906 233.625 133.185 233.625 132.327C233.625 131.588 233.761 130.977 234.034 130.494C234.307 130.011 234.679 129.625 235.151 129.335C235.622 129.045 236.153 128.827 236.744 128.679C237.341 128.526 237.957 128.415 238.594 128.347C239.361 128.267 239.983 128.196 240.46 128.134C240.938 128.065 241.284 127.963 241.5 127.827C241.722 127.685 241.832 127.466 241.832 127.17V127.119C241.832 126.477 241.642 125.98 241.261 125.628C240.881 125.276 240.332 125.099 239.616 125.099C238.861 125.099 238.261 125.264 237.818 125.594C237.381 125.923 237.085 126.312 236.932 126.761L234.051 126.352C234.278 125.557 234.653 124.892 235.176 124.358C235.699 123.818 236.338 123.415 237.094 123.148C237.849 122.875 238.685 122.739 239.599 122.739C240.23 122.739 240.858 122.812 241.483 122.96C242.108 123.108 242.679 123.352 243.196 123.693C243.713 124.028 244.128 124.486 244.44 125.065C244.759 125.645 244.918 126.369 244.918 127.239V136H241.952V134.202H241.849C241.662 134.565 241.398 134.906 241.057 135.224C240.722 135.537 240.298 135.79 239.787 135.983C239.281 136.17 238.688 136.264 238.006 136.264ZM238.807 133.997C239.426 133.997 239.963 133.875 240.418 133.631C240.872 133.381 241.222 133.051 241.466 132.642C241.716 132.233 241.841 131.787 241.841 131.304V129.761C241.744 129.841 241.58 129.915 241.347 129.983C241.119 130.051 240.864 130.111 240.58 130.162C240.295 130.213 240.014 130.259 239.736 130.298C239.457 130.338 239.216 130.372 239.011 130.401C238.551 130.463 238.139 130.565 237.776 130.707C237.412 130.849 237.125 131.048 236.915 131.304C236.705 131.554 236.599 131.878 236.599 132.276C236.599 132.844 236.807 133.273 237.222 133.562C237.636 133.852 238.165 133.997 238.807 133.997ZM259.644 122.909V125.295H251.905V122.909H259.644ZM253.84 136V121.673C253.84 120.793 254.022 120.06 254.385 119.474C254.755 118.889 255.249 118.452 255.868 118.162C256.487 117.872 257.175 117.727 257.931 117.727C258.465 117.727 258.939 117.77 259.354 117.855C259.769 117.94 260.076 118.017 260.274 118.085L259.661 120.472C259.53 120.432 259.365 120.392 259.166 120.352C258.968 120.307 258.746 120.284 258.502 120.284C257.928 120.284 257.522 120.423 257.283 120.702C257.05 120.974 256.933 121.366 256.933 121.878V136H253.84ZM266.798 136.256C265.52 136.256 264.412 135.974 263.474 135.412C262.537 134.849 261.809 134.062 261.292 133.051C260.781 132.04 260.525 130.858 260.525 129.506C260.525 128.153 260.781 126.969 261.292 125.952C261.809 124.935 262.537 124.145 263.474 123.582C264.412 123.02 265.52 122.739 266.798 122.739C268.076 122.739 269.184 123.02 270.122 123.582C271.059 124.145 271.784 124.935 272.295 125.952C272.812 126.969 273.071 128.153 273.071 129.506C273.071 130.858 272.812 132.04 272.295 133.051C271.784 134.062 271.059 134.849 270.122 135.412C269.184 135.974 268.076 136.256 266.798 136.256ZM266.815 133.784C267.508 133.784 268.088 133.594 268.554 133.213C269.02 132.827 269.366 132.31 269.593 131.662C269.826 131.014 269.943 130.293 269.943 129.497C269.943 128.696 269.826 127.972 269.593 127.324C269.366 126.67 269.02 126.151 268.554 125.764C268.088 125.378 267.508 125.185 266.815 125.185C266.105 125.185 265.514 125.378 265.042 125.764C264.576 126.151 264.227 126.67 263.994 127.324C263.767 127.972 263.653 128.696 263.653 129.497C263.653 130.293 263.767 131.014 263.994 131.662C264.227 132.31 264.576 132.827 265.042 133.213C265.514 133.594 266.105 133.784 266.815 133.784ZM281.746 122.909V125.295H274.221V122.909H281.746ZM276.079 119.773H279.164V132.062C279.164 132.477 279.226 132.795 279.351 133.017C279.482 133.233 279.652 133.381 279.863 133.46C280.073 133.54 280.306 133.58 280.562 133.58C280.755 133.58 280.931 133.565 281.09 133.537C281.255 133.509 281.38 133.483 281.465 133.46L281.985 135.872C281.82 135.929 281.584 135.991 281.277 136.06C280.976 136.128 280.607 136.168 280.17 136.179C279.397 136.202 278.701 136.085 278.081 135.83C277.462 135.568 276.971 135.165 276.607 134.619C276.249 134.074 276.073 133.392 276.079 132.574V119.773ZM289.416 136.256C288.138 136.256 287.03 135.974 286.092 135.412C285.155 134.849 284.427 134.062 283.91 133.051C283.399 132.04 283.143 130.858 283.143 129.506C283.143 128.153 283.399 126.969 283.91 125.952C284.427 124.935 285.155 124.145 286.092 123.582C287.03 123.02 288.138 122.739 289.416 122.739C290.694 122.739 291.802 123.02 292.74 123.582C293.677 124.145 294.402 124.935 294.913 125.952C295.43 126.969 295.689 128.153 295.689 129.506C295.689 130.858 295.43 132.04 294.913 133.051C294.402 134.062 293.677 134.849 292.74 135.412C291.802 135.974 290.694 136.256 289.416 136.256ZM289.433 133.784C290.126 133.784 290.706 133.594 291.172 133.213C291.638 132.827 291.984 132.31 292.212 131.662C292.444 131.014 292.561 130.293 292.561 129.497C292.561 128.696 292.444 127.972 292.212 127.324C291.984 126.67 291.638 126.151 291.172 125.764C290.706 125.378 290.126 125.185 289.433 125.185C288.723 125.185 288.132 125.378 287.66 125.764C287.194 126.151 286.845 126.67 286.612 127.324C286.385 127.972 286.271 128.696 286.271 129.497C286.271 130.293 286.385 131.014 286.612 131.662C286.845 132.31 287.194 132.827 287.66 133.213C288.132 133.594 288.723 133.784 289.433 133.784Z" fill="#8F3B06"/>
<path d="M166.487 76.7727H279.631V78.4091H166.487V76.7727Z" fill="#8F3B06"/>
<g clip-path="url(#clip0_2419_9214)">
<g filter="url(#filter0_d_2419_9214)">
<path fill-rule="evenodd" clip-rule="evenodd" d="M13.2636 167.248C17.7364 156.083 21.9783 142.719 28.6637 138.545C32.6002 136.088 46.2288 134.418 46.2288 134.418H54.6652C54.6652 134.418 69.1829 132.796 73.4656 136.814C76.927 140.065 88.7502 164.133 88.7502 164.133C88.7502 164.133 80.9247 172.372 73.4656 172.372C73.6828 182.363 73.7235 191.397 73.7235 191.397C73.7235 191.397 74.0154 192.734 74.4905 195.191C62.1311 196.222 45.2786 196.263 30.8695 192.625C31.1749 189.041 31.3649 186.883 31.3853 186.659L36.2449 154.332C36.2449 154.332 33.1771 165.734 30.9781 172.935C27.5438 172.935 15.9513 170.187 13.2636 167.241V167.248Z" fill="#C36363"/>
<path fill-rule="evenodd" clip-rule="evenodd" d="M50.8576 140.113H51.0137C53.6607 140.113 55.8054 137.968 55.8054 135.321V120.274H46.0591V135.321C46.0591 137.968 48.2038 140.113 50.8508 140.113H50.8576Z" fill="#EDBA8C"/>
<path opacity="0.25" fill-rule="evenodd" clip-rule="evenodd" d="M55.812 133.902C52.5678 134.249 49.2692 134.099 46.0657 133.454V126.375C49.2896 126.898 52.5474 127.163 55.812 127.176V133.902Z" fill="#561C2F" stroke="#EDBA8C" stroke-width="0.347756" stroke-miterlimit="22.93"/>
<path fill-rule="evenodd" clip-rule="evenodd" d="M68.7959 80.2773C68.7959 80.2773 68.2394 75.4924 66.1353 73.3816C64.0245 71.2776 50.4638 68.651 43.6156 70.8025C41.4641 73.0694 40.0863 77.5421 40.0863 77.5421L68.7959 80.2773Z" fill="#845E40"/>
<path fill-rule="evenodd" clip-rule="evenodd" d="M15.1843 88.8971C14.3902 97.6661 31.0391 106.333 52.3711 108.268C73.7031 110.202 91.6347 104.657 92.4288 95.8946C93.2229 87.1256 76.574 78.4585 55.242 76.5241C33.91 74.5898 15.9784 80.1349 15.1843 88.8971Z" fill="#F1D054"/>
<mask id="mask0_2419_9214" style="mask-type:luminance" maskUnits="userSpaceOnUse" x="15" y="76" width="78" height="33">
<path d="M15.1843 88.8971C14.3902 97.6661 31.0391 106.333 52.3711 108.268C73.7031 110.202 91.6347 104.657 92.4288 95.8946C93.2229 87.1256 76.574 78.4585 55.242 76.5241C33.91 74.5898 15.9784 80.1349 15.1843 88.8971Z" fill="white"/>
</mask>
<g mask="url(#mask0_2419_9214)">
<path opacity="0.3" fill-rule="evenodd" clip-rule="evenodd" d="M15.1843 88.8971C14.3902 97.6661 31.0391 106.333 52.3711 108.268C73.7031 110.202 91.6347 104.657 92.4288 95.8946C93.2229 87.1256 76.574 78.4585 55.242 76.5241C33.91 74.5898 15.9784 80.1349 15.1843 88.8971Z" fill="#CB2E45"/>
</g>
<path fill-rule="evenodd" clip-rule="evenodd" d="M48.0755 90.1191L38.9772 88.0586C36.5924 87.5143 34.0775 88.4282 32.6615 90.3856C28.2286 96.5309 19.7819 111.141 22.4546 130.635C22.8232 133.323 25.1896 135.319 28.0386 135.403C32.7666 135.536 36.1315 135.649 38.5082 135.73C41.61 135.848 44.3182 133.676 44.7224 130.727C45.8613 122.488 48.3894 106.543 52.0801 97.4705C53.3656 94.3269 51.4719 90.8863 48.0575 90.1231L48.0755 90.1191Z" fill="black"/>
<path fill-rule="evenodd" clip-rule="evenodd" d="M28.0461 103.523C29.5393 106.564 32.3152 108.254 34.2496 107.304C36.1839 106.353 36.5368 103.123 35.0437 100.082C33.5505 97.0414 30.7746 95.3514 28.8402 96.3016C26.9059 97.2518 26.553 100.483 28.0461 103.523Z" fill="#EDBA8C"/>
<path fill-rule="evenodd" clip-rule="evenodd" d="M54.6182 84.6621L64.5589 83.1008C67.1648 82.687 69.8056 83.8521 71.1884 86.0609C75.516 92.9945 83.5528 109.328 79.2701 130.115C78.6796 132.982 75.9887 134.959 72.9163 134.844C67.8183 134.646 64.1886 134.525 61.6248 134.442C58.278 134.344 55.5199 131.812 55.2976 128.609C54.6663 119.659 53.0955 102.316 49.7779 92.2852C48.6211 88.8092 50.9074 85.2428 54.6372 84.6677L54.6182 84.6621Z" fill="black"/>
<path fill-rule="evenodd" clip-rule="evenodd" d="M33.5436 110.114L35.4168 92.4739C36.2856 84.2886 43.6293 78.3567 51.8146 79.2322L58.9004 79.9856C67.0857 80.8543 73.0176 88.198 72.1421 96.3833L70.2688 114.023C69.4001 122.208 62.0564 128.14 53.8711 127.265L46.7853 126.511C38.6 125.643 32.668 118.299 33.5436 110.114Z" fill="#EDBA8C"/>
<path fill-rule="evenodd" clip-rule="evenodd" d="M76.5332 108.403C74.5106 111.118 71.4768 112.279 69.7461 110.996C68.0153 109.713 68.2529 106.469 70.2755 103.754C72.298 101.039 75.3319 99.8788 77.0626 101.162C78.7865 102.444 78.5558 105.689 76.5332 108.403Z" fill="#EDBA8C"/>
<path fill-rule="evenodd" clip-rule="evenodd" d="M76.3908 103.476C73.7302 103.808 72.7596 106.591 72.0741 108.797C71.9588 109.17 71.3683 109.014 71.4837 108.634C72.271 106.109 73.4112 103.238 76.3908 102.865C76.7776 102.817 76.7776 103.422 76.3908 103.476Z" fill="#561C2F"/>
<path fill-rule="evenodd" clip-rule="evenodd" d="M74.9248 106.761C74.3343 106.36 73.7031 106.102 73.004 105.973C72.6171 105.899 72.78 105.315 73.1669 105.383C73.9135 105.519 74.6058 105.811 75.2302 106.231C75.5492 106.449 75.2505 106.978 74.9248 106.754V106.761Z" fill="#561C2F"/>
<path fill-rule="evenodd" clip-rule="evenodd" d="M32.8984 105.973C33.0341 103.164 31.9753 100.591 29.9053 98.6909C29.6134 98.4262 30.0478 97.9918 30.3329 98.2633C32.5115 100.272 33.6382 103.021 33.5024 105.98C33.4821 106.374 32.878 106.374 32.8916 105.98L32.8984 105.973Z" fill="#561C2F"/>
<path fill-rule="evenodd" clip-rule="evenodd" d="M32.1725 101.989C31.2902 102.098 30.53 102.546 29.9735 103.225C29.7223 103.53 29.2947 103.096 29.5459 102.797C30.211 101.983 31.1341 101.508 32.1725 101.385C32.5594 101.338 32.5594 101.949 32.1725 101.996V101.989Z" fill="#561C2F"/>
<path fill-rule="evenodd" clip-rule="evenodd" d="M30.8692 192.618C30.9506 192.632 31.0389 192.645 31.1271 192.659L31.1475 191.824C42.5702 163.725 34.9483 136.421 34.9483 136.421L40.3373 135.158C40.3373 135.158 44.1924 145.577 43.4729 158.316C43.4729 158.316 57.8277 157.963 66.5288 158.655C66.3727 146.669 64.4588 134.086 64.4588 134.086L70.1057 134.928C70.1057 134.928 75.1757 167.492 73.4653 172.365L73.7232 191.39L74.239 193.955H74.2526C74.3748 194.58 74.5241 195.326 74.6802 196.168V196.182C77.5987 211.609 85.7568 261.963 78.8339 311.244C67.4044 312.079 65.8298 311.224 65.8298 311.224C65.8298 311.224 63.2982 248.68 56.0699 215.579L34.1338 309.839L20.9803 308.556C20.9803 308.556 28.772 217.106 30.8692 192.611V192.618Z" fill="#1E4A47"/>
<mask id="mask1_2419_9214" style="mask-type:luminance" maskUnits="userSpaceOnUse" x="20" y="134" width="62" height="178">
<path d="M30.8692 192.618C30.9506 192.632 31.0389 192.645 31.1271 192.659L31.1475 191.824C42.5702 163.725 34.9483 136.421 34.9483 136.421L40.3373 135.158C40.3373 135.158 44.1924 145.577 43.4729 158.316C43.4729 158.316 57.8277 157.963 66.5288 158.655C66.3727 146.669 64.4588 134.086 64.4588 134.086L70.1057 134.928C70.1057 134.928 75.1757 167.492 73.4653 172.365L73.7232 191.39L74.239 193.955H74.2526C74.3748 194.58 74.5241 195.326 74.6802 196.168V196.182C77.5987 211.609 85.7568 261.963 78.8339 311.244C67.4044 312.079 65.8298 311.224 65.8298 311.224C65.8298 311.224 63.2982 248.68 56.0699 215.579L34.1338 309.839L20.9803 308.556C20.9803 308.556 28.772 217.106 30.8692 192.611V192.618Z" fill="white"/>
</mask>
<g mask="url(#mask1_2419_9214)">
<path opacity="0.3" fill-rule="evenodd" clip-rule="evenodd" d="M30.8692 192.618C30.9506 192.632 31.0389 192.645 31.1271 192.659L31.1475 191.824C42.5702 163.725 34.9483 136.421 34.9483 136.421L40.3373 135.158C40.3373 135.158 44.1924 145.577 43.4729 158.316C43.4729 158.316 57.8277 157.963 66.5288 158.655C66.3727 146.669 64.4588 134.086 64.4588 134.086L70.1057 134.928C70.1057 134.928 75.1757 167.492 73.4653 172.365L73.7232 191.39L74.239 193.955H74.2526C74.3748 194.58 74.5241 195.326 74.6802 196.168V196.182C77.5987 211.609 85.7568 261.963 78.8339 311.244C67.4044 312.079 65.8298 311.224 65.8298 311.224C65.8298 311.224 63.2982 248.68 56.0699 215.579L34.1338 309.839L20.9803 308.556C20.9803 308.556 28.772 217.106 30.8692 192.611V192.618Z" fill="#1E4A47"/>
</g>
<path fill-rule="evenodd" clip-rule="evenodd" d="M53.1851 104.501C52.9951 102.417 52.9612 100.313 53.0833 98.2225C53.1444 97.1977 53.2394 96.1728 53.3752 95.1547C53.4702 94.4081 53.4702 93.4036 53.7756 92.7046C54.1896 91.7544 55.6217 91.6526 55.9068 92.7181C56.1375 93.5665 55.805 94.5167 55.7167 95.3651C55.5742 96.8447 55.3706 98.3175 55.3027 99.7971C55.2688 100.517 55.2688 101.229 55.3163 101.949C55.3434 102.39 55.1941 103.245 55.5267 103.584C55.71 103.768 56.0222 103.822 56.2393 103.679C56.409 103.571 56.4905 103.367 56.633 103.225C56.8773 102.967 57.2914 102.906 57.6239 103.035C58.3501 103.326 58.2619 103.931 58.1194 104.562C57.909 105.471 57.461 106.326 56.8027 106.998C56.4565 107.351 56.0357 107.657 55.5471 107.718C54.8073 107.813 54.0878 107.304 53.7213 106.659C53.348 106.007 53.2598 105.247 53.1919 104.501H53.1851Z" fill="#F1D054"/>
<path fill-rule="evenodd" clip-rule="evenodd" d="M59.8911 101.48C59.7214 102.804 60.2983 103.971 61.1739 104.08C62.0494 104.188 62.8978 103.204 63.0607 101.881C63.2304 100.557 62.6535 99.3897 61.7779 99.2811C60.9024 99.1725 60.054 100.157 59.8911 101.48Z" fill="#561C2F"/>
<path fill-rule="evenodd" clip-rule="evenodd" d="M49.8938 100.496C49.9345 101.833 49.249 102.939 48.3667 102.96C47.4843 102.987 46.7378 101.921 46.697 100.584C46.6563 99.2473 47.3418 98.141 48.2241 98.1206C49.1065 98.0935 49.8531 99.1591 49.8938 100.496Z" fill="#561C2F"/>
<path fill-rule="evenodd" clip-rule="evenodd" d="M65.7824 97.0281C64.9951 95.0598 63.0743 94.0621 61.0111 94.3133C60.2034 94.4083 60.2102 93.1459 61.0111 93.0509C63.6852 92.7319 66.02 94.2318 67.0041 96.6956C67.3095 97.4557 66.081 97.7815 65.7824 97.0349V97.0281Z" fill="#561C2F"/>
<path fill-rule="evenodd" clip-rule="evenodd" d="M49.9685 92.9898C48.1292 92.2771 46.1813 92.8269 44.9596 94.3744C44.4574 95.0124 43.5682 94.1165 44.0637 93.4785C45.5297 91.612 48.0953 90.9197 50.3011 91.7681C51.0545 92.0599 50.7287 93.2816 49.9617 92.9898H49.9685Z" fill="#561C2F"/>
<path fill-rule="evenodd" clip-rule="evenodd" d="M15.6798 169.372L29.3491 174.673C29.0166 176.18 28.684 177.686 28.3514 179.193C37.6498 179.539 46.9414 179.96 56.233 180.421C56.9932 182.973 57.6244 185.566 57.9773 188.206C44.5659 193.507 29.1523 193.541 15.7205 188.288C15.2319 188.098 14.7228 187.881 14.3835 187.48C13.9423 186.958 13.8609 186.225 13.8201 185.546C13.4808 180.096 14.1188 174.591 15.6934 169.365L15.6798 169.372Z" fill="#EDBA8C"/>
<mask id="mask2_2419_9214" style="mask-type:luminance" maskUnits="userSpaceOnUse" x="13" y="169" width="45" height="24">
<path d="M15.6798 169.372L29.3491 174.673C29.0166 176.18 28.684 177.686 28.3514 179.193C37.6498 179.539 46.9414 179.96 56.233 180.421C56.9932 182.973 57.6244 185.566 57.9773 188.206C44.5659 193.507 29.1523 193.541 15.7205 188.288C15.2319 188.098 14.7228 187.881 14.3835 187.48C13.9423 186.958 13.8609 186.225 13.8201 185.546C13.4808 180.096 14.1188 174.591 15.6934 169.365L15.6798 169.372Z" fill="white"/>
</mask>
<g mask="url(#mask2_2419_9214)">
<path opacity="0.2" fill-rule="evenodd" clip-rule="evenodd" d="M15.6798 169.372L29.3491 174.673C29.0166 176.18 28.684 177.686 28.3514 179.193C37.6498 179.539 46.9414 179.96 56.233 180.421C56.9932 182.973 57.6244 185.566 57.9773 188.206C44.5659 193.507 29.1523 193.541 15.7205 188.288C15.2319 188.098 14.7228 187.881 14.3835 187.48C13.9423 186.958 13.8609 186.225 13.8201 185.546C13.4808 180.096 14.1188 174.591 15.6934 169.365L15.6798 169.372Z" fill="#CB2E45"/>
</g>
<path fill-rule="evenodd" clip-rule="evenodd" d="M56.4432 110.113C53.8573 112.007 50.4162 110.337 50.1379 107.195C50.104 106.788 50.7352 106.795 50.7691 107.195C51.0067 109.91 53.9659 111.145 56.1242 109.564C56.4568 109.319 56.769 109.869 56.4432 110.113Z" fill="#561C2F"/>
<path opacity="0.16" fill-rule="evenodd" clip-rule="evenodd" d="M72.2573 97.9511C71.8094 97.8358 71.3682 97.7204 70.927 97.605C64.8797 96.044 58.6762 94.9105 52.4592 94.32C48.163 93.9128 43.8803 93.8042 39.6044 93.9399C37.9212 93.9196 36.2515 93.9196 34.609 93.9399C34.609 93.9399 36.2447 87.465 37.6633 85.456C49.0928 84.8452 61.1128 86.2297 71.6058 90.5124C72.1623 92.3585 72.3659 94.3404 72.1487 96.3765L72.2573 97.9444V97.9511Z" fill="#561C2F"/>
<path fill-rule="evenodd" clip-rule="evenodd" d="M33.4889 83.2092L41.6131 79.0147C44.7352 78.9604 47.864 78.9469 50.9861 78.9944C55.0516 79.0555 59.056 79.198 63.0876 79.6731L63.7052 79.9106L69.6779 83.216L77.5646 88.1706C77.5646 88.1706 80.0351 89.942 80.0351 91.2316L80.8767 96.064C80.8767 96.064 58.1058 84.1798 29.6406 89.7724C13.27 90.4511 33.5024 83.2092 33.5024 83.2092H33.4889Z" fill="#E6A050"/>
<path fill-rule="evenodd" clip-rule="evenodd" d="M88.0304 166.997C90.338 172.738 91.6615 178.881 91.9262 185.064C91.9533 185.654 91.9601 186.292 91.6411 186.795C91.3696 187.229 90.9013 187.494 90.4466 187.724C83.4083 191.308 75.0466 190.568 67.1938 189.733C66.2029 189.625 55.0313 188.145 55.0652 187.697C55.2485 185.193 55.6421 182.709 56.2326 180.265C60.3863 179.166 64.6351 179.078 68.911 178.704C71.3543 178.494 73.8181 178.161 76.2547 177.971C76.18 176.288 76.0986 174.605 76.0239 172.922L88.0304 166.99V166.997Z" fill="#EDBA8C"/>
<path opacity="0.15" fill-rule="evenodd" clip-rule="evenodd" d="M15.6796 169.372L29.3489 174.673C29.0774 175.915 28.7991 177.157 28.5208 178.399C27.6589 178.474 26.7969 178.508 25.9349 178.514C21.9441 178.548 17.9465 178.223 14.0031 177.571C14.3154 174.795 14.8651 172.046 15.6728 169.372H15.6796Z" fill="#561C2F"/>
<path opacity="0.15" fill-rule="evenodd" clip-rule="evenodd" d="M76.1667 176.119C76.1192 175.053 76.0717 173.987 76.0174 172.929L88.0239 166.997C88.8383 169.019 89.5238 171.089 90.0872 173.2C85.7027 175.399 80.8974 176.661 76.1667 176.125V176.119Z" fill="#561C2F"/>
<path fill-rule="evenodd" clip-rule="evenodd" d="M31.2764 167.832C27.6793 166.786 19.2157 164.268 15.5506 162.755C14.5733 162.348 13.4602 162.843 13.0869 163.827C12.51 165.347 12.1503 166.651 11.9399 167.553C11.7498 168.347 12.096 169.169 12.8018 169.589C15.4963 171.191 22.6432 174.944 29.9869 174.578C30.8013 174.537 31.514 173.994 31.738 173.207C32.1181 171.863 32.3895 170.825 32.566 170.051C32.7968 169.08 32.2266 168.11 31.2697 167.832H31.2764Z" fill="#CA4040"/>
<path fill-rule="evenodd" clip-rule="evenodd" d="M88.5328 161.227L90.0802 164.336C90.4875 165.15 90.3517 166.128 89.7273 166.793C87.7658 168.877 82.9266 173.078 75.2978 173.668C74.2458 173.75 73.2889 173.057 73.0174 172.039C72.5694 170.349 72.2436 169.148 72.0129 168.3C71.7074 167.193 72.3047 166.046 73.3907 165.666C76.4245 164.601 82.2682 162.422 85.4039 160.372C86.4898 159.66 87.9559 160.067 88.5328 161.234V161.227Z" fill="#CA4040"/>
<path opacity="0.3" fill-rule="evenodd" clip-rule="evenodd" d="M31.2764 167.832C27.6793 166.786 19.2157 164.268 15.5506 162.755C14.5733 162.348 13.4602 162.843 13.0869 163.827C12.51 165.347 12.1503 166.651 11.9399 167.553C11.7498 168.347 12.096 169.169 12.8018 169.589C15.4963 171.191 22.6432 174.944 29.9869 174.578C30.8013 174.537 31.514 173.994 31.738 173.207C32.1181 171.863 32.3895 170.825 32.566 170.051C32.7968 169.08 32.2266 168.11 31.2697 167.832H31.2764Z" fill="#CB2E45"/>
<path opacity="0.3" fill-rule="evenodd" clip-rule="evenodd" d="M88.5328 161.227L90.0802 164.336C90.4875 165.15 90.3517 166.128 89.7273 166.793C87.7658 168.877 82.9266 173.078 75.2978 173.668C74.2458 173.75 73.2889 173.057 73.0174 172.039C72.5694 170.349 72.2436 169.148 72.0129 168.3C71.7074 167.193 72.3047 166.046 73.3907 165.666C76.4245 164.601 82.2682 162.422 85.4039 160.372C86.4898 159.66 87.9559 160.067 88.5328 161.234V161.227Z" fill="#CB2E45"/>
<path opacity="0.3" fill-rule="evenodd" clip-rule="evenodd" d="M53.1851 104.501C52.9951 102.417 52.9612 100.313 53.0833 98.2225C53.1444 97.1977 53.2394 96.1728 53.3752 95.1547C53.4702 94.4081 53.4702 93.4036 53.7756 92.7046C54.1896 91.7544 55.6217 91.6526 55.9068 92.7181C56.1375 93.5665 55.805 94.5167 55.7167 95.3651C55.5742 96.8447 55.3706 98.3175 55.3027 99.7971C55.2688 100.517 55.2688 101.229 55.3163 101.949C55.3434 102.39 55.1941 103.245 55.5267 103.584C55.71 103.768 56.0222 103.822 56.2393 103.679C56.409 103.571 56.4905 103.367 56.633 103.225C56.8773 102.967 57.2914 102.906 57.6239 103.035C58.3501 103.326 58.2619 103.931 58.1194 104.562C57.909 105.471 57.461 106.326 56.8027 106.998C56.4565 107.351 56.0357 107.657 55.5471 107.718C54.8073 107.813 54.0878 107.304 53.7213 106.659C53.348 106.007 53.2598 105.247 53.1919 104.501H53.1851Z" fill="#CB2E45"/>
</g>
</g>
<defs>
<filter id="filter0_d_2419_9214" x="-3.11898" y="70" width="106.238" height="257.697" filterUnits="userSpaceOnUse" color-interpolation-filters="sRGB">
<feFlood flood-opacity="0" result="BackgroundImageFix"/>
<feColorMatrix in="SourceAlpha" type="matrix" values="0 0 0 0 0 0 0 0 0 0 0 0 0 0 0 0 0 0 127 0" result="hardAlpha"/>
<feOffset dy="3.11898"/>
<feGaussianBlur stdDeviation="1.55949"/>
<feComposite in2="hardAlpha" operator="out"/>
<feColorMatrix type="matrix" values="0 0 0 0 0 0 0 0 0 0 0 0 0 0 0 0 0 0 0.25 0"/>
<feBlend mode="normal" in2="BackgroundImageFix" result="effect1_dropShadow_2419_9214"/>
<feBlend mode="normal" in="SourceGraphic" in2="effect1_dropShadow_2419_9214" result="shape"/>
</filter>
<clipPath id="clip0_2419_9214">
<rect width="100" height="104" fill="white" transform="matrix(-1 0 0 1 100 70)"/>
</clipPath>
</defs>
</svg>
