<svg width="48" height="48" viewBox="0 0 48 48" fill="none" xmlns="http://www.w3.org/2000/svg">
<path d="M24.0002 47.3917C23.378 47.3917 22.7849 47.2751 22.2211 47.0417C21.6572 46.8084 21.1419 46.4778 20.6752 46.0501L1.95022 27.3251C1.52244 26.8584 1.19188 26.3431 0.958551 25.7792C0.725218 25.2153 0.608551 24.6223 0.608551 24.0001C0.608551 23.3778 0.725218 22.7751 0.958551 22.1917C1.19188 21.6084 1.52244 21.1028 1.95022 20.6751L20.6752 1.95007C21.1419 1.4834 21.6572 1.14312 22.2211 0.929232C22.7849 0.715343 23.378 0.608398 24.0002 0.608398C24.6224 0.608398 25.2252 0.715343 25.8086 0.929232C26.3919 1.14312 26.8974 1.4834 27.3252 1.95007L46.0502 20.6751C46.5169 21.1028 46.8572 21.6084 47.0711 22.1917C47.2849 22.7751 47.3919 23.3778 47.3919 24.0001C47.3919 24.6223 47.2849 25.2153 47.0711 25.7792C46.8572 26.3431 46.5169 26.8584 46.0502 27.3251L27.3252 46.0501C26.8974 46.4778 26.3919 46.8084 25.8086 47.0417C25.2252 47.2751 24.6224 47.3917 24.0002 47.3917ZM24.0002 42.7251L42.7252 24.0001L24.0002 5.27507L5.27522 24.0001L24.0002 42.7251ZM21.6669 26.3334H26.3336V12.3334H21.6669V26.3334ZM24.0002 33.3334C24.6613 33.3334 25.2155 33.1098 25.6627 32.6626C26.1099 32.2153 26.3336 31.6612 26.3336 31.0001C26.3336 30.339 26.1099 29.7848 25.6627 29.3376C25.2155 28.8903 24.6613 28.6667 24.0002 28.6667C23.3391 28.6667 22.7849 28.8903 22.3377 29.3376C21.8905 29.7848 21.6669 30.339 21.6669 31.0001C21.6669 31.6612 21.8905 32.2153 22.3377 32.6626C22.7849 33.1098 23.3391 33.3334 24.0002 33.3334Z" fill="#F59E0B"/>
</svg>
