<svg width="360" height="213" viewBox="0 0 360 213" fill="none" xmlns="http://www.w3.org/2000/svg">
<path d="M196.359 212.468C168.897 200.595 154.394 175.604 141.899 149.716L219.67 149.43C192.639 174.831 192.003 187.272 196.359 212.468Z" fill="white"/>
<rect x="16" width="328" height="154" rx="16" fill="white"/>
<path d="M40.2715 28.344C40.8635 28.344 41.3515 28.536 41.7355 28.92C42.1195 29.288 42.3115 29.752 42.3115 30.312C42.3115 30.872 42.1195 31.344 41.7355 31.728C41.3515 32.096 40.8635 32.28 40.2715 32.28C39.6635 32.28 39.1595 32.096 38.7595 31.728C38.3755 31.344 38.1835 30.872 38.1835 30.312C38.1835 29.752 38.3755 29.288 38.7595 28.92C39.1595 28.536 39.6635 28.344 40.2715 28.344ZM38.7835 33.96H41.6155L41.9995 45.552H38.3755L38.7835 33.96ZM55.1639 33.408C56.1079 33.584 56.8839 34.056 57.4919 34.824C58.0999 35.592 58.4039 36.472 58.4039 37.464C58.4039 38.36 58.1799 39.152 57.7319 39.84C57.2999 40.512 56.6679 41.04 55.8359 41.424C55.0039 41.808 54.0199 42 52.8839 42H45.6599V25.248H52.5719C53.7079 25.248 54.6839 25.432 55.4999 25.8C56.3319 26.168 56.9559 26.68 57.3719 27.336C57.8039 27.992 58.0199 28.736 58.0199 29.568C58.0199 30.544 57.7559 31.36 57.2279 32.016C56.7159 32.672 56.0279 33.136 55.1639 33.408ZM49.0199 32.16H52.0919C52.8919 32.16 53.5079 31.984 53.9399 31.632C54.3719 31.264 54.5879 30.744 54.5879 30.072C54.5879 29.4 54.3719 28.88 53.9399 28.512C53.5079 28.144 52.8919 27.96 52.0919 27.96H49.0199V32.16ZM52.4039 39.264C53.2199 39.264 53.8519 39.072 54.2999 38.688C54.7639 38.304 54.9959 37.76 54.9959 37.056C54.9959 36.336 54.7559 35.776 54.2759 35.376C53.7959 34.96 53.1479 34.752 52.3319 34.752H49.0199V39.264H52.4039ZM62.3058 27.12C61.7138 27.12 61.2178 26.936 60.8178 26.568C60.4338 26.184 60.2418 25.712 60.2418 25.152C60.2418 24.592 60.4338 24.128 60.8178 23.76C61.2178 23.376 61.7138 23.184 62.3058 23.184C62.8978 23.184 63.3858 23.376 63.7698 23.76C64.1698 24.128 64.3698 24.592 64.3698 25.152C64.3698 25.712 64.1698 26.184 63.7698 26.568C63.3858 26.936 62.8978 27.12 62.3058 27.12ZM63.9618 28.704V42H60.6018V28.704H63.9618ZM79.1614 35.064C79.1614 35.544 79.1294 35.976 79.0654 36.36H69.3454C69.4254 37.32 69.7614 38.072 70.3534 38.616C70.9454 39.16 71.6734 39.432 72.5374 39.432C73.7854 39.432 74.6734 38.896 75.2014 37.824H78.8254C78.4414 39.104 77.7054 40.16 76.6174 40.992C75.5294 41.808 74.1934 42.216 72.6094 42.216C71.3294 42.216 70.1774 41.936 69.1534 41.376C68.1454 40.8 67.3534 39.992 66.7774 38.952C66.2174 37.912 65.9374 36.712 65.9374 35.352C65.9374 33.976 66.2174 32.768 66.7774 31.728C67.3374 30.688 68.1214 29.888 69.1294 29.328C70.1374 28.768 71.2974 28.488 72.6094 28.488C73.8734 28.488 75.0014 28.76 75.9934 29.304C77.0014 29.848 77.7774 30.624 78.3214 31.632C78.8814 32.624 79.1614 33.768 79.1614 35.064ZM75.6814 34.104C75.6654 33.24 75.3534 32.552 74.7454 32.04C74.1374 31.512 73.3934 31.248 72.5134 31.248C71.6814 31.248 70.9774 31.504 70.4014 32.016C69.8414 32.512 69.4974 33.208 69.3694 34.104H75.6814ZM88.502 28.512C90.086 28.512 91.366 29.016 92.342 30.024C93.318 31.016 93.806 32.408 93.806 34.2V42H90.446V34.656C90.446 33.6 90.182 32.792 89.654 32.232C89.126 31.656 88.406 31.368 87.494 31.368C86.566 31.368 85.83 31.656 85.286 32.232C84.758 32.792 84.494 33.6 84.494 34.656V42H81.134V28.704H84.494V30.36C84.942 29.784 85.51 29.336 86.198 29.016C86.902 28.68 87.67 28.512 88.502 28.512ZM102.065 38.904L105.425 28.704H109.001L104.081 42H100.001L95.1051 28.704H98.7051L102.065 38.904ZM122.768 35.064C122.768 35.544 122.736 35.976 122.672 36.36H112.952C113.032 37.32 113.368 38.072 113.96 38.616C114.552 39.16 115.28 39.432 116.144 39.432C117.392 39.432 118.28 38.896 118.808 37.824H122.432C122.048 39.104 121.312 40.16 120.224 40.992C119.136 41.808 117.8 42.216 116.216 42.216C114.936 42.216 113.784 41.936 112.76 41.376C111.752 40.8 110.96 39.992 110.384 38.952C109.824 37.912 109.544 36.712 109.544 35.352C109.544 33.976 109.824 32.768 110.384 31.728C110.944 30.688 111.728 29.888 112.736 29.328C113.744 28.768 114.904 28.488 116.216 28.488C117.48 28.488 118.608 28.76 119.6 29.304C120.608 29.848 121.384 30.624 121.928 31.632C122.488 32.624 122.768 33.768 122.768 35.064ZM119.288 34.104C119.272 33.24 118.96 32.552 118.352 32.04C117.744 31.512 117 31.248 116.12 31.248C115.288 31.248 114.584 31.504 114.008 32.016C113.448 32.512 113.104 33.208 112.976 34.104H119.288ZM132.109 28.512C133.693 28.512 134.973 29.016 135.949 30.024C136.925 31.016 137.413 32.408 137.413 34.2V42H134.053V34.656C134.053 33.6 133.789 32.792 133.261 32.232C132.733 31.656 132.013 31.368 131.101 31.368C130.173 31.368 129.437 31.656 128.893 32.232C128.365 32.792 128.101 33.6 128.101 34.656V42H124.741V28.704H128.101V30.36C128.549 29.784 129.117 29.336 129.805 29.016C130.509 28.68 131.277 28.512 132.109 28.512ZM141.832 27.12C141.24 27.12 140.744 26.936 140.344 26.568C139.96 26.184 139.768 25.712 139.768 25.152C139.768 24.592 139.96 24.128 140.344 23.76C140.744 23.376 141.24 23.184 141.832 23.184C142.424 23.184 142.912 23.376 143.296 23.76C143.696 24.128 143.896 24.592 143.896 25.152C143.896 25.712 143.696 26.184 143.296 26.568C142.912 26.936 142.424 27.12 141.832 27.12ZM143.488 28.704V42H140.128V28.704H143.488ZM145.464 35.304C145.464 33.96 145.728 32.768 146.256 31.728C146.8 30.688 147.536 29.888 148.464 29.328C149.392 28.768 150.424 28.488 151.56 28.488C152.424 28.488 153.248 28.68 154.032 29.064C154.816 29.432 155.44 29.928 155.904 30.552V24.24H159.312V42H155.904V40.032C155.488 40.688 154.904 41.216 154.152 41.616C153.4 42.016 152.528 42.216 151.536 42.216C150.416 42.216 149.392 41.928 148.464 41.352C147.536 40.776 146.8 39.968 146.256 38.928C145.728 37.872 145.464 36.664 145.464 35.304ZM155.928 35.352C155.928 34.536 155.768 33.84 155.448 33.264C155.128 32.672 154.696 32.224 154.152 31.92C153.608 31.6 153.024 31.44 152.4 31.44C151.776 31.44 151.2 31.592 150.672 31.896C150.144 32.2 149.712 32.648 149.376 33.24C149.056 33.816 148.896 34.504 148.896 35.304C148.896 36.104 149.056 36.808 149.376 37.416C149.712 38.008 150.144 38.464 150.672 38.784C151.216 39.104 151.792 39.264 152.4 39.264C153.024 39.264 153.608 39.112 154.152 38.808C154.696 38.488 155.128 38.04 155.448 37.464C155.768 36.872 155.928 36.168 155.928 35.352ZM168.017 42.216C166.737 42.216 165.585 41.936 164.561 41.376C163.537 40.8 162.729 39.992 162.137 38.952C161.561 37.912 161.273 36.712 161.273 35.352C161.273 33.992 161.569 32.792 162.161 31.752C162.769 30.712 163.593 29.912 164.633 29.352C165.673 28.776 166.833 28.488 168.113 28.488C169.393 28.488 170.553 28.776 171.593 29.352C172.633 29.912 173.449 30.712 174.041 31.752C174.649 32.792 174.953 33.992 174.953 35.352C174.953 36.712 174.641 37.912 174.017 38.952C173.409 39.992 172.577 40.8 171.521 41.376C170.481 41.936 169.313 42.216 168.017 42.216ZM168.017 39.288C168.625 39.288 169.193 39.144 169.721 38.856C170.265 38.552 170.697 38.104 171.017 37.512C171.337 36.92 171.497 36.2 171.497 35.352C171.497 34.088 171.161 33.12 170.489 32.448C169.833 31.76 169.025 31.416 168.065 31.416C167.105 31.416 166.297 31.76 165.641 32.448C165.001 33.12 164.681 34.088 164.681 35.352C164.681 36.616 164.993 37.592 165.617 38.28C166.257 38.952 167.057 39.288 168.017 39.288ZM181.282 24.96L180.898 36.552H178.066L177.658 24.96H181.282ZM179.554 42.168C178.946 42.168 178.442 41.984 178.042 41.616C177.658 41.232 177.466 40.76 177.466 40.2C177.466 39.64 177.658 39.176 178.042 38.808C178.442 38.424 178.946 38.232 179.554 38.232C180.146 38.232 180.634 38.424 181.018 38.808C181.402 39.176 181.594 39.64 181.594 40.2C181.594 40.76 181.402 41.232 181.018 41.616C180.634 41.984 180.146 42.168 179.554 42.168Z" fill="#8F3B06"/>
<path d="M47.9275 87.808H41.2555L40.1515 91H36.6235L42.6475 74.224H46.5595L52.5835 91H49.0315L47.9275 87.808ZM47.0155 85.12L44.5915 78.112L42.1675 85.12H47.0155ZM53.4912 84.352C53.4912 82.976 53.7712 81.776 54.3312 80.752C54.8912 79.712 55.6672 78.912 56.6592 78.352C57.6512 77.776 58.7872 77.488 60.0672 77.488C61.7152 77.488 63.0752 77.904 64.1472 78.736C65.2352 79.552 65.9632 80.704 66.3312 82.192H62.7072C62.5152 81.616 62.1872 81.168 61.7232 80.848C61.2752 80.512 60.7152 80.344 60.0432 80.344C59.0832 80.344 58.3232 80.696 57.7632 81.4C57.2032 82.088 56.9232 83.072 56.9232 84.352C56.9232 85.616 57.2032 86.6 57.7632 87.304C58.3232 87.992 59.0832 88.336 60.0432 88.336C61.4032 88.336 62.2912 87.728 62.7072 86.512H66.3312C65.9632 87.952 65.2352 89.096 64.1472 89.944C63.0592 90.792 61.6992 91.216 60.0672 91.216C58.7872 91.216 57.6512 90.936 56.6592 90.376C55.6672 89.8 54.8912 89 54.3312 87.976C53.7712 86.936 53.4912 85.728 53.4912 84.352ZM74.2167 91.216C72.9367 91.216 71.7847 90.936 70.7607 90.376C69.7367 89.8 68.9287 88.992 68.3367 87.952C67.7607 86.912 67.4727 85.712 67.4727 84.352C67.4727 82.992 67.7687 81.792 68.3607 80.752C68.9687 79.712 69.7927 78.912 70.8327 78.352C71.8727 77.776 73.0327 77.488 74.3127 77.488C75.5927 77.488 76.7527 77.776 77.7927 78.352C78.8327 78.912 79.6487 79.712 80.2407 80.752C80.8487 81.792 81.1527 82.992 81.1527 84.352C81.1527 85.712 80.8407 86.912 80.2167 87.952C79.6087 88.992 78.7767 89.8 77.7207 90.376C76.6807 90.936 75.5127 91.216 74.2167 91.216ZM74.2167 88.288C74.8247 88.288 75.3927 88.144 75.9207 87.856C76.4647 87.552 76.8967 87.104 77.2167 86.512C77.5367 85.92 77.6967 85.2 77.6967 84.352C77.6967 83.088 77.3607 82.12 76.6887 81.448C76.0327 80.76 75.2247 80.416 74.2647 80.416C73.3047 80.416 72.4967 80.76 71.8407 81.448C71.2007 82.12 70.8807 83.088 70.8807 84.352C70.8807 85.616 71.1927 86.592 71.8167 87.28C72.4567 87.952 73.2567 88.288 74.2167 88.288ZM99.6494 77.512C101.281 77.512 102.593 78.016 103.585 79.024C104.593 80.016 105.097 81.408 105.097 83.2V91H101.737V83.656C101.737 82.616 101.473 81.824 100.945 81.28C100.417 80.72 99.6974 80.44 98.7854 80.44C97.8734 80.44 97.1454 80.72 96.6014 81.28C96.0734 81.824 95.8094 82.616 95.8094 83.656V91H92.4494V83.656C92.4494 82.616 92.1854 81.824 91.6574 81.28C91.1294 80.72 90.4094 80.44 89.4974 80.44C88.5694 80.44 87.8334 80.72 87.2894 81.28C86.7614 81.824 86.4974 82.616 86.4974 83.656V91H83.1374V77.704H86.4974V79.312C86.9294 78.752 87.4814 78.312 88.1534 77.992C88.8414 77.672 89.5934 77.512 90.4094 77.512C91.4494 77.512 92.3774 77.736 93.1934 78.184C94.0094 78.616 94.6414 79.24 95.0894 80.056C95.5214 79.288 96.1454 78.672 96.9614 78.208C97.7934 77.744 98.6894 77.512 99.6494 77.512ZM111.166 79.624C111.598 79.016 112.19 78.512 112.942 78.112C113.71 77.696 114.582 77.488 115.558 77.488C116.694 77.488 117.718 77.768 118.63 78.328C119.558 78.888 120.286 79.688 120.814 80.728C121.358 81.752 121.63 82.944 121.63 84.304C121.63 85.664 121.358 86.872 120.814 87.928C120.286 88.968 119.558 89.776 118.63 90.352C117.718 90.928 116.694 91.216 115.558 91.216C114.582 91.216 113.718 91.016 112.966 90.616C112.23 90.216 111.63 89.712 111.166 89.104V97.336H107.806V77.704H111.166V79.624ZM118.198 84.304C118.198 83.504 118.03 82.816 117.694 82.24C117.374 81.648 116.942 81.2 116.398 80.896C115.87 80.592 115.294 80.44 114.67 80.44C114.062 80.44 113.486 80.6 112.942 80.92C112.414 81.224 111.982 81.672 111.646 82.264C111.326 82.856 111.166 83.552 111.166 84.352C111.166 85.152 111.326 85.848 111.646 86.44C111.982 87.032 112.414 87.488 112.942 87.808C113.486 88.112 114.062 88.264 114.67 88.264C115.294 88.264 115.87 88.104 116.398 87.784C116.942 87.464 117.374 87.008 117.694 86.416C118.03 85.824 118.198 85.12 118.198 84.304ZM122.727 84.304C122.727 82.96 122.991 81.768 123.519 80.728C124.063 79.688 124.791 78.888 125.703 78.328C126.631 77.768 127.663 77.488 128.799 77.488C129.791 77.488 130.655 77.688 131.391 78.088C132.143 78.488 132.743 78.992 133.191 79.6V77.704H136.575V91H133.191V89.056C132.759 89.68 132.159 90.2 131.391 90.616C130.639 91.016 129.767 91.216 128.775 91.216C127.655 91.216 126.631 90.928 125.703 90.352C124.791 89.776 124.063 88.968 123.519 87.928C122.991 86.872 122.727 85.664 122.727 84.304ZM133.191 84.352C133.191 83.536 133.031 82.84 132.711 82.264C132.391 81.672 131.959 81.224 131.415 80.92C130.871 80.6 130.287 80.44 129.663 80.44C129.039 80.44 128.463 80.592 127.935 80.896C127.407 81.2 126.975 81.648 126.639 82.24C126.319 82.816 126.159 83.504 126.159 84.304C126.159 85.104 126.319 85.808 126.639 86.416C126.975 87.008 127.407 87.464 127.935 87.784C128.479 88.104 129.055 88.264 129.663 88.264C130.287 88.264 130.871 88.112 131.415 87.808C131.959 87.488 132.391 87.04 132.711 86.464C133.031 85.872 133.191 85.168 133.191 84.352ZM146.745 77.512C148.329 77.512 149.609 78.016 150.585 79.024C151.561 80.016 152.049 81.408 152.049 83.2V91H148.689V83.656C148.689 82.6 148.425 81.792 147.897 81.232C147.369 80.656 146.649 80.368 145.737 80.368C144.809 80.368 144.073 80.656 143.529 81.232C143.001 81.792 142.737 82.6 142.737 83.656V91H139.377V77.704H142.737V79.36C143.185 78.784 143.753 78.336 144.441 78.016C145.145 77.68 145.913 77.512 146.745 77.512ZM141.729 76.432C141.873 75.376 142.201 74.592 142.713 74.08C143.241 73.552 143.905 73.288 144.705 73.288C145.041 73.288 145.337 73.344 145.593 73.456C145.849 73.552 146.137 73.696 146.457 73.888C146.937 74.192 147.337 74.344 147.657 74.344C148.249 74.344 148.593 74 148.689 73.312H150.489C150.345 74.368 150.009 75.16 149.481 75.688C148.969 76.2 148.313 76.456 147.513 76.456C147.177 76.456 146.881 76.408 146.625 76.312C146.369 76.2 146.081 76.048 145.761 75.856C145.297 75.536 144.897 75.376 144.561 75.376C143.969 75.376 143.617 75.728 143.505 76.432H141.729ZM153.9 84.304C153.9 82.96 154.164 81.768 154.692 80.728C155.236 79.688 155.964 78.888 156.876 78.328C157.804 77.768 158.836 77.488 159.972 77.488C160.964 77.488 161.828 77.688 162.564 78.088C163.316 78.488 163.916 78.992 164.364 79.6V77.704H167.748V91H164.364V89.056C163.932 89.68 163.332 90.2 162.564 90.616C161.812 91.016 160.94 91.216 159.948 91.216C158.828 91.216 157.804 90.928 156.876 90.352C155.964 89.776 155.236 88.968 154.692 87.928C154.164 86.872 153.9 85.664 153.9 84.304ZM164.364 84.352C164.364 83.536 164.204 82.84 163.884 82.264C163.564 81.672 163.132 81.224 162.588 80.92C162.044 80.6 161.46 80.44 160.836 80.44C160.212 80.44 159.636 80.592 159.108 80.896C158.58 81.2 158.148 81.648 157.812 82.24C157.492 82.816 157.332 83.504 157.332 84.304C157.332 85.104 157.492 85.808 157.812 86.416C158.148 87.008 158.58 87.464 159.108 87.784C159.652 88.104 160.228 88.264 160.836 88.264C161.46 88.264 162.044 88.112 162.588 87.808C163.132 87.488 163.564 87.04 163.884 86.464C164.204 85.872 164.364 85.168 164.364 84.352ZM187.062 77.512C188.694 77.512 190.006 78.016 190.998 79.024C192.006 80.016 192.51 81.408 192.51 83.2V91H189.15V83.656C189.15 82.616 188.886 81.824 188.358 81.28C187.83 80.72 187.11 80.44 186.198 80.44C185.286 80.44 184.558 80.72 184.014 81.28C183.486 81.824 183.222 82.616 183.222 83.656V91H179.862V83.656C179.862 82.616 179.598 81.824 179.07 81.28C178.542 80.72 177.822 80.44 176.91 80.44C175.982 80.44 175.246 80.72 174.702 81.28C174.174 81.824 173.91 82.616 173.91 83.656V91H170.55V77.704H173.91V79.312C174.342 78.752 174.894 78.312 175.566 77.992C176.254 77.672 177.006 77.512 177.822 77.512C178.862 77.512 179.79 77.736 180.606 78.184C181.422 78.616 182.054 79.24 182.502 80.056C182.934 79.288 183.558 78.672 184.374 78.208C185.206 77.744 186.102 77.512 187.062 77.512ZM207.578 84.064C207.578 84.544 207.546 84.976 207.482 85.36H197.762C197.842 86.32 198.178 87.072 198.77 87.616C199.362 88.16 200.09 88.432 200.954 88.432C202.202 88.432 203.09 87.896 203.618 86.824H207.242C206.858 88.104 206.122 89.16 205.034 89.992C203.946 90.808 202.61 91.216 201.026 91.216C199.746 91.216 198.594 90.936 197.57 90.376C196.562 89.8 195.77 88.992 195.194 87.952C194.634 86.912 194.354 85.712 194.354 84.352C194.354 82.976 194.634 81.768 195.194 80.728C195.754 79.688 196.538 78.888 197.546 78.328C198.554 77.768 199.714 77.488 201.026 77.488C202.29 77.488 203.418 77.76 204.41 78.304C205.418 78.848 206.194 79.624 206.738 80.632C207.298 81.624 207.578 82.768 207.578 84.064ZM204.098 83.104C204.082 82.24 203.77 81.552 203.162 81.04C202.554 80.512 201.81 80.248 200.93 80.248C200.098 80.248 199.394 80.504 198.818 81.016C198.258 81.512 197.914 82.208 197.786 83.104H204.098ZM213.926 84.304C213.926 82.96 214.19 81.768 214.718 80.728C215.262 79.688 215.99 78.888 216.902 78.328C217.83 77.768 218.862 77.488 219.998 77.488C220.99 77.488 221.854 77.688 222.59 78.088C223.342 78.488 223.942 78.992 224.39 79.6V77.704H227.774V91H224.39V89.056C223.958 89.68 223.358 90.2 222.59 90.616C221.838 91.016 220.966 91.216 219.974 91.216C218.854 91.216 217.83 90.928 216.902 90.352C215.99 89.776 215.262 88.968 214.718 87.928C214.19 86.872 213.926 85.664 213.926 84.304ZM224.39 84.352C224.39 83.536 224.23 82.84 223.91 82.264C223.59 81.672 223.158 81.224 222.614 80.92C222.07 80.6 221.486 80.44 220.862 80.44C220.238 80.44 219.662 80.592 219.134 80.896C218.606 81.2 218.174 81.648 217.838 82.24C217.518 82.816 217.358 83.504 217.358 84.304C217.358 85.104 217.518 85.808 217.838 86.416C218.174 87.008 218.606 87.464 219.134 87.784C219.678 88.104 220.254 88.264 220.862 88.264C221.486 88.264 222.07 88.112 222.614 87.808C223.158 87.488 223.59 87.04 223.91 86.464C224.23 85.872 224.39 85.168 224.39 84.352ZM36.7915 115.352C36.7915 113.976 37.0715 112.776 37.6315 111.752C38.1915 110.712 38.9675 109.912 39.9595 109.352C40.9515 108.776 42.0875 108.488 43.3675 108.488C45.0155 108.488 46.3755 108.904 47.4475 109.736C48.5355 110.552 49.2635 111.704 49.6315 113.192H46.0075C45.8155 112.616 45.4875 112.168 45.0235 111.848C44.5755 111.512 44.0155 111.344 43.3435 111.344C42.3835 111.344 41.6235 111.696 41.0635 112.4C40.5035 113.088 40.2235 114.072 40.2235 115.352C40.2235 116.616 40.5035 117.6 41.0635 118.304C41.6235 118.992 42.3835 119.336 43.3435 119.336C44.7035 119.336 45.5915 118.728 46.0075 117.512H49.6315C49.2635 118.952 48.5355 120.096 47.4475 120.944C46.3595 121.792 44.9995 122.216 43.3675 122.216C42.0875 122.216 40.9515 121.936 39.9595 121.376C38.9675 120.8 38.1915 120 37.6315 118.976C37.0715 117.936 36.7915 116.728 36.7915 115.352ZM57.517 122.216C56.237 122.216 55.085 121.936 54.061 121.376C53.037 120.8 52.229 119.992 51.637 118.952C51.061 117.912 50.773 116.712 50.773 115.352C50.773 113.992 51.069 112.792 51.661 111.752C52.269 110.712 53.093 109.912 54.133 109.352C55.173 108.776 56.333 108.488 57.613 108.488C58.893 108.488 60.053 108.776 61.093 109.352C62.133 109.912 62.949 110.712 63.541 111.752C64.149 112.792 64.453 113.992 64.453 115.352C64.453 116.712 64.141 117.912 63.517 118.952C62.909 119.992 62.077 120.8 61.021 121.376C59.981 121.936 58.813 122.216 57.517 122.216ZM57.517 119.288C58.125 119.288 58.693 119.144 59.221 118.856C59.765 118.552 60.197 118.104 60.517 117.512C60.837 116.92 60.997 116.2 60.997 115.352C60.997 114.088 60.661 113.12 59.989 112.448C59.333 111.76 58.525 111.416 57.565 111.416C56.605 111.416 55.797 111.76 55.141 112.448C54.501 113.12 54.181 114.088 54.181 115.352C54.181 116.616 54.493 117.592 55.117 118.28C55.757 118.952 56.557 119.288 57.517 119.288ZM73.8057 108.512C75.3897 108.512 76.6697 109.016 77.6457 110.024C78.6217 111.016 79.1097 112.408 79.1097 114.2V122H75.7497V114.656C75.7497 113.6 75.4857 112.792 74.9577 112.232C74.4297 111.656 73.7097 111.368 72.7977 111.368C71.8697 111.368 71.1337 111.656 70.5897 112.232C70.0617 112.792 69.7977 113.6 69.7977 114.656V122H66.4377V108.704H69.7977V110.36C70.2457 109.784 70.8137 109.336 71.5017 109.016C72.2057 108.68 72.9737 108.512 73.8057 108.512ZM87.9209 111.464H85.5929V122H82.1849V111.464H80.6729V108.704H82.1849V108.032C82.1849 106.4 82.6489 105.2 83.5769 104.432C84.5049 103.664 85.9049 103.304 87.7769 103.352V106.184C86.9609 106.168 86.3929 106.304 86.0729 106.592C85.7529 106.88 85.5929 107.4 85.5929 108.152V108.704H87.9209V111.464ZM91.3223 107.12C90.7303 107.12 90.2343 106.936 89.8343 106.568C89.4503 106.184 89.2583 105.712 89.2583 105.152C89.2583 104.592 89.4503 104.128 89.8343 103.76C90.2343 103.376 90.7303 103.184 91.3223 103.184C91.9143 103.184 92.4023 103.376 92.7863 103.76C93.1863 104.128 93.3863 104.592 93.3863 105.152C93.3863 105.712 93.1863 106.184 92.7863 106.568C92.4023 106.936 91.9143 107.12 91.3223 107.12ZM92.9783 108.704V122H89.6183V108.704H92.9783ZM101.026 108.488C102.018 108.488 102.89 108.688 103.642 109.088C104.394 109.472 104.986 109.976 105.418 110.6V108.704H108.802V122.096C108.802 123.328 108.554 124.424 108.058 125.384C107.562 126.36 106.818 127.128 105.826 127.688C104.834 128.264 103.634 128.552 102.226 128.552C100.338 128.552 98.786 128.112 97.57 127.232C96.37 126.352 95.69 125.152 95.53 123.632H98.866C99.042 124.24 99.418 124.72 99.994 125.072C100.586 125.44 101.298 125.624 102.13 125.624C103.106 125.624 103.898 125.328 104.506 124.736C105.114 124.16 105.418 123.28 105.418 122.096V120.032C104.986 120.656 104.386 121.176 103.618 121.592C102.866 122.008 102.002 122.216 101.026 122.216C99.906 122.216 98.882 121.928 97.954 121.352C97.026 120.776 96.29 119.968 95.746 118.928C95.218 117.872 94.954 116.664 94.954 115.304C94.954 113.96 95.218 112.768 95.746 111.728C96.29 110.688 97.018 109.888 97.93 109.328C98.858 108.768 99.89 108.488 101.026 108.488ZM105.418 115.352C105.418 114.536 105.258 113.84 104.938 113.264C104.618 112.672 104.186 112.224 103.642 111.92C103.098 111.6 102.514 111.44 101.89 111.44C101.266 111.44 100.69 111.592 100.162 111.896C99.634 112.2 99.202 112.648 98.866 113.24C98.546 113.816 98.386 114.504 98.386 115.304C98.386 116.104 98.546 116.808 98.866 117.416C99.202 118.008 99.634 118.464 100.162 118.784C100.706 119.104 101.282 119.264 101.89 119.264C102.514 119.264 103.098 119.112 103.642 118.808C104.186 118.488 104.618 118.04 104.938 117.464C105.258 116.872 105.418 116.168 105.418 115.352ZM124.156 108.704V122H120.772V120.32C120.34 120.896 119.772 121.352 119.068 121.688C118.38 122.008 117.628 122.168 116.812 122.168C115.772 122.168 114.852 121.952 114.052 121.52C113.252 121.072 112.62 120.424 112.156 119.576C111.708 118.712 111.484 117.688 111.484 116.504V108.704H114.844V116.024C114.844 117.08 115.108 117.896 115.636 118.472C116.164 119.032 116.884 119.312 117.796 119.312C118.724 119.312 119.452 119.032 119.98 118.472C120.508 117.896 120.772 117.08 120.772 116.024V108.704H124.156ZM130.351 110.768C130.783 110.064 131.343 109.512 132.031 109.112C132.735 108.712 133.535 108.512 134.431 108.512V112.04H133.543C132.487 112.04 131.687 112.288 131.143 112.784C130.615 113.28 130.351 114.144 130.351 115.376V122H126.991V108.704H130.351V110.768ZM135.35 115.304C135.35 113.96 135.614 112.768 136.142 111.728C136.686 110.688 137.414 109.888 138.326 109.328C139.254 108.768 140.286 108.488 141.422 108.488C142.414 108.488 143.278 108.688 144.014 109.088C144.766 109.488 145.366 109.992 145.814 110.6V108.704H149.198V122H145.814V120.056C145.382 120.68 144.782 121.2 144.014 121.616C143.262 122.016 142.39 122.216 141.398 122.216C140.278 122.216 139.254 121.928 138.326 121.352C137.414 120.776 136.686 119.968 136.142 118.928C135.614 117.872 135.35 116.664 135.35 115.304ZM145.814 115.352C145.814 114.536 145.654 113.84 145.334 113.264C145.014 112.672 144.582 112.224 144.038 111.92C143.494 111.6 142.91 111.44 142.286 111.44C141.662 111.44 141.086 111.592 140.558 111.896C140.03 112.2 139.598 112.648 139.262 113.24C138.942 113.816 138.782 114.504 138.782 115.304C138.782 116.104 138.942 116.808 139.262 117.416C139.598 118.008 140.03 118.464 140.558 118.784C141.102 119.104 141.678 119.264 142.286 119.264C142.91 119.264 143.494 119.112 144.038 118.808C144.582 118.488 145.014 118.04 145.334 117.464C145.654 116.872 145.814 116.168 145.814 115.352ZM155.36 110.768C155.792 110.064 156.352 109.512 157.04 109.112C157.744 108.712 158.544 108.512 159.44 108.512V112.04H158.552C157.496 112.04 156.696 112.288 156.152 112.784C155.624 113.28 155.36 114.144 155.36 115.376V122H152V108.704H155.36V110.768ZM170.373 111.464V117.896C170.373 118.344 170.477 118.672 170.685 118.88C170.909 119.072 171.277 119.168 171.789 119.168H173.349V122H171.237C168.405 122 166.989 120.624 166.989 117.872V111.464H165.405V108.704H166.989V105.416H170.373V108.704H173.349V111.464H170.373ZM187.838 108.704V122H184.454V120.32C184.022 120.896 183.454 121.352 182.75 121.688C182.062 122.008 181.31 122.168 180.494 122.168C179.454 122.168 178.534 121.952 177.734 121.52C176.934 121.072 176.302 120.424 175.838 119.576C175.39 118.712 175.166 117.688 175.166 116.504V108.704H178.526V116.024C178.526 117.08 178.79 117.896 179.318 118.472C179.846 119.032 180.566 119.312 181.478 119.312C182.406 119.312 183.134 119.032 183.662 118.472C184.19 117.896 184.454 117.08 184.454 116.024V108.704H187.838ZM195.048 115.304C195.048 113.96 195.312 112.768 195.84 111.728C196.384 110.688 197.112 109.888 198.024 109.328C198.952 108.768 199.984 108.488 201.12 108.488C202.112 108.488 202.976 108.688 203.712 109.088C204.464 109.488 205.064 109.992 205.512 110.6V108.704H208.896V122H205.512V120.056C205.08 120.68 204.48 121.2 203.712 121.616C202.96 122.016 202.088 122.216 201.096 122.216C199.976 122.216 198.952 121.928 198.024 121.352C197.112 120.776 196.384 119.968 195.84 118.928C195.312 117.872 195.048 116.664 195.048 115.304ZM205.512 115.352C205.512 114.536 205.352 113.84 205.032 113.264C204.712 112.672 204.28 112.224 203.736 111.92C203.192 111.6 202.608 111.44 201.984 111.44C201.36 111.44 200.784 111.592 200.256 111.896C199.728 112.2 199.296 112.648 198.96 113.24C198.64 113.816 198.48 114.504 198.48 115.304C198.48 116.104 198.64 116.808 198.96 117.416C199.296 118.008 199.728 118.464 200.256 118.784C200.8 119.104 201.376 119.264 201.984 119.264C202.608 119.264 203.192 119.112 203.736 118.808C204.28 118.488 204.712 118.04 205.032 117.464C205.352 116.872 205.512 116.168 205.512 115.352ZM215.058 110.624C215.49 110.016 216.082 109.512 216.834 109.112C217.602 108.696 218.474 108.488 219.45 108.488C220.586 108.488 221.61 108.768 222.522 109.328C223.45 109.888 224.178 110.688 224.706 111.728C225.25 112.752 225.522 113.944 225.522 115.304C225.522 116.664 225.25 117.872 224.706 118.928C224.178 119.968 223.45 120.776 222.522 121.352C221.61 121.928 220.586 122.216 219.45 122.216C218.474 122.216 217.61 122.016 216.858 121.616C216.122 121.216 215.522 120.712 215.058 120.104V128.336H211.698V108.704H215.058V110.624ZM222.09 115.304C222.09 114.504 221.922 113.816 221.586 113.24C221.266 112.648 220.834 112.2 220.29 111.896C219.762 111.592 219.186 111.44 218.562 111.44C217.954 111.44 217.378 111.6 216.834 111.92C216.306 112.224 215.874 112.672 215.538 113.264C215.218 113.856 215.058 114.552 215.058 115.352C215.058 116.152 215.218 116.848 215.538 117.44C215.874 118.032 216.306 118.488 216.834 118.808C217.378 119.112 217.954 119.264 218.562 119.264C219.186 119.264 219.762 119.104 220.29 118.784C220.834 118.464 221.266 118.008 221.586 117.416C221.922 116.824 222.09 116.12 222.09 115.304ZM230.843 104.24V122H227.483V104.24H230.843ZM235.387 107.12C234.795 107.12 234.299 106.936 233.899 106.568C233.515 106.184 233.323 105.712 233.323 105.152C233.323 104.592 233.515 104.128 233.899 103.76C234.299 103.376 234.795 103.184 235.387 103.184C235.979 103.184 236.467 103.376 236.851 103.76C237.251 104.128 237.451 104.592 237.451 105.152C237.451 105.712 237.251 106.184 236.851 106.568C236.467 106.936 235.979 107.12 235.387 107.12ZM237.043 108.704V122H233.683V108.704H237.043ZM239.019 115.352C239.019 113.976 239.299 112.776 239.859 111.752C240.419 110.712 241.195 109.912 242.187 109.352C243.179 108.776 244.315 108.488 245.595 108.488C247.243 108.488 248.603 108.904 249.675 109.736C250.763 110.552 251.491 111.704 251.859 113.192H248.235C248.043 112.616 247.715 112.168 247.251 111.848C246.803 111.512 246.243 111.344 245.571 111.344C244.611 111.344 243.851 111.696 243.291 112.4C242.731 113.088 242.451 114.072 242.451 115.352C242.451 116.616 242.731 117.6 243.291 118.304C243.851 118.992 244.611 119.336 245.571 119.336C246.931 119.336 247.819 118.728 248.235 117.512H251.859C251.491 118.952 250.763 120.096 249.675 120.944C248.587 121.792 247.227 122.216 245.595 122.216C244.315 122.216 243.179 121.936 242.187 121.376C241.195 120.8 240.419 120 239.859 118.976C239.299 117.936 239.019 116.728 239.019 115.352ZM252.976 115.304C252.976 113.96 253.24 112.768 253.768 111.728C254.312 110.688 255.04 109.888 255.952 109.328C256.88 108.768 257.912 108.488 259.048 108.488C260.04 108.488 260.904 108.688 261.64 109.088C262.392 109.488 262.992 109.992 263.44 110.6V108.704H266.824V122H263.44V120.056C263.008 120.68 262.408 121.2 261.64 121.616C260.888 122.016 260.016 122.216 259.024 122.216C257.904 122.216 256.88 121.928 255.952 121.352C255.04 120.776 254.312 119.968 253.768 118.928C253.24 117.872 252.976 116.664 252.976 115.304ZM263.44 115.352C263.44 114.536 263.28 113.84 262.96 113.264C262.64 112.672 262.208 112.224 261.664 111.92C261.12 111.6 260.536 111.44 259.912 111.44C259.288 111.44 258.712 111.592 258.184 111.896C257.656 112.2 257.224 112.648 256.888 113.24C256.568 113.816 256.408 114.504 256.408 115.304C256.408 116.104 256.568 116.808 256.888 117.416C257.224 118.008 257.656 118.464 258.184 118.784C258.728 119.104 259.304 119.264 259.912 119.264C260.536 119.264 261.12 119.112 261.664 118.808C262.208 118.488 262.64 118.04 262.96 117.464C263.28 116.872 263.44 116.168 263.44 115.352ZM273.538 111.464V117.896C273.538 118.344 273.642 118.672 273.85 118.88C274.074 119.072 274.442 119.168 274.954 119.168H276.514V122H274.402C271.57 122 270.154 120.624 270.154 117.872V111.464H268.57V108.704H270.154V105.416H273.538V108.704H276.514V111.464H273.538ZM280.155 107.12C279.563 107.12 279.067 106.936 278.667 106.568C278.283 106.184 278.091 105.712 278.091 105.152C278.091 104.592 278.283 104.128 278.667 103.76C279.067 103.376 279.563 103.184 280.155 103.184C280.747 103.184 281.235 103.376 281.619 103.76C282.019 104.128 282.219 104.592 282.219 105.152C282.219 105.712 282.019 106.184 281.619 106.568C281.235 106.936 280.747 107.12 280.155 107.12ZM281.811 108.704V122H278.451V108.704H281.811ZM290.194 118.904L293.554 108.704H297.13L292.21 122H288.13L283.234 108.704H286.834L290.194 118.904ZM304.441 122.216C303.161 122.216 302.009 121.936 300.985 121.376C299.961 120.8 299.153 119.992 298.561 118.952C297.985 117.912 297.697 116.712 297.697 115.352C297.697 113.992 297.993 112.792 298.585 111.752C299.193 110.712 300.017 109.912 301.057 109.352C302.097 108.776 303.257 108.488 304.537 108.488C305.817 108.488 306.977 108.776 308.017 109.352C309.057 109.912 309.873 110.712 310.465 111.752C311.073 112.792 311.377 113.992 311.377 115.352C311.377 116.712 311.065 117.912 310.441 118.952C309.833 119.992 309.001 120.8 307.945 121.376C306.905 121.936 305.737 122.216 304.441 122.216ZM304.441 119.288C305.049 119.288 305.617 119.144 306.145 118.856C306.689 118.552 307.121 118.104 307.441 117.512C307.761 116.92 307.921 116.2 307.921 115.352C307.921 114.088 307.585 113.12 306.913 112.448C306.257 111.76 305.449 111.416 304.489 111.416C303.529 111.416 302.721 111.76 302.065 112.448C301.425 113.12 301.105 114.088 301.105 115.352C301.105 116.616 301.417 117.592 302.041 118.28C302.681 118.952 303.481 119.288 304.441 119.288Z" fill="#8F3B06"/>
</svg>
