<svg width="17" height="18" viewBox="0 0 17 18" fill="none" xmlns="http://www.w3.org/2000/svg">
<g clip-path="url(#clip0_3682_1257)">
<path d="M0.5 17.0322C0.756747 16.0903 1.00524 15.1789 1.25417 14.2675C1.35887 13.8843 1.45965 13.4998 1.57434 13.1193C1.61692 12.9772 1.60128 12.8647 1.53003 12.7339C0.759788 11.3229 0.431795 9.80675 0.601656 8.2137C0.899674 5.41251 2.28724 3.27816 4.76305 1.93578C9.41056 -0.583474 15.1263 2.04047 16.3023 7.19323C17.3141 11.6248 14.3409 16.0408 9.83934 16.7906C8.10597 17.0791 6.45819 16.8102 4.88686 16.0299C4.78346 15.9787 4.63446 15.9656 4.52194 15.9943C3.24863 16.3193 1.97793 16.656 0.706354 16.9887C0.650747 17.0031 0.594271 17.0126 0.5 17.0326L0.5 17.0322ZM2.41757 15.142C3.20388 14.9352 3.95067 14.7423 4.69528 14.5412C4.84342 14.5012 4.96028 14.5094 5.09929 14.592C6.53638 15.4461 8.07904 15.7328 9.729 15.4417C13.2666 14.8179 15.7063 11.2999 15.0421 7.77623C14.4786 4.78867 12.0927 2.6074 9.07345 2.35674C7.02772 2.18688 5.25656 2.84677 3.82338 4.30645C1.61518 6.55592 1.29414 9.83412 2.97364 12.5267C3.05314 12.654 3.07225 12.763 3.03011 12.9099C2.82245 13.6384 2.62783 14.3704 2.41757 15.142Z" fill="#F7F3F0"/>
<path d="M10.5521 13.0323C10.3119 12.9771 10.0121 12.9276 9.72454 12.8394C7.8452 12.2624 6.41897 11.0973 5.35723 9.45995C4.97102 8.86435 4.57873 8.27396 4.43493 7.5615C4.25247 6.65919 4.48446 5.88721 5.16043 5.25599C5.43977 4.99489 5.93979 4.91409 6.27344 5.10089C6.39594 5.16953 6.51802 5.29552 6.57059 5.42411C6.78432 5.94542 6.98286 6.47325 7.1575 7.00847C7.19747 7.13098 7.1575 7.31518 7.08669 7.42943C6.96722 7.62405 6.79171 7.78392 6.64487 7.96247C6.44373 8.20662 6.43852 8.31306 6.59361 8.58675C7.17705 9.61852 8.00376 10.3927 9.06073 10.9248C9.42739 11.1095 9.53078 11.0951 9.81142 10.788C9.99649 10.5851 10.1763 10.3762 10.3488 10.1624C10.4609 10.0238 10.5938 9.97431 10.7485 10.0538C11.3332 10.354 11.9154 10.6594 12.4949 10.97C12.6517 11.0543 12.6248 11.2146 12.6091 11.3593C12.5149 12.2168 12.1234 12.6534 11.1086 12.9554C10.9518 13.0018 10.7811 13.0018 10.5521 13.0314V13.0323Z" fill="#F7F3F0"/>
</g>
<defs>
<clipPath id="clip0_3682_1257">
<rect width="16" height="16.0643" fill="white" transform="translate(0.5 0.967773)"/>
</clipPath>
</defs>
</svg>
