<svg width="145" height="144" viewBox="0 0 145 144" fill="none" xmlns="http://www.w3.org/2000/svg">
<g clip-path="url(#clip0_2419_1336)">
<g filter="url(#filter0_d_2419_1336)">
<path fill-rule="evenodd" clip-rule="evenodd" d="M126.011 141.282C119.513 125.061 113.35 105.646 103.638 99.5821C97.9188 96.0127 78.1192 93.587 78.1192 93.587H65.8627C65.8627 93.587 44.7714 91.2304 38.5495 97.0677C33.5207 101.791 16.3439 136.756 16.3439 136.756C16.3439 136.756 27.7129 148.726 38.5495 148.726C38.2339 163.241 38.1748 176.365 38.1748 176.365C38.1748 176.365 37.7508 178.307 37.0605 181.877C55.0163 183.376 79.4996 183.435 100.433 178.15C99.9895 172.943 99.7134 169.808 99.6838 169.482L92.6238 122.517C92.6238 122.517 97.0807 139.083 100.275 149.545C105.265 149.545 122.106 145.551 126.011 141.272V141.282Z" fill="#C36363"/>
<path fill-rule="evenodd" clip-rule="evenodd" d="M71.3944 101.86H71.1676C67.3221 101.86 64.2062 98.7441 64.2062 94.8986V73.0381H78.3657V94.8986C78.3657 98.7441 75.2498 101.86 71.4043 101.86H71.3944Z" fill="#EDBA8C"/>
<path opacity="0.25" fill-rule="evenodd" clip-rule="evenodd" d="M64.1964 92.838C68.9097 93.3409 73.7018 93.124 78.3559 92.1872V81.9028C73.6722 82.6621 68.9393 83.0466 64.1964 83.0664V92.838Z" fill="#561C2F" stroke="#EDBA8C" stroke-width="0.347756" stroke-miterlimit="22.93"/>
<path fill-rule="evenodd" clip-rule="evenodd" d="M45.3336 14.931C45.3336 14.931 46.1422 7.97938 49.1989 4.9128C52.2655 1.85608 71.9665 -1.95989 81.9156 1.16586C85.0414 4.45922 87.043 10.9572 87.043 10.9572L45.3336 14.931Z" fill="#845E40"/>
<path fill-rule="evenodd" clip-rule="evenodd" d="M123.221 27.4535C124.374 40.1931 100.187 52.7848 69.1956 55.595C38.2044 58.4052 12.1532 50.3493 10.9996 37.6195C9.84591 24.8799 34.0334 12.2882 65.0246 9.47797C96.0158 6.66776 122.067 14.7237 123.221 27.4535Z" fill="#F1D054"/>
<mask id="mask0_2419_1336" style="mask-type:luminance" maskUnits="userSpaceOnUse" x="10" y="8" width="114" height="49">
<path d="M123.221 27.4535C124.374 40.1931 100.187 52.7848 69.1956 55.595C38.2044 58.4052 12.1532 50.3493 10.9996 37.6195C9.84591 24.8799 34.0334 12.2882 65.0246 9.47797C96.0158 6.66776 122.067 14.7237 123.221 27.4535Z" fill="white"/>
</mask>
<g mask="url(#mask0_2419_1336)">
<path opacity="0.3" fill-rule="evenodd" clip-rule="evenodd" d="M123.221 27.4535C124.374 40.1931 100.187 52.7848 69.1956 55.595C38.2044 58.4052 12.1532 50.3493 10.9996 37.6195C9.84591 24.8799 34.0334 12.2882 65.0246 9.47797C96.0158 6.66776 122.067 14.7237 123.221 27.4535Z" fill="#CB2E45"/>
</g>
<path fill-rule="evenodd" clip-rule="evenodd" d="M75.4362 29.2289L88.6542 26.2353C92.1189 25.4445 95.7725 26.7724 97.8297 29.616C104.27 38.5439 116.541 59.7697 112.658 88.0898C112.123 91.9952 108.685 94.8948 104.546 95.0171C97.677 95.2103 92.7884 95.3744 89.3355 95.4929C84.8293 95.6637 80.8947 92.5084 80.3076 88.2248C78.653 76.2543 74.9801 53.0894 69.6183 39.909C67.7506 35.342 70.5017 30.3434 75.4623 29.2347L75.4362 29.2289Z" fill="black"/>
<path fill-rule="evenodd" clip-rule="evenodd" d="M104.535 48.7029C102.366 53.1204 98.3329 55.5756 95.5227 54.1952C92.7125 52.8147 92.1997 48.1212 94.369 43.7037C96.5383 39.2863 100.571 36.831 103.381 38.2115C106.192 39.5919 106.704 44.2855 104.535 48.7029Z" fill="#EDBA8C"/>
<path fill-rule="evenodd" clip-rule="evenodd" d="M65.9309 21.3009L51.489 19.0326C47.7031 18.4314 43.8666 20.1241 41.8577 23.333C35.5706 33.4063 23.8946 57.1358 30.1165 87.3355C30.9745 91.5001 34.8837 94.3727 39.3473 94.2058C46.7538 93.9182 52.027 93.7422 55.7518 93.6206C60.614 93.4795 64.621 89.7997 64.9438 85.1471C65.8611 72.1444 68.143 46.9481 72.9629 32.3758C74.6435 27.3258 71.322 22.1445 65.9032 21.309L65.9309 21.3009Z" fill="black"/>
<path fill-rule="evenodd" clip-rule="evenodd" d="M96.5483 58.2771L93.8268 32.65C92.5647 20.7583 81.8958 12.1404 70.0041 13.4124L59.7099 14.5069C47.8183 15.769 39.2003 26.4379 40.4723 38.3295L43.1938 63.9567C44.4559 75.8483 55.1248 84.4663 67.0164 83.1943L77.3107 82.0998C89.2023 80.8377 97.8203 70.1687 96.5483 58.2771Z" fill="#EDBA8C"/>
<path fill-rule="evenodd" clip-rule="evenodd" d="M34.0926 55.7925C37.031 59.7367 41.4386 61.4228 43.953 59.5592C46.4674 57.6956 46.1223 52.9823 43.1839 49.0381C40.2455 45.094 35.8379 43.4079 33.3235 45.2715C30.819 47.1351 31.1542 51.8483 34.0926 55.7925Z" fill="#EDBA8C"/>
<path fill-rule="evenodd" clip-rule="evenodd" d="M34.2996 48.6337C38.1649 49.1169 39.5749 53.1596 40.5708 56.3643C40.7384 56.9066 41.5963 56.6798 41.4286 56.1276C40.2848 52.4596 38.6283 48.2886 34.2996 47.7463C33.7375 47.6773 33.7375 48.5548 34.2996 48.6337Z" fill="#561C2F"/>
<path fill-rule="evenodd" clip-rule="evenodd" d="M36.4295 53.4061C37.2874 52.8243 38.2044 52.4496 39.22 52.2623C39.7821 52.1538 39.5454 51.3058 38.9834 51.4044C37.8987 51.6017 36.893 52.0256 35.9858 52.637C35.5224 52.9525 35.9563 53.7216 36.4295 53.3962V53.4061Z" fill="#561C2F"/>
<path fill-rule="evenodd" clip-rule="evenodd" d="M97.4852 52.2624C97.288 48.1802 98.8262 44.4431 101.834 41.6822C102.258 41.2977 101.627 40.6666 101.212 41.061C98.0472 43.9797 96.4104 47.9731 96.6076 52.2723C96.6372 52.8442 97.5148 52.8442 97.4951 52.2723L97.4852 52.2624Z" fill="#561C2F"/>
<path fill-rule="evenodd" clip-rule="evenodd" d="M98.5402 46.4742C99.822 46.6319 100.926 47.2827 101.735 48.2688C102.1 48.7125 102.721 48.0814 102.356 47.6476C101.39 46.4643 100.049 45.7741 98.5402 45.5966C97.9781 45.5276 97.9781 46.415 98.5402 46.484V46.4742Z" fill="#561C2F"/>
<path fill-rule="evenodd" clip-rule="evenodd" d="M100.433 178.14C100.315 178.16 100.187 178.179 100.059 178.199L100.029 176.986C83.434 136.164 94.5072 96.496 94.5072 96.496L86.6781 94.6619C86.6781 94.6619 81.0774 109.798 82.1226 128.306C82.1226 128.306 61.2679 127.793 48.6269 128.799C48.8537 111.385 51.6343 93.104 51.6343 93.104L43.4305 94.3267C43.4305 94.3267 36.0647 141.637 38.5496 148.717L38.1749 176.355L37.4255 180.082H37.4058C37.2283 180.99 37.0113 182.074 36.7846 183.297V183.317C32.5446 205.729 20.6924 278.884 30.75 350.48C47.3549 351.693 49.6425 350.45 49.6425 350.45C49.6425 350.45 53.3204 259.587 63.8217 211.498L95.6905 348.439L114.8 346.575C114.8 346.575 103.48 213.716 100.433 178.13V178.14Z" fill="#1E4A47"/>
<mask id="mask1_2419_1336" style="mask-type:luminance" maskUnits="userSpaceOnUse" x="26" y="93" width="89" height="259">
<path d="M100.433 178.14C100.315 178.16 100.187 178.179 100.059 178.199L100.029 176.986C83.434 136.164 94.5072 96.496 94.5072 96.496L86.6781 94.6619C86.6781 94.6619 81.0774 109.798 82.1226 128.306C82.1226 128.306 61.2679 127.793 48.6269 128.799C48.8537 111.385 51.6343 93.104 51.6343 93.104L43.4305 94.3267C43.4305 94.3267 36.0647 141.637 38.5496 148.717L38.1749 176.355L37.4255 180.082H37.4058C37.2283 180.99 37.0113 182.074 36.7846 183.297V183.317C32.5446 205.729 20.6924 278.884 30.75 350.48C47.3549 351.693 49.6425 350.45 49.6425 350.45C49.6425 350.45 53.3204 259.587 63.8217 211.498L95.6905 348.439L114.8 346.575C114.8 346.575 103.48 213.716 100.433 178.13V178.14Z" fill="white"/>
</mask>
<g mask="url(#mask1_2419_1336)">
<path opacity="0.3" fill-rule="evenodd" clip-rule="evenodd" d="M100.433 178.14C100.315 178.16 100.187 178.179 100.059 178.199L100.029 176.986C83.434 136.164 94.5072 96.496 94.5072 96.496L86.6781 94.6619C86.6781 94.6619 81.0774 109.798 82.1226 128.306C82.1226 128.306 61.2679 127.793 48.6269 128.799C48.8537 111.385 51.6343 93.104 51.6343 93.104L43.4305 94.3267C43.4305 94.3267 36.0647 141.637 38.5496 148.717L38.1749 176.355L37.4255 180.082H37.4058C37.2283 180.99 37.0113 182.074 36.7846 183.297V183.317C32.5446 205.729 20.6924 278.884 30.75 350.48C47.3549 351.693 49.6425 350.45 49.6425 350.45C49.6425 350.45 53.3204 259.587 63.8217 211.498L95.6905 348.439L114.8 346.575C114.8 346.575 103.48 213.716 100.433 178.13V178.14Z" fill="#1E4A47"/>
</g>
<path fill-rule="evenodd" clip-rule="evenodd" d="M68.0125 50.1225C68.2886 47.0953 68.3379 44.0386 68.1604 41.0016C68.0717 39.5127 67.9337 38.0238 67.7364 36.5447C67.5984 35.4601 67.5984 34.0007 67.1547 32.9851C66.5532 31.6047 64.4727 31.4567 64.0585 33.0048C63.7233 34.2374 64.2064 35.6178 64.3346 36.8504C64.5417 38.9999 64.8375 41.1396 64.9361 43.2892C64.9854 44.3344 64.9854 45.3697 64.9164 46.4149C64.8769 47.0559 65.0939 48.2983 64.6107 48.7913C64.3445 49.0575 63.8909 49.1364 63.5754 48.9293C63.3289 48.7716 63.2105 48.4758 63.0035 48.2687C62.6485 47.894 62.047 47.8053 61.5638 47.9926C60.5088 48.4166 60.637 49.2942 60.844 50.2112C61.1497 51.5325 61.8005 52.7749 62.7569 53.7511C63.2598 54.2638 63.8712 54.7075 64.5811 54.7963C65.6559 54.9343 66.7011 54.1948 67.2336 53.2581C67.7759 52.3115 67.9041 51.2071 68.0027 50.1225H68.0125Z" fill="#F1D054"/>
<path fill-rule="evenodd" clip-rule="evenodd" d="M58.2701 45.7347C58.5167 47.6575 57.6785 49.3535 56.4065 49.5113C55.1345 49.669 53.902 48.2393 53.6653 46.3165C53.4188 44.3937 54.257 42.6977 55.529 42.54C56.8009 42.3822 58.0335 43.812 58.2701 45.7347Z" fill="#561C2F"/>
<path fill-rule="evenodd" clip-rule="evenodd" d="M72.7946 44.3049C72.7355 46.2474 73.7314 47.8546 75.0132 47.8842C76.2951 47.9237 77.3797 46.3756 77.4389 44.4331C77.498 42.4906 76.5021 40.8833 75.2203 40.8538C73.9384 40.8143 72.8538 42.3624 72.7946 44.3049Z" fill="#561C2F"/>
<path fill-rule="evenodd" clip-rule="evenodd" d="M49.7114 39.2663C50.8552 36.4068 53.6457 34.9573 56.6432 35.3221C57.8166 35.4602 57.8068 33.6261 56.6432 33.4881C52.7582 33.0247 49.3663 35.2038 47.9365 38.7831C47.4928 39.8875 49.2775 40.3608 49.7114 39.2761V39.2663Z" fill="#561C2F"/>
<path fill-rule="evenodd" clip-rule="evenodd" d="M72.6861 33.3994C75.3582 32.364 78.1882 33.1627 79.963 35.4109C80.6927 36.3378 81.9844 35.0362 81.2646 34.1093C79.1348 31.3977 75.4075 30.3919 72.2029 31.6245C71.1084 32.0485 71.5817 33.8234 72.6959 33.3994H72.6861Z" fill="#561C2F"/>
<path fill-rule="evenodd" clip-rule="evenodd" d="M63.2794 58.2772C67.0362 61.0282 72.0354 58.6026 72.4397 54.0372C72.489 53.4456 71.572 53.4554 71.5227 54.0372C71.1776 57.9813 66.8785 59.7759 63.7429 57.4785C63.2597 57.1235 62.8061 57.9222 63.2794 58.2772Z" fill="#561C2F"/>
<path opacity="0.16" fill-rule="evenodd" clip-rule="evenodd" d="M40.3046 40.6074C40.9554 40.4397 41.5963 40.2721 42.2372 40.1045C51.0228 37.8366 60.0352 36.1899 69.0673 35.3321C75.3089 34.7404 81.5308 34.5827 87.7429 34.7799C90.1883 34.7503 92.6139 34.7503 95.0001 34.7799C95.0001 34.7799 92.6238 25.3731 90.563 22.4544C73.9581 21.567 56.4953 23.5785 41.2512 29.8004C40.4426 32.4824 40.1468 35.3616 40.4623 38.3198L40.3046 40.5975V40.6074Z" fill="#561C2F"/>
<path fill-rule="evenodd" clip-rule="evenodd" d="M96.6272 19.1906L84.8243 13.0969C80.2885 13.018 75.7429 12.9983 71.2071 13.0673C65.3007 13.1561 59.4831 13.3632 53.6261 14.0534L52.7288 14.3985L44.0516 19.2005L32.5938 26.3986C32.5938 26.3986 29.0047 28.9721 29.0047 30.8456L27.782 37.8662C27.782 37.8662 60.8636 20.6007 102.218 28.7256C126.001 29.7117 96.6075 19.1906 96.6075 19.1906H96.6272Z" fill="#E6A050"/>
<path fill-rule="evenodd" clip-rule="evenodd" d="M17.3893 140.917C14.0368 149.259 12.114 158.183 11.7294 167.165C11.69 168.023 11.6801 168.95 12.1436 169.68C12.538 170.311 13.2184 170.695 13.879 171.031C24.1042 176.237 36.2522 175.162 47.6607 173.949C49.1003 173.792 65.3305 171.642 65.2812 170.991C65.015 167.353 64.4431 163.744 63.5852 160.194C57.5506 158.597 51.378 158.469 45.166 157.926C41.6163 157.621 38.0369 157.137 34.4971 156.861C34.6055 154.416 34.7239 151.971 34.8323 149.525L17.3893 140.907V140.917Z" fill="#EDBA8C"/>
<path opacity="0.15" fill-rule="evenodd" clip-rule="evenodd" d="M34.6251 154.169C34.6942 152.621 34.7632 151.073 34.8421 149.535L17.399 140.917C16.2158 143.855 15.2199 146.863 14.4015 149.929C20.7713 153.124 27.7525 154.958 34.6251 154.179V154.169Z" fill="#561C2F"/>
<path fill-rule="evenodd" clip-rule="evenodd" d="M99.8416 142.13C105.068 140.611 117.364 136.953 122.688 134.754C124.108 134.163 125.725 134.882 126.267 136.312C127.106 138.521 127.628 140.414 127.934 141.726C128.21 142.879 127.707 144.072 126.682 144.684C122.767 147.011 112.384 152.464 101.715 151.931C100.532 151.872 99.4965 151.083 99.1711 149.939C98.6189 147.987 98.2245 146.478 97.9682 145.354C97.6329 143.944 98.4612 142.534 99.8515 142.13H99.8416Z" fill="#CA4040"/>
<path fill-rule="evenodd" clip-rule="evenodd" d="M16.6596 132.536L14.4114 137.052C13.8198 138.235 14.017 139.655 14.9242 140.621C17.7738 143.648 24.8043 149.752 35.8873 150.61C37.4157 150.728 38.806 149.722 39.2004 148.243C39.8512 145.788 40.3245 144.043 40.6598 142.81C41.1035 141.203 40.2358 139.537 38.6581 138.985C34.2505 137.436 25.7607 134.271 21.2052 131.293C19.6276 130.258 17.4977 130.85 16.6596 132.546V132.536Z" fill="#CA4040"/>
<path opacity="0.3" fill-rule="evenodd" clip-rule="evenodd" d="M99.8416 142.13C105.068 140.611 117.364 136.953 122.688 134.754C124.108 134.163 125.725 134.882 126.267 136.312C127.106 138.521 127.628 140.414 127.934 141.726C128.21 142.879 127.707 144.072 126.682 144.684C122.767 147.011 112.384 152.464 101.715 151.931C100.532 151.872 99.4965 151.083 99.1711 149.939C98.6189 147.987 98.2245 146.478 97.9682 145.354C97.6329 143.944 98.4612 142.534 99.8515 142.13H99.8416Z" fill="#CB2E45"/>
<path opacity="0.3" fill-rule="evenodd" clip-rule="evenodd" d="M16.6596 132.536L14.4114 137.052C13.8198 138.235 14.017 139.655 14.9242 140.621C17.7738 143.648 24.8043 149.752 35.8873 150.61C37.4157 150.728 38.806 149.722 39.2004 148.243C39.8512 145.788 40.3245 144.043 40.6598 142.81C41.1035 141.203 40.2358 139.537 38.6581 138.985C34.2505 137.436 25.7607 134.271 21.2052 131.293C19.6276 130.258 17.4977 130.85 16.6596 132.546V132.536Z" fill="#CB2E45"/>
<path opacity="0.3" fill-rule="evenodd" clip-rule="evenodd" d="M68.0125 50.1225C68.2886 47.0953 68.3379 44.0386 68.1604 41.0016C68.0717 39.5127 67.9337 38.0238 67.7364 36.5447C67.5984 35.4601 67.5984 34.0007 67.1547 32.9851C66.5532 31.6047 64.4727 31.4567 64.0585 33.0048C63.7233 34.2374 64.2064 35.6178 64.3346 36.8504C64.5417 38.9999 64.8375 41.1396 64.9361 43.2892C64.9854 44.3344 64.9854 45.3697 64.9164 46.4149C64.8769 47.0559 65.0939 48.2983 64.6107 48.7913C64.3445 49.0575 63.8909 49.1364 63.5754 48.9293C63.3289 48.7716 63.2105 48.4758 63.0035 48.2687C62.6485 47.894 62.047 47.8053 61.5638 47.9926C60.5088 48.4166 60.637 49.2942 60.844 50.2112C61.1497 51.5325 61.8005 52.7749 62.7569 53.7511C63.2598 54.2638 63.8712 54.7075 64.5811 54.7963C65.6559 54.9343 66.7011 54.1948 67.2336 53.2581C67.7759 52.3115 67.9041 51.2071 68.0027 50.1225H68.0125Z" fill="#CB2E45"/>
</g>
</g>
<defs>
<filter id="filter0_d_2419_1336" x="-3.11898" y="0" width="151.518" height="371.559" filterUnits="userSpaceOnUse" color-interpolation-filters="sRGB">
<feFlood flood-opacity="0" result="BackgroundImageFix"/>
<feColorMatrix in="SourceAlpha" type="matrix" values="0 0 0 0 0 0 0 0 0 0 0 0 0 0 0 0 0 0 127 0" result="hardAlpha"/>
<feOffset dy="3.11898"/>
<feGaussianBlur stdDeviation="1.55949"/>
<feComposite in2="hardAlpha" operator="out"/>
<feColorMatrix type="matrix" values="0 0 0 0 0 0 0 0 0 0 0 0 0 0 0 0 0 0 0.25 0"/>
<feBlend mode="normal" in2="BackgroundImageFix" result="effect1_dropShadow_2419_1336"/>
<feBlend mode="normal" in="SourceGraphic" in2="effect1_dropShadow_2419_1336" result="shape"/>
</filter>
<clipPath id="clip0_2419_1336">
<rect width="145" height="144" fill="white"/>
</clipPath>
</defs>
</svg>
